<svg width="594" height="160" viewBox="0 0 594 160" fill="none" xmlns="http://www.w3.org/2000/svg">
<rect x="4" width="586" height="144" rx="12" fill="#242526"/>
<rect x="4" width="586" height="144" rx="12" fill="#242526"/>
<path d="M36.676 88.525C36.6 88.525 36.5177 88.4997 36.429 88.449C36.353 88.3983 36.2833 88.3603 36.22 88.335L30.235 84.212C30.045 84.0853 29.9057 83.9587 29.817 83.832C29.7283 83.6927 29.684 83.5343 29.684 83.357V83.015C29.684 82.8377 29.7283 82.6857 29.817 82.559C29.9057 82.4323 30.045 82.2993 30.235 82.16L36.22 78.056C36.2833 78.018 36.353 77.9737 36.429 77.923C36.5177 77.8723 36.6 77.847 36.676 77.847C36.7773 77.847 36.866 77.885 36.942 77.961C37.018 78.0243 37.056 78.1193 37.056 78.246V79.082C37.056 79.2213 37.018 79.3417 36.942 79.443C36.866 79.5317 36.7583 79.6203 36.619 79.709L31.527 83.186L36.619 86.663C36.7583 86.7643 36.866 86.8593 36.942 86.948C37.018 87.0367 37.056 87.157 37.056 87.309V88.145C37.056 88.259 37.018 88.354 36.942 88.43C36.866 88.4933 36.7773 88.525 36.676 88.525ZM353.728 88.506C353.626 88.506 353.538 88.4743 353.462 88.411C353.386 88.3477 353.348 88.2527 353.348 88.126V87.29C353.348 87.138 353.379 87.0177 353.443 86.929C353.519 86.8403 353.633 86.7517 353.785 86.663L358.858 83.186L353.785 79.709C353.633 79.6077 353.519 79.5127 353.443 79.424C353.379 79.3353 353.348 79.215 353.348 79.063V78.227C353.348 78.1003 353.386 78.0053 353.462 77.942C353.538 77.8787 353.626 77.847 353.728 77.847C353.804 77.847 353.886 77.8723 353.975 77.923C354.063 77.961 354.133 77.999 354.184 78.037L360.15 82.141C360.352 82.2803 360.492 82.4133 360.568 82.54C360.656 82.6667 360.701 82.825 360.701 83.015V83.338C360.701 83.5153 360.656 83.6737 360.568 83.813C360.492 83.9397 360.352 84.0727 360.15 84.212L354.184 88.316C354.133 88.354 354.063 88.3983 353.975 88.449C353.886 88.487 353.804 88.506 353.728 88.506ZM444.378 88.525C444.302 88.525 444.22 88.4997 444.131 88.449C444.055 88.3983 443.985 88.3603 443.922 88.335L437.937 84.212C437.747 84.0853 437.608 83.9587 437.519 83.832C437.43 83.6927 437.386 83.5343 437.386 83.357V83.015C437.386 82.8377 437.43 82.6857 437.519 82.559C437.608 82.4323 437.747 82.2993 437.937 82.16L443.922 78.056C443.985 78.018 444.055 77.9737 444.131 77.923C444.22 77.8723 444.302 77.847 444.378 77.847C444.479 77.847 444.568 77.885 444.644 77.961C444.72 78.0243 444.758 78.1193 444.758 78.246V79.082C444.758 79.2213 444.72 79.3417 444.644 79.443C444.568 79.5317 444.46 79.6203 444.321 79.709L439.229 83.186L444.321 86.663C444.46 86.7643 444.568 86.8593 444.644 86.948C444.72 87.0367 444.758 87.157 444.758 87.309V88.145C444.758 88.259 444.72 88.354 444.644 88.43C444.568 88.4933 444.479 88.525 444.378 88.525ZM481.328 88.506C481.227 88.506 481.138 88.4743 481.062 88.411C480.986 88.3477 480.948 88.2527 480.948 88.126V87.29C480.948 87.138 480.98 87.0177 481.043 86.929C481.119 86.8403 481.233 86.7517 481.385 86.663L486.458 83.186L481.385 79.709C481.233 79.6077 481.119 79.5127 481.043 79.424C480.98 79.3353 480.948 79.215 480.948 79.063V78.227C480.948 78.1003 480.986 78.0053 481.062 77.942C481.138 77.8787 481.227 77.847 481.328 77.847C481.404 77.847 481.487 77.8723 481.575 77.923C481.664 77.961 481.734 77.999 481.784 78.037L487.75 82.141C487.953 82.2803 488.092 82.4133 488.168 82.54C488.257 82.6667 488.301 82.825 488.301 83.015V83.338C488.301 83.5153 488.257 83.6737 488.168 83.813C488.092 83.9397 487.953 84.0727 487.75 84.212L481.784 88.316C481.734 88.354 481.664 88.3983 481.575 88.449C481.487 88.487 481.404 88.506 481.328 88.506Z" fill="#647DFF"/>
<path d="M47.1698 89.19C46.5365 89.19 45.9601 89.0633 45.4408 88.81C44.9215 88.5567 44.5035 88.2147 44.1868 87.784C43.8701 87.3533 43.7118 86.8657 43.7118 86.321C43.7118 85.447 44.0665 84.7503 44.7758 84.231C45.4851 83.7117 46.4098 83.3697 47.5498 83.205L50.3808 82.806V82.255C50.3808 81.647 50.2035 81.172 49.8488 80.83C49.5068 80.488 48.9431 80.317 48.1578 80.317C47.5878 80.317 47.1255 80.431 46.7708 80.659C46.4288 80.887 46.1881 81.1783 46.0488 81.533C45.9728 81.723 45.8398 81.818 45.6498 81.818H44.7948C44.6555 81.818 44.5478 81.78 44.4718 81.704C44.4085 81.6153 44.3768 81.514 44.3768 81.4C44.3768 81.21 44.4465 80.9757 44.5858 80.697C44.7378 80.4183 44.9658 80.146 45.2698 79.88C45.5738 79.614 45.9601 79.3923 46.4288 79.215C46.9101 79.025 47.4928 78.93 48.1768 78.93C48.9368 78.93 49.5765 79.0313 50.0958 79.234C50.6151 79.424 51.0205 79.6837 51.3118 80.013C51.6158 80.3423 51.8311 80.716 51.9578 81.134C52.0971 81.552 52.1668 81.9763 52.1668 82.407V88.563C52.1668 88.6897 52.1225 88.7973 52.0338 88.886C51.9578 88.962 51.8565 89 51.7298 89H50.8558C50.7165 89 50.6088 88.962 50.5328 88.886C50.4568 88.7973 50.4188 88.6897 50.4188 88.563V87.746C50.2541 87.974 50.0325 88.202 49.7538 88.43C49.4751 88.6453 49.1268 88.829 48.7088 88.981C48.2908 89.1203 47.7778 89.19 47.1698 89.19ZM47.5688 87.765C48.0881 87.765 48.5631 87.6573 48.9938 87.442C49.4245 87.214 49.7601 86.8657 50.0008 86.397C50.2541 85.9283 50.3808 85.3393 50.3808 84.63V84.098L48.1768 84.421C47.2775 84.5477 46.5998 84.763 46.1438 85.067C45.6878 85.3583 45.4598 85.732 45.4598 86.188C45.4598 86.5427 45.5611 86.8403 45.7638 87.081C45.9791 87.309 46.2451 87.48 46.5618 87.594C46.8911 87.708 47.2268 87.765 47.5688 87.765ZM60.0114 89C59.8847 89 59.7771 88.962 59.6884 88.886C59.6124 88.7973 59.5744 88.6897 59.5744 88.563V75.947C59.5744 75.8203 59.6124 75.719 59.6884 75.643C59.7771 75.5543 59.8847 75.51 60.0114 75.51H60.9614C61.1007 75.51 61.2084 75.5543 61.2844 75.643C61.3604 75.719 61.3984 75.8203 61.3984 75.947V80.374C61.7404 79.9433 62.1584 79.595 62.6524 79.329C63.1464 79.063 63.7734 78.93 64.5334 78.93C65.3567 78.93 66.0534 79.1137 66.6234 79.481C67.2061 79.8357 67.6431 80.336 67.9344 80.982C68.2384 81.6153 68.3904 82.3563 68.3904 83.205V88.563C68.3904 88.6897 68.3524 88.7973 68.2764 88.886C68.2004 88.962 68.0927 89 67.9534 89H67.0034C66.8767 89 66.7691 88.962 66.6804 88.886C66.6044 88.7973 66.5664 88.6897 66.5664 88.563V83.3C66.5664 82.4133 66.3511 81.723 65.9204 81.229C65.4897 80.7223 64.8564 80.469 64.0204 80.469C63.2351 80.469 62.6017 80.7223 62.1204 81.229C61.6391 81.723 61.3984 82.4133 61.3984 83.3V88.563C61.3984 88.6897 61.3604 88.7973 61.2844 88.886C61.2084 88.962 61.1007 89 60.9614 89H60.0114ZM71.5705 89C71.4439 89 71.3362 88.962 71.2475 88.886C71.1715 88.7973 71.1335 88.6897 71.1335 88.563V79.576C71.1335 79.4493 71.1715 79.3417 71.2475 79.253C71.3362 79.1643 71.4439 79.12 71.5705 79.12H72.4445C72.5712 79.12 72.6789 79.1643 72.7675 79.253C72.8562 79.3417 72.9005 79.4493 72.9005 79.576V80.412C73.1539 79.9813 73.5022 79.6583 73.9455 79.443C74.3889 79.2277 74.9209 79.12 75.5415 79.12H76.3015C76.4282 79.12 76.5295 79.1643 76.6055 79.253C76.6815 79.329 76.7195 79.4303 76.7195 79.557V80.336C76.7195 80.4627 76.6815 80.564 76.6055 80.64C76.5295 80.716 76.4282 80.754 76.3015 80.754H75.1615C74.4775 80.754 73.9392 80.9567 73.5465 81.362C73.1539 81.7547 72.9575 82.293 72.9575 82.977V88.563C72.9575 88.6897 72.9132 88.7973 72.8245 88.886C72.7359 88.962 72.6282 89 72.5015 89H71.5705ZM82.0988 89.19C80.7941 89.19 79.7554 88.791 78.9828 87.993C78.2101 87.1823 77.7858 86.0803 77.7098 84.687C77.6971 84.5223 77.6908 84.3133 77.6908 84.06C77.6908 83.794 77.6971 83.5787 77.7098 83.414C77.7604 82.5147 77.9694 81.7293 78.3368 81.058C78.7041 80.374 79.2044 79.8483 79.8378 79.481C80.4838 79.1137 81.2374 78.93 82.0988 78.93C83.0614 78.93 83.8658 79.1327 84.5118 79.538C85.1704 79.9433 85.6708 80.5197 86.0128 81.267C86.3548 82.0143 86.5258 82.8883 86.5258 83.889V84.212C86.5258 84.3513 86.4814 84.459 86.3928 84.535C86.3168 84.611 86.2154 84.649 86.0888 84.649H79.5148C79.5148 84.6617 79.5148 84.687 79.5148 84.725C79.5148 84.763 79.5148 84.7947 79.5148 84.82C79.5401 85.3393 79.6541 85.827 79.8568 86.283C80.0594 86.7263 80.3508 87.0873 80.7308 87.366C81.1108 87.6447 81.5668 87.784 82.0988 87.784C82.5548 87.784 82.9348 87.7143 83.2388 87.575C83.5428 87.4357 83.7898 87.2837 83.9798 87.119C84.1698 86.9417 84.2964 86.8087 84.3598 86.72C84.4738 86.5553 84.5624 86.4603 84.6258 86.435C84.6891 86.397 84.7904 86.378 84.9298 86.378H85.8418C85.9684 86.378 86.0698 86.416 86.1458 86.492C86.2344 86.5553 86.2724 86.6503 86.2598 86.777C86.2471 86.967 86.1458 87.2013 85.9558 87.48C85.7658 87.746 85.4934 88.012 85.1388 88.278C84.7841 88.544 84.3534 88.7657 83.8468 88.943C83.3401 89.1077 82.7574 89.19 82.0988 89.19ZM79.5148 83.338H84.7208V83.281C84.7208 82.711 84.6131 82.2043 84.3978 81.761C84.1951 81.3177 83.8974 80.9693 83.5048 80.716C83.1121 80.45 82.6434 80.317 82.0988 80.317C81.5541 80.317 81.0854 80.45 80.6928 80.716C80.3128 80.9693 80.0214 81.3177 79.8188 81.761C79.6161 82.2043 79.5148 82.711 79.5148 83.281V83.338ZM90.1298 89C90.0032 89 89.8955 88.962 89.8068 88.886C89.7308 88.7973 89.6928 88.6897 89.6928 88.563V80.64H88.0778C87.9512 80.64 87.8435 80.602 87.7548 80.526C87.6788 80.4373 87.6408 80.3297 87.6408 80.203V79.557C87.6408 79.4303 87.6788 79.329 87.7548 79.253C87.8435 79.1643 87.9512 79.12 88.0778 79.12H89.6928V78.17C89.6928 77.524 89.8005 76.9603 90.0158 76.479C90.2312 75.985 90.5732 75.605 91.0418 75.339C91.5232 75.073 92.1628 74.94 92.9608 74.94H94.1008C94.2275 74.94 94.3288 74.9843 94.4048 75.073C94.4808 75.149 94.5188 75.2503 94.5188 75.377V76.023C94.5188 76.1497 94.4808 76.2573 94.4048 76.346C94.3288 76.422 94.2275 76.46 94.1008 76.46H92.9988C92.4035 76.46 91.9982 76.6183 91.7828 76.935C91.5675 77.239 91.4598 77.6823 91.4598 78.265V79.12H93.9108C94.0375 79.12 94.1388 79.1643 94.2148 79.253C94.2908 79.329 94.3288 79.4303 94.3288 79.557V80.203C94.3288 80.3297 94.2908 80.4373 94.2148 80.526C94.1388 80.602 94.0375 80.64 93.9108 80.64H91.4598V88.563C91.4598 88.6897 91.4155 88.7973 91.3268 88.886C91.2508 88.962 91.1495 89 91.0228 89H90.1298ZM100.626 81.666C100.499 81.666 100.398 81.628 100.322 81.552C100.246 81.476 100.208 81.3747 100.208 81.248V80.602C100.208 80.4753 100.246 80.374 100.322 80.298C100.398 80.222 100.499 80.184 100.626 80.184H107.865C107.992 80.184 108.093 80.222 108.169 80.298C108.258 80.374 108.302 80.4753 108.302 80.602V81.248C108.302 81.3747 108.258 81.476 108.169 81.552C108.093 81.628 107.992 81.666 107.865 81.666H100.626ZM100.626 86.416C100.499 86.416 100.398 86.378 100.322 86.302C100.246 86.226 100.208 86.1247 100.208 85.998V85.352C100.208 85.2253 100.246 85.124 100.322 85.048C100.398 84.972 100.499 84.934 100.626 84.934H107.865C107.992 84.934 108.093 84.972 108.169 85.048C108.258 85.124 108.302 85.2253 108.302 85.352V85.998C108.302 86.1247 108.258 86.226 108.169 86.302C108.093 86.378 107.992 86.416 107.865 86.416H100.626ZM118.646 79.177C118.557 79.177 118.481 79.1453 118.418 79.082C118.367 79.0187 118.342 78.9427 118.342 78.854C118.342 78.7527 118.361 78.6513 118.399 78.55L119.406 75.947C119.469 75.8203 119.533 75.719 119.596 75.643C119.672 75.5543 119.792 75.51 119.957 75.51H120.584C120.685 75.51 120.761 75.548 120.812 75.624C120.875 75.7 120.894 75.8013 120.869 75.928L120.451 78.626C120.438 78.778 120.388 78.911 120.299 79.025C120.21 79.1263 120.077 79.177 119.9 79.177H118.646ZM115.606 79.177C115.517 79.177 115.441 79.1453 115.378 79.082C115.327 79.0187 115.302 78.9427 115.302 78.854C115.302 78.7527 115.321 78.6513 115.359 78.55L116.366 75.947C116.429 75.8203 116.499 75.719 116.575 75.643C116.651 75.5543 116.765 75.51 116.917 75.51H117.544C117.645 75.51 117.721 75.548 117.772 75.624C117.835 75.7 117.854 75.8013 117.829 75.928L117.411 78.626C117.398 78.778 117.348 78.911 117.259 79.025C117.17 79.1263 117.044 79.177 116.879 79.177H115.606ZM344.459 79.177C344.345 79.177 344.263 79.139 344.212 79.063C344.162 78.987 344.143 78.892 344.155 78.778L344.573 76.061C344.599 75.909 344.649 75.7823 344.725 75.681C344.814 75.567 344.947 75.51 345.124 75.51H346.378C346.48 75.51 346.556 75.548 346.606 75.624C346.67 75.6873 346.701 75.757 346.701 75.833C346.701 75.9343 346.676 76.0357 346.625 76.137L345.637 78.74C345.587 78.8667 345.517 78.9743 345.428 79.063C345.352 79.139 345.232 79.177 345.067 79.177H344.459ZM341.419 79.177C341.318 79.177 341.236 79.139 341.172 79.063C341.122 78.987 341.103 78.892 341.115 78.778L341.552 76.061C341.578 75.909 341.628 75.7823 341.704 75.681C341.793 75.567 341.92 75.51 342.084 75.51H343.357C343.446 75.51 343.516 75.548 343.566 75.624C343.63 75.6873 343.661 75.757 343.661 75.833C343.661 75.9343 343.636 76.0357 343.585 76.137L342.597 78.74C342.547 78.8667 342.477 78.9743 342.388 79.063C342.312 79.139 342.192 79.177 342.027 79.177H341.419ZM451.585 90.596C451.484 90.596 451.395 90.558 451.319 90.482C451.243 90.406 451.205 90.3173 451.205 90.216C451.205 90.1527 451.224 90.0767 451.262 89.988L457.76 74.408C457.798 74.332 457.849 74.256 457.912 74.18C457.988 74.104 458.102 74.066 458.254 74.066H458.995C459.096 74.066 459.185 74.104 459.261 74.18C459.337 74.256 459.375 74.3447 459.375 74.446C459.375 74.4967 459.362 74.5727 459.337 74.674L452.82 90.254C452.795 90.3173 452.738 90.387 452.649 90.463C452.573 90.5517 452.465 90.596 452.326 90.596H451.585ZM468.677 89.19C468.043 89.19 467.467 89.0633 466.948 88.81C466.428 88.5567 466.01 88.2147 465.694 87.784C465.377 87.3533 465.219 86.8657 465.219 86.321C465.219 85.447 465.573 84.7503 466.283 84.231C466.992 83.7117 467.917 83.3697 469.057 83.205L471.888 82.806V82.255C471.888 81.647 471.71 81.172 471.356 80.83C471.014 80.488 470.45 80.317 469.665 80.317C469.095 80.317 468.632 80.431 468.278 80.659C467.936 80.887 467.695 81.1783 467.556 81.533C467.48 81.723 467.347 81.818 467.157 81.818H466.302C466.162 81.818 466.055 81.78 465.979 81.704C465.915 81.6153 465.884 81.514 465.884 81.4C465.884 81.21 465.953 80.9757 466.093 80.697C466.245 80.4183 466.473 80.146 466.777 79.88C467.081 79.614 467.467 79.3923 467.936 79.215C468.417 79.025 469 78.93 469.684 78.93C470.444 78.93 471.083 79.0313 471.603 79.234C472.122 79.424 472.527 79.6837 472.819 80.013C473.123 80.3423 473.338 80.716 473.465 81.134C473.604 81.552 473.674 81.9763 473.674 82.407V88.563C473.674 88.6897 473.629 88.7973 473.541 88.886C473.465 88.962 473.363 89 473.237 89H472.363C472.223 89 472.116 88.962 472.04 88.886C471.964 88.7973 471.926 88.6897 471.926 88.563V87.746C471.761 87.974 471.539 88.202 471.261 88.43C470.982 88.6453 470.634 88.829 470.216 88.981C469.798 89.1203 469.285 89.19 468.677 89.19ZM469.076 87.765C469.595 87.765 470.07 87.6573 470.501 87.442C470.931 87.214 471.267 86.8657 471.508 86.397C471.761 85.9283 471.888 85.3393 471.888 84.63V84.098L469.684 84.421C468.784 84.5477 468.107 84.763 467.651 85.067C467.195 85.3583 466.967 85.732 466.967 86.188C466.967 86.5427 467.068 86.8403 467.271 87.081C467.486 87.309 467.752 87.48 468.069 87.594C468.398 87.708 468.734 87.765 469.076 87.765Z" fill="white" fill-opacity="0.75"/>
<path d="M123.691 89C123.564 89 123.457 88.962 123.368 88.886C123.292 88.7973 123.254 88.6897 123.254 88.563V75.947C123.254 75.8203 123.292 75.719 123.368 75.643C123.457 75.5543 123.564 75.51 123.691 75.51H124.641C124.78 75.51 124.888 75.5543 124.964 75.643C125.04 75.719 125.078 75.8203 125.078 75.947V80.374C125.42 79.9433 125.838 79.595 126.332 79.329C126.826 79.063 127.453 78.93 128.213 78.93C129.036 78.93 129.733 79.1137 130.303 79.481C130.886 79.8357 131.323 80.336 131.614 80.982C131.918 81.6153 132.07 82.3563 132.07 83.205V88.563C132.07 88.6897 132.032 88.7973 131.956 88.886C131.88 88.962 131.772 89 131.633 89H130.683C130.556 89 130.449 88.962 130.36 88.886C130.284 88.7973 130.246 88.6897 130.246 88.563V83.3C130.246 82.4133 130.031 81.723 129.6 81.229C129.169 80.7223 128.536 80.469 127.7 80.469C126.915 80.469 126.281 80.7223 125.8 81.229C125.319 81.723 125.078 82.4133 125.078 83.3V88.563C125.078 88.6897 125.04 88.7973 124.964 88.886C124.888 88.962 124.78 89 124.641 89H123.691ZM138.54 89C137.831 89 137.255 88.867 136.811 88.601C136.368 88.3223 136.045 87.936 135.842 87.442C135.64 86.9353 135.538 86.34 135.538 85.656V80.64H134.056C133.93 80.64 133.822 80.602 133.733 80.526C133.657 80.4373 133.619 80.3297 133.619 80.203V79.557C133.619 79.4303 133.657 79.329 133.733 79.253C133.822 79.1643 133.93 79.12 134.056 79.12H135.538V75.947C135.538 75.8203 135.576 75.719 135.652 75.643C135.741 75.5543 135.849 75.51 135.975 75.51H136.868C136.995 75.51 137.096 75.5543 137.172 75.643C137.261 75.719 137.305 75.8203 137.305 75.947V79.12H139.661C139.788 79.12 139.889 79.1643 139.965 79.253C140.054 79.329 140.098 79.4303 140.098 79.557V80.203C140.098 80.3297 140.054 80.4373 139.965 80.526C139.889 80.602 139.788 80.64 139.661 80.64H137.305V85.523C137.305 86.1183 137.407 86.587 137.609 86.929C137.812 87.271 138.173 87.442 138.692 87.442H139.851C139.978 87.442 140.079 87.4863 140.155 87.575C140.244 87.651 140.288 87.7523 140.288 87.879V88.563C140.288 88.6897 140.244 88.7973 140.155 88.886C140.079 88.962 139.978 89 139.851 89H138.54ZM145.962 89C145.253 89 144.677 88.867 144.233 88.601C143.79 88.3223 143.467 87.936 143.264 87.442C143.062 86.9353 142.96 86.34 142.96 85.656V80.64H141.478C141.352 80.64 141.244 80.602 141.155 80.526C141.079 80.4373 141.041 80.3297 141.041 80.203V79.557C141.041 79.4303 141.079 79.329 141.155 79.253C141.244 79.1643 141.352 79.12 141.478 79.12H142.96V75.947C142.96 75.8203 142.998 75.719 143.074 75.643C143.163 75.5543 143.271 75.51 143.397 75.51H144.29C144.417 75.51 144.518 75.5543 144.594 75.643C144.683 75.719 144.727 75.8203 144.727 75.947V79.12H147.083C147.21 79.12 147.311 79.1643 147.387 79.253C147.476 79.329 147.52 79.4303 147.52 79.557V80.203C147.52 80.3297 147.476 80.4373 147.387 80.526C147.311 80.602 147.21 80.64 147.083 80.64H144.727V85.523C144.727 86.1183 144.829 86.587 145.031 86.929C145.234 87.271 145.595 87.442 146.114 87.442H147.273C147.4 87.442 147.501 87.4863 147.577 87.575C147.666 87.651 147.71 87.7523 147.71 87.879V88.563C147.71 88.6897 147.666 88.7973 147.577 88.886C147.501 88.962 147.4 89 147.273 89H145.962ZM149.983 92.61C149.856 92.61 149.749 92.5657 149.66 92.477C149.584 92.401 149.546 92.2997 149.546 92.173V79.557C149.546 79.4303 149.584 79.329 149.66 79.253C149.749 79.1643 149.856 79.12 149.983 79.12H150.857C150.984 79.12 151.085 79.1643 151.161 79.253C151.25 79.329 151.294 79.4303 151.294 79.557V80.393C151.598 79.975 152.003 79.6267 152.51 79.348C153.017 79.0693 153.65 78.93 154.41 78.93C155.119 78.93 155.721 79.0503 156.215 79.291C156.722 79.5317 157.133 79.861 157.45 80.279C157.779 80.697 158.026 81.172 158.191 81.704C158.356 82.236 158.444 82.806 158.457 83.414C158.47 83.6167 158.476 83.832 158.476 84.06C158.476 84.288 158.47 84.5033 158.457 84.706C158.444 85.3013 158.356 85.8713 158.191 86.416C158.026 86.948 157.779 87.423 157.45 87.841C157.133 88.2463 156.722 88.5757 156.215 88.829C155.721 89.0697 155.119 89.19 154.41 89.19C153.675 89.19 153.055 89.057 152.548 88.791C152.054 88.5123 151.649 88.1703 151.332 87.765V92.173C151.332 92.2997 151.294 92.401 151.218 92.477C151.142 92.5657 151.034 92.61 150.895 92.61H149.983ZM154.011 87.651C154.67 87.651 155.183 87.5117 155.55 87.233C155.93 86.9417 156.202 86.568 156.367 86.112C156.532 85.6433 156.627 85.143 156.652 84.611C156.665 84.2437 156.665 83.8763 156.652 83.509C156.627 82.977 156.532 82.483 156.367 82.027C156.202 81.5583 155.93 81.1847 155.55 80.906C155.183 80.6147 154.67 80.469 154.011 80.469C153.39 80.469 152.884 80.6147 152.491 80.906C152.111 81.1973 151.826 81.571 151.636 82.027C151.459 82.4703 151.357 82.9263 151.332 83.395C151.319 83.5977 151.313 83.8383 151.313 84.117C151.313 84.3957 151.319 84.6427 151.332 84.858C151.345 85.3013 151.446 85.7383 151.636 86.169C151.839 86.5997 152.136 86.9543 152.529 87.233C152.922 87.5117 153.416 87.651 154.011 87.651ZM164.265 89.19C163.556 89.19 162.948 89.1013 162.441 88.924C161.935 88.7467 161.523 88.5313 161.206 88.278C160.89 88.0247 160.649 87.7713 160.484 87.518C160.332 87.2647 160.25 87.062 160.237 86.91C160.225 86.7707 160.269 86.663 160.37 86.587C160.472 86.511 160.573 86.473 160.674 86.473H161.51C161.586 86.473 161.643 86.4857 161.681 86.511C161.732 86.5237 161.795 86.5743 161.871 86.663C162.036 86.8403 162.22 87.0177 162.422 87.195C162.625 87.3723 162.872 87.518 163.163 87.632C163.467 87.746 163.841 87.803 164.284 87.803C164.93 87.803 165.462 87.6827 165.88 87.442C166.298 87.1887 166.507 86.8213 166.507 86.34C166.507 86.0233 166.419 85.77 166.241 85.58C166.077 85.39 165.773 85.219 165.329 85.067C164.899 84.915 164.303 84.7567 163.543 84.592C162.783 84.4147 162.182 84.1993 161.738 83.946C161.295 83.68 160.978 83.3697 160.788 83.015C160.598 82.6477 160.503 82.236 160.503 81.78C160.503 81.3113 160.643 80.8617 160.921 80.431C161.2 79.9877 161.605 79.6267 162.137 79.348C162.682 79.0693 163.36 78.93 164.17 78.93C164.829 78.93 165.393 79.0123 165.861 79.177C166.33 79.3417 166.716 79.5507 167.02 79.804C167.324 80.0447 167.552 80.2853 167.704 80.526C167.856 80.7667 167.939 80.9693 167.951 81.134C167.964 81.2607 167.926 81.3683 167.837 81.457C167.749 81.533 167.647 81.571 167.533 81.571H166.735C166.647 81.571 166.571 81.552 166.507 81.514C166.457 81.476 166.406 81.4317 166.355 81.381C166.229 81.2163 166.077 81.0517 165.899 80.887C165.735 80.7223 165.513 80.5893 165.234 80.488C164.968 80.374 164.614 80.317 164.17 80.317C163.537 80.317 163.062 80.45 162.745 80.716C162.429 80.982 162.27 81.3177 162.27 81.723C162.27 81.9637 162.34 82.179 162.479 82.369C162.619 82.559 162.885 82.73 163.277 82.882C163.67 83.034 164.253 83.1987 165.025 83.376C165.861 83.5407 166.52 83.7623 167.001 84.041C167.483 84.3197 167.825 84.6427 168.027 85.01C168.23 85.3773 168.331 85.8017 168.331 86.283C168.331 86.815 168.173 87.3027 167.856 87.746C167.552 88.1893 167.096 88.544 166.488 88.81C165.893 89.0633 165.152 89.19 164.265 89.19ZM170.873 82.35C170.746 82.35 170.639 82.312 170.55 82.236C170.474 82.1473 170.436 82.0397 170.436 81.913V80.583C170.436 80.4563 170.474 80.355 170.55 80.279C170.639 80.1903 170.746 80.146 170.873 80.146H172.222C172.361 80.146 172.469 80.1903 172.545 80.279C172.634 80.355 172.678 80.4563 172.678 80.583V81.913C172.678 82.0397 172.634 82.1473 172.545 82.236C172.469 82.312 172.361 82.35 172.222 82.35H170.873ZM170.873 89C170.746 89 170.639 88.962 170.55 88.886C170.474 88.7973 170.436 88.6897 170.436 88.563V87.233C170.436 87.1063 170.474 87.005 170.55 86.929C170.639 86.8403 170.746 86.796 170.873 86.796H172.222C172.361 86.796 172.469 86.8403 172.545 86.929C172.634 87.005 172.678 87.1063 172.678 87.233V88.563C172.678 88.6897 172.634 88.7973 172.545 88.886C172.469 88.962 172.361 89 172.222 89H170.873ZM174.86 90.596C174.759 90.596 174.67 90.558 174.594 90.482C174.518 90.406 174.48 90.3173 174.48 90.216C174.48 90.1527 174.499 90.0767 174.537 89.988L181.035 74.408C181.073 74.332 181.124 74.256 181.187 74.18C181.263 74.104 181.377 74.066 181.529 74.066H182.27C182.372 74.066 182.46 74.104 182.536 74.18C182.612 74.256 182.65 74.3447 182.65 74.446C182.65 74.4967 182.638 74.5727 182.612 74.674L176.095 90.254C176.07 90.3173 176.013 90.387 175.924 90.463C175.848 90.5517 175.741 90.596 175.601 90.596H174.86ZM180.111 90.596C180.01 90.596 179.921 90.558 179.845 90.482C179.769 90.406 179.731 90.3173 179.731 90.216C179.731 90.1527 179.75 90.0767 179.788 89.988L186.286 74.408C186.324 74.332 186.375 74.256 186.438 74.18C186.514 74.104 186.628 74.066 186.78 74.066H187.521C187.623 74.066 187.711 74.104 187.787 74.18C187.863 74.256 187.901 74.3447 187.901 74.446C187.901 74.4967 187.889 74.5727 187.863 74.674L181.346 90.254C181.321 90.3173 181.264 90.387 181.175 90.463C181.099 90.5517 180.992 90.596 180.852 90.596H180.111ZM191.893 89C191.729 89 191.602 88.962 191.513 88.886C191.425 88.7973 191.349 88.677 191.285 88.525L188.587 79.709C188.562 79.6457 188.549 79.5823 188.549 79.519C188.549 79.405 188.587 79.31 188.663 79.234C188.752 79.158 188.847 79.12 188.948 79.12H189.784C189.924 79.12 190.031 79.158 190.107 79.234C190.183 79.31 190.234 79.3797 190.259 79.443L192.368 86.606L194.629 79.519C194.655 79.4303 194.705 79.3417 194.781 79.253C194.87 79.1643 194.997 79.12 195.161 79.12H195.807C195.972 79.12 196.099 79.1643 196.187 79.253C196.276 79.3417 196.327 79.4303 196.339 79.519L198.6 86.606L200.709 79.443C200.722 79.3797 200.766 79.31 200.842 79.234C200.918 79.158 201.026 79.12 201.165 79.12H202.001C202.115 79.12 202.21 79.158 202.286 79.234C202.362 79.31 202.4 79.405 202.4 79.519C202.4 79.5823 202.388 79.6457 202.362 79.709L199.664 88.525C199.626 88.677 199.557 88.7973 199.455 88.886C199.367 88.962 199.234 89 199.056 89H198.315C198.151 89 198.011 88.962 197.897 88.886C197.796 88.7973 197.726 88.677 197.688 88.525L195.484 81.723L193.28 88.525C193.23 88.677 193.154 88.7973 193.052 88.886C192.951 88.962 192.812 89 192.634 89H191.893ZM207.127 89C206.962 89 206.835 88.962 206.747 88.886C206.658 88.7973 206.582 88.677 206.519 88.525L203.821 79.709C203.795 79.6457 203.783 79.5823 203.783 79.519C203.783 79.405 203.821 79.31 203.897 79.234C203.985 79.158 204.08 79.12 204.182 79.12H205.018C205.157 79.12 205.265 79.158 205.341 79.234C205.417 79.31 205.467 79.3797 205.493 79.443L207.602 86.606L209.863 79.519C209.888 79.4303 209.939 79.3417 210.015 79.253C210.103 79.1643 210.23 79.12 210.395 79.12H211.041C211.205 79.12 211.332 79.1643 211.421 79.253C211.509 79.3417 211.56 79.4303 211.573 79.519L213.834 86.606L215.943 79.443C215.955 79.3797 216 79.31 216.076 79.234C216.152 79.158 216.259 79.12 216.399 79.12H217.235C217.349 79.12 217.444 79.158 217.52 79.234C217.596 79.31 217.634 79.405 217.634 79.519C217.634 79.5823 217.621 79.6457 217.596 79.709L214.898 88.525C214.86 88.677 214.79 88.7973 214.689 88.886C214.6 88.962 214.467 89 214.29 89H213.549C213.384 89 213.245 88.962 213.131 88.886C213.029 88.7973 212.96 88.677 212.922 88.525L210.718 81.723L208.514 88.525C208.463 88.677 208.387 88.7973 208.286 88.886C208.184 88.962 208.045 89 207.868 89H207.127ZM222.36 89C222.195 89 222.069 88.962 221.98 88.886C221.891 88.7973 221.815 88.677 221.752 88.525L219.054 79.709C219.029 79.6457 219.016 79.5823 219.016 79.519C219.016 79.405 219.054 79.31 219.13 79.234C219.219 79.158 219.314 79.12 219.415 79.12H220.251C220.39 79.12 220.498 79.158 220.574 79.234C220.65 79.31 220.701 79.3797 220.726 79.443L222.835 86.606L225.096 79.519C225.121 79.4303 225.172 79.3417 225.248 79.253C225.337 79.1643 225.463 79.12 225.628 79.12H226.274C226.439 79.12 226.565 79.1643 226.654 79.253C226.743 79.3417 226.793 79.4303 226.806 79.519L229.067 86.606L231.176 79.443C231.189 79.3797 231.233 79.31 231.309 79.234C231.385 79.158 231.493 79.12 231.632 79.12H232.468C232.582 79.12 232.677 79.158 232.753 79.234C232.829 79.31 232.867 79.405 232.867 79.519C232.867 79.5823 232.854 79.6457 232.829 79.709L230.131 88.525C230.093 88.677 230.023 88.7973 229.922 88.886C229.833 88.962 229.7 89 229.523 89H228.782C228.617 89 228.478 88.962 228.364 88.886C228.263 88.7973 228.193 88.677 228.155 88.525L225.951 81.723L223.747 88.525C223.696 88.677 223.62 88.7973 223.519 88.886C223.418 88.962 223.278 89 223.101 89H222.36ZM234.515 89C234.388 89 234.28 88.962 234.192 88.886C234.116 88.7973 234.078 88.6897 234.078 88.563V87.195C234.078 87.0683 234.116 86.967 234.192 86.891C234.28 86.8023 234.388 86.758 234.515 86.758H235.883C236.009 86.758 236.111 86.8023 236.187 86.891C236.275 86.967 236.32 87.0683 236.32 87.195V88.563C236.32 88.6897 236.275 88.7973 236.187 88.886C236.111 88.962 236.009 89 235.883 89H234.515ZM242.859 93.18C241.998 93.18 241.289 93.066 240.731 92.838C240.187 92.61 239.756 92.3313 239.439 92.002C239.135 91.6853 238.914 91.3623 238.774 91.033C238.648 90.7163 238.578 90.463 238.565 90.273C238.553 90.1463 238.591 90.0387 238.679 89.95C238.781 89.8613 238.888 89.817 239.002 89.817H239.914C240.028 89.817 240.123 89.8423 240.199 89.893C240.275 89.9437 240.339 90.0513 240.389 90.216C240.465 90.406 240.579 90.615 240.731 90.843C240.883 91.0837 241.118 91.2863 241.434 91.451C241.751 91.6283 242.194 91.717 242.764 91.717C243.36 91.717 243.86 91.6347 244.265 91.47C244.671 91.318 244.975 91.0393 245.177 90.634C245.393 90.2413 245.5 89.6967 245.5 89V87.708C245.196 88.1007 244.797 88.43 244.303 88.696C243.809 88.9493 243.189 89.076 242.441 89.076C241.732 89.076 241.124 88.9557 240.617 88.715C240.111 88.4617 239.693 88.126 239.363 87.708C239.047 87.2773 238.806 86.7897 238.641 86.245C238.489 85.7003 238.401 85.1303 238.375 84.535C238.363 84.1803 238.363 83.832 238.375 83.49C238.401 82.8947 238.489 82.3247 238.641 81.78C238.806 81.2353 239.047 80.7477 239.363 80.317C239.693 79.8863 240.111 79.5507 240.617 79.31C241.124 79.0567 241.732 78.93 242.441 78.93C243.201 78.93 243.828 79.0757 244.322 79.367C244.829 79.6457 245.241 79.9877 245.557 80.393V79.576C245.557 79.4493 245.595 79.3417 245.671 79.253C245.76 79.1643 245.868 79.12 245.994 79.12H246.868C246.995 79.12 247.103 79.1643 247.191 79.253C247.28 79.3417 247.324 79.4493 247.324 79.576V88.791C247.324 89.6397 247.179 90.3933 246.887 91.052C246.609 91.7107 246.14 92.23 245.481 92.61C244.835 92.99 243.961 93.18 242.859 93.18ZM242.821 87.556C243.455 87.556 243.961 87.4103 244.341 87.119C244.734 86.8277 245.019 86.4603 245.196 86.017C245.386 85.5737 245.488 85.124 245.5 84.668C245.513 84.4907 245.519 84.2753 245.519 84.022C245.519 83.756 245.513 83.5343 245.5 83.357C245.488 82.901 245.386 82.4513 245.196 82.008C245.019 81.5647 244.734 81.1973 244.341 80.906C243.961 80.6147 243.455 80.469 242.821 80.469C242.188 80.469 241.681 80.6147 241.301 80.906C240.921 81.1847 240.649 81.5583 240.484 82.027C240.32 82.483 240.225 82.977 240.199 83.509C240.187 83.8383 240.187 84.174 240.199 84.516C240.225 85.048 240.32 85.5483 240.484 86.017C240.649 86.473 240.921 86.8467 241.301 87.138C241.681 87.4167 242.188 87.556 242.821 87.556ZM254.196 89.19C253.233 89.19 252.429 89.0063 251.783 88.639C251.137 88.2717 250.643 87.765 250.301 87.119C249.959 86.4603 249.769 85.713 249.731 84.877C249.718 84.6617 249.712 84.3893 249.712 84.06C249.712 83.718 249.718 83.4457 249.731 83.243C249.769 82.3943 249.959 81.647 250.301 81.001C250.656 80.355 251.156 79.8483 251.802 79.481C252.448 79.1137 253.246 78.93 254.196 78.93C255.146 78.93 255.944 79.1137 256.59 79.481C257.236 79.8483 257.73 80.355 258.072 81.001C258.427 81.647 258.623 82.3943 258.661 83.243C258.674 83.4457 258.68 83.718 258.68 84.06C258.68 84.3893 258.674 84.6617 258.661 84.877C258.623 85.713 258.433 86.4603 258.091 87.119C257.749 87.765 257.255 88.2717 256.609 88.639C255.963 89.0063 255.159 89.19 254.196 89.19ZM254.196 87.727C254.981 87.727 255.608 87.48 256.077 86.986C256.546 86.4793 256.799 85.7447 256.837 84.782C256.85 84.592 256.856 84.3513 256.856 84.06C256.856 83.7687 256.85 83.528 256.837 83.338C256.799 82.3753 256.546 81.647 256.077 81.153C255.608 80.6463 254.981 80.393 254.196 80.393C253.411 80.393 252.777 80.6463 252.296 81.153C251.827 81.647 251.58 82.3753 251.555 83.338C251.542 83.528 251.536 83.7687 251.536 84.06C251.536 84.3513 251.542 84.592 251.555 84.782C251.58 85.7447 251.827 86.4793 252.296 86.986C252.777 87.48 253.411 87.727 254.196 87.727ZM265.106 89.19C264.144 89.19 263.339 89.0063 262.693 88.639C262.047 88.2717 261.553 87.765 261.211 87.119C260.869 86.4603 260.679 85.713 260.641 84.877C260.629 84.6617 260.622 84.3893 260.622 84.06C260.622 83.718 260.629 83.4457 260.641 83.243C260.679 82.3943 260.869 81.647 261.211 81.001C261.566 80.355 262.066 79.8483 262.712 79.481C263.358 79.1137 264.156 78.93 265.106 78.93C266.056 78.93 266.854 79.1137 267.5 79.481C268.146 79.8483 268.64 80.355 268.982 81.001C269.337 81.647 269.533 82.3943 269.571 83.243C269.584 83.4457 269.59 83.718 269.59 84.06C269.59 84.3893 269.584 84.6617 269.571 84.877C269.533 85.713 269.343 86.4603 269.001 87.119C268.659 87.765 268.165 88.2717 267.519 88.639C266.873 89.0063 266.069 89.19 265.106 89.19ZM265.106 87.727C265.892 87.727 266.519 87.48 266.987 86.986C267.456 86.4793 267.709 85.7447 267.747 84.782C267.76 84.592 267.766 84.3513 267.766 84.06C267.766 83.7687 267.76 83.528 267.747 83.338C267.709 82.3753 267.456 81.647 266.987 81.153C266.519 80.6463 265.892 80.393 265.106 80.393C264.321 80.393 263.688 80.6463 263.206 81.153C262.738 81.647 262.491 82.3753 262.465 83.338C262.453 83.528 262.446 83.7687 262.446 84.06C262.446 84.3513 262.453 84.592 262.465 84.782C262.491 85.7447 262.738 86.4793 263.206 86.986C263.688 87.48 264.321 87.727 265.106 87.727ZM276.016 93.18C275.155 93.18 274.446 93.066 273.888 92.838C273.344 92.61 272.913 92.3313 272.596 92.002C272.292 91.6853 272.071 91.3623 271.931 91.033C271.805 90.7163 271.735 90.463 271.722 90.273C271.71 90.1463 271.748 90.0387 271.836 89.95C271.938 89.8613 272.045 89.817 272.159 89.817H273.071C273.185 89.817 273.28 89.8423 273.356 89.893C273.432 89.9437 273.496 90.0513 273.546 90.216C273.622 90.406 273.736 90.615 273.888 90.843C274.04 91.0837 274.275 91.2863 274.591 91.451C274.908 91.6283 275.351 91.717 275.921 91.717C276.517 91.717 277.017 91.6347 277.422 91.47C277.828 91.318 278.132 91.0393 278.334 90.634C278.55 90.2413 278.657 89.6967 278.657 89V87.708C278.353 88.1007 277.954 88.43 277.46 88.696C276.966 88.9493 276.346 89.076 275.598 89.076C274.889 89.076 274.281 88.9557 273.774 88.715C273.268 88.4617 272.85 88.126 272.52 87.708C272.204 87.2773 271.963 86.7897 271.798 86.245C271.646 85.7003 271.558 85.1303 271.532 84.535C271.52 84.1803 271.52 83.832 271.532 83.49C271.558 82.8947 271.646 82.3247 271.798 81.78C271.963 81.2353 272.204 80.7477 272.52 80.317C272.85 79.8863 273.268 79.5507 273.774 79.31C274.281 79.0567 274.889 78.93 275.598 78.93C276.358 78.93 276.985 79.0757 277.479 79.367C277.986 79.6457 278.398 79.9877 278.714 80.393V79.576C278.714 79.4493 278.752 79.3417 278.828 79.253C278.917 79.1643 279.025 79.12 279.151 79.12H280.025C280.152 79.12 280.26 79.1643 280.348 79.253C280.437 79.3417 280.481 79.4493 280.481 79.576V88.791C280.481 89.6397 280.336 90.3933 280.044 91.052C279.766 91.7107 279.297 92.23 278.638 92.61C277.992 92.99 277.118 93.18 276.016 93.18ZM275.978 87.556C276.612 87.556 277.118 87.4103 277.498 87.119C277.891 86.8277 278.176 86.4603 278.353 86.017C278.543 85.5737 278.645 85.124 278.657 84.668C278.67 84.4907 278.676 84.2753 278.676 84.022C278.676 83.756 278.67 83.5343 278.657 83.357C278.645 82.901 278.543 82.4513 278.353 82.008C278.176 81.5647 277.891 81.1973 277.498 80.906C277.118 80.6147 276.612 80.469 275.978 80.469C275.345 80.469 274.838 80.6147 274.458 80.906C274.078 81.1847 273.806 81.5583 273.641 82.027C273.477 82.483 273.382 82.977 273.356 83.509C273.344 83.8383 273.344 84.174 273.356 84.516C273.382 85.048 273.477 85.5483 273.641 86.017C273.806 86.473 274.078 86.8467 274.458 87.138C274.838 87.4167 275.345 87.556 275.978 87.556ZM283.762 89C283.636 89 283.528 88.962 283.439 88.886C283.363 88.7973 283.325 88.6897 283.325 88.563V75.947C283.325 75.8203 283.363 75.719 283.439 75.643C283.528 75.5543 283.636 75.51 283.762 75.51H284.655C284.795 75.51 284.902 75.5543 284.978 75.643C285.054 75.719 285.092 75.8203 285.092 75.947V88.563C285.092 88.6897 285.054 88.7973 284.978 88.886C284.902 88.962 284.795 89 284.655 89H283.762ZM291.86 89.19C290.555 89.19 289.516 88.791 288.744 87.993C287.971 87.1823 287.547 86.0803 287.471 84.687C287.458 84.5223 287.452 84.3133 287.452 84.06C287.452 83.794 287.458 83.5787 287.471 83.414C287.521 82.5147 287.73 81.7293 288.098 81.058C288.465 80.374 288.965 79.8483 289.599 79.481C290.245 79.1137 290.998 78.93 291.86 78.93C292.822 78.93 293.627 79.1327 294.273 79.538C294.931 79.9433 295.432 80.5197 295.774 81.267C296.116 82.0143 296.287 82.8883 296.287 83.889V84.212C296.287 84.3513 296.242 84.459 296.154 84.535C296.078 84.611 295.976 84.649 295.85 84.649H289.276C289.276 84.6617 289.276 84.687 289.276 84.725C289.276 84.763 289.276 84.7947 289.276 84.82C289.301 85.3393 289.415 85.827 289.618 86.283C289.82 86.7263 290.112 87.0873 290.492 87.366C290.872 87.6447 291.328 87.784 291.86 87.784C292.316 87.784 292.696 87.7143 293 87.575C293.304 87.4357 293.551 87.2837 293.741 87.119C293.931 86.9417 294.057 86.8087 294.121 86.72C294.235 86.5553 294.323 86.4603 294.387 86.435C294.45 86.397 294.551 86.378 294.691 86.378H295.603C295.729 86.378 295.831 86.416 295.907 86.492C295.995 86.5553 296.033 86.6503 296.021 86.777C296.008 86.967 295.907 87.2013 295.717 87.48C295.527 87.746 295.254 88.012 294.9 88.278C294.545 88.544 294.114 88.7657 293.608 88.943C293.101 89.1077 292.518 89.19 291.86 89.19ZM289.276 83.338H294.482V83.281C294.482 82.711 294.374 82.2043 294.159 81.761C293.956 81.3177 293.658 80.9693 293.266 80.716C292.873 80.45 292.404 80.317 291.86 80.317C291.315 80.317 290.846 80.45 290.454 80.716C290.074 80.9693 289.782 81.3177 289.58 81.761C289.377 82.2043 289.276 82.711 289.276 83.281V83.338ZM298.862 89C298.736 89 298.628 88.962 298.539 88.886C298.463 88.7973 298.425 88.6897 298.425 88.563V87.195C298.425 87.0683 298.463 86.967 298.539 86.891C298.628 86.8023 298.736 86.758 298.862 86.758H300.23C300.357 86.758 300.458 86.8023 300.534 86.891C300.623 86.967 300.667 87.0683 300.667 87.195V88.563C300.667 88.6897 300.623 88.7973 300.534 88.886C300.458 88.962 300.357 89 300.23 89H298.862ZM307.15 89.19C306.251 89.19 305.472 89.019 304.813 88.677C304.167 88.3223 303.667 87.822 303.312 87.176C302.957 86.5173 302.767 85.732 302.742 84.82C302.729 84.63 302.723 84.3767 302.723 84.06C302.723 83.7433 302.729 83.49 302.742 83.3C302.767 82.388 302.957 81.609 303.312 80.963C303.667 80.3043 304.167 79.804 304.813 79.462C305.472 79.1073 306.251 78.93 307.15 78.93C307.885 78.93 308.512 79.0313 309.031 79.234C309.563 79.4367 310 79.6963 310.342 80.013C310.684 80.3297 310.937 80.6717 311.102 81.039C311.279 81.4063 311.374 81.7547 311.387 82.084C311.4 82.2107 311.362 82.312 311.273 82.388C311.184 82.464 311.077 82.502 310.95 82.502H310.038C309.911 82.502 309.816 82.4767 309.753 82.426C309.69 82.3627 309.626 82.2613 309.563 82.122C309.335 81.5013 309.025 81.0643 308.632 80.811C308.239 80.5577 307.752 80.431 307.169 80.431C306.409 80.431 305.788 80.6653 305.307 81.134C304.838 81.6027 304.585 82.3563 304.547 83.395C304.534 83.851 304.534 84.2943 304.547 84.725C304.585 85.7763 304.838 86.5363 305.307 87.005C305.788 87.461 306.409 87.689 307.169 87.689C307.752 87.689 308.239 87.5623 308.632 87.309C309.025 87.0557 309.335 86.6187 309.563 85.998C309.626 85.8587 309.69 85.7637 309.753 85.713C309.816 85.6497 309.911 85.618 310.038 85.618H310.95C311.077 85.618 311.184 85.656 311.273 85.732C311.362 85.808 311.4 85.9093 311.387 86.036C311.374 86.302 311.317 86.5743 311.216 86.853C311.115 87.1317 310.95 87.4167 310.722 87.708C310.507 87.9867 310.234 88.24 309.905 88.468C309.576 88.6833 309.177 88.8607 308.708 89C308.252 89.1267 307.733 89.19 307.15 89.19ZM317.69 89.19C316.728 89.19 315.923 89.0063 315.277 88.639C314.631 88.2717 314.137 87.765 313.795 87.119C313.453 86.4603 313.263 85.713 313.225 84.877C313.213 84.6617 313.206 84.3893 313.206 84.06C313.206 83.718 313.213 83.4457 313.225 83.243C313.263 82.3943 313.453 81.647 313.795 81.001C314.15 80.355 314.65 79.8483 315.296 79.481C315.942 79.1137 316.74 78.93 317.69 78.93C318.64 78.93 319.438 79.1137 320.084 79.481C320.73 79.8483 321.224 80.355 321.566 81.001C321.921 81.647 322.117 82.3943 322.155 83.243C322.168 83.4457 322.174 83.718 322.174 84.06C322.174 84.3893 322.168 84.6617 322.155 84.877C322.117 85.713 321.927 86.4603 321.585 87.119C321.243 87.765 320.749 88.2717 320.103 88.639C319.457 89.0063 318.653 89.19 317.69 89.19ZM317.69 87.727C318.476 87.727 319.103 87.48 319.571 86.986C320.04 86.4793 320.293 85.7447 320.331 84.782C320.344 84.592 320.35 84.3513 320.35 84.06C320.35 83.7687 320.344 83.528 320.331 83.338C320.293 82.3753 320.04 81.647 319.571 81.153C319.103 80.6463 318.476 80.393 317.69 80.393C316.905 80.393 316.272 80.6463 315.79 81.153C315.322 81.647 315.075 82.3753 315.049 83.338C315.037 83.528 315.03 83.7687 315.03 84.06C315.03 84.3513 315.037 84.592 315.049 84.782C315.075 85.7447 315.322 86.4793 315.79 86.986C316.272 87.48 316.905 87.727 317.69 87.727ZM324.99 89C324.864 89 324.756 88.962 324.667 88.886C324.591 88.7973 324.553 88.6897 324.553 88.563V79.557C324.553 79.4303 324.591 79.329 324.667 79.253C324.756 79.1643 324.864 79.12 324.99 79.12H325.845C325.972 79.12 326.073 79.1643 326.149 79.253C326.238 79.329 326.282 79.4303 326.282 79.557V80.222C326.574 79.8293 326.941 79.519 327.384 79.291C327.828 79.0503 328.36 78.93 328.98 78.93C330.412 78.9173 331.425 79.5 332.02 80.678C332.312 80.146 332.736 79.7217 333.293 79.405C333.851 79.0883 334.484 78.93 335.193 78.93C335.852 78.93 336.447 79.082 336.979 79.386C337.524 79.69 337.948 80.1523 338.252 80.773C338.569 81.381 338.727 82.1473 338.727 83.072V88.563C338.727 88.6897 338.683 88.7973 338.594 88.886C338.518 88.962 338.417 89 338.29 89H337.397C337.271 89 337.163 88.962 337.074 88.886C336.998 88.7973 336.96 88.6897 336.96 88.563V83.243C336.96 82.5337 336.859 81.9763 336.656 81.571C336.454 81.1657 336.181 80.8807 335.839 80.716C335.497 80.5513 335.124 80.469 334.718 80.469C334.389 80.469 334.053 80.5513 333.711 80.716C333.369 80.8807 333.084 81.1657 332.856 81.571C332.641 81.9763 332.533 82.5337 332.533 83.243V88.563C332.533 88.6897 332.489 88.7973 332.4 88.886C332.324 88.962 332.223 89 332.096 89H331.203C331.077 89 330.969 88.962 330.88 88.886C330.804 88.7973 330.766 88.6897 330.766 88.563V83.243C330.766 82.5337 330.659 81.9763 330.443 81.571C330.228 81.1657 329.949 80.8807 329.607 80.716C329.265 80.5513 328.904 80.469 328.524 80.469C328.195 80.469 327.859 80.5513 327.517 80.716C327.175 80.8807 326.89 81.1657 326.662 81.571C326.447 81.9763 326.339 82.5273 326.339 83.224V88.563C326.339 88.6897 326.295 88.7973 326.206 88.886C326.13 88.962 326.029 89 325.902 89H324.99Z" fill="white" fill-opacity="0.85"/>
<path d="M377.182 89.19C376.067 89.19 375.117 88.981 374.332 88.563C373.559 88.145 372.964 87.556 372.546 86.796C372.141 86.036 371.913 85.143 371.862 84.117C371.849 83.5597 371.843 82.9707 371.843 82.35C371.843 81.7167 371.849 81.115 371.862 80.545C371.913 79.519 372.141 78.6323 372.546 77.885C372.964 77.1377 373.566 76.555 374.351 76.137C375.136 75.719 376.08 75.51 377.182 75.51C378.081 75.51 378.86 75.6367 379.519 75.89C380.178 76.1433 380.716 76.4663 381.134 76.859C381.565 77.239 381.881 77.638 382.084 78.056C382.299 78.474 382.413 78.8413 382.426 79.158C382.439 79.272 382.407 79.367 382.331 79.443C382.255 79.5063 382.154 79.538 382.027 79.538H380.906C380.779 79.538 380.684 79.5127 380.621 79.462C380.57 79.4113 380.52 79.3227 380.469 79.196C380.355 78.8667 380.165 78.5437 379.899 78.227C379.646 77.9103 379.297 77.6507 378.854 77.448C378.423 77.2327 377.866 77.125 377.182 77.125C376.181 77.125 375.371 77.3973 374.75 77.942C374.142 78.4867 373.813 79.386 373.762 80.64C373.724 81.7673 373.724 82.8947 373.762 84.022C373.813 85.2887 374.148 86.2007 374.769 86.758C375.39 87.3027 376.2 87.575 377.201 87.575C377.872 87.575 378.468 87.4547 378.987 87.214C379.519 86.9607 379.937 86.5743 380.241 86.055C380.545 85.5357 380.697 84.877 380.697 84.079V83.281H377.847C377.72 83.281 377.613 83.243 377.524 83.167C377.448 83.0783 377.41 82.9643 377.41 82.825V82.217C377.41 82.0777 377.448 81.97 377.524 81.894C377.613 81.8053 377.72 81.761 377.847 81.761H382.141C382.28 81.761 382.388 81.8053 382.464 81.894C382.54 81.97 382.578 82.0777 382.578 82.217V84.041C382.578 85.0797 382.363 85.9853 381.932 86.758C381.514 87.5307 380.9 88.1323 380.089 88.563C379.278 88.981 378.309 89.19 377.182 89.19ZM389.089 89.19C388.126 89.19 387.322 89.0063 386.676 88.639C386.03 88.2717 385.536 87.765 385.194 87.119C384.852 86.4603 384.662 85.713 384.624 84.877C384.611 84.6617 384.605 84.3893 384.605 84.06C384.605 83.718 384.611 83.4457 384.624 83.243C384.662 82.3943 384.852 81.647 385.194 81.001C385.548 80.355 386.049 79.8483 386.695 79.481C387.341 79.1137 388.139 78.93 389.089 78.93C390.039 78.93 390.837 79.1137 391.483 79.481C392.129 79.8483 392.623 80.355 392.965 81.001C393.319 81.647 393.516 82.3943 393.554 83.243C393.566 83.4457 393.573 83.718 393.573 84.06C393.573 84.3893 393.566 84.6617 393.554 84.877C393.516 85.713 393.326 86.4603 392.984 87.119C392.642 87.765 392.148 88.2717 391.502 88.639C390.856 89.0063 390.051 89.19 389.089 89.19ZM389.089 87.727C389.874 87.727 390.501 87.48 390.97 86.986C391.438 86.4793 391.692 85.7447 391.73 84.782C391.742 84.592 391.749 84.3513 391.749 84.06C391.749 83.7687 391.742 83.528 391.73 83.338C391.692 82.3753 391.438 81.647 390.97 81.153C390.501 80.6463 389.874 80.393 389.089 80.393C388.303 80.393 387.67 80.6463 387.189 81.153C386.72 81.647 386.473 82.3753 386.448 83.338C386.435 83.528 386.429 83.7687 386.429 84.06C386.429 84.3513 386.435 84.592 386.448 84.782C386.473 85.7447 386.72 86.4793 387.189 86.986C387.67 87.48 388.303 87.727 389.089 87.727ZM399.999 89.19C399.036 89.19 398.232 89.0063 397.586 88.639C396.94 88.2717 396.446 87.765 396.104 87.119C395.762 86.4603 395.572 85.713 395.534 84.877C395.521 84.6617 395.515 84.3893 395.515 84.06C395.515 83.718 395.521 83.4457 395.534 83.243C395.572 82.3943 395.762 81.647 396.104 81.001C396.459 80.355 396.959 79.8483 397.605 79.481C398.251 79.1137 399.049 78.93 399.999 78.93C400.949 78.93 401.747 79.1137 402.393 79.481C403.039 79.8483 403.533 80.355 403.875 81.001C404.23 81.647 404.426 82.3943 404.464 83.243C404.477 83.4457 404.483 83.718 404.483 84.06C404.483 84.3893 404.477 84.6617 404.464 84.877C404.426 85.713 404.236 86.4603 403.894 87.119C403.552 87.765 403.058 88.2717 402.412 88.639C401.766 89.0063 400.962 89.19 399.999 89.19ZM399.999 87.727C400.784 87.727 401.411 87.48 401.88 86.986C402.349 86.4793 402.602 85.7447 402.64 84.782C402.653 84.592 402.659 84.3513 402.659 84.06C402.659 83.7687 402.653 83.528 402.64 83.338C402.602 82.3753 402.349 81.647 401.88 81.153C401.411 80.6463 400.784 80.393 399.999 80.393C399.214 80.393 398.58 80.6463 398.099 81.153C397.63 81.647 397.383 82.3753 397.358 83.338C397.345 83.528 397.339 83.7687 397.339 84.06C397.339 84.3513 397.345 84.592 397.358 84.782C397.383 85.7447 397.63 86.4793 398.099 86.986C398.58 87.48 399.214 87.727 399.999 87.727ZM410.909 93.18C410.048 93.18 409.338 93.066 408.781 92.838C408.236 92.61 407.806 92.3313 407.489 92.002C407.185 91.6853 406.963 91.3623 406.824 91.033C406.697 90.7163 406.628 90.463 406.615 90.273C406.602 90.1463 406.64 90.0387 406.729 89.95C406.83 89.8613 406.938 89.817 407.052 89.817H407.964C408.078 89.817 408.173 89.8423 408.249 89.893C408.325 89.9437 408.388 90.0513 408.439 90.216C408.515 90.406 408.629 90.615 408.781 90.843C408.933 91.0837 409.167 91.2863 409.484 91.451C409.801 91.6283 410.244 91.717 410.814 91.717C411.409 91.717 411.91 91.6347 412.315 91.47C412.72 91.318 413.024 91.0393 413.227 90.634C413.442 90.2413 413.55 89.6967 413.55 89V87.708C413.246 88.1007 412.847 88.43 412.353 88.696C411.859 88.9493 411.238 89.076 410.491 89.076C409.782 89.076 409.174 88.9557 408.667 88.715C408.16 88.4617 407.742 88.126 407.413 87.708C407.096 87.2773 406.856 86.7897 406.691 86.245C406.539 85.7003 406.45 85.1303 406.425 84.535C406.412 84.1803 406.412 83.832 406.425 83.49C406.45 82.8947 406.539 82.3247 406.691 81.78C406.856 81.2353 407.096 80.7477 407.413 80.317C407.742 79.8863 408.16 79.5507 408.667 79.31C409.174 79.0567 409.782 78.93 410.491 78.93C411.251 78.93 411.878 79.0757 412.372 79.367C412.879 79.6457 413.29 79.9877 413.607 80.393V79.576C413.607 79.4493 413.645 79.3417 413.721 79.253C413.81 79.1643 413.917 79.12 414.044 79.12H414.918C415.045 79.12 415.152 79.1643 415.241 79.253C415.33 79.3417 415.374 79.4493 415.374 79.576V88.791C415.374 89.6397 415.228 90.3933 414.937 91.052C414.658 91.7107 414.19 92.23 413.531 92.61C412.885 92.99 412.011 93.18 410.909 93.18ZM410.871 87.556C411.504 87.556 412.011 87.4103 412.391 87.119C412.784 86.8277 413.069 86.4603 413.246 86.017C413.436 85.5737 413.537 85.124 413.55 84.668C413.563 84.4907 413.569 84.2753 413.569 84.022C413.569 83.756 413.563 83.5343 413.55 83.357C413.537 82.901 413.436 82.4513 413.246 82.008C413.069 81.5647 412.784 81.1973 412.391 80.906C412.011 80.6147 411.504 80.469 410.871 80.469C410.238 80.469 409.731 80.6147 409.351 80.906C408.971 81.1847 408.699 81.5583 408.534 82.027C408.369 82.483 408.274 82.977 408.249 83.509C408.236 83.8383 408.236 84.174 408.249 84.516C408.274 85.048 408.369 85.5483 408.534 86.017C408.699 86.473 408.971 86.8467 409.351 87.138C409.731 87.4167 410.238 87.556 410.871 87.556ZM418.655 89C418.528 89 418.421 88.962 418.332 88.886C418.256 88.7973 418.218 88.6897 418.218 88.563V75.947C418.218 75.8203 418.256 75.719 418.332 75.643C418.421 75.5543 418.528 75.51 418.655 75.51H419.548C419.687 75.51 419.795 75.5543 419.871 75.643C419.947 75.719 419.985 75.8203 419.985 75.947V88.563C419.985 88.6897 419.947 88.7973 419.871 88.886C419.795 88.962 419.687 89 419.548 89H418.655ZM426.752 89.19C425.447 89.19 424.409 88.791 423.636 87.993C422.863 87.1823 422.439 86.0803 422.363 84.687C422.35 84.5223 422.344 84.3133 422.344 84.06C422.344 83.794 422.35 83.5787 422.363 83.414C422.414 82.5147 422.623 81.7293 422.99 81.058C423.357 80.374 423.858 79.8483 424.491 79.481C425.137 79.1137 425.891 78.93 426.752 78.93C427.715 78.93 428.519 79.1327 429.165 79.538C429.824 79.9433 430.324 80.5197 430.666 81.267C431.008 82.0143 431.179 82.8883 431.179 83.889V84.212C431.179 84.3513 431.135 84.459 431.046 84.535C430.97 84.611 430.869 84.649 430.742 84.649H424.168C424.168 84.6617 424.168 84.687 424.168 84.725C424.168 84.763 424.168 84.7947 424.168 84.82C424.193 85.3393 424.307 85.827 424.51 86.283C424.713 86.7263 425.004 87.0873 425.384 87.366C425.764 87.6447 426.22 87.784 426.752 87.784C427.208 87.784 427.588 87.7143 427.892 87.575C428.196 87.4357 428.443 87.2837 428.633 87.119C428.823 86.9417 428.95 86.8087 429.013 86.72C429.127 86.5553 429.216 86.4603 429.279 86.435C429.342 86.397 429.444 86.378 429.583 86.378H430.495C430.622 86.378 430.723 86.416 430.799 86.492C430.888 86.5553 430.926 86.6503 430.913 86.777C430.9 86.967 430.799 87.2013 430.609 87.48C430.419 87.746 430.147 88.012 429.792 88.278C429.437 88.544 429.007 88.7657 428.5 88.943C427.993 89.1077 427.411 89.19 426.752 89.19ZM424.168 83.338H429.374V83.281C429.374 82.711 429.266 82.2043 429.051 81.761C428.848 81.3177 428.551 80.9693 428.158 80.716C427.765 80.45 427.297 80.317 426.752 80.317C426.207 80.317 425.739 80.45 425.346 80.716C424.966 80.9693 424.675 81.3177 424.472 81.761C424.269 82.2043 424.168 82.711 424.168 83.281V83.338Z" fill="white"/>
<g filter="url(#filter0_d_204_19)">
<path d="M4 12C4 5.37258 9.37258 0 16 0H578C584.627 0 590 5.37258 590 12V43H4V12Z" fill="#242526"/>
</g>
<ellipse cx="29.1279" cy="21.9141" rx="5.84369" ry="6.72025" fill="#E65100"/>
<ellipse cx="48.4121" cy="21.9141" rx="5.84369" ry="6.72025" fill="#FFD600"/>
<ellipse cx="67.6962" cy="21.9141" rx="5.84369" ry="6.72025" fill="#4EC433"/>
<defs>
<filter id="filter0_d_204_19" x="0" y="0" width="594" height="51" filterUnits="userSpaceOnUse" color-interpolation-filters="sRGB">
<feFlood flood-opacity="0" result="BackgroundImageFix"/>
<feColorMatrix in="SourceAlpha" type="matrix" values="0 0 0 0 0 0 0 0 0 0 0 0 0 0 0 0 0 0 127 0" result="hardAlpha"/>
<feOffset dy="4"/>
<feGaussianBlur stdDeviation="2"/>
<feComposite in2="hardAlpha" operator="out"/>
<feColorMatrix type="matrix" values="0 0 0 0 0 0 0 0 0 0 0 0 0 0 0 0 0 0 0.25 0"/>
<feBlend mode="normal" in2="BackgroundImageFix" result="effect1_dropShadow_204_19"/>
<feBlend mode="normal" in="SourceGraphic" in2="effect1_dropShadow_204_19" result="shape"/>
</filter>
</defs>
</svg>
