<svg width="594" height="144" viewBox="0 0 594 144" fill="none" xmlns="http://www.w3.org/2000/svg">
<rect x="4" width="586" height="144" rx="12" fill="#242526"/>
<path d="M30.676 85.525C30.6 85.525 30.5177 85.4997 30.429 85.449C30.353 85.3983 30.2833 85.3603 30.22 85.335L24.235 81.212C24.045 81.0853 23.9057 80.9587 23.817 80.832C23.7283 80.6927 23.684 80.5343 23.684 80.357V80.015C23.684 79.8377 23.7283 79.6857 23.817 79.559C23.9057 79.4323 24.045 79.2993 24.235 79.16L30.22 75.056C30.2833 75.018 30.353 74.9737 30.429 74.923C30.5177 74.8723 30.6 74.847 30.676 74.847C30.7773 74.847 30.866 74.885 30.942 74.961C31.018 75.0243 31.056 75.1193 31.056 75.246V76.082C31.056 76.2213 31.018 76.3417 30.942 76.443C30.866 76.5317 30.7583 76.6203 30.619 76.709L25.527 80.186L30.619 83.663C30.7583 83.7643 30.866 83.8593 30.942 83.948C31.018 84.0367 31.056 84.157 31.056 84.309V85.145C31.056 85.259 31.018 85.354 30.942 85.43C30.866 85.4933 30.7773 85.525 30.676 85.525ZM499.06 85.506C498.958 85.506 498.87 85.4743 498.794 85.411C498.718 85.3477 498.68 85.2527 498.68 85.126V84.29C498.68 84.138 498.711 84.0177 498.775 83.929C498.851 83.8403 498.965 83.7517 499.117 83.663L504.19 80.186L499.117 76.709C498.965 76.6077 498.851 76.5127 498.775 76.424C498.711 76.3353 498.68 76.215 498.68 76.063V75.227C498.68 75.1003 498.718 75.0053 498.794 74.942C498.87 74.8787 498.958 74.847 499.06 74.847C499.136 74.847 499.218 74.8723 499.307 74.923C499.395 74.961 499.465 74.999 499.516 75.037L505.482 79.141C505.684 79.2803 505.824 79.4133 505.9 79.54C505.988 79.6667 506.033 79.825 506.033 80.015V80.338C506.033 80.5153 505.988 80.6737 505.9 80.813C505.824 80.9397 505.684 81.0727 505.482 81.212L499.516 85.316C499.465 85.354 499.395 85.3983 499.307 85.449C499.218 85.487 499.136 85.506 499.06 85.506Z" fill="#647DFF"/>
<path d="M38.8518 86C38.7251 86 38.6175 85.962 38.5288 85.886C38.4528 85.7973 38.4148 85.6897 38.4148 85.563V76.557C38.4148 76.4303 38.4528 76.329 38.5288 76.253C38.6175 76.1643 38.7251 76.12 38.8518 76.12H39.7638C39.8905 76.12 39.9918 76.1643 40.0678 76.253C40.1438 76.329 40.1818 76.4303 40.1818 76.557V85.563C40.1818 85.6897 40.1438 85.7973 40.0678 85.886C39.9918 85.962 39.8905 86 39.7638 86H38.8518ZM38.6998 74.277C38.5731 74.277 38.4655 74.239 38.3768 74.163C38.3008 74.0743 38.2628 73.9667 38.2628 73.84V72.814C38.2628 72.6873 38.3008 72.586 38.3768 72.51C38.4655 72.4213 38.5731 72.377 38.6998 72.377H39.8968C40.0235 72.377 40.1248 72.4213 40.2008 72.51C40.2895 72.586 40.3338 72.6873 40.3338 72.814V73.84C40.3338 73.9667 40.2895 74.0743 40.2008 74.163C40.1248 74.239 40.0235 74.277 39.8968 74.277H38.6998ZM43.6389 86C43.5122 86 43.4046 85.962 43.3159 85.886C43.2399 85.7973 43.2019 85.6897 43.2019 85.563V76.557C43.2019 76.4303 43.2399 76.329 43.3159 76.253C43.4046 76.1643 43.5122 76.12 43.6389 76.12H44.4939C44.6206 76.12 44.7219 76.1643 44.7979 76.253C44.8866 76.329 44.9309 76.4303 44.9309 76.557V77.222C45.2222 76.8293 45.5896 76.519 46.0329 76.291C46.4762 76.0503 47.0082 75.93 47.6289 75.93C49.0602 75.9173 50.0736 76.5 50.6689 77.678C50.9602 77.146 51.3846 76.7217 51.9419 76.405C52.4992 76.0883 53.1326 75.93 53.8419 75.93C54.5006 75.93 55.0959 76.082 55.6279 76.386C56.1726 76.69 56.5969 77.1523 56.9009 77.773C57.2176 78.381 57.3759 79.1473 57.3759 80.072V85.563C57.3759 85.6897 57.3316 85.7973 57.2429 85.886C57.1669 85.962 57.0656 86 56.9389 86H56.0459C55.9192 86 55.8116 85.962 55.7229 85.886C55.6469 85.7973 55.6089 85.6897 55.6089 85.563V80.243C55.6089 79.5337 55.5076 78.9763 55.3049 78.571C55.1022 78.1657 54.8299 77.8807 54.4879 77.716C54.1459 77.5513 53.7722 77.469 53.3669 77.469C53.0376 77.469 52.7019 77.5513 52.3599 77.716C52.0179 77.8807 51.7329 78.1657 51.5049 78.571C51.2896 78.9763 51.1819 79.5337 51.1819 80.243V85.563C51.1819 85.6897 51.1376 85.7973 51.0489 85.886C50.9729 85.962 50.8716 86 50.7449 86H49.8519C49.7252 86 49.6176 85.962 49.5289 85.886C49.4529 85.7973 49.4149 85.6897 49.4149 85.563V80.243C49.4149 79.5337 49.3072 78.9763 49.0919 78.571C48.8766 78.1657 48.5979 77.8807 48.2559 77.716C47.9139 77.5513 47.5529 77.469 47.1729 77.469C46.8436 77.469 46.5079 77.5513 46.1659 77.716C45.8239 77.8807 45.5389 78.1657 45.3109 78.571C45.0956 78.9763 44.9879 79.5273 44.9879 80.224V85.563C44.9879 85.6897 44.9436 85.7973 44.8549 85.886C44.7789 85.962 44.6776 86 44.5509 86H43.6389ZM64.1337 90.18C63.2723 90.18 62.563 90.066 62.0057 89.838C61.461 89.61 61.0303 89.3313 60.7137 89.002C60.4097 88.6853 60.188 88.3623 60.0487 88.033C59.922 87.7163 59.8523 87.463 59.8397 87.273C59.827 87.1463 59.865 87.0387 59.9537 86.95C60.055 86.8613 60.1627 86.817 60.2767 86.817H61.1887C61.3027 86.817 61.3977 86.8423 61.4737 86.893C61.5497 86.9437 61.613 87.0513 61.6637 87.216C61.7397 87.406 61.8537 87.615 62.0057 87.843C62.1577 88.0837 62.392 88.2863 62.7087 88.451C63.0253 88.6283 63.4687 88.717 64.0387 88.717C64.634 88.717 65.1343 88.6347 65.5397 88.47C65.945 88.318 66.249 88.0393 66.4517 87.634C66.667 87.2413 66.7747 86.6967 66.7747 86V84.708C66.4707 85.1007 66.0717 85.43 65.5777 85.696C65.0837 85.9493 64.463 86.076 63.7157 86.076C63.0063 86.076 62.3983 85.9557 61.8917 85.715C61.385 85.4617 60.967 85.126 60.6377 84.708C60.321 84.2773 60.0803 83.7897 59.9157 83.245C59.7637 82.7003 59.675 82.1303 59.6497 81.535C59.637 81.1803 59.637 80.832 59.6497 80.49C59.675 79.8947 59.7637 79.3247 59.9157 78.78C60.0803 78.2353 60.321 77.7477 60.6377 77.317C60.967 76.8863 61.385 76.5507 61.8917 76.31C62.3983 76.0567 63.0063 75.93 63.7157 75.93C64.4757 75.93 65.1027 76.0757 65.5967 76.367C66.1033 76.6457 66.515 76.9877 66.8317 77.393V76.576C66.8317 76.4493 66.8697 76.3417 66.9457 76.253C67.0343 76.1643 67.142 76.12 67.2687 76.12H68.1427C68.2693 76.12 68.377 76.1643 68.4657 76.253C68.5543 76.3417 68.5987 76.4493 68.5987 76.576V85.791C68.5987 86.6397 68.453 87.3933 68.1617 88.052C67.883 88.7107 67.4143 89.23 66.7557 89.61C66.1097 89.99 65.2357 90.18 64.1337 90.18ZM64.0957 84.556C64.729 84.556 65.2357 84.4103 65.6157 84.119C66.0083 83.8277 66.2933 83.4603 66.4707 83.017C66.6607 82.5737 66.762 82.124 66.7747 81.668C66.7873 81.4907 66.7937 81.2753 66.7937 81.022C66.7937 80.756 66.7873 80.5343 66.7747 80.357C66.762 79.901 66.6607 79.4513 66.4707 79.008C66.2933 78.5647 66.0083 78.1973 65.6157 77.906C65.2357 77.6147 64.729 77.469 64.0957 77.469C63.4623 77.469 62.9557 77.6147 62.5757 77.906C62.1957 78.1847 61.9233 78.5583 61.7587 79.027C61.594 79.483 61.499 79.977 61.4737 80.509C61.461 80.8383 61.461 81.174 61.4737 81.516C61.499 82.048 61.594 82.5483 61.7587 83.017C61.9233 83.473 62.1957 83.8467 62.5757 84.138C62.9557 84.4167 63.4623 84.556 64.0957 84.556ZM79.5008 86.19C78.7915 86.19 78.1835 86.1013 77.6768 85.924C77.1701 85.7467 76.7585 85.5313 76.4418 85.278C76.1251 85.0247 75.8845 84.7713 75.7198 84.518C75.5678 84.2647 75.4855 84.062 75.4728 83.91C75.4601 83.7707 75.5045 83.663 75.6058 83.587C75.7071 83.511 75.8085 83.473 75.9098 83.473H76.7458C76.8218 83.473 76.8788 83.4857 76.9168 83.511C76.9675 83.5237 77.0308 83.5743 77.1068 83.663C77.2715 83.8403 77.4551 84.0177 77.6578 84.195C77.8605 84.3723 78.1075 84.518 78.3988 84.632C78.7028 84.746 79.0765 84.803 79.5198 84.803C80.1658 84.803 80.6978 84.6827 81.1158 84.442C81.5338 84.1887 81.7428 83.8213 81.7428 83.34C81.7428 83.0233 81.6541 82.77 81.4768 82.58C81.3121 82.39 81.0081 82.219 80.5648 82.067C80.1341 81.915 79.5388 81.7567 78.7788 81.592C78.0188 81.4147 77.4171 81.1993 76.9738 80.946C76.5305 80.68 76.2138 80.3697 76.0238 80.015C75.8338 79.6477 75.7388 79.236 75.7388 78.78C75.7388 78.3113 75.8781 77.8617 76.1568 77.431C76.4355 76.9877 76.8408 76.6267 77.3728 76.348C77.9175 76.0693 78.5951 75.93 79.4058 75.93C80.0645 75.93 80.6281 76.0123 81.0968 76.177C81.5655 76.3417 81.9518 76.5507 82.2558 76.804C82.5598 77.0447 82.7878 77.2853 82.9398 77.526C83.0918 77.7667 83.1741 77.9693 83.1868 78.134C83.1995 78.2607 83.1615 78.3683 83.0728 78.457C82.9841 78.533 82.8828 78.571 82.7688 78.571H81.9708C81.8821 78.571 81.8061 78.552 81.7428 78.514C81.6921 78.476 81.6415 78.4317 81.5908 78.381C81.4641 78.2163 81.3121 78.0517 81.1348 77.887C80.9701 77.7223 80.7485 77.5893 80.4698 77.488C80.2038 77.374 79.8491 77.317 79.4058 77.317C78.7725 77.317 78.2975 77.45 77.9808 77.716C77.6641 77.982 77.5058 78.3177 77.5058 78.723C77.5058 78.9637 77.5755 79.179 77.7148 79.369C77.8541 79.559 78.1201 79.73 78.5128 79.882C78.9055 80.034 79.4881 80.1987 80.2608 80.376C81.0968 80.5407 81.7555 80.7623 82.2368 81.041C82.7181 81.3197 83.0601 81.6427 83.2628 82.01C83.4655 82.3773 83.5668 82.8017 83.5668 83.283C83.5668 83.815 83.4085 84.3027 83.0918 84.746C82.7878 85.1893 82.3318 85.544 81.7238 85.81C81.1285 86.0633 80.3875 86.19 79.5008 86.19ZM86.2034 86C86.0767 86 85.969 85.962 85.8804 85.886C85.8044 85.7973 85.7664 85.6897 85.7664 85.563V76.576C85.7664 76.4493 85.8044 76.3417 85.8804 76.253C85.969 76.1643 86.0767 76.12 86.2034 76.12H87.0774C87.204 76.12 87.3117 76.1643 87.4004 76.253C87.489 76.3417 87.5334 76.4493 87.5334 76.576V77.412C87.7867 76.9813 88.135 76.6583 88.5784 76.443C89.0217 76.2277 89.5537 76.12 90.1744 76.12H90.9344C91.061 76.12 91.1624 76.1643 91.2384 76.253C91.3144 76.329 91.3524 76.4303 91.3524 76.557V77.336C91.3524 77.4627 91.3144 77.564 91.2384 77.64C91.1624 77.716 91.061 77.754 90.9344 77.754H89.7944C89.1104 77.754 88.572 77.9567 88.1794 78.362C87.7867 78.7547 87.5904 79.293 87.5904 79.977V85.563C87.5904 85.6897 87.546 85.7973 87.4574 85.886C87.3687 85.962 87.261 86 87.1344 86H86.2034ZM96.7886 86.19C95.8892 86.19 95.1102 86.019 94.4516 85.677C93.8056 85.3223 93.3052 84.822 92.9506 84.176C92.5959 83.5173 92.4059 82.732 92.3806 81.82C92.3679 81.63 92.3616 81.3767 92.3616 81.06C92.3616 80.7433 92.3679 80.49 92.3806 80.3C92.4059 79.388 92.5959 78.609 92.9506 77.963C93.3052 77.3043 93.8056 76.804 94.4516 76.462C95.1102 76.1073 95.8892 75.93 96.7886 75.93C97.5232 75.93 98.1502 76.0313 98.6696 76.234C99.2016 76.4367 99.6386 76.6963 99.9806 77.013C100.323 77.3297 100.576 77.6717 100.741 78.039C100.918 78.4063 101.013 78.7547 101.026 79.084C101.038 79.2107 101 79.312 100.912 79.388C100.823 79.464 100.715 79.502 100.589 79.502H99.6766C99.5499 79.502 99.4549 79.4767 99.3916 79.426C99.3282 79.3627 99.2649 79.2613 99.2016 79.122C98.9736 78.5013 98.6632 78.0643 98.2706 77.811C97.8779 77.5577 97.3902 77.431 96.8076 77.431C96.0476 77.431 95.4269 77.6653 94.9456 78.134C94.4769 78.6027 94.2236 79.3563 94.1856 80.395C94.1729 80.851 94.1729 81.2943 94.1856 81.725C94.2236 82.7763 94.4769 83.5363 94.9456 84.005C95.4269 84.461 96.0476 84.689 96.8076 84.689C97.3902 84.689 97.8779 84.5623 98.2706 84.309C98.6632 84.0557 98.9736 83.6187 99.2016 82.998C99.2649 82.8587 99.3282 82.7637 99.3916 82.713C99.4549 82.6497 99.5499 82.618 99.6766 82.618H100.589C100.715 82.618 100.823 82.656 100.912 82.732C101 82.808 101.038 82.9093 101.026 83.036C101.013 83.302 100.956 83.5743 100.855 83.853C100.753 84.1317 100.589 84.4167 100.361 84.708C100.145 84.9867 99.8729 85.24 99.5436 85.468C99.2142 85.6833 98.8152 85.8607 98.3466 86C97.8906 86.1267 97.3712 86.19 96.7886 86.19ZM108.319 78.666C108.193 78.666 108.091 78.628 108.015 78.552C107.939 78.476 107.901 78.3747 107.901 78.248V77.602C107.901 77.4753 107.939 77.374 108.015 77.298C108.091 77.222 108.193 77.184 108.319 77.184H115.558C115.685 77.184 115.786 77.222 115.862 77.298C115.951 77.374 115.995 77.4753 115.995 77.602V78.248C115.995 78.3747 115.951 78.476 115.862 78.552C115.786 78.628 115.685 78.666 115.558 78.666H108.319ZM108.319 83.416C108.193 83.416 108.091 83.378 108.015 83.302C107.939 83.226 107.901 83.1247 107.901 82.998V82.352C107.901 82.2253 107.939 82.124 108.015 82.048C108.091 81.972 108.193 81.934 108.319 81.934H115.558C115.685 81.934 115.786 81.972 115.862 82.048C115.951 82.124 115.995 82.2253 115.995 82.352V82.998C115.995 83.1247 115.951 83.226 115.862 83.302C115.786 83.378 115.685 83.416 115.558 83.416H108.319ZM126.757 76.709C126.631 76.709 126.536 76.671 126.472 76.595C126.422 76.5063 126.39 76.405 126.377 76.291L126.054 72.947C126.029 72.8077 126.054 72.7 126.13 72.624C126.206 72.548 126.308 72.51 126.434 72.51H127.669C127.796 72.51 127.897 72.548 127.973 72.624C128.049 72.7 128.081 72.8077 128.068 72.947L127.726 76.291C127.714 76.405 127.676 76.5063 127.612 76.595C127.562 76.671 127.473 76.709 127.346 76.709H126.757ZM123.793 76.709C123.667 76.709 123.572 76.671 123.508 76.595C123.458 76.5063 123.426 76.405 123.413 76.291L123.09 72.947C123.078 72.8077 123.103 72.7 123.166 72.624C123.242 72.548 123.344 72.51 123.47 72.51H124.705C124.832 72.51 124.933 72.548 125.009 72.624C125.085 72.7 125.117 72.8077 125.104 72.947L124.781 76.291C124.769 76.405 124.731 76.5063 124.667 76.595C124.604 76.671 124.509 76.709 124.382 76.709H123.793ZM323.289 76.709C323.162 76.709 323.067 76.671 323.004 76.595C322.953 76.5063 322.921 76.405 322.909 76.291L322.586 72.947C322.56 72.8077 322.586 72.7 322.662 72.624C322.738 72.548 322.839 72.51 322.966 72.51H324.201C324.327 72.51 324.429 72.548 324.505 72.624C324.581 72.7 324.612 72.8077 324.6 72.947L324.258 76.291C324.245 76.405 324.207 76.5063 324.144 76.595C324.093 76.671 324.004 76.709 323.878 76.709H323.289ZM320.325 76.709C320.198 76.709 320.103 76.671 320.04 76.595C319.989 76.5063 319.957 76.405 319.945 76.291L319.622 72.947C319.609 72.8077 319.634 72.7 319.698 72.624C319.774 72.548 319.875 72.51 320.002 72.51H321.237C321.363 72.51 321.465 72.548 321.541 72.624C321.617 72.7 321.648 72.8077 321.636 72.947L321.313 76.291C321.3 76.405 321.262 76.5063 321.199 76.595C321.135 76.671 321.04 76.709 320.914 76.709H320.325ZM334.482 86.19C333.849 86.19 333.273 86.0633 332.753 85.81C332.234 85.5567 331.816 85.2147 331.499 84.784C331.183 84.3533 331.024 83.8657 331.024 83.321C331.024 82.447 331.379 81.7503 332.088 81.231C332.798 80.7117 333.722 80.3697 334.862 80.205L337.693 79.806V79.255C337.693 78.647 337.516 78.172 337.161 77.83C336.819 77.488 336.256 77.317 335.47 77.317C334.9 77.317 334.438 77.431 334.083 77.659C333.741 77.887 333.501 78.1783 333.361 78.533C333.285 78.723 333.152 78.818 332.962 78.818H332.107C331.968 78.818 331.86 78.78 331.784 78.704C331.721 78.6153 331.689 78.514 331.689 78.4C331.689 78.21 331.759 77.9757 331.898 77.697C332.05 77.4183 332.278 77.146 332.582 76.88C332.886 76.614 333.273 76.3923 333.741 76.215C334.223 76.025 334.805 75.93 335.489 75.93C336.249 75.93 336.889 76.0313 337.408 76.234C337.928 76.424 338.333 76.6837 338.624 77.013C338.928 77.3423 339.144 77.716 339.27 78.134C339.41 78.552 339.479 78.9763 339.479 79.407V85.563C339.479 85.6897 339.435 85.7973 339.346 85.886C339.27 85.962 339.169 86 339.042 86H338.168C338.029 86 337.921 85.962 337.845 85.886C337.769 85.7973 337.731 85.6897 337.731 85.563V84.746C337.567 84.974 337.345 85.202 337.066 85.43C336.788 85.6453 336.439 85.829 336.021 85.981C335.603 86.1203 335.09 86.19 334.482 86.19ZM334.881 84.765C335.401 84.765 335.876 84.6573 336.306 84.442C336.737 84.214 337.073 83.8657 337.313 83.397C337.567 82.9283 337.693 82.3393 337.693 81.63V81.098L335.489 81.421C334.59 81.5477 333.912 81.763 333.456 82.067C333 82.3583 332.772 82.732 332.772 83.188C332.772 83.5427 332.874 83.8403 333.076 84.081C333.292 84.309 333.558 84.48 333.874 84.594C334.204 84.708 334.539 84.765 334.881 84.765ZM342.667 86C342.54 86 342.432 85.962 342.344 85.886C342.268 85.7973 342.23 85.6897 342.23 85.563V72.947C342.23 72.8203 342.268 72.719 342.344 72.643C342.432 72.5543 342.54 72.51 342.667 72.51H343.56C343.699 72.51 343.807 72.5543 343.883 72.643C343.959 72.719 343.997 72.8203 343.997 72.947V85.563C343.997 85.6897 343.959 85.7973 343.883 85.886C343.807 85.962 343.699 86 343.56 86H342.667ZM350.688 86C349.978 86 349.402 85.867 348.959 85.601C348.515 85.3223 348.192 84.936 347.99 84.442C347.787 83.9353 347.686 83.34 347.686 82.656V77.64H346.204C346.077 77.64 345.969 77.602 345.881 77.526C345.805 77.4373 345.767 77.3297 345.767 77.203V76.557C345.767 76.4303 345.805 76.329 345.881 76.253C345.969 76.1643 346.077 76.12 346.204 76.12H347.686V72.947C347.686 72.8203 347.724 72.719 347.8 72.643C347.888 72.5543 347.996 72.51 348.123 72.51H349.016C349.142 72.51 349.244 72.5543 349.32 72.643C349.408 72.719 349.453 72.8203 349.453 72.947V76.12H351.809C351.935 76.12 352.037 76.1643 352.113 76.253C352.201 76.329 352.246 76.4303 352.246 76.557V77.203C352.246 77.3297 352.201 77.4373 352.113 77.526C352.037 77.602 351.935 77.64 351.809 77.64H349.453V82.523C349.453 83.1183 349.554 83.587 349.757 83.929C349.959 84.271 350.32 84.442 350.84 84.442H351.999C352.125 84.442 352.227 84.4863 352.303 84.575C352.391 84.651 352.436 84.7523 352.436 84.879V85.563C352.436 85.6897 352.391 85.7973 352.303 85.886C352.227 85.962 352.125 86 351.999 86H350.688ZM354.633 78.666C354.506 78.666 354.405 78.628 354.329 78.552C354.253 78.476 354.215 78.3747 354.215 78.248V77.602C354.215 77.4753 354.253 77.374 354.329 77.298C354.405 77.222 354.506 77.184 354.633 77.184H361.872C361.998 77.184 362.1 77.222 362.176 77.298C362.264 77.374 362.309 77.4753 362.309 77.602V78.248C362.309 78.3747 362.264 78.476 362.176 78.552C362.1 78.628 361.998 78.666 361.872 78.666H354.633ZM354.633 83.416C354.506 83.416 354.405 83.378 354.329 83.302C354.253 83.226 354.215 83.1247 354.215 82.998V82.352C354.215 82.2253 354.253 82.124 354.329 82.048C354.405 81.972 354.506 81.934 354.633 81.934H361.872C361.998 81.934 362.1 81.972 362.176 82.048C362.264 82.124 362.309 82.2253 362.309 82.352V82.998C362.309 83.1247 362.264 83.226 362.176 83.302C362.1 83.378 361.998 83.416 361.872 83.416H354.633ZM372.653 76.177C372.564 76.177 372.488 76.1453 372.425 76.082C372.374 76.0187 372.349 75.9427 372.349 75.854C372.349 75.7527 372.368 75.6513 372.406 75.55L373.413 72.947C373.476 72.8203 373.54 72.719 373.603 72.643C373.679 72.5543 373.799 72.51 373.964 72.51H374.591C374.692 72.51 374.768 72.548 374.819 72.624C374.882 72.7 374.901 72.8013 374.876 72.928L374.458 75.626C374.445 75.778 374.395 75.911 374.306 76.025C374.217 76.1263 374.084 76.177 373.907 76.177H372.653ZM369.613 76.177C369.524 76.177 369.448 76.1453 369.385 76.082C369.334 76.0187 369.309 75.9427 369.309 75.854C369.309 75.7527 369.328 75.6513 369.366 75.55L370.373 72.947C370.436 72.8203 370.506 72.719 370.582 72.643C370.658 72.5543 370.772 72.51 370.924 72.51H371.551C371.652 72.51 371.728 72.548 371.779 72.624C371.842 72.7 371.861 72.8013 371.836 72.928L371.418 75.626C371.405 75.778 371.355 75.911 371.266 76.025C371.177 76.1263 371.051 76.177 370.886 76.177H369.613ZM494.448 76.177C494.334 76.177 494.252 76.139 494.201 76.063C494.151 75.987 494.132 75.892 494.144 75.778L494.562 73.061C494.588 72.909 494.638 72.7823 494.714 72.681C494.803 72.567 494.936 72.51 495.113 72.51H496.367C496.469 72.51 496.545 72.548 496.595 72.624C496.659 72.6873 496.69 72.757 496.69 72.833C496.69 72.9343 496.665 73.0357 496.614 73.137L495.626 75.74C495.576 75.8667 495.506 75.9743 495.417 76.063C495.341 76.139 495.221 76.177 495.056 76.177H494.448ZM491.408 76.177C491.307 76.177 491.225 76.139 491.161 76.063C491.111 75.987 491.092 75.892 491.104 75.778L491.541 73.061C491.567 72.909 491.617 72.7823 491.693 72.681C491.782 72.567 491.909 72.51 492.073 72.51H493.346C493.435 72.51 493.505 72.548 493.555 72.624C493.619 72.6873 493.65 72.757 493.65 72.833C493.65 72.9343 493.625 73.0357 493.574 73.137L492.586 75.74C492.536 75.8667 492.466 75.9743 492.377 76.063C492.301 76.139 492.181 76.177 492.016 76.177H491.408Z" fill="white" fill-opacity="0.75"/>
<path d="M135.5 86C135.373 86 135.266 85.962 135.177 85.886C135.101 85.7973 135.063 85.6897 135.063 85.563V84.195C135.063 84.0683 135.101 83.967 135.177 83.891C135.266 83.8023 135.373 83.758 135.5 83.758H136.868C136.995 83.758 137.096 83.8023 137.172 83.891C137.261 83.967 137.305 84.0683 137.305 84.195V85.563C137.305 85.6897 137.261 85.7973 137.172 85.886C137.096 85.962 136.995 86 136.868 86H135.5ZM140.287 86C140.16 86 140.053 85.962 139.964 85.886C139.888 85.7973 139.85 85.6897 139.85 85.563V84.195C139.85 84.0683 139.888 83.967 139.964 83.891C140.053 83.8023 140.16 83.758 140.287 83.758H141.655C141.782 83.758 141.883 83.8023 141.959 83.891C142.048 83.967 142.092 84.0683 142.092 84.195V85.563C142.092 85.6897 142.048 85.7973 141.959 85.886C141.883 85.962 141.782 86 141.655 86H140.287ZM144.238 87.596C144.137 87.596 144.048 87.558 143.972 87.482C143.896 87.406 143.858 87.3173 143.858 87.216C143.858 87.1527 143.877 87.0767 143.915 86.988L150.413 71.408C150.451 71.332 150.502 71.256 150.565 71.18C150.641 71.104 150.755 71.066 150.907 71.066H151.648C151.75 71.066 151.838 71.104 151.914 71.18C151.99 71.256 152.028 71.3447 152.028 71.446C152.028 71.4967 152.016 71.5727 151.99 71.674L145.473 87.254C145.448 87.3173 145.391 87.387 145.302 87.463C145.226 87.5517 145.119 87.596 144.979 87.596H144.238ZM154.819 86C154.692 86 154.584 85.962 154.496 85.886C154.42 85.7973 154.382 85.6897 154.382 85.563V76.557C154.382 76.4303 154.42 76.329 154.496 76.253C154.584 76.1643 154.692 76.12 154.819 76.12H155.731C155.857 76.12 155.959 76.1643 156.035 76.253C156.111 76.329 156.149 76.4303 156.149 76.557V85.563C156.149 85.6897 156.111 85.7973 156.035 85.886C155.959 85.962 155.857 86 155.731 86H154.819ZM154.667 74.277C154.54 74.277 154.432 74.239 154.344 74.163C154.268 74.0743 154.23 73.9667 154.23 73.84V72.814C154.23 72.6873 154.268 72.586 154.344 72.51C154.432 72.4213 154.54 72.377 154.667 72.377H155.864C155.99 72.377 156.092 72.4213 156.168 72.51C156.256 72.586 156.301 72.6873 156.301 72.814V73.84C156.301 73.9667 156.256 74.0743 156.168 74.163C156.092 74.239 155.99 74.277 155.864 74.277H154.667ZM159.606 86C159.479 86 159.371 85.962 159.283 85.886C159.207 85.7973 159.169 85.6897 159.169 85.563V76.557C159.169 76.4303 159.207 76.329 159.283 76.253C159.371 76.1643 159.479 76.12 159.606 76.12H160.461C160.587 76.12 160.689 76.1643 160.765 76.253C160.853 76.329 160.898 76.4303 160.898 76.557V77.222C161.189 76.8293 161.556 76.519 162 76.291C162.443 76.0503 162.975 75.93 163.596 75.93C165.027 75.9173 166.04 76.5 166.636 77.678C166.927 77.146 167.351 76.7217 167.909 76.405C168.466 76.0883 169.099 75.93 169.809 75.93C170.467 75.93 171.063 76.082 171.595 76.386C172.139 76.69 172.564 77.1523 172.868 77.773C173.184 78.381 173.343 79.1473 173.343 80.072V85.563C173.343 85.6897 173.298 85.7973 173.21 85.886C173.134 85.962 173.032 86 172.906 86H172.013C171.886 86 171.778 85.962 171.69 85.886C171.614 85.7973 171.576 85.6897 171.576 85.563V80.243C171.576 79.5337 171.474 78.9763 171.272 78.571C171.069 78.1657 170.797 77.8807 170.455 77.716C170.113 77.5513 169.739 77.469 169.334 77.469C169.004 77.469 168.669 77.5513 168.327 77.716C167.985 77.8807 167.7 78.1657 167.472 78.571C167.256 78.9763 167.149 79.5337 167.149 80.243V85.563C167.149 85.6897 167.104 85.7973 167.016 85.886C166.94 85.962 166.838 86 166.712 86H165.819C165.692 86 165.584 85.962 165.496 85.886C165.42 85.7973 165.382 85.6897 165.382 85.563V80.243C165.382 79.5337 165.274 78.9763 165.059 78.571C164.843 78.1657 164.565 77.8807 164.223 77.716C163.881 77.5513 163.52 77.469 163.14 77.469C162.81 77.469 162.475 77.5513 162.133 77.716C161.791 77.8807 161.506 78.1657 161.278 78.571C161.062 78.9763 160.955 79.5273 160.955 80.224V85.563C160.955 85.6897 160.91 85.7973 160.822 85.886C160.746 85.962 160.644 86 160.518 86H159.606ZM178.808 86.19C178.175 86.19 177.599 86.0633 177.079 85.81C176.56 85.5567 176.142 85.2147 175.825 84.784C175.509 84.3533 175.35 83.8657 175.35 83.321C175.35 82.447 175.705 81.7503 176.414 81.231C177.124 80.7117 178.048 80.3697 179.188 80.205L182.019 79.806V79.255C182.019 78.647 181.842 78.172 181.487 77.83C181.145 77.488 180.582 77.317 179.796 77.317C179.226 77.317 178.764 77.431 178.409 77.659C178.067 77.887 177.827 78.1783 177.687 78.533C177.611 78.723 177.478 78.818 177.288 78.818H176.433C176.294 78.818 176.186 78.78 176.11 78.704C176.047 78.6153 176.015 78.514 176.015 78.4C176.015 78.21 176.085 77.9757 176.224 77.697C176.376 77.4183 176.604 77.146 176.908 76.88C177.212 76.614 177.599 76.3923 178.067 76.215C178.549 76.025 179.131 75.93 179.815 75.93C180.575 75.93 181.215 76.0313 181.734 76.234C182.254 76.424 182.659 76.6837 182.95 77.013C183.254 77.3423 183.47 77.716 183.596 78.134C183.736 78.552 183.805 78.9763 183.805 79.407V85.563C183.805 85.6897 183.761 85.7973 183.672 85.886C183.596 85.962 183.495 86 183.368 86H182.494C182.355 86 182.247 85.962 182.171 85.886C182.095 85.7973 182.057 85.6897 182.057 85.563V84.746C181.893 84.974 181.671 85.202 181.392 85.43C181.114 85.6453 180.765 85.829 180.347 85.981C179.929 86.1203 179.416 86.19 178.808 86.19ZM179.207 84.765C179.727 84.765 180.202 84.6573 180.632 84.442C181.063 84.214 181.399 83.8657 181.639 83.397C181.893 82.9283 182.019 82.3393 182.019 81.63V81.098L179.815 81.421C178.916 81.5477 178.238 81.763 177.782 82.067C177.326 82.3583 177.098 82.732 177.098 83.188C177.098 83.5427 177.2 83.8403 177.402 84.081C177.618 84.309 177.884 84.48 178.2 84.594C178.53 84.708 178.865 84.765 179.207 84.765ZM190.584 90.18C189.723 90.18 189.013 90.066 188.456 89.838C187.911 89.61 187.481 89.3313 187.164 89.002C186.86 88.6853 186.638 88.3623 186.499 88.033C186.372 87.7163 186.303 87.463 186.29 87.273C186.277 87.1463 186.315 87.0387 186.404 86.95C186.505 86.8613 186.613 86.817 186.727 86.817H187.639C187.753 86.817 187.848 86.8423 187.924 86.893C188 86.9437 188.063 87.0513 188.114 87.216C188.19 87.406 188.304 87.615 188.456 87.843C188.608 88.0837 188.842 88.2863 189.159 88.451C189.476 88.6283 189.919 88.717 190.489 88.717C191.084 88.717 191.585 88.6347 191.99 88.47C192.395 88.318 192.699 88.0393 192.902 87.634C193.117 87.2413 193.225 86.6967 193.225 86V84.708C192.921 85.1007 192.522 85.43 192.028 85.696C191.534 85.9493 190.913 86.076 190.166 86.076C189.457 86.076 188.849 85.9557 188.342 85.715C187.835 85.4617 187.417 85.126 187.088 84.708C186.771 84.2773 186.531 83.7897 186.366 83.245C186.214 82.7003 186.125 82.1303 186.1 81.535C186.087 81.1803 186.087 80.832 186.1 80.49C186.125 79.8947 186.214 79.3247 186.366 78.78C186.531 78.2353 186.771 77.7477 187.088 77.317C187.417 76.8863 187.835 76.5507 188.342 76.31C188.849 76.0567 189.457 75.93 190.166 75.93C190.926 75.93 191.553 76.0757 192.047 76.367C192.554 76.6457 192.965 76.9877 193.282 77.393V76.576C193.282 76.4493 193.32 76.3417 193.396 76.253C193.485 76.1643 193.592 76.12 193.719 76.12H194.593C194.72 76.12 194.827 76.1643 194.916 76.253C195.005 76.3417 195.049 76.4493 195.049 76.576V85.791C195.049 86.6397 194.903 87.3933 194.612 88.052C194.333 88.7107 193.865 89.23 193.206 89.61C192.56 89.99 191.686 90.18 190.584 90.18ZM190.546 84.556C191.179 84.556 191.686 84.4103 192.066 84.119C192.459 83.8277 192.744 83.4603 192.921 83.017C193.111 82.5737 193.212 82.124 193.225 81.668C193.238 81.4907 193.244 81.2753 193.244 81.022C193.244 80.756 193.238 80.5343 193.225 80.357C193.212 79.901 193.111 79.4513 192.921 79.008C192.744 78.5647 192.459 78.1973 192.066 77.906C191.686 77.6147 191.179 77.469 190.546 77.469C189.913 77.469 189.406 77.6147 189.026 77.906C188.646 78.1847 188.374 78.5583 188.209 79.027C188.044 79.483 187.949 79.977 187.924 80.509C187.911 80.8383 187.911 81.174 187.924 81.516C187.949 82.048 188.044 82.5483 188.209 83.017C188.374 83.473 188.646 83.8467 189.026 84.138C189.406 84.4167 189.913 84.556 190.546 84.556ZM201.807 86.19C200.502 86.19 199.463 85.791 198.691 84.993C197.918 84.1823 197.494 83.0803 197.418 81.687C197.405 81.5223 197.399 81.3133 197.399 81.06C197.399 80.794 197.405 80.5787 197.418 80.414C197.468 79.5147 197.677 78.7293 198.045 78.058C198.412 77.374 198.912 76.8483 199.546 76.481C200.192 76.1137 200.945 75.93 201.807 75.93C202.769 75.93 203.574 76.1327 204.22 76.538C204.878 76.9433 205.379 77.5197 205.721 78.267C206.063 79.0143 206.234 79.8883 206.234 80.889V81.212C206.234 81.3513 206.189 81.459 206.101 81.535C206.025 81.611 205.923 81.649 205.797 81.649H199.223C199.223 81.6617 199.223 81.687 199.223 81.725C199.223 81.763 199.223 81.7947 199.223 81.82C199.248 82.3393 199.362 82.827 199.565 83.283C199.767 83.7263 200.059 84.0873 200.439 84.366C200.819 84.6447 201.275 84.784 201.807 84.784C202.263 84.784 202.643 84.7143 202.947 84.575C203.251 84.4357 203.498 84.2837 203.688 84.119C203.878 83.9417 204.004 83.8087 204.068 83.72C204.182 83.5553 204.27 83.4603 204.334 83.435C204.397 83.397 204.498 83.378 204.638 83.378H205.55C205.676 83.378 205.778 83.416 205.854 83.492C205.942 83.5553 205.98 83.6503 205.968 83.777C205.955 83.967 205.854 84.2013 205.664 84.48C205.474 84.746 205.201 85.012 204.847 85.278C204.492 85.544 204.061 85.7657 203.555 85.943C203.048 86.1077 202.465 86.19 201.807 86.19ZM199.223 80.338H204.429V80.281C204.429 79.711 204.321 79.2043 204.106 78.761C203.903 78.3177 203.605 77.9693 203.213 77.716C202.82 77.45 202.351 77.317 201.807 77.317C201.262 77.317 200.793 77.45 200.401 77.716C200.021 77.9693 199.729 78.3177 199.527 78.761C199.324 79.2043 199.223 79.711 199.223 80.281V80.338ZM211.926 86.19C211.216 86.19 210.608 86.1013 210.102 85.924C209.595 85.7467 209.183 85.5313 208.867 85.278C208.55 85.0247 208.309 84.7713 208.145 84.518C207.993 84.2647 207.91 84.062 207.898 83.91C207.885 83.7707 207.929 83.663 208.031 83.587C208.132 83.511 208.233 83.473 208.335 83.473H209.171C209.247 83.473 209.304 83.4857 209.342 83.511C209.392 83.5237 209.456 83.5743 209.532 83.663C209.696 83.8403 209.88 84.0177 210.083 84.195C210.285 84.3723 210.532 84.518 210.824 84.632C211.128 84.746 211.501 84.803 211.945 84.803C212.591 84.803 213.123 84.6827 213.541 84.442C213.959 84.1887 214.168 83.8213 214.168 83.34C214.168 83.0233 214.079 82.77 213.902 82.58C213.737 82.39 213.433 82.219 212.99 82.067C212.559 81.915 211.964 81.7567 211.204 81.592C210.444 81.4147 209.842 81.1993 209.399 80.946C208.955 80.68 208.639 80.3697 208.449 80.015C208.259 79.6477 208.164 79.236 208.164 78.78C208.164 78.3113 208.303 77.8617 208.582 77.431C208.86 76.9877 209.266 76.6267 209.798 76.348C210.342 76.0693 211.02 75.93 211.831 75.93C212.489 75.93 213.053 76.0123 213.522 76.177C213.99 76.3417 214.377 76.5507 214.681 76.804C214.985 77.0447 215.213 77.2853 215.365 77.526C215.517 77.7667 215.599 77.9693 215.612 78.134C215.624 78.2607 215.586 78.3683 215.498 78.457C215.409 78.533 215.308 78.571 215.194 78.571H214.396C214.307 78.571 214.231 78.552 214.168 78.514C214.117 78.476 214.066 78.4317 214.016 78.381C213.889 78.2163 213.737 78.0517 213.56 77.887C213.395 77.7223 213.173 77.5893 212.895 77.488C212.629 77.374 212.274 77.317 211.831 77.317C211.197 77.317 210.722 77.45 210.406 77.716C210.089 77.982 209.931 78.3177 209.931 78.723C209.931 78.9637 210 79.179 210.14 79.369C210.279 79.559 210.545 79.73 210.938 79.882C211.33 80.034 211.913 80.1987 212.686 80.376C213.522 80.5407 214.18 80.7623 214.662 81.041C215.143 81.3197 215.485 81.6427 215.688 82.01C215.89 82.3773 215.992 82.8017 215.992 83.283C215.992 83.815 215.833 84.3027 215.517 84.746C215.213 85.1893 214.757 85.544 214.149 85.81C213.553 86.0633 212.812 86.19 211.926 86.19ZM217.603 87.596C217.502 87.596 217.413 87.558 217.337 87.482C217.261 87.406 217.223 87.3173 217.223 87.216C217.223 87.1527 217.242 87.0767 217.28 86.988L223.778 71.408C223.816 71.332 223.867 71.256 223.93 71.18C224.006 71.104 224.12 71.066 224.272 71.066H225.013C225.115 71.066 225.203 71.104 225.279 71.18C225.355 71.256 225.393 71.3447 225.393 71.446C225.393 71.4967 225.381 71.5727 225.355 71.674L218.838 87.254C218.813 87.3173 218.756 87.387 218.667 87.463C218.591 87.5517 218.484 87.596 218.344 87.596H217.603ZM227.739 86C227.612 86 227.505 85.962 227.416 85.886C227.34 85.7973 227.302 85.6897 227.302 85.563V72.947C227.302 72.8203 227.34 72.719 227.416 72.643C227.505 72.5543 227.612 72.51 227.739 72.51H228.632C228.771 72.51 228.879 72.5543 228.955 72.643C229.031 72.719 229.069 72.8203 229.069 72.947V85.563C229.069 85.6897 229.031 85.7973 228.955 85.886C228.879 85.962 228.771 86 228.632 86H227.739ZM234.658 86.19C234.025 86.19 233.448 86.0633 232.929 85.81C232.41 85.5567 231.992 85.2147 231.675 84.784C231.358 84.3533 231.2 83.8657 231.2 83.321C231.2 82.447 231.555 81.7503 232.264 81.231C232.973 80.7117 233.898 80.3697 235.038 80.205L237.869 79.806V79.255C237.869 78.647 237.692 78.172 237.337 77.83C236.995 77.488 236.431 77.317 235.646 77.317C235.076 77.317 234.614 77.431 234.259 77.659C233.917 77.887 233.676 78.1783 233.537 78.533C233.461 78.723 233.328 78.818 233.138 78.818H232.283C232.144 78.818 232.036 78.78 231.96 78.704C231.897 78.6153 231.865 78.514 231.865 78.4C231.865 78.21 231.935 77.9757 232.074 77.697C232.226 77.4183 232.454 77.146 232.758 76.88C233.062 76.614 233.448 76.3923 233.917 76.215C234.398 76.025 234.981 75.93 235.665 75.93C236.425 75.93 237.065 76.0313 237.584 76.234C238.103 76.424 238.509 76.6837 238.8 77.013C239.104 77.3423 239.319 77.716 239.446 78.134C239.585 78.552 239.655 78.9763 239.655 79.407V85.563C239.655 85.6897 239.611 85.7973 239.522 85.886C239.446 85.962 239.345 86 239.218 86H238.344C238.205 86 238.097 85.962 238.021 85.886C237.945 85.7973 237.907 85.6897 237.907 85.563V84.746C237.742 84.974 237.521 85.202 237.242 85.43C236.963 85.6453 236.615 85.829 236.197 85.981C235.779 86.1203 235.266 86.19 234.658 86.19ZM235.057 84.765C235.576 84.765 236.051 84.6573 236.482 84.442C236.913 84.214 237.248 83.8657 237.489 83.397C237.742 82.9283 237.869 82.3393 237.869 81.63V81.098L235.665 81.421C234.766 81.5477 234.088 81.763 233.632 82.067C233.176 82.3583 232.948 82.732 232.948 83.188C232.948 83.5427 233.049 83.8403 233.252 84.081C233.467 84.309 233.733 84.48 234.05 84.594C234.379 84.708 234.715 84.765 235.057 84.765ZM242.842 89.61C242.716 89.61 242.608 89.5657 242.519 89.477C242.443 89.401 242.405 89.2997 242.405 89.173V76.557C242.405 76.4303 242.443 76.329 242.519 76.253C242.608 76.1643 242.716 76.12 242.842 76.12H243.716C243.843 76.12 243.944 76.1643 244.02 76.253C244.109 76.329 244.153 76.4303 244.153 76.557V77.393C244.457 76.975 244.863 76.6267 245.369 76.348C245.876 76.0693 246.509 75.93 247.269 75.93C247.979 75.93 248.58 76.0503 249.074 76.291C249.581 76.5317 249.993 76.861 250.309 77.279C250.639 77.697 250.886 78.172 251.05 78.704C251.215 79.236 251.304 79.806 251.316 80.414C251.329 80.6167 251.335 80.832 251.335 81.06C251.335 81.288 251.329 81.5033 251.316 81.706C251.304 82.3013 251.215 82.8713 251.05 83.416C250.886 83.948 250.639 84.423 250.309 84.841C249.993 85.2463 249.581 85.5757 249.074 85.829C248.58 86.0697 247.979 86.19 247.269 86.19C246.535 86.19 245.914 86.057 245.407 85.791C244.913 85.5123 244.508 85.1703 244.191 84.765V89.173C244.191 89.2997 244.153 89.401 244.077 89.477C244.001 89.5657 243.894 89.61 243.754 89.61H242.842ZM246.87 84.651C247.529 84.651 248.042 84.5117 248.409 84.233C248.789 83.9417 249.062 83.568 249.226 83.112C249.391 82.6433 249.486 82.143 249.511 81.611C249.524 81.2437 249.524 80.8763 249.511 80.509C249.486 79.977 249.391 79.483 249.226 79.027C249.062 78.5583 248.789 78.1847 248.409 77.906C248.042 77.6147 247.529 77.469 246.87 77.469C246.25 77.469 245.743 77.6147 245.35 77.906C244.97 78.1973 244.685 78.571 244.495 79.027C244.318 79.4703 244.217 79.9263 244.191 80.395C244.179 80.5977 244.172 80.8383 244.172 81.117C244.172 81.3957 244.179 81.6427 244.191 81.858C244.204 82.3013 244.305 82.7383 244.495 83.169C244.698 83.5997 244.996 83.9543 245.388 84.233C245.781 84.5117 246.275 84.651 246.87 84.651ZM257.451 86C256.741 86 256.165 85.867 255.722 85.601C255.278 85.3223 254.955 84.936 254.753 84.442C254.55 83.9353 254.449 83.34 254.449 82.656V77.64H252.967C252.84 77.64 252.732 77.602 252.644 77.526C252.568 77.4373 252.53 77.3297 252.53 77.203V76.557C252.53 76.4303 252.568 76.329 252.644 76.253C252.732 76.1643 252.84 76.12 252.967 76.12H254.449V72.947C254.449 72.8203 254.487 72.719 254.562 72.643C254.651 72.5543 254.759 72.51 254.886 72.51H255.779C255.905 72.51 256.007 72.5543 256.083 72.643C256.171 72.719 256.216 72.8203 256.216 72.947V76.12H258.572C258.698 76.12 258.8 76.1643 258.876 76.253C258.964 76.329 259.009 76.4303 259.009 76.557V77.203C259.009 77.3297 258.964 77.4373 258.876 77.526C258.8 77.602 258.698 77.64 258.572 77.64H256.216V82.523C256.216 83.1183 256.317 83.587 256.52 83.929C256.722 84.271 257.083 84.442 257.603 84.442H258.762C258.888 84.442 258.99 84.4863 259.066 84.575C259.154 84.651 259.199 84.7523 259.199 84.879V85.563C259.199 85.6897 259.154 85.7973 259.066 85.886C258.99 85.962 258.888 86 258.762 86H257.451ZM265.062 86.19C264.1 86.19 263.295 86.0063 262.649 85.639C262.003 85.2717 261.509 84.765 261.167 84.119C260.825 83.4603 260.635 82.713 260.597 81.877C260.585 81.6617 260.578 81.3893 260.578 81.06C260.578 80.718 260.585 80.4457 260.597 80.243C260.635 79.3943 260.825 78.647 261.167 78.001C261.522 77.355 262.022 76.8483 262.668 76.481C263.314 76.1137 264.112 75.93 265.062 75.93C266.012 75.93 266.81 76.1137 267.456 76.481C268.102 76.8483 268.596 77.355 268.938 78.001C269.293 78.647 269.489 79.3943 269.527 80.243C269.54 80.4457 269.546 80.718 269.546 81.06C269.546 81.3893 269.54 81.6617 269.527 81.877C269.489 82.713 269.299 83.4603 268.957 84.119C268.615 84.765 268.121 85.2717 267.475 85.639C266.829 86.0063 266.025 86.19 265.062 86.19ZM265.062 84.727C265.848 84.727 266.475 84.48 266.943 83.986C267.412 83.4793 267.665 82.7447 267.703 81.782C267.716 81.592 267.722 81.3513 267.722 81.06C267.722 80.7687 267.716 80.528 267.703 80.338C267.665 79.3753 267.412 78.647 266.943 78.153C266.475 77.6463 265.848 77.393 265.062 77.393C264.277 77.393 263.644 77.6463 263.162 78.153C262.694 78.647 262.447 79.3753 262.421 80.338C262.409 80.528 262.402 80.7687 262.402 81.06C262.402 81.3513 262.409 81.592 262.421 81.782C262.447 82.7447 262.694 83.4793 263.162 83.986C263.644 84.48 264.277 84.727 265.062 84.727ZM272.382 89.61C272.255 89.61 272.147 89.5657 272.059 89.477C271.983 89.401 271.945 89.2997 271.945 89.173V76.557C271.945 76.4303 271.983 76.329 272.059 76.253C272.147 76.1643 272.255 76.12 272.382 76.12H273.256C273.382 76.12 273.484 76.1643 273.56 76.253C273.648 76.329 273.693 76.4303 273.693 76.557V77.393C273.997 76.975 274.402 76.6267 274.909 76.348C275.415 76.0693 276.049 75.93 276.809 75.93C277.518 75.93 278.12 76.0503 278.614 76.291C279.12 76.5317 279.532 76.861 279.849 77.279C280.178 77.697 280.425 78.172 280.59 78.704C280.754 79.236 280.843 79.806 280.856 80.414C280.868 80.6167 280.875 80.832 280.875 81.06C280.875 81.288 280.868 81.5033 280.856 81.706C280.843 82.3013 280.754 82.8713 280.59 83.416C280.425 83.948 280.178 84.423 279.849 84.841C279.532 85.2463 279.12 85.5757 278.614 85.829C278.12 86.0697 277.518 86.19 276.809 86.19C276.074 86.19 275.453 86.057 274.947 85.791C274.453 85.5123 274.047 85.1703 273.731 84.765V89.173C273.731 89.2997 273.693 89.401 273.617 89.477C273.541 89.5657 273.433 89.61 273.294 89.61H272.382ZM276.41 84.651C277.068 84.651 277.581 84.5117 277.949 84.233C278.329 83.9417 278.601 83.568 278.766 83.112C278.93 82.6433 279.025 82.143 279.051 81.611C279.063 81.2437 279.063 80.8763 279.051 80.509C279.025 79.977 278.93 79.483 278.766 79.027C278.601 78.5583 278.329 78.1847 277.949 77.906C277.581 77.6147 277.068 77.469 276.41 77.469C275.789 77.469 275.282 77.6147 274.89 77.906C274.51 78.1973 274.225 78.571 274.035 79.027C273.857 79.4703 273.756 79.9263 273.731 80.395C273.718 80.5977 273.712 80.8383 273.712 81.117C273.712 81.3957 273.718 81.6427 273.731 81.858C273.743 82.3013 273.845 82.7383 274.035 83.169C274.237 83.5997 274.535 83.9543 274.928 84.233C275.32 84.5117 275.814 84.651 276.41 84.651ZM283.362 86C283.236 86 283.128 85.962 283.039 85.886C282.963 85.7973 282.925 85.6897 282.925 85.563V84.195C282.925 84.0683 282.963 83.967 283.039 83.891C283.128 83.8023 283.236 83.758 283.362 83.758H284.73C284.857 83.758 284.958 83.8023 285.034 83.891C285.123 83.967 285.167 84.0683 285.167 84.195V85.563C285.167 85.6897 285.123 85.7973 285.034 85.886C284.958 85.962 284.857 86 284.73 86H283.362ZM286.026 89.61C285.9 89.61 285.798 89.5657 285.722 89.477C285.634 89.401 285.589 89.2997 285.589 89.173V88.527C285.589 88.4003 285.634 88.2927 285.722 88.204C285.798 88.128 285.9 88.09 286.026 88.09H286.292C286.748 88.09 287.084 88.0013 287.299 87.824C287.515 87.6593 287.654 87.4377 287.717 87.159C287.793 86.8803 287.831 86.5637 287.831 86.209V76.557C287.831 76.4303 287.869 76.329 287.945 76.253C288.034 76.1643 288.142 76.12 288.268 76.12H289.199C289.326 76.12 289.427 76.1643 289.503 76.253C289.592 76.329 289.636 76.4303 289.636 76.557V86.228C289.636 86.8993 289.529 87.4883 289.313 87.995C289.111 88.5017 288.775 88.8943 288.306 89.173C287.838 89.4643 287.198 89.61 286.387 89.61H286.026ZM288.116 74.277C287.99 74.277 287.882 74.239 287.793 74.163C287.717 74.0743 287.679 73.9667 287.679 73.84V72.814C287.679 72.6873 287.717 72.586 287.793 72.51C287.882 72.4213 287.99 72.377 288.116 72.377H289.332C289.459 72.377 289.567 72.4213 289.655 72.51C289.744 72.586 289.788 72.6873 289.788 72.814V73.84C289.788 73.9667 289.744 74.0743 289.655 74.163C289.567 74.239 289.459 74.277 289.332 74.277H288.116ZM293.107 89.61C292.98 89.61 292.873 89.5657 292.784 89.477C292.708 89.401 292.67 89.2997 292.67 89.173V76.557C292.67 76.4303 292.708 76.329 292.784 76.253C292.873 76.1643 292.98 76.12 293.107 76.12H293.981C294.108 76.12 294.209 76.1643 294.285 76.253C294.374 76.329 294.418 76.4303 294.418 76.557V77.393C294.722 76.975 295.127 76.6267 295.634 76.348C296.141 76.0693 296.774 75.93 297.534 75.93C298.243 75.93 298.845 76.0503 299.339 76.291C299.846 76.5317 300.257 76.861 300.574 77.279C300.903 77.697 301.15 78.172 301.315 78.704C301.48 79.236 301.568 79.806 301.581 80.414C301.594 80.6167 301.6 80.832 301.6 81.06C301.6 81.288 301.594 81.5033 301.581 81.706C301.568 82.3013 301.48 82.8713 301.315 83.416C301.15 83.948 300.903 84.423 300.574 84.841C300.257 85.2463 299.846 85.5757 299.339 85.829C298.845 86.0697 298.243 86.19 297.534 86.19C296.799 86.19 296.179 86.057 295.672 85.791C295.178 85.5123 294.773 85.1703 294.456 84.765V89.173C294.456 89.2997 294.418 89.401 294.342 89.477C294.266 89.5657 294.158 89.61 294.019 89.61H293.107ZM297.135 84.651C297.794 84.651 298.307 84.5117 298.674 84.233C299.054 83.9417 299.326 83.568 299.491 83.112C299.656 82.6433 299.751 82.143 299.776 81.611C299.789 81.2437 299.789 80.8763 299.776 80.509C299.751 79.977 299.656 79.483 299.491 79.027C299.326 78.5583 299.054 78.1847 298.674 77.906C298.307 77.6147 297.794 77.469 297.135 77.469C296.514 77.469 296.008 77.6147 295.615 77.906C295.235 78.1973 294.95 78.571 294.76 79.027C294.583 79.4703 294.481 79.9263 294.456 80.395C294.443 80.5977 294.437 80.8383 294.437 81.117C294.437 81.3957 294.443 81.6427 294.456 81.858C294.469 82.3013 294.57 82.7383 294.76 83.169C294.963 83.5997 295.26 83.9543 295.653 84.233C296.046 84.5117 296.54 84.651 297.135 84.651ZM308.016 90.18C307.155 90.18 306.446 90.066 305.888 89.838C305.344 89.61 304.913 89.3313 304.596 89.002C304.292 88.6853 304.071 88.3623 303.931 88.033C303.805 87.7163 303.735 87.463 303.722 87.273C303.71 87.1463 303.748 87.0387 303.836 86.95C303.938 86.8613 304.045 86.817 304.159 86.817H305.071C305.185 86.817 305.28 86.8423 305.356 86.893C305.432 86.9437 305.496 87.0513 305.546 87.216C305.622 87.406 305.736 87.615 305.888 87.843C306.04 88.0837 306.275 88.2863 306.591 88.451C306.908 88.6283 307.351 88.717 307.921 88.717C308.517 88.717 309.017 88.6347 309.422 88.47C309.828 88.318 310.132 88.0393 310.334 87.634C310.55 87.2413 310.657 86.6967 310.657 86V84.708C310.353 85.1007 309.954 85.43 309.46 85.696C308.966 85.9493 308.346 86.076 307.598 86.076C306.889 86.076 306.281 85.9557 305.774 85.715C305.268 85.4617 304.85 85.126 304.52 84.708C304.204 84.2773 303.963 83.7897 303.798 83.245C303.646 82.7003 303.558 82.1303 303.532 81.535C303.52 81.1803 303.52 80.832 303.532 80.49C303.558 79.8947 303.646 79.3247 303.798 78.78C303.963 78.2353 304.204 77.7477 304.52 77.317C304.85 76.8863 305.268 76.5507 305.774 76.31C306.281 76.0567 306.889 75.93 307.598 75.93C308.358 75.93 308.985 76.0757 309.479 76.367C309.986 76.6457 310.398 76.9877 310.714 77.393V76.576C310.714 76.4493 310.752 76.3417 310.828 76.253C310.917 76.1643 311.025 76.12 311.151 76.12H312.025C312.152 76.12 312.26 76.1643 312.348 76.253C312.437 76.3417 312.481 76.4493 312.481 76.576V85.791C312.481 86.6397 312.336 87.3933 312.044 88.052C311.766 88.7107 311.297 89.23 310.638 89.61C309.992 89.99 309.118 90.18 308.016 90.18ZM307.978 84.556C308.612 84.556 309.118 84.4103 309.498 84.119C309.891 83.8277 310.176 83.4603 310.353 83.017C310.543 82.5737 310.645 82.124 310.657 81.668C310.67 81.4907 310.676 81.2753 310.676 81.022C310.676 80.756 310.67 80.5343 310.657 80.357C310.645 79.901 310.543 79.4513 310.353 79.008C310.176 78.5647 309.891 78.1973 309.498 77.906C309.118 77.6147 308.612 77.469 307.978 77.469C307.345 77.469 306.838 77.6147 306.458 77.906C306.078 78.1847 305.806 78.5583 305.641 79.027C305.477 79.483 305.382 79.977 305.356 80.509C305.344 80.8383 305.344 81.174 305.356 81.516C305.382 82.048 305.477 82.5483 305.641 83.017C305.806 83.473 306.078 83.8467 306.458 84.138C306.838 84.4167 307.345 84.556 307.978 84.556Z" fill="#B5C1FF"/>
<path d="M380.928 86.19C380.117 86.19 379.427 86.0127 378.857 85.658C378.3 85.2907 377.875 84.784 377.584 84.138C377.293 83.492 377.147 82.751 377.147 81.915V76.557C377.147 76.4303 377.185 76.329 377.261 76.253C377.35 76.1643 377.457 76.12 377.584 76.12H378.534C378.661 76.12 378.762 76.1643 378.838 76.253C378.927 76.329 378.971 76.4303 378.971 76.557V81.82C378.971 83.7073 379.794 84.651 381.441 84.651C382.226 84.651 382.853 84.404 383.322 83.91C383.803 83.4033 384.044 82.7067 384.044 81.82V76.557C384.044 76.4303 384.082 76.329 384.158 76.253C384.247 76.1643 384.354 76.12 384.481 76.12H385.412C385.551 76.12 385.659 76.1643 385.735 76.253C385.811 76.329 385.849 76.4303 385.849 76.557V85.563C385.849 85.6897 385.811 85.7973 385.735 85.886C385.659 85.962 385.551 86 385.412 86H384.538C384.411 86 384.304 85.962 384.215 85.886C384.139 85.7973 384.101 85.6897 384.101 85.563V84.727C383.759 85.1703 383.341 85.525 382.847 85.791C382.366 86.057 381.726 86.19 380.928 86.19ZM389.109 86C388.982 86 388.874 85.962 388.786 85.886C388.71 85.7973 388.672 85.6897 388.672 85.563V76.557C388.672 76.4303 388.71 76.329 388.786 76.253C388.874 76.1643 388.982 76.12 389.109 76.12H390.002C390.128 76.12 390.23 76.1643 390.306 76.253C390.394 76.329 390.439 76.4303 390.439 76.557V77.393C390.768 76.9623 391.18 76.614 391.674 76.348C392.18 76.0693 392.826 75.93 393.612 75.93C394.435 75.93 395.132 76.1137 395.702 76.481C396.284 76.8357 396.721 77.336 397.013 77.982C397.304 78.6153 397.45 79.3563 397.45 80.205V85.563C397.45 85.6897 397.412 85.7973 397.336 85.886C397.26 85.962 397.158 86 397.032 86H396.082C395.955 86 395.847 85.962 395.759 85.886C395.683 85.7973 395.645 85.6897 395.645 85.563V80.3C395.645 79.4133 395.429 78.723 394.999 78.229C394.568 77.7223 393.935 77.469 393.099 77.469C392.313 77.469 391.68 77.7223 391.199 78.229C390.73 78.723 390.496 79.4133 390.496 80.3V85.563C390.496 85.6897 390.451 85.7973 390.363 85.886C390.287 85.962 390.185 86 390.059 86H389.109ZM403.614 86.19C402.905 86.19 402.297 86.1013 401.79 85.924C401.283 85.7467 400.872 85.5313 400.555 85.278C400.238 85.0247 399.998 84.7713 399.833 84.518C399.681 84.2647 399.599 84.062 399.586 83.91C399.573 83.7707 399.618 83.663 399.719 83.587C399.82 83.511 399.922 83.473 400.023 83.473H400.859C400.935 83.473 400.992 83.4857 401.03 83.511C401.081 83.5237 401.144 83.5743 401.22 83.663C401.385 83.8403 401.568 84.0177 401.771 84.195C401.974 84.3723 402.221 84.518 402.512 84.632C402.816 84.746 403.19 84.803 403.633 84.803C404.279 84.803 404.811 84.6827 405.229 84.442C405.647 84.1887 405.856 83.8213 405.856 83.34C405.856 83.0233 405.767 82.77 405.59 82.58C405.425 82.39 405.121 82.219 404.678 82.067C404.247 81.915 403.652 81.7567 402.892 81.592C402.132 81.4147 401.53 81.1993 401.087 80.946C400.644 80.68 400.327 80.3697 400.137 80.015C399.947 79.6477 399.852 79.236 399.852 78.78C399.852 78.3113 399.991 77.8617 400.27 77.431C400.549 76.9877 400.954 76.6267 401.486 76.348C402.031 76.0693 402.708 75.93 403.519 75.93C404.178 75.93 404.741 76.0123 405.21 76.177C405.679 76.3417 406.065 76.5507 406.369 76.804C406.673 77.0447 406.901 77.2853 407.053 77.526C407.205 77.7667 407.287 77.9693 407.3 78.134C407.313 78.2607 407.275 78.3683 407.186 78.457C407.097 78.533 406.996 78.571 406.882 78.571H406.084C405.995 78.571 405.919 78.552 405.856 78.514C405.805 78.476 405.755 78.4317 405.704 78.381C405.577 78.2163 405.425 78.0517 405.248 77.887C405.083 77.7223 404.862 77.5893 404.583 77.488C404.317 77.374 403.962 77.317 403.519 77.317C402.886 77.317 402.411 77.45 402.094 77.716C401.777 77.982 401.619 78.3177 401.619 78.723C401.619 78.9637 401.689 79.179 401.828 79.369C401.967 79.559 402.233 79.73 402.626 79.882C403.019 80.034 403.601 80.1987 404.374 80.376C405.21 80.5407 405.869 80.7623 406.35 81.041C406.831 81.3197 407.173 81.6427 407.376 82.01C407.579 82.3773 407.68 82.8017 407.68 83.283C407.68 83.815 407.522 84.3027 407.205 84.746C406.901 85.1893 406.445 85.544 405.837 85.81C405.242 86.0633 404.501 86.19 403.614 86.19ZM413.566 86.19C412.755 86.19 412.065 86.0127 411.495 85.658C410.937 85.2907 410.513 84.784 410.222 84.138C409.93 83.492 409.785 82.751 409.785 81.915V76.557C409.785 76.4303 409.823 76.329 409.899 76.253C409.987 76.1643 410.095 76.12 410.222 76.12H411.172C411.298 76.12 411.4 76.1643 411.476 76.253C411.564 76.329 411.609 76.4303 411.609 76.557V81.82C411.609 83.7073 412.432 84.651 414.079 84.651C414.864 84.651 415.491 84.404 415.96 83.91C416.441 83.4033 416.682 82.7067 416.682 81.82V76.557C416.682 76.4303 416.72 76.329 416.796 76.253C416.884 76.1643 416.992 76.12 417.119 76.12H418.05C418.189 76.12 418.297 76.1643 418.373 76.253C418.449 76.329 418.487 76.4303 418.487 76.557V85.563C418.487 85.6897 418.449 85.7973 418.373 85.886C418.297 85.962 418.189 86 418.05 86H417.176C417.049 86 416.941 85.962 416.853 85.886C416.777 85.7973 416.739 85.6897 416.739 85.563V84.727C416.397 85.1703 415.979 85.525 415.485 85.791C415.003 86.057 414.364 86.19 413.566 86.19ZM421.765 89.61C421.639 89.61 421.531 89.5657 421.442 89.477C421.366 89.401 421.328 89.2997 421.328 89.173V76.557C421.328 76.4303 421.366 76.329 421.442 76.253C421.531 76.1643 421.639 76.12 421.765 76.12H422.639C422.766 76.12 422.867 76.1643 422.943 76.253C423.032 76.329 423.076 76.4303 423.076 76.557V77.393C423.38 76.975 423.786 76.6267 424.292 76.348C424.799 76.0693 425.432 75.93 426.192 75.93C426.902 75.93 427.503 76.0503 427.997 76.291C428.504 76.5317 428.916 76.861 429.232 77.279C429.562 77.697 429.809 78.172 429.973 78.704C430.138 79.236 430.227 79.806 430.239 80.414C430.252 80.6167 430.258 80.832 430.258 81.06C430.258 81.288 430.252 81.5033 430.239 81.706C430.227 82.3013 430.138 82.8713 429.973 83.416C429.809 83.948 429.562 84.423 429.232 84.841C428.916 85.2463 428.504 85.5757 427.997 85.829C427.503 86.0697 426.902 86.19 426.192 86.19C425.458 86.19 424.837 86.057 424.33 85.791C423.836 85.5123 423.431 85.1703 423.114 84.765V89.173C423.114 89.2997 423.076 89.401 423 89.477C422.924 89.5657 422.817 89.61 422.677 89.61H421.765ZM425.793 84.651C426.452 84.651 426.965 84.5117 427.332 84.233C427.712 83.9417 427.985 83.568 428.149 83.112C428.314 82.6433 428.409 82.143 428.434 81.611C428.447 81.2437 428.447 80.8763 428.434 80.509C428.409 79.977 428.314 79.483 428.149 79.027C427.985 78.5583 427.712 78.1847 427.332 77.906C426.965 77.6147 426.452 77.469 425.793 77.469C425.173 77.469 424.666 77.6147 424.273 77.906C423.893 78.1973 423.608 78.571 423.418 79.027C423.241 79.4703 423.14 79.9263 423.114 80.395C423.102 80.5977 423.095 80.8383 423.095 81.117C423.095 81.3957 423.102 81.6427 423.114 81.858C423.127 82.3013 423.228 82.7383 423.418 83.169C423.621 83.5997 423.919 83.9543 424.311 84.233C424.704 84.5117 425.198 84.651 425.793 84.651ZM433.084 89.61C432.957 89.61 432.849 89.5657 432.761 89.477C432.685 89.401 432.647 89.2997 432.647 89.173V76.557C432.647 76.4303 432.685 76.329 432.761 76.253C432.849 76.1643 432.957 76.12 433.084 76.12H433.958C434.084 76.12 434.186 76.1643 434.262 76.253C434.35 76.329 434.395 76.4303 434.395 76.557V77.393C434.699 76.975 435.104 76.6267 435.611 76.348C436.117 76.0693 436.751 75.93 437.511 75.93C438.22 75.93 438.822 76.0503 439.316 76.291C439.822 76.5317 440.234 76.861 440.551 77.279C440.88 77.697 441.127 78.172 441.292 78.704C441.456 79.236 441.545 79.806 441.558 80.414C441.57 80.6167 441.577 80.832 441.577 81.06C441.577 81.288 441.57 81.5033 441.558 81.706C441.545 82.3013 441.456 82.8713 441.292 83.416C441.127 83.948 440.88 84.423 440.551 84.841C440.234 85.2463 439.822 85.5757 439.316 85.829C438.822 86.0697 438.22 86.19 437.511 86.19C436.776 86.19 436.155 86.057 435.649 85.791C435.155 85.5123 434.749 85.1703 434.433 84.765V89.173C434.433 89.2997 434.395 89.401 434.319 89.477C434.243 89.5657 434.135 89.61 433.996 89.61H433.084ZM437.112 84.651C437.77 84.651 438.283 84.5117 438.651 84.233C439.031 83.9417 439.303 83.568 439.468 83.112C439.632 82.6433 439.727 82.143 439.753 81.611C439.765 81.2437 439.765 80.8763 439.753 80.509C439.727 79.977 439.632 79.483 439.468 79.027C439.303 78.5583 439.031 78.1847 438.651 77.906C438.283 77.6147 437.77 77.469 437.112 77.469C436.491 77.469 435.984 77.6147 435.592 77.906C435.212 78.1973 434.927 78.571 434.737 79.027C434.559 79.4703 434.458 79.9263 434.433 80.395C434.42 80.5977 434.414 80.8383 434.414 81.117C434.414 81.3957 434.42 81.6427 434.433 81.858C434.445 82.3013 434.547 82.7383 434.737 83.169C434.939 83.5997 435.237 83.9543 435.63 84.233C436.022 84.5117 436.516 84.651 437.112 84.651ZM447.993 86.19C447.03 86.19 446.226 86.0063 445.58 85.639C444.934 85.2717 444.44 84.765 444.098 84.119C443.756 83.4603 443.566 82.713 443.528 81.877C443.515 81.6617 443.509 81.3893 443.509 81.06C443.509 80.718 443.515 80.4457 443.528 80.243C443.566 79.3943 443.756 78.647 444.098 78.001C444.453 77.355 444.953 76.8483 445.599 76.481C446.245 76.1137 447.043 75.93 447.993 75.93C448.943 75.93 449.741 76.1137 450.387 76.481C451.033 76.8483 451.527 77.355 451.869 78.001C452.224 78.647 452.42 79.3943 452.458 80.243C452.471 80.4457 452.477 80.718 452.477 81.06C452.477 81.3893 452.471 81.6617 452.458 81.877C452.42 82.713 452.23 83.4603 451.888 84.119C451.546 84.765 451.052 85.2717 450.406 85.639C449.76 86.0063 448.956 86.19 447.993 86.19ZM447.993 84.727C448.778 84.727 449.405 84.48 449.874 83.986C450.343 83.4793 450.596 82.7447 450.634 81.782C450.647 81.592 450.653 81.3513 450.653 81.06C450.653 80.7687 450.647 80.528 450.634 80.338C450.596 79.3753 450.343 78.647 449.874 78.153C449.405 77.6463 448.778 77.393 447.993 77.393C447.208 77.393 446.574 77.6463 446.093 78.153C445.624 78.647 445.377 79.3753 445.352 80.338C445.339 80.528 445.333 80.7687 445.333 81.06C445.333 81.3513 445.339 81.592 445.352 81.782C445.377 82.7447 445.624 83.4793 446.093 83.986C446.574 84.48 447.208 84.727 447.993 84.727ZM455.293 86C455.167 86 455.059 85.962 454.97 85.886C454.894 85.7973 454.856 85.6897 454.856 85.563V76.576C454.856 76.4493 454.894 76.3417 454.97 76.253C455.059 76.1643 455.167 76.12 455.293 76.12H456.167C456.294 76.12 456.402 76.1643 456.49 76.253C456.579 76.3417 456.623 76.4493 456.623 76.576V77.412C456.877 76.9813 457.225 76.6583 457.668 76.443C458.112 76.2277 458.644 76.12 459.264 76.12H460.024C460.151 76.12 460.252 76.1643 460.328 76.253C460.404 76.329 460.442 76.4303 460.442 76.557V77.336C460.442 77.4627 460.404 77.564 460.328 77.64C460.252 77.716 460.151 77.754 460.024 77.754H458.884C458.2 77.754 457.662 77.9567 457.269 78.362C456.877 78.7547 456.68 79.293 456.68 79.977V85.563C456.68 85.6897 456.636 85.7973 456.547 85.886C456.459 85.962 456.351 86 456.224 86H455.293ZM465.931 86C465.222 86 464.645 85.867 464.202 85.601C463.759 85.3223 463.436 84.936 463.233 84.442C463.03 83.9353 462.929 83.34 462.929 82.656V77.64H461.447C461.32 77.64 461.213 77.602 461.124 77.526C461.048 77.4373 461.01 77.3297 461.01 77.203V76.557C461.01 76.4303 461.048 76.329 461.124 76.253C461.213 76.1643 461.32 76.12 461.447 76.12H462.929V72.947C462.929 72.8203 462.967 72.719 463.043 72.643C463.132 72.5543 463.239 72.51 463.366 72.51H464.259C464.386 72.51 464.487 72.5543 464.563 72.643C464.652 72.719 464.696 72.8203 464.696 72.947V76.12H467.052C467.179 76.12 467.28 76.1643 467.356 76.253C467.445 76.329 467.489 76.4303 467.489 76.557V77.203C467.489 77.3297 467.445 77.4373 467.356 77.526C467.28 77.602 467.179 77.64 467.052 77.64H464.696V82.523C464.696 83.1183 464.797 83.587 465 83.929C465.203 84.271 465.564 84.442 466.083 84.442H467.242C467.369 84.442 467.47 84.4863 467.546 84.575C467.635 84.651 467.679 84.7523 467.679 84.879V85.563C467.679 85.6897 467.635 85.7973 467.546 85.886C467.47 85.962 467.369 86 467.242 86H465.931ZM473.429 86.19C472.124 86.19 471.086 85.791 470.313 84.993C469.54 84.1823 469.116 83.0803 469.04 81.687C469.027 81.5223 469.021 81.3133 469.021 81.06C469.021 80.794 469.027 80.5787 469.04 80.414C469.091 79.5147 469.3 78.7293 469.667 78.058C470.034 77.374 470.535 76.8483 471.168 76.481C471.814 76.1137 472.568 75.93 473.429 75.93C474.392 75.93 475.196 76.1327 475.842 76.538C476.501 76.9433 477.001 77.5197 477.343 78.267C477.685 79.0143 477.856 79.8883 477.856 80.889V81.212C477.856 81.3513 477.812 81.459 477.723 81.535C477.647 81.611 477.546 81.649 477.419 81.649H470.845C470.845 81.6617 470.845 81.687 470.845 81.725C470.845 81.763 470.845 81.7947 470.845 81.82C470.87 82.3393 470.984 82.827 471.187 83.283C471.39 83.7263 471.681 84.0873 472.061 84.366C472.441 84.6447 472.897 84.784 473.429 84.784C473.885 84.784 474.265 84.7143 474.569 84.575C474.873 84.4357 475.12 84.2837 475.31 84.119C475.5 83.9417 475.627 83.8087 475.69 83.72C475.804 83.5553 475.893 83.4603 475.956 83.435C476.019 83.397 476.121 83.378 476.26 83.378H477.172C477.299 83.378 477.4 83.416 477.476 83.492C477.565 83.5553 477.603 83.6503 477.59 83.777C477.577 83.967 477.476 84.2013 477.286 84.48C477.096 84.746 476.824 85.012 476.469 85.278C476.114 85.544 475.684 85.7657 475.177 85.943C474.67 86.1077 474.088 86.19 473.429 86.19ZM470.845 80.338H476.051V80.281C476.051 79.711 475.943 79.2043 475.728 78.761C475.525 78.3177 475.228 77.9693 474.835 77.716C474.442 77.45 473.974 77.317 473.429 77.317C472.884 77.317 472.416 77.45 472.023 77.716C471.643 77.9693 471.352 78.3177 471.149 78.761C470.946 79.2043 470.845 79.711 470.845 80.281V80.338ZM483.738 86.19C483.041 86.19 482.439 86.0697 481.933 85.829C481.426 85.5757 481.008 85.24 480.679 84.822C480.362 84.3913 480.121 83.9037 479.957 83.359C479.805 82.8143 479.716 82.238 479.691 81.63C479.678 81.4273 479.672 81.2373 479.672 81.06C479.672 80.8827 479.678 80.6927 479.691 80.49C479.716 79.8947 479.805 79.3247 479.957 78.78C480.121 78.2353 480.362 77.7477 480.679 77.317C481.008 76.8863 481.426 76.5507 481.933 76.31C482.439 76.0567 483.041 75.93 483.738 75.93C484.485 75.93 485.106 76.063 485.6 76.329C486.094 76.595 486.499 76.9243 486.816 77.317V72.947C486.816 72.8203 486.854 72.719 486.93 72.643C487.018 72.5543 487.126 72.51 487.253 72.51H488.165C488.291 72.51 488.393 72.5543 488.469 72.643C488.557 72.719 488.602 72.8203 488.602 72.947V85.563C488.602 85.6897 488.557 85.7973 488.469 85.886C488.393 85.962 488.291 86 488.165 86H487.31C487.17 86 487.063 85.962 486.987 85.886C486.911 85.7973 486.873 85.6897 486.873 85.563V84.765C486.556 85.1703 486.144 85.5123 485.638 85.791C485.131 86.057 484.498 86.19 483.738 86.19ZM484.137 84.651C484.77 84.651 485.277 84.5053 485.657 84.214C486.037 83.9227 486.322 83.5553 486.512 83.112C486.702 82.656 486.803 82.1937 486.816 81.725C486.828 81.5223 486.835 81.2817 486.835 81.003C486.835 80.7117 486.828 80.4647 486.816 80.262C486.803 79.8187 486.695 79.3817 486.493 78.951C486.303 78.5203 486.011 78.1657 485.619 77.887C485.239 77.6083 484.745 77.469 484.137 77.469C483.491 77.469 482.978 77.6147 482.598 77.906C482.218 78.1847 481.945 78.5583 481.781 79.027C481.616 79.483 481.521 79.977 481.496 80.509C481.483 80.8763 481.483 81.2437 481.496 81.611C481.521 82.143 481.616 82.6433 481.781 83.112C481.945 83.568 482.218 83.9417 482.598 84.233C482.978 84.5117 483.491 84.651 484.137 84.651Z" fill="#B5C1FF"/>
<g filter="url(#filter0_d_170_30)">
<path d="M4 12C4 5.37258 9.37258 0 16 0H578C584.627 0 590 5.37258 590 12V43H4V12Z" fill="#242526"/>
</g>
<ellipse cx="29.1279" cy="21.9141" rx="5.84369" ry="6.72025" fill="#E65100"/>
<ellipse cx="48.4121" cy="21.9141" rx="5.84369" ry="6.72025" fill="#FFD600"/>
<ellipse cx="67.6962" cy="21.9141" rx="5.84369" ry="6.72025" fill="#4EC433"/>
<defs>
<filter id="filter0_d_170_30" x="0" y="0" width="594" height="51" filterUnits="userSpaceOnUse" color-interpolation-filters="sRGB">
<feFlood flood-opacity="0" result="BackgroundImageFix"/>
<feColorMatrix in="SourceAlpha" type="matrix" values="0 0 0 0 0 0 0 0 0 0 0 0 0 0 0 0 0 0 127 0" result="hardAlpha"/>
<feOffset dy="4"/>
<feGaussianBlur stdDeviation="2"/>
<feComposite in2="hardAlpha" operator="out"/>
<feColorMatrix type="matrix" values="0 0 0 0 0 0 0 0 0 0 0 0 0 0 0 0 0 0 0.25 0"/>
<feBlend mode="normal" in2="BackgroundImageFix" result="effect1_dropShadow_170_30"/>
<feBlend mode="normal" in="SourceGraphic" in2="effect1_dropShadow_170_30" result="shape"/>
</filter>
</defs>
</svg>
