<svg width="594" height="160" viewBox="0 0 594 160" fill="none" xmlns="http://www.w3.org/2000/svg">
<rect x="4" width="586" height="144" rx="12" fill="#242526"/>
<path d="M36.676 88.525C36.6 88.525 36.5177 88.4997 36.429 88.449C36.353 88.3983 36.2833 88.3603 36.22 88.335L30.235 84.212C30.045 84.0853 29.9057 83.9587 29.817 83.832C29.7283 83.6927 29.684 83.5343 29.684 83.357V83.015C29.684 82.8377 29.7283 82.6857 29.817 82.559C29.9057 82.4323 30.045 82.2993 30.235 82.16L36.22 78.056C36.2833 78.018 36.353 77.9737 36.429 77.923C36.5177 77.8723 36.6 77.847 36.676 77.847C36.7773 77.847 36.866 77.885 36.942 77.961C37.018 78.0243 37.056 78.1193 37.056 78.246V79.082C37.056 79.2213 37.018 79.3417 36.942 79.443C36.866 79.5317 36.7583 79.6203 36.619 79.709L31.527 83.186L36.619 86.663C36.7583 86.7643 36.866 86.8593 36.942 86.948C37.018 87.0367 37.056 87.157 37.056 87.309V88.145C37.056 88.259 37.018 88.354 36.942 88.43C36.866 88.4933 36.7773 88.525 36.676 88.525ZM353.728 88.506C353.626 88.506 353.538 88.4743 353.462 88.411C353.386 88.3477 353.348 88.2527 353.348 88.126V87.29C353.348 87.138 353.379 87.0177 353.443 86.929C353.519 86.8403 353.633 86.7517 353.785 86.663L358.858 83.186L353.785 79.709C353.633 79.6077 353.519 79.5127 353.443 79.424C353.379 79.3353 353.348 79.215 353.348 79.063V78.227C353.348 78.1003 353.386 78.0053 353.462 77.942C353.538 77.8787 353.626 77.847 353.728 77.847C353.804 77.847 353.886 77.8723 353.975 77.923C354.063 77.961 354.133 77.999 354.184 78.037L360.15 82.141C360.352 82.2803 360.492 82.4133 360.568 82.54C360.656 82.6667 360.701 82.825 360.701 83.015V83.338C360.701 83.5153 360.656 83.6737 360.568 83.813C360.492 83.9397 360.352 84.0727 360.15 84.212L354.184 88.316C354.133 88.354 354.063 88.3983 353.975 88.449C353.886 88.487 353.804 88.506 353.728 88.506ZM525.462 88.525C525.386 88.525 525.304 88.4997 525.215 88.449C525.139 88.3983 525.069 88.3603 525.006 88.335L519.021 84.212C518.831 84.0853 518.692 83.9587 518.603 83.832C518.514 83.6927 518.47 83.5343 518.47 83.357V83.015C518.47 82.8377 518.514 82.6857 518.603 82.559C518.692 82.4323 518.831 82.2993 519.021 82.16L525.006 78.056C525.069 78.018 525.139 77.9737 525.215 77.923C525.304 77.8723 525.386 77.847 525.462 77.847C525.563 77.847 525.652 77.885 525.728 77.961C525.804 78.0243 525.842 78.1193 525.842 78.246V79.082C525.842 79.2213 525.804 79.3417 525.728 79.443C525.652 79.5317 525.544 79.6203 525.405 79.709L520.313 83.186L525.405 86.663C525.544 86.7643 525.652 86.8593 525.728 86.948C525.804 87.0367 525.842 87.157 525.842 87.309V88.145C525.842 88.259 525.804 88.354 525.728 88.43C525.652 88.4933 525.563 88.525 525.462 88.525ZM562.412 88.506C562.311 88.506 562.222 88.4743 562.146 88.411C562.07 88.3477 562.032 88.2527 562.032 88.126V87.29C562.032 87.138 562.064 87.0177 562.127 86.929C562.203 86.8403 562.317 86.7517 562.469 86.663L567.542 83.186L562.469 79.709C562.317 79.6077 562.203 79.5127 562.127 79.424C562.064 79.3353 562.032 79.215 562.032 79.063V78.227C562.032 78.1003 562.07 78.0053 562.146 77.942C562.222 77.8787 562.311 77.847 562.412 77.847C562.488 77.847 562.571 77.8723 562.659 77.923C562.748 77.961 562.818 77.999 562.868 78.037L568.834 82.141C569.037 82.2803 569.176 82.4133 569.252 82.54C569.341 82.6667 569.385 82.825 569.385 83.015V83.338C569.385 83.5153 569.341 83.6737 569.252 83.813C569.176 83.9397 569.037 84.0727 568.834 84.212L562.868 88.316C562.818 88.354 562.748 88.3983 562.659 88.449C562.571 88.487 562.488 88.506 562.412 88.506Z" fill="#647DFF"/>
<path d="M47.1698 89.19C46.5365 89.19 45.9601 89.0633 45.4408 88.81C44.9215 88.5567 44.5035 88.2147 44.1868 87.784C43.8701 87.3533 43.7118 86.8657 43.7118 86.321C43.7118 85.447 44.0665 84.7503 44.7758 84.231C45.4851 83.7117 46.4098 83.3697 47.5498 83.205L50.3808 82.806V82.255C50.3808 81.647 50.2035 81.172 49.8488 80.83C49.5068 80.488 48.9431 80.317 48.1578 80.317C47.5878 80.317 47.1255 80.431 46.7708 80.659C46.4288 80.887 46.1881 81.1783 46.0488 81.533C45.9728 81.723 45.8398 81.818 45.6498 81.818H44.7948C44.6555 81.818 44.5478 81.78 44.4718 81.704C44.4085 81.6153 44.3768 81.514 44.3768 81.4C44.3768 81.21 44.4465 80.9757 44.5858 80.697C44.7378 80.4183 44.9658 80.146 45.2698 79.88C45.5738 79.614 45.9601 79.3923 46.4288 79.215C46.9101 79.025 47.4928 78.93 48.1768 78.93C48.9368 78.93 49.5765 79.0313 50.0958 79.234C50.6151 79.424 51.0205 79.6837 51.3118 80.013C51.6158 80.3423 51.8311 80.716 51.9578 81.134C52.0971 81.552 52.1668 81.9763 52.1668 82.407V88.563C52.1668 88.6897 52.1225 88.7973 52.0338 88.886C51.9578 88.962 51.8565 89 51.7298 89H50.8558C50.7165 89 50.6088 88.962 50.5328 88.886C50.4568 88.7973 50.4188 88.6897 50.4188 88.563V87.746C50.2541 87.974 50.0325 88.202 49.7538 88.43C49.4751 88.6453 49.1268 88.829 48.7088 88.981C48.2908 89.1203 47.7778 89.19 47.1698 89.19ZM47.5688 87.765C48.0881 87.765 48.5631 87.6573 48.9938 87.442C49.4245 87.214 49.7601 86.8657 50.0008 86.397C50.2541 85.9283 50.3808 85.3393 50.3808 84.63V84.098L48.1768 84.421C47.2775 84.5477 46.5998 84.763 46.1438 85.067C45.6878 85.3583 45.4598 85.732 45.4598 86.188C45.4598 86.5427 45.5611 86.8403 45.7638 87.081C45.9791 87.309 46.2451 87.48 46.5618 87.594C46.8911 87.708 47.2268 87.765 47.5688 87.765ZM60.0114 89C59.8847 89 59.7771 88.962 59.6884 88.886C59.6124 88.7973 59.5744 88.6897 59.5744 88.563V75.947C59.5744 75.8203 59.6124 75.719 59.6884 75.643C59.7771 75.5543 59.8847 75.51 60.0114 75.51H60.9614C61.1007 75.51 61.2084 75.5543 61.2844 75.643C61.3604 75.719 61.3984 75.8203 61.3984 75.947V80.374C61.7404 79.9433 62.1584 79.595 62.6524 79.329C63.1464 79.063 63.7734 78.93 64.5334 78.93C65.3567 78.93 66.0534 79.1137 66.6234 79.481C67.2061 79.8357 67.6431 80.336 67.9344 80.982C68.2384 81.6153 68.3904 82.3563 68.3904 83.205V88.563C68.3904 88.6897 68.3524 88.7973 68.2764 88.886C68.2004 88.962 68.0927 89 67.9534 89H67.0034C66.8767 89 66.7691 88.962 66.6804 88.886C66.6044 88.7973 66.5664 88.6897 66.5664 88.563V83.3C66.5664 82.4133 66.3511 81.723 65.9204 81.229C65.4897 80.7223 64.8564 80.469 64.0204 80.469C63.2351 80.469 62.6017 80.7223 62.1204 81.229C61.6391 81.723 61.3984 82.4133 61.3984 83.3V88.563C61.3984 88.6897 61.3604 88.7973 61.2844 88.886C61.2084 88.962 61.1007 89 60.9614 89H60.0114ZM71.5705 89C71.4439 89 71.3362 88.962 71.2475 88.886C71.1715 88.7973 71.1335 88.6897 71.1335 88.563V79.576C71.1335 79.4493 71.1715 79.3417 71.2475 79.253C71.3362 79.1643 71.4439 79.12 71.5705 79.12H72.4445C72.5712 79.12 72.6789 79.1643 72.7675 79.253C72.8562 79.3417 72.9005 79.4493 72.9005 79.576V80.412C73.1539 79.9813 73.5022 79.6583 73.9455 79.443C74.3889 79.2277 74.9209 79.12 75.5415 79.12H76.3015C76.4282 79.12 76.5295 79.1643 76.6055 79.253C76.6815 79.329 76.7195 79.4303 76.7195 79.557V80.336C76.7195 80.4627 76.6815 80.564 76.6055 80.64C76.5295 80.716 76.4282 80.754 76.3015 80.754H75.1615C74.4775 80.754 73.9392 80.9567 73.5465 81.362C73.1539 81.7547 72.9575 82.293 72.9575 82.977V88.563C72.9575 88.6897 72.9132 88.7973 72.8245 88.886C72.7359 88.962 72.6282 89 72.5015 89H71.5705ZM82.0988 89.19C80.7941 89.19 79.7554 88.791 78.9828 87.993C78.2101 87.1823 77.7858 86.0803 77.7098 84.687C77.6971 84.5223 77.6908 84.3133 77.6908 84.06C77.6908 83.794 77.6971 83.5787 77.7098 83.414C77.7604 82.5147 77.9694 81.7293 78.3368 81.058C78.7041 80.374 79.2044 79.8483 79.8378 79.481C80.4838 79.1137 81.2374 78.93 82.0988 78.93C83.0614 78.93 83.8658 79.1327 84.5118 79.538C85.1704 79.9433 85.6708 80.5197 86.0128 81.267C86.3548 82.0143 86.5258 82.8883 86.5258 83.889V84.212C86.5258 84.3513 86.4814 84.459 86.3928 84.535C86.3168 84.611 86.2154 84.649 86.0888 84.649H79.5148C79.5148 84.6617 79.5148 84.687 79.5148 84.725C79.5148 84.763 79.5148 84.7947 79.5148 84.82C79.5401 85.3393 79.6541 85.827 79.8568 86.283C80.0594 86.7263 80.3508 87.0873 80.7308 87.366C81.1108 87.6447 81.5668 87.784 82.0988 87.784C82.5548 87.784 82.9348 87.7143 83.2388 87.575C83.5428 87.4357 83.7898 87.2837 83.9798 87.119C84.1698 86.9417 84.2964 86.8087 84.3598 86.72C84.4738 86.5553 84.5624 86.4603 84.6258 86.435C84.6891 86.397 84.7904 86.378 84.9298 86.378H85.8418C85.9684 86.378 86.0698 86.416 86.1458 86.492C86.2344 86.5553 86.2724 86.6503 86.2598 86.777C86.2471 86.967 86.1458 87.2013 85.9558 87.48C85.7658 87.746 85.4934 88.012 85.1388 88.278C84.7841 88.544 84.3534 88.7657 83.8468 88.943C83.3401 89.1077 82.7574 89.19 82.0988 89.19ZM79.5148 83.338H84.7208V83.281C84.7208 82.711 84.6131 82.2043 84.3978 81.761C84.1951 81.3177 83.8974 80.9693 83.5048 80.716C83.1121 80.45 82.6434 80.317 82.0988 80.317C81.5541 80.317 81.0854 80.45 80.6928 80.716C80.3128 80.9693 80.0214 81.3177 79.8188 81.761C79.6161 82.2043 79.5148 82.711 79.5148 83.281V83.338ZM90.1298 89C90.0032 89 89.8955 88.962 89.8068 88.886C89.7308 88.7973 89.6928 88.6897 89.6928 88.563V80.64H88.0778C87.9512 80.64 87.8435 80.602 87.7548 80.526C87.6788 80.4373 87.6408 80.3297 87.6408 80.203V79.557C87.6408 79.4303 87.6788 79.329 87.7548 79.253C87.8435 79.1643 87.9512 79.12 88.0778 79.12H89.6928V78.17C89.6928 77.524 89.8005 76.9603 90.0158 76.479C90.2312 75.985 90.5732 75.605 91.0418 75.339C91.5232 75.073 92.1628 74.94 92.9608 74.94H94.1008C94.2275 74.94 94.3288 74.9843 94.4048 75.073C94.4808 75.149 94.5188 75.2503 94.5188 75.377V76.023C94.5188 76.1497 94.4808 76.2573 94.4048 76.346C94.3288 76.422 94.2275 76.46 94.1008 76.46H92.9988C92.4035 76.46 91.9982 76.6183 91.7828 76.935C91.5675 77.239 91.4598 77.6823 91.4598 78.265V79.12H93.9108C94.0375 79.12 94.1388 79.1643 94.2148 79.253C94.2908 79.329 94.3288 79.4303 94.3288 79.557V80.203C94.3288 80.3297 94.2908 80.4373 94.2148 80.526C94.1388 80.602 94.0375 80.64 93.9108 80.64H91.4598V88.563C91.4598 88.6897 91.4155 88.7973 91.3268 88.886C91.2508 88.962 91.1495 89 91.0228 89H90.1298ZM100.626 81.666C100.499 81.666 100.398 81.628 100.322 81.552C100.246 81.476 100.208 81.3747 100.208 81.248V80.602C100.208 80.4753 100.246 80.374 100.322 80.298C100.398 80.222 100.499 80.184 100.626 80.184H107.865C107.992 80.184 108.093 80.222 108.169 80.298C108.258 80.374 108.302 80.4753 108.302 80.602V81.248C108.302 81.3747 108.258 81.476 108.169 81.552C108.093 81.628 107.992 81.666 107.865 81.666H100.626ZM100.626 86.416C100.499 86.416 100.398 86.378 100.322 86.302C100.246 86.226 100.208 86.1247 100.208 85.998V85.352C100.208 85.2253 100.246 85.124 100.322 85.048C100.398 84.972 100.499 84.934 100.626 84.934H107.865C107.992 84.934 108.093 84.972 108.169 85.048C108.258 85.124 108.302 85.2253 108.302 85.352V85.998C108.302 86.1247 108.258 86.226 108.169 86.302C108.093 86.378 107.992 86.416 107.865 86.416H100.626ZM118.646 79.177C118.557 79.177 118.481 79.1453 118.418 79.082C118.367 79.0187 118.342 78.9427 118.342 78.854C118.342 78.7527 118.361 78.6513 118.399 78.55L119.406 75.947C119.469 75.8203 119.533 75.719 119.596 75.643C119.672 75.5543 119.792 75.51 119.957 75.51H120.584C120.685 75.51 120.761 75.548 120.812 75.624C120.875 75.7 120.894 75.8013 120.869 75.928L120.451 78.626C120.438 78.778 120.388 78.911 120.299 79.025C120.21 79.1263 120.077 79.177 119.9 79.177H118.646ZM115.606 79.177C115.517 79.177 115.441 79.1453 115.378 79.082C115.327 79.0187 115.302 78.9427 115.302 78.854C115.302 78.7527 115.321 78.6513 115.359 78.55L116.366 75.947C116.429 75.8203 116.499 75.719 116.575 75.643C116.651 75.5543 116.765 75.51 116.917 75.51H117.544C117.645 75.51 117.721 75.548 117.772 75.624C117.835 75.7 117.854 75.8013 117.829 75.928L117.411 78.626C117.398 78.778 117.348 78.911 117.259 79.025C117.17 79.1263 117.044 79.177 116.879 79.177H115.606ZM344.459 79.177C344.345 79.177 344.263 79.139 344.212 79.063C344.162 78.987 344.143 78.892 344.155 78.778L344.573 76.061C344.599 75.909 344.649 75.7823 344.725 75.681C344.814 75.567 344.947 75.51 345.124 75.51H346.378C346.48 75.51 346.556 75.548 346.606 75.624C346.67 75.6873 346.701 75.757 346.701 75.833C346.701 75.9343 346.676 76.0357 346.625 76.137L345.637 78.74C345.587 78.8667 345.517 78.9743 345.428 79.063C345.352 79.139 345.232 79.177 345.067 79.177H344.459ZM341.419 79.177C341.318 79.177 341.236 79.139 341.172 79.063C341.122 78.987 341.103 78.892 341.115 78.778L341.552 76.061C341.578 75.909 341.628 75.7823 341.704 75.681C341.793 75.567 341.92 75.51 342.084 75.51H343.357C343.446 75.51 343.516 75.548 343.566 75.624C343.63 75.6873 343.661 75.757 343.661 75.833C343.661 75.9343 343.636 76.0357 343.585 76.137L342.597 78.74C342.547 78.8667 342.477 78.9743 342.388 79.063C342.312 79.139 342.192 79.177 342.027 79.177H341.419ZM532.669 90.596C532.568 90.596 532.479 90.558 532.403 90.482C532.327 90.406 532.289 90.3173 532.289 90.216C532.289 90.1527 532.308 90.0767 532.346 89.988L538.844 74.408C538.882 74.332 538.933 74.256 538.996 74.18C539.072 74.104 539.186 74.066 539.338 74.066H540.079C540.18 74.066 540.269 74.104 540.345 74.18C540.421 74.256 540.459 74.3447 540.459 74.446C540.459 74.4967 540.446 74.5727 540.421 74.674L533.904 90.254C533.879 90.3173 533.822 90.387 533.733 90.463C533.657 90.5517 533.549 90.596 533.41 90.596H532.669ZM549.761 89.19C549.127 89.19 548.551 89.0633 548.032 88.81C547.512 88.5567 547.094 88.2147 546.778 87.784C546.461 87.3533 546.303 86.8657 546.303 86.321C546.303 85.447 546.657 84.7503 547.367 84.231C548.076 83.7117 549.001 83.3697 550.141 83.205L552.972 82.806V82.255C552.972 81.647 552.794 81.172 552.44 80.83C552.098 80.488 551.534 80.317 550.749 80.317C550.179 80.317 549.716 80.431 549.362 80.659C549.02 80.887 548.779 81.1783 548.64 81.533C548.564 81.723 548.431 81.818 548.241 81.818H547.386C547.246 81.818 547.139 81.78 547.063 81.704C546.999 81.6153 546.968 81.514 546.968 81.4C546.968 81.21 547.037 80.9757 547.177 80.697C547.329 80.4183 547.557 80.146 547.861 79.88C548.165 79.614 548.551 79.3923 549.02 79.215C549.501 79.025 550.084 78.93 550.768 78.93C551.528 78.93 552.167 79.0313 552.687 79.234C553.206 79.424 553.611 79.6837 553.903 80.013C554.207 80.3423 554.422 80.716 554.549 81.134C554.688 81.552 554.758 81.9763 554.758 82.407V88.563C554.758 88.6897 554.713 88.7973 554.625 88.886C554.549 88.962 554.447 89 554.321 89H553.447C553.307 89 553.2 88.962 553.124 88.886C553.048 88.7973 553.01 88.6897 553.01 88.563V87.746C552.845 87.974 552.623 88.202 552.345 88.43C552.066 88.6453 551.718 88.829 551.3 88.981C550.882 89.1203 550.369 89.19 549.761 89.19ZM550.16 87.765C550.679 87.765 551.154 87.6573 551.585 87.442C552.015 87.214 552.351 86.8657 552.592 86.397C552.845 85.9283 552.972 85.3393 552.972 84.63V84.098L550.768 84.421C549.868 84.5477 549.191 84.763 548.735 85.067C548.279 85.3583 548.051 85.732 548.051 86.188C548.051 86.5427 548.152 86.8403 548.355 87.081C548.57 87.309 548.836 87.48 549.153 87.594C549.482 87.708 549.818 87.765 550.16 87.765Z" fill="white" fill-opacity="0.75"/>
<path d="M123.691 89C123.564 89 123.457 88.962 123.368 88.886C123.292 88.7973 123.254 88.6897 123.254 88.563V75.947C123.254 75.8203 123.292 75.719 123.368 75.643C123.457 75.5543 123.564 75.51 123.691 75.51H124.641C124.78 75.51 124.888 75.5543 124.964 75.643C125.04 75.719 125.078 75.8203 125.078 75.947V80.374C125.42 79.9433 125.838 79.595 126.332 79.329C126.826 79.063 127.453 78.93 128.213 78.93C129.036 78.93 129.733 79.1137 130.303 79.481C130.886 79.8357 131.323 80.336 131.614 80.982C131.918 81.6153 132.07 82.3563 132.07 83.205V88.563C132.07 88.6897 132.032 88.7973 131.956 88.886C131.88 88.962 131.772 89 131.633 89H130.683C130.556 89 130.449 88.962 130.36 88.886C130.284 88.7973 130.246 88.6897 130.246 88.563V83.3C130.246 82.4133 130.031 81.723 129.6 81.229C129.169 80.7223 128.536 80.469 127.7 80.469C126.915 80.469 126.281 80.7223 125.8 81.229C125.319 81.723 125.078 82.4133 125.078 83.3V88.563C125.078 88.6897 125.04 88.7973 124.964 88.886C124.888 88.962 124.78 89 124.641 89H123.691ZM138.54 89C137.831 89 137.255 88.867 136.811 88.601C136.368 88.3223 136.045 87.936 135.842 87.442C135.64 86.9353 135.538 86.34 135.538 85.656V80.64H134.056C133.93 80.64 133.822 80.602 133.733 80.526C133.657 80.4373 133.619 80.3297 133.619 80.203V79.557C133.619 79.4303 133.657 79.329 133.733 79.253C133.822 79.1643 133.93 79.12 134.056 79.12H135.538V75.947C135.538 75.8203 135.576 75.719 135.652 75.643C135.741 75.5543 135.849 75.51 135.975 75.51H136.868C136.995 75.51 137.096 75.5543 137.172 75.643C137.261 75.719 137.305 75.8203 137.305 75.947V79.12H139.661C139.788 79.12 139.889 79.1643 139.965 79.253C140.054 79.329 140.098 79.4303 140.098 79.557V80.203C140.098 80.3297 140.054 80.4373 139.965 80.526C139.889 80.602 139.788 80.64 139.661 80.64H137.305V85.523C137.305 86.1183 137.407 86.587 137.609 86.929C137.812 87.271 138.173 87.442 138.692 87.442H139.851C139.978 87.442 140.079 87.4863 140.155 87.575C140.244 87.651 140.288 87.7523 140.288 87.879V88.563C140.288 88.6897 140.244 88.7973 140.155 88.886C140.079 88.962 139.978 89 139.851 89H138.54ZM145.962 89C145.253 89 144.677 88.867 144.233 88.601C143.79 88.3223 143.467 87.936 143.264 87.442C143.062 86.9353 142.96 86.34 142.96 85.656V80.64H141.478C141.352 80.64 141.244 80.602 141.155 80.526C141.079 80.4373 141.041 80.3297 141.041 80.203V79.557C141.041 79.4303 141.079 79.329 141.155 79.253C141.244 79.1643 141.352 79.12 141.478 79.12H142.96V75.947C142.96 75.8203 142.998 75.719 143.074 75.643C143.163 75.5543 143.271 75.51 143.397 75.51H144.29C144.417 75.51 144.518 75.5543 144.594 75.643C144.683 75.719 144.727 75.8203 144.727 75.947V79.12H147.083C147.21 79.12 147.311 79.1643 147.387 79.253C147.476 79.329 147.52 79.4303 147.52 79.557V80.203C147.52 80.3297 147.476 80.4373 147.387 80.526C147.311 80.602 147.21 80.64 147.083 80.64H144.727V85.523C144.727 86.1183 144.829 86.587 145.031 86.929C145.234 87.271 145.595 87.442 146.114 87.442H147.273C147.4 87.442 147.501 87.4863 147.577 87.575C147.666 87.651 147.71 87.7523 147.71 87.879V88.563C147.71 88.6897 147.666 88.7973 147.577 88.886C147.501 88.962 147.4 89 147.273 89H145.962ZM149.983 92.61C149.856 92.61 149.749 92.5657 149.66 92.477C149.584 92.401 149.546 92.2997 149.546 92.173V79.557C149.546 79.4303 149.584 79.329 149.66 79.253C149.749 79.1643 149.856 79.12 149.983 79.12H150.857C150.984 79.12 151.085 79.1643 151.161 79.253C151.25 79.329 151.294 79.4303 151.294 79.557V80.393C151.598 79.975 152.003 79.6267 152.51 79.348C153.017 79.0693 153.65 78.93 154.41 78.93C155.119 78.93 155.721 79.0503 156.215 79.291C156.722 79.5317 157.133 79.861 157.45 80.279C157.779 80.697 158.026 81.172 158.191 81.704C158.356 82.236 158.444 82.806 158.457 83.414C158.47 83.6167 158.476 83.832 158.476 84.06C158.476 84.288 158.47 84.5033 158.457 84.706C158.444 85.3013 158.356 85.8713 158.191 86.416C158.026 86.948 157.779 87.423 157.45 87.841C157.133 88.2463 156.722 88.5757 156.215 88.829C155.721 89.0697 155.119 89.19 154.41 89.19C153.675 89.19 153.055 89.057 152.548 88.791C152.054 88.5123 151.649 88.1703 151.332 87.765V92.173C151.332 92.2997 151.294 92.401 151.218 92.477C151.142 92.5657 151.034 92.61 150.895 92.61H149.983ZM154.011 87.651C154.67 87.651 155.183 87.5117 155.55 87.233C155.93 86.9417 156.202 86.568 156.367 86.112C156.532 85.6433 156.627 85.143 156.652 84.611C156.665 84.2437 156.665 83.8763 156.652 83.509C156.627 82.977 156.532 82.483 156.367 82.027C156.202 81.5583 155.93 81.1847 155.55 80.906C155.183 80.6147 154.67 80.469 154.011 80.469C153.39 80.469 152.884 80.6147 152.491 80.906C152.111 81.1973 151.826 81.571 151.636 82.027C151.459 82.4703 151.357 82.9263 151.332 83.395C151.319 83.5977 151.313 83.8383 151.313 84.117C151.313 84.3957 151.319 84.6427 151.332 84.858C151.345 85.3013 151.446 85.7383 151.636 86.169C151.839 86.5997 152.136 86.9543 152.529 87.233C152.922 87.5117 153.416 87.651 154.011 87.651ZM164.265 89.19C163.556 89.19 162.948 89.1013 162.441 88.924C161.935 88.7467 161.523 88.5313 161.206 88.278C160.89 88.0247 160.649 87.7713 160.484 87.518C160.332 87.2647 160.25 87.062 160.237 86.91C160.225 86.7707 160.269 86.663 160.37 86.587C160.472 86.511 160.573 86.473 160.674 86.473H161.51C161.586 86.473 161.643 86.4857 161.681 86.511C161.732 86.5237 161.795 86.5743 161.871 86.663C162.036 86.8403 162.22 87.0177 162.422 87.195C162.625 87.3723 162.872 87.518 163.163 87.632C163.467 87.746 163.841 87.803 164.284 87.803C164.93 87.803 165.462 87.6827 165.88 87.442C166.298 87.1887 166.507 86.8213 166.507 86.34C166.507 86.0233 166.419 85.77 166.241 85.58C166.077 85.39 165.773 85.219 165.329 85.067C164.899 84.915 164.303 84.7567 163.543 84.592C162.783 84.4147 162.182 84.1993 161.738 83.946C161.295 83.68 160.978 83.3697 160.788 83.015C160.598 82.6477 160.503 82.236 160.503 81.78C160.503 81.3113 160.643 80.8617 160.921 80.431C161.2 79.9877 161.605 79.6267 162.137 79.348C162.682 79.0693 163.36 78.93 164.17 78.93C164.829 78.93 165.393 79.0123 165.861 79.177C166.33 79.3417 166.716 79.5507 167.02 79.804C167.324 80.0447 167.552 80.2853 167.704 80.526C167.856 80.7667 167.939 80.9693 167.951 81.134C167.964 81.2607 167.926 81.3683 167.837 81.457C167.749 81.533 167.647 81.571 167.533 81.571H166.735C166.647 81.571 166.571 81.552 166.507 81.514C166.457 81.476 166.406 81.4317 166.355 81.381C166.229 81.2163 166.077 81.0517 165.899 80.887C165.735 80.7223 165.513 80.5893 165.234 80.488C164.968 80.374 164.614 80.317 164.17 80.317C163.537 80.317 163.062 80.45 162.745 80.716C162.429 80.982 162.27 81.3177 162.27 81.723C162.27 81.9637 162.34 82.179 162.479 82.369C162.619 82.559 162.885 82.73 163.277 82.882C163.67 83.034 164.253 83.1987 165.025 83.376C165.861 83.5407 166.52 83.7623 167.001 84.041C167.483 84.3197 167.825 84.6427 168.027 85.01C168.23 85.3773 168.331 85.8017 168.331 86.283C168.331 86.815 168.173 87.3027 167.856 87.746C167.552 88.1893 167.096 88.544 166.488 88.81C165.893 89.0633 165.152 89.19 164.265 89.19ZM170.873 82.35C170.746 82.35 170.639 82.312 170.55 82.236C170.474 82.1473 170.436 82.0397 170.436 81.913V80.583C170.436 80.4563 170.474 80.355 170.55 80.279C170.639 80.1903 170.746 80.146 170.873 80.146H172.222C172.361 80.146 172.469 80.1903 172.545 80.279C172.634 80.355 172.678 80.4563 172.678 80.583V81.913C172.678 82.0397 172.634 82.1473 172.545 82.236C172.469 82.312 172.361 82.35 172.222 82.35H170.873ZM170.873 89C170.746 89 170.639 88.962 170.55 88.886C170.474 88.7973 170.436 88.6897 170.436 88.563V87.233C170.436 87.1063 170.474 87.005 170.55 86.929C170.639 86.8403 170.746 86.796 170.873 86.796H172.222C172.361 86.796 172.469 86.8403 172.545 86.929C172.634 87.005 172.678 87.1063 172.678 87.233V88.563C172.678 88.6897 172.634 88.7973 172.545 88.886C172.469 88.962 172.361 89 172.222 89H170.873ZM174.86 90.596C174.759 90.596 174.67 90.558 174.594 90.482C174.518 90.406 174.48 90.3173 174.48 90.216C174.48 90.1527 174.499 90.0767 174.537 89.988L181.035 74.408C181.073 74.332 181.124 74.256 181.187 74.18C181.263 74.104 181.377 74.066 181.529 74.066H182.27C182.372 74.066 182.46 74.104 182.536 74.18C182.612 74.256 182.65 74.3447 182.65 74.446C182.65 74.4967 182.638 74.5727 182.612 74.674L176.095 90.254C176.07 90.3173 176.013 90.387 175.924 90.463C175.848 90.5517 175.741 90.596 175.601 90.596H174.86ZM180.111 90.596C180.01 90.596 179.921 90.558 179.845 90.482C179.769 90.406 179.731 90.3173 179.731 90.216C179.731 90.1527 179.75 90.0767 179.788 89.988L186.286 74.408C186.324 74.332 186.375 74.256 186.438 74.18C186.514 74.104 186.628 74.066 186.78 74.066H187.521C187.623 74.066 187.711 74.104 187.787 74.18C187.863 74.256 187.901 74.3447 187.901 74.446C187.901 74.4967 187.889 74.5727 187.863 74.674L181.346 90.254C181.321 90.3173 181.264 90.387 181.175 90.463C181.099 90.5517 180.992 90.596 180.852 90.596H180.111ZM191.893 89C191.729 89 191.602 88.962 191.513 88.886C191.425 88.7973 191.349 88.677 191.285 88.525L188.587 79.709C188.562 79.6457 188.549 79.5823 188.549 79.519C188.549 79.405 188.587 79.31 188.663 79.234C188.752 79.158 188.847 79.12 188.948 79.12H189.784C189.924 79.12 190.031 79.158 190.107 79.234C190.183 79.31 190.234 79.3797 190.259 79.443L192.368 86.606L194.629 79.519C194.655 79.4303 194.705 79.3417 194.781 79.253C194.87 79.1643 194.997 79.12 195.161 79.12H195.807C195.972 79.12 196.099 79.1643 196.187 79.253C196.276 79.3417 196.327 79.4303 196.339 79.519L198.6 86.606L200.709 79.443C200.722 79.3797 200.766 79.31 200.842 79.234C200.918 79.158 201.026 79.12 201.165 79.12H202.001C202.115 79.12 202.21 79.158 202.286 79.234C202.362 79.31 202.4 79.405 202.4 79.519C202.4 79.5823 202.388 79.6457 202.362 79.709L199.664 88.525C199.626 88.677 199.557 88.7973 199.455 88.886C199.367 88.962 199.234 89 199.056 89H198.315C198.151 89 198.011 88.962 197.897 88.886C197.796 88.7973 197.726 88.677 197.688 88.525L195.484 81.723L193.28 88.525C193.23 88.677 193.154 88.7973 193.052 88.886C192.951 88.962 192.812 89 192.634 89H191.893ZM207.127 89C206.962 89 206.835 88.962 206.747 88.886C206.658 88.7973 206.582 88.677 206.519 88.525L203.821 79.709C203.795 79.6457 203.783 79.5823 203.783 79.519C203.783 79.405 203.821 79.31 203.897 79.234C203.985 79.158 204.08 79.12 204.182 79.12H205.018C205.157 79.12 205.265 79.158 205.341 79.234C205.417 79.31 205.467 79.3797 205.493 79.443L207.602 86.606L209.863 79.519C209.888 79.4303 209.939 79.3417 210.015 79.253C210.103 79.1643 210.23 79.12 210.395 79.12H211.041C211.205 79.12 211.332 79.1643 211.421 79.253C211.509 79.3417 211.56 79.4303 211.573 79.519L213.834 86.606L215.943 79.443C215.955 79.3797 216 79.31 216.076 79.234C216.152 79.158 216.259 79.12 216.399 79.12H217.235C217.349 79.12 217.444 79.158 217.52 79.234C217.596 79.31 217.634 79.405 217.634 79.519C217.634 79.5823 217.621 79.6457 217.596 79.709L214.898 88.525C214.86 88.677 214.79 88.7973 214.689 88.886C214.6 88.962 214.467 89 214.29 89H213.549C213.384 89 213.245 88.962 213.131 88.886C213.029 88.7973 212.96 88.677 212.922 88.525L210.718 81.723L208.514 88.525C208.463 88.677 208.387 88.7973 208.286 88.886C208.184 88.962 208.045 89 207.868 89H207.127ZM222.36 89C222.195 89 222.069 88.962 221.98 88.886C221.891 88.7973 221.815 88.677 221.752 88.525L219.054 79.709C219.029 79.6457 219.016 79.5823 219.016 79.519C219.016 79.405 219.054 79.31 219.13 79.234C219.219 79.158 219.314 79.12 219.415 79.12H220.251C220.39 79.12 220.498 79.158 220.574 79.234C220.65 79.31 220.701 79.3797 220.726 79.443L222.835 86.606L225.096 79.519C225.121 79.4303 225.172 79.3417 225.248 79.253C225.337 79.1643 225.463 79.12 225.628 79.12H226.274C226.439 79.12 226.565 79.1643 226.654 79.253C226.743 79.3417 226.793 79.4303 226.806 79.519L229.067 86.606L231.176 79.443C231.189 79.3797 231.233 79.31 231.309 79.234C231.385 79.158 231.493 79.12 231.632 79.12H232.468C232.582 79.12 232.677 79.158 232.753 79.234C232.829 79.31 232.867 79.405 232.867 79.519C232.867 79.5823 232.854 79.6457 232.829 79.709L230.131 88.525C230.093 88.677 230.023 88.7973 229.922 88.886C229.833 88.962 229.7 89 229.523 89H228.782C228.617 89 228.478 88.962 228.364 88.886C228.263 88.7973 228.193 88.677 228.155 88.525L225.951 81.723L223.747 88.525C223.696 88.677 223.62 88.7973 223.519 88.886C223.418 88.962 223.278 89 223.101 89H222.36ZM234.515 89C234.388 89 234.28 88.962 234.192 88.886C234.116 88.7973 234.078 88.6897 234.078 88.563V87.195C234.078 87.0683 234.116 86.967 234.192 86.891C234.28 86.8023 234.388 86.758 234.515 86.758H235.883C236.009 86.758 236.111 86.8023 236.187 86.891C236.275 86.967 236.32 87.0683 236.32 87.195V88.563C236.32 88.6897 236.275 88.7973 236.187 88.886C236.111 88.962 236.009 89 235.883 89H234.515ZM242.859 93.18C241.998 93.18 241.289 93.066 240.731 92.838C240.187 92.61 239.756 92.3313 239.439 92.002C239.135 91.6853 238.914 91.3623 238.774 91.033C238.648 90.7163 238.578 90.463 238.565 90.273C238.553 90.1463 238.591 90.0387 238.679 89.95C238.781 89.8613 238.888 89.817 239.002 89.817H239.914C240.028 89.817 240.123 89.8423 240.199 89.893C240.275 89.9437 240.339 90.0513 240.389 90.216C240.465 90.406 240.579 90.615 240.731 90.843C240.883 91.0837 241.118 91.2863 241.434 91.451C241.751 91.6283 242.194 91.717 242.764 91.717C243.36 91.717 243.86 91.6347 244.265 91.47C244.671 91.318 244.975 91.0393 245.177 90.634C245.393 90.2413 245.5 89.6967 245.5 89V87.708C245.196 88.1007 244.797 88.43 244.303 88.696C243.809 88.9493 243.189 89.076 242.441 89.076C241.732 89.076 241.124 88.9557 240.617 88.715C240.111 88.4617 239.693 88.126 239.363 87.708C239.047 87.2773 238.806 86.7897 238.641 86.245C238.489 85.7003 238.401 85.1303 238.375 84.535C238.363 84.1803 238.363 83.832 238.375 83.49C238.401 82.8947 238.489 82.3247 238.641 81.78C238.806 81.2353 239.047 80.7477 239.363 80.317C239.693 79.8863 240.111 79.5507 240.617 79.31C241.124 79.0567 241.732 78.93 242.441 78.93C243.201 78.93 243.828 79.0757 244.322 79.367C244.829 79.6457 245.241 79.9877 245.557 80.393V79.576C245.557 79.4493 245.595 79.3417 245.671 79.253C245.76 79.1643 245.868 79.12 245.994 79.12H246.868C246.995 79.12 247.103 79.1643 247.191 79.253C247.28 79.3417 247.324 79.4493 247.324 79.576V88.791C247.324 89.6397 247.179 90.3933 246.887 91.052C246.609 91.7107 246.14 92.23 245.481 92.61C244.835 92.99 243.961 93.18 242.859 93.18ZM242.821 87.556C243.455 87.556 243.961 87.4103 244.341 87.119C244.734 86.8277 245.019 86.4603 245.196 86.017C245.386 85.5737 245.488 85.124 245.5 84.668C245.513 84.4907 245.519 84.2753 245.519 84.022C245.519 83.756 245.513 83.5343 245.5 83.357C245.488 82.901 245.386 82.4513 245.196 82.008C245.019 81.5647 244.734 81.1973 244.341 80.906C243.961 80.6147 243.455 80.469 242.821 80.469C242.188 80.469 241.681 80.6147 241.301 80.906C240.921 81.1847 240.649 81.5583 240.484 82.027C240.32 82.483 240.225 82.977 240.199 83.509C240.187 83.8383 240.187 84.174 240.199 84.516C240.225 85.048 240.32 85.5483 240.484 86.017C240.649 86.473 240.921 86.8467 241.301 87.138C241.681 87.4167 242.188 87.556 242.821 87.556ZM254.196 89.19C253.233 89.19 252.429 89.0063 251.783 88.639C251.137 88.2717 250.643 87.765 250.301 87.119C249.959 86.4603 249.769 85.713 249.731 84.877C249.718 84.6617 249.712 84.3893 249.712 84.06C249.712 83.718 249.718 83.4457 249.731 83.243C249.769 82.3943 249.959 81.647 250.301 81.001C250.656 80.355 251.156 79.8483 251.802 79.481C252.448 79.1137 253.246 78.93 254.196 78.93C255.146 78.93 255.944 79.1137 256.59 79.481C257.236 79.8483 257.73 80.355 258.072 81.001C258.427 81.647 258.623 82.3943 258.661 83.243C258.674 83.4457 258.68 83.718 258.68 84.06C258.68 84.3893 258.674 84.6617 258.661 84.877C258.623 85.713 258.433 86.4603 258.091 87.119C257.749 87.765 257.255 88.2717 256.609 88.639C255.963 89.0063 255.159 89.19 254.196 89.19ZM254.196 87.727C254.981 87.727 255.608 87.48 256.077 86.986C256.546 86.4793 256.799 85.7447 256.837 84.782C256.85 84.592 256.856 84.3513 256.856 84.06C256.856 83.7687 256.85 83.528 256.837 83.338C256.799 82.3753 256.546 81.647 256.077 81.153C255.608 80.6463 254.981 80.393 254.196 80.393C253.411 80.393 252.777 80.6463 252.296 81.153C251.827 81.647 251.58 82.3753 251.555 83.338C251.542 83.528 251.536 83.7687 251.536 84.06C251.536 84.3513 251.542 84.592 251.555 84.782C251.58 85.7447 251.827 86.4793 252.296 86.986C252.777 87.48 253.411 87.727 254.196 87.727ZM265.106 89.19C264.144 89.19 263.339 89.0063 262.693 88.639C262.047 88.2717 261.553 87.765 261.211 87.119C260.869 86.4603 260.679 85.713 260.641 84.877C260.629 84.6617 260.622 84.3893 260.622 84.06C260.622 83.718 260.629 83.4457 260.641 83.243C260.679 82.3943 260.869 81.647 261.211 81.001C261.566 80.355 262.066 79.8483 262.712 79.481C263.358 79.1137 264.156 78.93 265.106 78.93C266.056 78.93 266.854 79.1137 267.5 79.481C268.146 79.8483 268.64 80.355 268.982 81.001C269.337 81.647 269.533 82.3943 269.571 83.243C269.584 83.4457 269.59 83.718 269.59 84.06C269.59 84.3893 269.584 84.6617 269.571 84.877C269.533 85.713 269.343 86.4603 269.001 87.119C268.659 87.765 268.165 88.2717 267.519 88.639C266.873 89.0063 266.069 89.19 265.106 89.19ZM265.106 87.727C265.892 87.727 266.519 87.48 266.987 86.986C267.456 86.4793 267.709 85.7447 267.747 84.782C267.76 84.592 267.766 84.3513 267.766 84.06C267.766 83.7687 267.76 83.528 267.747 83.338C267.709 82.3753 267.456 81.647 266.987 81.153C266.519 80.6463 265.892 80.393 265.106 80.393C264.321 80.393 263.688 80.6463 263.206 81.153C262.738 81.647 262.491 82.3753 262.465 83.338C262.453 83.528 262.446 83.7687 262.446 84.06C262.446 84.3513 262.453 84.592 262.465 84.782C262.491 85.7447 262.738 86.4793 263.206 86.986C263.688 87.48 264.321 87.727 265.106 87.727ZM276.016 93.18C275.155 93.18 274.446 93.066 273.888 92.838C273.344 92.61 272.913 92.3313 272.596 92.002C272.292 91.6853 272.071 91.3623 271.931 91.033C271.805 90.7163 271.735 90.463 271.722 90.273C271.71 90.1463 271.748 90.0387 271.836 89.95C271.938 89.8613 272.045 89.817 272.159 89.817H273.071C273.185 89.817 273.28 89.8423 273.356 89.893C273.432 89.9437 273.496 90.0513 273.546 90.216C273.622 90.406 273.736 90.615 273.888 90.843C274.04 91.0837 274.275 91.2863 274.591 91.451C274.908 91.6283 275.351 91.717 275.921 91.717C276.517 91.717 277.017 91.6347 277.422 91.47C277.828 91.318 278.132 91.0393 278.334 90.634C278.55 90.2413 278.657 89.6967 278.657 89V87.708C278.353 88.1007 277.954 88.43 277.46 88.696C276.966 88.9493 276.346 89.076 275.598 89.076C274.889 89.076 274.281 88.9557 273.774 88.715C273.268 88.4617 272.85 88.126 272.52 87.708C272.204 87.2773 271.963 86.7897 271.798 86.245C271.646 85.7003 271.558 85.1303 271.532 84.535C271.52 84.1803 271.52 83.832 271.532 83.49C271.558 82.8947 271.646 82.3247 271.798 81.78C271.963 81.2353 272.204 80.7477 272.52 80.317C272.85 79.8863 273.268 79.5507 273.774 79.31C274.281 79.0567 274.889 78.93 275.598 78.93C276.358 78.93 276.985 79.0757 277.479 79.367C277.986 79.6457 278.398 79.9877 278.714 80.393V79.576C278.714 79.4493 278.752 79.3417 278.828 79.253C278.917 79.1643 279.025 79.12 279.151 79.12H280.025C280.152 79.12 280.26 79.1643 280.348 79.253C280.437 79.3417 280.481 79.4493 280.481 79.576V88.791C280.481 89.6397 280.336 90.3933 280.044 91.052C279.766 91.7107 279.297 92.23 278.638 92.61C277.992 92.99 277.118 93.18 276.016 93.18ZM275.978 87.556C276.612 87.556 277.118 87.4103 277.498 87.119C277.891 86.8277 278.176 86.4603 278.353 86.017C278.543 85.5737 278.645 85.124 278.657 84.668C278.67 84.4907 278.676 84.2753 278.676 84.022C278.676 83.756 278.67 83.5343 278.657 83.357C278.645 82.901 278.543 82.4513 278.353 82.008C278.176 81.5647 277.891 81.1973 277.498 80.906C277.118 80.6147 276.612 80.469 275.978 80.469C275.345 80.469 274.838 80.6147 274.458 80.906C274.078 81.1847 273.806 81.5583 273.641 82.027C273.477 82.483 273.382 82.977 273.356 83.509C273.344 83.8383 273.344 84.174 273.356 84.516C273.382 85.048 273.477 85.5483 273.641 86.017C273.806 86.473 274.078 86.8467 274.458 87.138C274.838 87.4167 275.345 87.556 275.978 87.556ZM283.762 89C283.636 89 283.528 88.962 283.439 88.886C283.363 88.7973 283.325 88.6897 283.325 88.563V75.947C283.325 75.8203 283.363 75.719 283.439 75.643C283.528 75.5543 283.636 75.51 283.762 75.51H284.655C284.795 75.51 284.902 75.5543 284.978 75.643C285.054 75.719 285.092 75.8203 285.092 75.947V88.563C285.092 88.6897 285.054 88.7973 284.978 88.886C284.902 88.962 284.795 89 284.655 89H283.762ZM291.86 89.19C290.555 89.19 289.516 88.791 288.744 87.993C287.971 87.1823 287.547 86.0803 287.471 84.687C287.458 84.5223 287.452 84.3133 287.452 84.06C287.452 83.794 287.458 83.5787 287.471 83.414C287.521 82.5147 287.73 81.7293 288.098 81.058C288.465 80.374 288.965 79.8483 289.599 79.481C290.245 79.1137 290.998 78.93 291.86 78.93C292.822 78.93 293.627 79.1327 294.273 79.538C294.931 79.9433 295.432 80.5197 295.774 81.267C296.116 82.0143 296.287 82.8883 296.287 83.889V84.212C296.287 84.3513 296.242 84.459 296.154 84.535C296.078 84.611 295.976 84.649 295.85 84.649H289.276C289.276 84.6617 289.276 84.687 289.276 84.725C289.276 84.763 289.276 84.7947 289.276 84.82C289.301 85.3393 289.415 85.827 289.618 86.283C289.82 86.7263 290.112 87.0873 290.492 87.366C290.872 87.6447 291.328 87.784 291.86 87.784C292.316 87.784 292.696 87.7143 293 87.575C293.304 87.4357 293.551 87.2837 293.741 87.119C293.931 86.9417 294.057 86.8087 294.121 86.72C294.235 86.5553 294.323 86.4603 294.387 86.435C294.45 86.397 294.551 86.378 294.691 86.378H295.603C295.729 86.378 295.831 86.416 295.907 86.492C295.995 86.5553 296.033 86.6503 296.021 86.777C296.008 86.967 295.907 87.2013 295.717 87.48C295.527 87.746 295.254 88.012 294.9 88.278C294.545 88.544 294.114 88.7657 293.608 88.943C293.101 89.1077 292.518 89.19 291.86 89.19ZM289.276 83.338H294.482V83.281C294.482 82.711 294.374 82.2043 294.159 81.761C293.956 81.3177 293.658 80.9693 293.266 80.716C292.873 80.45 292.404 80.317 291.86 80.317C291.315 80.317 290.846 80.45 290.454 80.716C290.074 80.9693 289.782 81.3177 289.58 81.761C289.377 82.2043 289.276 82.711 289.276 83.281V83.338ZM298.862 89C298.736 89 298.628 88.962 298.539 88.886C298.463 88.7973 298.425 88.6897 298.425 88.563V87.195C298.425 87.0683 298.463 86.967 298.539 86.891C298.628 86.8023 298.736 86.758 298.862 86.758H300.23C300.357 86.758 300.458 86.8023 300.534 86.891C300.623 86.967 300.667 87.0683 300.667 87.195V88.563C300.667 88.6897 300.623 88.7973 300.534 88.886C300.458 88.962 300.357 89 300.23 89H298.862ZM307.15 89.19C306.251 89.19 305.472 89.019 304.813 88.677C304.167 88.3223 303.667 87.822 303.312 87.176C302.957 86.5173 302.767 85.732 302.742 84.82C302.729 84.63 302.723 84.3767 302.723 84.06C302.723 83.7433 302.729 83.49 302.742 83.3C302.767 82.388 302.957 81.609 303.312 80.963C303.667 80.3043 304.167 79.804 304.813 79.462C305.472 79.1073 306.251 78.93 307.15 78.93C307.885 78.93 308.512 79.0313 309.031 79.234C309.563 79.4367 310 79.6963 310.342 80.013C310.684 80.3297 310.937 80.6717 311.102 81.039C311.279 81.4063 311.374 81.7547 311.387 82.084C311.4 82.2107 311.362 82.312 311.273 82.388C311.184 82.464 311.077 82.502 310.95 82.502H310.038C309.911 82.502 309.816 82.4767 309.753 82.426C309.69 82.3627 309.626 82.2613 309.563 82.122C309.335 81.5013 309.025 81.0643 308.632 80.811C308.239 80.5577 307.752 80.431 307.169 80.431C306.409 80.431 305.788 80.6653 305.307 81.134C304.838 81.6027 304.585 82.3563 304.547 83.395C304.534 83.851 304.534 84.2943 304.547 84.725C304.585 85.7763 304.838 86.5363 305.307 87.005C305.788 87.461 306.409 87.689 307.169 87.689C307.752 87.689 308.239 87.5623 308.632 87.309C309.025 87.0557 309.335 86.6187 309.563 85.998C309.626 85.8587 309.69 85.7637 309.753 85.713C309.816 85.6497 309.911 85.618 310.038 85.618H310.95C311.077 85.618 311.184 85.656 311.273 85.732C311.362 85.808 311.4 85.9093 311.387 86.036C311.374 86.302 311.317 86.5743 311.216 86.853C311.115 87.1317 310.95 87.4167 310.722 87.708C310.507 87.9867 310.234 88.24 309.905 88.468C309.576 88.6833 309.177 88.8607 308.708 89C308.252 89.1267 307.733 89.19 307.15 89.19ZM317.69 89.19C316.728 89.19 315.923 89.0063 315.277 88.639C314.631 88.2717 314.137 87.765 313.795 87.119C313.453 86.4603 313.263 85.713 313.225 84.877C313.213 84.6617 313.206 84.3893 313.206 84.06C313.206 83.718 313.213 83.4457 313.225 83.243C313.263 82.3943 313.453 81.647 313.795 81.001C314.15 80.355 314.65 79.8483 315.296 79.481C315.942 79.1137 316.74 78.93 317.69 78.93C318.64 78.93 319.438 79.1137 320.084 79.481C320.73 79.8483 321.224 80.355 321.566 81.001C321.921 81.647 322.117 82.3943 322.155 83.243C322.168 83.4457 322.174 83.718 322.174 84.06C322.174 84.3893 322.168 84.6617 322.155 84.877C322.117 85.713 321.927 86.4603 321.585 87.119C321.243 87.765 320.749 88.2717 320.103 88.639C319.457 89.0063 318.653 89.19 317.69 89.19ZM317.69 87.727C318.476 87.727 319.103 87.48 319.571 86.986C320.04 86.4793 320.293 85.7447 320.331 84.782C320.344 84.592 320.35 84.3513 320.35 84.06C320.35 83.7687 320.344 83.528 320.331 83.338C320.293 82.3753 320.04 81.647 319.571 81.153C319.103 80.6463 318.476 80.393 317.69 80.393C316.905 80.393 316.272 80.6463 315.79 81.153C315.322 81.647 315.075 82.3753 315.049 83.338C315.037 83.528 315.03 83.7687 315.03 84.06C315.03 84.3513 315.037 84.592 315.049 84.782C315.075 85.7447 315.322 86.4793 315.79 86.986C316.272 87.48 316.905 87.727 317.69 87.727ZM324.99 89C324.864 89 324.756 88.962 324.667 88.886C324.591 88.7973 324.553 88.6897 324.553 88.563V79.557C324.553 79.4303 324.591 79.329 324.667 79.253C324.756 79.1643 324.864 79.12 324.99 79.12H325.845C325.972 79.12 326.073 79.1643 326.149 79.253C326.238 79.329 326.282 79.4303 326.282 79.557V80.222C326.574 79.8293 326.941 79.519 327.384 79.291C327.828 79.0503 328.36 78.93 328.98 78.93C330.412 78.9173 331.425 79.5 332.02 80.678C332.312 80.146 332.736 79.7217 333.293 79.405C333.851 79.0883 334.484 78.93 335.193 78.93C335.852 78.93 336.447 79.082 336.979 79.386C337.524 79.69 337.948 80.1523 338.252 80.773C338.569 81.381 338.727 82.1473 338.727 83.072V88.563C338.727 88.6897 338.683 88.7973 338.594 88.886C338.518 88.962 338.417 89 338.29 89H337.397C337.271 89 337.163 88.962 337.074 88.886C336.998 88.7973 336.96 88.6897 336.96 88.563V83.243C336.96 82.5337 336.859 81.9763 336.656 81.571C336.454 81.1657 336.181 80.8807 335.839 80.716C335.497 80.5513 335.124 80.469 334.718 80.469C334.389 80.469 334.053 80.5513 333.711 80.716C333.369 80.8807 333.084 81.1657 332.856 81.571C332.641 81.9763 332.533 82.5337 332.533 83.243V88.563C332.533 88.6897 332.489 88.7973 332.4 88.886C332.324 88.962 332.223 89 332.096 89H331.203C331.077 89 330.969 88.962 330.88 88.886C330.804 88.7973 330.766 88.6897 330.766 88.563V83.243C330.766 82.5337 330.659 81.9763 330.443 81.571C330.228 81.1657 329.949 80.8807 329.607 80.716C329.265 80.5513 328.904 80.469 328.524 80.469C328.195 80.469 327.859 80.5513 327.517 80.716C327.175 80.8807 326.89 81.1657 326.662 81.571C326.447 81.9763 326.339 82.5273 326.339 83.224V88.563C326.339 88.6897 326.295 88.7973 326.206 88.886C326.13 88.962 326.029 89 325.902 89H324.99Z" fill="white" fill-opacity="0.85"/>
<path d="M371.043 89C370.916 89 370.809 88.962 370.72 88.886C370.644 88.7973 370.606 88.6897 370.606 88.563V77.391H366.958C366.831 77.391 366.724 77.353 366.635 77.277C366.559 77.1883 366.521 77.0807 366.521 76.954V76.156C366.521 76.0167 366.559 75.909 366.635 75.833C366.724 75.7443 366.831 75.7 366.958 75.7H376.116C376.255 75.7 376.363 75.7443 376.439 75.833C376.528 75.909 376.572 76.0167 376.572 76.156V76.954C376.572 77.0807 376.528 77.1883 376.439 77.277C376.363 77.353 376.255 77.391 376.116 77.391H372.487V88.563C372.487 88.6897 372.443 88.7973 372.354 88.886C372.278 88.962 372.17 89 372.031 89H371.043ZM378.521 89C378.395 89 378.287 88.962 378.198 88.886C378.122 88.7973 378.084 88.6897 378.084 88.563V75.947C378.084 75.8203 378.122 75.719 378.198 75.643C378.287 75.5543 378.395 75.51 378.521 75.51H379.471C379.611 75.51 379.718 75.5543 379.794 75.643C379.87 75.719 379.908 75.8203 379.908 75.947V80.374C380.25 79.9433 380.668 79.595 381.162 79.329C381.656 79.063 382.283 78.93 383.043 78.93C383.867 78.93 384.563 79.1137 385.133 79.481C385.716 79.8357 386.153 80.336 386.444 80.982C386.748 81.6153 386.9 82.3563 386.9 83.205V88.563C386.9 88.6897 386.862 88.7973 386.786 88.886C386.71 88.962 386.603 89 386.463 89H385.513C385.387 89 385.279 88.962 385.19 88.886C385.114 88.7973 385.076 88.6897 385.076 88.563V83.3C385.076 82.4133 384.861 81.723 384.43 81.229C384 80.7223 383.366 80.469 382.53 80.469C381.745 80.469 381.112 80.7223 380.63 81.229C380.149 81.723 379.908 82.4133 379.908 83.3V88.563C379.908 88.6897 379.87 88.7973 379.794 88.886C379.718 88.962 379.611 89 379.471 89H378.521ZM390.08 89C389.954 89 389.846 88.962 389.757 88.886C389.681 88.7973 389.643 88.6897 389.643 88.563V79.557C389.643 79.4303 389.681 79.329 389.757 79.253C389.846 79.1643 389.954 79.12 390.08 79.12H390.992C391.119 79.12 391.22 79.1643 391.296 79.253C391.372 79.329 391.41 79.4303 391.41 79.557V88.563C391.41 88.6897 391.372 88.7973 391.296 88.886C391.22 88.962 391.119 89 390.992 89H390.08ZM389.928 77.277C389.802 77.277 389.694 77.239 389.605 77.163C389.529 77.0743 389.491 76.9667 389.491 76.84V75.814C389.491 75.6873 389.529 75.586 389.605 75.51C389.694 75.4213 389.802 75.377 389.928 75.377H391.125C391.252 75.377 391.353 75.4213 391.429 75.51C391.518 75.586 391.562 75.6873 391.562 75.814V76.84C391.562 76.9667 391.518 77.0743 391.429 77.163C391.353 77.239 391.252 77.277 391.125 77.277H389.928ZM397.776 89.19C397.067 89.19 396.459 89.1013 395.952 88.924C395.446 88.7467 395.034 88.5313 394.717 88.278C394.401 88.0247 394.16 87.7713 393.995 87.518C393.843 87.2647 393.761 87.062 393.748 86.91C393.736 86.7707 393.78 86.663 393.881 86.587C393.983 86.511 394.084 86.473 394.185 86.473H395.021C395.097 86.473 395.154 86.4857 395.192 86.511C395.243 86.5237 395.306 86.5743 395.382 86.663C395.547 86.8403 395.731 87.0177 395.933 87.195C396.136 87.3723 396.383 87.518 396.674 87.632C396.978 87.746 397.352 87.803 397.795 87.803C398.441 87.803 398.973 87.6827 399.391 87.442C399.809 87.1887 400.018 86.8213 400.018 86.34C400.018 86.0233 399.93 85.77 399.752 85.58C399.588 85.39 399.284 85.219 398.84 85.067C398.41 84.915 397.814 84.7567 397.054 84.592C396.294 84.4147 395.693 84.1993 395.249 83.946C394.806 83.68 394.489 83.3697 394.299 83.015C394.109 82.6477 394.014 82.236 394.014 81.78C394.014 81.3113 394.154 80.8617 394.432 80.431C394.711 79.9877 395.116 79.6267 395.648 79.348C396.193 79.0693 396.871 78.93 397.681 78.93C398.34 78.93 398.904 79.0123 399.372 79.177C399.841 79.3417 400.227 79.5507 400.531 79.804C400.835 80.0447 401.063 80.2853 401.215 80.526C401.367 80.7667 401.45 80.9693 401.462 81.134C401.475 81.2607 401.437 81.3683 401.348 81.457C401.26 81.533 401.158 81.571 401.044 81.571H400.246C400.158 81.571 400.082 81.552 400.018 81.514C399.968 81.476 399.917 81.4317 399.866 81.381C399.74 81.2163 399.588 81.0517 399.41 80.887C399.246 80.7223 399.024 80.5893 398.745 80.488C398.479 80.374 398.125 80.317 397.681 80.317C397.048 80.317 396.573 80.45 396.256 80.716C395.94 80.982 395.781 81.3177 395.781 81.723C395.781 81.9637 395.851 82.179 395.99 82.369C396.13 82.559 396.396 82.73 396.788 82.882C397.181 83.034 397.764 83.1987 398.536 83.376C399.372 83.5407 400.031 83.7623 400.512 84.041C400.994 84.3197 401.336 84.6427 401.538 85.01C401.741 85.3773 401.842 85.8017 401.842 86.283C401.842 86.815 401.684 87.3027 401.367 87.746C401.063 88.1893 400.607 88.544 399.999 88.81C399.404 89.0633 398.663 89.19 397.776 89.19ZM409.136 89C409.009 89 408.902 88.962 408.813 88.886C408.737 88.7973 408.699 88.6897 408.699 88.563V79.557C408.699 79.4303 408.737 79.329 408.813 79.253C408.902 79.1643 409.009 79.12 409.136 79.12H410.048C410.175 79.12 410.276 79.1643 410.352 79.253C410.428 79.329 410.466 79.4303 410.466 79.557V88.563C410.466 88.6897 410.428 88.7973 410.352 88.886C410.276 88.962 410.175 89 410.048 89H409.136ZM408.984 77.277C408.857 77.277 408.75 77.239 408.661 77.163C408.585 77.0743 408.547 76.9667 408.547 76.84V75.814C408.547 75.6873 408.585 75.586 408.661 75.51C408.75 75.4213 408.857 75.377 408.984 75.377H410.181C410.308 75.377 410.409 75.4213 410.485 75.51C410.574 75.586 410.618 75.6873 410.618 75.814V76.84C410.618 76.9667 410.574 77.0743 410.485 77.163C410.409 77.239 410.308 77.277 410.181 77.277H408.984ZM416.832 89.19C416.123 89.19 415.515 89.1013 415.008 88.924C414.501 88.7467 414.09 88.5313 413.773 88.278C413.456 88.0247 413.216 87.7713 413.051 87.518C412.899 87.2647 412.817 87.062 412.804 86.91C412.791 86.7707 412.836 86.663 412.937 86.587C413.038 86.511 413.14 86.473 413.241 86.473H414.077C414.153 86.473 414.21 86.4857 414.248 86.511C414.299 86.5237 414.362 86.5743 414.438 86.663C414.603 86.8403 414.786 87.0177 414.989 87.195C415.192 87.3723 415.439 87.518 415.73 87.632C416.034 87.746 416.408 87.803 416.851 87.803C417.497 87.803 418.029 87.6827 418.447 87.442C418.865 87.1887 419.074 86.8213 419.074 86.34C419.074 86.0233 418.985 85.77 418.808 85.58C418.643 85.39 418.339 85.219 417.896 85.067C417.465 84.915 416.87 84.7567 416.11 84.592C415.35 84.4147 414.748 84.1993 414.305 83.946C413.862 83.68 413.545 83.3697 413.355 83.015C413.165 82.6477 413.07 82.236 413.07 81.78C413.07 81.3113 413.209 80.8617 413.488 80.431C413.767 79.9877 414.172 79.6267 414.704 79.348C415.249 79.0693 415.926 78.93 416.737 78.93C417.396 78.93 417.959 79.0123 418.428 79.177C418.897 79.3417 419.283 79.5507 419.587 79.804C419.891 80.0447 420.119 80.2853 420.271 80.526C420.423 80.7667 420.505 80.9693 420.518 81.134C420.531 81.2607 420.493 81.3683 420.404 81.457C420.315 81.533 420.214 81.571 420.1 81.571H419.302C419.213 81.571 419.137 81.552 419.074 81.514C419.023 81.476 418.973 81.4317 418.922 81.381C418.795 81.2163 418.643 81.0517 418.466 80.887C418.301 80.7223 418.08 80.5893 417.801 80.488C417.535 80.374 417.18 80.317 416.737 80.317C416.104 80.317 415.629 80.45 415.312 80.716C414.995 80.982 414.837 81.3177 414.837 81.723C414.837 81.9637 414.907 82.179 415.046 82.369C415.185 82.559 415.451 82.73 415.844 82.882C416.237 83.034 416.819 83.1987 417.592 83.376C418.428 83.5407 419.087 83.7623 419.568 84.041C420.049 84.3197 420.391 84.6427 420.594 85.01C420.797 85.3773 420.898 85.8017 420.898 86.283C420.898 86.815 420.74 87.3027 420.423 87.746C420.119 88.1893 419.663 88.544 419.055 88.81C418.46 89.0633 417.719 89.19 416.832 89.19ZM430.51 89.19C429.876 89.19 429.3 89.0633 428.781 88.81C428.261 88.5567 427.843 88.2147 427.527 87.784C427.21 87.3533 427.052 86.8657 427.052 86.321C427.052 85.447 427.406 84.7503 428.116 84.231C428.825 83.7117 429.75 83.3697 430.89 83.205L433.721 82.806V82.255C433.721 81.647 433.543 81.172 433.189 80.83C432.847 80.488 432.283 80.317 431.498 80.317C430.928 80.317 430.465 80.431 430.111 80.659C429.769 80.887 429.528 81.1783 429.389 81.533C429.313 81.723 429.18 81.818 428.99 81.818H428.135C427.995 81.818 427.888 81.78 427.812 81.704C427.748 81.6153 427.717 81.514 427.717 81.4C427.717 81.21 427.786 80.9757 427.926 80.697C428.078 80.4183 428.306 80.146 428.61 79.88C428.914 79.614 429.3 79.3923 429.769 79.215C430.25 79.025 430.833 78.93 431.517 78.93C432.277 78.93 432.916 79.0313 433.436 79.234C433.955 79.424 434.36 79.6837 434.652 80.013C434.956 80.3423 435.171 80.716 435.298 81.134C435.437 81.552 435.507 81.9763 435.507 82.407V88.563C435.507 88.6897 435.462 88.7973 435.374 88.886C435.298 88.962 435.196 89 435.07 89H434.196C434.056 89 433.949 88.962 433.873 88.886C433.797 88.7973 433.759 88.6897 433.759 88.563V87.746C433.594 87.974 433.372 88.202 433.094 88.43C432.815 88.6453 432.467 88.829 432.049 88.981C431.631 89.1203 431.118 89.19 430.51 89.19ZM430.909 87.765C431.428 87.765 431.903 87.6573 432.334 87.442C432.764 87.214 433.1 86.8657 433.341 86.397C433.594 85.9283 433.721 85.3393 433.721 84.63V84.098L431.517 84.421C430.617 84.5477 429.94 84.763 429.484 85.067C429.028 85.3583 428.8 85.732 428.8 86.188C428.8 86.5427 428.901 86.8403 429.104 87.081C429.319 87.309 429.585 87.48 429.902 87.594C430.231 87.708 430.567 87.765 430.909 87.765ZM443.351 89C443.225 89 443.117 88.962 443.028 88.886C442.952 88.7973 442.914 88.6897 442.914 88.563V75.947C442.914 75.8203 442.952 75.719 443.028 75.643C443.117 75.5543 443.225 75.51 443.351 75.51H444.301C444.441 75.51 444.548 75.5543 444.624 75.643C444.7 75.719 444.738 75.8203 444.738 75.947V80.374C445.08 79.9433 445.498 79.595 445.992 79.329C446.486 79.063 447.113 78.93 447.873 78.93C448.697 78.93 449.393 79.1137 449.963 79.481C450.546 79.8357 450.983 80.336 451.274 80.982C451.578 81.6153 451.73 82.3563 451.73 83.205V88.563C451.73 88.6897 451.692 88.7973 451.616 88.886C451.54 88.962 451.433 89 451.293 89H450.343C450.217 89 450.109 88.962 450.02 88.886C449.944 88.7973 449.906 88.6897 449.906 88.563V83.3C449.906 82.4133 449.691 81.723 449.26 81.229C448.83 80.7223 448.196 80.469 447.36 80.469C446.575 80.469 445.942 80.7223 445.46 81.229C444.979 81.723 444.738 82.4133 444.738 83.3V88.563C444.738 88.6897 444.7 88.7973 444.624 88.886C444.548 88.962 444.441 89 444.301 89H443.351ZM458.406 89.19C457.102 89.19 456.063 88.791 455.29 87.993C454.518 87.1823 454.093 86.0803 454.017 84.687C454.005 84.5223 453.998 84.3133 453.998 84.06C453.998 83.794 454.005 83.5787 454.017 83.414C454.068 82.5147 454.277 81.7293 454.644 81.058C455.012 80.374 455.512 79.8483 456.145 79.481C456.791 79.1137 457.545 78.93 458.406 78.93C459.369 78.93 460.173 79.1327 460.819 79.538C461.478 79.9433 461.978 80.5197 462.32 81.267C462.662 82.0143 462.833 82.8883 462.833 83.889V84.212C462.833 84.3513 462.789 84.459 462.7 84.535C462.624 84.611 462.523 84.649 462.396 84.649H455.822C455.822 84.6617 455.822 84.687 455.822 84.725C455.822 84.763 455.822 84.7947 455.822 84.82C455.848 85.3393 455.962 85.827 456.164 86.283C456.367 86.7263 456.658 87.0873 457.038 87.366C457.418 87.6447 457.874 87.784 458.406 87.784C458.862 87.784 459.242 87.7143 459.546 87.575C459.85 87.4357 460.097 87.2837 460.287 87.119C460.477 86.9417 460.604 86.8087 460.667 86.72C460.781 86.5553 460.87 86.4603 460.933 86.435C460.997 86.397 461.098 86.378 461.237 86.378H462.149C462.276 86.378 462.377 86.416 462.453 86.492C462.542 86.5553 462.58 86.6503 462.567 86.777C462.555 86.967 462.453 87.2013 462.263 87.48C462.073 87.746 461.801 88.012 461.446 88.278C461.092 88.544 460.661 88.7657 460.154 88.943C459.648 89.1077 459.065 89.19 458.406 89.19ZM455.822 83.338H461.028V83.281C461.028 82.711 460.921 82.2043 460.705 81.761C460.503 81.3177 460.205 80.9693 459.812 80.716C459.42 80.45 458.951 80.317 458.406 80.317C457.862 80.317 457.393 80.45 457 80.716C456.62 80.9693 456.329 81.3177 456.126 81.761C455.924 82.2043 455.822 82.711 455.822 83.281V83.338ZM467.86 89.19C467.227 89.19 466.651 89.0633 466.131 88.81C465.612 88.5567 465.194 88.2147 464.877 87.784C464.561 87.3533 464.402 86.8657 464.402 86.321C464.402 85.447 464.757 84.7503 465.466 84.231C466.176 83.7117 467.1 83.3697 468.24 83.205L471.071 82.806V82.255C471.071 81.647 470.894 81.172 470.539 80.83C470.197 80.488 469.634 80.317 468.848 80.317C468.278 80.317 467.816 80.431 467.461 80.659C467.119 80.887 466.879 81.1783 466.739 81.533C466.663 81.723 466.53 81.818 466.34 81.818H465.485C465.346 81.818 465.238 81.78 465.162 81.704C465.099 81.6153 465.067 81.514 465.067 81.4C465.067 81.21 465.137 80.9757 465.276 80.697C465.428 80.4183 465.656 80.146 465.96 79.88C466.264 79.614 466.651 79.3923 467.119 79.215C467.601 79.025 468.183 78.93 468.867 78.93C469.627 78.93 470.267 79.0313 470.786 79.234C471.306 79.424 471.711 79.6837 472.002 80.013C472.306 80.3423 472.522 80.716 472.648 81.134C472.788 81.552 472.857 81.9763 472.857 82.407V88.563C472.857 88.6897 472.813 88.7973 472.724 88.886C472.648 88.962 472.547 89 472.42 89H471.546C471.407 89 471.299 88.962 471.223 88.886C471.147 88.7973 471.109 88.6897 471.109 88.563V87.746C470.945 87.974 470.723 88.202 470.444 88.43C470.166 88.6453 469.817 88.829 469.399 88.981C468.981 89.1203 468.468 89.19 467.86 89.19ZM468.259 87.765C468.779 87.765 469.254 87.6573 469.684 87.442C470.115 87.214 470.451 86.8657 470.691 86.397C470.945 85.9283 471.071 85.3393 471.071 84.63V84.098L468.867 84.421C467.968 84.5477 467.29 84.763 466.834 85.067C466.378 85.3583 466.15 85.732 466.15 86.188C466.15 86.5427 466.252 86.8403 466.454 87.081C466.67 87.309 466.936 87.48 467.252 87.594C467.582 87.708 467.917 87.765 468.259 87.765ZM479.199 89.19C478.502 89.19 477.9 89.0697 477.394 88.829C476.887 88.5757 476.469 88.24 476.14 87.822C475.823 87.3913 475.582 86.9037 475.418 86.359C475.266 85.8143 475.177 85.238 475.152 84.63C475.139 84.4273 475.133 84.2373 475.133 84.06C475.133 83.8827 475.139 83.6927 475.152 83.49C475.177 82.8947 475.266 82.3247 475.418 81.78C475.582 81.2353 475.823 80.7477 476.14 80.317C476.469 79.8863 476.887 79.5507 477.394 79.31C477.9 79.0567 478.502 78.93 479.199 78.93C479.946 78.93 480.567 79.063 481.061 79.329C481.555 79.595 481.96 79.9243 482.277 80.317V75.947C482.277 75.8203 482.315 75.719 482.391 75.643C482.479 75.5543 482.587 75.51 482.714 75.51H483.626C483.752 75.51 483.854 75.5543 483.93 75.643C484.018 75.719 484.063 75.8203 484.063 75.947V88.563C484.063 88.6897 484.018 88.7973 483.93 88.886C483.854 88.962 483.752 89 483.626 89H482.771C482.631 89 482.524 88.962 482.448 88.886C482.372 88.7973 482.334 88.6897 482.334 88.563V87.765C482.017 88.1703 481.605 88.5123 481.099 88.791C480.592 89.057 479.959 89.19 479.199 89.19ZM479.598 87.651C480.231 87.651 480.738 87.5053 481.118 87.214C481.498 86.9227 481.783 86.5553 481.973 86.112C482.163 85.656 482.264 85.1937 482.277 84.725C482.289 84.5223 482.296 84.2817 482.296 84.003C482.296 83.7117 482.289 83.4647 482.277 83.262C482.264 82.8187 482.156 82.3817 481.954 81.951C481.764 81.5203 481.472 81.1657 481.08 80.887C480.7 80.6083 480.206 80.469 479.598 80.469C478.952 80.469 478.439 80.6147 478.059 80.906C477.679 81.1847 477.406 81.5583 477.242 82.027C477.077 82.483 476.982 82.977 476.957 83.509C476.944 83.8763 476.944 84.2437 476.957 84.611C476.982 85.143 477.077 85.6433 477.242 86.112C477.406 86.568 477.679 86.9417 478.059 87.233C478.439 87.5117 478.952 87.651 479.598 87.651ZM487.325 89C487.199 89 487.091 88.962 487.002 88.886C486.926 88.7973 486.888 88.6897 486.888 88.563V79.557C486.888 79.4303 486.926 79.329 487.002 79.253C487.091 79.1643 487.199 79.12 487.325 79.12H488.237C488.364 79.12 488.465 79.1643 488.541 79.253C488.617 79.329 488.655 79.4303 488.655 79.557V88.563C488.655 88.6897 488.617 88.7973 488.541 88.886C488.465 88.962 488.364 89 488.237 89H487.325ZM487.173 77.277C487.047 77.277 486.939 77.239 486.85 77.163C486.774 77.0743 486.736 76.9667 486.736 76.84V75.814C486.736 75.6873 486.774 75.586 486.85 75.51C486.939 75.4213 487.047 75.377 487.173 75.377H488.37C488.497 75.377 488.598 75.4213 488.674 75.51C488.763 75.586 488.807 75.6873 488.807 75.814V76.84C488.807 76.9667 488.763 77.0743 488.674 77.163C488.598 77.239 488.497 77.277 488.37 77.277H487.173ZM492.113 89C491.986 89 491.878 88.962 491.79 88.886C491.714 88.7973 491.676 88.6897 491.676 88.563V79.557C491.676 79.4303 491.714 79.329 491.79 79.253C491.878 79.1643 491.986 79.12 492.113 79.12H493.006C493.132 79.12 493.234 79.1643 493.31 79.253C493.398 79.329 493.443 79.4303 493.443 79.557V80.393C493.772 79.9623 494.184 79.614 494.678 79.348C495.184 79.0693 495.83 78.93 496.616 78.93C497.439 78.93 498.136 79.1137 498.706 79.481C499.288 79.8357 499.725 80.336 500.017 80.982C500.308 81.6153 500.454 82.3563 500.454 83.205V88.563C500.454 88.6897 500.416 88.7973 500.34 88.886C500.264 88.962 500.162 89 500.036 89H499.086C498.959 89 498.851 88.962 498.763 88.886C498.687 88.7973 498.649 88.6897 498.649 88.563V83.3C498.649 82.4133 498.433 81.723 498.003 81.229C497.572 80.7223 496.939 80.469 496.103 80.469C495.317 80.469 494.684 80.7223 494.203 81.229C493.734 81.723 493.5 82.4133 493.5 83.3V88.563C493.5 88.6897 493.455 88.7973 493.367 88.886C493.291 88.962 493.189 89 493.063 89H492.113ZM507.245 93.18C506.384 93.18 505.674 93.066 505.117 92.838C504.572 92.61 504.142 92.3313 503.825 92.002C503.521 91.6853 503.299 91.3623 503.16 91.033C503.033 90.7163 502.964 90.463 502.951 90.273C502.938 90.1463 502.976 90.0387 503.065 89.95C503.166 89.8613 503.274 89.817 503.388 89.817H504.3C504.414 89.817 504.509 89.8423 504.585 89.893C504.661 89.9437 504.724 90.0513 504.775 90.216C504.851 90.406 504.965 90.615 505.117 90.843C505.269 91.0837 505.503 91.2863 505.82 91.451C506.137 91.6283 506.58 91.717 507.15 91.717C507.745 91.717 508.246 91.6347 508.651 91.47C509.056 91.318 509.36 91.0393 509.563 90.634C509.778 90.2413 509.886 89.6967 509.886 89V87.708C509.582 88.1007 509.183 88.43 508.689 88.696C508.195 88.9493 507.574 89.076 506.827 89.076C506.118 89.076 505.51 88.9557 505.003 88.715C504.496 88.4617 504.078 88.126 503.749 87.708C503.432 87.2773 503.192 86.7897 503.027 86.245C502.875 85.7003 502.786 85.1303 502.761 84.535C502.748 84.1803 502.748 83.832 502.761 83.49C502.786 82.8947 502.875 82.3247 503.027 81.78C503.192 81.2353 503.432 80.7477 503.749 80.317C504.078 79.8863 504.496 79.5507 505.003 79.31C505.51 79.0567 506.118 78.93 506.827 78.93C507.587 78.93 508.214 79.0757 508.708 79.367C509.215 79.6457 509.626 79.9877 509.943 80.393V79.576C509.943 79.4493 509.981 79.3417 510.057 79.253C510.146 79.1643 510.253 79.12 510.38 79.12H511.254C511.381 79.12 511.488 79.1643 511.577 79.253C511.666 79.3417 511.71 79.4493 511.71 79.576V88.791C511.71 89.6397 511.564 90.3933 511.273 91.052C510.994 91.7107 510.526 92.23 509.867 92.61C509.221 92.99 508.347 93.18 507.245 93.18ZM507.207 87.556C507.84 87.556 508.347 87.4103 508.727 87.119C509.12 86.8277 509.405 86.4603 509.582 86.017C509.772 85.5737 509.873 85.124 509.886 84.668C509.899 84.4907 509.905 84.2753 509.905 84.022C509.905 83.756 509.899 83.5343 509.886 83.357C509.873 82.901 509.772 82.4513 509.582 82.008C509.405 81.5647 509.12 81.1973 508.727 80.906C508.347 80.6147 507.84 80.469 507.207 80.469C506.574 80.469 506.067 80.6147 505.687 80.906C505.307 81.1847 505.035 81.5583 504.87 82.027C504.705 82.483 504.61 82.977 504.585 83.509C504.572 83.8383 504.572 84.174 504.585 84.516C504.61 85.048 504.705 85.5483 504.87 86.017C505.035 86.473 505.307 86.8467 505.687 87.138C506.067 87.4167 506.574 87.556 507.207 87.556Z" fill="white"/>
<g filter="url(#filter0_d_169_12)">
<path d="M4 12C4 5.37258 9.37258 0 16 0H578C584.627 0 590 5.37258 590 12V43H4V12Z" fill="#242526"/>
</g>
<ellipse cx="29.1279" cy="21.9141" rx="5.84369" ry="6.72025" fill="#E65100"/>
<ellipse cx="48.4121" cy="21.9141" rx="5.84369" ry="6.72025" fill="#FFD600"/>
<ellipse cx="67.6962" cy="21.9141" rx="5.84369" ry="6.72025" fill="#4EC433"/>
<defs>
<filter id="filter0_d_169_12" x="0" y="0" width="594" height="51" filterUnits="userSpaceOnUse" color-interpolation-filters="sRGB">
<feFlood flood-opacity="0" result="BackgroundImageFix"/>
<feColorMatrix in="SourceAlpha" type="matrix" values="0 0 0 0 0 0 0 0 0 0 0 0 0 0 0 0 0 0 127 0" result="hardAlpha"/>
<feOffset dy="4"/>
<feGaussianBlur stdDeviation="2"/>
<feComposite in2="hardAlpha" operator="out"/>
<feColorMatrix type="matrix" values="0 0 0 0 0 0 0 0 0 0 0 0 0 0 0 0 0 0 0.25 0"/>
<feBlend mode="normal" in2="BackgroundImageFix" result="effect1_dropShadow_169_12"/>
<feBlend mode="normal" in="SourceGraphic" in2="effect1_dropShadow_169_12" result="shape"/>
</filter>
</defs>
</svg>
