<svg width="594" height="144" viewBox="0 0 594 144" fill="none" xmlns="http://www.w3.org/2000/svg">
<rect x="4" width="586" height="144" rx="12" fill="#242526"/>
<path d="M30.676 85.525C30.6 85.525 30.5177 85.4997 30.429 85.449C30.353 85.3983 30.2833 85.3603 30.22 85.335L24.235 81.212C24.045 81.0853 23.9057 80.9587 23.817 80.832C23.7283 80.6927 23.684 80.5343 23.684 80.357V80.015C23.684 79.8377 23.7283 79.6857 23.817 79.559C23.9057 79.4323 24.045 79.2993 24.235 79.16L30.22 75.056C30.2833 75.018 30.353 74.9737 30.429 74.923C30.5177 74.8723 30.6 74.847 30.676 74.847C30.7773 74.847 30.866 74.885 30.942 74.961C31.018 75.0243 31.056 75.1193 31.056 75.246V76.082C31.056 76.2213 31.018 76.3417 30.942 76.443C30.866 76.5317 30.7583 76.6203 30.619 76.709L25.527 80.186L30.619 83.663C30.7583 83.7643 30.866 83.8593 30.942 83.948C31.018 84.0367 31.056 84.157 31.056 84.309V85.145C31.056 85.259 31.018 85.354 30.942 85.43C30.866 85.4933 30.7773 85.525 30.676 85.525ZM279.075 85.506C278.974 85.506 278.885 85.4743 278.809 85.411C278.733 85.3477 278.695 85.2527 278.695 85.126V84.29C278.695 84.138 278.727 84.0177 278.79 83.929C278.866 83.8403 278.98 83.7517 279.132 83.663L284.205 80.186L279.132 76.709C278.98 76.6077 278.866 76.5127 278.79 76.424C278.727 76.3353 278.695 76.215 278.695 76.063V75.227C278.695 75.1003 278.733 75.0053 278.809 74.942C278.885 74.8787 278.974 74.847 279.075 74.847C279.151 74.847 279.234 74.8723 279.322 74.923C279.411 74.961 279.481 74.999 279.531 75.037L285.497 79.141C285.7 79.2803 285.839 79.4133 285.915 79.54C286.004 79.6667 286.048 79.825 286.048 80.015V80.338C286.048 80.5153 286.004 80.6737 285.915 80.813C285.839 80.9397 285.7 81.0727 285.497 81.212L279.531 85.316C279.481 85.354 279.411 85.3983 279.322 85.449C279.234 85.487 279.151 85.506 279.075 85.506ZM481.369 85.525C481.293 85.525 481.211 85.4997 481.122 85.449C481.046 85.3983 480.977 85.3603 480.913 85.335L474.928 81.212C474.738 81.0853 474.599 80.9587 474.51 80.832C474.422 80.6927 474.377 80.5343 474.377 80.357V80.015C474.377 79.8377 474.422 79.6857 474.51 79.559C474.599 79.4323 474.738 79.2993 474.928 79.16L480.913 75.056C480.977 75.018 481.046 74.9737 481.122 74.923C481.211 74.8723 481.293 74.847 481.369 74.847C481.471 74.847 481.559 74.885 481.635 74.961C481.711 75.0243 481.749 75.1193 481.749 75.246V76.082C481.749 76.2213 481.711 76.3417 481.635 76.443C481.559 76.5317 481.452 76.6203 481.312 76.709L476.22 80.186L481.312 83.663C481.452 83.7643 481.559 83.8593 481.635 83.948C481.711 84.0367 481.749 84.157 481.749 84.309V85.145C481.749 85.259 481.711 85.354 481.635 85.43C481.559 85.4933 481.471 85.525 481.369 85.525ZM537.839 85.506C537.738 85.506 537.649 85.4743 537.573 85.411C537.497 85.3477 537.459 85.2527 537.459 85.126V84.29C537.459 84.138 537.491 84.0177 537.554 83.929C537.63 83.8403 537.744 83.7517 537.896 83.663L542.969 80.186L537.896 76.709C537.744 76.6077 537.63 76.5127 537.554 76.424C537.491 76.3353 537.459 76.215 537.459 76.063V75.227C537.459 75.1003 537.497 75.0053 537.573 74.942C537.649 74.8787 537.738 74.847 537.839 74.847C537.915 74.847 537.997 74.8723 538.086 74.923C538.175 74.961 538.244 74.999 538.295 75.037L544.261 79.141C544.464 79.2803 544.603 79.4133 544.679 79.54C544.768 79.6667 544.812 79.825 544.812 80.015V80.338C544.812 80.5153 544.768 80.6737 544.679 80.813C544.603 80.9397 544.464 81.0727 544.261 81.212L538.295 85.316C538.244 85.354 538.175 85.3983 538.086 85.449C537.997 85.487 537.915 85.506 537.839 85.506Z" fill="#647DFF"/>
<path d="M43.2978 86.19C42.5378 86.19 41.9045 86.057 41.3978 85.791C40.8911 85.5123 40.4858 85.1703 40.1818 84.765V85.563C40.1818 85.6897 40.1375 85.7973 40.0488 85.886C39.9728 85.962 39.8715 86 39.7448 86H38.8708C38.7441 86 38.6365 85.962 38.5478 85.886C38.4718 85.7973 38.4338 85.6897 38.4338 85.563V72.947C38.4338 72.8203 38.4718 72.719 38.5478 72.643C38.6365 72.5543 38.7441 72.51 38.8708 72.51H39.7828C39.9221 72.51 40.0298 72.5543 40.1058 72.643C40.1818 72.719 40.2198 72.8203 40.2198 72.947V77.317C40.5365 76.9243 40.9418 76.595 41.4358 76.329C41.9425 76.063 42.5631 75.93 43.2978 75.93C44.0071 75.93 44.6088 76.0567 45.1028 76.31C45.6095 76.5507 46.0211 76.8863 46.3378 77.317C46.6671 77.7477 46.9141 78.2353 47.0788 78.78C47.2435 79.3247 47.3321 79.8947 47.3448 80.49C47.3575 80.6927 47.3638 80.8827 47.3638 81.06C47.3638 81.2373 47.3575 81.4273 47.3448 81.63C47.3321 82.238 47.2435 82.8143 47.0788 83.359C46.9141 83.9037 46.6671 84.3913 46.3378 84.822C46.0211 85.24 45.6095 85.5757 45.1028 85.829C44.6088 86.0697 44.0071 86.19 43.2978 86.19ZM42.8988 84.651C43.5575 84.651 44.0705 84.5117 44.4378 84.233C44.8178 83.9417 45.0901 83.568 45.2548 83.112C45.4195 82.6433 45.5145 82.143 45.5398 81.611C45.5525 81.2437 45.5525 80.8763 45.5398 80.509C45.5145 79.977 45.4195 79.483 45.2548 79.027C45.0901 78.5583 44.8178 78.1847 44.4378 77.906C44.0705 77.6147 43.5575 77.469 42.8988 77.469C42.3035 77.469 41.8095 77.6083 41.4168 77.887C41.0241 78.1657 40.7265 78.5203 40.5238 78.951C40.3338 79.3817 40.2325 79.8187 40.2198 80.262C40.2071 80.4647 40.2008 80.7117 40.2008 81.003C40.2008 81.2817 40.2071 81.5223 40.2198 81.725C40.2451 82.1937 40.3465 82.656 40.5238 83.112C40.7138 83.5553 40.9988 83.9227 41.3788 84.214C41.7715 84.5053 42.2781 84.651 42.8988 84.651ZM53.7616 86.19C52.7989 86.19 51.9946 86.0063 51.3486 85.639C50.7026 85.2717 50.2086 84.765 49.8666 84.119C49.5246 83.4603 49.3346 82.713 49.2966 81.877C49.2839 81.6617 49.2776 81.3893 49.2776 81.06C49.2776 80.718 49.2839 80.4457 49.2966 80.243C49.3346 79.3943 49.5246 78.647 49.8666 78.001C50.2213 77.355 50.7216 76.8483 51.3676 76.481C52.0136 76.1137 52.8116 75.93 53.7616 75.93C54.7116 75.93 55.5096 76.1137 56.1556 76.481C56.8016 76.8483 57.2956 77.355 57.6376 78.001C57.9923 78.647 58.1886 79.3943 58.2266 80.243C58.2393 80.4457 58.2456 80.718 58.2456 81.06C58.2456 81.3893 58.2393 81.6617 58.2266 81.877C58.1886 82.713 57.9986 83.4603 57.6566 84.119C57.3146 84.765 56.8206 85.2717 56.1746 85.639C55.5286 86.0063 54.7243 86.19 53.7616 86.19ZM53.7616 84.727C54.5469 84.727 55.1739 84.48 55.6426 83.986C56.1113 83.4793 56.3646 82.7447 56.4026 81.782C56.4153 81.592 56.4216 81.3513 56.4216 81.06C56.4216 80.7687 56.4153 80.528 56.4026 80.338C56.3646 79.3753 56.1113 78.647 55.6426 78.153C55.1739 77.6463 54.5469 77.393 53.7616 77.393C52.9763 77.393 52.3429 77.6463 51.8616 78.153C51.3929 78.647 51.1459 79.3753 51.1206 80.338C51.1079 80.528 51.1016 80.7687 51.1016 81.06C51.1016 81.3513 51.1079 81.592 51.1206 81.782C51.1459 82.7447 51.3929 83.4793 51.8616 83.986C52.3429 84.48 52.9763 84.727 53.7616 84.727ZM64.2347 86.19C63.5381 86.19 62.9364 86.0697 62.4298 85.829C61.9231 85.5757 61.5051 85.24 61.1758 84.822C60.8591 84.3913 60.6184 83.9037 60.4538 83.359C60.3018 82.8143 60.2131 82.238 60.1878 81.63C60.1751 81.4273 60.1688 81.2373 60.1688 81.06C60.1688 80.8827 60.1751 80.6927 60.1878 80.49C60.2131 79.8947 60.3018 79.3247 60.4538 78.78C60.6184 78.2353 60.8591 77.7477 61.1758 77.317C61.5051 76.8863 61.9231 76.5507 62.4298 76.31C62.9364 76.0567 63.5381 75.93 64.2347 75.93C64.9821 75.93 65.6028 76.063 66.0968 76.329C66.5908 76.595 66.9961 76.9243 67.3128 77.317V72.947C67.3128 72.8203 67.3508 72.719 67.4268 72.643C67.5154 72.5543 67.6231 72.51 67.7498 72.51H68.6618C68.7884 72.51 68.8898 72.5543 68.9658 72.643C69.0544 72.719 69.0988 72.8203 69.0988 72.947V85.563C69.0988 85.6897 69.0544 85.7973 68.9658 85.886C68.8898 85.962 68.7884 86 68.6618 86H67.8068C67.6674 86 67.5598 85.962 67.4838 85.886C67.4078 85.7973 67.3698 85.6897 67.3698 85.563V84.765C67.0531 85.1703 66.6414 85.5123 66.1348 85.791C65.6281 86.057 64.9948 86.19 64.2347 86.19ZM64.6338 84.651C65.2671 84.651 65.7738 84.5053 66.1538 84.214C66.5338 83.9227 66.8188 83.5553 67.0088 83.112C67.1988 82.656 67.3001 82.1937 67.3128 81.725C67.3254 81.5223 67.3318 81.2817 67.3318 81.003C67.3318 80.7117 67.3254 80.4647 67.3128 80.262C67.3001 79.8187 67.1924 79.3817 66.9898 78.951C66.7998 78.5203 66.5084 78.1657 66.1158 77.887C65.7358 77.6083 65.2418 77.469 64.6338 77.469C63.9878 77.469 63.4748 77.6147 63.0948 77.906C62.7148 78.1847 62.4424 78.5583 62.2778 79.027C62.1131 79.483 62.0181 79.977 61.9928 80.509C61.9801 80.8763 61.9801 81.2437 61.9928 81.611C62.0181 82.143 62.1131 82.6433 62.2778 83.112C62.4424 83.568 62.7148 83.9417 63.0948 84.233C63.4748 84.5117 63.9878 84.651 64.6338 84.651ZM73.6536 89.61C73.5522 89.61 73.4636 89.572 73.3876 89.496C73.3116 89.42 73.2736 89.3313 73.2736 89.23C73.2736 89.1793 73.2799 89.1287 73.2926 89.078C73.3052 89.0273 73.3306 88.964 73.3686 88.888L74.8316 85.411L71.2026 76.842C71.1392 76.69 71.1076 76.5823 71.1076 76.519C71.1076 76.405 71.1456 76.31 71.2216 76.234C71.2976 76.158 71.3926 76.12 71.5066 76.12H72.4376C72.5642 76.12 72.6656 76.1517 72.7416 76.215C72.8176 76.2783 72.8682 76.3543 72.8936 76.443L75.7816 83.359L78.7456 76.443C78.7836 76.3543 78.8342 76.2783 78.8976 76.215C78.9736 76.1517 79.0812 76.12 79.2206 76.12H80.1136C80.2276 76.12 80.3226 76.158 80.3986 76.234C80.4746 76.31 80.5126 76.3987 80.5126 76.5C80.5126 76.5633 80.4809 76.6773 80.4176 76.842L75.0216 89.287C74.9836 89.3757 74.9266 89.4517 74.8506 89.515C74.7872 89.5783 74.6859 89.61 74.5466 89.61H73.6536ZM91.4286 86.19C90.6686 86.19 90.0353 86.057 89.5286 85.791C89.022 85.5123 88.6166 85.1703 88.3126 84.765V85.563C88.3126 85.6897 88.2683 85.7973 88.1796 85.886C88.1036 85.962 88.0023 86 87.8756 86H87.0016C86.875 86 86.7673 85.962 86.6786 85.886C86.6026 85.7973 86.5646 85.6897 86.5646 85.563V72.947C86.5646 72.8203 86.6026 72.719 86.6786 72.643C86.7673 72.5543 86.875 72.51 87.0016 72.51H87.9136C88.053 72.51 88.1606 72.5543 88.2366 72.643C88.3126 72.719 88.3506 72.8203 88.3506 72.947V77.317C88.6673 76.9243 89.0726 76.595 89.5666 76.329C90.0733 76.063 90.694 75.93 91.4286 75.93C92.138 75.93 92.7396 76.0567 93.2336 76.31C93.7403 76.5507 94.152 76.8863 94.4686 77.317C94.798 77.7477 95.045 78.2353 95.2096 78.78C95.3743 79.3247 95.463 79.8947 95.4756 80.49C95.4883 80.6927 95.4946 80.8827 95.4946 81.06C95.4946 81.2373 95.4883 81.4273 95.4756 81.63C95.463 82.238 95.3743 82.8143 95.2096 83.359C95.045 83.9037 94.798 84.3913 94.4686 84.822C94.152 85.24 93.7403 85.5757 93.2336 85.829C92.7396 86.0697 92.138 86.19 91.4286 86.19ZM91.0296 84.651C91.6883 84.651 92.2013 84.5117 92.5686 84.233C92.9486 83.9417 93.221 83.568 93.3856 83.112C93.5503 82.6433 93.6453 82.143 93.6706 81.611C93.6833 81.2437 93.6833 80.8763 93.6706 80.509C93.6453 79.977 93.5503 79.483 93.3856 79.027C93.221 78.5583 92.9486 78.1847 92.5686 77.906C92.2013 77.6147 91.6883 77.469 91.0296 77.469C90.4343 77.469 89.9403 77.6083 89.5476 77.887C89.155 78.1657 88.8573 78.5203 88.6546 78.951C88.4646 79.3817 88.3633 79.8187 88.3506 80.262C88.338 80.4647 88.3316 80.7117 88.3316 81.003C88.3316 81.2817 88.338 81.5223 88.3506 81.725C88.376 82.1937 88.4773 82.656 88.6546 83.112C88.8446 83.5553 89.1296 83.9227 89.5096 84.214C89.9023 84.5053 90.409 84.651 91.0296 84.651ZM101.892 90.18C101.031 90.18 100.322 90.066 99.7645 89.838C99.2198 89.61 98.7891 89.3313 98.4725 89.002C98.1685 88.6853 97.9468 88.3623 97.8075 88.033C97.6808 87.7163 97.6111 87.463 97.5985 87.273C97.5858 87.1463 97.6238 87.0387 97.7125 86.95C97.8138 86.8613 97.9215 86.817 98.0355 86.817H98.9475C99.0615 86.817 99.1565 86.8423 99.2325 86.893C99.3085 86.9437 99.3718 87.0513 99.4225 87.216C99.4985 87.406 99.6125 87.615 99.7645 87.843C99.9165 88.0837 100.151 88.2863 100.467 88.451C100.784 88.6283 101.227 88.717 101.797 88.717C102.393 88.717 102.893 88.6347 103.298 88.47C103.704 88.318 104.008 88.0393 104.21 87.634C104.426 87.2413 104.533 86.6967 104.533 86V84.708C104.229 85.1007 103.83 85.43 103.336 85.696C102.842 85.9493 102.222 86.076 101.474 86.076C100.765 86.076 100.157 85.9557 99.6505 85.715C99.1438 85.4617 98.7258 85.126 98.3965 84.708C98.0798 84.2773 97.8391 83.7897 97.6745 83.245C97.5225 82.7003 97.4338 82.1303 97.4085 81.535C97.3958 81.1803 97.3958 80.832 97.4085 80.49C97.4338 79.8947 97.5225 79.3247 97.6745 78.78C97.8391 78.2353 98.0798 77.7477 98.3965 77.317C98.7258 76.8863 99.1438 76.5507 99.6505 76.31C100.157 76.0567 100.765 75.93 101.474 75.93C102.234 75.93 102.861 76.0757 103.355 76.367C103.862 76.6457 104.274 76.9877 104.59 77.393V76.576C104.59 76.4493 104.628 76.3417 104.704 76.253C104.793 76.1643 104.901 76.12 105.027 76.12H105.901C106.028 76.12 106.136 76.1643 106.224 76.253C106.313 76.3417 106.357 76.4493 106.357 76.576V85.791C106.357 86.6397 106.212 87.3933 105.92 88.052C105.642 88.7107 105.173 89.23 104.514 89.61C103.868 89.99 102.994 90.18 101.892 90.18ZM101.854 84.556C102.488 84.556 102.994 84.4103 103.374 84.119C103.767 83.8277 104.052 83.4603 104.229 83.017C104.419 82.5737 104.521 82.124 104.533 81.668C104.546 81.4907 104.552 81.2753 104.552 81.022C104.552 80.756 104.546 80.5343 104.533 80.357C104.521 79.901 104.419 79.4513 104.229 79.008C104.052 78.5647 103.767 78.1973 103.374 77.906C102.994 77.6147 102.488 77.469 101.854 77.469C101.221 77.469 100.714 77.6147 100.334 77.906C99.9545 78.1847 99.6821 78.5583 99.5175 79.027C99.3528 79.483 99.2578 79.977 99.2325 80.509C99.2198 80.8383 99.2198 81.174 99.2325 81.516C99.2578 82.048 99.3528 82.5483 99.5175 83.017C99.6821 83.473 99.9545 83.8467 100.334 84.138C100.714 84.4167 101.221 84.556 101.854 84.556ZM113.172 86.19C112.273 86.19 111.494 86.019 110.835 85.677C110.189 85.3223 109.689 84.822 109.334 84.176C108.98 83.5173 108.79 82.732 108.764 81.82C108.752 81.63 108.745 81.3767 108.745 81.06C108.745 80.7433 108.752 80.49 108.764 80.3C108.79 79.388 108.98 78.609 109.334 77.963C109.689 77.3043 110.189 76.804 110.835 76.462C111.494 76.1073 112.273 75.93 113.172 75.93C113.907 75.93 114.534 76.0313 115.053 76.234C115.585 76.4367 116.022 76.6963 116.364 77.013C116.706 77.3297 116.96 77.6717 117.124 78.039C117.302 78.4063 117.397 78.7547 117.409 79.084C117.422 79.2107 117.384 79.312 117.295 79.388C117.207 79.464 117.099 79.502 116.972 79.502H116.06C115.934 79.502 115.839 79.4767 115.775 79.426C115.712 79.3627 115.649 79.2613 115.585 79.122C115.357 78.5013 115.047 78.0643 114.654 77.811C114.262 77.5577 113.774 77.431 113.191 77.431C112.431 77.431 111.811 77.6653 111.329 78.134C110.861 78.6027 110.607 79.3563 110.569 80.395C110.557 80.851 110.557 81.2943 110.569 81.725C110.607 82.7763 110.861 83.5363 111.329 84.005C111.811 84.461 112.431 84.689 113.191 84.689C113.774 84.689 114.262 84.5623 114.654 84.309C115.047 84.0557 115.357 83.6187 115.585 82.998C115.649 82.8587 115.712 82.7637 115.775 82.713C115.839 82.6497 115.934 82.618 116.06 82.618H116.972C117.099 82.618 117.207 82.656 117.295 82.732C117.384 82.808 117.422 82.9093 117.409 83.036C117.397 83.302 117.34 83.5743 117.238 83.853C117.137 84.1317 116.972 84.4167 116.744 84.708C116.529 84.9867 116.257 85.24 115.927 85.468C115.598 85.6833 115.199 85.8607 114.73 86C114.274 86.1267 113.755 86.19 113.172 86.19ZM123.713 86.19C122.75 86.19 121.946 86.0063 121.3 85.639C120.654 85.2717 120.16 84.765 119.818 84.119C119.476 83.4603 119.286 82.713 119.248 81.877C119.235 81.6617 119.229 81.3893 119.229 81.06C119.229 80.718 119.235 80.4457 119.248 80.243C119.286 79.3943 119.476 78.647 119.818 78.001C120.172 77.355 120.673 76.8483 121.319 76.481C121.965 76.1137 122.763 75.93 123.713 75.93C124.663 75.93 125.461 76.1137 126.107 76.481C126.753 76.8483 127.247 77.355 127.589 78.001C127.943 78.647 128.14 79.3943 128.178 80.243C128.19 80.4457 128.197 80.718 128.197 81.06C128.197 81.3893 128.19 81.6617 128.178 81.877C128.14 82.713 127.95 83.4603 127.608 84.119C127.266 84.765 126.772 85.2717 126.126 85.639C125.48 86.0063 124.675 86.19 123.713 86.19ZM123.713 84.727C124.498 84.727 125.125 84.48 125.594 83.986C126.062 83.4793 126.316 82.7447 126.354 81.782C126.366 81.592 126.373 81.3513 126.373 81.06C126.373 80.7687 126.366 80.528 126.354 80.338C126.316 79.3753 126.062 78.647 125.594 78.153C125.125 77.6463 124.498 77.393 123.713 77.393C122.927 77.393 122.294 77.6463 121.813 78.153C121.344 78.647 121.097 79.3753 121.072 80.338C121.059 80.528 121.053 80.7687 121.053 81.06C121.053 81.3513 121.059 81.592 121.072 81.782C121.097 82.7447 121.344 83.4793 121.813 83.986C122.294 84.48 122.927 84.727 123.713 84.727ZM131.032 86C130.905 86 130.798 85.962 130.709 85.886C130.633 85.7973 130.595 85.6897 130.595 85.563V72.947C130.595 72.8203 130.633 72.719 130.709 72.643C130.798 72.5543 130.905 72.51 131.032 72.51H131.925C132.064 72.51 132.172 72.5543 132.248 72.643C132.324 72.719 132.362 72.8203 132.362 72.947V85.563C132.362 85.6897 132.324 85.7973 132.248 85.886C132.172 85.962 132.064 86 131.925 86H131.032ZM139.243 86.19C138.28 86.19 137.476 86.0063 136.83 85.639C136.184 85.2717 135.69 84.765 135.348 84.119C135.006 83.4603 134.816 82.713 134.778 81.877C134.765 81.6617 134.759 81.3893 134.759 81.06C134.759 80.718 134.765 80.4457 134.778 80.243C134.816 79.3943 135.006 78.647 135.348 78.001C135.703 77.355 136.203 76.8483 136.849 76.481C137.495 76.1137 138.293 75.93 139.243 75.93C140.193 75.93 140.991 76.1137 141.637 76.481C142.283 76.8483 142.777 77.355 143.119 78.001C143.474 78.647 143.67 79.3943 143.708 80.243C143.721 80.4457 143.727 80.718 143.727 81.06C143.727 81.3893 143.721 81.6617 143.708 81.877C143.67 82.713 143.48 83.4603 143.138 84.119C142.796 84.765 142.302 85.2717 141.656 85.639C141.01 86.0063 140.206 86.19 139.243 86.19ZM139.243 84.727C140.028 84.727 140.655 84.48 141.124 83.986C141.593 83.4793 141.846 82.7447 141.884 81.782C141.897 81.592 141.903 81.3513 141.903 81.06C141.903 80.7687 141.897 80.528 141.884 80.338C141.846 79.3753 141.593 78.647 141.124 78.153C140.655 77.6463 140.028 77.393 139.243 77.393C138.458 77.393 137.824 77.6463 137.343 78.153C136.874 78.647 136.627 79.3753 136.602 80.338C136.589 80.528 136.583 80.7687 136.583 81.06C136.583 81.3513 136.589 81.592 136.602 81.782C136.627 82.7447 136.874 83.4793 137.343 83.986C137.824 84.48 138.458 84.727 139.243 84.727ZM146.543 86C146.417 86 146.309 85.962 146.22 85.886C146.144 85.7973 146.106 85.6897 146.106 85.563V76.576C146.106 76.4493 146.144 76.3417 146.22 76.253C146.309 76.1643 146.417 76.12 146.543 76.12H147.417C147.544 76.12 147.652 76.1643 147.74 76.253C147.829 76.3417 147.873 76.4493 147.873 76.576V77.412C148.127 76.9813 148.475 76.6583 148.918 76.443C149.362 76.2277 149.894 76.12 150.514 76.12H151.274C151.401 76.12 151.502 76.1643 151.578 76.253C151.654 76.329 151.692 76.4303 151.692 76.557V77.336C151.692 77.4627 151.654 77.564 151.578 77.64C151.502 77.716 151.401 77.754 151.274 77.754H150.134C149.45 77.754 148.912 77.9567 148.519 78.362C148.127 78.7547 147.93 79.293 147.93 79.977V85.563C147.93 85.6897 147.886 85.7973 147.797 85.886C147.709 85.962 147.601 86 147.474 86H146.543ZM157.916 78.666C157.789 78.666 157.688 78.628 157.612 78.552C157.536 78.476 157.498 78.3747 157.498 78.248V77.602C157.498 77.4753 157.536 77.374 157.612 77.298C157.688 77.222 157.789 77.184 157.916 77.184H165.155C165.282 77.184 165.383 77.222 165.459 77.298C165.548 77.374 165.592 77.4753 165.592 77.602V78.248C165.592 78.3747 165.548 78.476 165.459 78.552C165.383 78.628 165.282 78.666 165.155 78.666H157.916ZM157.916 83.416C157.789 83.416 157.688 83.378 157.612 83.302C157.536 83.226 157.498 83.1247 157.498 82.998V82.352C157.498 82.2253 157.536 82.124 157.612 82.048C157.688 81.972 157.789 81.934 157.916 81.934H165.155C165.282 81.934 165.383 81.972 165.459 82.048C165.548 82.124 165.592 82.2253 165.592 82.352V82.998C165.592 83.1247 165.548 83.226 165.459 83.302C165.383 83.378 165.282 83.416 165.155 83.416H157.916ZM176.354 76.709C176.227 76.709 176.132 76.671 176.069 76.595C176.018 76.5063 175.987 76.405 175.974 76.291L175.651 72.947C175.626 72.8077 175.651 72.7 175.727 72.624C175.803 72.548 175.904 72.51 176.031 72.51H177.266C177.393 72.51 177.494 72.548 177.57 72.624C177.646 72.7 177.678 72.8077 177.665 72.947L177.323 76.291C177.31 76.405 177.272 76.5063 177.209 76.595C177.158 76.671 177.07 76.709 176.943 76.709H176.354ZM173.39 76.709C173.263 76.709 173.168 76.671 173.105 76.595C173.054 76.5063 173.023 76.405 173.01 76.291L172.687 72.947C172.674 72.8077 172.7 72.7 172.763 72.624C172.839 72.548 172.94 72.51 173.067 72.51H174.302C174.429 72.51 174.53 72.548 174.606 72.624C174.682 72.7 174.714 72.8077 174.701 72.947L174.378 76.291C174.365 76.405 174.327 76.5063 174.264 76.595C174.201 76.671 174.106 76.709 173.979 76.709H173.39ZM270.371 76.709C270.244 76.709 270.149 76.671 270.086 76.595C270.035 76.5063 270.003 76.405 269.991 76.291L269.668 72.947C269.642 72.8077 269.668 72.7 269.744 72.624C269.82 72.548 269.921 72.51 270.048 72.51H271.283C271.409 72.51 271.511 72.548 271.587 72.624C271.663 72.7 271.694 72.8077 271.682 72.947L271.34 76.291C271.327 76.405 271.289 76.5063 271.226 76.595C271.175 76.671 271.086 76.709 270.96 76.709H270.371ZM267.407 76.709C267.28 76.709 267.185 76.671 267.122 76.595C267.071 76.5063 267.039 76.405 267.027 76.291L266.704 72.947C266.691 72.8077 266.716 72.7 266.78 72.624C266.856 72.548 266.957 72.51 267.084 72.51H268.319C268.445 72.51 268.547 72.548 268.623 72.624C268.699 72.7 268.73 72.8077 268.718 72.947L268.395 76.291C268.382 76.405 268.344 76.5063 268.281 76.595C268.217 76.671 268.122 76.709 267.996 76.709H267.407ZM483.919 87.596C483.818 87.596 483.729 87.558 483.653 87.482C483.577 87.406 483.539 87.3173 483.539 87.216C483.539 87.1527 483.558 87.0767 483.596 86.988L490.094 71.408C490.132 71.332 490.183 71.256 490.246 71.18C490.322 71.104 490.436 71.066 490.588 71.066H491.329C491.43 71.066 491.519 71.104 491.595 71.18C491.671 71.256 491.709 71.3447 491.709 71.446C491.709 71.4967 491.696 71.5727 491.671 71.674L485.154 87.254C485.129 87.3173 485.072 87.387 484.983 87.463C484.907 87.5517 484.799 87.596 484.66 87.596H483.919ZM498.481 86.19C497.721 86.19 497.088 86.057 496.581 85.791C496.075 85.5123 495.669 85.1703 495.365 84.765V85.563C495.365 85.6897 495.321 85.7973 495.232 85.886C495.156 85.962 495.055 86 494.928 86H494.054C493.928 86 493.82 85.962 493.731 85.886C493.655 85.7973 493.617 85.6897 493.617 85.563V72.947C493.617 72.8203 493.655 72.719 493.731 72.643C493.82 72.5543 493.928 72.51 494.054 72.51H494.966C495.106 72.51 495.213 72.5543 495.289 72.643C495.365 72.719 495.403 72.8203 495.403 72.947V77.317C495.72 76.9243 496.125 76.595 496.619 76.329C497.126 76.063 497.747 75.93 498.481 75.93C499.191 75.93 499.792 76.0567 500.286 76.31C500.793 76.5507 501.205 76.8863 501.521 77.317C501.851 77.7477 502.098 78.2353 502.262 78.78C502.427 79.3247 502.516 79.8947 502.528 80.49C502.541 80.6927 502.547 80.8827 502.547 81.06C502.547 81.2373 502.541 81.4273 502.528 81.63C502.516 82.238 502.427 82.8143 502.262 83.359C502.098 83.9037 501.851 84.3913 501.521 84.822C501.205 85.24 500.793 85.5757 500.286 85.829C499.792 86.0697 499.191 86.19 498.481 86.19ZM498.082 84.651C498.741 84.651 499.254 84.5117 499.621 84.233C500.001 83.9417 500.274 83.568 500.438 83.112C500.603 82.6433 500.698 82.143 500.723 81.611C500.736 81.2437 500.736 80.8763 500.723 80.509C500.698 79.977 500.603 79.483 500.438 79.027C500.274 78.5583 500.001 78.1847 499.621 77.906C499.254 77.6147 498.741 77.469 498.082 77.469C497.487 77.469 496.993 77.6083 496.6 77.887C496.208 78.1657 495.91 78.5203 495.707 78.951C495.517 79.3817 495.416 79.8187 495.403 80.262C495.391 80.4647 495.384 80.7117 495.384 81.003C495.384 81.2817 495.391 81.5223 495.403 81.725C495.429 82.1937 495.53 82.656 495.707 83.112C495.897 83.5553 496.182 83.9227 496.562 84.214C496.955 84.5053 497.462 84.651 498.082 84.651ZM508.945 86.19C507.983 86.19 507.178 86.0063 506.532 85.639C505.886 85.2717 505.392 84.765 505.05 84.119C504.708 83.4603 504.518 82.713 504.48 81.877C504.468 81.6617 504.461 81.3893 504.461 81.06C504.461 80.718 504.468 80.4457 504.48 80.243C504.518 79.3943 504.708 78.647 505.05 78.001C505.405 77.355 505.905 76.8483 506.551 76.481C507.197 76.1137 507.995 75.93 508.945 75.93C509.895 75.93 510.693 76.1137 511.339 76.481C511.985 76.8483 512.479 77.355 512.821 78.001C513.176 78.647 513.372 79.3943 513.41 80.243C513.423 80.4457 513.429 80.718 513.429 81.06C513.429 81.3893 513.423 81.6617 513.41 81.877C513.372 82.713 513.182 83.4603 512.84 84.119C512.498 84.765 512.004 85.2717 511.358 85.639C510.712 86.0063 509.908 86.19 508.945 86.19ZM508.945 84.727C509.731 84.727 510.358 84.48 510.826 83.986C511.295 83.4793 511.548 82.7447 511.586 81.782C511.599 81.592 511.605 81.3513 511.605 81.06C511.605 80.7687 511.599 80.528 511.586 80.338C511.548 79.3753 511.295 78.647 510.826 78.153C510.358 77.6463 509.731 77.393 508.945 77.393C508.16 77.393 507.527 77.6463 507.045 78.153C506.577 78.647 506.33 79.3753 506.304 80.338C506.292 80.528 506.285 80.7687 506.285 81.06C506.285 81.3513 506.292 81.592 506.304 81.782C506.33 82.7447 506.577 83.4793 507.045 83.986C507.527 84.48 508.16 84.727 508.945 84.727ZM519.418 86.19C518.722 86.19 518.12 86.0697 517.613 85.829C517.107 85.5757 516.689 85.24 516.359 84.822C516.043 84.3913 515.802 83.9037 515.637 83.359C515.485 82.8143 515.397 82.238 515.371 81.63C515.359 81.4273 515.352 81.2373 515.352 81.06C515.352 80.8827 515.359 80.6927 515.371 80.49C515.397 79.8947 515.485 79.3247 515.637 78.78C515.802 78.2353 516.043 77.7477 516.359 77.317C516.689 76.8863 517.107 76.5507 517.613 76.31C518.12 76.0567 518.722 75.93 519.418 75.93C520.166 75.93 520.786 76.063 521.28 76.329C521.774 76.595 522.18 76.9243 522.496 77.317V72.947C522.496 72.8203 522.534 72.719 522.61 72.643C522.699 72.5543 522.807 72.51 522.933 72.51H523.845C523.972 72.51 524.073 72.5543 524.149 72.643C524.238 72.719 524.282 72.8203 524.282 72.947V85.563C524.282 85.6897 524.238 85.7973 524.149 85.886C524.073 85.962 523.972 86 523.845 86H522.99C522.851 86 522.743 85.962 522.667 85.886C522.591 85.7973 522.553 85.6897 522.553 85.563V84.765C522.237 85.1703 521.825 85.5123 521.318 85.791C520.812 86.057 520.178 86.19 519.418 86.19ZM519.817 84.651C520.451 84.651 520.957 84.5053 521.337 84.214C521.717 83.9227 522.002 83.5553 522.192 83.112C522.382 82.656 522.484 82.1937 522.496 81.725C522.509 81.5223 522.515 81.2817 522.515 81.003C522.515 80.7117 522.509 80.4647 522.496 80.262C522.484 79.8187 522.376 79.3817 522.173 78.951C521.983 78.5203 521.692 78.1657 521.299 77.887C520.919 77.6083 520.425 77.469 519.817 77.469C519.171 77.469 518.658 77.6147 518.278 77.906C517.898 78.1847 517.626 78.5583 517.461 79.027C517.297 79.483 517.202 79.977 517.176 80.509C517.164 80.8763 517.164 81.2437 517.176 81.611C517.202 82.143 517.297 82.6433 517.461 83.112C517.626 83.568 517.898 83.9417 518.278 84.233C518.658 84.5117 519.171 84.651 519.817 84.651ZM528.837 89.61C528.736 89.61 528.647 89.572 528.571 89.496C528.495 89.42 528.457 89.3313 528.457 89.23C528.457 89.1793 528.463 89.1287 528.476 89.078C528.489 89.0273 528.514 88.964 528.552 88.888L530.015 85.411L526.386 76.842C526.323 76.69 526.291 76.5823 526.291 76.519C526.291 76.405 526.329 76.31 526.405 76.234C526.481 76.158 526.576 76.12 526.69 76.12H527.621C527.748 76.12 527.849 76.1517 527.925 76.215C528.001 76.2783 528.052 76.3543 528.077 76.443L530.965 83.359L533.929 76.443C533.967 76.3543 534.018 76.2783 534.081 76.215C534.157 76.1517 534.265 76.12 534.404 76.12H535.297C535.411 76.12 535.506 76.158 535.582 76.234C535.658 76.31 535.696 76.3987 535.696 76.5C535.696 76.5633 535.664 76.6773 535.601 76.842L530.205 89.287C530.167 89.3757 530.11 89.4517 530.034 89.515C529.971 89.5783 529.869 89.61 529.73 89.61H528.837Z" fill="white" fill-opacity="0.75"/>
<path d="M185.249 86C185.122 86 185.014 85.962 184.926 85.886C184.85 85.7973 184.812 85.6897 184.812 85.563V72.947C184.812 72.8203 184.85 72.719 184.926 72.643C185.014 72.5543 185.122 72.51 185.249 72.51H186.142C186.281 72.51 186.389 72.5543 186.465 72.643C186.541 72.719 186.579 72.8203 186.579 72.947V85.563C186.579 85.6897 186.541 85.7973 186.465 85.886C186.389 85.962 186.281 86 186.142 86H185.249ZM190.035 86C189.909 86 189.801 85.962 189.712 85.886C189.636 85.7973 189.598 85.6897 189.598 85.563V76.557C189.598 76.4303 189.636 76.329 189.712 76.253C189.801 76.1643 189.909 76.12 190.035 76.12H190.947C191.074 76.12 191.175 76.1643 191.251 76.253C191.327 76.329 191.365 76.4303 191.365 76.557V85.563C191.365 85.6897 191.327 85.7973 191.251 85.886C191.175 85.962 191.074 86 190.947 86H190.035ZM189.883 74.277C189.757 74.277 189.649 74.239 189.56 74.163C189.484 74.0743 189.446 73.9667 189.446 73.84V72.814C189.446 72.6873 189.484 72.586 189.56 72.51C189.649 72.4213 189.757 72.377 189.883 72.377H191.08C191.207 72.377 191.308 72.4213 191.384 72.51C191.473 72.586 191.517 72.6873 191.517 72.814V73.84C191.517 73.9667 191.473 74.0743 191.384 74.163C191.308 74.239 191.207 74.277 191.08 74.277H189.883ZM198.247 90.18C197.386 90.18 196.676 90.066 196.119 89.838C195.574 89.61 195.144 89.3313 194.827 89.002C194.523 88.6853 194.301 88.3623 194.162 88.033C194.035 87.7163 193.966 87.463 193.953 87.273C193.94 87.1463 193.978 87.0387 194.067 86.95C194.168 86.8613 194.276 86.817 194.39 86.817H195.302C195.416 86.817 195.511 86.8423 195.587 86.893C195.663 86.9437 195.726 87.0513 195.777 87.216C195.853 87.406 195.967 87.615 196.119 87.843C196.271 88.0837 196.505 88.2863 196.822 88.451C197.139 88.6283 197.582 88.717 198.152 88.717C198.747 88.717 199.248 88.6347 199.653 88.47C200.058 88.318 200.362 88.0393 200.565 87.634C200.78 87.2413 200.888 86.6967 200.888 86V84.708C200.584 85.1007 200.185 85.43 199.691 85.696C199.197 85.9493 198.576 86.076 197.829 86.076C197.12 86.076 196.512 85.9557 196.005 85.715C195.498 85.4617 195.08 85.126 194.751 84.708C194.434 84.2773 194.194 83.7897 194.029 83.245C193.877 82.7003 193.788 82.1303 193.763 81.535C193.75 81.1803 193.75 80.832 193.763 80.49C193.788 79.8947 193.877 79.3247 194.029 78.78C194.194 78.2353 194.434 77.7477 194.751 77.317C195.08 76.8863 195.498 76.5507 196.005 76.31C196.512 76.0567 197.12 75.93 197.829 75.93C198.589 75.93 199.216 76.0757 199.71 76.367C200.217 76.6457 200.628 76.9877 200.945 77.393V76.576C200.945 76.4493 200.983 76.3417 201.059 76.253C201.148 76.1643 201.255 76.12 201.382 76.12H202.256C202.383 76.12 202.49 76.1643 202.579 76.253C202.668 76.3417 202.712 76.4493 202.712 76.576V85.791C202.712 86.6397 202.566 87.3933 202.275 88.052C201.996 88.7107 201.528 89.23 200.869 89.61C200.223 89.99 199.349 90.18 198.247 90.18ZM198.209 84.556C198.842 84.556 199.349 84.4103 199.729 84.119C200.122 83.8277 200.407 83.4603 200.584 83.017C200.774 82.5737 200.875 82.124 200.888 81.668C200.901 81.4907 200.907 81.2753 200.907 81.022C200.907 80.756 200.901 80.5343 200.888 80.357C200.875 79.901 200.774 79.4513 200.584 79.008C200.407 78.5647 200.122 78.1973 199.729 77.906C199.349 77.6147 198.842 77.469 198.209 77.469C197.576 77.469 197.069 77.6147 196.689 77.906C196.309 78.1847 196.037 78.5583 195.872 79.027C195.707 79.483 195.612 79.977 195.587 80.509C195.574 80.8383 195.574 81.174 195.587 81.516C195.612 82.048 195.707 82.5483 195.872 83.017C196.037 83.473 196.309 83.8467 196.689 84.138C197.069 84.4167 197.576 84.556 198.209 84.556ZM205.993 86C205.866 86 205.759 85.962 205.67 85.886C205.594 85.7973 205.556 85.6897 205.556 85.563V72.947C205.556 72.8203 205.594 72.719 205.67 72.643C205.759 72.5543 205.866 72.51 205.993 72.51H206.943C207.082 72.51 207.19 72.5543 207.266 72.643C207.342 72.719 207.38 72.8203 207.38 72.947V77.374C207.722 76.9433 208.14 76.595 208.634 76.329C209.128 76.063 209.755 75.93 210.515 75.93C211.338 75.93 212.035 76.1137 212.605 76.481C213.188 76.8357 213.625 77.336 213.916 77.982C214.22 78.6153 214.372 79.3563 214.372 80.205V85.563C214.372 85.6897 214.334 85.7973 214.258 85.886C214.182 85.962 214.074 86 213.935 86H212.985C212.858 86 212.751 85.962 212.662 85.886C212.586 85.7973 212.548 85.6897 212.548 85.563V80.3C212.548 79.4133 212.333 78.723 211.902 78.229C211.471 77.7223 210.838 77.469 210.002 77.469C209.217 77.469 208.583 77.7223 208.102 78.229C207.621 78.723 207.38 79.4133 207.38 80.3V85.563C207.38 85.6897 207.342 85.7973 207.266 85.886C207.19 85.962 207.082 86 206.943 86H205.993ZM220.842 86C220.133 86 219.556 85.867 219.113 85.601C218.67 85.3223 218.347 84.936 218.144 84.442C217.941 83.9353 217.84 83.34 217.84 82.656V77.64H216.358C216.231 77.64 216.124 77.602 216.035 77.526C215.959 77.4373 215.921 77.3297 215.921 77.203V76.557C215.921 76.4303 215.959 76.329 216.035 76.253C216.124 76.1643 216.231 76.12 216.358 76.12H217.84V72.947C217.84 72.8203 217.878 72.719 217.954 72.643C218.043 72.5543 218.15 72.51 218.277 72.51H219.17C219.297 72.51 219.398 72.5543 219.474 72.643C219.563 72.719 219.607 72.8203 219.607 72.947V76.12H221.963C222.09 76.12 222.191 76.1643 222.267 76.253C222.356 76.329 222.4 76.4303 222.4 76.557V77.203C222.4 77.3297 222.356 77.4373 222.267 77.526C222.191 77.602 222.09 77.64 221.963 77.64H219.607V82.523C219.607 83.1183 219.708 83.587 219.911 83.929C220.114 84.271 220.475 84.442 220.994 84.442H222.153C222.28 84.442 222.381 84.4863 222.457 84.575C222.546 84.651 222.59 84.7523 222.59 84.879V85.563C222.59 85.6897 222.546 85.7973 222.457 85.886C222.381 85.962 222.28 86 222.153 86H220.842ZM229.29 86.19C228.53 86.19 227.897 86.057 227.39 85.791C226.883 85.5123 226.478 85.1703 226.174 84.765V85.563C226.174 85.6897 226.13 85.7973 226.041 85.886C225.965 85.962 225.864 86 225.737 86H224.863C224.736 86 224.629 85.962 224.54 85.886C224.464 85.7973 224.426 85.6897 224.426 85.563V72.947C224.426 72.8203 224.464 72.719 224.54 72.643C224.629 72.5543 224.736 72.51 224.863 72.51H225.775C225.914 72.51 226.022 72.5543 226.098 72.643C226.174 72.719 226.212 72.8203 226.212 72.947V77.317C226.529 76.9243 226.934 76.595 227.428 76.329C227.935 76.063 228.555 75.93 229.29 75.93C229.999 75.93 230.601 76.0567 231.095 76.31C231.602 76.5507 232.013 76.8863 232.33 77.317C232.659 77.7477 232.906 78.2353 233.071 78.78C233.236 79.3247 233.324 79.8947 233.337 80.49C233.35 80.6927 233.356 80.8827 233.356 81.06C233.356 81.2373 233.35 81.4273 233.337 81.63C233.324 82.238 233.236 82.8143 233.071 83.359C232.906 83.9037 232.659 84.3913 232.33 84.822C232.013 85.24 231.602 85.5757 231.095 85.829C230.601 86.0697 229.999 86.19 229.29 86.19ZM228.891 84.651C229.55 84.651 230.063 84.5117 230.43 84.233C230.81 83.9417 231.082 83.568 231.247 83.112C231.412 82.6433 231.507 82.143 231.532 81.611C231.545 81.2437 231.545 80.8763 231.532 80.509C231.507 79.977 231.412 79.483 231.247 79.027C231.082 78.5583 230.81 78.1847 230.43 77.906C230.063 77.6147 229.55 77.469 228.891 77.469C228.296 77.469 227.802 77.6083 227.409 77.887C227.016 78.1657 226.719 78.5203 226.516 78.951C226.326 79.3817 226.225 79.8187 226.212 80.262C226.199 80.4647 226.193 80.7117 226.193 81.003C226.193 81.2817 226.199 81.5223 226.212 81.725C226.237 82.1937 226.339 82.656 226.516 83.112C226.706 83.5553 226.991 83.9227 227.371 84.214C227.764 84.5053 228.27 84.651 228.891 84.651ZM236.163 86C236.036 86 235.928 85.962 235.84 85.886C235.764 85.7973 235.726 85.6897 235.726 85.563V72.947C235.726 72.8203 235.764 72.719 235.84 72.643C235.928 72.5543 236.036 72.51 236.163 72.51H237.056C237.195 72.51 237.303 72.5543 237.379 72.643C237.455 72.719 237.493 72.8203 237.493 72.947V85.563C237.493 85.6897 237.455 85.7973 237.379 85.886C237.303 85.962 237.195 86 237.056 86H236.163ZM244.013 86.19C243.202 86.19 242.512 86.0127 241.942 85.658C241.385 85.2907 240.96 84.784 240.669 84.138C240.378 83.492 240.232 82.751 240.232 81.915V76.557C240.232 76.4303 240.27 76.329 240.346 76.253C240.435 76.1643 240.542 76.12 240.669 76.12H241.619C241.746 76.12 241.847 76.1643 241.923 76.253C242.012 76.329 242.056 76.4303 242.056 76.557V81.82C242.056 83.7073 242.879 84.651 244.526 84.651C245.311 84.651 245.938 84.404 246.407 83.91C246.888 83.4033 247.129 82.7067 247.129 81.82V76.557C247.129 76.4303 247.167 76.329 247.243 76.253C247.332 76.1643 247.439 76.12 247.566 76.12H248.497C248.636 76.12 248.744 76.1643 248.82 76.253C248.896 76.329 248.934 76.4303 248.934 76.557V85.563C248.934 85.6897 248.896 85.7973 248.82 85.886C248.744 85.962 248.636 86 248.497 86H247.623C247.496 86 247.389 85.962 247.3 85.886C247.224 85.7973 247.186 85.6897 247.186 85.563V84.727C246.844 85.1703 246.426 85.525 245.932 85.791C245.451 86.057 244.811 86.19 244.013 86.19ZM255.69 86.19C254.385 86.19 253.346 85.791 252.574 84.993C251.801 84.1823 251.377 83.0803 251.301 81.687C251.288 81.5223 251.282 81.3133 251.282 81.06C251.282 80.794 251.288 80.5787 251.301 80.414C251.351 79.5147 251.56 78.7293 251.928 78.058C252.295 77.374 252.795 76.8483 253.429 76.481C254.075 76.1137 254.828 75.93 255.69 75.93C256.652 75.93 257.457 76.1327 258.103 76.538C258.761 76.9433 259.262 77.5197 259.604 78.267C259.946 79.0143 260.117 79.8883 260.117 80.889V81.212C260.117 81.3513 260.072 81.459 259.984 81.535C259.908 81.611 259.806 81.649 259.68 81.649H253.106C253.106 81.6617 253.106 81.687 253.106 81.725C253.106 81.763 253.106 81.7947 253.106 81.82C253.131 82.3393 253.245 82.827 253.448 83.283C253.65 83.7263 253.942 84.0873 254.322 84.366C254.702 84.6447 255.158 84.784 255.69 84.784C256.146 84.784 256.526 84.7143 256.83 84.575C257.134 84.4357 257.381 84.2837 257.571 84.119C257.761 83.9417 257.887 83.8087 257.951 83.72C258.065 83.5553 258.153 83.4603 258.217 83.435C258.28 83.397 258.381 83.378 258.521 83.378H259.433C259.559 83.378 259.661 83.416 259.737 83.492C259.825 83.5553 259.863 83.6503 259.851 83.777C259.838 83.967 259.737 84.2013 259.547 84.48C259.357 84.746 259.084 85.012 258.73 85.278C258.375 85.544 257.944 85.7657 257.438 85.943C256.931 86.1077 256.348 86.19 255.69 86.19ZM253.106 80.338H258.312V80.281C258.312 79.711 258.204 79.2043 257.989 78.761C257.786 78.3177 257.488 77.9693 257.096 77.716C256.703 77.45 256.234 77.317 255.69 77.317C255.145 77.317 254.676 77.45 254.284 77.716C253.904 77.9693 253.612 78.3177 253.41 78.761C253.207 79.2043 253.106 79.711 253.106 80.281V80.338Z" fill="#B5C1FF"/>
<path d="M297.835 86.19C296.669 86.19 295.7 85.9747 294.928 85.544C294.168 85.1133 293.591 84.5117 293.199 83.739C292.806 82.9663 292.591 82.067 292.553 81.041C292.54 80.5217 292.534 79.9643 292.534 79.369C292.534 78.7737 292.54 78.2037 292.553 77.659C292.591 76.633 292.806 75.7337 293.199 74.961C293.591 74.1883 294.168 73.5867 294.928 73.156C295.7 72.7253 296.669 72.51 297.835 72.51C298.709 72.51 299.475 72.6303 300.134 72.871C300.792 73.1117 301.337 73.4347 301.768 73.84C302.211 74.2453 302.547 74.7013 302.775 75.208C303.003 75.702 303.129 76.215 303.155 76.747C303.167 76.861 303.129 76.956 303.041 77.032C302.965 77.108 302.87 77.146 302.756 77.146H301.711C301.597 77.146 301.495 77.1143 301.407 77.051C301.331 76.9877 301.274 76.8737 301.236 76.709C301.02 75.721 300.615 75.0433 300.02 74.676C299.437 74.3087 298.702 74.125 297.816 74.125C296.802 74.125 295.998 74.4163 295.403 74.999C294.807 75.569 294.484 76.4873 294.434 77.754C294.396 78.7927 294.396 79.8567 294.434 80.946C294.484 82.2127 294.807 83.1373 295.403 83.72C295.998 84.29 296.802 84.575 297.816 84.575C298.702 84.575 299.437 84.3913 300.02 84.024C300.615 83.6567 301.02 82.979 301.236 81.991C301.274 81.8263 301.331 81.7123 301.407 81.649C301.495 81.5857 301.597 81.554 301.711 81.554H302.756C302.87 81.554 302.965 81.592 303.041 81.668C303.129 81.744 303.167 81.839 303.155 81.953C303.129 82.485 303.003 83.0043 302.775 83.511C302.547 84.005 302.211 84.4547 301.768 84.86C301.337 85.2653 300.792 85.5883 300.134 85.829C299.475 86.0697 298.709 86.19 297.835 86.19ZM309.501 86.19C308.538 86.19 307.734 86.0063 307.088 85.639C306.442 85.2717 305.948 84.765 305.606 84.119C305.264 83.4603 305.074 82.713 305.036 81.877C305.023 81.6617 305.017 81.3893 305.017 81.06C305.017 80.718 305.023 80.4457 305.036 80.243C305.074 79.3943 305.264 78.647 305.606 78.001C305.961 77.355 306.461 76.8483 307.107 76.481C307.753 76.1137 308.551 75.93 309.501 75.93C310.451 75.93 311.249 76.1137 311.895 76.481C312.541 76.8483 313.035 77.355 313.377 78.001C313.732 78.647 313.928 79.3943 313.966 80.243C313.979 80.4457 313.985 80.718 313.985 81.06C313.985 81.3893 313.979 81.6617 313.966 81.877C313.928 82.713 313.738 83.4603 313.396 84.119C313.054 84.765 312.56 85.2717 311.914 85.639C311.268 86.0063 310.464 86.19 309.501 86.19ZM309.501 84.727C310.286 84.727 310.913 84.48 311.382 83.986C311.851 83.4793 312.104 82.7447 312.142 81.782C312.155 81.592 312.161 81.3513 312.161 81.06C312.161 80.7687 312.155 80.528 312.142 80.338C312.104 79.3753 311.851 78.647 311.382 78.153C310.913 77.6463 310.286 77.393 309.501 77.393C308.716 77.393 308.082 77.6463 307.601 78.153C307.132 78.647 306.885 79.3753 306.86 80.338C306.847 80.528 306.841 80.7687 306.841 81.06C306.841 81.3513 306.847 81.592 306.86 81.782C306.885 82.7447 307.132 83.4793 307.601 83.986C308.082 84.48 308.716 84.727 309.501 84.727ZM316.801 86C316.674 86 316.567 85.962 316.478 85.886C316.402 85.7973 316.364 85.6897 316.364 85.563V76.557C316.364 76.4303 316.402 76.329 316.478 76.253C316.567 76.1643 316.674 76.12 316.801 76.12H317.694C317.821 76.12 317.922 76.1643 317.998 76.253C318.087 76.329 318.131 76.4303 318.131 76.557V77.393C318.46 76.9623 318.872 76.614 319.366 76.348C319.873 76.0693 320.519 75.93 321.304 75.93C322.127 75.93 322.824 76.1137 323.394 76.481C323.977 76.8357 324.414 77.336 324.705 77.982C324.996 78.6153 325.142 79.3563 325.142 80.205V85.563C325.142 85.6897 325.104 85.7973 325.028 85.886C324.952 85.962 324.851 86 324.724 86H323.774C323.647 86 323.54 85.962 323.451 85.886C323.375 85.7973 323.337 85.6897 323.337 85.563V80.3C323.337 79.4133 323.122 78.723 322.691 78.229C322.26 77.7223 321.627 77.469 320.791 77.469C320.006 77.469 319.372 77.7223 318.891 78.229C318.422 78.723 318.188 79.4133 318.188 80.3V85.563C318.188 85.6897 318.144 85.7973 318.055 85.886C317.979 85.962 317.878 86 317.751 86H316.801ZM331.614 86C330.904 86 330.328 85.867 329.885 85.601C329.441 85.3223 329.118 84.936 328.916 84.442C328.713 83.9353 328.612 83.34 328.612 82.656V77.64H327.13C327.003 77.64 326.895 77.602 326.807 77.526C326.731 77.4373 326.693 77.3297 326.693 77.203V76.557C326.693 76.4303 326.731 76.329 326.807 76.253C326.895 76.1643 327.003 76.12 327.13 76.12H328.612V72.947C328.612 72.8203 328.65 72.719 328.726 72.643C328.814 72.5543 328.922 72.51 329.049 72.51H329.942C330.068 72.51 330.17 72.5543 330.246 72.643C330.334 72.719 330.379 72.8203 330.379 72.947V76.12H332.735C332.861 76.12 332.963 76.1643 333.039 76.253C333.127 76.329 333.172 76.4303 333.172 76.557V77.203C333.172 77.3297 333.127 77.4373 333.039 77.526C332.963 77.602 332.861 77.64 332.735 77.64H330.379V82.523C330.379 83.1183 330.48 83.587 330.683 83.929C330.885 84.271 331.246 84.442 331.766 84.442H332.925C333.051 84.442 333.153 84.4863 333.229 84.575C333.317 84.651 333.362 84.7523 333.362 84.879V85.563C333.362 85.6897 333.317 85.7973 333.229 85.886C333.153 85.962 333.051 86 332.925 86H331.614ZM339.111 86.19C337.807 86.19 336.768 85.791 335.995 84.993C335.223 84.1823 334.798 83.0803 334.722 81.687C334.71 81.5223 334.703 81.3133 334.703 81.06C334.703 80.794 334.71 80.5787 334.722 80.414C334.773 79.5147 334.982 78.7293 335.349 78.058C335.717 77.374 336.217 76.8483 336.85 76.481C337.496 76.1137 338.25 75.93 339.111 75.93C340.074 75.93 340.878 76.1327 341.524 76.538C342.183 76.9433 342.683 77.5197 343.025 78.267C343.367 79.0143 343.538 79.8883 343.538 80.889V81.212C343.538 81.3513 343.494 81.459 343.405 81.535C343.329 81.611 343.228 81.649 343.101 81.649H336.527C336.527 81.6617 336.527 81.687 336.527 81.725C336.527 81.763 336.527 81.7947 336.527 81.82C336.553 82.3393 336.667 82.827 336.869 83.283C337.072 83.7263 337.363 84.0873 337.743 84.366C338.123 84.6447 338.579 84.784 339.111 84.784C339.567 84.784 339.947 84.7143 340.251 84.575C340.555 84.4357 340.802 84.2837 340.992 84.119C341.182 83.9417 341.309 83.8087 341.372 83.72C341.486 83.5553 341.575 83.4603 341.638 83.435C341.702 83.397 341.803 83.378 341.942 83.378H342.854C342.981 83.378 343.082 83.416 343.158 83.492C343.247 83.5553 343.285 83.6503 343.272 83.777C343.26 83.967 343.158 84.2013 342.968 84.48C342.778 84.746 342.506 85.012 342.151 85.278C341.797 85.544 341.366 85.7657 340.859 85.943C340.353 86.1077 339.77 86.19 339.111 86.19ZM336.527 80.338H341.733V80.281C341.733 79.711 341.626 79.2043 341.41 78.761C341.208 78.3177 340.91 77.9693 340.517 77.716C340.125 77.45 339.656 77.317 339.111 77.317C338.567 77.317 338.098 77.45 337.705 77.716C337.325 77.9693 337.034 78.3177 336.831 78.761C336.629 79.2043 336.527 79.711 336.527 80.281V80.338ZM346.247 86C346.121 86 346.013 85.962 345.924 85.886C345.848 85.7973 345.81 85.6897 345.81 85.563V76.557C345.81 76.4303 345.848 76.329 345.924 76.253C346.013 76.1643 346.121 76.12 346.247 76.12H347.14C347.267 76.12 347.368 76.1643 347.444 76.253C347.533 76.329 347.577 76.4303 347.577 76.557V77.393C347.907 76.9623 348.318 76.614 348.812 76.348C349.319 76.0693 349.965 75.93 350.75 75.93C351.574 75.93 352.27 76.1137 352.84 76.481C353.423 76.8357 353.86 77.336 354.151 77.982C354.443 78.6153 354.588 79.3563 354.588 80.205V85.563C354.588 85.6897 354.55 85.7973 354.474 85.886C354.398 85.962 354.297 86 354.17 86H353.22C353.094 86 352.986 85.962 352.897 85.886C352.821 85.7973 352.783 85.6897 352.783 85.563V80.3C352.783 79.4133 352.568 78.723 352.137 78.229C351.707 77.7223 351.073 77.469 350.237 77.469C349.452 77.469 348.819 77.7223 348.337 78.229C347.869 78.723 347.634 79.4133 347.634 80.3V85.563C347.634 85.6897 347.59 85.7973 347.501 85.886C347.425 85.962 347.324 86 347.197 86H346.247ZM361.06 86C360.351 86 359.774 85.867 359.331 85.601C358.888 85.3223 358.565 84.936 358.362 84.442C358.159 83.9353 358.058 83.34 358.058 82.656V77.64H356.576C356.449 77.64 356.342 77.602 356.253 77.526C356.177 77.4373 356.139 77.3297 356.139 77.203V76.557C356.139 76.4303 356.177 76.329 356.253 76.253C356.342 76.1643 356.449 76.12 356.576 76.12H358.058V72.947C358.058 72.8203 358.096 72.719 358.172 72.643C358.261 72.5543 358.368 72.51 358.495 72.51H359.388C359.515 72.51 359.616 72.5543 359.692 72.643C359.781 72.719 359.825 72.8203 359.825 72.947V76.12H362.181C362.308 76.12 362.409 76.1643 362.485 76.253C362.574 76.329 362.618 76.4303 362.618 76.557V77.203C362.618 77.3297 362.574 77.4373 362.485 77.526C362.409 77.602 362.308 77.64 362.181 77.64H359.825V82.523C359.825 83.1183 359.926 83.587 360.129 83.929C360.332 84.271 360.693 84.442 361.212 84.442H362.371C362.498 84.442 362.599 84.4863 362.675 84.575C362.764 84.651 362.808 84.7523 362.808 84.879V85.563C362.808 85.6897 362.764 85.7973 362.675 85.886C362.599 85.962 362.498 86 362.371 86H361.06ZM369.719 86C369.592 86 369.485 85.962 369.396 85.886C369.32 85.7973 369.282 85.6897 369.282 85.563V76.557C369.282 76.4303 369.32 76.329 369.396 76.253C369.485 76.1643 369.592 76.12 369.719 76.12H370.631C370.758 76.12 370.859 76.1643 370.935 76.253C371.011 76.329 371.049 76.4303 371.049 76.557V85.563C371.049 85.6897 371.011 85.7973 370.935 85.886C370.859 85.962 370.758 86 370.631 86H369.719ZM369.567 74.277C369.44 74.277 369.333 74.239 369.244 74.163C369.168 74.0743 369.13 73.9667 369.13 73.84V72.814C369.13 72.6873 369.168 72.586 369.244 72.51C369.333 72.4213 369.44 72.377 369.567 72.377H370.764C370.891 72.377 370.992 72.4213 371.068 72.51C371.157 72.586 371.201 72.6873 371.201 72.814V73.84C371.201 73.9667 371.157 74.0743 371.068 74.163C370.992 74.239 370.891 74.277 370.764 74.277H369.567ZM374.506 86C374.379 86 374.272 85.962 374.183 85.886C374.107 85.7973 374.069 85.6897 374.069 85.563V76.557C374.069 76.4303 374.107 76.329 374.183 76.253C374.272 76.1643 374.379 76.12 374.506 76.12H375.399C375.526 76.12 375.627 76.1643 375.703 76.253C375.792 76.329 375.836 76.4303 375.836 76.557V77.393C376.165 76.9623 376.577 76.614 377.071 76.348C377.578 76.0693 378.224 75.93 379.009 75.93C379.832 75.93 380.529 76.1137 381.099 76.481C381.682 76.8357 382.119 77.336 382.41 77.982C382.701 78.6153 382.847 79.3563 382.847 80.205V85.563C382.847 85.6897 382.809 85.7973 382.733 85.886C382.657 85.962 382.556 86 382.429 86H381.479C381.352 86 381.245 85.962 381.156 85.886C381.08 85.7973 381.042 85.6897 381.042 85.563V80.3C381.042 79.4133 380.827 78.723 380.396 78.229C379.965 77.7223 379.332 77.469 378.496 77.469C377.711 77.469 377.077 77.7223 376.596 78.229C376.127 78.723 375.893 79.4133 375.893 80.3V85.563C375.893 85.6897 375.849 85.7973 375.76 85.886C375.684 85.962 375.583 86 375.456 86H374.506ZM389.012 86.19C388.302 86.19 387.694 86.1013 387.188 85.924C386.681 85.7467 386.269 85.5313 385.953 85.278C385.636 85.0247 385.395 84.7713 385.231 84.518C385.079 84.2647 384.996 84.062 384.984 83.91C384.971 83.7707 385.015 83.663 385.117 83.587C385.218 83.511 385.319 83.473 385.421 83.473H386.257C386.333 83.473 386.39 83.4857 386.428 83.511C386.478 83.5237 386.542 83.5743 386.618 83.663C386.782 83.8403 386.966 84.0177 387.169 84.195C387.371 84.3723 387.618 84.518 387.91 84.632C388.214 84.746 388.587 84.803 389.031 84.803C389.677 84.803 390.209 84.6827 390.627 84.442C391.045 84.1887 391.254 83.8213 391.254 83.34C391.254 83.0233 391.165 82.77 390.988 82.58C390.823 82.39 390.519 82.219 390.076 82.067C389.645 81.915 389.05 81.7567 388.29 81.592C387.53 81.4147 386.928 81.1993 386.485 80.946C386.041 80.68 385.725 80.3697 385.535 80.015C385.345 79.6477 385.25 79.236 385.25 78.78C385.25 78.3113 385.389 77.8617 385.668 77.431C385.946 76.9877 386.352 76.6267 386.884 76.348C387.428 76.0693 388.106 75.93 388.917 75.93C389.575 75.93 390.139 76.0123 390.608 76.177C391.076 76.3417 391.463 76.5507 391.767 76.804C392.071 77.0447 392.299 77.2853 392.451 77.526C392.603 77.7667 392.685 77.9693 392.698 78.134C392.71 78.2607 392.672 78.3683 392.584 78.457C392.495 78.533 392.394 78.571 392.28 78.571H391.482C391.393 78.571 391.317 78.552 391.254 78.514C391.203 78.476 391.152 78.4317 391.102 78.381C390.975 78.2163 390.823 78.0517 390.646 77.887C390.481 77.7223 390.259 77.5893 389.981 77.488C389.715 77.374 389.36 77.317 388.917 77.317C388.283 77.317 387.808 77.45 387.492 77.716C387.175 77.982 387.017 78.3177 387.017 78.723C387.017 78.9637 387.086 79.179 387.226 79.369C387.365 79.559 387.631 79.73 388.024 79.882C388.416 80.034 388.999 80.1987 389.772 80.376C390.608 80.5407 391.266 80.7623 391.748 81.041C392.229 81.3197 392.571 81.6427 392.774 82.01C392.976 82.3773 393.078 82.8017 393.078 83.283C393.078 83.815 392.919 84.3027 392.603 84.746C392.299 85.1893 391.843 85.544 391.235 85.81C390.639 86.0633 389.898 86.19 389.012 86.19ZM395.714 86C395.587 86 395.48 85.962 395.391 85.886C395.315 85.7973 395.277 85.6897 395.277 85.563V76.557C395.277 76.4303 395.315 76.329 395.391 76.253C395.48 76.1643 395.587 76.12 395.714 76.12H396.626C396.753 76.12 396.854 76.1643 396.93 76.253C397.006 76.329 397.044 76.4303 397.044 76.557V85.563C397.044 85.6897 397.006 85.7973 396.93 85.886C396.854 85.962 396.753 86 396.626 86H395.714ZM395.562 74.277C395.435 74.277 395.328 74.239 395.239 74.163C395.163 74.0743 395.125 73.9667 395.125 73.84V72.814C395.125 72.6873 395.163 72.586 395.239 72.51C395.328 72.4213 395.435 72.377 395.562 72.377H396.759C396.886 72.377 396.987 72.4213 397.063 72.51C397.152 72.586 397.196 72.6873 397.196 72.814V73.84C397.196 73.9667 397.152 74.0743 397.063 74.163C396.987 74.239 396.886 74.277 396.759 74.277H395.562ZM403.489 86.19C402.792 86.19 402.19 86.0697 401.684 85.829C401.177 85.5757 400.759 85.24 400.43 84.822C400.113 84.3913 399.872 83.9037 399.708 83.359C399.556 82.8143 399.467 82.238 399.442 81.63C399.429 81.4273 399.423 81.2373 399.423 81.06C399.423 80.8827 399.429 80.6927 399.442 80.49C399.467 79.8947 399.556 79.3247 399.708 78.78C399.872 78.2353 400.113 77.7477 400.43 77.317C400.759 76.8863 401.177 76.5507 401.684 76.31C402.19 76.0567 402.792 75.93 403.489 75.93C404.236 75.93 404.857 76.063 405.351 76.329C405.845 76.595 406.25 76.9243 406.567 77.317V72.947C406.567 72.8203 406.605 72.719 406.681 72.643C406.769 72.5543 406.877 72.51 407.004 72.51H407.916C408.042 72.51 408.144 72.5543 408.22 72.643C408.308 72.719 408.353 72.8203 408.353 72.947V85.563C408.353 85.6897 408.308 85.7973 408.22 85.886C408.144 85.962 408.042 86 407.916 86H407.061C406.921 86 406.814 85.962 406.738 85.886C406.662 85.7973 406.624 85.6897 406.624 85.563V84.765C406.307 85.1703 405.895 85.5123 405.389 85.791C404.882 86.057 404.249 86.19 403.489 86.19ZM403.888 84.651C404.521 84.651 405.028 84.5053 405.408 84.214C405.788 83.9227 406.073 83.5553 406.263 83.112C406.453 82.656 406.554 82.1937 406.567 81.725C406.579 81.5223 406.586 81.2817 406.586 81.003C406.586 80.7117 406.579 80.4647 406.567 80.262C406.554 79.8187 406.446 79.3817 406.244 78.951C406.054 78.5203 405.762 78.1657 405.37 77.887C404.99 77.6083 404.496 77.469 403.888 77.469C403.242 77.469 402.729 77.6147 402.349 77.906C401.969 78.1847 401.696 78.5583 401.532 79.027C401.367 79.483 401.272 79.977 401.247 80.509C401.234 80.8763 401.234 81.2437 401.247 81.611C401.272 82.143 401.367 82.6433 401.532 83.112C401.696 83.568 401.969 83.9417 402.349 84.233C402.729 84.5117 403.242 84.651 403.888 84.651ZM415.111 86.19C413.807 86.19 412.768 85.791 411.995 84.993C411.223 84.1823 410.798 83.0803 410.722 81.687C410.71 81.5223 410.703 81.3133 410.703 81.06C410.703 80.794 410.71 80.5787 410.722 80.414C410.773 79.5147 410.982 78.7293 411.349 78.058C411.717 77.374 412.217 76.8483 412.85 76.481C413.496 76.1137 414.25 75.93 415.111 75.93C416.074 75.93 416.878 76.1327 417.524 76.538C418.183 76.9433 418.683 77.5197 419.025 78.267C419.367 79.0143 419.538 79.8883 419.538 80.889V81.212C419.538 81.3513 419.494 81.459 419.405 81.535C419.329 81.611 419.228 81.649 419.101 81.649H412.527C412.527 81.6617 412.527 81.687 412.527 81.725C412.527 81.763 412.527 81.7947 412.527 81.82C412.553 82.3393 412.667 82.827 412.869 83.283C413.072 83.7263 413.363 84.0873 413.743 84.366C414.123 84.6447 414.579 84.784 415.111 84.784C415.567 84.784 415.947 84.7143 416.251 84.575C416.555 84.4357 416.802 84.2837 416.992 84.119C417.182 83.9417 417.309 83.8087 417.372 83.72C417.486 83.5553 417.575 83.4603 417.638 83.435C417.702 83.397 417.803 83.378 417.942 83.378H418.854C418.981 83.378 419.082 83.416 419.158 83.492C419.247 83.5553 419.285 83.6503 419.272 83.777C419.26 83.967 419.158 84.2013 418.968 84.48C418.778 84.746 418.506 85.012 418.151 85.278C417.797 85.544 417.366 85.7657 416.859 85.943C416.353 86.1077 415.77 86.19 415.111 86.19ZM412.527 80.338H417.733V80.281C417.733 79.711 417.626 79.2043 417.41 78.761C417.208 78.3177 416.91 77.9693 416.517 77.716C416.125 77.45 415.656 77.317 415.111 77.317C414.567 77.317 414.098 77.45 413.705 77.716C413.325 77.9693 413.034 78.3177 412.831 78.761C412.629 79.2043 412.527 79.711 412.527 80.281V80.338ZM431.351 86.19C430.591 86.19 429.957 86.057 429.451 85.791C428.944 85.5123 428.539 85.1703 428.235 84.765V85.563C428.235 85.6897 428.19 85.7973 428.102 85.886C428.026 85.962 427.924 86 427.798 86H426.924C426.797 86 426.689 85.962 426.601 85.886C426.525 85.7973 426.487 85.6897 426.487 85.563V72.947C426.487 72.8203 426.525 72.719 426.601 72.643C426.689 72.5543 426.797 72.51 426.924 72.51H427.836C427.975 72.51 428.083 72.5543 428.159 72.643C428.235 72.719 428.273 72.8203 428.273 72.947V77.317C428.589 76.9243 428.995 76.595 429.489 76.329C429.995 76.063 430.616 75.93 431.351 75.93C432.06 75.93 432.662 76.0567 433.156 76.31C433.662 76.5507 434.074 76.8863 434.391 77.317C434.72 77.7477 434.967 78.2353 435.132 78.78C435.296 79.3247 435.385 79.8947 435.398 80.49C435.41 80.6927 435.417 80.8827 435.417 81.06C435.417 81.2373 435.41 81.4273 435.398 81.63C435.385 82.238 435.296 82.8143 435.132 83.359C434.967 83.9037 434.72 84.3913 434.391 84.822C434.074 85.24 433.662 85.5757 433.156 85.829C432.662 86.0697 432.06 86.19 431.351 86.19ZM430.952 84.651C431.61 84.651 432.123 84.5117 432.491 84.233C432.871 83.9417 433.143 83.568 433.308 83.112C433.472 82.6433 433.567 82.143 433.593 81.611C433.605 81.2437 433.605 80.8763 433.593 80.509C433.567 79.977 433.472 79.483 433.308 79.027C433.143 78.5583 432.871 78.1847 432.491 77.906C432.123 77.6147 431.61 77.469 430.952 77.469C430.356 77.469 429.862 77.6083 429.47 77.887C429.077 78.1657 428.779 78.5203 428.577 78.951C428.387 79.3817 428.285 79.8187 428.273 80.262C428.26 80.4647 428.254 80.7117 428.254 81.003C428.254 81.2817 428.26 81.5223 428.273 81.725C428.298 82.1937 428.399 82.656 428.577 83.112C428.767 83.5553 429.052 83.9227 429.432 84.214C429.824 84.5053 430.331 84.651 430.952 84.651ZM441.814 86.19C440.852 86.19 440.047 86.0063 439.401 85.639C438.755 85.2717 438.261 84.765 437.919 84.119C437.577 83.4603 437.387 82.713 437.349 81.877C437.337 81.6617 437.33 81.3893 437.33 81.06C437.33 80.718 437.337 80.4457 437.349 80.243C437.387 79.3943 437.577 78.647 437.919 78.001C438.274 77.355 438.774 76.8483 439.42 76.481C440.066 76.1137 440.864 75.93 441.814 75.93C442.764 75.93 443.562 76.1137 444.208 76.481C444.854 76.8483 445.348 77.355 445.69 78.001C446.045 78.647 446.241 79.3943 446.279 80.243C446.292 80.4457 446.298 80.718 446.298 81.06C446.298 81.3893 446.292 81.6617 446.279 81.877C446.241 82.713 446.051 83.4603 445.709 84.119C445.367 84.765 444.873 85.2717 444.227 85.639C443.581 86.0063 442.777 86.19 441.814 86.19ZM441.814 84.727C442.6 84.727 443.227 84.48 443.695 83.986C444.164 83.4793 444.417 82.7447 444.455 81.782C444.468 81.592 444.474 81.3513 444.474 81.06C444.474 80.7687 444.468 80.528 444.455 80.338C444.417 79.3753 444.164 78.647 443.695 78.153C443.227 77.6463 442.6 77.393 441.814 77.393C441.029 77.393 440.396 77.6463 439.914 78.153C439.446 78.647 439.199 79.3753 439.173 80.338C439.161 80.528 439.154 80.7687 439.154 81.06C439.154 81.3513 439.161 81.592 439.173 81.782C439.199 82.7447 439.446 83.4793 439.914 83.986C440.396 84.48 441.029 84.727 441.814 84.727ZM452.287 86.19C451.591 86.19 450.989 86.0697 450.482 85.829C449.976 85.5757 449.558 85.24 449.228 84.822C448.912 84.3913 448.671 83.9037 448.506 83.359C448.354 82.8143 448.266 82.238 448.24 81.63C448.228 81.4273 448.221 81.2373 448.221 81.06C448.221 80.8827 448.228 80.6927 448.24 80.49C448.266 79.8947 448.354 79.3247 448.506 78.78C448.671 78.2353 448.912 77.7477 449.228 77.317C449.558 76.8863 449.976 76.5507 450.482 76.31C450.989 76.0567 451.591 75.93 452.287 75.93C453.035 75.93 453.655 76.063 454.149 76.329C454.643 76.595 455.049 76.9243 455.365 77.317V72.947C455.365 72.8203 455.403 72.719 455.479 72.643C455.568 72.5543 455.676 72.51 455.802 72.51H456.714C456.841 72.51 456.942 72.5543 457.018 72.643C457.107 72.719 457.151 72.8203 457.151 72.947V85.563C457.151 85.6897 457.107 85.7973 457.018 85.886C456.942 85.962 456.841 86 456.714 86H455.859C455.72 86 455.612 85.962 455.536 85.886C455.46 85.7973 455.422 85.6897 455.422 85.563V84.765C455.106 85.1703 454.694 85.5123 454.187 85.791C453.681 86.057 453.047 86.19 452.287 86.19ZM452.686 84.651C453.32 84.651 453.826 84.5053 454.206 84.214C454.586 83.9227 454.871 83.5553 455.061 83.112C455.251 82.656 455.353 82.1937 455.365 81.725C455.378 81.5223 455.384 81.2817 455.384 81.003C455.384 80.7117 455.378 80.4647 455.365 80.262C455.353 79.8187 455.245 79.3817 455.042 78.951C454.852 78.5203 454.561 78.1657 454.168 77.887C453.788 77.6083 453.294 77.469 452.686 77.469C452.04 77.469 451.527 77.6147 451.147 77.906C450.767 78.1847 450.495 78.5583 450.33 79.027C450.166 79.483 450.071 79.977 450.045 80.509C450.033 80.8763 450.033 81.2437 450.045 81.611C450.071 82.143 450.166 82.6433 450.33 83.112C450.495 83.568 450.767 83.9417 451.147 84.233C451.527 84.5117 452.04 84.651 452.686 84.651ZM461.706 89.61C461.605 89.61 461.516 89.572 461.44 89.496C461.364 89.42 461.326 89.3313 461.326 89.23C461.326 89.1793 461.333 89.1287 461.345 89.078C461.358 89.0273 461.383 88.964 461.421 88.888L462.884 85.411L459.255 76.842C459.192 76.69 459.16 76.5823 459.16 76.519C459.16 76.405 459.198 76.31 459.274 76.234C459.35 76.158 459.445 76.12 459.559 76.12H460.49C460.617 76.12 460.718 76.1517 460.794 76.215C460.87 76.2783 460.921 76.3543 460.946 76.443L463.834 83.359L466.798 76.443C466.836 76.3543 466.887 76.2783 466.95 76.215C467.026 76.1517 467.134 76.12 467.273 76.12H468.166C468.28 76.12 468.375 76.158 468.451 76.234C468.527 76.31 468.565 76.3987 468.565 76.5C468.565 76.5633 468.534 76.6773 468.47 76.842L463.074 89.287C463.036 89.3757 462.979 89.4517 462.903 89.515C462.84 89.5783 462.739 89.61 462.599 89.61H461.706Z" fill="white"/>
<g filter="url(#filter0_d_169_21)">
<path d="M4 12C4 5.37258 9.37258 0 16 0H578C584.627 0 590 5.37258 590 12V43H4V12Z" fill="#242526"/>
</g>
<ellipse cx="29.1279" cy="21.9139" rx="5.84369" ry="6.72025" fill="#E65100"/>
<ellipse cx="48.4121" cy="21.9139" rx="5.84369" ry="6.72025" fill="#FFD600"/>
<ellipse cx="67.6962" cy="21.9139" rx="5.84369" ry="6.72025" fill="#4EC433"/>
<defs>
<filter id="filter0_d_169_21" x="0" y="0" width="594" height="51" filterUnits="userSpaceOnUse" color-interpolation-filters="sRGB">
<feFlood flood-opacity="0" result="BackgroundImageFix"/>
<feColorMatrix in="SourceAlpha" type="matrix" values="0 0 0 0 0 0 0 0 0 0 0 0 0 0 0 0 0 0 127 0" result="hardAlpha"/>
<feOffset dy="4"/>
<feGaussianBlur stdDeviation="2"/>
<feComposite in2="hardAlpha" operator="out"/>
<feColorMatrix type="matrix" values="0 0 0 0 0 0 0 0 0 0 0 0 0 0 0 0 0 0 0.25 0"/>
<feBlend mode="normal" in2="BackgroundImageFix" result="effect1_dropShadow_169_21"/>
<feBlend mode="normal" in="SourceGraphic" in2="effect1_dropShadow_169_21" result="shape"/>
</filter>
</defs>
</svg>
