<svg width="594" height="160" viewBox="0 0 594 160" fill="none" xmlns="http://www.w3.org/2000/svg">
<rect x="4" width="586" height="160" rx="12" fill="#242526"/>
<path d="M30.676 85.525C30.6 85.525 30.5177 85.4997 30.429 85.449C30.353 85.3983 30.2833 85.3603 30.22 85.335L24.235 81.212C24.045 81.0853 23.9057 80.9587 23.817 80.832C23.7283 80.6927 23.684 80.5343 23.684 80.357V80.015C23.684 79.8377 23.7283 79.6857 23.817 79.559C23.9057 79.4323 24.045 79.2993 24.235 79.16L30.22 75.056C30.2833 75.018 30.353 74.9737 30.429 74.923C30.5177 74.8723 30.6 74.847 30.676 74.847C30.7773 74.847 30.866 74.885 30.942 74.961C31.018 75.0243 31.056 75.1193 31.056 75.246V76.082C31.056 76.2213 31.018 76.3417 30.942 76.443C30.866 76.5317 30.7583 76.6203 30.619 76.709L25.527 80.186L30.619 83.663C30.7583 83.7643 30.866 83.8593 30.942 83.948C31.018 84.0367 31.056 84.157 31.056 84.309V85.145C31.056 85.259 31.018 85.354 30.942 85.43C30.866 85.4933 30.7773 85.525 30.676 85.525ZM54.6378 85.506C54.5365 85.506 54.4478 85.4743 54.3718 85.411C54.2958 85.3477 54.2578 85.2527 54.2578 85.126V84.29C54.2578 84.138 54.2895 84.0177 54.3528 83.929C54.4288 83.8403 54.5428 83.7517 54.6948 83.663L59.7678 80.186L54.6948 76.709C54.5428 76.6077 54.4288 76.5127 54.3528 76.424C54.2895 76.3353 54.2578 76.215 54.2578 76.063V75.227C54.2578 75.1003 54.2958 75.0053 54.3718 74.942C54.4478 74.8787 54.5365 74.847 54.6378 74.847C54.7138 74.847 54.7962 74.8723 54.8848 74.923C54.9735 74.961 55.0432 74.999 55.0938 75.037L61.0598 79.141C61.2625 79.2803 61.4018 79.4133 61.4778 79.54C61.5665 79.6667 61.6108 79.825 61.6108 80.015V80.338C61.6108 80.5153 61.5665 80.6737 61.4778 80.813C61.4018 80.9397 61.2625 81.0727 61.0598 81.212L55.0938 85.316C55.0432 85.354 54.9735 85.3983 54.8848 85.449C54.7962 85.487 54.7138 85.506 54.6378 85.506ZM217.485 85.525C217.409 85.525 217.326 85.4997 217.238 85.449C217.162 85.3983 217.092 85.3603 217.029 85.335L211.044 81.212C210.854 81.0853 210.714 80.9587 210.626 80.832C210.537 80.6927 210.493 80.5343 210.493 80.357V80.015C210.493 79.8377 210.537 79.6857 210.626 79.559C210.714 79.4323 210.854 79.2993 211.044 79.16L217.029 75.056C217.092 75.018 217.162 74.9737 217.238 74.923C217.326 74.8723 217.409 74.847 217.485 74.847C217.586 74.847 217.675 74.885 217.751 74.961C217.827 75.0243 217.865 75.1193 217.865 75.246V76.082C217.865 76.2213 217.827 76.3417 217.751 76.443C217.675 76.5317 217.567 76.6203 217.428 76.709L212.336 80.186L217.428 83.663C217.567 83.7643 217.675 83.8593 217.751 83.948C217.827 84.0367 217.865 84.157 217.865 84.309V85.145C217.865 85.259 217.827 85.354 217.751 85.43C217.675 85.4933 217.586 85.525 217.485 85.525ZM255.251 85.506C255.15 85.506 255.061 85.4743 254.985 85.411C254.909 85.3477 254.871 85.2527 254.871 85.126V84.29C254.871 84.138 254.903 84.0177 254.966 83.929C255.042 83.8403 255.156 83.7517 255.308 83.663L260.381 80.186L255.308 76.709C255.156 76.6077 255.042 76.5127 254.966 76.424C254.903 76.3353 254.871 76.215 254.871 76.063V75.227C254.871 75.1003 254.909 75.0053 254.985 74.942C255.061 74.8787 255.15 74.847 255.251 74.847C255.327 74.847 255.409 74.8723 255.498 74.923C255.587 74.961 255.656 74.999 255.707 75.037L261.673 79.141C261.876 79.2803 262.015 79.4133 262.091 79.54C262.18 79.6667 262.224 79.825 262.224 80.015V80.338C262.224 80.5153 262.18 80.6737 262.091 80.813C262.015 80.9397 261.876 81.0727 261.673 81.212L255.707 85.316C255.656 85.354 255.587 85.3983 255.498 85.449C255.409 85.487 255.327 85.506 255.251 85.506Z" fill="#647DFF"/>
<path d="M43.2978 86.19C42.5378 86.19 41.9045 86.057 41.3978 85.791C40.8911 85.5123 40.4858 85.1703 40.1818 84.765V85.563C40.1818 85.6897 40.1375 85.7973 40.0488 85.886C39.9728 85.962 39.8715 86 39.7448 86H38.8708C38.7441 86 38.6365 85.962 38.5478 85.886C38.4718 85.7973 38.4338 85.6897 38.4338 85.563V72.947C38.4338 72.8203 38.4718 72.719 38.5478 72.643C38.6365 72.5543 38.7441 72.51 38.8708 72.51H39.7828C39.9221 72.51 40.0298 72.5543 40.1058 72.643C40.1818 72.719 40.2198 72.8203 40.2198 72.947V77.317C40.5365 76.9243 40.9418 76.595 41.4358 76.329C41.9425 76.063 42.5631 75.93 43.2978 75.93C44.0071 75.93 44.6088 76.0567 45.1028 76.31C45.6095 76.5507 46.0211 76.8863 46.3378 77.317C46.6671 77.7477 46.9141 78.2353 47.0788 78.78C47.2435 79.3247 47.3321 79.8947 47.3448 80.49C47.3575 80.6927 47.3638 80.8827 47.3638 81.06C47.3638 81.2373 47.3575 81.4273 47.3448 81.63C47.3321 82.238 47.2435 82.8143 47.0788 83.359C46.9141 83.9037 46.6671 84.3913 46.3378 84.822C46.0211 85.24 45.6095 85.5757 45.1028 85.829C44.6088 86.0697 44.0071 86.19 43.2978 86.19ZM42.8988 84.651C43.5575 84.651 44.0705 84.5117 44.4378 84.233C44.8178 83.9417 45.0901 83.568 45.2548 83.112C45.4195 82.6433 45.5145 82.143 45.5398 81.611C45.5525 81.2437 45.5525 80.8763 45.5398 80.509C45.5145 79.977 45.4195 79.483 45.2548 79.027C45.0901 78.5583 44.8178 78.1847 44.4378 77.906C44.0705 77.6147 43.5575 77.469 42.8988 77.469C42.3035 77.469 41.8095 77.6083 41.4168 77.887C41.0241 78.1657 40.7265 78.5203 40.5238 78.951C40.3338 79.3817 40.2325 79.8187 40.2198 80.262C40.2071 80.4647 40.2008 80.7117 40.2008 81.003C40.2008 81.2817 40.2071 81.5223 40.2198 81.725C40.2451 82.1937 40.3465 82.656 40.5238 83.112C40.7138 83.5553 40.9988 83.9227 41.3788 84.214C41.7715 84.5053 42.2781 84.651 42.8988 84.651ZM224.691 87.596C224.59 87.596 224.501 87.558 224.425 87.482C224.349 87.406 224.311 87.3173 224.311 87.216C224.311 87.1527 224.33 87.0767 224.368 86.988L230.866 71.408C230.904 71.332 230.955 71.256 231.018 71.18C231.094 71.104 231.208 71.066 231.36 71.066H232.101C232.203 71.066 232.291 71.104 232.367 71.18C232.443 71.256 232.481 71.3447 232.481 71.446C232.481 71.4967 232.469 71.5727 232.443 71.674L225.926 87.254C225.901 87.3173 225.844 87.387 225.755 87.463C225.679 87.5517 225.572 87.596 225.432 87.596H224.691ZM243.911 86.19C243.151 86.19 242.518 86.057 242.011 85.791C241.504 85.5123 241.099 85.1703 240.795 84.765V85.563C240.795 85.6897 240.751 85.7973 240.662 85.886C240.586 85.962 240.485 86 240.358 86H239.484C239.357 86 239.25 85.962 239.161 85.886C239.085 85.7973 239.047 85.6897 239.047 85.563V72.947C239.047 72.8203 239.085 72.719 239.161 72.643C239.25 72.5543 239.357 72.51 239.484 72.51H240.396C240.535 72.51 240.643 72.5543 240.719 72.643C240.795 72.719 240.833 72.8203 240.833 72.947V77.317C241.15 76.9243 241.555 76.595 242.049 76.329C242.556 76.063 243.176 75.93 243.911 75.93C244.62 75.93 245.222 76.0567 245.716 76.31C246.223 76.5507 246.634 76.8863 246.951 77.317C247.28 77.7477 247.527 78.2353 247.692 78.78C247.857 79.3247 247.945 79.8947 247.958 80.49C247.971 80.6927 247.977 80.8827 247.977 81.06C247.977 81.2373 247.971 81.4273 247.958 81.63C247.945 82.238 247.857 82.8143 247.692 83.359C247.527 83.9037 247.28 84.3913 246.951 84.822C246.634 85.24 246.223 85.5757 245.716 85.829C245.222 86.0697 244.62 86.19 243.911 86.19ZM243.512 84.651C244.171 84.651 244.684 84.5117 245.051 84.233C245.431 83.9417 245.703 83.568 245.868 83.112C246.033 82.6433 246.128 82.143 246.153 81.611C246.166 81.2437 246.166 80.8763 246.153 80.509C246.128 79.977 246.033 79.483 245.868 79.027C245.703 78.5583 245.431 78.1847 245.051 77.906C244.684 77.6147 244.171 77.469 243.512 77.469C242.917 77.469 242.423 77.6083 242.03 77.887C241.637 78.1657 241.34 78.5203 241.137 78.951C240.947 79.3817 240.846 79.8187 240.833 80.262C240.82 80.4647 240.814 80.7117 240.814 81.003C240.814 81.2817 240.82 81.5223 240.833 81.725C240.858 82.1937 240.96 82.656 241.137 83.112C241.327 83.5553 241.612 83.9227 241.992 84.214C242.385 84.5053 242.891 84.651 243.512 84.651Z" fill="white" fill-opacity="0.75"/>
<path d="M71.9531 86C71.8264 86 71.7187 85.962 71.6301 85.886C71.5541 85.7973 71.5161 85.6897 71.5161 85.563V74.391H67.8681C67.7414 74.391 67.6337 74.353 67.5451 74.277C67.4691 74.1883 67.4311 74.0807 67.4311 73.954V73.156C67.4311 73.0167 67.4691 72.909 67.5451 72.833C67.6337 72.7443 67.7414 72.7 67.8681 72.7H77.0261C77.1654 72.7 77.2731 72.7443 77.3491 72.833C77.4377 72.909 77.4821 73.0167 77.4821 73.156V73.954C77.4821 74.0807 77.4377 74.1883 77.3491 74.277C77.2731 74.353 77.1654 74.391 77.0261 74.391H73.3971V85.563C73.3971 85.6897 73.3527 85.7973 73.2641 85.886C73.1881 85.962 73.0804 86 72.9411 86H71.9531ZM79.4313 86C79.3047 86 79.197 85.962 79.1083 85.886C79.0323 85.7973 78.9943 85.6897 78.9943 85.563V72.947C78.9943 72.8203 79.0323 72.719 79.1083 72.643C79.197 72.5543 79.3047 72.51 79.4313 72.51H80.3813C80.5207 72.51 80.6283 72.5543 80.7043 72.643C80.7803 72.719 80.8183 72.8203 80.8183 72.947V77.374C81.1603 76.9433 81.5783 76.595 82.0723 76.329C82.5663 76.063 83.1933 75.93 83.9533 75.93C84.7767 75.93 85.4733 76.1137 86.0433 76.481C86.626 76.8357 87.063 77.336 87.3543 77.982C87.6583 78.6153 87.8103 79.3563 87.8103 80.205V85.563C87.8103 85.6897 87.7723 85.7973 87.6963 85.886C87.6203 85.962 87.5127 86 87.3733 86H86.4233C86.2967 86 86.189 85.962 86.1003 85.886C86.0243 85.7973 85.9863 85.6897 85.9863 85.563V80.3C85.9863 79.4133 85.771 78.723 85.3403 78.229C84.9097 77.7223 84.2763 77.469 83.4403 77.469C82.655 77.469 82.0217 77.7223 81.5403 78.229C81.059 78.723 80.8183 79.4133 80.8183 80.3V85.563C80.8183 85.6897 80.7803 85.7973 80.7043 85.886C80.6283 85.962 80.5207 86 80.3813 86H79.4313ZM90.9905 86C90.8638 86 90.7561 85.962 90.6675 85.886C90.5915 85.7973 90.5535 85.6897 90.5535 85.563V76.557C90.5535 76.4303 90.5915 76.329 90.6675 76.253C90.7561 76.1643 90.8638 76.12 90.9905 76.12H91.9025C92.0291 76.12 92.1305 76.1643 92.2065 76.253C92.2825 76.329 92.3205 76.4303 92.3205 76.557V85.563C92.3205 85.6897 92.2825 85.7973 92.2065 85.886C92.1305 85.962 92.0291 86 91.9025 86H90.9905ZM90.8385 74.277C90.7118 74.277 90.6041 74.239 90.5155 74.163C90.4395 74.0743 90.4015 73.9667 90.4015 73.84V72.814C90.4015 72.6873 90.4395 72.586 90.5155 72.51C90.6041 72.4213 90.7118 72.377 90.8385 72.377H92.0355C92.1621 72.377 92.2635 72.4213 92.3395 72.51C92.4281 72.586 92.4725 72.6873 92.4725 72.814V73.84C92.4725 73.9667 92.4281 74.0743 92.3395 74.163C92.2635 74.239 92.1621 74.277 92.0355 74.277H90.8385ZM98.6864 86.19C97.977 86.19 97.369 86.1013 96.8624 85.924C96.3557 85.7467 95.944 85.5313 95.6274 85.278C95.3107 85.0247 95.07 84.7713 94.9054 84.518C94.7534 84.2647 94.671 84.062 94.6584 83.91C94.6457 83.7707 94.69 83.663 94.7914 83.587C94.8927 83.511 94.994 83.473 95.0954 83.473H95.9314C96.0074 83.473 96.0644 83.4857 96.1024 83.511C96.153 83.5237 96.2164 83.5743 96.2924 83.663C96.457 83.8403 96.6407 84.0177 96.8434 84.195C97.046 84.3723 97.293 84.518 97.5844 84.632C97.8884 84.746 98.262 84.803 98.7054 84.803C99.3514 84.803 99.8834 84.6827 100.301 84.442C100.719 84.1887 100.928 83.8213 100.928 83.34C100.928 83.0233 100.84 82.77 100.662 82.58C100.498 82.39 100.194 82.219 99.7504 82.067C99.3197 81.915 98.7244 81.7567 97.9644 81.592C97.2044 81.4147 96.6027 81.1993 96.1594 80.946C95.716 80.68 95.3994 80.3697 95.2094 80.015C95.0194 79.6477 94.9244 79.236 94.9244 78.78C94.9244 78.3113 95.0637 77.8617 95.3424 77.431C95.621 76.9877 96.0264 76.6267 96.5584 76.348C97.103 76.0693 97.7807 75.93 98.5914 75.93C99.25 75.93 99.8137 76.0123 100.282 76.177C100.751 76.3417 101.137 76.5507 101.441 76.804C101.745 77.0447 101.973 77.2853 102.125 77.526C102.277 77.7667 102.36 77.9693 102.372 78.134C102.385 78.2607 102.347 78.3683 102.258 78.457C102.17 78.533 102.068 78.571 101.954 78.571H101.156C101.068 78.571 100.992 78.552 100.928 78.514C100.878 78.476 100.827 78.4317 100.776 78.381C100.65 78.2163 100.498 78.0517 100.32 77.887C100.156 77.7223 99.934 77.5893 99.6554 77.488C99.3894 77.374 99.0347 77.317 98.5914 77.317C97.958 77.317 97.483 77.45 97.1664 77.716C96.8497 77.982 96.6914 78.3177 96.6914 78.723C96.6914 78.9637 96.761 79.179 96.9004 79.369C97.0397 79.559 97.3057 79.73 97.6984 79.882C98.091 80.034 98.6737 80.1987 99.4464 80.376C100.282 80.5407 100.941 80.7623 101.422 81.041C101.904 81.3197 102.246 81.6427 102.448 82.01C102.651 82.3773 102.752 82.8017 102.752 83.283C102.752 83.815 102.594 84.3027 102.277 84.746C101.973 85.1893 101.517 85.544 100.909 85.81C100.314 86.0633 99.573 86.19 98.6864 86.19ZM113.058 86C112.349 86 111.772 85.867 111.329 85.601C110.886 85.3223 110.563 84.936 110.36 84.442C110.157 83.9353 110.056 83.34 110.056 82.656V77.64H108.574C108.447 77.64 108.34 77.602 108.251 77.526C108.175 77.4373 108.137 77.3297 108.137 77.203V76.557C108.137 76.4303 108.175 76.329 108.251 76.253C108.34 76.1643 108.447 76.12 108.574 76.12H110.056V72.947C110.056 72.8203 110.094 72.719 110.17 72.643C110.259 72.5543 110.366 72.51 110.493 72.51H111.386C111.513 72.51 111.614 72.5543 111.69 72.643C111.779 72.719 111.823 72.8203 111.823 72.947V76.12H114.179C114.306 76.12 114.407 76.1643 114.483 76.253C114.572 76.329 114.616 76.4303 114.616 76.557V77.203C114.616 77.3297 114.572 77.4373 114.483 77.526C114.407 77.602 114.306 77.64 114.179 77.64H111.823V82.523C111.823 83.1183 111.924 83.587 112.127 83.929C112.33 84.271 112.691 84.442 113.21 84.442H114.369C114.496 84.442 114.597 84.4863 114.673 84.575C114.762 84.651 114.806 84.7523 114.806 84.879V85.563C114.806 85.6897 114.762 85.7973 114.673 85.886C114.597 85.962 114.496 86 114.369 86H113.058ZM120.556 86.19C119.251 86.19 118.212 85.791 117.44 84.993C116.667 84.1823 116.243 83.0803 116.167 81.687C116.154 81.5223 116.148 81.3133 116.148 81.06C116.148 80.794 116.154 80.5787 116.167 80.414C116.217 79.5147 116.426 78.7293 116.794 78.058C117.161 77.374 117.661 76.8483 118.295 76.481C118.941 76.1137 119.694 75.93 120.556 75.93C121.518 75.93 122.323 76.1327 122.969 76.538C123.627 76.9433 124.128 77.5197 124.47 78.267C124.812 79.0143 124.983 79.8883 124.983 80.889V81.212C124.983 81.3513 124.938 81.459 124.85 81.535C124.774 81.611 124.672 81.649 124.546 81.649H117.972C117.972 81.6617 117.972 81.687 117.972 81.725C117.972 81.763 117.972 81.7947 117.972 81.82C117.997 82.3393 118.111 82.827 118.314 83.283C118.516 83.7263 118.808 84.0873 119.188 84.366C119.568 84.6447 120.024 84.784 120.556 84.784C121.012 84.784 121.392 84.7143 121.696 84.575C122 84.4357 122.247 84.2837 122.437 84.119C122.627 83.9417 122.753 83.8087 122.817 83.72C122.931 83.5553 123.019 83.4603 123.083 83.435C123.146 83.397 123.247 83.378 123.387 83.378H124.299C124.425 83.378 124.527 83.416 124.603 83.492C124.691 83.5553 124.729 83.6503 124.717 83.777C124.704 83.967 124.603 84.2013 124.413 84.48C124.223 84.746 123.95 85.012 123.596 85.278C123.241 85.544 122.81 85.7657 122.304 85.943C121.797 86.1077 121.214 86.19 120.556 86.19ZM117.972 80.338H123.178V80.281C123.178 79.711 123.07 79.2043 122.855 78.761C122.652 78.3177 122.354 77.9693 121.962 77.716C121.569 77.45 121.1 77.317 120.556 77.317C120.011 77.317 119.542 77.45 119.15 77.716C118.77 77.9693 118.478 78.3177 118.276 78.761C118.073 79.2043 117.972 79.711 117.972 80.281V80.338ZM126.595 86C126.493 86 126.398 85.962 126.31 85.886C126.234 85.81 126.196 85.715 126.196 85.601C126.196 85.563 126.202 85.5187 126.215 85.468C126.24 85.4047 126.278 85.335 126.329 85.259L129.635 80.946L126.538 76.861C126.487 76.785 126.449 76.7217 126.424 76.671C126.411 76.6203 126.405 76.5697 126.405 76.519C126.405 76.405 126.443 76.31 126.519 76.234C126.595 76.158 126.69 76.12 126.804 76.12H127.773C127.912 76.12 128.013 76.158 128.077 76.234C128.153 76.2973 128.216 76.3607 128.267 76.424L130.794 79.711L133.321 76.443C133.371 76.3797 133.428 76.31 133.492 76.234C133.568 76.158 133.675 76.12 133.815 76.12H134.746C134.86 76.12 134.955 76.158 135.031 76.234C135.107 76.31 135.145 76.405 135.145 76.519C135.145 76.5697 135.132 76.6203 135.107 76.671C135.094 76.7217 135.062 76.785 135.012 76.861L131.877 80.984L135.183 85.259C135.233 85.335 135.265 85.3983 135.278 85.449C135.303 85.4997 135.316 85.5503 135.316 85.601C135.316 85.715 135.278 85.81 135.202 85.886C135.126 85.962 135.031 86 134.917 86H133.91C133.783 86 133.682 85.9683 133.606 85.905C133.53 85.8417 133.466 85.7783 133.416 85.715L130.737 82.238L128.058 85.715C128.007 85.7657 127.944 85.829 127.868 85.905C127.804 85.9683 127.703 86 127.564 86H126.595ZM141.15 86C140.44 86 139.864 85.867 139.421 85.601C138.977 85.3223 138.654 84.936 138.452 84.442C138.249 83.9353 138.148 83.34 138.148 82.656V77.64H136.666C136.539 77.64 136.431 77.602 136.343 77.526C136.267 77.4373 136.229 77.3297 136.229 77.203V76.557C136.229 76.4303 136.267 76.329 136.343 76.253C136.431 76.1643 136.539 76.12 136.666 76.12H138.148V72.947C138.148 72.8203 138.186 72.719 138.262 72.643C138.35 72.5543 138.458 72.51 138.585 72.51H139.478C139.604 72.51 139.706 72.5543 139.782 72.643C139.87 72.719 139.915 72.8203 139.915 72.947V76.12H142.271C142.397 76.12 142.499 76.1643 142.575 76.253C142.663 76.329 142.708 76.4303 142.708 76.557V77.203C142.708 77.3297 142.663 77.4373 142.575 77.526C142.499 77.602 142.397 77.64 142.271 77.64H139.915V82.523C139.915 83.1183 140.016 83.587 140.219 83.929C140.421 84.271 140.782 84.442 141.302 84.442H142.461C142.587 84.442 142.689 84.4863 142.765 84.575C142.853 84.651 142.898 84.7523 142.898 84.879V85.563C142.898 85.6897 142.853 85.7973 142.765 85.886C142.689 85.962 142.587 86 142.461 86H141.15ZM149.809 86C149.682 86 149.574 85.962 149.486 85.886C149.41 85.7973 149.372 85.6897 149.372 85.563V76.557C149.372 76.4303 149.41 76.329 149.486 76.253C149.574 76.1643 149.682 76.12 149.809 76.12H150.721C150.847 76.12 150.949 76.1643 151.025 76.253C151.101 76.329 151.139 76.4303 151.139 76.557V85.563C151.139 85.6897 151.101 85.7973 151.025 85.886C150.949 85.962 150.847 86 150.721 86H149.809ZM149.657 74.277C149.53 74.277 149.422 74.239 149.334 74.163C149.258 74.0743 149.22 73.9667 149.22 73.84V72.814C149.22 72.6873 149.258 72.586 149.334 72.51C149.422 72.4213 149.53 72.377 149.657 72.377H150.854C150.98 72.377 151.082 72.4213 151.158 72.51C151.246 72.586 151.291 72.6873 151.291 72.814V73.84C151.291 73.9667 151.246 74.0743 151.158 74.163C151.082 74.239 150.98 74.277 150.854 74.277H149.657ZM157.505 86.19C156.795 86.19 156.187 86.1013 155.681 85.924C155.174 85.7467 154.762 85.5313 154.446 85.278C154.129 85.0247 153.888 84.7713 153.724 84.518C153.572 84.2647 153.489 84.062 153.477 83.91C153.464 83.7707 153.508 83.663 153.61 83.587C153.711 83.511 153.812 83.473 153.914 83.473H154.75C154.826 83.473 154.883 83.4857 154.921 83.511C154.971 83.5237 155.035 83.5743 155.111 83.663C155.275 83.8403 155.459 84.0177 155.662 84.195C155.864 84.3723 156.111 84.518 156.403 84.632C156.707 84.746 157.08 84.803 157.524 84.803C158.17 84.803 158.702 84.6827 159.12 84.442C159.538 84.1887 159.747 83.8213 159.747 83.34C159.747 83.0233 159.658 82.77 159.481 82.58C159.316 82.39 159.012 82.219 158.569 82.067C158.138 81.915 157.543 81.7567 156.783 81.592C156.023 81.4147 155.421 81.1993 154.978 80.946C154.534 80.68 154.218 80.3697 154.028 80.015C153.838 79.6477 153.743 79.236 153.743 78.78C153.743 78.3113 153.882 77.8617 154.161 77.431C154.439 76.9877 154.845 76.6267 155.377 76.348C155.921 76.0693 156.599 75.93 157.41 75.93C158.068 75.93 158.632 76.0123 159.101 76.177C159.569 76.3417 159.956 76.5507 160.26 76.804C160.564 77.0447 160.792 77.2853 160.944 77.526C161.096 77.7667 161.178 77.9693 161.191 78.134C161.203 78.2607 161.165 78.3683 161.077 78.457C160.988 78.533 160.887 78.571 160.773 78.571H159.975C159.886 78.571 159.81 78.552 159.747 78.514C159.696 78.476 159.645 78.4317 159.595 78.381C159.468 78.2163 159.316 78.0517 159.139 77.887C158.974 77.7223 158.752 77.5893 158.474 77.488C158.208 77.374 157.853 77.317 157.41 77.317C156.776 77.317 156.301 77.45 155.985 77.716C155.668 77.982 155.51 78.3177 155.51 78.723C155.51 78.9637 155.579 79.179 155.719 79.369C155.858 79.559 156.124 79.73 156.517 79.882C156.909 80.034 157.492 80.1987 158.265 80.376C159.101 80.5407 159.759 80.7623 160.241 81.041C160.722 81.3197 161.064 81.6427 161.267 82.01C161.469 82.3773 161.571 82.8017 161.571 83.283C161.571 83.815 161.412 84.3027 161.096 84.746C160.792 85.1893 160.336 85.544 159.728 85.81C159.132 86.0633 158.391 86.19 157.505 86.19ZM173.31 86.19C172.55 86.19 171.917 86.057 171.41 85.791C170.904 85.5123 170.498 85.1703 170.194 84.765V85.563C170.194 85.6897 170.15 85.7973 170.061 85.886C169.985 85.962 169.884 86 169.757 86H168.883C168.757 86 168.649 85.962 168.56 85.886C168.484 85.7973 168.446 85.6897 168.446 85.563V72.947C168.446 72.8203 168.484 72.719 168.56 72.643C168.649 72.5543 168.757 72.51 168.883 72.51H169.795C169.935 72.51 170.042 72.5543 170.118 72.643C170.194 72.719 170.232 72.8203 170.232 72.947V77.317C170.549 76.9243 170.954 76.595 171.448 76.329C171.955 76.063 172.576 75.93 173.31 75.93C174.02 75.93 174.621 76.0567 175.115 76.31C175.622 76.5507 176.034 76.8863 176.35 77.317C176.68 77.7477 176.927 78.2353 177.091 78.78C177.256 79.3247 177.345 79.8947 177.357 80.49C177.37 80.6927 177.376 80.8827 177.376 81.06C177.376 81.2373 177.37 81.4273 177.357 81.63C177.345 82.238 177.256 82.8143 177.091 83.359C176.927 83.9037 176.68 84.3913 176.35 84.822C176.034 85.24 175.622 85.5757 175.115 85.829C174.621 86.0697 174.02 86.19 173.31 86.19ZM172.911 84.651C173.57 84.651 174.083 84.5117 174.45 84.233C174.83 83.9417 175.103 83.568 175.267 83.112C175.432 82.6433 175.527 82.143 175.552 81.611C175.565 81.2437 175.565 80.8763 175.552 80.509C175.527 79.977 175.432 79.483 175.267 79.027C175.103 78.5583 174.83 78.1847 174.45 77.906C174.083 77.6147 173.57 77.469 172.911 77.469C172.316 77.469 171.822 77.6083 171.429 77.887C171.037 78.1657 170.739 78.5203 170.536 78.951C170.346 79.3817 170.245 79.8187 170.232 80.262C170.22 80.4647 170.213 80.7117 170.213 81.003C170.213 81.2817 170.22 81.5223 170.232 81.725C170.258 82.1937 170.359 82.656 170.536 83.112C170.726 83.5553 171.011 83.9227 171.391 84.214C171.784 84.5053 172.291 84.651 172.911 84.651ZM183.774 86.19C182.812 86.19 182.007 86.0063 181.361 85.639C180.715 85.2717 180.221 84.765 179.879 84.119C179.537 83.4603 179.347 82.713 179.309 81.877C179.297 81.6617 179.29 81.3893 179.29 81.06C179.29 80.718 179.297 80.4457 179.309 80.243C179.347 79.3943 179.537 78.647 179.879 78.001C180.234 77.355 180.734 76.8483 181.38 76.481C182.026 76.1137 182.824 75.93 183.774 75.93C184.724 75.93 185.522 76.1137 186.168 76.481C186.814 76.8483 187.308 77.355 187.65 78.001C188.005 78.647 188.201 79.3943 188.239 80.243C188.252 80.4457 188.258 80.718 188.258 81.06C188.258 81.3893 188.252 81.6617 188.239 81.877C188.201 82.713 188.011 83.4603 187.669 84.119C187.327 84.765 186.833 85.2717 186.187 85.639C185.541 86.0063 184.737 86.19 183.774 86.19ZM183.774 84.727C184.56 84.727 185.187 84.48 185.655 83.986C186.124 83.4793 186.377 82.7447 186.415 81.782C186.428 81.592 186.434 81.3513 186.434 81.06C186.434 80.7687 186.428 80.528 186.415 80.338C186.377 79.3753 186.124 78.647 185.655 78.153C185.187 77.6463 184.56 77.393 183.774 77.393C182.989 77.393 182.356 77.6463 181.874 78.153C181.406 78.647 181.159 79.3753 181.133 80.338C181.121 80.528 181.114 80.7687 181.114 81.06C181.114 81.3513 181.121 81.592 181.133 81.782C181.159 82.7447 181.406 83.4793 181.874 83.986C182.356 84.48 182.989 84.727 183.774 84.727ZM191.093 86C190.967 86 190.859 85.962 190.77 85.886C190.694 85.7973 190.656 85.6897 190.656 85.563V72.947C190.656 72.8203 190.694 72.719 190.77 72.643C190.859 72.5543 190.967 72.51 191.093 72.51H191.986C192.126 72.51 192.233 72.5543 192.309 72.643C192.385 72.719 192.423 72.8203 192.423 72.947V85.563C192.423 85.6897 192.385 85.7973 192.309 85.886C192.233 85.962 192.126 86 191.986 86H191.093ZM198.868 86.19C198.171 86.19 197.569 86.0697 197.063 85.829C196.556 85.5757 196.138 85.24 195.809 84.822C195.492 84.3913 195.251 83.9037 195.087 83.359C194.935 82.8143 194.846 82.238 194.821 81.63C194.808 81.4273 194.802 81.2373 194.802 81.06C194.802 80.8827 194.808 80.6927 194.821 80.49C194.846 79.8947 194.935 79.3247 195.087 78.78C195.251 78.2353 195.492 77.7477 195.809 77.317C196.138 76.8863 196.556 76.5507 197.063 76.31C197.569 76.0567 198.171 75.93 198.868 75.93C199.615 75.93 200.236 76.063 200.73 76.329C201.224 76.595 201.629 76.9243 201.946 77.317V72.947C201.946 72.8203 201.984 72.719 202.06 72.643C202.148 72.5543 202.256 72.51 202.383 72.51H203.295C203.421 72.51 203.523 72.5543 203.599 72.643C203.687 72.719 203.732 72.8203 203.732 72.947V85.563C203.732 85.6897 203.687 85.7973 203.599 85.886C203.523 85.962 203.421 86 203.295 86H202.44C202.3 86 202.193 85.962 202.117 85.886C202.041 85.7973 202.003 85.6897 202.003 85.563V84.765C201.686 85.1703 201.274 85.5123 200.768 85.791C200.261 86.057 199.628 86.19 198.868 86.19ZM199.267 84.651C199.9 84.651 200.407 84.5053 200.787 84.214C201.167 83.9227 201.452 83.5553 201.642 83.112C201.832 82.656 201.933 82.1937 201.946 81.725C201.958 81.5223 201.965 81.2817 201.965 81.003C201.965 80.7117 201.958 80.4647 201.946 80.262C201.933 79.8187 201.825 79.3817 201.623 78.951C201.433 78.5203 201.141 78.1657 200.749 77.887C200.369 77.6083 199.875 77.469 199.267 77.469C198.621 77.469 198.108 77.6147 197.728 77.906C197.348 78.1847 197.075 78.5583 196.911 79.027C196.746 79.483 196.651 79.977 196.626 80.509C196.613 80.8763 196.613 81.2437 196.626 81.611C196.651 82.143 196.746 82.6433 196.911 83.112C197.075 83.568 197.348 83.9417 197.728 84.233C198.108 84.5117 198.621 84.651 199.267 84.651Z" fill="white"/>
<path d="M29.676 126.525C29.6 126.525 29.5177 126.5 29.429 126.449C29.353 126.398 29.2833 126.36 29.22 126.335L23.235 122.212C23.045 122.085 22.9057 121.959 22.817 121.832C22.7283 121.693 22.684 121.534 22.684 121.357V121.015C22.684 120.838 22.7283 120.686 22.817 120.559C22.9057 120.432 23.045 120.299 23.235 120.16L29.22 116.056C29.2833 116.018 29.353 115.974 29.429 115.923C29.5177 115.872 29.6 115.847 29.676 115.847C29.7773 115.847 29.866 115.885 29.942 115.961C30.018 116.024 30.056 116.119 30.056 116.246V117.082C30.056 117.221 30.018 117.342 29.942 117.443C29.866 117.532 29.7583 117.62 29.619 117.709L24.527 121.186L29.619 124.663C29.7583 124.764 29.866 124.859 29.942 124.948C30.018 125.037 30.056 125.157 30.056 125.309V126.145C30.056 126.259 30.018 126.354 29.942 126.43C29.866 126.493 29.7773 126.525 29.676 126.525ZM100.229 126.506C100.127 126.506 100.039 126.474 99.9626 126.411C99.8866 126.348 99.8486 126.253 99.8486 126.126V125.29C99.8486 125.138 99.8803 125.018 99.9436 124.929C100.02 124.84 100.134 124.752 100.286 124.663L105.359 121.186L100.286 117.709C100.134 117.608 100.02 117.513 99.9436 117.424C99.8803 117.335 99.8486 117.215 99.8486 117.063V116.227C99.8486 116.1 99.8866 116.005 99.9626 115.942C100.039 115.879 100.127 115.847 100.229 115.847C100.305 115.847 100.387 115.872 100.476 115.923C100.564 115.961 100.634 115.999 100.685 116.037L106.651 120.141C106.853 120.28 106.993 120.413 107.069 120.54C107.157 120.667 107.202 120.825 107.202 121.015V121.338C107.202 121.515 107.157 121.674 107.069 121.813C106.993 121.94 106.853 122.073 106.651 122.212L100.685 126.316C100.634 126.354 100.564 126.398 100.476 126.449C100.387 126.487 100.305 126.506 100.229 126.506ZM322.098 126.525C322.022 126.525 321.94 126.5 321.851 126.449C321.775 126.398 321.705 126.36 321.642 126.335L315.657 122.212C315.467 122.085 315.328 121.959 315.239 121.832C315.15 121.693 315.106 121.534 315.106 121.357V121.015C315.106 120.838 315.15 120.686 315.239 120.559C315.328 120.432 315.467 120.299 315.657 120.16L321.642 116.056C321.705 116.018 321.775 115.974 321.851 115.923C321.94 115.872 322.022 115.847 322.098 115.847C322.199 115.847 322.288 115.885 322.364 115.961C322.44 116.024 322.478 116.119 322.478 116.246V117.082C322.478 117.221 322.44 117.342 322.364 117.443C322.288 117.532 322.18 117.62 322.041 117.709L316.949 121.186L322.041 124.663C322.18 124.764 322.288 124.859 322.364 124.948C322.44 125.037 322.478 125.157 322.478 125.309V126.145C322.478 126.259 322.44 126.354 322.364 126.43C322.288 126.493 322.199 126.525 322.098 126.525ZM406.455 126.506C406.354 126.506 406.265 126.474 406.189 126.411C406.113 126.348 406.075 126.253 406.075 126.126V125.29C406.075 125.138 406.107 125.018 406.17 124.929C406.246 124.84 406.36 124.752 406.512 124.663L411.585 121.186L406.512 117.709C406.36 117.608 406.246 117.513 406.17 117.424C406.107 117.335 406.075 117.215 406.075 117.063V116.227C406.075 116.1 406.113 116.005 406.189 115.942C406.265 115.879 406.354 115.847 406.455 115.847C406.531 115.847 406.614 115.872 406.702 115.923C406.791 115.961 406.861 115.999 406.911 116.037L412.877 120.141C413.08 120.28 413.219 120.413 413.295 120.54C413.384 120.667 413.428 120.825 413.428 121.015V121.338C413.428 121.515 413.384 121.674 413.295 121.813C413.219 121.94 413.08 122.073 412.877 122.212L406.911 126.316C406.861 126.354 406.791 126.398 406.702 126.449C406.614 126.487 406.531 126.506 406.455 126.506Z" fill="#647DFF"/>
<path d="M40.8348 127.19C40.1255 127.19 39.5175 127.101 39.0108 126.924C38.5041 126.747 38.0925 126.531 37.7758 126.278C37.4591 126.025 37.2185 125.771 37.0538 125.518C36.9018 125.265 36.8195 125.062 36.8068 124.91C36.7941 124.771 36.8385 124.663 36.9398 124.587C37.0411 124.511 37.1425 124.473 37.2438 124.473H38.0798C38.1558 124.473 38.2128 124.486 38.2508 124.511C38.3015 124.524 38.3648 124.574 38.4408 124.663C38.6055 124.84 38.7891 125.018 38.9918 125.195C39.1945 125.372 39.4415 125.518 39.7328 125.632C40.0368 125.746 40.4105 125.803 40.8538 125.803C41.4998 125.803 42.0318 125.683 42.4498 125.442C42.8678 125.189 43.0768 124.821 43.0768 124.34C43.0768 124.023 42.9881 123.77 42.8108 123.58C42.6461 123.39 42.3421 123.219 41.8988 123.067C41.4681 122.915 40.8728 122.757 40.1128 122.592C39.3528 122.415 38.7511 122.199 38.3078 121.946C37.8645 121.68 37.5478 121.37 37.3578 121.015C37.1678 120.648 37.0728 120.236 37.0728 119.78C37.0728 119.311 37.2121 118.862 37.4908 118.431C37.7695 117.988 38.1748 117.627 38.7068 117.348C39.2515 117.069 39.9291 116.93 40.7398 116.93C41.3985 116.93 41.9621 117.012 42.4308 117.177C42.8995 117.342 43.2858 117.551 43.5898 117.804C43.8938 118.045 44.1218 118.285 44.2738 118.526C44.4258 118.767 44.5081 118.969 44.5208 119.134C44.5335 119.261 44.4955 119.368 44.4068 119.457C44.3181 119.533 44.2168 119.571 44.1028 119.571H43.3048C43.2161 119.571 43.1401 119.552 43.0768 119.514C43.0261 119.476 42.9755 119.432 42.9248 119.381C42.7981 119.216 42.6461 119.052 42.4688 118.887C42.3041 118.722 42.0825 118.589 41.8038 118.488C41.5378 118.374 41.1831 118.317 40.7398 118.317C40.1065 118.317 39.6315 118.45 39.3148 118.716C38.9981 118.982 38.8398 119.318 38.8398 119.723C38.8398 119.964 38.9095 120.179 39.0488 120.369C39.1881 120.559 39.4541 120.73 39.8468 120.882C40.2395 121.034 40.8221 121.199 41.5948 121.376C42.4308 121.541 43.0895 121.762 43.5708 122.041C44.0521 122.32 44.3941 122.643 44.5968 123.01C44.7995 123.377 44.9008 123.802 44.9008 124.283C44.9008 124.815 44.7425 125.303 44.4258 125.746C44.1218 126.189 43.6658 126.544 43.0578 126.81C42.4625 127.063 41.7215 127.19 40.8348 127.19ZM50.9388 127C50.2294 127 49.6531 126.867 49.2098 126.601C48.7664 126.322 48.4434 125.936 48.2408 125.442C48.0381 124.935 47.9368 124.34 47.9368 123.656V118.64H46.4548C46.3281 118.64 46.2204 118.602 46.1318 118.526C46.0558 118.437 46.0178 118.33 46.0178 118.203V117.557C46.0178 117.43 46.0558 117.329 46.1318 117.253C46.2204 117.164 46.3281 117.12 46.4548 117.12H47.9368V113.947C47.9368 113.82 47.9748 113.719 48.0508 113.643C48.1394 113.554 48.2471 113.51 48.3738 113.51H49.2668C49.3934 113.51 49.4948 113.554 49.5708 113.643C49.6594 113.719 49.7038 113.82 49.7038 113.947V117.12H52.0598C52.1864 117.12 52.2878 117.164 52.3638 117.253C52.4524 117.329 52.4968 117.43 52.4968 117.557V118.203C52.4968 118.33 52.4524 118.437 52.3638 118.526C52.2878 118.602 52.1864 118.64 52.0598 118.64H49.7038V123.523C49.7038 124.118 49.8051 124.587 50.0078 124.929C50.2104 125.271 50.5714 125.442 51.0908 125.442H52.2498C52.3764 125.442 52.4778 125.486 52.5538 125.575C52.6424 125.651 52.6868 125.752 52.6868 125.879V126.563C52.6868 126.69 52.6424 126.797 52.5538 126.886C52.4778 126.962 52.3764 127 52.2498 127H50.9388ZM54.9407 127C54.814 127 54.7063 126.962 54.6177 126.886C54.5417 126.797 54.5037 126.69 54.5037 126.563V117.576C54.5037 117.449 54.5417 117.342 54.6177 117.253C54.7063 117.164 54.814 117.12 54.9407 117.12H55.8147C55.9413 117.12 56.049 117.164 56.1377 117.253C56.2263 117.342 56.2707 117.449 56.2707 117.576V118.412C56.524 117.981 56.8723 117.658 57.3157 117.443C57.759 117.228 58.291 117.12 58.9117 117.12H59.6717C59.7983 117.12 59.8997 117.164 59.9757 117.253C60.0517 117.329 60.0897 117.43 60.0897 117.557V118.336C60.0897 118.463 60.0517 118.564 59.9757 118.64C59.8997 118.716 59.7983 118.754 59.6717 118.754H58.5317C57.8477 118.754 57.3093 118.957 56.9167 119.362C56.524 119.755 56.3277 120.293 56.3277 120.977V126.563C56.3277 126.69 56.2833 126.797 56.1947 126.886C56.106 126.962 55.9983 127 55.8717 127H54.9407ZM65.5829 127.19C64.6202 127.19 63.8159 127.006 63.1699 126.639C62.5239 126.272 62.0299 125.765 61.6879 125.119C61.3459 124.46 61.1559 123.713 61.1179 122.877C61.1052 122.662 61.0989 122.389 61.0989 122.06C61.0989 121.718 61.1052 121.446 61.1179 121.243C61.1559 120.394 61.3459 119.647 61.6879 119.001C62.0425 118.355 62.5429 117.848 63.1889 117.481C63.8349 117.114 64.6329 116.93 65.5829 116.93C66.5329 116.93 67.3309 117.114 67.9769 117.481C68.6229 117.848 69.1169 118.355 69.4589 119.001C69.8136 119.647 70.0099 120.394 70.0479 121.243C70.0605 121.446 70.0669 121.718 70.0669 122.06C70.0669 122.389 70.0605 122.662 70.0479 122.877C70.0099 123.713 69.8199 124.46 69.4779 125.119C69.1359 125.765 68.6419 126.272 67.9959 126.639C67.3499 127.006 66.5455 127.19 65.5829 127.19ZM65.5829 125.727C66.3682 125.727 66.9952 125.48 67.4639 124.986C67.9325 124.479 68.1859 123.745 68.2239 122.782C68.2365 122.592 68.2429 122.351 68.2429 122.06C68.2429 121.769 68.2365 121.528 68.2239 121.338C68.1859 120.375 67.9325 119.647 67.4639 119.153C66.9952 118.646 66.3682 118.393 65.5829 118.393C64.7975 118.393 64.1642 118.646 63.6829 119.153C63.2142 119.647 62.9672 120.375 62.9419 121.338C62.9292 121.528 62.9229 121.769 62.9229 122.06C62.9229 122.351 62.9292 122.592 62.9419 122.782C62.9672 123.745 63.2142 124.479 63.6829 124.986C64.1642 125.48 64.7975 125.727 65.5829 125.727ZM72.883 127C72.7564 127 72.6487 126.962 72.56 126.886C72.484 126.797 72.446 126.69 72.446 126.563V117.557C72.446 117.43 72.484 117.329 72.56 117.253C72.6487 117.164 72.7564 117.12 72.883 117.12H73.776C73.9027 117.12 74.004 117.164 74.08 117.253C74.1687 117.329 74.213 117.43 74.213 117.557V118.393C74.5424 117.962 74.954 117.614 75.448 117.348C75.9547 117.069 76.6007 116.93 77.386 116.93C78.2094 116.93 78.906 117.114 79.476 117.481C80.0587 117.836 80.4957 118.336 80.787 118.982C81.0784 119.615 81.224 120.356 81.224 121.205V126.563C81.224 126.69 81.186 126.797 81.11 126.886C81.034 126.962 80.9327 127 80.806 127H79.856C79.7294 127 79.6217 126.962 79.533 126.886C79.457 126.797 79.419 126.69 79.419 126.563V121.3C79.419 120.413 79.2037 119.723 78.773 119.229C78.3424 118.722 77.709 118.469 76.873 118.469C76.0877 118.469 75.4544 118.722 74.973 119.229C74.5044 119.723 74.27 120.413 74.27 121.3V126.563C74.27 126.69 74.2257 126.797 74.137 126.886C74.061 126.962 73.9597 127 73.833 127H72.883ZM88.0155 131.18C87.1542 131.18 86.4448 131.066 85.8875 130.838C85.3428 130.61 84.9122 130.331 84.5955 130.002C84.2915 129.685 84.0698 129.362 83.9305 129.033C83.8038 128.716 83.7342 128.463 83.7215 128.273C83.7088 128.146 83.7468 128.039 83.8355 127.95C83.9368 127.861 84.0445 127.817 84.1585 127.817H85.0705C85.1845 127.817 85.2795 127.842 85.3555 127.893C85.4315 127.944 85.4948 128.051 85.5455 128.216C85.6215 128.406 85.7355 128.615 85.8875 128.843C86.0395 129.084 86.2738 129.286 86.5905 129.451C86.9072 129.628 87.3505 129.717 87.9205 129.717C88.5158 129.717 89.0162 129.635 89.4215 129.47C89.8268 129.318 90.1308 129.039 90.3335 128.634C90.5488 128.241 90.6565 127.697 90.6565 127V125.708C90.3525 126.101 89.9535 126.43 89.4595 126.696C88.9655 126.949 88.3448 127.076 87.5975 127.076C86.8882 127.076 86.2802 126.956 85.7735 126.715C85.2668 126.462 84.8488 126.126 84.5195 125.708C84.2028 125.277 83.9622 124.79 83.7975 124.245C83.6455 123.7 83.5568 123.13 83.5315 122.535C83.5188 122.18 83.5188 121.832 83.5315 121.49C83.5568 120.895 83.6455 120.325 83.7975 119.78C83.9622 119.235 84.2028 118.748 84.5195 118.317C84.8488 117.886 85.2668 117.551 85.7735 117.31C86.2802 117.057 86.8882 116.93 87.5975 116.93C88.3575 116.93 88.9845 117.076 89.4785 117.367C89.9852 117.646 90.3968 117.988 90.7135 118.393V117.576C90.7135 117.449 90.7515 117.342 90.8275 117.253C90.9162 117.164 91.0238 117.12 91.1505 117.12H92.0245C92.1512 117.12 92.2588 117.164 92.3475 117.253C92.4362 117.342 92.4805 117.449 92.4805 117.576V126.791C92.4805 127.64 92.3348 128.393 92.0435 129.052C91.7648 129.711 91.2962 130.23 90.6375 130.61C89.9915 130.99 89.1175 131.18 88.0155 131.18ZM87.9775 125.556C88.6108 125.556 89.1175 125.41 89.4975 125.119C89.8902 124.828 90.1752 124.46 90.3525 124.017C90.5425 123.574 90.6438 123.124 90.6565 122.668C90.6692 122.491 90.6755 122.275 90.6755 122.022C90.6755 121.756 90.6692 121.534 90.6565 121.357C90.6438 120.901 90.5425 120.451 90.3525 120.008C90.1752 119.565 89.8902 119.197 89.4975 118.906C89.1175 118.615 88.6108 118.469 87.9775 118.469C87.3442 118.469 86.8375 118.615 86.4575 118.906C86.0775 119.185 85.8052 119.558 85.6405 120.027C85.4758 120.483 85.3808 120.977 85.3555 121.509C85.3428 121.838 85.3428 122.174 85.3555 122.516C85.3808 123.048 85.4758 123.548 85.6405 124.017C85.8052 124.473 86.0775 124.847 86.4575 125.138C86.8375 125.417 87.3442 125.556 87.9775 125.556ZM329.305 128.596C329.203 128.596 329.115 128.558 329.039 128.482C328.963 128.406 328.925 128.317 328.925 128.216C328.925 128.153 328.944 128.077 328.982 127.988L335.48 112.408C335.518 112.332 335.568 112.256 335.632 112.18C335.708 112.104 335.822 112.066 335.974 112.066H336.715C336.816 112.066 336.905 112.104 336.981 112.18C337.057 112.256 337.095 112.345 337.095 112.446C337.095 112.497 337.082 112.573 337.057 112.674L330.54 128.254C330.514 128.317 330.457 128.387 330.369 128.463C330.293 128.552 330.185 128.596 330.046 128.596H329.305ZM347.061 127.19C346.352 127.19 345.744 127.101 345.237 126.924C344.731 126.747 344.319 126.531 344.002 126.278C343.686 126.025 343.445 125.771 343.28 125.518C343.128 125.265 343.046 125.062 343.033 124.91C343.021 124.771 343.065 124.663 343.166 124.587C343.268 124.511 343.369 124.473 343.47 124.473H344.306C344.382 124.473 344.439 124.486 344.477 124.511C344.528 124.524 344.591 124.574 344.667 124.663C344.832 124.84 345.016 125.018 345.218 125.195C345.421 125.372 345.668 125.518 345.959 125.632C346.263 125.746 346.637 125.803 347.08 125.803C347.726 125.803 348.258 125.683 348.676 125.442C349.094 125.189 349.303 124.821 349.303 124.34C349.303 124.023 349.215 123.77 349.037 123.58C348.873 123.39 348.569 123.219 348.125 123.067C347.695 122.915 347.099 122.757 346.339 122.592C345.579 122.415 344.978 122.199 344.534 121.946C344.091 121.68 343.774 121.37 343.584 121.015C343.394 120.648 343.299 120.236 343.299 119.78C343.299 119.311 343.439 118.862 343.717 118.431C343.996 117.988 344.401 117.627 344.933 117.348C345.478 117.069 346.156 116.93 346.966 116.93C347.625 116.93 348.189 117.012 348.657 117.177C349.126 117.342 349.512 117.551 349.816 117.804C350.12 118.045 350.348 118.285 350.5 118.526C350.652 118.767 350.735 118.969 350.747 119.134C350.76 119.261 350.722 119.368 350.633 119.457C350.545 119.533 350.443 119.571 350.329 119.571H349.531C349.443 119.571 349.367 119.552 349.303 119.514C349.253 119.476 349.202 119.432 349.151 119.381C349.025 119.216 348.873 119.052 348.695 118.887C348.531 118.722 348.309 118.589 348.03 118.488C347.764 118.374 347.41 118.317 346.966 118.317C346.333 118.317 345.858 118.45 345.541 118.716C345.225 118.982 345.066 119.318 345.066 119.723C345.066 119.964 345.136 120.179 345.275 120.369C345.415 120.559 345.681 120.73 346.073 120.882C346.466 121.034 347.049 121.199 347.821 121.376C348.657 121.541 349.316 121.762 349.797 122.041C350.279 122.32 350.621 122.643 350.823 123.01C351.026 123.377 351.127 123.802 351.127 124.283C351.127 124.815 350.969 125.303 350.652 125.746C350.348 126.189 349.892 126.544 349.284 126.81C348.689 127.063 347.948 127.19 347.061 127.19ZM357.165 127C356.456 127 355.88 126.867 355.436 126.601C354.993 126.322 354.67 125.936 354.467 125.442C354.265 124.935 354.163 124.34 354.163 123.656V118.64H352.681C352.555 118.64 352.447 118.602 352.358 118.526C352.282 118.437 352.244 118.33 352.244 118.203V117.557C352.244 117.43 352.282 117.329 352.358 117.253C352.447 117.164 352.555 117.12 352.681 117.12H354.163V113.947C354.163 113.82 354.201 113.719 354.277 113.643C354.366 113.554 354.474 113.51 354.6 113.51H355.493C355.62 113.51 355.721 113.554 355.797 113.643C355.886 113.719 355.93 113.82 355.93 113.947V117.12H358.286C358.413 117.12 358.514 117.164 358.59 117.253C358.679 117.329 358.723 117.43 358.723 117.557V118.203C358.723 118.33 358.679 118.437 358.59 118.526C358.514 118.602 358.413 118.64 358.286 118.64H355.93V123.523C355.93 124.118 356.032 124.587 356.234 124.929C356.437 125.271 356.798 125.442 357.317 125.442H358.476C358.603 125.442 358.704 125.486 358.78 125.575C358.869 125.651 358.913 125.752 358.913 125.879V126.563C358.913 126.69 358.869 126.797 358.78 126.886C358.704 126.962 358.603 127 358.476 127H357.165ZM361.167 127C361.041 127 360.933 126.962 360.844 126.886C360.768 126.797 360.73 126.69 360.73 126.563V117.576C360.73 117.449 360.768 117.342 360.844 117.253C360.933 117.164 361.041 117.12 361.167 117.12H362.041C362.168 117.12 362.276 117.164 362.364 117.253C362.453 117.342 362.497 117.449 362.497 117.576V118.412C362.751 117.981 363.099 117.658 363.542 117.443C363.986 117.228 364.518 117.12 365.138 117.12H365.898C366.025 117.12 366.126 117.164 366.202 117.253C366.278 117.329 366.316 117.43 366.316 117.557V118.336C366.316 118.463 366.278 118.564 366.202 118.64C366.126 118.716 366.025 118.754 365.898 118.754H364.758C364.074 118.754 363.536 118.957 363.143 119.362C362.751 119.755 362.554 120.293 362.554 120.977V126.563C362.554 126.69 362.51 126.797 362.421 126.886C362.333 126.962 362.225 127 362.098 127H361.167ZM371.809 127.19C370.847 127.19 370.042 127.006 369.396 126.639C368.75 126.272 368.256 125.765 367.914 125.119C367.572 124.46 367.382 123.713 367.344 122.877C367.332 122.662 367.325 122.389 367.325 122.06C367.325 121.718 367.332 121.446 367.344 121.243C367.382 120.394 367.572 119.647 367.914 119.001C368.269 118.355 368.769 117.848 369.415 117.481C370.061 117.114 370.859 116.93 371.809 116.93C372.759 116.93 373.557 117.114 374.203 117.481C374.849 117.848 375.343 118.355 375.685 119.001C376.04 119.647 376.236 120.394 376.274 121.243C376.287 121.446 376.293 121.718 376.293 122.06C376.293 122.389 376.287 122.662 376.274 122.877C376.236 123.713 376.046 124.46 375.704 125.119C375.362 125.765 374.868 126.272 374.222 126.639C373.576 127.006 372.772 127.19 371.809 127.19ZM371.809 125.727C372.595 125.727 373.222 125.48 373.69 124.986C374.159 124.479 374.412 123.745 374.45 122.782C374.463 122.592 374.469 122.351 374.469 122.06C374.469 121.769 374.463 121.528 374.45 121.338C374.412 120.375 374.159 119.647 373.69 119.153C373.222 118.646 372.595 118.393 371.809 118.393C371.024 118.393 370.391 118.646 369.909 119.153C369.441 119.647 369.194 120.375 369.168 121.338C369.156 121.528 369.149 121.769 369.149 122.06C369.149 122.351 369.156 122.592 369.168 122.782C369.194 123.745 369.441 124.479 369.909 124.986C370.391 125.48 371.024 125.727 371.809 125.727ZM379.11 127C378.983 127 378.875 126.962 378.787 126.886C378.711 126.797 378.673 126.69 378.673 126.563V117.557C378.673 117.43 378.711 117.329 378.787 117.253C378.875 117.164 378.983 117.12 379.11 117.12H380.003C380.129 117.12 380.231 117.164 380.307 117.253C380.395 117.329 380.44 117.43 380.44 117.557V118.393C380.769 117.962 381.181 117.614 381.675 117.348C382.181 117.069 382.827 116.93 383.613 116.93C384.436 116.93 385.133 117.114 385.703 117.481C386.285 117.836 386.722 118.336 387.014 118.982C387.305 119.615 387.451 120.356 387.451 121.205V126.563C387.451 126.69 387.413 126.797 387.337 126.886C387.261 126.962 387.159 127 387.033 127H386.083C385.956 127 385.848 126.962 385.76 126.886C385.684 126.797 385.646 126.69 385.646 126.563V121.3C385.646 120.413 385.43 119.723 385 119.229C384.569 118.722 383.936 118.469 383.1 118.469C382.314 118.469 381.681 118.722 381.2 119.229C380.731 119.723 380.497 120.413 380.497 121.3V126.563C380.497 126.69 380.452 126.797 380.364 126.886C380.288 126.962 380.186 127 380.06 127H379.11ZM394.242 131.18C393.381 131.18 392.671 131.066 392.114 130.838C391.569 130.61 391.139 130.331 390.822 130.002C390.518 129.685 390.296 129.362 390.157 129.033C390.03 128.716 389.961 128.463 389.948 128.273C389.935 128.146 389.973 128.039 390.062 127.95C390.163 127.861 390.271 127.817 390.385 127.817H391.297C391.411 127.817 391.506 127.842 391.582 127.893C391.658 127.944 391.721 128.051 391.772 128.216C391.848 128.406 391.962 128.615 392.114 128.843C392.266 129.084 392.5 129.286 392.817 129.451C393.134 129.628 393.577 129.717 394.147 129.717C394.742 129.717 395.243 129.635 395.648 129.47C396.053 129.318 396.357 129.039 396.56 128.634C396.775 128.241 396.883 127.697 396.883 127V125.708C396.579 126.101 396.18 126.43 395.686 126.696C395.192 126.949 394.571 127.076 393.824 127.076C393.115 127.076 392.507 126.956 392 126.715C391.493 126.462 391.075 126.126 390.746 125.708C390.429 125.277 390.189 124.79 390.024 124.245C389.872 123.7 389.783 123.13 389.758 122.535C389.745 122.18 389.745 121.832 389.758 121.49C389.783 120.895 389.872 120.325 390.024 119.78C390.189 119.235 390.429 118.748 390.746 118.317C391.075 117.886 391.493 117.551 392 117.31C392.507 117.057 393.115 116.93 393.824 116.93C394.584 116.93 395.211 117.076 395.705 117.367C396.212 117.646 396.623 117.988 396.94 118.393V117.576C396.94 117.449 396.978 117.342 397.054 117.253C397.143 117.164 397.25 117.12 397.377 117.12H398.251C398.378 117.12 398.485 117.164 398.574 117.253C398.663 117.342 398.707 117.449 398.707 117.576V126.791C398.707 127.64 398.561 128.393 398.27 129.052C397.991 129.711 397.523 130.23 396.864 130.61C396.218 130.99 395.344 131.18 394.242 131.18ZM394.204 125.556C394.837 125.556 395.344 125.41 395.724 125.119C396.117 124.828 396.402 124.46 396.579 124.017C396.769 123.574 396.87 123.124 396.883 122.668C396.896 122.491 396.902 122.275 396.902 122.022C396.902 121.756 396.896 121.534 396.883 121.357C396.87 120.901 396.769 120.451 396.579 120.008C396.402 119.565 396.117 119.197 395.724 118.906C395.344 118.615 394.837 118.469 394.204 118.469C393.571 118.469 393.064 118.615 392.684 118.906C392.304 119.185 392.032 119.558 391.867 120.027C391.702 120.483 391.607 120.977 391.582 121.509C391.569 121.838 391.569 122.174 391.582 122.516C391.607 123.048 391.702 123.548 391.867 124.017C392.032 124.473 392.304 124.847 392.684 125.138C393.064 125.417 393.571 125.556 394.204 125.556Z" fill="white" fill-opacity="0.75"/>
<path d="M117.544 127C117.417 127 117.31 126.962 117.221 126.886C117.145 126.797 117.107 126.69 117.107 126.563V115.391H113.459C113.332 115.391 113.225 115.353 113.136 115.277C113.06 115.188 113.022 115.081 113.022 114.954V114.156C113.022 114.017 113.06 113.909 113.136 113.833C113.225 113.744 113.332 113.7 113.459 113.7H122.617C122.756 113.7 122.864 113.744 122.94 113.833C123.029 113.909 123.073 114.017 123.073 114.156V114.954C123.073 115.081 123.029 115.188 122.94 115.277C122.864 115.353 122.756 115.391 122.617 115.391H118.988V126.563C118.988 126.69 118.944 126.797 118.855 126.886C118.779 126.962 118.671 127 118.532 127H117.544ZM125.022 127C124.895 127 124.788 126.962 124.699 126.886C124.623 126.797 124.585 126.69 124.585 126.563V113.947C124.585 113.82 124.623 113.719 124.699 113.643C124.788 113.554 124.895 113.51 125.022 113.51H125.972C126.111 113.51 126.219 113.554 126.295 113.643C126.371 113.719 126.409 113.82 126.409 113.947V118.374C126.751 117.943 127.169 117.595 127.663 117.329C128.157 117.063 128.784 116.93 129.544 116.93C130.367 116.93 131.064 117.114 131.634 117.481C132.217 117.836 132.654 118.336 132.945 118.982C133.249 119.615 133.401 120.356 133.401 121.205V126.563C133.401 126.69 133.363 126.797 133.287 126.886C133.211 126.962 133.103 127 132.964 127H132.014C131.887 127 131.78 126.962 131.691 126.886C131.615 126.797 131.577 126.69 131.577 126.563V121.3C131.577 120.413 131.362 119.723 130.931 119.229C130.5 118.722 129.867 118.469 129.031 118.469C128.246 118.469 127.612 118.722 127.131 119.229C126.65 119.723 126.409 120.413 126.409 121.3V126.563C126.409 126.69 126.371 126.797 126.295 126.886C126.219 126.962 126.111 127 125.972 127H125.022ZM136.581 127C136.455 127 136.347 126.962 136.258 126.886C136.182 126.797 136.144 126.69 136.144 126.563V117.557C136.144 117.43 136.182 117.329 136.258 117.253C136.347 117.164 136.455 117.12 136.581 117.12H137.493C137.62 117.12 137.721 117.164 137.797 117.253C137.873 117.329 137.911 117.43 137.911 117.557V126.563C137.911 126.69 137.873 126.797 137.797 126.886C137.721 126.962 137.62 127 137.493 127H136.581ZM136.429 115.277C136.303 115.277 136.195 115.239 136.106 115.163C136.03 115.074 135.992 114.967 135.992 114.84V113.814C135.992 113.687 136.03 113.586 136.106 113.51C136.195 113.421 136.303 113.377 136.429 113.377H137.626C137.753 113.377 137.854 113.421 137.93 113.51C138.019 113.586 138.063 113.687 138.063 113.814V114.84C138.063 114.967 138.019 115.074 137.93 115.163C137.854 115.239 137.753 115.277 137.626 115.277H136.429ZM144.277 127.19C143.568 127.19 142.96 127.101 142.453 126.924C141.947 126.747 141.535 126.531 141.218 126.278C140.902 126.025 140.661 125.771 140.496 125.518C140.344 125.265 140.262 125.062 140.249 124.91C140.237 124.771 140.281 124.663 140.382 124.587C140.484 124.511 140.585 124.473 140.686 124.473H141.522C141.598 124.473 141.655 124.486 141.693 124.511C141.744 124.524 141.807 124.574 141.883 124.663C142.048 124.84 142.232 125.018 142.434 125.195C142.637 125.372 142.884 125.518 143.175 125.632C143.479 125.746 143.853 125.803 144.296 125.803C144.942 125.803 145.474 125.683 145.892 125.442C146.31 125.189 146.519 124.821 146.519 124.34C146.519 124.023 146.431 123.77 146.253 123.58C146.089 123.39 145.785 123.219 145.341 123.067C144.911 122.915 144.315 122.757 143.555 122.592C142.795 122.415 142.194 122.199 141.75 121.946C141.307 121.68 140.99 121.37 140.8 121.015C140.61 120.648 140.515 120.236 140.515 119.78C140.515 119.311 140.655 118.862 140.933 118.431C141.212 117.988 141.617 117.627 142.149 117.348C142.694 117.069 143.372 116.93 144.182 116.93C144.841 116.93 145.405 117.012 145.873 117.177C146.342 117.342 146.728 117.551 147.032 117.804C147.336 118.045 147.564 118.285 147.716 118.526C147.868 118.767 147.951 118.969 147.963 119.134C147.976 119.261 147.938 119.368 147.849 119.457C147.761 119.533 147.659 119.571 147.545 119.571H146.747C146.659 119.571 146.583 119.552 146.519 119.514C146.469 119.476 146.418 119.432 146.367 119.381C146.241 119.216 146.089 119.052 145.911 118.887C145.747 118.722 145.525 118.589 145.246 118.488C144.98 118.374 144.626 118.317 144.182 118.317C143.549 118.317 143.074 118.45 142.757 118.716C142.441 118.982 142.282 119.318 142.282 119.723C142.282 119.964 142.352 120.179 142.491 120.369C142.631 120.559 142.897 120.73 143.289 120.882C143.682 121.034 144.265 121.199 145.037 121.376C145.873 121.541 146.532 121.762 147.013 122.041C147.495 122.32 147.837 122.643 148.039 123.01C148.242 123.377 148.343 123.802 148.343 124.283C148.343 124.815 148.185 125.303 147.868 125.746C147.564 126.189 147.108 126.544 146.5 126.81C145.905 127.063 145.164 127.19 144.277 127.19ZM158.649 127C157.939 127 157.363 126.867 156.92 126.601C156.476 126.322 156.153 125.936 155.951 125.442C155.748 124.935 155.647 124.34 155.647 123.656V118.64H154.165C154.038 118.64 153.93 118.602 153.842 118.526C153.766 118.437 153.728 118.33 153.728 118.203V117.557C153.728 117.43 153.766 117.329 153.842 117.253C153.93 117.164 154.038 117.12 154.165 117.12H155.647V113.947C155.647 113.82 155.685 113.719 155.761 113.643C155.849 113.554 155.957 113.51 156.084 113.51H156.977C157.103 113.51 157.205 113.554 157.281 113.643C157.369 113.719 157.414 113.82 157.414 113.947V117.12H159.77C159.896 117.12 159.998 117.164 160.074 117.253C160.162 117.329 160.207 117.43 160.207 117.557V118.203C160.207 118.33 160.162 118.437 160.074 118.526C159.998 118.602 159.896 118.64 159.77 118.64H157.414V123.523C157.414 124.118 157.515 124.587 157.718 124.929C157.92 125.271 158.281 125.442 158.801 125.442H159.96C160.086 125.442 160.188 125.486 160.264 125.575C160.352 125.651 160.397 125.752 160.397 125.879V126.563C160.397 126.69 160.352 126.797 160.264 126.886C160.188 126.962 160.086 127 159.96 127H158.649ZM166.147 127.19C164.842 127.19 163.803 126.791 163.031 125.993C162.258 125.182 161.834 124.08 161.758 122.687C161.745 122.522 161.739 122.313 161.739 122.06C161.739 121.794 161.745 121.579 161.758 121.414C161.808 120.515 162.017 119.729 162.385 119.058C162.752 118.374 163.252 117.848 163.886 117.481C164.532 117.114 165.285 116.93 166.147 116.93C167.109 116.93 167.914 117.133 168.56 117.538C169.218 117.943 169.719 118.52 170.061 119.267C170.403 120.014 170.574 120.888 170.574 121.889V122.212C170.574 122.351 170.529 122.459 170.441 122.535C170.365 122.611 170.263 122.649 170.137 122.649H163.563C163.563 122.662 163.563 122.687 163.563 122.725C163.563 122.763 163.563 122.795 163.563 122.82C163.588 123.339 163.702 123.827 163.905 124.283C164.107 124.726 164.399 125.087 164.779 125.366C165.159 125.645 165.615 125.784 166.147 125.784C166.603 125.784 166.983 125.714 167.287 125.575C167.591 125.436 167.838 125.284 168.028 125.119C168.218 124.942 168.344 124.809 168.408 124.72C168.522 124.555 168.61 124.46 168.674 124.435C168.737 124.397 168.838 124.378 168.978 124.378H169.89C170.016 124.378 170.118 124.416 170.194 124.492C170.282 124.555 170.32 124.65 170.308 124.777C170.295 124.967 170.194 125.201 170.004 125.48C169.814 125.746 169.541 126.012 169.187 126.278C168.832 126.544 168.401 126.766 167.895 126.943C167.388 127.108 166.805 127.19 166.147 127.19ZM163.563 121.338H168.769V121.281C168.769 120.711 168.661 120.204 168.446 119.761C168.243 119.318 167.945 118.969 167.553 118.716C167.16 118.45 166.691 118.317 166.147 118.317C165.602 118.317 165.133 118.45 164.741 118.716C164.361 118.969 164.069 119.318 163.867 119.761C163.664 120.204 163.563 120.711 163.563 121.281V121.338ZM172.185 127C172.084 127 171.989 126.962 171.9 126.886C171.824 126.81 171.786 126.715 171.786 126.601C171.786 126.563 171.793 126.519 171.805 126.468C171.831 126.405 171.869 126.335 171.919 126.259L175.225 121.946L172.128 117.861C172.078 117.785 172.04 117.722 172.014 117.671C172.002 117.62 171.995 117.57 171.995 117.519C171.995 117.405 172.033 117.31 172.109 117.234C172.185 117.158 172.28 117.12 172.394 117.12H173.363C173.503 117.12 173.604 117.158 173.667 117.234C173.743 117.297 173.807 117.361 173.857 117.424L176.384 120.711L178.911 117.443C178.962 117.38 179.019 117.31 179.082 117.234C179.158 117.158 179.266 117.12 179.405 117.12H180.336C180.45 117.12 180.545 117.158 180.621 117.234C180.697 117.31 180.735 117.405 180.735 117.519C180.735 117.57 180.723 117.62 180.697 117.671C180.685 117.722 180.653 117.785 180.602 117.861L177.467 121.984L180.773 126.259C180.824 126.335 180.856 126.398 180.868 126.449C180.894 126.5 180.906 126.55 180.906 126.601C180.906 126.715 180.868 126.81 180.792 126.886C180.716 126.962 180.621 127 180.507 127H179.5C179.374 127 179.272 126.968 179.196 126.905C179.12 126.842 179.057 126.778 179.006 126.715L176.327 123.238L173.648 126.715C173.598 126.766 173.534 126.829 173.458 126.905C173.395 126.968 173.294 127 173.154 127H172.185ZM186.741 127C186.031 127 185.455 126.867 185.012 126.601C184.568 126.322 184.245 125.936 184.043 125.442C183.84 124.935 183.739 124.34 183.739 123.656V118.64H182.257C182.13 118.64 182.022 118.602 181.934 118.526C181.858 118.437 181.82 118.33 181.82 118.203V117.557C181.82 117.43 181.858 117.329 181.934 117.253C182.022 117.164 182.13 117.12 182.257 117.12H183.739V113.947C183.739 113.82 183.777 113.719 183.853 113.643C183.941 113.554 184.049 113.51 184.176 113.51H185.069C185.195 113.51 185.297 113.554 185.373 113.643C185.461 113.719 185.506 113.82 185.506 113.947V117.12H187.862C187.988 117.12 188.09 117.164 188.166 117.253C188.254 117.329 188.299 117.43 188.299 117.557V118.203C188.299 118.33 188.254 118.437 188.166 118.526C188.09 118.602 187.988 118.64 187.862 118.64H185.506V123.523C185.506 124.118 185.607 124.587 185.81 124.929C186.012 125.271 186.373 125.442 186.893 125.442H188.052C188.178 125.442 188.28 125.486 188.356 125.575C188.444 125.651 188.489 125.752 188.489 125.879V126.563C188.489 126.69 188.444 126.797 188.356 126.886C188.28 126.962 188.178 127 188.052 127H186.741ZM195.4 127C195.273 127 195.165 126.962 195.077 126.886C195.001 126.797 194.963 126.69 194.963 126.563V117.557C194.963 117.43 195.001 117.329 195.077 117.253C195.165 117.164 195.273 117.12 195.4 117.12H196.312C196.438 117.12 196.54 117.164 196.616 117.253C196.692 117.329 196.73 117.43 196.73 117.557V126.563C196.73 126.69 196.692 126.797 196.616 126.886C196.54 126.962 196.438 127 196.312 127H195.4ZM195.248 115.277C195.121 115.277 195.013 115.239 194.925 115.163C194.849 115.074 194.811 114.967 194.811 114.84V113.814C194.811 113.687 194.849 113.586 194.925 113.51C195.013 113.421 195.121 113.377 195.248 113.377H196.445C196.571 113.377 196.673 113.421 196.749 113.51C196.837 113.586 196.882 113.687 196.882 113.814V114.84C196.882 114.967 196.837 115.074 196.749 115.163C196.673 115.239 196.571 115.277 196.445 115.277H195.248ZM203.096 127.19C202.386 127.19 201.778 127.101 201.272 126.924C200.765 126.747 200.353 126.531 200.037 126.278C199.72 126.025 199.479 125.771 199.315 125.518C199.163 125.265 199.08 125.062 199.068 124.91C199.055 124.771 199.099 124.663 199.201 124.587C199.302 124.511 199.403 124.473 199.505 124.473H200.341C200.417 124.473 200.474 124.486 200.512 124.511C200.562 124.524 200.626 124.574 200.702 124.663C200.866 124.84 201.05 125.018 201.253 125.195C201.455 125.372 201.702 125.518 201.994 125.632C202.298 125.746 202.671 125.803 203.115 125.803C203.761 125.803 204.293 125.683 204.711 125.442C205.129 125.189 205.338 124.821 205.338 124.34C205.338 124.023 205.249 123.77 205.072 123.58C204.907 123.39 204.603 123.219 204.16 123.067C203.729 122.915 203.134 122.757 202.374 122.592C201.614 122.415 201.012 122.199 200.569 121.946C200.125 121.68 199.809 121.37 199.619 121.015C199.429 120.648 199.334 120.236 199.334 119.78C199.334 119.311 199.473 118.862 199.752 118.431C200.03 117.988 200.436 117.627 200.968 117.348C201.512 117.069 202.19 116.93 203.001 116.93C203.659 116.93 204.223 117.012 204.692 117.177C205.16 117.342 205.547 117.551 205.851 117.804C206.155 118.045 206.383 118.285 206.535 118.526C206.687 118.767 206.769 118.969 206.782 119.134C206.794 119.261 206.756 119.368 206.668 119.457C206.579 119.533 206.478 119.571 206.364 119.571H205.566C205.477 119.571 205.401 119.552 205.338 119.514C205.287 119.476 205.236 119.432 205.186 119.381C205.059 119.216 204.907 119.052 204.73 118.887C204.565 118.722 204.343 118.589 204.065 118.488C203.799 118.374 203.444 118.317 203.001 118.317C202.367 118.317 201.892 118.45 201.576 118.716C201.259 118.982 201.101 119.318 201.101 119.723C201.101 119.964 201.17 120.179 201.31 120.369C201.449 120.559 201.715 120.73 202.108 120.882C202.5 121.034 203.083 121.199 203.856 121.376C204.692 121.541 205.35 121.762 205.832 122.041C206.313 122.32 206.655 122.643 206.858 123.01C207.06 123.377 207.162 123.802 207.162 124.283C207.162 124.815 207.003 125.303 206.687 125.746C206.383 126.189 205.927 126.544 205.319 126.81C204.723 127.063 203.982 127.19 203.096 127.19ZM214.455 127C214.329 127 214.221 126.962 214.132 126.886C214.056 126.797 214.018 126.69 214.018 126.563V117.557C214.018 117.43 214.056 117.329 214.132 117.253C214.221 117.164 214.329 117.12 214.455 117.12H215.367C215.494 117.12 215.595 117.164 215.671 117.253C215.747 117.329 215.785 117.43 215.785 117.557V126.563C215.785 126.69 215.747 126.797 215.671 126.886C215.595 126.962 215.494 127 215.367 127H214.455ZM214.303 115.277C214.177 115.277 214.069 115.239 213.98 115.163C213.904 115.074 213.866 114.967 213.866 114.84V113.814C213.866 113.687 213.904 113.586 213.98 113.51C214.069 113.421 214.177 113.377 214.303 113.377H215.5C215.627 113.377 215.728 113.421 215.804 113.51C215.893 113.586 215.937 113.687 215.937 113.814V114.84C215.937 114.967 215.893 115.074 215.804 115.163C215.728 115.239 215.627 115.277 215.5 115.277H214.303ZM219.242 127C219.116 127 219.008 126.962 218.919 126.886C218.843 126.797 218.805 126.69 218.805 126.563V117.557C218.805 117.43 218.843 117.329 218.919 117.253C219.008 117.164 219.116 117.12 219.242 117.12H220.097C220.224 117.12 220.325 117.164 220.401 117.253C220.49 117.329 220.534 117.43 220.534 117.557V118.222C220.826 117.829 221.193 117.519 221.636 117.291C222.08 117.05 222.612 116.93 223.232 116.93C224.664 116.917 225.677 117.5 226.272 118.678C226.564 118.146 226.988 117.722 227.545 117.405C228.103 117.088 228.736 116.93 229.445 116.93C230.104 116.93 230.699 117.082 231.231 117.386C231.776 117.69 232.2 118.152 232.504 118.773C232.821 119.381 232.979 120.147 232.979 121.072V126.563C232.979 126.69 232.935 126.797 232.846 126.886C232.77 126.962 232.669 127 232.542 127H231.649C231.523 127 231.415 126.962 231.326 126.886C231.25 126.797 231.212 126.69 231.212 126.563V121.243C231.212 120.534 231.111 119.976 230.908 119.571C230.706 119.166 230.433 118.881 230.091 118.716C229.749 118.551 229.376 118.469 228.97 118.469C228.641 118.469 228.305 118.551 227.963 118.716C227.621 118.881 227.336 119.166 227.108 119.571C226.893 119.976 226.785 120.534 226.785 121.243V126.563C226.785 126.69 226.741 126.797 226.652 126.886C226.576 126.962 226.475 127 226.348 127H225.455C225.329 127 225.221 126.962 225.132 126.886C225.056 126.797 225.018 126.69 225.018 126.563V121.243C225.018 120.534 224.911 119.976 224.695 119.571C224.48 119.166 224.201 118.881 223.859 118.716C223.517 118.551 223.156 118.469 222.776 118.469C222.447 118.469 222.111 118.551 221.769 118.716C221.427 118.881 221.142 119.166 220.914 119.571C220.699 119.976 220.591 120.527 220.591 121.224V126.563C220.591 126.69 220.547 126.797 220.458 126.886C220.382 126.962 220.281 127 220.154 127H219.242ZM236.146 130.61C236.02 130.61 235.912 130.566 235.823 130.477C235.747 130.401 235.709 130.3 235.709 130.173V117.557C235.709 117.43 235.747 117.329 235.823 117.253C235.912 117.164 236.02 117.12 236.146 117.12H237.02C237.147 117.12 237.248 117.164 237.324 117.253C237.413 117.329 237.457 117.43 237.457 117.557V118.393C237.761 117.975 238.167 117.627 238.673 117.348C239.18 117.069 239.813 116.93 240.573 116.93C241.283 116.93 241.884 117.05 242.378 117.291C242.885 117.532 243.297 117.861 243.613 118.279C243.943 118.697 244.19 119.172 244.354 119.704C244.519 120.236 244.608 120.806 244.62 121.414C244.633 121.617 244.639 121.832 244.639 122.06C244.639 122.288 244.633 122.503 244.62 122.706C244.608 123.301 244.519 123.871 244.354 124.416C244.19 124.948 243.943 125.423 243.613 125.841C243.297 126.246 242.885 126.576 242.378 126.829C241.884 127.07 241.283 127.19 240.573 127.19C239.839 127.19 239.218 127.057 238.711 126.791C238.217 126.512 237.812 126.17 237.495 125.765V130.173C237.495 130.3 237.457 130.401 237.381 130.477C237.305 130.566 237.198 130.61 237.058 130.61H236.146ZM240.174 125.651C240.833 125.651 241.346 125.512 241.713 125.233C242.093 124.942 242.366 124.568 242.53 124.112C242.695 123.643 242.79 123.143 242.815 122.611C242.828 122.244 242.828 121.876 242.815 121.509C242.79 120.977 242.695 120.483 242.53 120.027C242.366 119.558 242.093 119.185 241.713 118.906C241.346 118.615 240.833 118.469 240.174 118.469C239.554 118.469 239.047 118.615 238.654 118.906C238.274 119.197 237.989 119.571 237.799 120.027C237.622 120.47 237.521 120.926 237.495 121.395C237.483 121.598 237.476 121.838 237.476 122.117C237.476 122.396 237.483 122.643 237.495 122.858C237.508 123.301 237.609 123.738 237.799 124.169C238.002 124.6 238.3 124.954 238.692 125.233C239.085 125.512 239.579 125.651 240.174 125.651ZM251.056 127.19C250.093 127.19 249.289 127.006 248.643 126.639C247.997 126.272 247.503 125.765 247.161 125.119C246.819 124.46 246.629 123.713 246.591 122.877C246.578 122.662 246.572 122.389 246.572 122.06C246.572 121.718 246.578 121.446 246.591 121.243C246.629 120.394 246.819 119.647 247.161 119.001C247.515 118.355 248.016 117.848 248.662 117.481C249.308 117.114 250.106 116.93 251.056 116.93C252.006 116.93 252.804 117.114 253.45 117.481C254.096 117.848 254.59 118.355 254.932 119.001C255.286 119.647 255.483 120.394 255.521 121.243C255.533 121.446 255.54 121.718 255.54 122.06C255.54 122.389 255.533 122.662 255.521 122.877C255.483 123.713 255.293 124.46 254.951 125.119C254.609 125.765 254.115 126.272 253.469 126.639C252.823 127.006 252.018 127.19 251.056 127.19ZM251.056 125.727C251.841 125.727 252.468 125.48 252.937 124.986C253.405 124.479 253.659 123.745 253.697 122.782C253.709 122.592 253.716 122.351 253.716 122.06C253.716 121.769 253.709 121.528 253.697 121.338C253.659 120.375 253.405 119.647 252.937 119.153C252.468 118.646 251.841 118.393 251.056 118.393C250.27 118.393 249.637 118.646 249.156 119.153C248.687 119.647 248.44 120.375 248.415 121.338C248.402 121.528 248.396 121.769 248.396 122.06C248.396 122.351 248.402 122.592 248.415 122.782C248.44 123.745 248.687 124.479 249.156 124.986C249.637 125.48 250.27 125.727 251.056 125.727ZM258.356 127C258.229 127 258.121 126.962 258.033 126.886C257.957 126.797 257.919 126.69 257.919 126.563V117.576C257.919 117.449 257.957 117.342 258.033 117.253C258.121 117.164 258.229 117.12 258.356 117.12H259.23C259.356 117.12 259.464 117.164 259.553 117.253C259.641 117.342 259.686 117.449 259.686 117.576V118.412C259.939 117.981 260.287 117.658 260.731 117.443C261.174 117.228 261.706 117.12 262.327 117.12H263.087C263.213 117.12 263.315 117.164 263.391 117.253C263.467 117.329 263.505 117.43 263.505 117.557V118.336C263.505 118.463 263.467 118.564 263.391 118.64C263.315 118.716 263.213 118.754 263.087 118.754H261.947C261.263 118.754 260.724 118.957 260.332 119.362C259.939 119.755 259.743 120.293 259.743 120.977V126.563C259.743 126.69 259.698 126.797 259.61 126.886C259.521 126.962 259.413 127 259.287 127H258.356ZM268.993 127C268.284 127 267.708 126.867 267.264 126.601C266.821 126.322 266.498 125.936 266.295 125.442C266.093 124.935 265.991 124.34 265.991 123.656V118.64H264.509C264.383 118.64 264.275 118.602 264.186 118.526C264.11 118.437 264.072 118.33 264.072 118.203V117.557C264.072 117.43 264.11 117.329 264.186 117.253C264.275 117.164 264.383 117.12 264.509 117.12H265.991V113.947C265.991 113.82 266.029 113.719 266.105 113.643C266.194 113.554 266.302 113.51 266.428 113.51H267.321C267.448 113.51 267.549 113.554 267.625 113.643C267.714 113.719 267.758 113.82 267.758 113.947V117.12H270.114C270.241 117.12 270.342 117.164 270.418 117.253C270.507 117.329 270.551 117.43 270.551 117.557V118.203C270.551 118.33 270.507 118.437 270.418 118.526C270.342 118.602 270.241 118.64 270.114 118.64H267.758V123.523C267.758 124.118 267.86 124.587 268.062 124.929C268.265 125.271 268.626 125.442 269.145 125.442H270.304C270.431 125.442 270.532 125.486 270.608 125.575C270.697 125.651 270.741 125.752 270.741 125.879V126.563C270.741 126.69 270.697 126.797 270.608 126.886C270.532 126.962 270.431 127 270.304 127H268.993ZM275.313 127.19C274.68 127.19 274.104 127.063 273.584 126.81C273.065 126.557 272.647 126.215 272.33 125.784C272.014 125.353 271.855 124.866 271.855 124.321C271.855 123.447 272.21 122.75 272.919 122.231C273.629 121.712 274.553 121.37 275.693 121.205L278.524 120.806V120.255C278.524 119.647 278.347 119.172 277.992 118.83C277.65 118.488 277.087 118.317 276.301 118.317C275.731 118.317 275.269 118.431 274.914 118.659C274.572 118.887 274.332 119.178 274.192 119.533C274.116 119.723 273.983 119.818 273.793 119.818H272.938C272.799 119.818 272.691 119.78 272.615 119.704C272.552 119.615 272.52 119.514 272.52 119.4C272.52 119.21 272.59 118.976 272.729 118.697C272.881 118.418 273.109 118.146 273.413 117.88C273.717 117.614 274.104 117.392 274.572 117.215C275.054 117.025 275.636 116.93 276.32 116.93C277.08 116.93 277.72 117.031 278.239 117.234C278.759 117.424 279.164 117.684 279.455 118.013C279.759 118.342 279.975 118.716 280.101 119.134C280.241 119.552 280.31 119.976 280.31 120.407V126.563C280.31 126.69 280.266 126.797 280.177 126.886C280.101 126.962 280 127 279.873 127H278.999C278.86 127 278.752 126.962 278.676 126.886C278.6 126.797 278.562 126.69 278.562 126.563V125.746C278.398 125.974 278.176 126.202 277.897 126.43C277.619 126.645 277.27 126.829 276.852 126.981C276.434 127.12 275.921 127.19 275.313 127.19ZM275.712 125.765C276.232 125.765 276.707 125.657 277.137 125.442C277.568 125.214 277.904 124.866 278.144 124.397C278.398 123.928 278.524 123.339 278.524 122.63V122.098L276.32 122.421C275.421 122.548 274.743 122.763 274.287 123.067C273.831 123.358 273.603 123.732 273.603 124.188C273.603 124.543 273.705 124.84 273.907 125.081C274.123 125.309 274.389 125.48 274.705 125.594C275.035 125.708 275.37 125.765 275.712 125.765ZM283.479 127C283.352 127 283.244 126.962 283.156 126.886C283.08 126.797 283.042 126.69 283.042 126.563V117.557C283.042 117.43 283.08 117.329 283.156 117.253C283.244 117.164 283.352 117.12 283.479 117.12H284.372C284.498 117.12 284.6 117.164 284.676 117.253C284.764 117.329 284.809 117.43 284.809 117.557V118.393C285.138 117.962 285.55 117.614 286.044 117.348C286.55 117.069 287.196 116.93 287.982 116.93C288.805 116.93 289.502 117.114 290.072 117.481C290.654 117.836 291.091 118.336 291.383 118.982C291.674 119.615 291.82 120.356 291.82 121.205V126.563C291.82 126.69 291.782 126.797 291.706 126.886C291.63 126.962 291.528 127 291.402 127H290.452C290.325 127 290.217 126.962 290.129 126.886C290.053 126.797 290.015 126.69 290.015 126.563V121.3C290.015 120.413 289.799 119.723 289.369 119.229C288.938 118.722 288.305 118.469 287.469 118.469C286.683 118.469 286.05 118.722 285.569 119.229C285.1 119.723 284.866 120.413 284.866 121.3V126.563C284.866 126.69 284.821 126.797 284.733 126.886C284.657 126.962 284.555 127 284.429 127H283.479ZM298.291 127C297.582 127 297.006 126.867 296.562 126.601C296.119 126.322 295.796 125.936 295.593 125.442C295.391 124.935 295.289 124.34 295.289 123.656V118.64H293.807C293.681 118.64 293.573 118.602 293.484 118.526C293.408 118.437 293.37 118.33 293.37 118.203V117.557C293.37 117.43 293.408 117.329 293.484 117.253C293.573 117.164 293.681 117.12 293.807 117.12H295.289V113.947C295.289 113.82 295.327 113.719 295.403 113.643C295.492 113.554 295.6 113.51 295.726 113.51H296.619C296.746 113.51 296.847 113.554 296.923 113.643C297.012 113.719 297.056 113.82 297.056 113.947V117.12H299.412C299.539 117.12 299.64 117.164 299.716 117.253C299.805 117.329 299.849 117.43 299.849 117.557V118.203C299.849 118.33 299.805 118.437 299.716 118.526C299.64 118.602 299.539 118.64 299.412 118.64H297.056V123.523C297.056 124.118 297.158 124.587 297.36 124.929C297.563 125.271 297.924 125.442 298.443 125.442H299.602C299.729 125.442 299.83 125.486 299.906 125.575C299.995 125.651 300.039 125.752 300.039 125.879V126.563C300.039 126.69 299.995 126.797 299.906 126.886C299.83 126.962 299.729 127 299.602 127H298.291ZM306.988 123.846C306.862 123.846 306.754 123.808 306.665 123.732C306.589 123.643 306.551 123.536 306.551 123.409V114.137C306.551 114.01 306.589 113.909 306.665 113.833C306.754 113.744 306.862 113.7 306.988 113.7H307.881C308.008 113.7 308.109 113.744 308.185 113.833C308.261 113.909 308.299 114.01 308.299 114.137V123.409C308.299 123.536 308.261 123.643 308.185 123.732C308.109 123.808 308.008 123.846 307.881 123.846H306.988ZM306.817 127C306.691 127 306.583 126.962 306.494 126.886C306.418 126.797 306.38 126.69 306.38 126.563V125.366C306.38 125.227 306.418 125.119 306.494 125.043C306.583 124.954 306.691 124.91 306.817 124.91H308.033C308.16 124.91 308.261 124.954 308.337 125.043C308.426 125.119 308.47 125.227 308.47 125.366V126.563C308.47 126.69 308.426 126.797 308.337 126.886C308.261 126.962 308.16 127 308.033 127H306.817Z" fill="white"/>
<g filter="url(#filter0_d_175_29)">
<path d="M4 12C4 5.37258 9.37258 0 16 0H578C584.627 0 590 5.37258 590 12V43H4V12Z" fill="#242526"/>
</g>
<ellipse cx="29.1279" cy="21.9139" rx="5.84369" ry="6.72025" fill="#E65100"/>
<ellipse cx="48.4121" cy="21.9139" rx="5.84369" ry="6.72025" fill="#FFD600"/>
<ellipse cx="67.6962" cy="21.9139" rx="5.84369" ry="6.72025" fill="#4EC433"/>
<defs>
<filter id="filter0_d_175_29" x="0" y="0" width="594" height="51" filterUnits="userSpaceOnUse" color-interpolation-filters="sRGB">
<feFlood flood-opacity="0" result="BackgroundImageFix"/>
<feColorMatrix in="SourceAlpha" type="matrix" values="0 0 0 0 0 0 0 0 0 0 0 0 0 0 0 0 0 0 127 0" result="hardAlpha"/>
<feOffset dy="4"/>
<feGaussianBlur stdDeviation="2"/>
<feComposite in2="hardAlpha" operator="out"/>
<feColorMatrix type="matrix" values="0 0 0 0 0 0 0 0 0 0 0 0 0 0 0 0 0 0 0.25 0"/>
<feBlend mode="normal" in2="BackgroundImageFix" result="effect1_dropShadow_175_29"/>
<feBlend mode="normal" in="SourceGraphic" in2="effect1_dropShadow_175_29" result="shape"/>
</filter>
</defs>
</svg>
