<svg width="337" height="204" viewBox="0 0 337 204" fill="none" xmlns="http://www.w3.org/2000/svg">
<rect x="4" width="329" height="203.361" rx="12" fill="#242526"/>
<rect x="4" width="329" height="195.764" rx="12" fill="#242526"/>
<path d="M30.676 81.525C30.6 81.525 30.5177 81.4997 30.429 81.449C30.353 81.3983 30.2833 81.3603 30.22 81.335L24.235 77.212C24.045 77.0853 23.9057 76.9587 23.817 76.832C23.7283 76.6927 23.684 76.5343 23.684 76.357V76.015C23.684 75.8377 23.7283 75.6857 23.817 75.559C23.9057 75.4323 24.045 75.2993 24.235 75.16L30.22 71.056C30.2833 71.018 30.353 70.9737 30.429 70.923C30.5177 70.8723 30.6 70.847 30.676 70.847C30.7773 70.847 30.866 70.885 30.942 70.961C31.018 71.0243 31.056 71.1193 31.056 71.246V72.082C31.056 72.2213 31.018 72.3417 30.942 72.443C30.866 72.5317 30.7583 72.6203 30.619 72.709L25.527 76.186L30.619 79.663C30.7583 79.7643 30.866 79.8593 30.942 79.948C31.018 80.0367 31.056 80.157 31.056 80.309V81.145C31.056 81.259 31.018 81.354 30.942 81.43C30.866 81.4933 30.7773 81.525 30.676 81.525ZM87.3126 81.506C87.2113 81.506 87.1226 81.4743 87.0466 81.411C86.9706 81.3477 86.9326 81.2527 86.9326 81.126V80.29C86.9326 80.138 86.9643 80.0177 87.0276 79.929C87.1036 79.8403 87.2176 79.7517 87.3696 79.663L92.4426 76.186L87.3696 72.709C87.2176 72.6077 87.1036 72.5127 87.0276 72.424C86.9643 72.3353 86.9326 72.215 86.9326 72.063V71.227C86.9326 71.1003 86.9706 71.0053 87.0466 70.942C87.1226 70.8787 87.2113 70.847 87.3126 70.847C87.3886 70.847 87.471 70.8723 87.5596 70.923C87.6483 70.961 87.718 70.999 87.7686 71.037L93.7346 75.141C93.9373 75.2803 94.0766 75.4133 94.1526 75.54C94.2413 75.6667 94.2856 75.825 94.2856 76.015V76.338C94.2856 76.5153 94.2413 76.6737 94.1526 76.813C94.0766 76.9397 93.9373 77.0727 93.7346 77.212L87.7686 81.316C87.718 81.354 87.6483 81.3983 87.5596 81.449C87.471 81.487 87.3886 81.506 87.3126 81.506ZM30.676 112.525C30.6 112.525 30.5177 112.5 30.429 112.449C30.353 112.398 30.2833 112.36 30.22 112.335L24.235 108.212C24.045 108.085 23.9057 107.959 23.817 107.832C23.7283 107.693 23.684 107.534 23.684 107.357V107.015C23.684 106.838 23.7283 106.686 23.817 106.559C23.9057 106.432 24.045 106.299 24.235 106.16L30.22 102.056C30.2833 102.018 30.353 101.974 30.429 101.923C30.5177 101.872 30.6 101.847 30.676 101.847C30.7773 101.847 30.866 101.885 30.942 101.961C31.018 102.024 31.056 102.119 31.056 102.246V103.082C31.056 103.221 31.018 103.342 30.942 103.443C30.866 103.532 30.7583 103.62 30.619 103.709L25.527 107.186L30.619 110.663C30.7583 110.764 30.866 110.859 30.942 110.948C31.018 111.037 31.056 111.157 31.056 111.309V112.145C31.056 112.259 31.018 112.354 30.942 112.43C30.866 112.493 30.7773 112.525 30.676 112.525ZM63.0431 112.506C62.9418 112.506 62.8531 112.474 62.7771 112.411C62.7011 112.348 62.6631 112.253 62.6631 112.126V111.29C62.6631 111.138 62.6948 111.018 62.7581 110.929C62.8341 110.84 62.9481 110.752 63.1001 110.663L68.1731 107.186L63.1001 103.709C62.9481 103.608 62.8341 103.513 62.7581 103.424C62.6948 103.335 62.6631 103.215 62.6631 103.063V102.227C62.6631 102.1 62.7011 102.005 62.7771 101.942C62.8531 101.879 62.9418 101.847 63.0431 101.847C63.1191 101.847 63.2014 101.872 63.2901 101.923C63.3788 101.961 63.4484 101.999 63.4991 102.037L69.4651 106.141C69.6678 106.28 69.8071 106.413 69.8831 106.54C69.9718 106.667 70.0161 106.825 70.0161 107.015V107.338C70.0161 107.515 69.9718 107.674 69.8831 107.813C69.8071 107.94 69.6678 108.073 69.4651 108.212L63.4991 112.316C63.4484 112.354 63.3788 112.398 63.2901 112.449C63.2014 112.487 63.1191 112.506 63.0431 112.506ZM234.778 112.525C234.702 112.525 234.619 112.5 234.531 112.449C234.455 112.398 234.385 112.36 234.322 112.335L228.337 108.212C228.147 108.085 228.007 107.959 227.919 107.832C227.83 107.693 227.786 107.534 227.786 107.357V107.015C227.786 106.838 227.83 106.686 227.919 106.559C228.007 106.432 228.147 106.299 228.337 106.16L234.322 102.056C234.385 102.018 234.455 101.974 234.531 101.923C234.619 101.872 234.702 101.847 234.778 101.847C234.879 101.847 234.968 101.885 235.044 101.961C235.12 102.024 235.158 102.119 235.158 102.246V103.082C235.158 103.221 235.12 103.342 235.044 103.443C234.968 103.532 234.86 103.62 234.721 103.709L229.629 107.186L234.721 110.663C234.86 110.764 234.968 110.859 235.044 110.948C235.12 111.037 235.158 111.157 235.158 111.309V112.145C235.158 112.259 235.12 112.354 235.044 112.43C234.968 112.493 234.879 112.525 234.778 112.525ZM280.949 112.506C280.848 112.506 280.759 112.474 280.683 112.411C280.607 112.348 280.569 112.253 280.569 112.126V111.29C280.569 111.138 280.601 111.018 280.664 110.929C280.74 110.84 280.854 110.752 281.006 110.663L286.079 107.186L281.006 103.709C280.854 103.608 280.74 103.513 280.664 103.424C280.601 103.335 280.569 103.215 280.569 103.063V102.227C280.569 102.1 280.607 102.005 280.683 101.942C280.759 101.879 280.848 101.847 280.949 101.847C281.025 101.847 281.108 101.872 281.196 101.923C281.285 101.961 281.355 101.999 281.405 102.037L287.371 106.141C287.574 106.28 287.713 106.413 287.789 106.54C287.878 106.667 287.922 106.825 287.922 107.015V107.338C287.922 107.515 287.878 107.674 287.789 107.813C287.713 107.94 287.574 108.073 287.371 108.212L281.405 112.316C281.355 112.354 281.285 112.398 281.196 112.449C281.108 112.487 281.025 112.506 280.949 112.506ZM30.676 143.525C30.6 143.525 30.5177 143.5 30.429 143.449C30.353 143.398 30.2833 143.36 30.22 143.335L24.235 139.212C24.045 139.085 23.9057 138.959 23.817 138.832C23.7283 138.693 23.684 138.534 23.684 138.357V138.015C23.684 137.838 23.7283 137.686 23.817 137.559C23.9057 137.432 24.045 137.299 24.235 137.16L30.22 133.056C30.2833 133.018 30.353 132.974 30.429 132.923C30.5177 132.872 30.6 132.847 30.676 132.847C30.7773 132.847 30.866 132.885 30.942 132.961C31.018 133.024 31.056 133.119 31.056 133.246V134.082C31.056 134.221 31.018 134.342 30.942 134.443C30.866 134.532 30.7583 134.62 30.619 134.709L25.527 138.186L30.619 141.663C30.7583 141.764 30.866 141.859 30.942 141.948C31.018 142.037 31.056 142.157 31.056 142.309V143.145C31.056 143.259 31.018 143.354 30.942 143.43C30.866 143.493 30.7773 143.525 30.676 143.525ZM54.6564 143.506C54.555 143.506 54.4664 143.474 54.3904 143.411C54.3144 143.348 54.2764 143.253 54.2764 143.126V142.29C54.2764 142.138 54.308 142.018 54.3714 141.929C54.4474 141.84 54.5614 141.752 54.7134 141.663L59.7864 138.186L54.7134 134.709C54.5614 134.608 54.4474 134.513 54.3714 134.424C54.308 134.335 54.2764 134.215 54.2764 134.063V133.227C54.2764 133.1 54.3144 133.005 54.3904 132.942C54.4664 132.879 54.555 132.847 54.6564 132.847C54.7324 132.847 54.8147 132.872 54.9034 132.923C54.992 132.961 55.0617 132.999 55.1124 133.037L61.0784 137.141C61.281 137.28 61.4204 137.413 61.4964 137.54C61.585 137.667 61.6294 137.825 61.6294 138.015V138.338C61.6294 138.515 61.585 138.674 61.4964 138.813C61.4204 138.94 61.281 139.073 61.0784 139.212L55.1124 143.316C55.0617 143.354 54.992 143.398 54.9034 143.449C54.8147 143.487 54.7324 143.506 54.6564 143.506ZM241.235 143.525C241.159 143.525 241.076 143.5 240.988 143.449C240.912 143.398 240.842 143.36 240.779 143.335L234.794 139.212C234.604 139.085 234.464 138.959 234.376 138.832C234.287 138.693 234.243 138.534 234.243 138.357V138.015C234.243 137.838 234.287 137.686 234.376 137.559C234.464 137.432 234.604 137.299 234.794 137.16L240.779 133.056C240.842 133.018 240.912 132.974 240.988 132.923C241.076 132.872 241.159 132.847 241.235 132.847C241.336 132.847 241.425 132.885 241.501 132.961C241.577 133.024 241.615 133.119 241.615 133.246V134.082C241.615 134.221 241.577 134.342 241.501 134.443C241.425 134.532 241.317 134.62 241.178 134.709L236.086 138.186L241.178 141.663C241.317 141.764 241.425 141.859 241.501 141.948C241.577 142.037 241.615 142.157 241.615 142.309V143.145C241.615 143.259 241.577 143.354 241.501 143.43C241.425 143.493 241.336 143.525 241.235 143.525ZM279.02 143.506C278.918 143.506 278.83 143.474 278.754 143.411C278.678 143.348 278.64 143.253 278.64 143.126V142.29C278.64 142.138 278.671 142.018 278.735 141.929C278.811 141.84 278.925 141.752 279.077 141.663L284.15 138.186L279.077 134.709C278.925 134.608 278.811 134.513 278.735 134.424C278.671 134.335 278.64 134.215 278.64 134.063V133.227C278.64 133.1 278.678 133.005 278.754 132.942C278.83 132.879 278.918 132.847 279.02 132.847C279.096 132.847 279.178 132.872 279.267 132.923C279.355 132.961 279.425 132.999 279.476 133.037L285.442 137.141C285.644 137.28 285.784 137.413 285.86 137.54C285.948 137.667 285.993 137.825 285.993 138.015V138.338C285.993 138.515 285.948 138.674 285.86 138.813C285.784 138.94 285.644 139.073 285.442 139.212L279.476 143.316C279.425 143.354 279.355 143.398 279.267 143.449C279.178 143.487 279.096 143.506 279.02 143.506ZM30.676 174.525C30.6 174.525 30.5177 174.5 30.429 174.449C30.353 174.398 30.2833 174.36 30.22 174.335L24.235 170.212C24.045 170.085 23.9057 169.959 23.817 169.832C23.7283 169.693 23.684 169.534 23.684 169.357V169.015C23.684 168.838 23.7283 168.686 23.817 168.559C23.9057 168.432 24.045 168.299 24.235 168.16L30.22 164.056C30.2833 164.018 30.353 163.974 30.429 163.923C30.5177 163.872 30.6 163.847 30.676 163.847C30.7773 163.847 30.866 163.885 30.942 163.961C31.018 164.024 31.056 164.119 31.056 164.246V165.082C31.056 165.221 31.018 165.342 30.942 165.443C30.866 165.532 30.7583 165.62 30.619 165.709L25.527 169.186L30.619 172.663C30.7583 172.764 30.866 172.859 30.942 172.948C31.018 173.037 31.056 173.157 31.056 173.309V174.145C31.056 174.259 31.018 174.354 30.942 174.43C30.866 174.493 30.7773 174.525 30.676 174.525ZM101.117 174.506C101.016 174.506 100.927 174.474 100.851 174.411C100.775 174.348 100.737 174.253 100.737 174.126V173.29C100.737 173.138 100.769 173.018 100.832 172.929C100.908 172.84 101.022 172.752 101.174 172.663L106.247 169.186L101.174 165.709C101.022 165.608 100.908 165.513 100.832 165.424C100.769 165.335 100.737 165.215 100.737 165.063V164.227C100.737 164.1 100.775 164.005 100.851 163.942C100.927 163.879 101.016 163.847 101.117 163.847C101.193 163.847 101.276 163.872 101.364 163.923C101.453 163.961 101.523 163.999 101.573 164.037L107.539 168.141C107.742 168.28 107.881 168.413 107.957 168.54C108.046 168.667 108.09 168.825 108.09 169.015V169.338C108.09 169.515 108.046 169.674 107.957 169.813C107.881 169.94 107.742 170.073 107.539 170.212L101.573 174.316C101.523 174.354 101.453 174.398 101.364 174.449C101.276 174.487 101.193 174.506 101.117 174.506Z" fill="#647DFF"/>
<path d="M80.3583 113C80.2317 113 80.124 112.962 80.0353 112.886C79.9593 112.797 79.9213 112.69 79.9213 112.563V101.391H76.2733C76.1467 101.391 76.039 101.353 75.9503 101.277C75.8743 101.188 75.8363 101.081 75.8363 100.954V100.156C75.8363 100.017 75.8743 99.909 75.9503 99.833C76.039 99.7443 76.1467 99.7 76.2733 99.7H85.4313C85.5707 99.7 85.6783 99.7443 85.7543 99.833C85.843 99.909 85.8873 100.017 85.8873 100.156V100.954C85.8873 101.081 85.843 101.188 85.7543 101.277C85.6783 101.353 85.5707 101.391 85.4313 101.391H81.8023V112.563C81.8023 112.69 81.758 112.797 81.6693 112.886C81.5933 112.962 81.4857 113 81.3463 113H80.3583ZM87.8366 113C87.7099 113 87.6023 112.962 87.5136 112.886C87.4376 112.797 87.3996 112.69 87.3996 112.563V99.947C87.3996 99.8203 87.4376 99.719 87.5136 99.643C87.6023 99.5543 87.7099 99.51 87.8366 99.51H88.7866C88.9259 99.51 89.0336 99.5543 89.1096 99.643C89.1856 99.719 89.2236 99.8203 89.2236 99.947V104.374C89.5656 103.943 89.9836 103.595 90.4776 103.329C90.9716 103.063 91.5986 102.93 92.3586 102.93C93.1819 102.93 93.8786 103.114 94.4486 103.481C95.0313 103.836 95.4683 104.336 95.7596 104.982C96.0636 105.615 96.2156 106.356 96.2156 107.205V112.563C96.2156 112.69 96.1776 112.797 96.1016 112.886C96.0256 112.962 95.9179 113 95.7786 113H94.8286C94.7019 113 94.5943 112.962 94.5056 112.886C94.4296 112.797 94.3916 112.69 94.3916 112.563V107.3C94.3916 106.413 94.1763 105.723 93.7456 105.229C93.3149 104.722 92.6816 104.469 91.8456 104.469C91.0603 104.469 90.4269 104.722 89.9456 105.229C89.4643 105.723 89.2236 106.413 89.2236 107.3V112.563C89.2236 112.69 89.1856 112.797 89.1096 112.886C89.0336 112.962 88.9259 113 88.7866 113H87.8366ZM99.3957 113C99.2691 113 99.1614 112.962 99.0727 112.886C98.9967 112.797 98.9587 112.69 98.9587 112.563V103.557C98.9587 103.43 98.9967 103.329 99.0727 103.253C99.1614 103.164 99.2691 103.12 99.3957 103.12H100.308C100.434 103.12 100.536 103.164 100.612 103.253C100.688 103.329 100.726 103.43 100.726 103.557V112.563C100.726 112.69 100.688 112.797 100.612 112.886C100.536 112.962 100.434 113 100.308 113H99.3957ZM99.2437 101.277C99.1171 101.277 99.0094 101.239 98.9207 101.163C98.8447 101.074 98.8067 100.967 98.8067 100.84V99.814C98.8067 99.6873 98.8447 99.586 98.9207 99.51C99.0094 99.4213 99.1171 99.377 99.2437 99.377H100.441C100.567 99.377 100.669 99.4213 100.745 99.51C100.833 99.586 100.878 99.6873 100.878 99.814V100.84C100.878 100.967 100.833 101.074 100.745 101.163C100.669 101.239 100.567 101.277 100.441 101.277H99.2437ZM107.092 113.19C106.382 113.19 105.774 113.101 105.268 112.924C104.761 112.747 104.349 112.531 104.033 112.278C103.716 112.025 103.475 111.771 103.311 111.518C103.159 111.265 103.076 111.062 103.064 110.91C103.051 110.771 103.095 110.663 103.197 110.587C103.298 110.511 103.399 110.473 103.501 110.473H104.337C104.413 110.473 104.47 110.486 104.508 110.511C104.558 110.524 104.622 110.574 104.698 110.663C104.862 110.84 105.046 111.018 105.249 111.195C105.451 111.372 105.698 111.518 105.99 111.632C106.294 111.746 106.667 111.803 107.111 111.803C107.757 111.803 108.289 111.683 108.707 111.442C109.125 111.189 109.334 110.821 109.334 110.34C109.334 110.023 109.245 109.77 109.068 109.58C108.903 109.39 108.599 109.219 108.156 109.067C107.725 108.915 107.13 108.757 106.37 108.592C105.61 108.415 105.008 108.199 104.565 107.946C104.121 107.68 103.805 107.37 103.615 107.015C103.425 106.648 103.33 106.236 103.33 105.78C103.33 105.311 103.469 104.862 103.748 104.431C104.026 103.988 104.432 103.627 104.964 103.348C105.508 103.069 106.186 102.93 106.997 102.93C107.655 102.93 108.219 103.012 108.688 103.177C109.156 103.342 109.543 103.551 109.847 103.804C110.151 104.045 110.379 104.285 110.531 104.526C110.683 104.767 110.765 104.969 110.778 105.134C110.79 105.261 110.752 105.368 110.664 105.457C110.575 105.533 110.474 105.571 110.36 105.571H109.562C109.473 105.571 109.397 105.552 109.334 105.514C109.283 105.476 109.232 105.432 109.182 105.381C109.055 105.216 108.903 105.052 108.726 104.887C108.561 104.722 108.339 104.589 108.061 104.488C107.795 104.374 107.44 104.317 106.997 104.317C106.363 104.317 105.888 104.45 105.572 104.716C105.255 104.982 105.097 105.318 105.097 105.723C105.097 105.964 105.166 106.179 105.306 106.369C105.445 106.559 105.711 106.73 106.104 106.882C106.496 107.034 107.079 107.199 107.852 107.376C108.688 107.541 109.346 107.762 109.828 108.041C110.309 108.32 110.651 108.643 110.854 109.01C111.056 109.377 111.158 109.802 111.158 110.283C111.158 110.815 110.999 111.303 110.683 111.746C110.379 112.189 109.923 112.544 109.315 112.81C108.719 113.063 107.978 113.19 107.092 113.19ZM118.451 113C118.325 113 118.217 112.962 118.128 112.886C118.052 112.797 118.014 112.69 118.014 112.563V103.557C118.014 103.43 118.052 103.329 118.128 103.253C118.217 103.164 118.325 103.12 118.451 103.12H119.363C119.49 103.12 119.591 103.164 119.667 103.253C119.743 103.329 119.781 103.43 119.781 103.557V112.563C119.781 112.69 119.743 112.797 119.667 112.886C119.591 112.962 119.49 113 119.363 113H118.451ZM118.299 101.277C118.173 101.277 118.065 101.239 117.976 101.163C117.9 101.074 117.862 100.967 117.862 100.84V99.814C117.862 99.6873 117.9 99.586 117.976 99.51C118.065 99.4213 118.173 99.377 118.299 99.377H119.496C119.623 99.377 119.724 99.4213 119.8 99.51C119.889 99.586 119.933 99.6873 119.933 99.814V100.84C119.933 100.967 119.889 101.074 119.8 101.163C119.724 101.239 119.623 101.277 119.496 101.277H118.299ZM126.147 113.19C125.438 113.19 124.83 113.101 124.323 112.924C123.817 112.747 123.405 112.531 123.088 112.278C122.772 112.025 122.531 111.771 122.366 111.518C122.214 111.265 122.132 111.062 122.119 110.91C122.107 110.771 122.151 110.663 122.252 110.587C122.354 110.511 122.455 110.473 122.556 110.473H123.392C123.468 110.473 123.525 110.486 123.563 110.511C123.614 110.524 123.677 110.574 123.753 110.663C123.918 110.84 124.102 111.018 124.304 111.195C124.507 111.372 124.754 111.518 125.045 111.632C125.349 111.746 125.723 111.803 126.166 111.803C126.812 111.803 127.344 111.683 127.762 111.442C128.18 111.189 128.389 110.821 128.389 110.34C128.389 110.023 128.301 109.77 128.123 109.58C127.959 109.39 127.655 109.219 127.211 109.067C126.781 108.915 126.185 108.757 125.425 108.592C124.665 108.415 124.064 108.199 123.62 107.946C123.177 107.68 122.86 107.37 122.67 107.015C122.48 106.648 122.385 106.236 122.385 105.78C122.385 105.311 122.525 104.862 122.803 104.431C123.082 103.988 123.487 103.627 124.019 103.348C124.564 103.069 125.242 102.93 126.052 102.93C126.711 102.93 127.275 103.012 127.743 103.177C128.212 103.342 128.598 103.551 128.902 103.804C129.206 104.045 129.434 104.285 129.586 104.526C129.738 104.767 129.821 104.969 129.833 105.134C129.846 105.261 129.808 105.368 129.719 105.457C129.631 105.533 129.529 105.571 129.415 105.571H128.617C128.529 105.571 128.453 105.552 128.389 105.514C128.339 105.476 128.288 105.432 128.237 105.381C128.111 105.216 127.959 105.052 127.781 104.887C127.617 104.722 127.395 104.589 127.116 104.488C126.85 104.374 126.496 104.317 126.052 104.317C125.419 104.317 124.944 104.45 124.627 104.716C124.311 104.982 124.152 105.318 124.152 105.723C124.152 105.964 124.222 106.179 124.361 106.369C124.501 106.559 124.767 106.73 125.159 106.882C125.552 107.034 126.135 107.199 126.907 107.376C127.743 107.541 128.402 107.762 128.883 108.041C129.365 108.32 129.707 108.643 129.909 109.01C130.112 109.377 130.213 109.802 130.213 110.283C130.213 110.815 130.055 111.303 129.738 111.746C129.434 112.189 128.978 112.544 128.37 112.81C127.775 113.063 127.034 113.19 126.147 113.19ZM139.825 113.19C139.192 113.19 138.615 113.063 138.096 112.81C137.577 112.557 137.159 112.215 136.842 111.784C136.525 111.353 136.367 110.866 136.367 110.321C136.367 109.447 136.722 108.75 137.431 108.231C138.14 107.712 139.065 107.37 140.205 107.205L143.036 106.806V106.255C143.036 105.647 142.859 105.172 142.504 104.83C142.162 104.488 141.598 104.317 140.813 104.317C140.243 104.317 139.781 104.431 139.426 104.659C139.084 104.887 138.843 105.178 138.704 105.533C138.628 105.723 138.495 105.818 138.305 105.818H137.45C137.311 105.818 137.203 105.78 137.127 105.704C137.064 105.615 137.032 105.514 137.032 105.4C137.032 105.21 137.102 104.976 137.241 104.697C137.393 104.418 137.621 104.146 137.925 103.88C138.229 103.614 138.615 103.392 139.084 103.215C139.565 103.025 140.148 102.93 140.832 102.93C141.592 102.93 142.232 103.031 142.751 103.234C143.27 103.424 143.676 103.684 143.967 104.013C144.271 104.342 144.486 104.716 144.613 105.134C144.752 105.552 144.822 105.976 144.822 106.407V112.563C144.822 112.69 144.778 112.797 144.689 112.886C144.613 112.962 144.512 113 144.385 113H143.511C143.372 113 143.264 112.962 143.188 112.886C143.112 112.797 143.074 112.69 143.074 112.563V111.746C142.909 111.974 142.688 112.202 142.409 112.43C142.13 112.645 141.782 112.829 141.364 112.981C140.946 113.12 140.433 113.19 139.825 113.19ZM140.224 111.765C140.743 111.765 141.218 111.657 141.649 111.442C142.08 111.214 142.415 110.866 142.656 110.397C142.909 109.928 143.036 109.339 143.036 108.63V108.098L140.832 108.421C139.933 108.548 139.255 108.763 138.799 109.067C138.343 109.358 138.115 109.732 138.115 110.188C138.115 110.543 138.216 110.84 138.419 111.081C138.634 111.309 138.9 111.48 139.217 111.594C139.546 111.708 139.882 111.765 140.224 111.765ZM152.667 113C152.54 113 152.432 112.962 152.344 112.886C152.268 112.797 152.23 112.69 152.23 112.563V99.947C152.23 99.8203 152.268 99.719 152.344 99.643C152.432 99.5543 152.54 99.51 152.667 99.51H153.617C153.756 99.51 153.864 99.5543 153.94 99.643C154.016 99.719 154.054 99.8203 154.054 99.947V104.374C154.396 103.943 154.814 103.595 155.308 103.329C155.802 103.063 156.429 102.93 157.189 102.93C158.012 102.93 158.709 103.114 159.279 103.481C159.861 103.836 160.298 104.336 160.59 104.982C160.894 105.615 161.046 106.356 161.046 107.205V112.563C161.046 112.69 161.008 112.797 160.932 112.886C160.856 112.962 160.748 113 160.609 113H159.659C159.532 113 159.424 112.962 159.336 112.886C159.26 112.797 159.222 112.69 159.222 112.563V107.3C159.222 106.413 159.006 105.723 158.576 105.229C158.145 104.722 157.512 104.469 156.676 104.469C155.89 104.469 155.257 104.722 154.776 105.229C154.294 105.723 154.054 106.413 154.054 107.3V112.563C154.054 112.69 154.016 112.797 153.94 112.886C153.864 112.962 153.756 113 153.617 113H152.667ZM167.722 113.19C166.417 113.19 165.378 112.791 164.606 111.993C163.833 111.182 163.409 110.08 163.333 108.687C163.32 108.522 163.314 108.313 163.314 108.06C163.314 107.794 163.32 107.579 163.333 107.414C163.383 106.515 163.592 105.729 163.96 105.058C164.327 104.374 164.827 103.848 165.461 103.481C166.107 103.114 166.86 102.93 167.722 102.93C168.684 102.93 169.489 103.133 170.135 103.538C170.793 103.943 171.294 104.52 171.636 105.267C171.978 106.014 172.149 106.888 172.149 107.889V108.212C172.149 108.351 172.104 108.459 172.016 108.535C171.94 108.611 171.838 108.649 171.712 108.649H165.138C165.138 108.662 165.138 108.687 165.138 108.725C165.138 108.763 165.138 108.795 165.138 108.82C165.163 109.339 165.277 109.827 165.48 110.283C165.682 110.726 165.974 111.087 166.354 111.366C166.734 111.645 167.19 111.784 167.722 111.784C168.178 111.784 168.558 111.714 168.862 111.575C169.166 111.436 169.413 111.284 169.603 111.119C169.793 110.942 169.919 110.809 169.983 110.72C170.097 110.555 170.185 110.46 170.249 110.435C170.312 110.397 170.413 110.378 170.553 110.378H171.465C171.591 110.378 171.693 110.416 171.769 110.492C171.857 110.555 171.895 110.65 171.883 110.777C171.87 110.967 171.769 111.201 171.579 111.48C171.389 111.746 171.116 112.012 170.762 112.278C170.407 112.544 169.976 112.766 169.47 112.943C168.963 113.108 168.38 113.19 167.722 113.19ZM165.138 107.338H170.344V107.281C170.344 106.711 170.236 106.204 170.021 105.761C169.818 105.318 169.52 104.969 169.128 104.716C168.735 104.45 168.266 104.317 167.722 104.317C167.177 104.317 166.708 104.45 166.316 104.716C165.936 104.969 165.644 105.318 165.442 105.761C165.239 106.204 165.138 106.711 165.138 107.281V107.338ZM177.176 113.19C176.542 113.19 175.966 113.063 175.447 112.81C174.927 112.557 174.509 112.215 174.193 111.784C173.876 111.353 173.718 110.866 173.718 110.321C173.718 109.447 174.072 108.75 174.782 108.231C175.491 107.712 176.416 107.37 177.556 107.205L180.387 106.806V106.255C180.387 105.647 180.209 105.172 179.855 104.83C179.513 104.488 178.949 104.317 178.164 104.317C177.594 104.317 177.131 104.431 176.777 104.659C176.435 104.887 176.194 105.178 176.055 105.533C175.979 105.723 175.846 105.818 175.656 105.818H174.801C174.661 105.818 174.554 105.78 174.478 105.704C174.414 105.615 174.383 105.514 174.383 105.4C174.383 105.21 174.452 104.976 174.592 104.697C174.744 104.418 174.972 104.146 175.276 103.88C175.58 103.614 175.966 103.392 176.435 103.215C176.916 103.025 177.499 102.93 178.183 102.93C178.943 102.93 179.582 103.031 180.102 103.234C180.621 103.424 181.026 103.684 181.318 104.013C181.622 104.342 181.837 104.716 181.964 105.134C182.103 105.552 182.173 105.976 182.173 106.407V112.563C182.173 112.69 182.128 112.797 182.04 112.886C181.964 112.962 181.862 113 181.736 113H180.862C180.722 113 180.615 112.962 180.539 112.886C180.463 112.797 180.425 112.69 180.425 112.563V111.746C180.26 111.974 180.038 112.202 179.76 112.43C179.481 112.645 179.133 112.829 178.715 112.981C178.297 113.12 177.784 113.19 177.176 113.19ZM177.575 111.765C178.094 111.765 178.569 111.657 179 111.442C179.43 111.214 179.766 110.866 180.007 110.397C180.26 109.928 180.387 109.339 180.387 108.63V108.098L178.183 108.421C177.283 108.548 176.606 108.763 176.15 109.067C175.694 109.358 175.466 109.732 175.466 110.188C175.466 110.543 175.567 110.84 175.77 111.081C175.985 111.309 176.251 111.48 176.568 111.594C176.897 111.708 177.233 111.765 177.575 111.765ZM188.514 113.19C187.817 113.19 187.216 113.07 186.709 112.829C186.202 112.576 185.784 112.24 185.455 111.822C185.138 111.391 184.898 110.904 184.733 110.359C184.581 109.814 184.492 109.238 184.467 108.63C184.454 108.427 184.448 108.237 184.448 108.06C184.448 107.883 184.454 107.693 184.467 107.49C184.492 106.895 184.581 106.325 184.733 105.78C184.898 105.235 185.138 104.748 185.455 104.317C185.784 103.886 186.202 103.551 186.709 103.31C187.216 103.057 187.817 102.93 188.514 102.93C189.261 102.93 189.882 103.063 190.376 103.329C190.87 103.595 191.275 103.924 191.592 104.317V99.947C191.592 99.8203 191.63 99.719 191.706 99.643C191.795 99.5543 191.902 99.51 192.029 99.51H192.941C193.068 99.51 193.169 99.5543 193.245 99.643C193.334 99.719 193.378 99.8203 193.378 99.947V112.563C193.378 112.69 193.334 112.797 193.245 112.886C193.169 112.962 193.068 113 192.941 113H192.086C191.947 113 191.839 112.962 191.763 112.886C191.687 112.797 191.649 112.69 191.649 112.563V111.765C191.332 112.17 190.921 112.512 190.414 112.791C189.907 113.057 189.274 113.19 188.514 113.19ZM188.913 111.651C189.546 111.651 190.053 111.505 190.433 111.214C190.813 110.923 191.098 110.555 191.288 110.112C191.478 109.656 191.579 109.194 191.592 108.725C191.605 108.522 191.611 108.282 191.611 108.003C191.611 107.712 191.605 107.465 191.592 107.262C191.579 106.819 191.472 106.382 191.269 105.951C191.079 105.52 190.788 105.166 190.395 104.887C190.015 104.608 189.521 104.469 188.913 104.469C188.267 104.469 187.754 104.615 187.374 104.906C186.994 105.185 186.722 105.558 186.557 106.027C186.392 106.483 186.297 106.977 186.272 107.509C186.259 107.876 186.259 108.244 186.272 108.611C186.297 109.143 186.392 109.643 186.557 110.112C186.722 110.568 186.994 110.942 187.374 111.233C187.754 111.512 188.267 111.651 188.913 111.651ZM196.641 113C196.514 113 196.407 112.962 196.318 112.886C196.242 112.797 196.204 112.69 196.204 112.563V103.557C196.204 103.43 196.242 103.329 196.318 103.253C196.407 103.164 196.514 103.12 196.641 103.12H197.553C197.68 103.12 197.781 103.164 197.857 103.253C197.933 103.329 197.971 103.43 197.971 103.557V112.563C197.971 112.69 197.933 112.797 197.857 112.886C197.781 112.962 197.68 113 197.553 113H196.641ZM196.489 101.277C196.362 101.277 196.255 101.239 196.166 101.163C196.09 101.074 196.052 100.967 196.052 100.84V99.814C196.052 99.6873 196.09 99.586 196.166 99.51C196.255 99.4213 196.362 99.377 196.489 99.377H197.686C197.813 99.377 197.914 99.4213 197.99 99.51C198.079 99.586 198.123 99.6873 198.123 99.814V100.84C198.123 100.967 198.079 101.074 197.99 101.163C197.914 101.239 197.813 101.277 197.686 101.277H196.489ZM201.428 113C201.301 113 201.194 112.962 201.105 112.886C201.029 112.797 200.991 112.69 200.991 112.563V103.557C200.991 103.43 201.029 103.329 201.105 103.253C201.194 103.164 201.301 103.12 201.428 103.12H202.321C202.448 103.12 202.549 103.164 202.625 103.253C202.714 103.329 202.758 103.43 202.758 103.557V104.393C203.087 103.962 203.499 103.614 203.993 103.348C204.5 103.069 205.146 102.93 205.931 102.93C206.754 102.93 207.451 103.114 208.021 103.481C208.604 103.836 209.041 104.336 209.332 104.982C209.623 105.615 209.769 106.356 209.769 107.205V112.563C209.769 112.69 209.731 112.797 209.655 112.886C209.579 112.962 209.478 113 209.351 113H208.401C208.274 113 208.167 112.962 208.078 112.886C208.002 112.797 207.964 112.69 207.964 112.563V107.3C207.964 106.413 207.749 105.723 207.318 105.229C206.887 104.722 206.254 104.469 205.418 104.469C204.633 104.469 203.999 104.722 203.518 105.229C203.049 105.723 202.815 106.413 202.815 107.3V112.563C202.815 112.69 202.771 112.797 202.682 112.886C202.606 112.962 202.505 113 202.378 113H201.428ZM216.56 117.18C215.699 117.18 214.99 117.066 214.432 116.838C213.888 116.61 213.457 116.331 213.14 116.002C212.836 115.685 212.615 115.362 212.475 115.033C212.349 114.716 212.279 114.463 212.266 114.273C212.254 114.146 212.292 114.039 212.38 113.95C212.482 113.861 212.589 113.817 212.703 113.817H213.615C213.729 113.817 213.824 113.842 213.9 113.893C213.976 113.944 214.04 114.051 214.09 114.216C214.166 114.406 214.28 114.615 214.432 114.843C214.584 115.084 214.819 115.286 215.135 115.451C215.452 115.628 215.895 115.717 216.465 115.717C217.061 115.717 217.561 115.635 217.966 115.47C218.372 115.318 218.676 115.039 218.878 114.634C219.094 114.241 219.201 113.697 219.201 113V111.708C218.897 112.101 218.498 112.43 218.004 112.696C217.51 112.949 216.89 113.076 216.142 113.076C215.433 113.076 214.825 112.956 214.318 112.715C213.812 112.462 213.394 112.126 213.064 111.708C212.748 111.277 212.507 110.79 212.342 110.245C212.19 109.7 212.102 109.13 212.076 108.535C212.064 108.18 212.064 107.832 212.076 107.49C212.102 106.895 212.19 106.325 212.342 105.78C212.507 105.235 212.748 104.748 213.064 104.317C213.394 103.886 213.812 103.551 214.318 103.31C214.825 103.057 215.433 102.93 216.142 102.93C216.902 102.93 217.529 103.076 218.023 103.367C218.53 103.646 218.942 103.988 219.258 104.393V103.576C219.258 103.449 219.296 103.342 219.372 103.253C219.461 103.164 219.569 103.12 219.695 103.12H220.569C220.696 103.12 220.804 103.164 220.892 103.253C220.981 103.342 221.025 103.449 221.025 103.576V112.791C221.025 113.64 220.88 114.393 220.588 115.052C220.31 115.711 219.841 116.23 219.182 116.61C218.536 116.99 217.662 117.18 216.56 117.18ZM216.522 111.556C217.156 111.556 217.662 111.41 218.042 111.119C218.435 110.828 218.72 110.46 218.897 110.017C219.087 109.574 219.189 109.124 219.201 108.668C219.214 108.491 219.22 108.275 219.22 108.022C219.22 107.756 219.214 107.534 219.201 107.357C219.189 106.901 219.087 106.451 218.897 106.008C218.72 105.565 218.435 105.197 218.042 104.906C217.662 104.615 217.156 104.469 216.522 104.469C215.889 104.469 215.382 104.615 215.002 104.906C214.622 105.185 214.35 105.558 214.185 106.027C214.021 106.483 213.926 106.977 213.9 107.509C213.888 107.838 213.888 108.174 213.9 108.516C213.926 109.048 214.021 109.548 214.185 110.017C214.35 110.473 214.622 110.847 215.002 111.138C215.382 111.417 215.889 111.556 216.522 111.556ZM241.984 114.596C241.883 114.596 241.794 114.558 241.718 114.482C241.642 114.406 241.604 114.317 241.604 114.216C241.604 114.153 241.623 114.077 241.661 113.988L248.159 98.408C248.197 98.332 248.248 98.256 248.311 98.18C248.387 98.104 248.501 98.066 248.653 98.066H249.394C249.496 98.066 249.584 98.104 249.66 98.18C249.736 98.256 249.774 98.3447 249.774 98.446C249.774 98.4967 249.762 98.5727 249.736 98.674L243.219 114.254C243.194 114.317 243.137 114.387 243.048 114.463C242.972 114.552 242.865 114.596 242.725 114.596H241.984ZM67.3144 144C67.1877 144 67.08 143.962 66.9914 143.886C66.9154 143.797 66.8774 143.69 66.8774 143.563V132.391H63.2294C63.1027 132.391 62.995 132.353 62.9064 132.277C62.8304 132.188 62.7924 132.081 62.7924 131.954V131.156C62.7924 131.017 62.8304 130.909 62.9064 130.833C62.995 130.744 63.1027 130.7 63.2294 130.7H72.3874C72.5267 130.7 72.6344 130.744 72.7104 130.833C72.7991 130.909 72.8434 131.017 72.8434 131.156V131.954C72.8434 132.081 72.7991 132.188 72.7104 132.277C72.6344 132.353 72.5267 132.391 72.3874 132.391H68.7584V143.563C68.7584 143.69 68.714 143.797 68.6254 143.886C68.5494 143.962 68.4417 144 68.3024 144H67.3144ZM74.7927 144C74.666 144 74.5583 143.962 74.4697 143.886C74.3937 143.797 74.3557 143.69 74.3557 143.563V130.947C74.3557 130.82 74.3937 130.719 74.4697 130.643C74.5583 130.554 74.666 130.51 74.7927 130.51H75.7427C75.882 130.51 75.9897 130.554 76.0657 130.643C76.1417 130.719 76.1797 130.82 76.1797 130.947V135.374C76.5217 134.943 76.9397 134.595 77.4337 134.329C77.9277 134.063 78.5547 133.93 79.3147 133.93C80.138 133.93 80.8347 134.114 81.4047 134.481C81.9873 134.836 82.4243 135.336 82.7157 135.982C83.0197 136.615 83.1717 137.356 83.1717 138.205V143.563C83.1717 143.69 83.1337 143.797 83.0577 143.886C82.9817 143.962 82.874 144 82.7347 144H81.7847C81.658 144 81.5503 143.962 81.4617 143.886C81.3857 143.797 81.3477 143.69 81.3477 143.563V138.3C81.3477 137.413 81.1323 136.723 80.7017 136.229C80.271 135.722 79.6377 135.469 78.8017 135.469C78.0163 135.469 77.383 135.722 76.9017 136.229C76.4203 136.723 76.1797 137.413 76.1797 138.3V143.563C76.1797 143.69 76.1417 143.797 76.0657 143.886C75.9897 143.962 75.882 144 75.7427 144H74.7927ZM86.3518 144C86.2251 144 86.1175 143.962 86.0288 143.886C85.9528 143.797 85.9148 143.69 85.9148 143.563V134.557C85.9148 134.43 85.9528 134.329 86.0288 134.253C86.1175 134.164 86.2251 134.12 86.3518 134.12H87.2638C87.3905 134.12 87.4918 134.164 87.5678 134.253C87.6438 134.329 87.6818 134.43 87.6818 134.557V143.563C87.6818 143.69 87.6438 143.797 87.5678 143.886C87.4918 143.962 87.3905 144 87.2638 144H86.3518ZM86.1998 132.277C86.0731 132.277 85.9655 132.239 85.8768 132.163C85.8008 132.074 85.7628 131.967 85.7628 131.84V130.814C85.7628 130.687 85.8008 130.586 85.8768 130.51C85.9655 130.421 86.0731 130.377 86.1998 130.377H87.3968C87.5235 130.377 87.6248 130.421 87.7008 130.51C87.7895 130.586 87.8338 130.687 87.8338 130.814V131.84C87.8338 131.967 87.7895 132.074 87.7008 132.163C87.6248 132.239 87.5235 132.277 87.3968 132.277H86.1998ZM94.0477 144.19C93.3383 144.19 92.7303 144.101 92.2237 143.924C91.717 143.747 91.3053 143.531 90.9887 143.278C90.672 143.025 90.4313 142.771 90.2667 142.518C90.1147 142.265 90.0323 142.062 90.0197 141.91C90.007 141.771 90.0513 141.663 90.1527 141.587C90.254 141.511 90.3553 141.473 90.4567 141.473H91.2927C91.3687 141.473 91.4257 141.486 91.4637 141.511C91.5143 141.524 91.5777 141.574 91.6537 141.663C91.8183 141.84 92.002 142.018 92.2047 142.195C92.4073 142.372 92.6543 142.518 92.9457 142.632C93.2497 142.746 93.6233 142.803 94.0667 142.803C94.7127 142.803 95.2447 142.683 95.6627 142.442C96.0807 142.189 96.2897 141.821 96.2897 141.34C96.2897 141.023 96.201 140.77 96.0237 140.58C95.859 140.39 95.555 140.219 95.1117 140.067C94.681 139.915 94.0857 139.757 93.3257 139.592C92.5657 139.415 91.964 139.199 91.5207 138.946C91.0773 138.68 90.7607 138.37 90.5707 138.015C90.3807 137.648 90.2857 137.236 90.2857 136.78C90.2857 136.311 90.425 135.862 90.7037 135.431C90.9823 134.988 91.3877 134.627 91.9197 134.348C92.4643 134.069 93.142 133.93 93.9527 133.93C94.6113 133.93 95.175 134.012 95.6437 134.177C96.1123 134.342 96.4987 134.551 96.8027 134.804C97.1067 135.045 97.3347 135.285 97.4867 135.526C97.6387 135.767 97.721 135.969 97.7337 136.134C97.7463 136.261 97.7083 136.368 97.6197 136.457C97.531 136.533 97.4297 136.571 97.3157 136.571H96.5177C96.429 136.571 96.353 136.552 96.2897 136.514C96.239 136.476 96.1883 136.432 96.1377 136.381C96.011 136.216 95.859 136.052 95.6817 135.887C95.517 135.722 95.2953 135.589 95.0167 135.488C94.7507 135.374 94.396 135.317 93.9527 135.317C93.3193 135.317 92.8443 135.45 92.5277 135.716C92.211 135.982 92.0527 136.318 92.0527 136.723C92.0527 136.964 92.1223 137.179 92.2617 137.369C92.401 137.559 92.667 137.73 93.0597 137.882C93.4523 138.034 94.035 138.199 94.8077 138.376C95.6437 138.541 96.3023 138.762 96.7837 139.041C97.265 139.32 97.607 139.643 97.8097 140.01C98.0123 140.377 98.1137 140.802 98.1137 141.283C98.1137 141.815 97.9553 142.303 97.6387 142.746C97.3347 143.189 96.8787 143.544 96.2707 143.81C95.6753 144.063 94.9343 144.19 94.0477 144.19ZM105.407 144C105.281 144 105.173 143.962 105.084 143.886C105.008 143.797 104.97 143.69 104.97 143.563V134.557C104.97 134.43 105.008 134.329 105.084 134.253C105.173 134.164 105.281 134.12 105.407 134.12H106.319C106.446 134.12 106.547 134.164 106.623 134.253C106.699 134.329 106.737 134.43 106.737 134.557V143.563C106.737 143.69 106.699 143.797 106.623 143.886C106.547 143.962 106.446 144 106.319 144H105.407ZM105.255 132.277C105.129 132.277 105.021 132.239 104.932 132.163C104.856 132.074 104.818 131.967 104.818 131.84V130.814C104.818 130.687 104.856 130.586 104.932 130.51C105.021 130.421 105.129 130.377 105.255 130.377H106.452C106.579 130.377 106.68 130.421 106.756 130.51C106.845 130.586 106.889 130.687 106.889 130.814V131.84C106.889 131.967 106.845 132.074 106.756 132.163C106.68 132.239 106.579 132.277 106.452 132.277H105.255ZM113.103 144.19C112.394 144.19 111.786 144.101 111.279 143.924C110.773 143.747 110.361 143.531 110.044 143.278C109.728 143.025 109.487 142.771 109.322 142.518C109.17 142.265 109.088 142.062 109.075 141.91C109.063 141.771 109.107 141.663 109.208 141.587C109.31 141.511 109.411 141.473 109.512 141.473H110.348C110.424 141.473 110.481 141.486 110.519 141.511C110.57 141.524 110.633 141.574 110.709 141.663C110.874 141.84 111.058 142.018 111.26 142.195C111.463 142.372 111.71 142.518 112.001 142.632C112.305 142.746 112.679 142.803 113.122 142.803C113.768 142.803 114.3 142.683 114.718 142.442C115.136 142.189 115.345 141.821 115.345 141.34C115.345 141.023 115.257 140.77 115.079 140.58C114.915 140.39 114.611 140.219 114.167 140.067C113.737 139.915 113.141 139.757 112.381 139.592C111.621 139.415 111.02 139.199 110.576 138.946C110.133 138.68 109.816 138.37 109.626 138.015C109.436 137.648 109.341 137.236 109.341 136.78C109.341 136.311 109.481 135.862 109.759 135.431C110.038 134.988 110.443 134.627 110.975 134.348C111.52 134.069 112.198 133.93 113.008 133.93C113.667 133.93 114.231 134.012 114.699 134.177C115.168 134.342 115.554 134.551 115.858 134.804C116.162 135.045 116.39 135.285 116.542 135.526C116.694 135.767 116.777 135.969 116.789 136.134C116.802 136.261 116.764 136.368 116.675 136.457C116.587 136.533 116.485 136.571 116.371 136.571H115.573C115.485 136.571 115.409 136.552 115.345 136.514C115.295 136.476 115.244 136.432 115.193 136.381C115.067 136.216 114.915 136.052 114.737 135.887C114.573 135.722 114.351 135.589 114.072 135.488C113.806 135.374 113.452 135.317 113.008 135.317C112.375 135.317 111.9 135.45 111.583 135.716C111.267 135.982 111.108 136.318 111.108 136.723C111.108 136.964 111.178 137.179 111.317 137.369C111.457 137.559 111.723 137.73 112.115 137.882C112.508 138.034 113.091 138.199 113.863 138.376C114.699 138.541 115.358 138.762 115.839 139.041C116.321 139.32 116.663 139.643 116.865 140.01C117.068 140.377 117.169 140.802 117.169 141.283C117.169 141.815 117.011 142.303 116.694 142.746C116.39 143.189 115.934 143.544 115.326 143.81C114.731 144.063 113.99 144.19 113.103 144.19ZM126.781 144.19C126.148 144.19 125.571 144.063 125.052 143.81C124.533 143.557 124.115 143.215 123.798 142.784C123.481 142.353 123.323 141.866 123.323 141.321C123.323 140.447 123.678 139.75 124.387 139.231C125.096 138.712 126.021 138.37 127.161 138.205L129.992 137.806V137.255C129.992 136.647 129.815 136.172 129.46 135.83C129.118 135.488 128.554 135.317 127.769 135.317C127.199 135.317 126.737 135.431 126.382 135.659C126.04 135.887 125.799 136.178 125.66 136.533C125.584 136.723 125.451 136.818 125.261 136.818H124.406C124.267 136.818 124.159 136.78 124.083 136.704C124.02 136.615 123.988 136.514 123.988 136.4C123.988 136.21 124.058 135.976 124.197 135.697C124.349 135.418 124.577 135.146 124.881 134.88C125.185 134.614 125.571 134.392 126.04 134.215C126.521 134.025 127.104 133.93 127.788 133.93C128.548 133.93 129.188 134.031 129.707 134.234C130.226 134.424 130.632 134.684 130.923 135.013C131.227 135.342 131.442 135.716 131.569 136.134C131.708 136.552 131.778 136.976 131.778 137.407V143.563C131.778 143.69 131.734 143.797 131.645 143.886C131.569 143.962 131.468 144 131.341 144H130.467C130.328 144 130.22 143.962 130.144 143.886C130.068 143.797 130.03 143.69 130.03 143.563V142.746C129.865 142.974 129.644 143.202 129.365 143.43C129.086 143.645 128.738 143.829 128.32 143.981C127.902 144.12 127.389 144.19 126.781 144.19ZM127.18 142.765C127.699 142.765 128.174 142.657 128.605 142.442C129.036 142.214 129.371 141.866 129.612 141.397C129.865 140.928 129.992 140.339 129.992 139.63V139.098L127.788 139.421C126.889 139.548 126.211 139.763 125.755 140.067C125.299 140.358 125.071 140.732 125.071 141.188C125.071 141.543 125.172 141.84 125.375 142.081C125.59 142.309 125.856 142.48 126.173 142.594C126.502 142.708 126.838 142.765 127.18 142.765ZM139.623 147.61C139.496 147.61 139.388 147.566 139.3 147.477C139.224 147.401 139.186 147.3 139.186 147.173V134.557C139.186 134.43 139.224 134.329 139.3 134.253C139.388 134.164 139.496 134.12 139.623 134.12H140.497C140.623 134.12 140.725 134.164 140.801 134.253C140.889 134.329 140.934 134.43 140.934 134.557V135.393C141.238 134.975 141.643 134.627 142.15 134.348C142.656 134.069 143.29 133.93 144.05 133.93C144.759 133.93 145.361 134.05 145.855 134.291C146.361 134.532 146.773 134.861 147.09 135.279C147.419 135.697 147.666 136.172 147.831 136.704C147.995 137.236 148.084 137.806 148.097 138.414C148.109 138.617 148.116 138.832 148.116 139.06C148.116 139.288 148.109 139.503 148.097 139.706C148.084 140.301 147.995 140.871 147.831 141.416C147.666 141.948 147.419 142.423 147.09 142.841C146.773 143.246 146.361 143.576 145.855 143.829C145.361 144.07 144.759 144.19 144.05 144.19C143.315 144.19 142.694 144.057 142.188 143.791C141.694 143.512 141.288 143.17 140.972 142.765V147.173C140.972 147.3 140.934 147.401 140.858 147.477C140.782 147.566 140.674 147.61 140.535 147.61H139.623ZM143.651 142.651C144.309 142.651 144.822 142.512 145.19 142.233C145.57 141.942 145.842 141.568 146.007 141.112C146.171 140.643 146.266 140.143 146.292 139.611C146.304 139.244 146.304 138.876 146.292 138.509C146.266 137.977 146.171 137.483 146.007 137.027C145.842 136.558 145.57 136.185 145.19 135.906C144.822 135.615 144.309 135.469 143.651 135.469C143.03 135.469 142.523 135.615 142.131 135.906C141.751 136.197 141.466 136.571 141.276 137.027C141.098 137.47 140.997 137.926 140.972 138.395C140.959 138.598 140.953 138.838 140.953 139.117C140.953 139.396 140.959 139.643 140.972 139.858C140.984 140.301 141.086 140.738 141.276 141.169C141.478 141.6 141.776 141.954 142.169 142.233C142.561 142.512 143.055 142.651 143.651 142.651ZM153.24 144.19C152.607 144.19 152.03 144.063 151.511 143.81C150.992 143.557 150.574 143.215 150.257 142.784C149.94 142.353 149.782 141.866 149.782 141.321C149.782 140.447 150.137 139.75 150.846 139.231C151.555 138.712 152.48 138.37 153.62 138.205L156.451 137.806V137.255C156.451 136.647 156.274 136.172 155.919 135.83C155.577 135.488 155.013 135.317 154.228 135.317C153.658 135.317 153.196 135.431 152.841 135.659C152.499 135.887 152.258 136.178 152.119 136.533C152.043 136.723 151.91 136.818 151.72 136.818H150.865C150.726 136.818 150.618 136.78 150.542 136.704C150.479 136.615 150.447 136.514 150.447 136.4C150.447 136.21 150.517 135.976 150.656 135.697C150.808 135.418 151.036 135.146 151.34 134.88C151.644 134.614 152.03 134.392 152.499 134.215C152.98 134.025 153.563 133.93 154.247 133.93C155.007 133.93 155.647 134.031 156.166 134.234C156.685 134.424 157.091 134.684 157.382 135.013C157.686 135.342 157.901 135.716 158.028 136.134C158.167 136.552 158.237 136.976 158.237 137.407V143.563C158.237 143.69 158.193 143.797 158.104 143.886C158.028 143.962 157.927 144 157.8 144H156.926C156.787 144 156.679 143.962 156.603 143.886C156.527 143.797 156.489 143.69 156.489 143.563V142.746C156.324 142.974 156.103 143.202 155.824 143.43C155.545 143.645 155.197 143.829 154.779 143.981C154.361 144.12 153.848 144.19 153.24 144.19ZM153.639 142.765C154.158 142.765 154.633 142.657 155.064 142.442C155.495 142.214 155.83 141.866 156.071 141.397C156.324 140.928 156.451 140.339 156.451 139.63V139.098L154.247 139.421C153.348 139.548 152.67 139.763 152.214 140.067C151.758 140.358 151.53 140.732 151.53 141.188C151.53 141.543 151.631 141.84 151.834 142.081C152.049 142.309 152.315 142.48 152.632 142.594C152.961 142.708 153.297 142.765 153.639 142.765ZM161.406 144C161.279 144 161.171 143.962 161.083 143.886C161.007 143.797 160.969 143.69 160.969 143.563V134.576C160.969 134.449 161.007 134.342 161.083 134.253C161.171 134.164 161.279 134.12 161.406 134.12H162.28C162.406 134.12 162.514 134.164 162.603 134.253C162.691 134.342 162.736 134.449 162.736 134.576V135.412C162.989 134.981 163.337 134.658 163.781 134.443C164.224 134.228 164.756 134.12 165.377 134.12H166.137C166.263 134.12 166.365 134.164 166.441 134.253C166.517 134.329 166.555 134.43 166.555 134.557V135.336C166.555 135.463 166.517 135.564 166.441 135.64C166.365 135.716 166.263 135.754 166.137 135.754H164.997C164.313 135.754 163.774 135.957 163.382 136.362C162.989 136.755 162.793 137.293 162.793 137.977V143.563C162.793 143.69 162.748 143.797 162.66 143.886C162.571 143.962 162.463 144 162.337 144H161.406ZM170.793 144.19C170.16 144.19 169.583 144.063 169.064 143.81C168.545 143.557 168.127 143.215 167.81 142.784C167.493 142.353 167.335 141.866 167.335 141.321C167.335 140.447 167.69 139.75 168.399 139.231C169.108 138.712 170.033 138.37 171.173 138.205L174.004 137.806V137.255C174.004 136.647 173.827 136.172 173.472 135.83C173.13 135.488 172.566 135.317 171.781 135.317C171.211 135.317 170.749 135.431 170.394 135.659C170.052 135.887 169.811 136.178 169.672 136.533C169.596 136.723 169.463 136.818 169.273 136.818H168.418C168.279 136.818 168.171 136.78 168.095 136.704C168.032 136.615 168 136.514 168 136.4C168 136.21 168.07 135.976 168.209 135.697C168.361 135.418 168.589 135.146 168.893 134.88C169.197 134.614 169.583 134.392 170.052 134.215C170.533 134.025 171.116 133.93 171.8 133.93C172.56 133.93 173.2 134.031 173.719 134.234C174.238 134.424 174.644 134.684 174.935 135.013C175.239 135.342 175.454 135.716 175.581 136.134C175.72 136.552 175.79 136.976 175.79 137.407V143.563C175.79 143.69 175.746 143.797 175.657 143.886C175.581 143.962 175.48 144 175.353 144H174.479C174.34 144 174.232 143.962 174.156 143.886C174.08 143.797 174.042 143.69 174.042 143.563V142.746C173.877 142.974 173.656 143.202 173.377 143.43C173.098 143.645 172.75 143.829 172.332 143.981C171.914 144.12 171.401 144.19 170.793 144.19ZM171.192 142.765C171.711 142.765 172.186 142.657 172.617 142.442C173.048 142.214 173.383 141.866 173.624 141.397C173.877 140.928 174.004 140.339 174.004 139.63V139.098L171.8 139.421C170.901 139.548 170.223 139.763 169.767 140.067C169.311 140.358 169.083 140.732 169.083 141.188C169.083 141.543 169.184 141.84 169.387 142.081C169.602 142.309 169.868 142.48 170.185 142.594C170.514 142.708 170.85 142.765 171.192 142.765ZM182.568 148.18C181.707 148.18 180.998 148.066 180.44 147.838C179.896 147.61 179.465 147.331 179.148 147.002C178.844 146.685 178.623 146.362 178.483 146.033C178.357 145.716 178.287 145.463 178.274 145.273C178.262 145.146 178.3 145.039 178.388 144.95C178.49 144.861 178.597 144.817 178.711 144.817H179.623C179.737 144.817 179.832 144.842 179.908 144.893C179.984 144.944 180.048 145.051 180.098 145.216C180.174 145.406 180.288 145.615 180.44 145.843C180.592 146.084 180.827 146.286 181.143 146.451C181.46 146.628 181.903 146.717 182.473 146.717C183.069 146.717 183.569 146.635 183.974 146.47C184.38 146.318 184.684 146.039 184.886 145.634C185.102 145.241 185.209 144.697 185.209 144V142.708C184.905 143.101 184.506 143.43 184.012 143.696C183.518 143.949 182.898 144.076 182.15 144.076C181.441 144.076 180.833 143.956 180.326 143.715C179.82 143.462 179.402 143.126 179.072 142.708C178.756 142.277 178.515 141.79 178.35 141.245C178.198 140.7 178.11 140.13 178.084 139.535C178.072 139.18 178.072 138.832 178.084 138.49C178.11 137.895 178.198 137.325 178.35 136.78C178.515 136.235 178.756 135.748 179.072 135.317C179.402 134.886 179.82 134.551 180.326 134.31C180.833 134.057 181.441 133.93 182.15 133.93C182.91 133.93 183.537 134.076 184.031 134.367C184.538 134.646 184.95 134.988 185.266 135.393V134.576C185.266 134.449 185.304 134.342 185.38 134.253C185.469 134.164 185.577 134.12 185.703 134.12H186.577C186.704 134.12 186.812 134.164 186.9 134.253C186.989 134.342 187.033 134.449 187.033 134.576V143.791C187.033 144.64 186.888 145.393 186.596 146.052C186.318 146.711 185.849 147.23 185.19 147.61C184.544 147.99 183.67 148.18 182.568 148.18ZM182.53 142.556C183.164 142.556 183.67 142.41 184.05 142.119C184.443 141.828 184.728 141.46 184.905 141.017C185.095 140.574 185.197 140.124 185.209 139.668C185.222 139.491 185.228 139.275 185.228 139.022C185.228 138.756 185.222 138.534 185.209 138.357C185.197 137.901 185.095 137.451 184.905 137.008C184.728 136.565 184.443 136.197 184.05 135.906C183.67 135.615 183.164 135.469 182.53 135.469C181.897 135.469 181.39 135.615 181.01 135.906C180.63 136.185 180.358 136.558 180.193 137.027C180.029 137.483 179.934 137.977 179.908 138.509C179.896 138.838 179.896 139.174 179.908 139.516C179.934 140.048 180.029 140.548 180.193 141.017C180.358 141.473 180.63 141.847 181.01 142.138C181.39 142.417 181.897 142.556 182.53 142.556ZM190.295 144C190.168 144 190.061 143.962 189.972 143.886C189.896 143.797 189.858 143.69 189.858 143.563V134.576C189.858 134.449 189.896 134.342 189.972 134.253C190.061 134.164 190.168 134.12 190.295 134.12H191.169C191.296 134.12 191.403 134.164 191.492 134.253C191.581 134.342 191.625 134.449 191.625 134.576V135.412C191.878 134.981 192.227 134.658 192.67 134.443C193.113 134.228 193.645 134.12 194.266 134.12H195.026C195.153 134.12 195.254 134.164 195.33 134.253C195.406 134.329 195.444 134.43 195.444 134.557V135.336C195.444 135.463 195.406 135.564 195.33 135.64C195.254 135.716 195.153 135.754 195.026 135.754H193.886C193.202 135.754 192.664 135.957 192.271 136.362C191.878 136.755 191.682 137.293 191.682 137.977V143.563C191.682 143.69 191.638 143.797 191.549 143.886C191.46 143.962 191.353 144 191.226 144H190.295ZM199.682 144.19C199.049 144.19 198.473 144.063 197.953 143.81C197.434 143.557 197.016 143.215 196.699 142.784C196.383 142.353 196.224 141.866 196.224 141.321C196.224 140.447 196.579 139.75 197.288 139.231C197.998 138.712 198.922 138.37 200.062 138.205L202.893 137.806V137.255C202.893 136.647 202.716 136.172 202.361 135.83C202.019 135.488 201.456 135.317 200.67 135.317C200.1 135.317 199.638 135.431 199.283 135.659C198.941 135.887 198.701 136.178 198.561 136.533C198.485 136.723 198.352 136.818 198.162 136.818H197.307C197.168 136.818 197.06 136.78 196.984 136.704C196.921 136.615 196.889 136.514 196.889 136.4C196.889 136.21 196.959 135.976 197.098 135.697C197.25 135.418 197.478 135.146 197.782 134.88C198.086 134.614 198.473 134.392 198.941 134.215C199.423 134.025 200.005 133.93 200.689 133.93C201.449 133.93 202.089 134.031 202.608 134.234C203.128 134.424 203.533 134.684 203.824 135.013C204.128 135.342 204.344 135.716 204.47 136.134C204.61 136.552 204.679 136.976 204.679 137.407V143.563C204.679 143.69 204.635 143.797 204.546 143.886C204.47 143.962 204.369 144 204.242 144H203.368C203.229 144 203.121 143.962 203.045 143.886C202.969 143.797 202.931 143.69 202.931 143.563V142.746C202.767 142.974 202.545 143.202 202.266 143.43C201.988 143.645 201.639 143.829 201.221 143.981C200.803 144.12 200.29 144.19 199.682 144.19ZM200.081 142.765C200.601 142.765 201.076 142.657 201.506 142.442C201.937 142.214 202.273 141.866 202.513 141.397C202.767 140.928 202.893 140.339 202.893 139.63V139.098L200.689 139.421C199.79 139.548 199.112 139.763 198.656 140.067C198.2 140.358 197.972 140.732 197.972 141.188C197.972 141.543 198.074 141.84 198.276 142.081C198.492 142.309 198.758 142.48 199.074 142.594C199.404 142.708 199.739 142.765 200.081 142.765ZM207.867 147.61C207.74 147.61 207.633 147.566 207.544 147.477C207.468 147.401 207.43 147.3 207.43 147.173V134.557C207.43 134.43 207.468 134.329 207.544 134.253C207.633 134.164 207.74 134.12 207.867 134.12H208.741C208.868 134.12 208.969 134.164 209.045 134.253C209.134 134.329 209.178 134.43 209.178 134.557V135.393C209.482 134.975 209.887 134.627 210.394 134.348C210.901 134.069 211.534 133.93 212.294 133.93C213.003 133.93 213.605 134.05 214.099 134.291C214.606 134.532 215.017 134.861 215.334 135.279C215.663 135.697 215.91 136.172 216.075 136.704C216.24 137.236 216.328 137.806 216.341 138.414C216.354 138.617 216.36 138.832 216.36 139.06C216.36 139.288 216.354 139.503 216.341 139.706C216.328 140.301 216.24 140.871 216.075 141.416C215.91 141.948 215.663 142.423 215.334 142.841C215.017 143.246 214.606 143.576 214.099 143.829C213.605 144.07 213.003 144.19 212.294 144.19C211.559 144.19 210.939 144.057 210.432 143.791C209.938 143.512 209.533 143.17 209.216 142.765V147.173C209.216 147.3 209.178 147.401 209.102 147.477C209.026 147.566 208.918 147.61 208.779 147.61H207.867ZM211.895 142.651C212.554 142.651 213.067 142.512 213.434 142.233C213.814 141.942 214.086 141.568 214.251 141.112C214.416 140.643 214.511 140.143 214.536 139.611C214.549 139.244 214.549 138.876 214.536 138.509C214.511 137.977 214.416 137.483 214.251 137.027C214.086 136.558 213.814 136.185 213.434 135.906C213.067 135.615 212.554 135.469 211.895 135.469C211.274 135.469 210.768 135.615 210.375 135.906C209.995 136.197 209.71 136.571 209.52 137.027C209.343 137.47 209.241 137.926 209.216 138.395C209.203 138.598 209.197 138.838 209.197 139.117C209.197 139.396 209.203 139.643 209.216 139.858C209.229 140.301 209.33 140.738 209.52 141.169C209.723 141.6 210.02 141.954 210.413 142.233C210.806 142.512 211.3 142.651 211.895 142.651ZM219.185 144C219.059 144 218.951 143.962 218.862 143.886C218.786 143.797 218.748 143.69 218.748 143.563V130.947C218.748 130.82 218.786 130.719 218.862 130.643C218.951 130.554 219.059 130.51 219.185 130.51H220.135C220.275 130.51 220.382 130.554 220.458 130.643C220.534 130.719 220.572 130.82 220.572 130.947V135.374C220.914 134.943 221.332 134.595 221.826 134.329C222.32 134.063 222.947 133.93 223.707 133.93C224.531 133.93 225.227 134.114 225.797 134.481C226.38 134.836 226.817 135.336 227.108 135.982C227.412 136.615 227.564 137.356 227.564 138.205V143.563C227.564 143.69 227.526 143.797 227.45 143.886C227.374 143.962 227.267 144 227.127 144H226.177C226.051 144 225.943 143.962 225.854 143.886C225.778 143.797 225.74 143.69 225.74 143.563V138.3C225.74 137.413 225.525 136.723 225.094 136.229C224.664 135.722 224.03 135.469 223.194 135.469C222.409 135.469 221.776 135.722 221.294 136.229C220.813 136.723 220.572 137.413 220.572 138.3V143.563C220.572 143.69 220.534 143.797 220.458 143.886C220.382 143.962 220.275 144 220.135 144H219.185ZM248.441 145.596C248.34 145.596 248.251 145.558 248.175 145.482C248.099 145.406 248.061 145.317 248.061 145.216C248.061 145.153 248.08 145.077 248.118 144.988L254.616 129.408C254.654 129.332 254.705 129.256 254.768 129.18C254.844 129.104 254.958 129.066 255.11 129.066H255.851C255.953 129.066 256.041 129.104 256.117 129.18C256.193 129.256 256.231 129.345 256.231 129.446C256.231 129.497 256.219 129.573 256.193 129.674L249.676 145.254C249.651 145.317 249.594 145.387 249.505 145.463C249.429 145.552 249.322 145.596 249.182 145.596H248.441ZM37.8828 176.596C37.7815 176.596 37.6928 176.558 37.6168 176.482C37.5408 176.406 37.5028 176.317 37.5028 176.216C37.5028 176.153 37.5218 176.077 37.5598 175.988L44.0578 160.408C44.0958 160.332 44.1465 160.256 44.2098 160.18C44.2858 160.104 44.3998 160.066 44.5518 160.066H45.2928C45.3941 160.066 45.4828 160.104 45.5588 160.18C45.6348 160.256 45.6728 160.345 45.6728 160.446C45.6728 160.497 45.6601 160.573 45.6348 160.674L39.1178 176.254C39.0925 176.317 39.0355 176.387 38.9468 176.463C38.8708 176.552 38.7631 176.596 38.6238 176.596H37.8828Z" fill="white"/>
<path d="M43.2978 82.19C42.5378 82.19 41.9045 82.057 41.3978 81.791C40.8911 81.5123 40.4858 81.1703 40.1818 80.765V81.563C40.1818 81.6897 40.1375 81.7973 40.0488 81.886C39.9728 81.962 39.8715 82 39.7448 82H38.8708C38.7441 82 38.6365 81.962 38.5478 81.886C38.4718 81.7973 38.4338 81.6897 38.4338 81.563V68.947C38.4338 68.8203 38.4718 68.719 38.5478 68.643C38.6365 68.5543 38.7441 68.51 38.8708 68.51H39.7828C39.9221 68.51 40.0298 68.5543 40.1058 68.643C40.1818 68.719 40.2198 68.8203 40.2198 68.947V73.317C40.5365 72.9243 40.9418 72.595 41.4358 72.329C41.9425 72.063 42.5631 71.93 43.2978 71.93C44.0071 71.93 44.6088 72.0567 45.1028 72.31C45.6095 72.5507 46.0211 72.8863 46.3378 73.317C46.6671 73.7477 46.9141 74.2353 47.0788 74.78C47.2435 75.3247 47.3321 75.8947 47.3448 76.49C47.3575 76.6927 47.3638 76.8827 47.3638 77.06C47.3638 77.2373 47.3575 77.4273 47.3448 77.63C47.3321 78.238 47.2435 78.8143 47.0788 79.359C46.9141 79.9037 46.6671 80.3913 46.3378 80.822C46.0211 81.24 45.6095 81.5757 45.1028 81.829C44.6088 82.0697 44.0071 82.19 43.2978 82.19ZM42.8988 80.651C43.5575 80.651 44.0705 80.5117 44.4378 80.233C44.8178 79.9417 45.0901 79.568 45.2548 79.112C45.4195 78.6433 45.5145 78.143 45.5398 77.611C45.5525 77.2437 45.5525 76.8763 45.5398 76.509C45.5145 75.977 45.4195 75.483 45.2548 75.027C45.0901 74.5583 44.8178 74.1847 44.4378 73.906C44.0705 73.6147 43.5575 73.469 42.8988 73.469C42.3035 73.469 41.8095 73.6083 41.4168 73.887C41.0241 74.1657 40.7265 74.5203 40.5238 74.951C40.3338 75.3817 40.2325 75.8187 40.2198 76.262C40.2071 76.4647 40.2008 76.7117 40.2008 77.003C40.2008 77.2817 40.2071 77.5223 40.2198 77.725C40.2451 78.1937 40.3465 78.656 40.5238 79.112C40.7138 79.5553 40.9988 79.9227 41.3788 80.214C41.7715 80.5053 42.2781 80.651 42.8988 80.651ZM53.7616 82.19C52.7989 82.19 51.9946 82.0063 51.3486 81.639C50.7026 81.2717 50.2086 80.765 49.8666 80.119C49.5246 79.4603 49.3346 78.713 49.2966 77.877C49.2839 77.6617 49.2776 77.3893 49.2776 77.06C49.2776 76.718 49.2839 76.4457 49.2966 76.243C49.3346 75.3943 49.5246 74.647 49.8666 74.001C50.2213 73.355 50.7216 72.8483 51.3676 72.481C52.0136 72.1137 52.8116 71.93 53.7616 71.93C54.7116 71.93 55.5096 72.1137 56.1556 72.481C56.8016 72.8483 57.2956 73.355 57.6376 74.001C57.9923 74.647 58.1886 75.3943 58.2266 76.243C58.2393 76.4457 58.2456 76.718 58.2456 77.06C58.2456 77.3893 58.2393 77.6617 58.2266 77.877C58.1886 78.713 57.9986 79.4603 57.6566 80.119C57.3146 80.765 56.8206 81.2717 56.1746 81.639C55.5286 82.0063 54.7243 82.19 53.7616 82.19ZM53.7616 80.727C54.5469 80.727 55.1739 80.48 55.6426 79.986C56.1113 79.4793 56.3646 78.7447 56.4026 77.782C56.4153 77.592 56.4216 77.3513 56.4216 77.06C56.4216 76.7687 56.4153 76.528 56.4026 76.338C56.3646 75.3753 56.1113 74.647 55.6426 74.153C55.1739 73.6463 54.5469 73.393 53.7616 73.393C52.9763 73.393 52.3429 73.6463 51.8616 74.153C51.3929 74.647 51.1459 75.3753 51.1206 76.338C51.1079 76.528 51.1016 76.7687 51.1016 77.06C51.1016 77.3513 51.1079 77.592 51.1206 77.782C51.1459 78.7447 51.3929 79.4793 51.8616 79.986C52.3429 80.48 52.9763 80.727 53.7616 80.727ZM64.2347 82.19C63.5381 82.19 62.9364 82.0697 62.4298 81.829C61.9231 81.5757 61.5051 81.24 61.1758 80.822C60.8591 80.3913 60.6184 79.9037 60.4538 79.359C60.3018 78.8143 60.2131 78.238 60.1878 77.63C60.1751 77.4273 60.1688 77.2373 60.1688 77.06C60.1688 76.8827 60.1751 76.6927 60.1878 76.49C60.2131 75.8947 60.3018 75.3247 60.4538 74.78C60.6184 74.2353 60.8591 73.7477 61.1758 73.317C61.5051 72.8863 61.9231 72.5507 62.4298 72.31C62.9364 72.0567 63.5381 71.93 64.2347 71.93C64.9821 71.93 65.6028 72.063 66.0968 72.329C66.5908 72.595 66.9961 72.9243 67.3128 73.317V68.947C67.3128 68.8203 67.3508 68.719 67.4268 68.643C67.5154 68.5543 67.6231 68.51 67.7498 68.51H68.6618C68.7884 68.51 68.8898 68.5543 68.9658 68.643C69.0544 68.719 69.0988 68.8203 69.0988 68.947V81.563C69.0988 81.6897 69.0544 81.7973 68.9658 81.886C68.8898 81.962 68.7884 82 68.6618 82H67.8068C67.6674 82 67.5598 81.962 67.4838 81.886C67.4078 81.7973 67.3698 81.6897 67.3698 81.563V80.765C67.0531 81.1703 66.6414 81.5123 66.1348 81.791C65.6281 82.057 64.9948 82.19 64.2347 82.19ZM64.6338 80.651C65.2671 80.651 65.7738 80.5053 66.1538 80.214C66.5338 79.9227 66.8188 79.5553 67.0088 79.112C67.1988 78.656 67.3001 78.1937 67.3128 77.725C67.3254 77.5223 67.3318 77.2817 67.3318 77.003C67.3318 76.7117 67.3254 76.4647 67.3128 76.262C67.3001 75.8187 67.1924 75.3817 66.9898 74.951C66.7998 74.5203 66.5084 74.1657 66.1158 73.887C65.7358 73.6083 65.2418 73.469 64.6338 73.469C63.9878 73.469 63.4748 73.6147 63.0948 73.906C62.7148 74.1847 62.4424 74.5583 62.2778 75.027C62.1131 75.483 62.0181 75.977 61.9928 76.509C61.9801 76.8763 61.9801 77.2437 61.9928 77.611C62.0181 78.143 62.1131 78.6433 62.2778 79.112C62.4424 79.568 62.7148 79.9417 63.0948 80.233C63.4748 80.5117 63.9878 80.651 64.6338 80.651ZM73.6536 85.61C73.5522 85.61 73.4636 85.572 73.3876 85.496C73.3116 85.42 73.2736 85.3313 73.2736 85.23C73.2736 85.1793 73.2799 85.1287 73.2926 85.078C73.3052 85.0273 73.3306 84.964 73.3686 84.888L74.8316 81.411L71.2026 72.842C71.1392 72.69 71.1076 72.5823 71.1076 72.519C71.1076 72.405 71.1456 72.31 71.2216 72.234C71.2976 72.158 71.3926 72.12 71.5066 72.12H72.4376C72.5642 72.12 72.6656 72.1517 72.7416 72.215C72.8176 72.2783 72.8682 72.3543 72.8936 72.443L75.7816 79.359L78.7456 72.443C78.7836 72.3543 78.8342 72.2783 78.8976 72.215C78.9736 72.1517 79.0812 72.12 79.2206 72.12H80.1136C80.2276 72.12 80.3226 72.158 80.3986 72.234C80.4746 72.31 80.5126 72.3987 80.5126 72.5C80.5126 72.5633 80.4809 72.6773 80.4176 72.842L75.0216 85.287C74.9836 85.3757 74.9266 85.4517 74.8506 85.515C74.7872 85.5783 74.6859 85.61 74.5466 85.61H73.6536ZM38.8708 113C38.7441 113 38.6365 112.962 38.5478 112.886C38.4718 112.797 38.4338 112.69 38.4338 112.563V99.947C38.4338 99.8203 38.4718 99.719 38.5478 99.643C38.6365 99.5543 38.7441 99.51 38.8708 99.51H39.8208C39.9601 99.51 40.0678 99.5543 40.1438 99.643C40.2198 99.719 40.2578 99.8203 40.2578 99.947V104.374C40.5998 103.943 41.0178 103.595 41.5118 103.329C42.0058 103.063 42.6328 102.93 43.3928 102.93C44.2161 102.93 44.9128 103.114 45.4828 103.481C46.0655 103.836 46.5025 104.336 46.7938 104.982C47.0978 105.615 47.2498 106.356 47.2498 107.205V112.563C47.2498 112.69 47.2118 112.797 47.1358 112.886C47.0598 112.962 46.9521 113 46.8128 113H45.8628C45.7361 113 45.6285 112.962 45.5398 112.886C45.4638 112.797 45.4258 112.69 45.4258 112.563V107.3C45.4258 106.413 45.2105 105.723 44.7798 105.229C44.3491 104.722 43.7158 104.469 42.8798 104.469C42.0945 104.469 41.4611 104.722 40.9798 105.229C40.4985 105.723 40.2578 106.413 40.2578 107.3V112.563C40.2578 112.69 40.2198 112.797 40.1438 112.886C40.0678 112.962 39.9601 113 39.8208 113H38.8708ZM53.8309 113C53.7042 113 53.5966 112.962 53.5079 112.886C53.4319 112.797 53.3939 112.69 53.3939 112.563V101.923L50.2399 104.355C50.1386 104.431 50.0309 104.463 49.9169 104.45C49.8029 104.437 49.7079 104.38 49.6319 104.279L49.1379 103.652C49.0619 103.538 49.0302 103.424 49.0429 103.31C49.0682 103.196 49.1316 103.101 49.2329 103.025L53.3749 99.833C53.4636 99.7697 53.5459 99.7317 53.6219 99.719C53.6979 99.7063 53.7802 99.7 53.8689 99.7H54.8379C54.9646 99.7 55.0659 99.7443 55.1419 99.833C55.2179 99.909 55.2559 100.01 55.2559 100.137V112.563C55.2559 112.69 55.2179 112.797 55.1419 112.886C55.0659 112.962 54.9646 113 54.8379 113H53.8309ZM256.777 113C256.65 113 256.543 112.962 256.454 112.886C256.378 112.797 256.34 112.69 256.34 112.563V99.947C256.34 99.8203 256.378 99.719 256.454 99.643C256.543 99.5543 256.65 99.51 256.777 99.51H257.727C257.866 99.51 257.974 99.5543 258.05 99.643C258.126 99.719 258.164 99.8203 258.164 99.947V104.374C258.506 103.943 258.924 103.595 259.418 103.329C259.912 103.063 260.539 102.93 261.299 102.93C262.122 102.93 262.819 103.114 263.389 103.481C263.972 103.836 264.409 104.336 264.7 104.982C265.004 105.615 265.156 106.356 265.156 107.205V112.563C265.156 112.69 265.118 112.797 265.042 112.886C264.966 112.962 264.858 113 264.719 113H263.769C263.642 113 263.535 112.962 263.446 112.886C263.37 112.797 263.332 112.69 263.332 112.563V107.3C263.332 106.413 263.117 105.723 262.686 105.229C262.255 104.722 261.622 104.469 260.786 104.469C260.001 104.469 259.367 104.722 258.886 105.229C258.405 105.723 258.164 106.413 258.164 107.3V112.563C258.164 112.69 258.126 112.797 258.05 112.886C257.974 112.962 257.866 113 257.727 113H256.777ZM271.737 113C271.61 113 271.503 112.962 271.414 112.886C271.338 112.797 271.3 112.69 271.3 112.563V101.923L268.146 104.355C268.045 104.431 267.937 104.463 267.823 104.45C267.709 104.437 267.614 104.38 267.538 104.279L267.044 103.652C266.968 103.538 266.936 103.424 266.949 103.31C266.974 103.196 267.038 103.101 267.139 103.025L271.281 99.833C271.37 99.7697 271.452 99.7317 271.528 99.719C271.604 99.7063 271.686 99.7 271.775 99.7H272.744C272.871 99.7 272.972 99.7443 273.048 99.833C273.124 99.909 273.162 100.01 273.162 100.137V112.563C273.162 112.69 273.124 112.797 273.048 112.886C272.972 112.962 272.871 113 272.744 113H271.737ZM38.8708 147.61C38.7441 147.61 38.6365 147.566 38.5478 147.477C38.4718 147.401 38.4338 147.3 38.4338 147.173V134.557C38.4338 134.43 38.4718 134.329 38.5478 134.253C38.6365 134.164 38.7441 134.12 38.8708 134.12H39.7448C39.8715 134.12 39.9728 134.164 40.0488 134.253C40.1375 134.329 40.1818 134.43 40.1818 134.557V135.393C40.4858 134.975 40.8911 134.627 41.3978 134.348C41.9045 134.069 42.5378 133.93 43.2978 133.93C44.0071 133.93 44.6088 134.05 45.1028 134.291C45.6095 134.532 46.0211 134.861 46.3378 135.279C46.6671 135.697 46.9141 136.172 47.0788 136.704C47.2435 137.236 47.3321 137.806 47.3448 138.414C47.3575 138.617 47.3638 138.832 47.3638 139.06C47.3638 139.288 47.3575 139.503 47.3448 139.706C47.3321 140.301 47.2435 140.871 47.0788 141.416C46.9141 141.948 46.6671 142.423 46.3378 142.841C46.0211 143.246 45.6095 143.576 45.1028 143.829C44.6088 144.07 44.0071 144.19 43.2978 144.19C42.5631 144.19 41.9425 144.057 41.4358 143.791C40.9418 143.512 40.5365 143.17 40.2198 142.765V147.173C40.2198 147.3 40.1818 147.401 40.1058 147.477C40.0298 147.566 39.9221 147.61 39.7828 147.61H38.8708ZM42.8988 142.651C43.5575 142.651 44.0705 142.512 44.4378 142.233C44.8178 141.942 45.0901 141.568 45.2548 141.112C45.4195 140.643 45.5145 140.143 45.5398 139.611C45.5525 139.244 45.5525 138.876 45.5398 138.509C45.5145 137.977 45.4195 137.483 45.2548 137.027C45.0901 136.558 44.8178 136.185 44.4378 135.906C44.0705 135.615 43.5575 135.469 42.8988 135.469C42.2781 135.469 41.7715 135.615 41.3788 135.906C40.9988 136.197 40.7138 136.571 40.5238 137.027C40.3465 137.47 40.2451 137.926 40.2198 138.395C40.2071 138.598 40.2008 138.838 40.2008 139.117C40.2008 139.396 40.2071 139.643 40.2198 139.858C40.2325 140.301 40.3338 140.738 40.5238 141.169C40.7265 141.6 41.0241 141.954 41.4168 142.233C41.8095 142.512 42.3035 142.651 42.8988 142.651ZM263.234 147.61C263.107 147.61 263 147.566 262.911 147.477C262.835 147.401 262.797 147.3 262.797 147.173V134.557C262.797 134.43 262.835 134.329 262.911 134.253C263 134.164 263.107 134.12 263.234 134.12H264.108C264.235 134.12 264.336 134.164 264.412 134.253C264.501 134.329 264.545 134.43 264.545 134.557V135.393C264.849 134.975 265.254 134.627 265.761 134.348C266.268 134.069 266.901 133.93 267.661 133.93C268.37 133.93 268.972 134.05 269.466 134.291C269.973 134.532 270.384 134.861 270.701 135.279C271.03 135.697 271.277 136.172 271.442 136.704C271.607 137.236 271.695 137.806 271.708 138.414C271.721 138.617 271.727 138.832 271.727 139.06C271.727 139.288 271.721 139.503 271.708 139.706C271.695 140.301 271.607 140.871 271.442 141.416C271.277 141.948 271.03 142.423 270.701 142.841C270.384 143.246 269.973 143.576 269.466 143.829C268.972 144.07 268.37 144.19 267.661 144.19C266.926 144.19 266.306 144.057 265.799 143.791C265.305 143.512 264.9 143.17 264.583 142.765V147.173C264.583 147.3 264.545 147.401 264.469 147.477C264.393 147.566 264.285 147.61 264.146 147.61H263.234ZM267.262 142.651C267.921 142.651 268.434 142.512 268.801 142.233C269.181 141.942 269.453 141.568 269.618 141.112C269.783 140.643 269.878 140.143 269.903 139.611C269.916 139.244 269.916 138.876 269.903 138.509C269.878 137.977 269.783 137.483 269.618 137.027C269.453 136.558 269.181 136.185 268.801 135.906C268.434 135.615 267.921 135.469 267.262 135.469C266.641 135.469 266.135 135.615 265.742 135.906C265.362 136.197 265.077 136.571 264.887 137.027C264.71 137.47 264.608 137.926 264.583 138.395C264.57 138.598 264.564 138.838 264.564 139.117C264.564 139.396 264.57 139.643 264.583 139.858C264.596 140.301 264.697 140.738 264.887 141.169C265.09 141.6 265.387 141.954 265.78 142.233C266.173 142.512 266.667 142.651 267.262 142.651ZM57.1025 175.19C56.3425 175.19 55.7091 175.057 55.2025 174.791C54.6958 174.512 54.2905 174.17 53.9865 173.765V174.563C53.9865 174.69 53.9421 174.797 53.8535 174.886C53.7775 174.962 53.6761 175 53.5495 175H52.6755C52.5488 175 52.4411 174.962 52.3525 174.886C52.2765 174.797 52.2385 174.69 52.2385 174.563V161.947C52.2385 161.82 52.2765 161.719 52.3525 161.643C52.4411 161.554 52.5488 161.51 52.6755 161.51H53.5875C53.7268 161.51 53.8345 161.554 53.9105 161.643C53.9865 161.719 54.0245 161.82 54.0245 161.947V166.317C54.3411 165.924 54.7465 165.595 55.2405 165.329C55.7471 165.063 56.3678 164.93 57.1025 164.93C57.8118 164.93 58.4135 165.057 58.9075 165.31C59.4141 165.551 59.8258 165.886 60.1425 166.317C60.4718 166.748 60.7188 167.235 60.8835 167.78C61.0481 168.325 61.1368 168.895 61.1495 169.49C61.1621 169.693 61.1685 169.883 61.1685 170.06C61.1685 170.237 61.1621 170.427 61.1495 170.63C61.1368 171.238 61.0481 171.814 60.8835 172.359C60.7188 172.904 60.4718 173.391 60.1425 173.822C59.8258 174.24 59.4141 174.576 58.9075 174.829C58.4135 175.07 57.8118 175.19 57.1025 175.19ZM56.7035 173.651C57.3621 173.651 57.8751 173.512 58.2425 173.233C58.6225 172.942 58.8948 172.568 59.0595 172.112C59.2241 171.643 59.3191 171.143 59.3445 170.611C59.3571 170.244 59.3571 169.876 59.3445 169.509C59.3191 168.977 59.2241 168.483 59.0595 168.027C58.8948 167.558 58.6225 167.185 58.2425 166.906C57.8751 166.615 57.3621 166.469 56.7035 166.469C56.1081 166.469 55.6141 166.608 55.2215 166.887C54.8288 167.166 54.5311 167.52 54.3285 167.951C54.1385 168.382 54.0371 168.819 54.0245 169.262C54.0118 169.465 54.0055 169.712 54.0055 170.003C54.0055 170.282 54.0118 170.522 54.0245 170.725C54.0498 171.194 54.1511 171.656 54.3285 172.112C54.5185 172.555 54.8035 172.923 55.1835 173.214C55.5761 173.505 56.0828 173.651 56.7035 173.651ZM67.5663 175.19C66.6036 175.19 65.7993 175.006 65.1533 174.639C64.5073 174.272 64.0133 173.765 63.6713 173.119C63.3293 172.46 63.1393 171.713 63.1013 170.877C63.0886 170.662 63.0823 170.389 63.0823 170.06C63.0823 169.718 63.0886 169.446 63.1013 169.243C63.1393 168.394 63.3293 167.647 63.6713 167.001C64.0259 166.355 64.5263 165.848 65.1723 165.481C65.8183 165.114 66.6163 164.93 67.5663 164.93C68.5163 164.93 69.3143 165.114 69.9603 165.481C70.6063 165.848 71.1003 166.355 71.4423 167.001C71.7969 167.647 71.9933 168.394 72.0313 169.243C72.0439 169.446 72.0503 169.718 72.0503 170.06C72.0503 170.389 72.0439 170.662 72.0313 170.877C71.9933 171.713 71.8033 172.46 71.4613 173.119C71.1193 173.765 70.6253 174.272 69.9793 174.639C69.3333 175.006 68.5289 175.19 67.5663 175.19ZM67.5663 173.727C68.3516 173.727 68.9786 173.48 69.4473 172.986C69.9159 172.479 70.1693 171.745 70.2073 170.782C70.2199 170.592 70.2263 170.351 70.2263 170.06C70.2263 169.769 70.2199 169.528 70.2073 169.338C70.1693 168.375 69.9159 167.647 69.4473 167.153C68.9786 166.646 68.3516 166.393 67.5663 166.393C66.7809 166.393 66.1476 166.646 65.6663 167.153C65.1976 167.647 64.9506 168.375 64.9253 169.338C64.9126 169.528 64.9063 169.769 64.9063 170.06C64.9063 170.351 64.9126 170.592 64.9253 170.782C64.9506 171.745 65.1976 172.479 65.6663 172.986C66.1476 173.48 66.7809 173.727 67.5663 173.727ZM78.0394 175.19C77.3428 175.19 76.7411 175.07 76.2344 174.829C75.7278 174.576 75.3098 174.24 74.9804 173.822C74.6638 173.391 74.4231 172.904 74.2584 172.359C74.1064 171.814 74.0178 171.238 73.9924 170.63C73.9798 170.427 73.9734 170.237 73.9734 170.06C73.9734 169.883 73.9798 169.693 73.9924 169.49C74.0178 168.895 74.1064 168.325 74.2584 167.78C74.4231 167.235 74.6638 166.748 74.9804 166.317C75.3098 165.886 75.7278 165.551 76.2344 165.31C76.7411 165.057 77.3428 164.93 78.0394 164.93C78.7868 164.93 79.4074 165.063 79.9014 165.329C80.3954 165.595 80.8008 165.924 81.1174 166.317V161.947C81.1174 161.82 81.1554 161.719 81.2314 161.643C81.3201 161.554 81.4278 161.51 81.5544 161.51H82.4664C82.5931 161.51 82.6944 161.554 82.7704 161.643C82.8591 161.719 82.9034 161.82 82.9034 161.947V174.563C82.9034 174.69 82.8591 174.797 82.7704 174.886C82.6944 174.962 82.5931 175 82.4664 175H81.6114C81.4721 175 81.3644 174.962 81.2884 174.886C81.2124 174.797 81.1744 174.69 81.1744 174.563V173.765C80.8578 174.17 80.4461 174.512 79.9394 174.791C79.4328 175.057 78.7994 175.19 78.0394 175.19ZM78.4384 173.651C79.0718 173.651 79.5784 173.505 79.9584 173.214C80.3384 172.923 80.6234 172.555 80.8134 172.112C81.0034 171.656 81.1048 171.194 81.1174 170.725C81.1301 170.522 81.1364 170.282 81.1364 170.003C81.1364 169.712 81.1301 169.465 81.1174 169.262C81.1048 168.819 80.9971 168.382 80.7944 167.951C80.6044 167.52 80.3131 167.166 79.9204 166.887C79.5404 166.608 79.0464 166.469 78.4384 166.469C77.7924 166.469 77.2794 166.615 76.8994 166.906C76.5194 167.185 76.2471 167.558 76.0824 168.027C75.9178 168.483 75.8228 168.977 75.7974 169.509C75.7848 169.876 75.7848 170.244 75.7974 170.611C75.8228 171.143 75.9178 171.643 76.0824 172.112C76.2471 172.568 76.5194 172.942 76.8994 173.233C77.2794 173.512 77.7924 173.651 78.4384 173.651ZM87.4582 178.61C87.3569 178.61 87.2682 178.572 87.1922 178.496C87.1162 178.42 87.0782 178.331 87.0782 178.23C87.0782 178.179 87.0846 178.129 87.0972 178.078C87.1099 178.027 87.1352 177.964 87.1732 177.888L88.6362 174.411L85.0072 165.842C84.9439 165.69 84.9122 165.582 84.9122 165.519C84.9122 165.405 84.9502 165.31 85.0262 165.234C85.1022 165.158 85.1972 165.12 85.3112 165.12H86.2422C86.3689 165.12 86.4702 165.152 86.5462 165.215C86.6222 165.278 86.6729 165.354 86.6982 165.443L89.5862 172.359L92.5502 165.443C92.5882 165.354 92.6389 165.278 92.7022 165.215C92.7782 165.152 92.8859 165.12 93.0252 165.12H93.9182C94.0322 165.12 94.1272 165.158 94.2032 165.234C94.2792 165.31 94.3172 165.399 94.3172 165.5C94.3172 165.563 94.2856 165.677 94.2222 165.842L88.8262 178.287C88.7882 178.376 88.7312 178.452 88.6552 178.515C88.5919 178.578 88.4906 178.61 88.3512 178.61H87.4582Z" fill="white" fill-opacity="0.75"/>
<g filter="url(#filter0_d_168_3)">
<path d="M4 12C4 5.3726 9.37258 0 16 0H321C327.627 0 333 5.37258 333 12V43.2433H4V12Z" fill="#242526"/>
</g>
<ellipse cx="29.1279" cy="21.9141" rx="5.84369" ry="6.72025" fill="#E65100"/>
<ellipse cx="48.4121" cy="21.9141" rx="5.84369" ry="6.72025" fill="#FFD600"/>
<ellipse cx="67.6962" cy="21.9141" rx="5.84369" ry="6.72025" fill="#4EC433"/>
<defs>
<filter id="filter0_d_168_3" x="0" y="0" width="337" height="51.2432" filterUnits="userSpaceOnUse" color-interpolation-filters="sRGB">
<feFlood flood-opacity="0" result="BackgroundImageFix"/>
<feColorMatrix in="SourceAlpha" type="matrix" values="0 0 0 0 0 0 0 0 0 0 0 0 0 0 0 0 0 0 127 0" result="hardAlpha"/>
<feOffset dy="4"/>
<feGaussianBlur stdDeviation="2"/>
<feComposite in2="hardAlpha" operator="out"/>
<feColorMatrix type="matrix" values="0 0 0 0 0 0 0 0 0 0 0 0 0 0 0 0 0 0 0.25 0"/>
<feBlend mode="normal" in2="BackgroundImageFix" result="effect1_dropShadow_168_3"/>
<feBlend mode="normal" in="SourceGraphic" in2="effect1_dropShadow_168_3" result="shape"/>
</filter>
</defs>
</svg>
