<svg width="41" height="44" viewBox="0 0 41 44" fill="none" xmlns="http://www.w3.org/2000/svg">
<path fill-rule="evenodd" clip-rule="evenodd" d="M40.4831 0.254028H0.619629L4.13698 39.1645L20.5513 43.7421L36.9656 39.1645L40.4831 0.254028Z" fill="#0277BD"/>
<path fill-rule="evenodd" clip-rule="evenodd" d="M20.5508 3.68726V40.1945L33.6822 36.5321L36.6133 3.68726H20.5508Z" fill="#0277BD"/>
<path fill-rule="evenodd" clip-rule="evenodd" d="M31.2199 9.40955H20.5508V13.9872H26.2957L25.9442 18.5649H20.5508V23.1426H25.7096L25.3578 28.2926L20.5508 29.8946V34.7012L29.8132 31.7257L30.6338 18.5649L31.2199 9.40955Z" fill="white"/>
<path fill-rule="evenodd" clip-rule="evenodd" d="M20.5512 9.40955V13.9872H10.1164L9.76465 9.40955H20.5512ZM15.1579 18.5649L15.3924 23.1426H20.5512V18.5649H15.1579ZM15.6269 25.4315H10.9371L11.2889 31.7257L20.5512 34.7012V29.8946L15.7441 28.2926L15.6269 25.4315Z" fill="#EEEEEE"/>
</svg>
