<svg width="350" height="258" viewBox="0 0 350 258" fill="none" xmlns="http://www.w3.org/2000/svg">
<rect x="4" width="319" height="258" rx="12" fill="#242526"/>
<path d="M25.676 81.525C25.6 81.525 25.5177 81.4997 25.429 81.449C25.353 81.3983 25.2833 81.3603 25.22 81.335L19.235 77.212C19.045 77.0853 18.9057 76.9587 18.817 76.832C18.7283 76.6927 18.684 76.5343 18.684 76.357V76.015C18.684 75.8377 18.7283 75.6857 18.817 75.559C18.9057 75.4323 19.045 75.2993 19.235 75.16L25.22 71.056C25.2833 71.018 25.353 70.9737 25.429 70.923C25.5177 70.8723 25.6 70.847 25.676 70.847C25.7773 70.847 25.866 70.885 25.942 70.961C26.018 71.0243 26.056 71.1193 26.056 71.246V72.082C26.056 72.2213 26.018 72.3417 25.942 72.443C25.866 72.5317 25.7583 72.6203 25.619 72.709L20.527 76.186L25.619 79.663C25.7583 79.7643 25.866 79.8593 25.942 79.948C26.018 80.0367 26.056 80.157 26.056 80.309V81.145C26.056 81.259 26.018 81.354 25.942 81.43C25.866 81.4933 25.7773 81.525 25.676 81.525ZM54.2579 81.506C54.1566 81.506 54.0679 81.4743 53.9919 81.411C53.9159 81.3477 53.8779 81.2527 53.8779 81.126V80.29C53.8779 80.138 53.9096 80.0177 53.9729 79.929C54.0489 79.8403 54.1629 79.7517 54.3149 79.663L59.3879 76.186L54.3149 72.709C54.1629 72.6077 54.0489 72.5127 53.9729 72.424C53.9096 72.3353 53.8779 72.215 53.8779 72.063V71.227C53.8779 71.1003 53.9159 71.0053 53.9919 70.942C54.0679 70.8787 54.1566 70.847 54.2579 70.847C54.3339 70.847 54.4163 70.8723 54.5049 70.923C54.5936 70.961 54.6633 70.999 54.7139 71.037L60.6799 75.141C60.8826 75.2803 61.0219 75.4133 61.0979 75.54C61.1866 75.6667 61.2309 75.825 61.2309 76.015V76.338C61.2309 76.5153 61.1866 76.6737 61.0979 76.813C61.0219 76.9397 60.8826 77.0727 60.6799 77.212L54.7139 81.316C54.6633 81.354 54.5936 81.3983 54.5049 81.449C54.4163 81.487 54.3339 81.506 54.2579 81.506ZM25.676 112.525C25.6 112.525 25.5177 112.5 25.429 112.449C25.353 112.398 25.2833 112.36 25.22 112.335L19.235 108.212C19.045 108.085 18.9057 107.959 18.817 107.832C18.7283 107.693 18.684 107.534 18.684 107.357V107.015C18.684 106.838 18.7283 106.686 18.817 106.559C18.9057 106.432 19.045 106.299 19.235 106.16L25.22 102.056C25.2833 102.018 25.353 101.974 25.429 101.923C25.5177 101.872 25.6 101.847 25.676 101.847C25.7773 101.847 25.866 101.885 25.942 101.961C26.018 102.024 26.056 102.119 26.056 102.246V103.082C26.056 103.221 26.018 103.342 25.942 103.443C25.866 103.532 25.7583 103.62 25.619 103.709L20.527 107.186L25.619 110.663C25.7583 110.764 25.866 110.859 25.942 110.948C26.018 111.037 26.056 111.157 26.056 111.309V112.145C26.056 112.259 26.018 112.354 25.942 112.43C25.866 112.493 25.7773 112.525 25.676 112.525ZM61.7169 112.506C61.6156 112.506 61.5269 112.474 61.4509 112.411C61.3749 112.348 61.3369 112.253 61.3369 112.126V111.29C61.3369 111.138 61.3686 111.018 61.4319 110.929C61.5079 110.84 61.6219 110.752 61.7739 110.663L66.8469 107.186L61.7739 103.709C61.6219 103.608 61.5079 103.513 61.4319 103.424C61.3686 103.335 61.3369 103.215 61.3369 103.063V102.227C61.3369 102.1 61.3749 102.005 61.4509 101.942C61.5269 101.879 61.6156 101.847 61.7169 101.847C61.7929 101.847 61.8753 101.872 61.9639 101.923C62.0526 101.961 62.1223 101.999 62.1729 102.037L68.1389 106.141C68.3416 106.28 68.4809 106.413 68.5569 106.54C68.6456 106.667 68.6899 106.825 68.6899 107.015V107.338C68.6899 107.515 68.6456 107.674 68.5569 107.813C68.4809 107.94 68.3416 108.073 68.1389 108.212L62.1729 112.316C62.1223 112.354 62.0526 112.398 61.9639 112.449C61.8753 112.487 61.7929 112.506 61.7169 112.506ZM148.694 112.525C148.618 112.525 148.535 112.5 148.447 112.449C148.371 112.398 148.301 112.36 148.238 112.335L142.253 108.212C142.063 108.085 141.923 107.959 141.835 107.832C141.746 107.693 141.702 107.534 141.702 107.357V107.015C141.702 106.838 141.746 106.686 141.835 106.559C141.923 106.432 142.063 106.299 142.253 106.16L148.238 102.056C148.301 102.018 148.371 101.974 148.447 101.923C148.535 101.872 148.618 101.847 148.694 101.847C148.795 101.847 148.884 101.885 148.96 101.961C149.036 102.024 149.074 102.119 149.074 102.246V103.082C149.074 103.221 149.036 103.342 148.96 103.443C148.884 103.532 148.776 103.62 148.637 103.709L143.545 107.186L148.637 110.663C148.776 110.764 148.884 110.859 148.96 110.948C149.036 111.037 149.074 111.157 149.074 111.309V112.145C149.074 112.259 149.036 112.354 148.96 112.43C148.884 112.493 148.795 112.525 148.694 112.525ZM193.882 112.506C193.781 112.506 193.692 112.474 193.616 112.411C193.54 112.348 193.502 112.253 193.502 112.126V111.29C193.502 111.138 193.534 111.018 193.597 110.929C193.673 110.84 193.787 110.752 193.939 110.663L199.012 107.186L193.939 103.709C193.787 103.608 193.673 103.513 193.597 103.424C193.534 103.335 193.502 103.215 193.502 103.063V102.227C193.502 102.1 193.54 102.005 193.616 101.942C193.692 101.879 193.781 101.847 193.882 101.847C193.958 101.847 194.04 101.872 194.129 101.923C194.218 101.961 194.287 101.999 194.338 102.037L200.304 106.141C200.507 106.28 200.646 106.413 200.722 106.54C200.811 106.667 200.855 106.825 200.855 107.015V107.338C200.855 107.515 200.811 107.674 200.722 107.813C200.646 107.94 200.507 108.073 200.304 108.212L194.338 112.316C194.287 112.354 194.218 112.398 194.129 112.449C194.04 112.487 193.958 112.506 193.882 112.506ZM25.676 143.525C25.6 143.525 25.5177 143.5 25.429 143.449C25.353 143.398 25.2833 143.36 25.22 143.335L19.235 139.212C19.045 139.085 18.9057 138.959 18.817 138.832C18.7283 138.693 18.684 138.534 18.684 138.357V138.015C18.684 137.838 18.7283 137.686 18.817 137.559C18.9057 137.432 19.045 137.299 19.235 137.16L25.22 133.056C25.2833 133.018 25.353 132.974 25.429 132.923C25.5177 132.872 25.6 132.847 25.676 132.847C25.7773 132.847 25.866 132.885 25.942 132.961C26.018 133.024 26.056 133.119 26.056 133.246V134.082C26.056 134.221 26.018 134.342 25.942 134.443C25.866 134.532 25.7583 134.62 25.619 134.709L20.527 138.186L25.619 141.663C25.7583 141.764 25.866 141.859 25.942 141.948C26.018 142.037 26.056 142.157 26.056 142.309V143.145C26.056 143.259 26.018 143.354 25.942 143.43C25.866 143.493 25.7773 143.525 25.676 143.525ZM65.5949 143.506C65.4935 143.506 65.4049 143.474 65.3289 143.411C65.2529 143.348 65.2149 143.253 65.2149 143.126V142.29C65.2149 142.138 65.2465 142.018 65.3099 141.929C65.3859 141.84 65.4999 141.752 65.6519 141.663L70.7249 138.186L65.6519 134.709C65.4999 134.608 65.3859 134.513 65.3099 134.424C65.2465 134.335 65.2149 134.215 65.2149 134.063V133.227C65.2149 133.1 65.2529 133.005 65.3289 132.942C65.4049 132.879 65.4935 132.847 65.5949 132.847C65.6709 132.847 65.7532 132.872 65.8419 132.923C65.9305 132.961 66.0002 132.999 66.0509 133.037L72.0169 137.141C72.2195 137.28 72.3589 137.413 72.4349 137.54C72.5235 137.667 72.5679 137.825 72.5679 138.015V138.338C72.5679 138.515 72.5235 138.674 72.4349 138.813C72.3589 138.94 72.2195 139.073 72.0169 139.212L66.0509 143.316C66.0002 143.354 65.9305 143.398 65.8419 143.449C65.7532 143.487 65.6709 143.506 65.5949 143.506ZM239.018 143.525C238.942 143.525 238.859 143.5 238.771 143.449C238.695 143.398 238.625 143.36 238.562 143.335L232.577 139.212C232.387 139.085 232.247 138.959 232.159 138.832C232.07 138.693 232.026 138.534 232.026 138.357V138.015C232.026 137.838 232.07 137.686 232.159 137.559C232.247 137.432 232.387 137.299 232.577 137.16L238.562 133.056C238.625 133.018 238.695 132.974 238.771 132.923C238.859 132.872 238.942 132.847 239.018 132.847C239.119 132.847 239.208 132.885 239.284 132.961C239.36 133.024 239.398 133.119 239.398 133.246V134.082C239.398 134.221 239.36 134.342 239.284 134.443C239.208 134.532 239.1 134.62 238.961 134.709L233.869 138.186L238.961 141.663C239.1 141.764 239.208 141.859 239.284 141.948C239.36 142.037 239.398 142.157 239.398 142.309V143.145C239.398 143.259 239.36 143.354 239.284 143.43C239.208 143.493 239.119 143.525 239.018 143.525ZM288.084 143.506C287.983 143.506 287.894 143.474 287.818 143.411C287.742 143.348 287.704 143.253 287.704 143.126V142.29C287.704 142.138 287.736 142.018 287.799 141.929C287.875 141.84 287.989 141.752 288.141 141.663L293.214 138.186L288.141 134.709C287.989 134.608 287.875 134.513 287.799 134.424C287.736 134.335 287.704 134.215 287.704 134.063V133.227C287.704 133.1 287.742 133.005 287.818 132.942C287.894 132.879 287.983 132.847 288.084 132.847C288.16 132.847 288.242 132.872 288.331 132.923C288.42 132.961 288.489 132.999 288.54 133.037L294.506 137.141C294.709 137.28 294.848 137.413 294.924 137.54C295.013 137.667 295.057 137.825 295.057 138.015V138.338C295.057 138.515 295.013 138.674 294.924 138.813C294.848 138.94 294.709 139.073 294.506 139.212L288.54 143.316C288.489 143.354 288.42 143.398 288.331 143.449C288.242 143.487 288.16 143.506 288.084 143.506ZM25.676 174.525C25.6 174.525 25.5177 174.5 25.429 174.449C25.353 174.398 25.2833 174.36 25.22 174.335L19.235 170.212C19.045 170.085 18.9057 169.959 18.817 169.832C18.7283 169.693 18.684 169.534 18.684 169.357V169.015C18.684 168.838 18.7283 168.686 18.817 168.559C18.9057 168.432 19.045 168.299 19.235 168.16L25.22 164.056C25.2833 164.018 25.353 163.974 25.429 163.923C25.5177 163.872 25.6 163.847 25.676 163.847C25.7773 163.847 25.866 163.885 25.942 163.961C26.018 164.024 26.056 164.119 26.056 164.246V165.082C26.056 165.221 26.018 165.342 25.942 165.443C25.866 165.532 25.7583 165.62 25.619 165.709L20.527 169.186L25.619 172.663C25.7583 172.764 25.866 172.859 25.942 172.948C26.018 173.037 26.056 173.157 26.056 173.309V174.145C26.056 174.259 26.018 174.354 25.942 174.43C25.866 174.493 25.7773 174.525 25.676 174.525ZM61.7169 174.506C61.6156 174.506 61.5269 174.474 61.4509 174.411C61.3749 174.348 61.3369 174.253 61.3369 174.126V173.29C61.3369 173.138 61.3686 173.018 61.4319 172.929C61.5079 172.84 61.6219 172.752 61.7739 172.663L66.8469 169.186L61.7739 165.709C61.6219 165.608 61.5079 165.513 61.4319 165.424C61.3686 165.335 61.3369 165.215 61.3369 165.063V164.227C61.3369 164.1 61.3749 164.005 61.4509 163.942C61.5269 163.879 61.6156 163.847 61.7169 163.847C61.7929 163.847 61.8753 163.872 61.9639 163.923C62.0526 163.961 62.1223 163.999 62.1729 164.037L68.1389 168.141C68.3416 168.28 68.4809 168.413 68.5569 168.54C68.6456 168.667 68.6899 168.825 68.6899 169.015V169.338C68.6899 169.515 68.6456 169.674 68.5569 169.813C68.4809 169.94 68.3416 170.073 68.1389 170.212L62.1729 174.316C62.1223 174.354 62.0526 174.398 61.9639 174.449C61.8753 174.487 61.7929 174.506 61.7169 174.506ZM125.129 174.525C125.053 174.525 124.971 174.5 124.882 174.449C124.806 174.398 124.736 174.36 124.673 174.335L118.688 170.212C118.498 170.085 118.359 169.959 118.27 169.832C118.181 169.693 118.137 169.534 118.137 169.357V169.015C118.137 168.838 118.181 168.686 118.27 168.559C118.359 168.432 118.498 168.299 118.688 168.16L124.673 164.056C124.736 164.018 124.806 163.974 124.882 163.923C124.971 163.872 125.053 163.847 125.129 163.847C125.23 163.847 125.319 163.885 125.395 163.961C125.471 164.024 125.509 164.119 125.509 164.246V165.082C125.509 165.221 125.471 165.342 125.395 165.443C125.319 165.532 125.211 165.62 125.072 165.709L119.98 169.186L125.072 172.663C125.211 172.764 125.319 172.859 125.395 172.948C125.471 173.037 125.509 173.157 125.509 173.309V174.145C125.509 174.259 125.471 174.354 125.395 174.43C125.319 174.493 125.23 174.525 125.129 174.525ZM170.318 174.506C170.216 174.506 170.128 174.474 170.052 174.411C169.976 174.348 169.938 174.253 169.938 174.126V173.29C169.938 173.138 169.969 173.018 170.033 172.929C170.109 172.84 170.223 172.752 170.375 172.663L175.448 169.186L170.375 165.709C170.223 165.608 170.109 165.513 170.033 165.424C169.969 165.335 169.938 165.215 169.938 165.063V164.227C169.938 164.1 169.976 164.005 170.052 163.942C170.128 163.879 170.216 163.847 170.318 163.847C170.394 163.847 170.476 163.872 170.565 163.923C170.653 163.961 170.723 163.999 170.774 164.037L176.74 168.141C176.942 168.28 177.082 168.413 177.158 168.54C177.246 168.667 177.291 168.825 177.291 169.015V169.338C177.291 169.515 177.246 169.674 177.158 169.813C177.082 169.94 176.942 170.073 176.74 170.212L170.774 174.316C170.723 174.354 170.653 174.398 170.565 174.449C170.476 174.487 170.394 174.506 170.318 174.506ZM25.676 205.525C25.6 205.525 25.5177 205.5 25.429 205.449C25.353 205.398 25.2833 205.36 25.22 205.335L19.235 201.212C19.045 201.085 18.9057 200.959 18.817 200.832C18.7283 200.693 18.684 200.534 18.684 200.357V200.015C18.684 199.838 18.7283 199.686 18.817 199.559C18.9057 199.432 19.045 199.299 19.235 199.16L25.22 195.056C25.2833 195.018 25.353 194.974 25.429 194.923C25.5177 194.872 25.6 194.847 25.676 194.847C25.7773 194.847 25.866 194.885 25.942 194.961C26.018 195.024 26.056 195.119 26.056 195.246V196.082C26.056 196.221 26.018 196.342 25.942 196.443C25.866 196.532 25.7583 196.62 25.619 196.709L20.527 200.186L25.619 203.663C25.7583 203.764 25.866 203.859 25.942 203.948C26.018 204.037 26.056 204.157 26.056 204.309V205.145C26.056 205.259 26.018 205.354 25.942 205.43C25.866 205.493 25.7773 205.525 25.676 205.525ZM65.5949 205.506C65.4935 205.506 65.4049 205.474 65.3289 205.411C65.2529 205.348 65.2149 205.253 65.2149 205.126V204.29C65.2149 204.138 65.2465 204.018 65.3099 203.929C65.3859 203.84 65.4999 203.752 65.6519 203.663L70.7249 200.186L65.6519 196.709C65.4999 196.608 65.3859 196.513 65.3099 196.424C65.2465 196.335 65.2149 196.215 65.2149 196.063V195.227C65.2149 195.1 65.2529 195.005 65.3289 194.942C65.4049 194.879 65.4935 194.847 65.5949 194.847C65.6709 194.847 65.7532 194.872 65.8419 194.923C65.9305 194.961 66.0002 194.999 66.0509 195.037L72.0169 199.141C72.2195 199.28 72.3589 199.413 72.4349 199.54C72.5235 199.667 72.5679 199.825 72.5679 200.015V200.338C72.5679 200.515 72.5235 200.674 72.4349 200.813C72.3589 200.94 72.2195 201.073 72.0169 201.212L66.0509 205.316C66.0002 205.354 65.9305 205.398 65.8419 205.449C65.7532 205.487 65.6709 205.506 65.5949 205.506ZM253.695 205.525C253.619 205.525 253.536 205.5 253.448 205.449C253.372 205.398 253.302 205.36 253.239 205.335L247.254 201.212C247.064 201.085 246.924 200.959 246.836 200.832C246.747 200.693 246.703 200.534 246.703 200.357V200.015C246.703 199.838 246.747 199.686 246.836 199.559C246.924 199.432 247.064 199.299 247.254 199.16L253.239 195.056C253.302 195.018 253.372 194.974 253.448 194.923C253.536 194.872 253.619 194.847 253.695 194.847C253.796 194.847 253.885 194.885 253.961 194.961C254.037 195.024 254.075 195.119 254.075 195.246V196.082C254.075 196.221 254.037 196.342 253.961 196.443C253.885 196.532 253.777 196.62 253.638 196.709L248.546 200.186L253.638 203.663C253.777 203.764 253.885 203.859 253.961 203.948C254.037 204.037 254.075 204.157 254.075 204.309V205.145C254.075 205.259 254.037 205.354 253.961 205.43C253.885 205.493 253.796 205.525 253.695 205.525ZM302.761 205.506C302.66 205.506 302.571 205.474 302.495 205.411C302.419 205.348 302.381 205.253 302.381 205.126V204.29C302.381 204.138 302.413 204.018 302.476 203.929C302.552 203.84 302.666 203.752 302.818 203.663L307.891 200.186L302.818 196.709C302.666 196.608 302.552 196.513 302.476 196.424C302.413 196.335 302.381 196.215 302.381 196.063V195.227C302.381 195.1 302.419 195.005 302.495 194.942C302.571 194.879 302.66 194.847 302.761 194.847C302.837 194.847 302.919 194.872 303.008 194.923C303.097 194.961 303.166 194.999 303.217 195.037L309.183 199.141C309.386 199.28 309.525 199.413 309.601 199.54C309.69 199.667 309.734 199.825 309.734 200.015V200.338C309.734 200.515 309.69 200.674 309.601 200.813C309.525 200.94 309.386 201.073 309.183 201.212L303.217 205.316C303.166 205.354 303.097 205.398 303.008 205.449C302.919 205.487 302.837 205.506 302.761 205.506ZM30.3332 236.525C30.2572 236.525 30.1749 236.5 30.0862 236.449C30.0102 236.398 29.9406 236.36 29.8772 236.335L23.8922 232.212C23.7022 232.085 23.5629 231.959 23.4742 231.832C23.3856 231.693 23.3412 231.534 23.3412 231.357V231.015C23.3412 230.838 23.3856 230.686 23.4742 230.559C23.5629 230.432 23.7022 230.299 23.8922 230.16L29.8772 226.056C29.9406 226.018 30.0102 225.974 30.0862 225.923C30.1749 225.872 30.2572 225.847 30.3332 225.847C30.4346 225.847 30.5232 225.885 30.5992 225.961C30.6752 226.024 30.7132 226.119 30.7132 226.246V227.082C30.7132 227.221 30.6752 227.342 30.5992 227.443C30.5232 227.532 30.4156 227.62 30.2762 227.709L25.1842 231.186L30.2762 234.663C30.4156 234.764 30.5232 234.859 30.5992 234.948C30.6752 235.037 30.7132 235.157 30.7132 235.309V236.145C30.7132 236.259 30.6752 236.354 30.5992 236.43C30.5232 236.493 30.4346 236.525 30.3332 236.525ZM72.7199 236.506C72.6185 236.506 72.5299 236.474 72.4539 236.411C72.3779 236.348 72.3399 236.253 72.3399 236.126V235.29C72.3399 235.138 72.3715 235.018 72.4349 234.929C72.5109 234.84 72.6249 234.752 72.7769 234.663L77.8499 231.186L72.7769 227.709C72.6249 227.608 72.5109 227.513 72.4349 227.424C72.3715 227.335 72.3399 227.215 72.3399 227.063V226.227C72.3399 226.1 72.3779 226.005 72.4539 225.942C72.5299 225.879 72.6185 225.847 72.7199 225.847C72.7959 225.847 72.8782 225.872 72.9669 225.923C73.0555 225.961 73.1252 225.999 73.1759 226.037L79.1419 230.141C79.3445 230.28 79.4839 230.413 79.5599 230.54C79.6485 230.667 79.6929 230.825 79.6929 231.015V231.338C79.6929 231.515 79.6485 231.674 79.5599 231.813C79.4839 231.94 79.3445 232.073 79.1419 232.212L73.1759 236.316C73.1252 236.354 73.0555 236.398 72.9669 236.449C72.8782 236.487 72.7959 236.506 72.7199 236.506Z" fill="#647DFF"/>
<path d="M37.0248 82.19C36.3281 82.19 35.7265 82.0697 35.2198 81.829C34.7131 81.5757 34.2951 81.24 33.9658 80.822C33.6491 80.3913 33.4085 79.9037 33.2438 79.359C33.0918 78.8143 33.0031 78.238 32.9778 77.63C32.9651 77.4273 32.9588 77.2373 32.9588 77.06C32.9588 76.8827 32.9651 76.6927 32.9778 76.49C33.0031 75.8947 33.0918 75.3247 33.2438 74.78C33.4085 74.2353 33.6491 73.7477 33.9658 73.317C34.2951 72.8863 34.7131 72.5507 35.2198 72.31C35.7265 72.0567 36.3281 71.93 37.0248 71.93C37.7721 71.93 38.3928 72.063 38.8868 72.329C39.3808 72.595 39.7861 72.9243 40.1028 73.317V68.947C40.1028 68.8203 40.1408 68.719 40.2168 68.643C40.3055 68.5543 40.4131 68.51 40.5398 68.51H41.4518C41.5785 68.51 41.6798 68.5543 41.7558 68.643C41.8445 68.719 41.8888 68.8203 41.8888 68.947V81.563C41.8888 81.6897 41.8445 81.7973 41.7558 81.886C41.6798 81.962 41.5785 82 41.4518 82H40.5968C40.4575 82 40.3498 81.962 40.2738 81.886C40.1978 81.7973 40.1598 81.6897 40.1598 81.563V80.765C39.8431 81.1703 39.4315 81.5123 38.9248 81.791C38.4181 82.057 37.7848 82.19 37.0248 82.19ZM37.4238 80.651C38.0571 80.651 38.5638 80.5053 38.9438 80.214C39.3238 79.9227 39.6088 79.5553 39.7988 79.112C39.9888 78.656 40.0901 78.1937 40.1028 77.725C40.1155 77.5223 40.1218 77.2817 40.1218 77.003C40.1218 76.7117 40.1155 76.4647 40.1028 76.262C40.0901 75.8187 39.9825 75.3817 39.7798 74.951C39.5898 74.5203 39.2985 74.1657 38.9058 73.887C38.5258 73.6083 38.0318 73.469 37.4238 73.469C36.7778 73.469 36.2648 73.6147 35.8848 73.906C35.5048 74.1847 35.2325 74.5583 35.0678 75.027C34.9031 75.483 34.8081 75.977 34.7828 76.509C34.7701 76.8763 34.7701 77.2437 34.7828 77.611C34.8081 78.143 34.9031 78.6433 35.0678 79.112C35.2325 79.568 35.5048 79.9417 35.8848 80.233C36.2648 80.5117 36.7778 80.651 37.4238 80.651ZM45.1706 82C45.0439 82 44.9363 81.962 44.8476 81.886C44.7716 81.7973 44.7336 81.6897 44.7336 81.563V68.947C44.7336 68.8203 44.7716 68.719 44.8476 68.643C44.9363 68.5543 45.0439 68.51 45.1706 68.51H46.0636C46.2029 68.51 46.3106 68.5543 46.3866 68.643C46.4626 68.719 46.5006 68.8203 46.5006 68.947V81.563C46.5006 81.6897 46.4626 81.7973 46.3866 81.886C46.3106 81.962 46.2029 82 46.0636 82H45.1706ZM41.682 113.19C40.9853 113.19 40.3837 113.07 39.877 112.829C39.3703 112.576 38.9523 112.24 38.623 111.822C38.3063 111.391 38.0657 110.904 37.901 110.359C37.749 109.814 37.6603 109.238 37.635 108.63C37.6223 108.427 37.616 108.237 37.616 108.06C37.616 107.883 37.6223 107.693 37.635 107.49C37.6603 106.895 37.749 106.325 37.901 105.78C38.0657 105.235 38.3063 104.748 38.623 104.317C38.9523 103.886 39.3703 103.551 39.877 103.31C40.3837 103.057 40.9853 102.93 41.682 102.93C42.4293 102.93 43.05 103.063 43.544 103.329C44.038 103.595 44.4433 103.924 44.76 104.317V99.947C44.76 99.8203 44.798 99.719 44.874 99.643C44.9627 99.5543 45.0703 99.51 45.197 99.51H46.109C46.2357 99.51 46.337 99.5543 46.413 99.643C46.5017 99.719 46.546 99.8203 46.546 99.947V112.563C46.546 112.69 46.5017 112.797 46.413 112.886C46.337 112.962 46.2357 113 46.109 113H45.254C45.1147 113 45.007 112.962 44.931 112.886C44.855 112.797 44.817 112.69 44.817 112.563V111.765C44.5003 112.17 44.0887 112.512 43.582 112.791C43.0753 113.057 42.442 113.19 41.682 113.19ZM42.081 111.651C42.7143 111.651 43.221 111.505 43.601 111.214C43.981 110.923 44.266 110.555 44.456 110.112C44.646 109.656 44.7473 109.194 44.76 108.725C44.7727 108.522 44.779 108.282 44.779 108.003C44.779 107.712 44.7727 107.465 44.76 107.262C44.7473 106.819 44.6397 106.382 44.437 105.951C44.247 105.52 43.9557 105.166 43.563 104.887C43.183 104.608 42.689 104.469 42.081 104.469C41.435 104.469 40.922 104.615 40.542 104.906C40.162 105.185 39.8897 105.558 39.725 106.027C39.5603 106.483 39.4653 106.977 39.44 107.509C39.4273 107.876 39.4273 108.244 39.44 108.611C39.4653 109.143 39.5603 109.643 39.725 110.112C39.8897 110.568 40.162 110.942 40.542 111.233C40.922 111.512 41.435 111.651 42.081 111.651ZM53.2288 113C52.5195 113 51.9432 112.867 51.4998 112.601C51.0565 112.322 50.7335 111.936 50.5308 111.442C50.3282 110.935 50.2268 110.34 50.2268 109.656V104.64H48.7448C48.6182 104.64 48.5105 104.602 48.4218 104.526C48.3458 104.437 48.3078 104.33 48.3078 104.203V103.557C48.3078 103.43 48.3458 103.329 48.4218 103.253C48.5105 103.164 48.6182 103.12 48.7448 103.12H50.2268V99.947C50.2268 99.8203 50.2648 99.719 50.3408 99.643C50.4295 99.5543 50.5372 99.51 50.6638 99.51H51.5568C51.6835 99.51 51.7848 99.5543 51.8608 99.643C51.9495 99.719 51.9938 99.8203 51.9938 99.947V103.12H54.3498C54.4765 103.12 54.5778 103.164 54.6538 103.253C54.7425 103.329 54.7868 103.43 54.7868 103.557V104.203C54.7868 104.33 54.7425 104.437 54.6538 104.526C54.5778 104.602 54.4765 104.64 54.3498 104.64H51.9938V109.523C51.9938 110.118 52.0952 110.587 52.2978 110.929C52.5005 111.271 52.8615 111.442 53.3808 111.442H54.5398C54.6665 111.442 54.7678 111.486 54.8438 111.575C54.9325 111.651 54.9768 111.752 54.9768 111.879V112.563C54.9768 112.69 54.9325 112.797 54.8438 112.886C54.7678 112.962 54.6665 113 54.5398 113H53.2288ZM155.9 114.596C155.799 114.596 155.71 114.558 155.634 114.482C155.558 114.406 155.52 114.317 155.52 114.216C155.52 114.153 155.539 114.077 155.577 113.988L162.075 98.408C162.113 98.332 162.164 98.256 162.227 98.18C162.303 98.104 162.417 98.066 162.569 98.066H163.31C163.412 98.066 163.5 98.104 163.576 98.18C163.652 98.256 163.69 98.3447 163.69 98.446C163.69 98.4967 163.678 98.5727 163.652 98.674L157.135 114.254C157.11 114.317 157.053 114.387 156.964 114.463C156.888 114.552 156.781 114.596 156.641 114.596H155.9ZM173.847 113.19C173.15 113.19 172.549 113.07 172.042 112.829C171.535 112.576 171.117 112.24 170.788 111.822C170.471 111.391 170.231 110.904 170.066 110.359C169.914 109.814 169.825 109.238 169.8 108.63C169.787 108.427 169.781 108.237 169.781 108.06C169.781 107.883 169.787 107.693 169.8 107.49C169.825 106.895 169.914 106.325 170.066 105.78C170.231 105.235 170.471 104.748 170.788 104.317C171.117 103.886 171.535 103.551 172.042 103.31C172.549 103.057 173.15 102.93 173.847 102.93C174.594 102.93 175.215 103.063 175.709 103.329C176.203 103.595 176.608 103.924 176.925 104.317V99.947C176.925 99.8203 176.963 99.719 177.039 99.643C177.128 99.5543 177.235 99.51 177.362 99.51H178.274C178.401 99.51 178.502 99.5543 178.578 99.643C178.667 99.719 178.711 99.8203 178.711 99.947V112.563C178.711 112.69 178.667 112.797 178.578 112.886C178.502 112.962 178.401 113 178.274 113H177.419C177.28 113 177.172 112.962 177.096 112.886C177.02 112.797 176.982 112.69 176.982 112.563V111.765C176.665 112.17 176.254 112.512 175.747 112.791C175.24 113.057 174.607 113.19 173.847 113.19ZM174.246 111.651C174.879 111.651 175.386 111.505 175.766 111.214C176.146 110.923 176.431 110.555 176.621 110.112C176.811 109.656 176.912 109.194 176.925 108.725C176.938 108.522 176.944 108.282 176.944 108.003C176.944 107.712 176.938 107.465 176.925 107.262C176.912 106.819 176.805 106.382 176.602 105.951C176.412 105.52 176.121 105.166 175.728 104.887C175.348 104.608 174.854 104.469 174.246 104.469C173.6 104.469 173.087 104.615 172.707 104.906C172.327 105.185 172.055 105.558 171.89 106.027C171.725 106.483 171.63 106.977 171.605 107.509C171.592 107.876 171.592 108.244 171.605 108.611C171.63 109.143 171.725 109.643 171.89 110.112C172.055 110.568 172.327 110.942 172.707 111.233C173.087 111.512 173.6 111.651 174.246 111.651ZM185.394 113C184.685 113 184.108 112.867 183.665 112.601C183.222 112.322 182.899 111.936 182.696 111.442C182.493 110.935 182.392 110.34 182.392 109.656V104.64H180.91C180.783 104.64 180.676 104.602 180.587 104.526C180.511 104.437 180.473 104.33 180.473 104.203V103.557C180.473 103.43 180.511 103.329 180.587 103.253C180.676 103.164 180.783 103.12 180.91 103.12H182.392V99.947C182.392 99.8203 182.43 99.719 182.506 99.643C182.595 99.5543 182.702 99.51 182.829 99.51H183.722C183.849 99.51 183.95 99.5543 184.026 99.643C184.115 99.719 184.159 99.8203 184.159 99.947V103.12H186.515C186.642 103.12 186.743 103.164 186.819 103.253C186.908 103.329 186.952 103.43 186.952 103.557V104.203C186.952 104.33 186.908 104.437 186.819 104.526C186.743 104.602 186.642 104.64 186.515 104.64H184.159V109.523C184.159 110.118 184.26 110.587 184.463 110.929C184.666 111.271 185.027 111.442 185.546 111.442H186.705C186.832 111.442 186.933 111.486 187.009 111.575C187.098 111.651 187.142 111.752 187.142 111.879V112.563C187.142 112.69 187.098 112.797 187.009 112.886C186.933 112.962 186.832 113 186.705 113H185.394ZM41.682 144.19C40.9853 144.19 40.3837 144.07 39.877 143.829C39.3703 143.576 38.9523 143.24 38.623 142.822C38.3063 142.391 38.0657 141.904 37.901 141.359C37.749 140.814 37.6603 140.238 37.635 139.63C37.6223 139.427 37.616 139.237 37.616 139.06C37.616 138.883 37.6223 138.693 37.635 138.49C37.6603 137.895 37.749 137.325 37.901 136.78C38.0657 136.235 38.3063 135.748 38.623 135.317C38.9523 134.886 39.3703 134.551 39.877 134.31C40.3837 134.057 40.9853 133.93 41.682 133.93C42.4293 133.93 43.05 134.063 43.544 134.329C44.038 134.595 44.4433 134.924 44.76 135.317V130.947C44.76 130.82 44.798 130.719 44.874 130.643C44.9627 130.554 45.0703 130.51 45.197 130.51H46.109C46.2357 130.51 46.337 130.554 46.413 130.643C46.5017 130.719 46.546 130.82 46.546 130.947V143.563C46.546 143.69 46.5017 143.797 46.413 143.886C46.337 143.962 46.2357 144 46.109 144H45.254C45.1147 144 45.007 143.962 44.931 143.886C44.855 143.797 44.817 143.69 44.817 143.563V142.765C44.5003 143.17 44.0887 143.512 43.582 143.791C43.0753 144.057 42.442 144.19 41.682 144.19ZM42.081 142.651C42.7143 142.651 43.221 142.505 43.601 142.214C43.981 141.923 44.266 141.555 44.456 141.112C44.646 140.656 44.7473 140.194 44.76 139.725C44.7727 139.522 44.779 139.282 44.779 139.003C44.779 138.712 44.7727 138.465 44.76 138.262C44.7473 137.819 44.6397 137.382 44.437 136.951C44.247 136.52 43.9557 136.166 43.563 135.887C43.183 135.608 42.689 135.469 42.081 135.469C41.435 135.469 40.922 135.615 40.542 135.906C40.162 136.185 39.8897 136.558 39.725 137.027C39.5603 137.483 39.4653 137.977 39.44 138.509C39.4273 138.876 39.4273 139.244 39.44 139.611C39.4653 140.143 39.5603 140.643 39.725 141.112C39.8897 141.568 40.162 141.942 40.542 142.233C40.922 142.512 41.435 142.651 42.081 142.651ZM52.9818 144.19C52.2852 144.19 51.6835 144.07 51.1768 143.829C50.6702 143.576 50.2522 143.24 49.9228 142.822C49.6062 142.391 49.3655 141.904 49.2008 141.359C49.0488 140.814 48.9602 140.238 48.9348 139.63C48.9222 139.427 48.9158 139.237 48.9158 139.06C48.9158 138.883 48.9222 138.693 48.9348 138.49C48.9602 137.895 49.0488 137.325 49.2008 136.78C49.3655 136.235 49.6062 135.748 49.9228 135.317C50.2522 134.886 50.6702 134.551 51.1768 134.31C51.6835 134.057 52.2852 133.93 52.9818 133.93C53.7292 133.93 54.3498 134.063 54.8438 134.329C55.3378 134.595 55.7432 134.924 56.0598 135.317V130.947C56.0598 130.82 56.0978 130.719 56.1738 130.643C56.2625 130.554 56.3702 130.51 56.4968 130.51H57.4088C57.5355 130.51 57.6368 130.554 57.7128 130.643C57.8015 130.719 57.8458 130.82 57.8458 130.947V143.563C57.8458 143.69 57.8015 143.797 57.7128 143.886C57.6368 143.962 57.5355 144 57.4088 144H56.5538C56.4145 144 56.3068 143.962 56.2308 143.886C56.1548 143.797 56.1168 143.69 56.1168 143.563V142.765C55.8002 143.17 55.3885 143.512 54.8818 143.791C54.3752 144.057 53.7418 144.19 52.9818 144.19ZM53.3808 142.651C54.0142 142.651 54.5208 142.505 54.9008 142.214C55.2808 141.923 55.5658 141.555 55.7558 141.112C55.9458 140.656 56.0472 140.194 56.0598 139.725C56.0725 139.522 56.0788 139.282 56.0788 139.003C56.0788 138.712 56.0725 138.465 56.0598 138.262C56.0472 137.819 55.9395 137.382 55.7368 136.951C55.5468 136.52 55.2555 136.166 54.8628 135.887C54.4828 135.608 53.9888 135.469 53.3808 135.469C52.7348 135.469 52.2218 135.615 51.8418 135.906C51.4618 136.185 51.1895 136.558 51.0248 137.027C50.8602 137.483 50.7652 137.977 50.7398 138.509C50.7272 138.876 50.7272 139.244 50.7398 139.611C50.7652 140.143 50.8602 140.643 51.0248 141.112C51.1895 141.568 51.4618 141.942 51.8418 142.233C52.2218 142.512 52.7348 142.651 53.3808 142.651ZM246.225 145.596C246.123 145.596 246.035 145.558 245.959 145.482C245.883 145.406 245.845 145.317 245.845 145.216C245.845 145.153 245.864 145.077 245.902 144.988L252.4 129.408C252.438 129.332 252.488 129.256 252.552 129.18C252.628 129.104 252.742 129.066 252.894 129.066H253.635C253.736 129.066 253.825 129.104 253.901 129.18C253.977 129.256 254.015 129.345 254.015 129.446C254.015 129.497 254.002 129.573 253.977 129.674L247.46 145.254C247.434 145.317 247.377 145.387 247.289 145.463C247.213 145.552 247.105 145.596 246.966 145.596H246.225ZM264.171 144.19C263.475 144.19 262.873 144.07 262.366 143.829C261.86 143.576 261.442 143.24 261.112 142.822C260.796 142.391 260.555 141.904 260.39 141.359C260.238 140.814 260.15 140.238 260.124 139.63C260.112 139.427 260.105 139.237 260.105 139.06C260.105 138.883 260.112 138.693 260.124 138.49C260.15 137.895 260.238 137.325 260.39 136.78C260.555 136.235 260.796 135.748 261.112 135.317C261.442 134.886 261.86 134.551 262.366 134.31C262.873 134.057 263.475 133.93 264.171 133.93C264.919 133.93 265.539 134.063 266.033 134.329C266.527 134.595 266.933 134.924 267.249 135.317V130.947C267.249 130.82 267.287 130.719 267.363 130.643C267.452 130.554 267.56 130.51 267.686 130.51H268.598C268.725 130.51 268.826 130.554 268.902 130.643C268.991 130.719 269.035 130.82 269.035 130.947V143.563C269.035 143.69 268.991 143.797 268.902 143.886C268.826 143.962 268.725 144 268.598 144H267.743C267.604 144 267.496 143.962 267.42 143.886C267.344 143.797 267.306 143.69 267.306 143.563V142.765C266.99 143.17 266.578 143.512 266.071 143.791C265.565 144.057 264.931 144.19 264.171 144.19ZM264.57 142.651C265.204 142.651 265.71 142.505 266.09 142.214C266.47 141.923 266.755 141.555 266.945 141.112C267.135 140.656 267.237 140.194 267.249 139.725C267.262 139.522 267.268 139.282 267.268 139.003C267.268 138.712 267.262 138.465 267.249 138.262C267.237 137.819 267.129 137.382 266.926 136.951C266.736 136.52 266.445 136.166 266.052 135.887C265.672 135.608 265.178 135.469 264.57 135.469C263.924 135.469 263.411 135.615 263.031 135.906C262.651 136.185 262.379 136.558 262.214 137.027C262.05 137.483 261.955 137.977 261.929 138.509C261.917 138.876 261.917 139.244 261.929 139.611C261.955 140.143 262.05 140.643 262.214 141.112C262.379 141.568 262.651 141.942 263.031 142.233C263.411 142.512 263.924 142.651 264.57 142.651ZM275.471 144.19C274.774 144.19 274.173 144.07 273.666 143.829C273.159 143.576 272.741 143.24 272.412 142.822C272.095 142.391 271.855 141.904 271.69 141.359C271.538 140.814 271.449 140.238 271.424 139.63C271.411 139.427 271.405 139.237 271.405 139.06C271.405 138.883 271.411 138.693 271.424 138.49C271.449 137.895 271.538 137.325 271.69 136.78C271.855 136.235 272.095 135.748 272.412 135.317C272.741 134.886 273.159 134.551 273.666 134.31C274.173 134.057 274.774 133.93 275.471 133.93C276.218 133.93 276.839 134.063 277.333 134.329C277.827 134.595 278.232 134.924 278.549 135.317V130.947C278.549 130.82 278.587 130.719 278.663 130.643C278.752 130.554 278.859 130.51 278.986 130.51H279.898C280.025 130.51 280.126 130.554 280.202 130.643C280.291 130.719 280.335 130.82 280.335 130.947V143.563C280.335 143.69 280.291 143.797 280.202 143.886C280.126 143.962 280.025 144 279.898 144H279.043C278.904 144 278.796 143.962 278.72 143.886C278.644 143.797 278.606 143.69 278.606 143.563V142.765C278.289 143.17 277.878 143.512 277.371 143.791C276.864 144.057 276.231 144.19 275.471 144.19ZM275.87 142.651C276.503 142.651 277.01 142.505 277.39 142.214C277.77 141.923 278.055 141.555 278.245 141.112C278.435 140.656 278.536 140.194 278.549 139.725C278.562 139.522 278.568 139.282 278.568 139.003C278.568 138.712 278.562 138.465 278.549 138.262C278.536 137.819 278.429 137.382 278.226 136.951C278.036 136.52 277.745 136.166 277.352 135.887C276.972 135.608 276.478 135.469 275.87 135.469C275.224 135.469 274.711 135.615 274.331 135.906C273.951 136.185 273.679 136.558 273.514 137.027C273.349 137.483 273.254 137.977 273.229 138.509C273.216 138.876 273.216 139.244 273.229 139.611C273.254 140.143 273.349 140.643 273.514 141.112C273.679 141.568 273.951 141.942 274.331 142.233C274.711 142.512 275.224 142.651 275.87 142.651ZM41.682 175.19C40.9853 175.19 40.3837 175.07 39.877 174.829C39.3703 174.576 38.9523 174.24 38.623 173.822C38.3063 173.391 38.0657 172.904 37.901 172.359C37.749 171.814 37.6603 171.238 37.635 170.63C37.6223 170.427 37.616 170.237 37.616 170.06C37.616 169.883 37.6223 169.693 37.635 169.49C37.6603 168.895 37.749 168.325 37.901 167.78C38.0657 167.235 38.3063 166.748 38.623 166.317C38.9523 165.886 39.3703 165.551 39.877 165.31C40.3837 165.057 40.9853 164.93 41.682 164.93C42.4293 164.93 43.05 165.063 43.544 165.329C44.038 165.595 44.4433 165.924 44.76 166.317V161.947C44.76 161.82 44.798 161.719 44.874 161.643C44.9627 161.554 45.0703 161.51 45.197 161.51H46.109C46.2357 161.51 46.337 161.554 46.413 161.643C46.5017 161.719 46.546 161.82 46.546 161.947V174.563C46.546 174.69 46.5017 174.797 46.413 174.886C46.337 174.962 46.2357 175 46.109 175H45.254C45.1147 175 45.007 174.962 44.931 174.886C44.855 174.797 44.817 174.69 44.817 174.563V173.765C44.5003 174.17 44.0887 174.512 43.582 174.791C43.0753 175.057 42.442 175.19 41.682 175.19ZM42.081 173.651C42.7143 173.651 43.221 173.505 43.601 173.214C43.981 172.923 44.266 172.555 44.456 172.112C44.646 171.656 44.7473 171.194 44.76 170.725C44.7727 170.522 44.779 170.282 44.779 170.003C44.779 169.712 44.7727 169.465 44.76 169.262C44.7473 168.819 44.6397 168.382 44.437 167.951C44.247 167.52 43.9557 167.166 43.563 166.887C43.183 166.608 42.689 166.469 42.081 166.469C41.435 166.469 40.922 166.615 40.542 166.906C40.162 167.185 39.8897 167.558 39.725 168.027C39.5603 168.483 39.4653 168.977 39.44 169.509C39.4273 169.876 39.4273 170.244 39.44 170.611C39.4653 171.143 39.5603 171.643 39.725 172.112C39.8897 172.568 40.162 172.942 40.542 173.233C40.922 173.512 41.435 173.651 42.081 173.651ZM53.2288 175C52.5195 175 51.9432 174.867 51.4998 174.601C51.0565 174.322 50.7335 173.936 50.5308 173.442C50.3282 172.935 50.2268 172.34 50.2268 171.656V166.64H48.7448C48.6182 166.64 48.5105 166.602 48.4218 166.526C48.3458 166.437 48.3078 166.33 48.3078 166.203V165.557C48.3078 165.43 48.3458 165.329 48.4218 165.253C48.5105 165.164 48.6182 165.12 48.7448 165.12H50.2268V161.947C50.2268 161.82 50.2648 161.719 50.3408 161.643C50.4295 161.554 50.5372 161.51 50.6638 161.51H51.5568C51.6835 161.51 51.7848 161.554 51.8608 161.643C51.9495 161.719 51.9938 161.82 51.9938 161.947V165.12H54.3498C54.4765 165.12 54.5778 165.164 54.6538 165.253C54.7425 165.329 54.7868 165.43 54.7868 165.557V166.203C54.7868 166.33 54.7425 166.437 54.6538 166.526C54.5778 166.602 54.4765 166.64 54.3498 166.64H51.9938V171.523C51.9938 172.118 52.0952 172.587 52.2978 172.929C52.5005 173.271 52.8615 173.442 53.3808 173.442H54.5398C54.6665 173.442 54.7678 173.486 54.8438 173.575C54.9325 173.651 54.9768 173.752 54.9768 173.879V174.563C54.9768 174.69 54.9325 174.797 54.8438 174.886C54.7678 174.962 54.6665 175 54.5398 175H53.2288ZM132.336 176.596C132.235 176.596 132.146 176.558 132.07 176.482C131.994 176.406 131.956 176.317 131.956 176.216C131.956 176.153 131.975 176.077 132.013 175.988L138.511 160.408C138.549 160.332 138.6 160.256 138.663 160.18C138.739 160.104 138.853 160.066 139.005 160.066H139.746C139.847 160.066 139.936 160.104 140.012 160.18C140.088 160.256 140.126 160.345 140.126 160.446C140.126 160.497 140.113 160.573 140.088 160.674L133.571 176.254C133.546 176.317 133.489 176.387 133.4 176.463C133.324 176.552 133.216 176.596 133.077 176.596H132.336ZM150.283 175.19C149.586 175.19 148.984 175.07 148.478 174.829C147.971 174.576 147.553 174.24 147.224 173.822C146.907 173.391 146.666 172.904 146.502 172.359C146.35 171.814 146.261 171.238 146.236 170.63C146.223 170.427 146.217 170.237 146.217 170.06C146.217 169.883 146.223 169.693 146.236 169.49C146.261 168.895 146.35 168.325 146.502 167.78C146.666 167.235 146.907 166.748 147.224 166.317C147.553 165.886 147.971 165.551 148.478 165.31C148.984 165.057 149.586 164.93 150.283 164.93C151.03 164.93 151.651 165.063 152.145 165.329C152.639 165.595 153.044 165.924 153.361 166.317V161.947C153.361 161.82 153.399 161.719 153.475 161.643C153.563 161.554 153.671 161.51 153.798 161.51H154.71C154.836 161.51 154.938 161.554 155.014 161.643C155.102 161.719 155.147 161.82 155.147 161.947V174.563C155.147 174.69 155.102 174.797 155.014 174.886C154.938 174.962 154.836 175 154.71 175H153.855C153.715 175 153.608 174.962 153.532 174.886C153.456 174.797 153.418 174.69 153.418 174.563V173.765C153.101 174.17 152.689 174.512 152.183 174.791C151.676 175.057 151.043 175.19 150.283 175.19ZM150.682 173.651C151.315 173.651 151.822 173.505 152.202 173.214C152.582 172.923 152.867 172.555 153.057 172.112C153.247 171.656 153.348 171.194 153.361 170.725C153.373 170.522 153.38 170.282 153.38 170.003C153.38 169.712 153.373 169.465 153.361 169.262C153.348 168.819 153.24 168.382 153.038 167.951C152.848 167.52 152.556 167.166 152.164 166.887C151.784 166.608 151.29 166.469 150.682 166.469C150.036 166.469 149.523 166.615 149.143 166.906C148.763 167.185 148.49 167.558 148.326 168.027C148.161 168.483 148.066 168.977 148.041 169.509C148.028 169.876 148.028 170.244 148.041 170.611C148.066 171.143 148.161 171.643 148.326 172.112C148.49 172.568 148.763 172.942 149.143 173.233C149.523 173.512 150.036 173.651 150.682 173.651ZM161.829 175C161.12 175 160.544 174.867 160.1 174.601C159.657 174.322 159.334 173.936 159.131 173.442C158.929 172.935 158.827 172.34 158.827 171.656V166.64H157.345C157.219 166.64 157.111 166.602 157.022 166.526C156.946 166.437 156.908 166.33 156.908 166.203V165.557C156.908 165.43 156.946 165.329 157.022 165.253C157.111 165.164 157.219 165.12 157.345 165.12H158.827V161.947C158.827 161.82 158.865 161.719 158.941 161.643C159.03 161.554 159.138 161.51 159.264 161.51H160.157C160.284 161.51 160.385 161.554 160.461 161.643C160.55 161.719 160.594 161.82 160.594 161.947V165.12H162.95C163.077 165.12 163.178 165.164 163.254 165.253C163.343 165.329 163.387 165.43 163.387 165.557V166.203C163.387 166.33 163.343 166.437 163.254 166.526C163.178 166.602 163.077 166.64 162.95 166.64H160.594V171.523C160.594 172.118 160.696 172.587 160.898 172.929C161.101 173.271 161.462 173.442 161.981 173.442H163.14C163.267 173.442 163.368 173.486 163.444 173.575C163.533 173.651 163.577 173.752 163.577 173.879V174.563C163.577 174.69 163.533 174.797 163.444 174.886C163.368 174.962 163.267 175 163.14 175H161.829ZM41.682 206.19C40.9853 206.19 40.3837 206.07 39.877 205.829C39.3703 205.576 38.9523 205.24 38.623 204.822C38.3063 204.391 38.0657 203.904 37.901 203.359C37.749 202.814 37.6603 202.238 37.635 201.63C37.6223 201.427 37.616 201.237 37.616 201.06C37.616 200.883 37.6223 200.693 37.635 200.49C37.6603 199.895 37.749 199.325 37.901 198.78C38.0657 198.235 38.3063 197.748 38.623 197.317C38.9523 196.886 39.3703 196.551 39.877 196.31C40.3837 196.057 40.9853 195.93 41.682 195.93C42.4293 195.93 43.05 196.063 43.544 196.329C44.038 196.595 44.4433 196.924 44.76 197.317V192.947C44.76 192.82 44.798 192.719 44.874 192.643C44.9627 192.554 45.0703 192.51 45.197 192.51H46.109C46.2357 192.51 46.337 192.554 46.413 192.643C46.5017 192.719 46.546 192.82 46.546 192.947V205.563C46.546 205.69 46.5017 205.797 46.413 205.886C46.337 205.962 46.2357 206 46.109 206H45.254C45.1147 206 45.007 205.962 44.931 205.886C44.855 205.797 44.817 205.69 44.817 205.563V204.765C44.5003 205.17 44.0887 205.512 43.582 205.791C43.0753 206.057 42.442 206.19 41.682 206.19ZM42.081 204.651C42.7143 204.651 43.221 204.505 43.601 204.214C43.981 203.923 44.266 203.555 44.456 203.112C44.646 202.656 44.7473 202.194 44.76 201.725C44.7727 201.522 44.779 201.282 44.779 201.003C44.779 200.712 44.7727 200.465 44.76 200.262C44.7473 199.819 44.6397 199.382 44.437 198.951C44.247 198.52 43.9557 198.166 43.563 197.887C43.183 197.608 42.689 197.469 42.081 197.469C41.435 197.469 40.922 197.615 40.542 197.906C40.162 198.185 39.8897 198.558 39.725 199.027C39.5603 199.483 39.4653 199.977 39.44 200.509C39.4273 200.876 39.4273 201.244 39.44 201.611C39.4653 202.143 39.5603 202.643 39.725 203.112C39.8897 203.568 40.162 203.942 40.542 204.233C40.922 204.512 41.435 204.651 42.081 204.651ZM52.9818 206.19C52.2852 206.19 51.6835 206.07 51.1768 205.829C50.6702 205.576 50.2522 205.24 49.9228 204.822C49.6062 204.391 49.3655 203.904 49.2008 203.359C49.0488 202.814 48.9602 202.238 48.9348 201.63C48.9222 201.427 48.9158 201.237 48.9158 201.06C48.9158 200.883 48.9222 200.693 48.9348 200.49C48.9602 199.895 49.0488 199.325 49.2008 198.78C49.3655 198.235 49.6062 197.748 49.9228 197.317C50.2522 196.886 50.6702 196.551 51.1768 196.31C51.6835 196.057 52.2852 195.93 52.9818 195.93C53.7292 195.93 54.3498 196.063 54.8438 196.329C55.3378 196.595 55.7432 196.924 56.0598 197.317V192.947C56.0598 192.82 56.0978 192.719 56.1738 192.643C56.2625 192.554 56.3702 192.51 56.4968 192.51H57.4088C57.5355 192.51 57.6368 192.554 57.7128 192.643C57.8015 192.719 57.8458 192.82 57.8458 192.947V205.563C57.8458 205.69 57.8015 205.797 57.7128 205.886C57.6368 205.962 57.5355 206 57.4088 206H56.5538C56.4145 206 56.3068 205.962 56.2308 205.886C56.1548 205.797 56.1168 205.69 56.1168 205.563V204.765C55.8002 205.17 55.3885 205.512 54.8818 205.791C54.3752 206.057 53.7418 206.19 52.9818 206.19ZM53.3808 204.651C54.0142 204.651 54.5208 204.505 54.9008 204.214C55.2808 203.923 55.5658 203.555 55.7558 203.112C55.9458 202.656 56.0472 202.194 56.0598 201.725C56.0725 201.522 56.0788 201.282 56.0788 201.003C56.0788 200.712 56.0725 200.465 56.0598 200.262C56.0472 199.819 55.9395 199.382 55.7368 198.951C55.5468 198.52 55.2555 198.166 54.8628 197.887C54.4828 197.608 53.9888 197.469 53.3808 197.469C52.7348 197.469 52.2218 197.615 51.8418 197.906C51.4618 198.185 51.1895 198.558 51.0248 199.027C50.8602 199.483 50.7652 199.977 50.7398 200.509C50.7272 200.876 50.7272 201.244 50.7398 201.611C50.7652 202.143 50.8602 202.643 51.0248 203.112C51.1895 203.568 51.4618 203.942 51.8418 204.233C52.2218 204.512 52.7348 204.651 53.3808 204.651ZM260.901 207.596C260.8 207.596 260.711 207.558 260.635 207.482C260.559 207.406 260.521 207.317 260.521 207.216C260.521 207.153 260.54 207.077 260.578 206.988L267.076 191.408C267.114 191.332 267.165 191.256 267.228 191.18C267.304 191.104 267.418 191.066 267.57 191.066H268.311C268.413 191.066 268.501 191.104 268.577 191.18C268.653 191.256 268.691 191.345 268.691 191.446C268.691 191.497 268.679 191.573 268.653 191.674L262.136 207.254C262.111 207.317 262.054 207.387 261.965 207.463C261.889 207.552 261.782 207.596 261.642 207.596H260.901ZM278.848 206.19C278.151 206.19 277.55 206.07 277.043 205.829C276.536 205.576 276.118 205.24 275.789 204.822C275.472 204.391 275.232 203.904 275.067 203.359C274.915 202.814 274.826 202.238 274.801 201.63C274.788 201.427 274.782 201.237 274.782 201.06C274.782 200.883 274.788 200.693 274.801 200.49C274.826 199.895 274.915 199.325 275.067 198.78C275.232 198.235 275.472 197.748 275.789 197.317C276.118 196.886 276.536 196.551 277.043 196.31C277.55 196.057 278.151 195.93 278.848 195.93C279.595 195.93 280.216 196.063 280.71 196.329C281.204 196.595 281.609 196.924 281.926 197.317V192.947C281.926 192.82 281.964 192.719 282.04 192.643C282.129 192.554 282.236 192.51 282.363 192.51H283.275C283.402 192.51 283.503 192.554 283.579 192.643C283.668 192.719 283.712 192.82 283.712 192.947V205.563C283.712 205.69 283.668 205.797 283.579 205.886C283.503 205.962 283.402 206 283.275 206H282.42C282.281 206 282.173 205.962 282.097 205.886C282.021 205.797 281.983 205.69 281.983 205.563V204.765C281.666 205.17 281.255 205.512 280.748 205.791C280.241 206.057 279.608 206.19 278.848 206.19ZM279.247 204.651C279.88 204.651 280.387 204.505 280.767 204.214C281.147 203.923 281.432 203.555 281.622 203.112C281.812 202.656 281.913 202.194 281.926 201.725C281.939 201.522 281.945 201.282 281.945 201.003C281.945 200.712 281.939 200.465 281.926 200.262C281.913 199.819 281.806 199.382 281.603 198.951C281.413 198.52 281.122 198.166 280.729 197.887C280.349 197.608 279.855 197.469 279.247 197.469C278.601 197.469 278.088 197.615 277.708 197.906C277.328 198.185 277.056 198.558 276.891 199.027C276.726 199.483 276.631 199.977 276.606 200.509C276.593 200.876 276.593 201.244 276.606 201.611C276.631 202.143 276.726 202.643 276.891 203.112C277.056 203.568 277.328 203.942 277.708 204.233C278.088 204.512 278.601 204.651 279.247 204.651ZM290.148 206.19C289.451 206.19 288.85 206.07 288.343 205.829C287.836 205.576 287.418 205.24 287.089 204.822C286.772 204.391 286.532 203.904 286.367 203.359C286.215 202.814 286.126 202.238 286.101 201.63C286.088 201.427 286.082 201.237 286.082 201.06C286.082 200.883 286.088 200.693 286.101 200.49C286.126 199.895 286.215 199.325 286.367 198.78C286.532 198.235 286.772 197.748 287.089 197.317C287.418 196.886 287.836 196.551 288.343 196.31C288.85 196.057 289.451 195.93 290.148 195.93C290.895 195.93 291.516 196.063 292.01 196.329C292.504 196.595 292.909 196.924 293.226 197.317V192.947C293.226 192.82 293.264 192.719 293.34 192.643C293.429 192.554 293.536 192.51 293.663 192.51H294.575C294.702 192.51 294.803 192.554 294.879 192.643C294.968 192.719 295.012 192.82 295.012 192.947V205.563C295.012 205.69 294.968 205.797 294.879 205.886C294.803 205.962 294.702 206 294.575 206H293.72C293.581 206 293.473 205.962 293.397 205.886C293.321 205.797 293.283 205.69 293.283 205.563V204.765C292.966 205.17 292.555 205.512 292.048 205.791C291.541 206.057 290.908 206.19 290.148 206.19ZM290.547 204.651C291.18 204.651 291.687 204.505 292.067 204.214C292.447 203.923 292.732 203.555 292.922 203.112C293.112 202.656 293.213 202.194 293.226 201.725C293.239 201.522 293.245 201.282 293.245 201.003C293.245 200.712 293.239 200.465 293.226 200.262C293.213 199.819 293.106 199.382 292.903 198.951C292.713 198.52 292.422 198.166 292.029 197.887C291.649 197.608 291.155 197.469 290.547 197.469C289.901 197.469 289.388 197.615 289.008 197.906C288.628 198.185 288.356 198.558 288.191 199.027C288.026 199.483 287.931 199.977 287.906 200.509C287.893 200.876 287.893 201.244 287.906 201.611C287.931 202.143 288.026 202.643 288.191 203.112C288.356 203.568 288.628 203.942 289.008 204.233C289.388 204.512 289.901 204.651 290.547 204.651ZM37.54 238.596C37.4387 238.596 37.35 238.558 37.274 238.482C37.198 238.406 37.16 238.317 37.16 238.216C37.16 238.153 37.179 238.077 37.217 237.988L43.715 222.408C43.753 222.332 43.8037 222.256 43.867 222.18C43.943 222.104 44.057 222.066 44.209 222.066H44.95C45.0513 222.066 45.14 222.104 45.216 222.18C45.292 222.256 45.33 222.345 45.33 222.446C45.33 222.497 45.3173 222.573 45.292 222.674L38.775 238.254C38.7497 238.317 38.6927 238.387 38.604 238.463C38.528 238.552 38.4203 238.596 38.281 238.596H37.54ZM55.4867 237.19C54.79 237.19 54.1884 237.07 53.6817 236.829C53.175 236.576 52.757 236.24 52.4277 235.822C52.111 235.391 51.8704 234.904 51.7057 234.359C51.5537 233.814 51.465 233.238 51.4397 232.63C51.427 232.427 51.4207 232.237 51.4207 232.06C51.4207 231.883 51.427 231.693 51.4397 231.49C51.465 230.895 51.5537 230.325 51.7057 229.78C51.8704 229.235 52.111 228.748 52.4277 228.317C52.757 227.886 53.175 227.551 53.6817 227.31C54.1884 227.057 54.79 226.93 55.4867 226.93C56.234 226.93 56.8547 227.063 57.3487 227.329C57.8427 227.595 58.248 227.924 58.5647 228.317V223.947C58.5647 223.82 58.6027 223.719 58.6787 223.643C58.7674 223.554 58.875 223.51 59.0017 223.51H59.9137C60.0404 223.51 60.1417 223.554 60.2177 223.643C60.3064 223.719 60.3507 223.82 60.3507 223.947V236.563C60.3507 236.69 60.3064 236.797 60.2177 236.886C60.1417 236.962 60.0404 237 59.9137 237H59.0587C58.9194 237 58.8117 236.962 58.7357 236.886C58.6597 236.797 58.6217 236.69 58.6217 236.563V235.765C58.305 236.17 57.8934 236.512 57.3867 236.791C56.88 237.057 56.2467 237.19 55.4867 237.19ZM55.8857 235.651C56.519 235.651 57.0257 235.505 57.4057 235.214C57.7857 234.923 58.0707 234.555 58.2607 234.112C58.4507 233.656 58.552 233.194 58.5647 232.725C58.5774 232.522 58.5837 232.282 58.5837 232.003C58.5837 231.712 58.5774 231.465 58.5647 231.262C58.552 230.819 58.4444 230.382 58.2417 229.951C58.0517 229.52 57.7604 229.166 57.3677 228.887C56.9877 228.608 56.4937 228.469 55.8857 228.469C55.2397 228.469 54.7267 228.615 54.3467 228.906C53.9667 229.185 53.6944 229.558 53.5297 230.027C53.365 230.483 53.27 230.977 53.2447 231.509C53.232 231.876 53.232 232.244 53.2447 232.611C53.27 233.143 53.365 233.643 53.5297 234.112C53.6944 234.568 53.9667 234.942 54.3467 235.233C54.7267 235.512 55.2397 235.651 55.8857 235.651ZM63.6325 237C63.5058 237 63.3982 236.962 63.3095 236.886C63.2335 236.797 63.1955 236.69 63.1955 236.563V223.947C63.1955 223.82 63.2335 223.719 63.3095 223.643C63.3982 223.554 63.5058 223.51 63.6325 223.51H64.5255C64.6648 223.51 64.7725 223.554 64.8485 223.643C64.9245 223.719 64.9625 223.82 64.9625 223.947V236.563C64.9625 236.69 64.9245 236.797 64.8485 236.886C64.7725 236.962 64.6648 237 64.5255 237H63.6325Z" fill="white" fill-opacity="0.75"/>
<path d="M85.1334 113.19C83.968 113.19 82.999 112.975 82.2264 112.544C81.4664 112.113 80.89 111.512 80.4974 110.739C80.1047 109.966 79.8894 109.067 79.8514 108.041C79.8387 107.522 79.8324 106.964 79.8324 106.369C79.8324 105.774 79.8387 105.204 79.8514 104.659C79.8894 103.633 80.1047 102.734 80.4974 101.961C80.89 101.188 81.4664 100.587 82.2264 100.156C82.999 99.7253 83.968 99.51 85.1334 99.51C86.0074 99.51 86.7737 99.6303 87.4324 99.871C88.091 100.112 88.6357 100.435 89.0664 100.84C89.5097 101.245 89.8454 101.701 90.0734 102.208C90.3014 102.702 90.4281 103.215 90.4534 103.747C90.466 103.861 90.428 103.956 90.3394 104.032C90.2634 104.108 90.1684 104.146 90.0544 104.146H89.0094C88.8954 104.146 88.7941 104.114 88.7054 104.051C88.6294 103.988 88.5724 103.874 88.5344 103.709C88.3191 102.721 87.9137 102.043 87.3184 101.676C86.7357 101.309 86.001 101.125 85.1144 101.125C84.101 101.125 83.2967 101.416 82.7014 101.999C82.106 102.569 81.783 103.487 81.7324 104.754C81.6944 105.793 81.6944 106.857 81.7324 107.946C81.783 109.213 82.106 110.137 82.7014 110.72C83.2967 111.29 84.101 111.575 85.1144 111.575C86.001 111.575 86.7357 111.391 87.3184 111.024C87.9137 110.657 88.3191 109.979 88.5344 108.991C88.5724 108.826 88.6294 108.712 88.7054 108.649C88.7941 108.586 88.8954 108.554 89.0094 108.554H90.0544C90.1684 108.554 90.2634 108.592 90.3394 108.668C90.428 108.744 90.466 108.839 90.4534 108.953C90.4281 109.485 90.3014 110.004 90.0734 110.511C89.8454 111.005 89.5097 111.455 89.0664 111.86C88.6357 112.265 88.091 112.588 87.4324 112.829C86.7737 113.07 86.0074 113.19 85.1334 113.19ZM96.7997 113.19C95.837 113.19 95.0327 113.006 94.3867 112.639C93.7407 112.272 93.2467 111.765 92.9047 111.119C92.5627 110.46 92.3727 109.713 92.3347 108.877C92.322 108.662 92.3157 108.389 92.3157 108.06C92.3157 107.718 92.322 107.446 92.3347 107.243C92.3727 106.394 92.5627 105.647 92.9047 105.001C93.2593 104.355 93.7597 103.848 94.4057 103.481C95.0517 103.114 95.8497 102.93 96.7997 102.93C97.7497 102.93 98.5477 103.114 99.1937 103.481C99.8397 103.848 100.334 104.355 100.676 105.001C101.03 105.647 101.227 106.394 101.265 107.243C101.277 107.446 101.284 107.718 101.284 108.06C101.284 108.389 101.277 108.662 101.265 108.877C101.227 109.713 101.037 110.46 100.695 111.119C100.353 111.765 99.8587 112.272 99.2127 112.639C98.5667 113.006 97.7623 113.19 96.7997 113.19ZM96.7997 111.727C97.585 111.727 98.212 111.48 98.6807 110.986C99.1493 110.479 99.4027 109.745 99.4407 108.782C99.4533 108.592 99.4597 108.351 99.4597 108.06C99.4597 107.769 99.4533 107.528 99.4407 107.338C99.4027 106.375 99.1493 105.647 98.6807 105.153C98.212 104.646 97.585 104.393 96.7997 104.393C96.0143 104.393 95.381 104.646 94.8997 105.153C94.431 105.647 94.184 106.375 94.1587 107.338C94.146 107.528 94.1397 107.769 94.1397 108.06C94.1397 108.351 94.146 108.592 94.1587 108.782C94.184 109.745 94.431 110.479 94.8997 110.986C95.381 111.48 96.0143 111.727 96.7997 111.727ZM104.977 113C104.85 113 104.742 112.962 104.654 112.886C104.578 112.797 104.54 112.69 104.54 112.563V104.64H102.925C102.798 104.64 102.69 104.602 102.602 104.526C102.526 104.437 102.488 104.33 102.488 104.203V103.557C102.488 103.43 102.526 103.329 102.602 103.253C102.69 103.164 102.798 103.12 102.925 103.12H104.54V102.17C104.54 101.524 104.647 100.96 104.863 100.479C105.078 99.985 105.42 99.605 105.889 99.339C106.37 99.073 107.01 98.94 107.808 98.94H108.948C109.074 98.94 109.176 98.9843 109.252 99.073C109.328 99.149 109.366 99.2503 109.366 99.377V100.023C109.366 100.15 109.328 100.257 109.252 100.346C109.176 100.422 109.074 100.46 108.948 100.46H107.846C107.25 100.46 106.845 100.618 106.63 100.935C106.414 101.239 106.307 101.682 106.307 102.265V103.12H110.373V102.17C110.373 101.524 110.474 100.96 110.677 100.479C110.892 99.985 111.234 99.605 111.703 99.339C112.184 99.073 112.824 98.94 113.622 98.94H114.762C114.888 98.94 114.99 98.9843 115.066 99.073C115.154 99.149 115.199 99.2503 115.199 99.377V100.023C115.199 100.15 115.154 100.257 115.066 100.346C114.99 100.422 114.888 100.46 114.762 100.46H113.66C113.064 100.46 112.659 100.618 112.444 100.935C112.228 101.239 112.121 101.682 112.121 102.265V103.12H114.572C114.698 103.12 114.8 103.164 114.876 103.253C114.964 103.329 115.009 103.43 115.009 103.557V104.203C115.009 104.33 114.964 104.437 114.876 104.526C114.8 104.602 114.698 104.64 114.572 104.64H112.121V112.563C112.121 112.69 112.083 112.797 112.007 112.886C111.931 112.962 111.823 113 111.684 113H110.81C110.683 113 110.575 112.962 110.487 112.886C110.411 112.797 110.373 112.69 110.373 112.563V104.64H106.307V112.563C106.307 112.69 106.262 112.797 106.174 112.886C106.098 112.962 105.996 113 105.87 113H104.977ZM120.436 113.19C119.131 113.19 118.092 112.791 117.32 111.993C116.547 111.182 116.123 110.08 116.047 108.687C116.034 108.522 116.028 108.313 116.028 108.06C116.028 107.794 116.034 107.579 116.047 107.414C116.097 106.515 116.306 105.729 116.674 105.058C117.041 104.374 117.541 103.848 118.175 103.481C118.821 103.114 119.574 102.93 120.436 102.93C121.398 102.93 122.203 103.133 122.849 103.538C123.507 103.943 124.008 104.52 124.35 105.267C124.692 106.014 124.863 106.888 124.863 107.889V108.212C124.863 108.351 124.818 108.459 124.73 108.535C124.654 108.611 124.552 108.649 124.426 108.649H117.852C117.852 108.662 117.852 108.687 117.852 108.725C117.852 108.763 117.852 108.795 117.852 108.82C117.877 109.339 117.991 109.827 118.194 110.283C118.396 110.726 118.688 111.087 119.068 111.366C119.448 111.645 119.904 111.784 120.436 111.784C120.892 111.784 121.272 111.714 121.576 111.575C121.88 111.436 122.127 111.284 122.317 111.119C122.507 110.942 122.633 110.809 122.697 110.72C122.811 110.555 122.899 110.46 122.963 110.435C123.026 110.397 123.127 110.378 123.267 110.378H124.179C124.305 110.378 124.407 110.416 124.483 110.492C124.571 110.555 124.609 110.65 124.597 110.777C124.584 110.967 124.483 111.201 124.293 111.48C124.103 111.746 123.83 112.012 123.476 112.278C123.121 112.544 122.69 112.766 122.184 112.943C121.677 113.108 121.094 113.19 120.436 113.19ZM117.852 107.338H123.058V107.281C123.058 106.711 122.95 106.204 122.735 105.761C122.532 105.318 122.234 104.969 121.842 104.716C121.449 104.45 120.98 104.317 120.436 104.317C119.891 104.317 119.422 104.45 119.03 104.716C118.65 104.969 118.358 105.318 118.156 105.761C117.953 106.204 117.852 106.711 117.852 107.281V107.338ZM131.068 113.19C129.763 113.19 128.724 112.791 127.952 111.993C127.179 111.182 126.755 110.08 126.679 108.687C126.666 108.522 126.66 108.313 126.66 108.06C126.66 107.794 126.666 107.579 126.679 107.414C126.729 106.515 126.938 105.729 127.306 105.058C127.673 104.374 128.173 103.848 128.807 103.481C129.453 103.114 130.206 102.93 131.068 102.93C132.03 102.93 132.835 103.133 133.481 103.538C134.139 103.943 134.64 104.52 134.982 105.267C135.324 106.014 135.495 106.888 135.495 107.889V108.212C135.495 108.351 135.45 108.459 135.362 108.535C135.286 108.611 135.184 108.649 135.058 108.649H128.484C128.484 108.662 128.484 108.687 128.484 108.725C128.484 108.763 128.484 108.795 128.484 108.82C128.509 109.339 128.623 109.827 128.826 110.283C129.028 110.726 129.32 111.087 129.7 111.366C130.08 111.645 130.536 111.784 131.068 111.784C131.524 111.784 131.904 111.714 132.208 111.575C132.512 111.436 132.759 111.284 132.949 111.119C133.139 110.942 133.265 110.809 133.329 110.72C133.443 110.555 133.531 110.46 133.595 110.435C133.658 110.397 133.759 110.378 133.899 110.378H134.811C134.937 110.378 135.039 110.416 135.115 110.492C135.203 110.555 135.241 110.65 135.229 110.777C135.216 110.967 135.115 111.201 134.925 111.48C134.735 111.746 134.462 112.012 134.108 112.278C133.753 112.544 133.322 112.766 132.816 112.943C132.309 113.108 131.726 113.19 131.068 113.19ZM128.484 107.338H133.69V107.281C133.69 106.711 133.582 106.204 133.367 105.761C133.164 105.318 132.866 104.969 132.474 104.716C132.081 104.45 131.612 104.317 131.068 104.317C130.523 104.317 130.054 104.45 129.662 104.716C129.282 104.969 128.99 105.318 128.788 105.761C128.585 106.204 128.484 106.711 128.484 107.281V107.338ZM84.3183 139.098C84.1916 139.098 84.084 139.06 83.9953 138.984C83.9193 138.895 83.8813 138.788 83.8813 138.661V137.939C83.8813 137.812 83.9193 137.711 83.9953 137.635C84.084 137.546 84.1916 137.502 84.3183 137.502H90.0183C90.145 137.502 90.2463 137.546 90.3223 137.635C90.411 137.711 90.4553 137.812 90.4553 137.939V138.661C90.4553 138.788 90.411 138.895 90.3223 138.984C90.2463 139.06 90.145 139.098 90.0183 139.098H84.3183ZM102.72 144.19C101.96 144.19 101.326 144.057 100.82 143.791C100.313 143.512 99.9077 143.17 99.6037 142.765V143.563C99.6037 143.69 99.5593 143.797 99.4707 143.886C99.3947 143.962 99.2933 144 99.1667 144H98.2927C98.166 144 98.0583 143.962 97.9697 143.886C97.8937 143.797 97.8557 143.69 97.8557 143.563V130.947C97.8557 130.82 97.8937 130.719 97.9697 130.643C98.0583 130.554 98.166 130.51 98.2927 130.51H99.2047C99.344 130.51 99.4517 130.554 99.5277 130.643C99.6037 130.719 99.6417 130.82 99.6417 130.947V135.317C99.9583 134.924 100.364 134.595 100.858 134.329C101.364 134.063 101.985 133.93 102.72 133.93C103.429 133.93 104.031 134.057 104.525 134.31C105.031 134.551 105.443 134.886 105.76 135.317C106.089 135.748 106.336 136.235 106.501 136.78C106.665 137.325 106.754 137.895 106.767 138.49C106.779 138.693 106.786 138.883 106.786 139.06C106.786 139.237 106.779 139.427 106.767 139.63C106.754 140.238 106.665 140.814 106.501 141.359C106.336 141.904 106.089 142.391 105.76 142.822C105.443 143.24 105.031 143.576 104.525 143.829C104.031 144.07 103.429 144.19 102.72 144.19ZM102.321 142.651C102.979 142.651 103.492 142.512 103.86 142.233C104.24 141.942 104.512 141.568 104.677 141.112C104.841 140.643 104.936 140.143 104.962 139.611C104.974 139.244 104.974 138.876 104.962 138.509C104.936 137.977 104.841 137.483 104.677 137.027C104.512 136.558 104.24 136.185 103.86 135.906C103.492 135.615 102.979 135.469 102.321 135.469C101.725 135.469 101.231 135.608 100.839 135.887C100.446 136.166 100.148 136.52 99.9457 136.951C99.7557 137.382 99.6543 137.819 99.6417 138.262C99.629 138.465 99.6227 138.712 99.6227 139.003C99.6227 139.282 99.629 139.522 99.6417 139.725C99.667 140.194 99.7683 140.656 99.9457 141.112C100.136 141.555 100.421 141.923 100.801 142.214C101.193 142.505 101.7 142.651 102.321 142.651ZM109.592 144C109.466 144 109.358 143.962 109.269 143.886C109.193 143.797 109.155 143.69 109.155 143.563V130.947C109.155 130.82 109.193 130.719 109.269 130.643C109.358 130.554 109.466 130.51 109.592 130.51H110.485C110.625 130.51 110.732 130.554 110.808 130.643C110.884 130.719 110.922 130.82 110.922 130.947V143.563C110.922 143.69 110.884 143.797 110.808 143.886C110.732 143.962 110.625 144 110.485 144H109.592ZM116.512 144.19C115.878 144.19 115.302 144.063 114.783 143.81C114.263 143.557 113.845 143.215 113.529 142.784C113.212 142.353 113.054 141.866 113.054 141.321C113.054 140.447 113.408 139.75 114.118 139.231C114.827 138.712 115.752 138.37 116.892 138.205L119.723 137.806V137.255C119.723 136.647 119.545 136.172 119.191 135.83C118.849 135.488 118.285 135.317 117.5 135.317C116.93 135.317 116.467 135.431 116.113 135.659C115.771 135.887 115.53 136.178 115.391 136.533C115.315 136.723 115.182 136.818 114.992 136.818H114.137C113.997 136.818 113.89 136.78 113.814 136.704C113.75 136.615 113.719 136.514 113.719 136.4C113.719 136.21 113.788 135.976 113.928 135.697C114.08 135.418 114.308 135.146 114.612 134.88C114.916 134.614 115.302 134.392 115.771 134.215C116.252 134.025 116.835 133.93 117.519 133.93C118.279 133.93 118.918 134.031 119.438 134.234C119.957 134.424 120.362 134.684 120.654 135.013C120.958 135.342 121.173 135.716 121.3 136.134C121.439 136.552 121.509 136.976 121.509 137.407V143.563C121.509 143.69 121.464 143.797 121.376 143.886C121.3 143.962 121.198 144 121.072 144H120.198C120.058 144 119.951 143.962 119.875 143.886C119.799 143.797 119.761 143.69 119.761 143.563V142.746C119.596 142.974 119.374 143.202 119.096 143.43C118.817 143.645 118.469 143.829 118.051 143.981C117.633 144.12 117.12 144.19 116.512 144.19ZM116.911 142.765C117.43 142.765 117.905 142.657 118.336 142.442C118.766 142.214 119.102 141.866 119.343 141.397C119.596 140.928 119.723 140.339 119.723 139.63V139.098L117.519 139.421C116.619 139.548 115.942 139.763 115.486 140.067C115.03 140.358 114.802 140.732 114.802 141.188C114.802 141.543 114.903 141.84 115.106 142.081C115.321 142.309 115.587 142.48 115.904 142.594C116.233 142.708 116.569 142.765 116.911 142.765ZM128.23 144.19C127.331 144.19 126.552 144.019 125.893 143.677C125.247 143.322 124.747 142.822 124.392 142.176C124.037 141.517 123.847 140.732 123.822 139.82C123.809 139.63 123.803 139.377 123.803 139.06C123.803 138.743 123.809 138.49 123.822 138.3C123.847 137.388 124.037 136.609 124.392 135.963C124.747 135.304 125.247 134.804 125.893 134.462C126.552 134.107 127.331 133.93 128.23 133.93C128.965 133.93 129.592 134.031 130.111 134.234C130.643 134.437 131.08 134.696 131.422 135.013C131.764 135.33 132.017 135.672 132.182 136.039C132.359 136.406 132.454 136.755 132.467 137.084C132.48 137.211 132.442 137.312 132.353 137.388C132.264 137.464 132.157 137.502 132.03 137.502H131.118C130.991 137.502 130.896 137.477 130.833 137.426C130.77 137.363 130.706 137.261 130.643 137.122C130.415 136.501 130.105 136.064 129.712 135.811C129.319 135.558 128.832 135.431 128.249 135.431C127.489 135.431 126.868 135.665 126.387 136.134C125.918 136.603 125.665 137.356 125.627 138.395C125.614 138.851 125.614 139.294 125.627 139.725C125.665 140.776 125.918 141.536 126.387 142.005C126.868 142.461 127.489 142.689 128.249 142.689C128.832 142.689 129.319 142.562 129.712 142.309C130.105 142.056 130.415 141.619 130.643 140.998C130.706 140.859 130.77 140.764 130.833 140.713C130.896 140.65 130.991 140.618 131.118 140.618H132.03C132.157 140.618 132.264 140.656 132.353 140.732C132.442 140.808 132.48 140.909 132.467 141.036C132.454 141.302 132.397 141.574 132.296 141.853C132.195 142.132 132.03 142.417 131.802 142.708C131.587 142.987 131.314 143.24 130.985 143.468C130.656 143.683 130.257 143.861 129.788 144C129.332 144.127 128.813 144.19 128.23 144.19ZM135.179 144C135.053 144 134.945 143.962 134.856 143.886C134.78 143.797 134.742 143.69 134.742 143.563V130.947C134.742 130.82 134.78 130.719 134.856 130.643C134.945 130.554 135.053 130.51 135.179 130.51H136.072C136.199 130.51 136.3 130.554 136.376 130.643C136.465 130.719 136.509 130.82 136.509 130.947V137.559L140.252 134.443C140.404 134.316 140.518 134.234 140.594 134.196C140.683 134.145 140.822 134.12 141.012 134.12H142.019C142.133 134.12 142.228 134.158 142.304 134.234C142.38 134.31 142.418 134.405 142.418 134.519C142.418 134.57 142.399 134.627 142.361 134.69C142.336 134.753 142.279 134.817 142.19 134.88L137.801 138.528L142.665 143.259C142.817 143.386 142.893 143.5 142.893 143.601C142.893 143.715 142.855 143.81 142.779 143.886C142.703 143.962 142.608 144 142.494 144H141.506C141.316 144 141.177 143.981 141.088 143.943C141 143.892 140.886 143.804 140.746 143.677L136.509 139.63V143.563C136.509 143.69 136.465 143.797 136.376 143.886C136.3 143.962 136.199 144 136.072 144H135.179ZM149.448 144C149.321 144 149.214 143.962 149.125 143.886C149.049 143.797 149.011 143.69 149.011 143.563V130.947C149.011 130.82 149.049 130.719 149.125 130.643C149.214 130.554 149.321 130.51 149.448 130.51H150.398C150.537 130.51 150.645 130.554 150.721 130.643C150.797 130.719 150.835 130.82 150.835 130.947V135.374C151.177 134.943 151.595 134.595 152.089 134.329C152.583 134.063 153.21 133.93 153.97 133.93C154.793 133.93 155.49 134.114 156.06 134.481C156.643 134.836 157.08 135.336 157.371 135.982C157.675 136.615 157.827 137.356 157.827 138.205V143.563C157.827 143.69 157.789 143.797 157.713 143.886C157.637 143.962 157.529 144 157.39 144H156.44C156.313 144 156.206 143.962 156.117 143.886C156.041 143.797 156.003 143.69 156.003 143.563V138.3C156.003 137.413 155.788 136.723 155.357 136.229C154.926 135.722 154.293 135.469 153.457 135.469C152.672 135.469 152.038 135.722 151.557 136.229C151.076 136.723 150.835 137.413 150.835 138.3V143.563C150.835 143.69 150.797 143.797 150.721 143.886C150.645 143.962 150.537 144 150.398 144H149.448ZM164.617 144.19C163.654 144.19 162.85 144.006 162.204 143.639C161.558 143.272 161.064 142.765 160.722 142.119C160.38 141.46 160.19 140.713 160.152 139.877C160.139 139.662 160.133 139.389 160.133 139.06C160.133 138.718 160.139 138.446 160.152 138.243C160.19 137.394 160.38 136.647 160.722 136.001C161.077 135.355 161.577 134.848 162.223 134.481C162.869 134.114 163.667 133.93 164.617 133.93C165.567 133.93 166.365 134.114 167.011 134.481C167.657 134.848 168.151 135.355 168.493 136.001C168.848 136.647 169.044 137.394 169.082 138.243C169.095 138.446 169.101 138.718 169.101 139.06C169.101 139.389 169.095 139.662 169.082 139.877C169.044 140.713 168.854 141.46 168.512 142.119C168.17 142.765 167.676 143.272 167.03 143.639C166.384 144.006 165.58 144.19 164.617 144.19ZM164.617 142.727C165.402 142.727 166.029 142.48 166.498 141.986C166.967 141.479 167.22 140.745 167.258 139.782C167.271 139.592 167.277 139.351 167.277 139.06C167.277 138.769 167.271 138.528 167.258 138.338C167.22 137.375 166.967 136.647 166.498 136.153C166.029 135.646 165.402 135.393 164.617 135.393C163.832 135.393 163.198 135.646 162.717 136.153C162.248 136.647 162.001 137.375 161.976 138.338C161.963 138.528 161.957 138.769 161.957 139.06C161.957 139.351 161.963 139.592 161.976 139.782C162.001 140.745 162.248 141.479 162.717 141.986C163.198 142.48 163.832 142.727 164.617 142.727ZM175.244 144C174.535 144 173.959 143.867 173.515 143.601C173.072 143.322 172.749 142.936 172.546 142.442C172.344 141.935 172.242 141.34 172.242 140.656V135.64H170.76C170.634 135.64 170.526 135.602 170.437 135.526C170.361 135.437 170.323 135.33 170.323 135.203V134.557C170.323 134.43 170.361 134.329 170.437 134.253C170.526 134.164 170.634 134.12 170.76 134.12H172.242V130.947C172.242 130.82 172.28 130.719 172.356 130.643C172.445 130.554 172.553 130.51 172.679 130.51H173.572C173.699 130.51 173.8 130.554 173.876 130.643C173.965 130.719 174.009 130.82 174.009 130.947V134.12H176.365C176.492 134.12 176.593 134.164 176.669 134.253C176.758 134.329 176.802 134.43 176.802 134.557V135.203C176.802 135.33 176.758 135.437 176.669 135.526C176.593 135.602 176.492 135.64 176.365 135.64H174.009V140.523C174.009 141.118 174.111 141.587 174.313 141.929C174.516 142.271 174.877 142.442 175.396 142.442H176.555C176.682 142.442 176.783 142.486 176.859 142.575C176.948 142.651 176.992 142.752 176.992 142.879V143.563C176.992 143.69 176.948 143.797 176.859 143.886C176.783 143.962 176.682 144 176.555 144H175.244ZM187.077 144.19C186.38 144.19 185.778 144.07 185.272 143.829C184.765 143.576 184.347 143.24 184.018 142.822C183.701 142.391 183.46 141.904 183.296 141.359C183.144 140.814 183.055 140.238 183.03 139.63C183.017 139.427 183.011 139.237 183.011 139.06C183.011 138.883 183.017 138.693 183.03 138.49C183.055 137.895 183.144 137.325 183.296 136.78C183.46 136.235 183.701 135.748 184.018 135.317C184.347 134.886 184.765 134.551 185.272 134.31C185.778 134.057 186.38 133.93 187.077 133.93C187.824 133.93 188.445 134.063 188.939 134.329C189.433 134.595 189.838 134.924 190.155 135.317V130.947C190.155 130.82 190.193 130.719 190.269 130.643C190.357 130.554 190.465 130.51 190.592 130.51H191.504C191.63 130.51 191.732 130.554 191.808 130.643C191.896 130.719 191.941 130.82 191.941 130.947V143.563C191.941 143.69 191.896 143.797 191.808 143.886C191.732 143.962 191.63 144 191.504 144H190.649C190.509 144 190.402 143.962 190.326 143.886C190.25 143.797 190.212 143.69 190.212 143.563V142.765C189.895 143.17 189.483 143.512 188.977 143.791C188.47 144.057 187.837 144.19 187.077 144.19ZM187.476 142.651C188.109 142.651 188.616 142.505 188.996 142.214C189.376 141.923 189.661 141.555 189.851 141.112C190.041 140.656 190.142 140.194 190.155 139.725C190.167 139.522 190.174 139.282 190.174 139.003C190.174 138.712 190.167 138.465 190.155 138.262C190.142 137.819 190.034 137.382 189.832 136.951C189.642 136.52 189.35 136.166 188.958 135.887C188.578 135.608 188.084 135.469 187.476 135.469C186.83 135.469 186.317 135.615 185.937 135.906C185.557 136.185 185.284 136.558 185.12 137.027C184.955 137.483 184.86 137.977 184.835 138.509C184.822 138.876 184.822 139.244 184.835 139.611C184.86 140.143 184.955 140.643 185.12 141.112C185.284 141.568 185.557 141.942 185.937 142.233C186.317 142.512 186.83 142.651 187.476 142.651ZM195.203 144C195.077 144 194.969 143.962 194.88 143.886C194.804 143.797 194.766 143.69 194.766 143.563V134.576C194.766 134.449 194.804 134.342 194.88 134.253C194.969 134.164 195.077 134.12 195.203 134.12H196.077C196.204 134.12 196.312 134.164 196.4 134.253C196.489 134.342 196.533 134.449 196.533 134.576V135.412C196.787 134.981 197.135 134.658 197.578 134.443C198.022 134.228 198.554 134.12 199.174 134.12H199.934C200.061 134.12 200.162 134.164 200.238 134.253C200.314 134.329 200.352 134.43 200.352 134.557V135.336C200.352 135.463 200.314 135.564 200.238 135.64C200.162 135.716 200.061 135.754 199.934 135.754H198.794C198.11 135.754 197.572 135.957 197.179 136.362C196.787 136.755 196.59 137.293 196.59 137.977V143.563C196.59 143.69 196.546 143.797 196.457 143.886C196.369 143.962 196.261 144 196.134 144H195.203ZM202.421 144C202.294 144 202.187 143.962 202.098 143.886C202.022 143.797 201.984 143.69 201.984 143.563V134.557C201.984 134.43 202.022 134.329 202.098 134.253C202.187 134.164 202.294 134.12 202.421 134.12H203.333C203.46 134.12 203.561 134.164 203.637 134.253C203.713 134.329 203.751 134.43 203.751 134.557V143.563C203.751 143.69 203.713 143.797 203.637 143.886C203.561 143.962 203.46 144 203.333 144H202.421ZM202.269 132.277C202.142 132.277 202.035 132.239 201.946 132.163C201.87 132.074 201.832 131.967 201.832 131.84V130.814C201.832 130.687 201.87 130.586 201.946 130.51C202.035 130.421 202.142 130.377 202.269 130.377H203.466C203.593 130.377 203.694 130.421 203.77 130.51C203.859 130.586 203.903 130.687 203.903 130.814V131.84C203.903 131.967 203.859 132.074 203.77 132.163C203.694 132.239 203.593 132.277 203.466 132.277H202.269ZM207.208 144C207.082 144 206.974 143.962 206.885 143.886C206.809 143.797 206.771 143.69 206.771 143.563V134.557C206.771 134.43 206.809 134.329 206.885 134.253C206.974 134.164 207.082 134.12 207.208 134.12H208.101C208.228 134.12 208.329 134.164 208.405 134.253C208.494 134.329 208.538 134.43 208.538 134.557V135.393C208.868 134.962 209.279 134.614 209.773 134.348C210.28 134.069 210.926 133.93 211.711 133.93C212.535 133.93 213.231 134.114 213.801 134.481C214.384 134.836 214.821 135.336 215.112 135.982C215.404 136.615 215.549 137.356 215.549 138.205V143.563C215.549 143.69 215.511 143.797 215.435 143.886C215.359 143.962 215.258 144 215.131 144H214.181C214.055 144 213.947 143.962 213.858 143.886C213.782 143.797 213.744 143.69 213.744 143.563V138.3C213.744 137.413 213.529 136.723 213.098 136.229C212.668 135.722 212.034 135.469 211.198 135.469C210.413 135.469 209.78 135.722 209.298 136.229C208.83 136.723 208.595 137.413 208.595 138.3V143.563C208.595 143.69 208.551 143.797 208.462 143.886C208.386 143.962 208.285 144 208.158 144H207.208ZM218.75 144C218.623 144 218.515 143.962 218.427 143.886C218.351 143.797 218.313 143.69 218.313 143.563V130.947C218.313 130.82 218.351 130.719 218.427 130.643C218.515 130.554 218.623 130.51 218.75 130.51H219.643C219.769 130.51 219.871 130.554 219.947 130.643C220.035 130.719 220.08 130.82 220.08 130.947V137.559L223.823 134.443C223.975 134.316 224.089 134.234 224.165 134.196C224.253 134.145 224.393 134.12 224.583 134.12H225.59C225.704 134.12 225.799 134.158 225.875 134.234C225.951 134.31 225.989 134.405 225.989 134.519C225.989 134.57 225.97 134.627 225.932 134.69C225.906 134.753 225.849 134.817 225.761 134.88L221.372 138.528L226.236 143.259C226.388 143.386 226.464 143.5 226.464 143.601C226.464 143.715 226.426 143.81 226.35 143.886C226.274 143.962 226.179 144 226.065 144H225.077C224.887 144 224.747 143.981 224.659 143.943C224.57 143.892 224.456 143.804 224.317 143.677L220.08 139.63V143.563C220.08 143.69 220.035 143.797 219.947 143.886C219.871 143.962 219.769 144 219.643 144H218.75ZM80.7824 175C80.6557 175 80.548 174.962 80.4594 174.886C80.3834 174.797 80.3454 174.69 80.3454 174.563V162.156C80.3454 162.017 80.3834 161.909 80.4594 161.833C80.548 161.744 80.6557 161.7 80.7824 161.7H81.7324C81.8844 161.7 81.9984 161.738 82.0744 161.814C82.1504 161.89 82.1947 161.953 82.2074 162.004L86.2354 169.68L90.2824 162.004C90.3077 161.953 90.3521 161.89 90.4154 161.814C90.4914 161.738 90.6054 161.7 90.7574 161.7H91.6884C91.8277 161.7 91.9354 161.744 92.0114 161.833C92.1 161.909 92.1444 162.017 92.1444 162.156V174.563C92.1444 174.69 92.1 174.797 92.0114 174.886C91.9354 174.962 91.8277 175 91.6884 175H90.7574C90.6307 175 90.523 174.962 90.4344 174.886C90.3584 174.797 90.3204 174.69 90.3204 174.563V165.215L87.1474 171.409C87.0967 171.536 87.0207 171.637 86.9194 171.713C86.818 171.776 86.6914 171.808 86.5394 171.808H85.9504C85.7857 171.808 85.6527 171.776 85.5514 171.713C85.4627 171.637 85.3867 171.536 85.3234 171.409L82.1504 165.215V174.563C82.1504 174.69 82.106 174.797 82.0174 174.886C81.9414 174.962 81.84 175 81.7134 175H80.7824ZM95.6203 175C95.4937 175 95.386 174.962 95.2973 174.886C95.2213 174.797 95.1833 174.69 95.1833 174.563V165.557C95.1833 165.43 95.2213 165.329 95.2973 165.253C95.386 165.164 95.4937 165.12 95.6203 165.12H96.5323C96.659 165.12 96.7603 165.164 96.8363 165.253C96.9123 165.329 96.9503 165.43 96.9503 165.557V174.563C96.9503 174.69 96.9123 174.797 96.8363 174.886C96.7603 174.962 96.659 175 96.5323 175H95.6203ZM95.4683 163.277C95.3417 163.277 95.234 163.239 95.1453 163.163C95.0693 163.074 95.0313 162.967 95.0313 162.84V161.814C95.0313 161.687 95.0693 161.586 95.1453 161.51C95.234 161.421 95.3417 161.377 95.4683 161.377H96.6653C96.792 161.377 96.8933 161.421 96.9693 161.51C97.058 161.586 97.1023 161.687 97.1023 161.814V162.84C97.1023 162.967 97.058 163.074 96.9693 163.163C96.8933 163.239 96.792 163.277 96.6653 163.277H95.4683ZM100.241 175C100.114 175 100.007 174.962 99.9179 174.886C99.8419 174.797 99.8039 174.69 99.8039 174.563V161.947C99.8039 161.82 99.8419 161.719 99.9179 161.643C100.007 161.554 100.114 161.51 100.241 161.51H101.134C101.273 161.51 101.381 161.554 101.457 161.643C101.533 161.719 101.571 161.82 101.571 161.947V174.563C101.571 174.69 101.533 174.797 101.457 174.886C101.381 174.962 101.273 175 101.134 175H100.241ZM104.861 175C104.734 175 104.627 174.962 104.538 174.886C104.462 174.797 104.424 174.69 104.424 174.563V161.947C104.424 161.82 104.462 161.719 104.538 161.643C104.627 161.554 104.734 161.51 104.861 161.51H105.754C105.881 161.51 105.982 161.554 106.058 161.643C106.147 161.719 106.191 161.82 106.191 161.947V168.559L109.934 165.443C110.086 165.316 110.2 165.234 110.276 165.196C110.365 165.145 110.504 165.12 110.694 165.12H111.701C111.815 165.12 111.91 165.158 111.986 165.234C112.062 165.31 112.1 165.405 112.1 165.519C112.1 165.57 112.081 165.627 112.043 165.69C112.018 165.753 111.961 165.817 111.872 165.88L107.483 169.528L112.347 174.259C112.499 174.386 112.575 174.5 112.575 174.601C112.575 174.715 112.537 174.81 112.461 174.886C112.385 174.962 112.29 175 112.176 175H111.188C110.998 175 110.859 174.981 110.77 174.943C110.681 174.892 110.567 174.804 110.428 174.677L106.191 170.63V174.563C106.191 174.69 106.147 174.797 106.058 174.886C105.982 174.962 105.881 175 105.754 175H104.861ZM84.3183 201.098C84.1916 201.098 84.084 201.06 83.9953 200.984C83.9193 200.895 83.8813 200.788 83.8813 200.661V199.939C83.8813 199.812 83.9193 199.711 83.9953 199.635C84.084 199.546 84.1916 199.502 84.3183 199.502H90.0183C90.145 199.502 90.2463 199.546 90.3223 199.635C90.411 199.711 90.4553 199.812 90.4553 199.939V200.661C90.4553 200.788 90.411 200.895 90.3223 200.984C90.2463 201.06 90.145 201.098 90.0183 201.098H84.3183ZM104.671 206C104.506 206 104.379 205.962 104.291 205.886C104.202 205.797 104.126 205.677 104.063 205.525L101.365 196.709C101.339 196.646 101.327 196.582 101.327 196.519C101.327 196.405 101.365 196.31 101.441 196.234C101.529 196.158 101.624 196.12 101.726 196.12H102.562C102.701 196.12 102.809 196.158 102.885 196.234C102.961 196.31 103.011 196.38 103.037 196.443L105.146 203.606L107.407 196.519C107.432 196.43 107.483 196.342 107.559 196.253C107.647 196.164 107.774 196.12 107.939 196.12H108.585C108.749 196.12 108.876 196.164 108.965 196.253C109.053 196.342 109.104 196.43 109.117 196.519L111.378 203.606L113.487 196.443C113.499 196.38 113.544 196.31 113.62 196.234C113.696 196.158 113.803 196.12 113.943 196.12H114.779C114.893 196.12 114.988 196.158 115.064 196.234C115.14 196.31 115.178 196.405 115.178 196.519C115.178 196.582 115.165 196.646 115.14 196.709L112.442 205.525C112.404 205.677 112.334 205.797 112.233 205.886C112.144 205.962 112.011 206 111.834 206H111.093C110.928 206 110.789 205.962 110.675 205.886C110.573 205.797 110.504 205.677 110.466 205.525L108.262 198.723L106.058 205.525C106.007 205.677 105.931 205.797 105.83 205.886C105.728 205.962 105.589 206 105.412 206H104.671ZM117.738 206C117.611 206 117.504 205.962 117.415 205.886C117.339 205.797 117.301 205.69 117.301 205.563V192.947C117.301 192.82 117.339 192.719 117.415 192.643C117.504 192.554 117.611 192.51 117.738 192.51H118.688C118.827 192.51 118.935 192.554 119.011 192.643C119.087 192.719 119.125 192.82 119.125 192.947V197.374C119.467 196.943 119.885 196.595 120.379 196.329C120.873 196.063 121.5 195.93 122.26 195.93C123.083 195.93 123.78 196.114 124.35 196.481C124.933 196.836 125.37 197.336 125.661 197.982C125.965 198.615 126.117 199.356 126.117 200.205V205.563C126.117 205.69 126.079 205.797 126.003 205.886C125.927 205.962 125.819 206 125.68 206H124.73C124.603 206 124.496 205.962 124.407 205.886C124.331 205.797 124.293 205.69 124.293 205.563V200.3C124.293 199.413 124.078 198.723 123.647 198.229C123.216 197.722 122.583 197.469 121.747 197.469C120.962 197.469 120.328 197.722 119.847 198.229C119.366 198.723 119.125 199.413 119.125 200.3V205.563C119.125 205.69 119.087 205.797 119.011 205.886C118.935 205.962 118.827 206 118.688 206H117.738ZM129.297 206C129.17 206 129.063 205.962 128.974 205.886C128.898 205.797 128.86 205.69 128.86 205.563V196.557C128.86 196.43 128.898 196.329 128.974 196.253C129.063 196.164 129.17 196.12 129.297 196.12H130.209C130.336 196.12 130.437 196.164 130.513 196.253C130.589 196.329 130.627 196.43 130.627 196.557V205.563C130.627 205.69 130.589 205.797 130.513 205.886C130.437 205.962 130.336 206 130.209 206H129.297ZM129.145 194.277C129.018 194.277 128.911 194.239 128.822 194.163C128.746 194.074 128.708 193.967 128.708 193.84V192.814C128.708 192.687 128.746 192.586 128.822 192.51C128.911 192.421 129.018 192.377 129.145 192.377H130.342C130.469 192.377 130.57 192.421 130.646 192.51C130.735 192.586 130.779 192.687 130.779 192.814V193.84C130.779 193.967 130.735 194.074 130.646 194.163C130.57 194.239 130.469 194.277 130.342 194.277H129.145ZM137.319 206C136.609 206 136.033 205.867 135.59 205.601C135.146 205.322 134.823 204.936 134.621 204.442C134.418 203.935 134.317 203.34 134.317 202.656V197.64H132.835C132.708 197.64 132.6 197.602 132.512 197.526C132.436 197.437 132.398 197.33 132.398 197.203V196.557C132.398 196.43 132.436 196.329 132.512 196.253C132.6 196.164 132.708 196.12 132.835 196.12H134.317V192.947C134.317 192.82 134.355 192.719 134.431 192.643C134.519 192.554 134.627 192.51 134.754 192.51H135.647C135.773 192.51 135.875 192.554 135.951 192.643C136.039 192.719 136.084 192.82 136.084 192.947V196.12H138.44C138.566 196.12 138.668 196.164 138.744 196.253C138.832 196.329 138.877 196.43 138.877 196.557V197.203C138.877 197.33 138.832 197.437 138.744 197.526C138.668 197.602 138.566 197.64 138.44 197.64H136.084V202.523C136.084 203.118 136.185 203.587 136.388 203.929C136.59 204.271 136.951 204.442 137.471 204.442H138.63C138.756 204.442 138.858 204.486 138.934 204.575C139.022 204.651 139.067 204.752 139.067 204.879V205.563C139.067 205.69 139.022 205.797 138.934 205.886C138.858 205.962 138.756 206 138.63 206H137.319ZM144.817 206.19C143.512 206.19 142.473 205.791 141.701 204.993C140.928 204.182 140.504 203.08 140.428 201.687C140.415 201.522 140.409 201.313 140.409 201.06C140.409 200.794 140.415 200.579 140.428 200.414C140.478 199.515 140.687 198.729 141.055 198.058C141.422 197.374 141.922 196.848 142.556 196.481C143.202 196.114 143.955 195.93 144.817 195.93C145.779 195.93 146.584 196.133 147.23 196.538C147.888 196.943 148.389 197.52 148.731 198.267C149.073 199.014 149.244 199.888 149.244 200.889V201.212C149.244 201.351 149.199 201.459 149.111 201.535C149.035 201.611 148.933 201.649 148.807 201.649H142.233C142.233 201.662 142.233 201.687 142.233 201.725C142.233 201.763 142.233 201.795 142.233 201.82C142.258 202.339 142.372 202.827 142.575 203.283C142.777 203.726 143.069 204.087 143.449 204.366C143.829 204.645 144.285 204.784 144.817 204.784C145.273 204.784 145.653 204.714 145.957 204.575C146.261 204.436 146.508 204.284 146.698 204.119C146.888 203.942 147.014 203.809 147.078 203.72C147.192 203.555 147.28 203.46 147.344 203.435C147.407 203.397 147.508 203.378 147.648 203.378H148.56C148.686 203.378 148.788 203.416 148.864 203.492C148.952 203.555 148.99 203.65 148.978 203.777C148.965 203.967 148.864 204.201 148.674 204.48C148.484 204.746 148.211 205.012 147.857 205.278C147.502 205.544 147.071 205.766 146.565 205.943C146.058 206.108 145.475 206.19 144.817 206.19ZM142.233 200.338H147.439V200.281C147.439 199.711 147.331 199.204 147.116 198.761C146.913 198.318 146.615 197.969 146.223 197.716C145.83 197.45 145.361 197.317 144.817 197.317C144.272 197.317 143.803 197.45 143.411 197.716C143.031 197.969 142.739 198.318 142.537 198.761C142.334 199.204 142.233 199.711 142.233 200.281V200.338ZM160.163 206.19C159.263 206.19 158.484 206.019 157.826 205.677C157.18 205.322 156.679 204.822 156.325 204.176C155.97 203.517 155.78 202.732 155.755 201.82C155.742 201.63 155.736 201.377 155.736 201.06C155.736 200.743 155.742 200.49 155.755 200.3C155.78 199.388 155.97 198.609 156.325 197.963C156.679 197.304 157.18 196.804 157.826 196.462C158.484 196.107 159.263 195.93 160.163 195.93C160.897 195.93 161.524 196.031 162.044 196.234C162.576 196.437 163.013 196.696 163.355 197.013C163.697 197.33 163.95 197.672 164.115 198.039C164.292 198.406 164.387 198.755 164.4 199.084C164.412 199.211 164.374 199.312 164.286 199.388C164.197 199.464 164.089 199.502 163.963 199.502H163.051C162.924 199.502 162.829 199.477 162.766 199.426C162.702 199.363 162.639 199.261 162.576 199.122C162.348 198.501 162.037 198.064 161.645 197.811C161.252 197.558 160.764 197.431 160.182 197.431C159.422 197.431 158.801 197.665 158.32 198.134C157.851 198.603 157.598 199.356 157.56 200.395C157.547 200.851 157.547 201.294 157.56 201.725C157.598 202.776 157.851 203.536 158.32 204.005C158.801 204.461 159.422 204.689 160.182 204.689C160.764 204.689 161.252 204.562 161.645 204.309C162.037 204.056 162.348 203.619 162.576 202.998C162.639 202.859 162.702 202.764 162.766 202.713C162.829 202.65 162.924 202.618 163.051 202.618H163.963C164.089 202.618 164.197 202.656 164.286 202.732C164.374 202.808 164.412 202.909 164.4 203.036C164.387 203.302 164.33 203.574 164.229 203.853C164.127 204.132 163.963 204.417 163.735 204.708C163.519 204.987 163.247 205.24 162.918 205.468C162.588 205.683 162.189 205.861 161.721 206C161.265 206.127 160.745 206.19 160.163 206.19ZM170.703 206.19C169.74 206.19 168.936 206.006 168.29 205.639C167.644 205.272 167.15 204.765 166.808 204.119C166.466 203.46 166.276 202.713 166.238 201.877C166.225 201.662 166.219 201.389 166.219 201.06C166.219 200.718 166.225 200.446 166.238 200.243C166.276 199.394 166.466 198.647 166.808 198.001C167.163 197.355 167.663 196.848 168.309 196.481C168.955 196.114 169.753 195.93 170.703 195.93C171.653 195.93 172.451 196.114 173.097 196.481C173.743 196.848 174.237 197.355 174.579 198.001C174.934 198.647 175.13 199.394 175.168 200.243C175.181 200.446 175.187 200.718 175.187 201.06C175.187 201.389 175.181 201.662 175.168 201.877C175.13 202.713 174.94 203.46 174.598 204.119C174.256 204.765 173.762 205.272 173.116 205.639C172.47 206.006 171.666 206.19 170.703 206.19ZM170.703 204.727C171.488 204.727 172.115 204.48 172.584 203.986C173.053 203.479 173.306 202.745 173.344 201.782C173.357 201.592 173.363 201.351 173.363 201.06C173.363 200.769 173.357 200.528 173.344 200.338C173.306 199.375 173.053 198.647 172.584 198.153C172.115 197.646 171.488 197.393 170.703 197.393C169.918 197.393 169.284 197.646 168.803 198.153C168.334 198.647 168.087 199.375 168.062 200.338C168.049 200.528 168.043 200.769 168.043 201.06C168.043 201.351 168.049 201.592 168.062 201.782C168.087 202.745 168.334 203.479 168.803 203.986C169.284 204.48 169.918 204.727 170.703 204.727ZM178.022 206C177.895 206 177.788 205.962 177.699 205.886C177.623 205.797 177.585 205.69 177.585 205.563V192.947C177.585 192.82 177.623 192.719 177.699 192.643C177.788 192.554 177.895 192.51 178.022 192.51H178.915C179.054 192.51 179.162 192.554 179.238 192.643C179.314 192.719 179.352 192.82 179.352 192.947V205.563C179.352 205.69 179.314 205.797 179.238 205.886C179.162 205.962 179.054 206 178.915 206H178.022ZM185.796 206.19C185.1 206.19 184.498 206.07 183.991 205.829C183.485 205.576 183.067 205.24 182.737 204.822C182.421 204.391 182.18 203.904 182.015 203.359C181.863 202.814 181.775 202.238 181.749 201.63C181.737 201.427 181.73 201.237 181.73 201.06C181.73 200.883 181.737 200.693 181.749 200.49C181.775 199.895 181.863 199.325 182.015 198.78C182.18 198.235 182.421 197.748 182.737 197.317C183.067 196.886 183.485 196.551 183.991 196.31C184.498 196.057 185.1 195.93 185.796 195.93C186.544 195.93 187.164 196.063 187.658 196.329C188.152 196.595 188.558 196.924 188.874 197.317V192.947C188.874 192.82 188.912 192.719 188.988 192.643C189.077 192.554 189.185 192.51 189.311 192.51H190.223C190.35 192.51 190.451 192.554 190.527 192.643C190.616 192.719 190.66 192.82 190.66 192.947V205.563C190.66 205.69 190.616 205.797 190.527 205.886C190.451 205.962 190.35 206 190.223 206H189.368C189.229 206 189.121 205.962 189.045 205.886C188.969 205.797 188.931 205.69 188.931 205.563V204.765C188.615 205.17 188.203 205.512 187.696 205.791C187.19 206.057 186.556 206.19 185.796 206.19ZM186.195 204.651C186.829 204.651 187.335 204.505 187.715 204.214C188.095 203.923 188.38 203.555 188.57 203.112C188.76 202.656 188.862 202.194 188.874 201.725C188.887 201.522 188.893 201.282 188.893 201.003C188.893 200.712 188.887 200.465 188.874 200.262C188.862 199.819 188.754 199.382 188.551 198.951C188.361 198.52 188.07 198.166 187.677 197.887C187.297 197.608 186.803 197.469 186.195 197.469C185.549 197.469 185.036 197.615 184.656 197.906C184.276 198.185 184.004 198.558 183.839 199.027C183.675 199.483 183.58 199.977 183.554 200.509C183.542 200.876 183.542 201.244 183.554 201.611C183.58 202.143 183.675 202.643 183.839 203.112C184.004 203.568 184.276 203.942 184.656 204.233C185.036 204.512 185.549 204.651 186.195 204.651ZM201.753 206.19C201.057 206.19 200.455 206.07 199.948 205.829C199.442 205.576 199.024 205.24 198.694 204.822C198.378 204.391 198.137 203.904 197.972 203.359C197.82 202.814 197.732 202.238 197.706 201.63C197.694 201.427 197.687 201.237 197.687 201.06C197.687 200.883 197.694 200.693 197.706 200.49C197.732 199.895 197.82 199.325 197.972 198.78C198.137 198.235 198.378 197.748 198.694 197.317C199.024 196.886 199.442 196.551 199.948 196.31C200.455 196.057 201.057 195.93 201.753 195.93C202.501 195.93 203.121 196.063 203.615 196.329C204.109 196.595 204.515 196.924 204.831 197.317V192.947C204.831 192.82 204.869 192.719 204.945 192.643C205.034 192.554 205.142 192.51 205.268 192.51H206.18C206.307 192.51 206.408 192.554 206.484 192.643C206.573 192.719 206.617 192.82 206.617 192.947V205.563C206.617 205.69 206.573 205.797 206.484 205.886C206.408 205.962 206.307 206 206.18 206H205.325C205.186 206 205.078 205.962 205.002 205.886C204.926 205.797 204.888 205.69 204.888 205.563V204.765C204.572 205.17 204.16 205.512 203.653 205.791C203.147 206.057 202.513 206.19 201.753 206.19ZM202.152 204.651C202.786 204.651 203.292 204.505 203.672 204.214C204.052 203.923 204.337 203.555 204.527 203.112C204.717 202.656 204.819 202.194 204.831 201.725C204.844 201.522 204.85 201.282 204.85 201.003C204.85 200.712 204.844 200.465 204.831 200.262C204.819 199.819 204.711 199.382 204.508 198.951C204.318 198.52 204.027 198.166 203.634 197.887C203.254 197.608 202.76 197.469 202.152 197.469C201.506 197.469 200.993 197.615 200.613 197.906C200.233 198.185 199.961 198.558 199.796 199.027C199.632 199.483 199.537 199.977 199.511 200.509C199.499 200.876 199.499 201.244 199.511 201.611C199.537 202.143 199.632 202.643 199.796 203.112C199.961 203.568 200.233 203.942 200.613 204.233C200.993 204.512 201.506 204.651 202.152 204.651ZM209.88 206C209.753 206 209.646 205.962 209.557 205.886C209.481 205.797 209.443 205.69 209.443 205.563V196.576C209.443 196.449 209.481 196.342 209.557 196.253C209.646 196.164 209.753 196.12 209.88 196.12H210.754C210.881 196.12 210.988 196.164 211.077 196.253C211.166 196.342 211.21 196.449 211.21 196.576V197.412C211.463 196.981 211.812 196.658 212.255 196.443C212.698 196.228 213.23 196.12 213.851 196.12H214.611C214.738 196.12 214.839 196.164 214.915 196.253C214.991 196.329 215.029 196.43 215.029 196.557V197.336C215.029 197.463 214.991 197.564 214.915 197.64C214.839 197.716 214.738 197.754 214.611 197.754H213.471C212.787 197.754 212.249 197.957 211.856 198.362C211.463 198.755 211.267 199.293 211.267 199.977V205.563C211.267 205.69 211.223 205.797 211.134 205.886C211.045 205.962 210.938 206 210.811 206H209.88ZM217.098 206C216.971 206 216.864 205.962 216.775 205.886C216.699 205.797 216.661 205.69 216.661 205.563V196.557C216.661 196.43 216.699 196.329 216.775 196.253C216.864 196.164 216.971 196.12 217.098 196.12H218.01C218.137 196.12 218.238 196.164 218.314 196.253C218.39 196.329 218.428 196.43 218.428 196.557V205.563C218.428 205.69 218.39 205.797 218.314 205.886C218.238 205.962 218.137 206 218.01 206H217.098ZM216.946 194.277C216.819 194.277 216.712 194.239 216.623 194.163C216.547 194.074 216.509 193.967 216.509 193.84V192.814C216.509 192.687 216.547 192.586 216.623 192.51C216.712 192.421 216.819 192.377 216.946 192.377H218.143C218.27 192.377 218.371 192.421 218.447 192.51C218.536 192.586 218.58 192.687 218.58 192.814V193.84C218.58 193.967 218.536 194.074 218.447 194.163C218.371 194.239 218.27 194.277 218.143 194.277H216.946ZM221.885 206C221.758 206 221.651 205.962 221.562 205.886C221.486 205.797 221.448 205.69 221.448 205.563V196.557C221.448 196.43 221.486 196.329 221.562 196.253C221.651 196.164 221.758 196.12 221.885 196.12H222.778C222.905 196.12 223.006 196.164 223.082 196.253C223.171 196.329 223.215 196.43 223.215 196.557V197.393C223.544 196.962 223.956 196.614 224.45 196.348C224.957 196.069 225.603 195.93 226.388 195.93C227.211 195.93 227.908 196.114 228.478 196.481C229.061 196.836 229.498 197.336 229.789 197.982C230.08 198.615 230.226 199.356 230.226 200.205V205.563C230.226 205.69 230.188 205.797 230.112 205.886C230.036 205.962 229.935 206 229.808 206H228.858C228.731 206 228.624 205.962 228.535 205.886C228.459 205.797 228.421 205.69 228.421 205.563V200.3C228.421 199.413 228.206 198.723 227.775 198.229C227.344 197.722 226.711 197.469 225.875 197.469C225.09 197.469 224.456 197.722 223.975 198.229C223.506 198.723 223.272 199.413 223.272 200.3V205.563C223.272 205.69 223.228 205.797 223.139 205.886C223.063 205.962 222.962 206 222.835 206H221.885ZM233.426 206C233.3 206 233.192 205.962 233.103 205.886C233.027 205.797 232.989 205.69 232.989 205.563V192.947C232.989 192.82 233.027 192.719 233.103 192.643C233.192 192.554 233.3 192.51 233.426 192.51H234.319C234.446 192.51 234.547 192.554 234.623 192.643C234.712 192.719 234.756 192.82 234.756 192.947V199.559L238.499 196.443C238.651 196.316 238.765 196.234 238.841 196.196C238.93 196.145 239.069 196.12 239.259 196.12H240.266C240.38 196.12 240.475 196.158 240.551 196.234C240.627 196.31 240.665 196.405 240.665 196.519C240.665 196.57 240.646 196.627 240.608 196.69C240.583 196.753 240.526 196.817 240.437 196.88L236.048 200.528L240.912 205.259C241.064 205.386 241.14 205.5 241.14 205.601C241.14 205.715 241.102 205.81 241.026 205.886C240.95 205.962 240.855 206 240.741 206H239.753C239.563 206 239.424 205.981 239.335 205.943C239.247 205.892 239.133 205.804 238.993 205.677L234.756 201.63V205.563C234.756 205.69 234.712 205.797 234.623 205.886C234.547 205.962 234.446 206 234.319 206H233.426Z" fill="white"/>
<g filter="url(#filter0_d_197_42)">
<path d="M4 12C4 5.37258 9.37258 0 16 0H311C317.627 0 323 5.37258 323 12V43H4V12Z" fill="#242526"/>
</g>
<ellipse cx="29.1279" cy="21.9139" rx="5.84369" ry="6.72025" fill="#E65100"/>
<ellipse cx="48.4121" cy="21.9139" rx="5.84369" ry="6.72025" fill="#FFD600"/>
<ellipse cx="67.6962" cy="21.9139" rx="5.84369" ry="6.72025" fill="#4EC433"/>
<defs>
<filter id="filter0_d_197_42" x="0" y="0" width="327" height="51" filterUnits="userSpaceOnUse" color-interpolation-filters="sRGB">
<feFlood flood-opacity="0" result="BackgroundImageFix"/>
<feColorMatrix in="SourceAlpha" type="matrix" values="0 0 0 0 0 0 0 0 0 0 0 0 0 0 0 0 0 0 127 0" result="hardAlpha"/>
<feOffset dy="4"/>
<feGaussianBlur stdDeviation="2"/>
<feComposite in2="hardAlpha" operator="out"/>
<feColorMatrix type="matrix" values="0 0 0 0 0 0 0 0 0 0 0 0 0 0 0 0 0 0 0.25 0"/>
<feBlend mode="normal" in2="BackgroundImageFix" result="effect1_dropShadow_197_42"/>
<feBlend mode="normal" in="SourceGraphic" in2="effect1_dropShadow_197_42" result="shape"/>
</filter>
</defs>
</svg>
