<svg width="594" height="144" viewBox="0 0 594 144" fill="none" xmlns="http://www.w3.org/2000/svg">
<rect x="4" width="586" height="144" rx="12" fill="#242526"/>
<rect x="4" width="586" height="144" rx="12" fill="#242526"/>
<path d="M36.676 88.525C36.6 88.525 36.5177 88.4997 36.429 88.449C36.353 88.3983 36.2833 88.3603 36.22 88.335L30.235 84.212C30.045 84.0853 29.9057 83.9587 29.817 83.832C29.7283 83.6927 29.684 83.5343 29.684 83.357V83.015C29.684 82.8377 29.7283 82.6857 29.817 82.559C29.9057 82.4323 30.045 82.2993 30.235 82.16L36.22 78.056C36.2833 78.018 36.353 77.9737 36.429 77.923C36.5177 77.8723 36.6 77.847 36.676 77.847C36.7773 77.847 36.866 77.885 36.942 77.961C37.018 78.0243 37.056 78.1193 37.056 78.246V79.082C37.056 79.2213 37.018 79.3417 36.942 79.443C36.866 79.5317 36.7583 79.6203 36.619 79.709L31.527 83.186L36.619 86.663C36.7583 86.7643 36.866 86.8593 36.942 86.948C37.018 87.0367 37.056 87.157 37.056 87.309V88.145C37.056 88.259 37.018 88.354 36.942 88.43C36.866 88.4933 36.7773 88.525 36.676 88.525ZM521.87 88.506C521.769 88.506 521.68 88.4743 521.604 88.411C521.528 88.3477 521.49 88.2527 521.49 88.126V87.29C521.49 87.138 521.522 87.0177 521.585 86.929C521.661 86.8403 521.775 86.7517 521.927 86.663L527 83.186L521.927 79.709C521.775 79.6077 521.661 79.5127 521.585 79.424C521.522 79.3353 521.49 79.215 521.49 79.063V78.227C521.49 78.1003 521.528 78.0053 521.604 77.942C521.68 77.8787 521.769 77.847 521.87 77.847C521.946 77.847 522.029 77.8723 522.117 77.923C522.206 77.961 522.276 77.999 522.326 78.037L528.292 82.141C528.495 82.2803 528.634 82.4133 528.71 82.54C528.799 82.6667 528.843 82.825 528.843 83.015V83.338C528.843 83.5153 528.799 83.6737 528.71 83.813C528.634 83.9397 528.495 84.0727 528.292 84.212L522.326 88.316C522.276 88.354 522.206 88.3983 522.117 88.449C522.029 88.487 521.946 88.506 521.87 88.506Z" fill="#647DFF"/>
<path d="M45.8398 89C45.7131 89 45.6055 88.962 45.5168 88.886C45.4408 88.7973 45.4028 88.6897 45.4028 88.563V80.64H43.7878C43.6611 80.64 43.5535 80.602 43.4648 80.526C43.3888 80.4373 43.3508 80.3297 43.3508 80.203V79.557C43.3508 79.4303 43.3888 79.329 43.4648 79.253C43.5535 79.1643 43.6611 79.12 43.7878 79.12H45.4028V78.17C45.4028 77.524 45.5105 76.9603 45.7258 76.479C45.9411 75.985 46.2831 75.605 46.7518 75.339C47.2331 75.073 47.8728 74.94 48.6708 74.94H49.8108C49.9375 74.94 50.0388 74.9843 50.1148 75.073C50.1908 75.149 50.2288 75.2503 50.2288 75.377V76.023C50.2288 76.1497 50.1908 76.2573 50.1148 76.346C50.0388 76.422 49.9375 76.46 49.8108 76.46H48.7088C48.1135 76.46 47.7081 76.6183 47.4928 76.935C47.2775 77.239 47.1698 77.6823 47.1698 78.265V79.12H49.6208C49.7475 79.12 49.8488 79.1643 49.9248 79.253C50.0008 79.329 50.0388 79.4303 50.0388 79.557V80.203C50.0388 80.3297 50.0008 80.4373 49.9248 80.526C49.8488 80.602 49.7475 80.64 49.6208 80.64H47.1698V88.563C47.1698 88.6897 47.1255 88.7973 47.0368 88.886C46.9608 88.962 46.8595 89 46.7328 89H45.8398ZM55.5868 89.19C54.6241 89.19 53.8198 89.0063 53.1738 88.639C52.5278 88.2717 52.0338 87.765 51.6918 87.119C51.3498 86.4603 51.1598 85.713 51.1218 84.877C51.1091 84.6617 51.1028 84.3893 51.1028 84.06C51.1028 83.718 51.1091 83.4457 51.1218 83.243C51.1598 82.3943 51.3498 81.647 51.6918 81.001C52.0465 80.355 52.5468 79.8483 53.1928 79.481C53.8388 79.1137 54.6368 78.93 55.5868 78.93C56.5368 78.93 57.3348 79.1137 57.9808 79.481C58.6268 79.8483 59.1208 80.355 59.4628 81.001C59.8175 81.647 60.0138 82.3943 60.0518 83.243C60.0645 83.4457 60.0708 83.718 60.0708 84.06C60.0708 84.3893 60.0645 84.6617 60.0518 84.877C60.0138 85.713 59.8238 86.4603 59.4818 87.119C59.1398 87.765 58.6458 88.2717 57.9998 88.639C57.3538 89.0063 56.5495 89.19 55.5868 89.19ZM55.5868 87.727C56.3721 87.727 56.9991 87.48 57.4678 86.986C57.9365 86.4793 58.1898 85.7447 58.2278 84.782C58.2405 84.592 58.2468 84.3513 58.2468 84.06C58.2468 83.7687 58.2405 83.528 58.2278 83.338C58.1898 82.3753 57.9365 81.647 57.4678 81.153C56.9991 80.6463 56.3721 80.393 55.5868 80.393C54.8015 80.393 54.1681 80.6463 53.6868 81.153C53.2181 81.647 52.9711 82.3753 52.9458 83.338C52.9331 83.528 52.9268 83.7687 52.9268 84.06C52.9268 84.3513 52.9331 84.592 52.9458 84.782C52.9711 85.7447 53.2181 86.4793 53.6868 86.986C54.1681 87.48 54.8015 87.727 55.5868 87.727ZM62.8869 89C62.7603 89 62.6526 88.962 62.5639 88.886C62.4879 88.7973 62.4499 88.6897 62.4499 88.563V79.576C62.4499 79.4493 62.4879 79.3417 62.5639 79.253C62.6526 79.1643 62.7603 79.12 62.8869 79.12H63.7609C63.8876 79.12 63.9953 79.1643 64.0839 79.253C64.1726 79.3417 64.2169 79.4493 64.2169 79.576V80.412C64.4703 79.9813 64.8186 79.6583 65.2619 79.443C65.7053 79.2277 66.2373 79.12 66.8579 79.12H67.6179C67.7446 79.12 67.8459 79.1643 67.9219 79.253C67.9979 79.329 68.0359 79.4303 68.0359 79.557V80.336C68.0359 80.4627 67.9979 80.564 67.9219 80.64C67.8459 80.716 67.7446 80.754 67.6179 80.754H66.4779C65.7939 80.754 65.2556 80.9567 64.8629 81.362C64.4703 81.7547 64.2739 82.293 64.2739 82.977V88.563C64.2739 88.6897 64.2296 88.7973 64.1409 88.886C64.0523 88.962 63.9446 89 63.8179 89H62.8869ZM70.1047 89C69.9781 89 69.8704 88.962 69.7817 88.886C69.7057 88.7973 69.6677 88.6897 69.6677 88.563V79.557C69.6677 79.4303 69.7057 79.329 69.7817 79.253C69.8704 79.1643 69.9781 79.12 70.1047 79.12H70.9597C71.0864 79.12 71.1877 79.1643 71.2637 79.253C71.3524 79.329 71.3967 79.4303 71.3967 79.557V80.222C71.6881 79.8293 72.0554 79.519 72.4987 79.291C72.9421 79.0503 73.4741 78.93 74.0947 78.93C75.5261 78.9173 76.5394 79.5 77.1347 80.678C77.4261 80.146 77.8504 79.7217 78.4077 79.405C78.9651 79.0883 79.5984 78.93 80.3077 78.93C80.9664 78.93 81.5617 79.082 82.0937 79.386C82.6384 79.69 83.0627 80.1523 83.3667 80.773C83.6834 81.381 83.8417 82.1473 83.8417 83.072V88.563C83.8417 88.6897 83.7974 88.7973 83.7087 88.886C83.6327 88.962 83.5314 89 83.4047 89H82.5117C82.3851 89 82.2774 88.962 82.1887 88.886C82.1127 88.7973 82.0747 88.6897 82.0747 88.563V83.243C82.0747 82.5337 81.9734 81.9763 81.7707 81.571C81.5681 81.1657 81.2957 80.8807 80.9537 80.716C80.6117 80.5513 80.2381 80.469 79.8327 80.469C79.5034 80.469 79.1677 80.5513 78.8257 80.716C78.4837 80.8807 78.1987 81.1657 77.9707 81.571C77.7554 81.9763 77.6477 82.5337 77.6477 83.243V88.563C77.6477 88.6897 77.6034 88.7973 77.5147 88.886C77.4387 88.962 77.3374 89 77.2107 89H76.3177C76.1911 89 76.0834 88.962 75.9947 88.886C75.9187 88.7973 75.8807 88.6897 75.8807 88.563V83.243C75.8807 82.5337 75.7731 81.9763 75.5577 81.571C75.3424 81.1657 75.0637 80.8807 74.7217 80.716C74.3797 80.5513 74.0187 80.469 73.6387 80.469C73.3094 80.469 72.9737 80.5513 72.6317 80.716C72.2897 80.8807 72.0047 81.1657 71.7767 81.571C71.5614 81.9763 71.4537 82.5273 71.4537 83.224V88.563C71.4537 88.6897 71.4094 88.7973 71.3207 88.886C71.2447 88.962 71.1434 89 71.0167 89H70.1047ZM93.9647 89.19C93.3314 89.19 92.755 89.0633 92.2357 88.81C91.7164 88.5567 91.2984 88.2147 90.9817 87.784C90.665 87.3533 90.5067 86.8657 90.5067 86.321C90.5067 85.447 90.8614 84.7503 91.5707 84.231C92.28 83.7117 93.2047 83.3697 94.3447 83.205L97.1757 82.806V82.255C97.1757 81.647 96.9984 81.172 96.6437 80.83C96.3017 80.488 95.738 80.317 94.9527 80.317C94.3827 80.317 93.9204 80.431 93.5657 80.659C93.2237 80.887 92.983 81.1783 92.8437 81.533C92.7677 81.723 92.6347 81.818 92.4447 81.818H91.5897C91.4504 81.818 91.3427 81.78 91.2667 81.704C91.2034 81.6153 91.1717 81.514 91.1717 81.4C91.1717 81.21 91.2414 80.9757 91.3807 80.697C91.5327 80.4183 91.7607 80.146 92.0647 79.88C92.3687 79.614 92.755 79.3923 93.2237 79.215C93.705 79.025 94.2877 78.93 94.9717 78.93C95.7317 78.93 96.3714 79.0313 96.8907 79.234C97.41 79.424 97.8154 79.6837 98.1067 80.013C98.4107 80.3423 98.626 80.716 98.7527 81.134C98.892 81.552 98.9617 81.9763 98.9617 82.407V88.563C98.9617 88.6897 98.9174 88.7973 98.8287 88.886C98.7527 88.962 98.6514 89 98.5247 89H97.6507C97.5114 89 97.4037 88.962 97.3277 88.886C97.2517 88.7973 97.2137 88.6897 97.2137 88.563V87.746C97.049 87.974 96.8274 88.202 96.5487 88.43C96.27 88.6453 95.9217 88.829 95.5037 88.981C95.0857 89.1203 94.5727 89.19 93.9647 89.19ZM94.3637 87.765C94.883 87.765 95.358 87.6573 95.7887 87.442C96.2194 87.214 96.555 86.8657 96.7957 86.397C97.049 85.9283 97.1757 85.3393 97.1757 84.63V84.098L94.9717 84.421C94.0724 84.5477 93.3947 84.763 92.9387 85.067C92.4827 85.3583 92.2547 85.732 92.2547 86.188C92.2547 86.5427 92.356 86.8403 92.5587 87.081C92.774 87.309 93.04 87.48 93.3567 87.594C93.686 87.708 94.0217 87.765 94.3637 87.765ZM105.683 89.19C104.784 89.19 104.005 89.019 103.346 88.677C102.7 88.3223 102.2 87.822 101.845 87.176C101.49 86.5173 101.3 85.732 101.275 84.82C101.262 84.63 101.256 84.3767 101.256 84.06C101.256 83.7433 101.262 83.49 101.275 83.3C101.3 82.388 101.49 81.609 101.845 80.963C102.2 80.3043 102.7 79.804 103.346 79.462C104.005 79.1073 104.784 78.93 105.683 78.93C106.418 78.93 107.045 79.0313 107.564 79.234C108.096 79.4367 108.533 79.6963 108.875 80.013C109.217 80.3297 109.47 80.6717 109.635 81.039C109.812 81.4063 109.907 81.7547 109.92 82.084C109.933 82.2107 109.895 82.312 109.806 82.388C109.717 82.464 109.61 82.502 109.483 82.502H108.571C108.444 82.502 108.349 82.4767 108.286 82.426C108.223 82.3627 108.159 82.2613 108.096 82.122C107.868 81.5013 107.558 81.0643 107.165 80.811C106.772 80.5577 106.285 80.431 105.702 80.431C104.942 80.431 104.321 80.6653 103.84 81.134C103.371 81.6027 103.118 82.3563 103.08 83.395C103.067 83.851 103.067 84.2943 103.08 84.725C103.118 85.7763 103.371 86.5363 103.84 87.005C104.321 87.461 104.942 87.689 105.702 87.689C106.285 87.689 106.772 87.5623 107.165 87.309C107.558 87.0557 107.868 86.6187 108.096 85.998C108.159 85.8587 108.223 85.7637 108.286 85.713C108.349 85.6497 108.444 85.618 108.571 85.618H109.483C109.61 85.618 109.717 85.656 109.806 85.732C109.895 85.808 109.933 85.9093 109.92 86.036C109.907 86.302 109.85 86.5743 109.749 86.853C109.648 87.1317 109.483 87.4167 109.255 87.708C109.04 87.9867 108.767 88.24 108.438 88.468C108.109 88.6833 107.71 88.8607 107.241 89C106.785 89.1267 106.266 89.19 105.683 89.19ZM116.034 89C115.324 89 114.748 88.867 114.305 88.601C113.861 88.3223 113.538 87.936 113.336 87.442C113.133 86.9353 113.032 86.34 113.032 85.656V80.64H111.55C111.423 80.64 111.315 80.602 111.227 80.526C111.151 80.4373 111.113 80.3297 111.113 80.203V79.557C111.113 79.4303 111.151 79.329 111.227 79.253C111.315 79.1643 111.423 79.12 111.55 79.12H113.032V75.947C113.032 75.8203 113.07 75.719 113.146 75.643C113.234 75.5543 113.342 75.51 113.469 75.51H114.362C114.488 75.51 114.59 75.5543 114.666 75.643C114.754 75.719 114.799 75.8203 114.799 75.947V79.12H117.155C117.281 79.12 117.383 79.1643 117.459 79.253C117.547 79.329 117.592 79.4303 117.592 79.557V80.203C117.592 80.3297 117.547 80.4373 117.459 80.526C117.383 80.602 117.281 80.64 117.155 80.64H114.799V85.523C114.799 86.1183 114.9 86.587 115.103 86.929C115.305 87.271 115.666 87.442 116.186 87.442H117.345C117.471 87.442 117.573 87.4863 117.649 87.575C117.737 87.651 117.782 87.7523 117.782 87.879V88.563C117.782 88.6897 117.737 88.7973 117.649 88.886C117.573 88.962 117.471 89 117.345 89H116.034ZM120.035 89C119.909 89 119.801 88.962 119.712 88.886C119.636 88.7973 119.598 88.6897 119.598 88.563V79.557C119.598 79.4303 119.636 79.329 119.712 79.253C119.801 79.1643 119.909 79.12 120.035 79.12H120.947C121.074 79.12 121.175 79.1643 121.251 79.253C121.327 79.329 121.365 79.4303 121.365 79.557V88.563C121.365 88.6897 121.327 88.7973 121.251 88.886C121.175 88.962 121.074 89 120.947 89H120.035ZM119.883 77.277C119.757 77.277 119.649 77.239 119.56 77.163C119.484 77.0743 119.446 76.9667 119.446 76.84V75.814C119.446 75.6873 119.484 75.586 119.56 75.51C119.649 75.4213 119.757 75.377 119.883 75.377H121.08C121.207 75.377 121.308 75.4213 121.384 75.51C121.473 75.586 121.517 75.6873 121.517 75.814V76.84C121.517 76.9667 121.473 77.0743 121.384 77.163C121.308 77.239 121.207 77.277 121.08 77.277H119.883ZM128.284 89.19C127.321 89.19 126.517 89.0063 125.871 88.639C125.225 88.2717 124.731 87.765 124.389 87.119C124.047 86.4603 123.857 85.713 123.819 84.877C123.806 84.6617 123.8 84.3893 123.8 84.06C123.8 83.718 123.806 83.4457 123.819 83.243C123.857 82.3943 124.047 81.647 124.389 81.001C124.744 80.355 125.244 79.8483 125.89 79.481C126.536 79.1137 127.334 78.93 128.284 78.93C129.234 78.93 130.032 79.1137 130.678 79.481C131.324 79.8483 131.818 80.355 132.16 81.001C132.515 81.647 132.711 82.3943 132.749 83.243C132.762 83.4457 132.768 83.718 132.768 84.06C132.768 84.3893 132.762 84.6617 132.749 84.877C132.711 85.713 132.521 86.4603 132.179 87.119C131.837 87.765 131.343 88.2717 130.697 88.639C130.051 89.0063 129.247 89.19 128.284 89.19ZM128.284 87.727C129.069 87.727 129.696 87.48 130.165 86.986C130.634 86.4793 130.887 85.7447 130.925 84.782C130.938 84.592 130.944 84.3513 130.944 84.06C130.944 83.7687 130.938 83.528 130.925 83.338C130.887 82.3753 130.634 81.647 130.165 81.153C129.696 80.6463 129.069 80.393 128.284 80.393C127.499 80.393 126.865 80.6463 126.384 81.153C125.915 81.647 125.668 82.3753 125.643 83.338C125.63 83.528 125.624 83.7687 125.624 84.06C125.624 84.3513 125.63 84.592 125.643 84.782C125.668 85.7447 125.915 86.4793 126.384 86.986C126.865 87.48 127.499 87.727 128.284 87.727ZM135.584 89C135.458 89 135.35 88.962 135.261 88.886C135.185 88.7973 135.147 88.6897 135.147 88.563V79.557C135.147 79.4303 135.185 79.329 135.261 79.253C135.35 79.1643 135.458 79.12 135.584 79.12H136.477C136.604 79.12 136.705 79.1643 136.781 79.253C136.87 79.329 136.914 79.4303 136.914 79.557V80.393C137.244 79.9623 137.655 79.614 138.149 79.348C138.656 79.0693 139.302 78.93 140.087 78.93C140.911 78.93 141.607 79.1137 142.177 79.481C142.76 79.8357 143.197 80.336 143.488 80.982C143.78 81.6153 143.925 82.3563 143.925 83.205V88.563C143.925 88.6897 143.887 88.7973 143.811 88.886C143.735 88.962 143.634 89 143.507 89H142.557C142.431 89 142.323 88.962 142.234 88.886C142.158 88.7973 142.12 88.6897 142.12 88.563V83.3C142.12 82.4133 141.905 81.723 141.474 81.229C141.044 80.7223 140.41 80.469 139.574 80.469C138.789 80.469 138.156 80.7223 137.674 81.229C137.206 81.723 136.971 82.4133 136.971 83.3V88.563C136.971 88.6897 136.927 88.7973 136.838 88.886C136.762 88.962 136.661 89 136.534 89H135.584ZM151.707 81.666C151.58 81.666 151.479 81.628 151.403 81.552C151.327 81.476 151.289 81.3747 151.289 81.248V80.602C151.289 80.4753 151.327 80.374 151.403 80.298C151.479 80.222 151.58 80.184 151.707 80.184H158.946C159.073 80.184 159.174 80.222 159.25 80.298C159.339 80.374 159.383 80.4753 159.383 80.602V81.248C159.383 81.3747 159.339 81.476 159.25 81.552C159.174 81.628 159.073 81.666 158.946 81.666H151.707ZM151.707 86.416C151.58 86.416 151.479 86.378 151.403 86.302C151.327 86.226 151.289 86.1247 151.289 85.998V85.352C151.289 85.2253 151.327 85.124 151.403 85.048C151.479 84.972 151.58 84.934 151.707 84.934H158.946C159.073 84.934 159.174 84.972 159.25 85.048C159.339 85.124 159.383 85.2253 159.383 85.352V85.998C159.383 86.1247 159.339 86.226 159.25 86.302C159.174 86.378 159.073 86.416 158.946 86.416H151.707ZM169.727 79.177C169.638 79.177 169.562 79.1453 169.499 79.082C169.448 79.0187 169.423 78.9427 169.423 78.854C169.423 78.7527 169.442 78.6513 169.48 78.55L170.487 75.947C170.55 75.8203 170.614 75.719 170.677 75.643C170.753 75.5543 170.873 75.51 171.038 75.51H171.665C171.766 75.51 171.842 75.548 171.893 75.624C171.956 75.7 171.975 75.8013 171.95 75.928L171.532 78.626C171.519 78.778 171.469 78.911 171.38 79.025C171.291 79.1263 171.158 79.177 170.981 79.177H169.727ZM166.687 79.177C166.598 79.177 166.522 79.1453 166.459 79.082C166.408 79.0187 166.383 78.9427 166.383 78.854C166.383 78.7527 166.402 78.6513 166.44 78.55L167.447 75.947C167.51 75.8203 167.58 75.719 167.656 75.643C167.732 75.5543 167.846 75.51 167.998 75.51H168.625C168.726 75.51 168.802 75.548 168.853 75.624C168.916 75.7 168.935 75.8013 168.91 75.928L168.492 78.626C168.479 78.778 168.429 78.911 168.34 79.025C168.251 79.1263 168.125 79.177 167.96 79.177H166.687ZM347.298 79.177C347.184 79.177 347.102 79.139 347.051 79.063C347 78.987 346.981 78.892 346.994 78.778L347.412 76.061C347.437 75.909 347.488 75.7823 347.564 75.681C347.653 75.567 347.786 75.51 347.963 75.51H349.217C349.318 75.51 349.394 75.548 349.445 75.624C349.508 75.6873 349.54 75.757 349.54 75.833C349.54 75.9343 349.515 76.0357 349.464 76.137L348.476 78.74C348.425 78.8667 348.356 78.9743 348.267 79.063C348.191 79.139 348.071 79.177 347.906 79.177H347.298ZM344.258 79.177C344.157 79.177 344.074 79.139 344.011 79.063C343.96 78.987 343.941 78.892 343.954 78.778L344.391 76.061C344.416 75.909 344.467 75.7823 344.543 75.681C344.632 75.567 344.758 75.51 344.923 75.51H346.196C346.285 75.51 346.354 75.548 346.405 75.624C346.468 75.6873 346.5 75.757 346.5 75.833C346.5 75.9343 346.475 76.0357 346.424 76.137L345.436 78.74C345.385 78.8667 345.316 78.9743 345.227 79.063C345.151 79.139 345.031 79.177 344.866 79.177H344.258ZM360.158 89C359.448 89 358.872 88.867 358.429 88.601C357.985 88.3223 357.662 87.936 357.46 87.442C357.257 86.9353 357.156 86.34 357.156 85.656V80.64H355.674C355.547 80.64 355.439 80.602 355.351 80.526C355.275 80.4373 355.237 80.3297 355.237 80.203V79.557C355.237 79.4303 355.275 79.329 355.351 79.253C355.439 79.1643 355.547 79.12 355.674 79.12H357.156V75.947C357.156 75.8203 357.194 75.719 357.27 75.643C357.358 75.5543 357.466 75.51 357.593 75.51H358.486C358.612 75.51 358.714 75.5543 358.79 75.643C358.878 75.719 358.923 75.8203 358.923 75.947V79.12H361.279C361.405 79.12 361.507 79.1643 361.583 79.253C361.671 79.329 361.716 79.4303 361.716 79.557V80.203C361.716 80.3297 361.671 80.4373 361.583 80.526C361.507 80.602 361.405 80.64 361.279 80.64H358.923V85.523C358.923 86.1183 359.024 86.587 359.227 86.929C359.429 87.271 359.79 87.442 360.31 87.442H361.469C361.595 87.442 361.697 87.4863 361.773 87.575C361.861 87.651 361.906 87.7523 361.906 87.879V88.563C361.906 88.6897 361.861 88.7973 361.773 88.886C361.697 88.962 361.595 89 361.469 89H360.158ZM366.477 89.19C365.844 89.19 365.268 89.0633 364.748 88.81C364.229 88.5567 363.811 88.2147 363.494 87.784C363.178 87.3533 363.019 86.8657 363.019 86.321C363.019 85.447 363.374 84.7503 364.083 84.231C364.793 83.7117 365.717 83.3697 366.857 83.205L369.688 82.806V82.255C369.688 81.647 369.511 81.172 369.156 80.83C368.814 80.488 368.251 80.317 367.465 80.317C366.895 80.317 366.433 80.431 366.078 80.659C365.736 80.887 365.496 81.1783 365.356 81.533C365.28 81.723 365.147 81.818 364.957 81.818H364.102C363.963 81.818 363.855 81.78 363.779 81.704C363.716 81.6153 363.684 81.514 363.684 81.4C363.684 81.21 363.754 80.9757 363.893 80.697C364.045 80.4183 364.273 80.146 364.577 79.88C364.881 79.614 365.268 79.3923 365.736 79.215C366.218 79.025 366.8 78.93 367.484 78.93C368.244 78.93 368.884 79.0313 369.403 79.234C369.923 79.424 370.328 79.6837 370.619 80.013C370.923 80.3423 371.139 80.716 371.265 81.134C371.405 81.552 371.474 81.9763 371.474 82.407V88.563C371.474 88.6897 371.43 88.7973 371.341 88.886C371.265 88.962 371.164 89 371.037 89H370.163C370.024 89 369.916 88.962 369.84 88.886C369.764 88.7973 369.726 88.6897 369.726 88.563V87.746C369.562 87.974 369.34 88.202 369.061 88.43C368.783 88.6453 368.434 88.829 368.016 88.981C367.598 89.1203 367.085 89.19 366.477 89.19ZM366.876 87.765C367.396 87.765 367.871 87.6573 368.301 87.442C368.732 87.214 369.068 86.8657 369.308 86.397C369.562 85.9283 369.688 85.3393 369.688 84.63V84.098L367.484 84.421C366.585 84.5477 365.907 84.763 365.451 85.067C364.995 85.3583 364.767 85.732 364.767 86.188C364.767 86.5427 364.869 86.8403 365.071 87.081C365.287 87.309 365.553 87.48 365.869 87.594C366.199 87.708 366.534 87.765 366.876 87.765ZM374.643 89C374.516 89 374.408 88.962 374.32 88.886C374.244 88.7973 374.206 88.6897 374.206 88.563V79.576C374.206 79.4493 374.244 79.3417 374.32 79.253C374.408 79.1643 374.516 79.12 374.643 79.12H375.517C375.643 79.12 375.751 79.1643 375.84 79.253C375.928 79.3417 375.973 79.4493 375.973 79.576V80.412C376.226 79.9813 376.574 79.6583 377.018 79.443C377.461 79.2277 377.993 79.12 378.614 79.12H379.374C379.5 79.12 379.602 79.1643 379.678 79.253C379.754 79.329 379.792 79.4303 379.792 79.557V80.336C379.792 80.4627 379.754 80.564 379.678 80.64C379.602 80.716 379.5 80.754 379.374 80.754H378.234C377.55 80.754 377.011 80.9567 376.619 81.362C376.226 81.7547 376.03 82.293 376.03 82.977V88.563C376.03 88.6897 375.985 88.7973 375.897 88.886C375.808 88.962 375.7 89 375.574 89H374.643ZM385.266 93.18C384.405 93.18 383.696 93.066 383.138 92.838C382.594 92.61 382.163 92.3313 381.846 92.002C381.542 91.6853 381.321 91.3623 381.181 91.033C381.055 90.7163 380.985 90.463 380.972 90.273C380.96 90.1463 380.998 90.0387 381.086 89.95C381.188 89.8613 381.295 89.817 381.409 89.817H382.321C382.435 89.817 382.53 89.8423 382.606 89.893C382.682 89.9437 382.746 90.0513 382.796 90.216C382.872 90.406 382.986 90.615 383.138 90.843C383.29 91.0837 383.525 91.2863 383.841 91.451C384.158 91.6283 384.601 91.717 385.171 91.717C385.767 91.717 386.267 91.6347 386.672 91.47C387.078 91.318 387.382 91.0393 387.584 90.634C387.8 90.2413 387.907 89.6967 387.907 89V87.708C387.603 88.1007 387.204 88.43 386.71 88.696C386.216 88.9493 385.596 89.076 384.848 89.076C384.139 89.076 383.531 88.9557 383.024 88.715C382.518 88.4617 382.1 88.126 381.77 87.708C381.454 87.2773 381.213 86.7897 381.048 86.245C380.896 85.7003 380.808 85.1303 380.782 84.535C380.77 84.1803 380.77 83.832 380.782 83.49C380.808 82.8947 380.896 82.3247 381.048 81.78C381.213 81.2353 381.454 80.7477 381.77 80.317C382.1 79.8863 382.518 79.5507 383.024 79.31C383.531 79.0567 384.139 78.93 384.848 78.93C385.608 78.93 386.235 79.0757 386.729 79.367C387.236 79.6457 387.648 79.9877 387.964 80.393V79.576C387.964 79.4493 388.002 79.3417 388.078 79.253C388.167 79.1643 388.275 79.12 388.401 79.12H389.275C389.402 79.12 389.51 79.1643 389.598 79.253C389.687 79.3417 389.731 79.4493 389.731 79.576V88.791C389.731 89.6397 389.586 90.3933 389.294 91.052C389.016 91.7107 388.547 92.23 387.888 92.61C387.242 92.99 386.368 93.18 385.266 93.18ZM385.228 87.556C385.862 87.556 386.368 87.4103 386.748 87.119C387.141 86.8277 387.426 86.4603 387.603 86.017C387.793 85.5737 387.895 85.124 387.907 84.668C387.92 84.4907 387.926 84.2753 387.926 84.022C387.926 83.756 387.92 83.5343 387.907 83.357C387.895 82.901 387.793 82.4513 387.603 82.008C387.426 81.5647 387.141 81.1973 386.748 80.906C386.368 80.6147 385.862 80.469 385.228 80.469C384.595 80.469 384.088 80.6147 383.708 80.906C383.328 81.1847 383.056 81.5583 382.891 82.027C382.727 82.483 382.632 82.977 382.606 83.509C382.594 83.8383 382.594 84.174 382.606 84.516C382.632 85.048 382.727 85.5483 382.891 86.017C383.056 86.473 383.328 86.8467 383.708 87.138C384.088 87.4167 384.595 87.556 385.228 87.556ZM396.489 89.19C395.185 89.19 394.146 88.791 393.373 87.993C392.601 87.1823 392.176 86.0803 392.1 84.687C392.088 84.5223 392.081 84.3133 392.081 84.06C392.081 83.794 392.088 83.5787 392.1 83.414C392.151 82.5147 392.36 81.7293 392.727 81.058C393.095 80.374 393.595 79.8483 394.228 79.481C394.874 79.1137 395.628 78.93 396.489 78.93C397.452 78.93 398.256 79.1327 398.902 79.538C399.561 79.9433 400.061 80.5197 400.403 81.267C400.745 82.0143 400.916 82.8883 400.916 83.889V84.212C400.916 84.3513 400.872 84.459 400.783 84.535C400.707 84.611 400.606 84.649 400.479 84.649H393.905C393.905 84.6617 393.905 84.687 393.905 84.725C393.905 84.763 393.905 84.7947 393.905 84.82C393.931 85.3393 394.045 85.827 394.247 86.283C394.45 86.7263 394.741 87.0873 395.121 87.366C395.501 87.6447 395.957 87.784 396.489 87.784C396.945 87.784 397.325 87.7143 397.629 87.575C397.933 87.4357 398.18 87.2837 398.37 87.119C398.56 86.9417 398.687 86.8087 398.75 86.72C398.864 86.5553 398.953 86.4603 399.016 86.435C399.08 86.397 399.181 86.378 399.32 86.378H400.232C400.359 86.378 400.46 86.416 400.536 86.492C400.625 86.5553 400.663 86.6503 400.65 86.777C400.638 86.967 400.536 87.2013 400.346 87.48C400.156 87.746 399.884 88.012 399.529 88.278C399.175 88.544 398.744 88.7657 398.237 88.943C397.731 89.1077 397.148 89.19 396.489 89.19ZM393.905 83.338H399.111V83.281C399.111 82.711 399.004 82.2043 398.788 81.761C398.586 81.3177 398.288 80.9693 397.895 80.716C397.503 80.45 397.034 80.317 396.489 80.317C395.945 80.317 395.476 80.45 395.083 80.716C394.703 80.9693 394.412 81.3177 394.209 81.761C394.007 82.2043 393.905 82.711 393.905 83.281V83.338ZM406.99 89C406.28 89 405.704 88.867 405.261 88.601C404.817 88.3223 404.494 87.936 404.292 87.442C404.089 86.9353 403.988 86.34 403.988 85.656V80.64H402.506C402.379 80.64 402.271 80.602 402.183 80.526C402.107 80.4373 402.069 80.3297 402.069 80.203V79.557C402.069 79.4303 402.107 79.329 402.183 79.253C402.271 79.1643 402.379 79.12 402.506 79.12H403.988V75.947C403.988 75.8203 404.026 75.719 404.102 75.643C404.19 75.5543 404.298 75.51 404.425 75.51H405.318C405.444 75.51 405.546 75.5543 405.622 75.643C405.71 75.719 405.755 75.8203 405.755 75.947V79.12H408.111C408.237 79.12 408.339 79.1643 408.415 79.253C408.503 79.329 408.548 79.4303 408.548 79.557V80.203C408.548 80.3297 408.503 80.4373 408.415 80.526C408.339 80.602 408.237 80.64 408.111 80.64H405.755V85.523C405.755 86.1183 405.856 86.587 406.059 86.929C406.261 87.271 406.622 87.442 407.142 87.442H408.301C408.427 87.442 408.529 87.4863 408.605 87.575C408.693 87.651 408.738 87.7523 408.738 87.879V88.563C408.738 88.6897 408.693 88.7973 408.605 88.886C408.529 88.962 408.427 89 408.301 89H406.99ZM415.592 81.666C415.465 81.666 415.364 81.628 415.288 81.552C415.212 81.476 415.174 81.3747 415.174 81.248V80.602C415.174 80.4753 415.212 80.374 415.288 80.298C415.364 80.222 415.465 80.184 415.592 80.184H422.831C422.957 80.184 423.059 80.222 423.135 80.298C423.223 80.374 423.268 80.4753 423.268 80.602V81.248C423.268 81.3747 423.223 81.476 423.135 81.552C423.059 81.628 422.957 81.666 422.831 81.666H415.592ZM415.592 86.416C415.465 86.416 415.364 86.378 415.288 86.302C415.212 86.226 415.174 86.1247 415.174 85.998V85.352C415.174 85.2253 415.212 85.124 415.288 85.048C415.364 84.972 415.465 84.934 415.592 84.934H422.831C422.957 84.934 423.059 84.972 423.135 85.048C423.223 85.124 423.268 85.2253 423.268 85.352V85.998C423.268 86.1247 423.223 86.226 423.135 86.302C423.059 86.378 422.957 86.416 422.831 86.416H415.592ZM433.612 79.177C433.523 79.177 433.447 79.1453 433.384 79.082C433.333 79.0187 433.308 78.9427 433.308 78.854C433.308 78.7527 433.327 78.6513 433.365 78.55L434.372 75.947C434.435 75.8203 434.498 75.719 434.562 75.643C434.638 75.5543 434.758 75.51 434.923 75.51H435.55C435.651 75.51 435.727 75.548 435.778 75.624C435.841 75.7 435.86 75.8013 435.835 75.928L435.417 78.626C435.404 78.778 435.353 78.911 435.265 79.025C435.176 79.1263 435.043 79.177 434.866 79.177H433.612ZM430.572 79.177C430.483 79.177 430.407 79.1453 430.344 79.082C430.293 79.0187 430.268 78.9427 430.268 78.854C430.268 78.7527 430.287 78.6513 430.325 78.55L431.332 75.947C431.395 75.8203 431.465 75.719 431.541 75.643C431.617 75.5543 431.731 75.51 431.883 75.51H432.51C432.611 75.51 432.687 75.548 432.738 75.624C432.801 75.7 432.82 75.8013 432.795 75.928L432.377 78.626C432.364 78.778 432.313 78.911 432.225 79.025C432.136 79.1263 432.009 79.177 431.845 79.177H430.572ZM512.358 79.177C512.269 79.177 512.193 79.1453 512.13 79.082C512.079 79.0187 512.054 78.9427 512.054 78.854C512.054 78.7527 512.073 78.6513 512.111 78.55L513.118 75.947C513.181 75.8203 513.245 75.719 513.308 75.643C513.384 75.5543 513.504 75.51 513.669 75.51H514.296C514.397 75.51 514.473 75.548 514.524 75.624C514.587 75.7 514.606 75.8013 514.581 75.928L514.163 78.626C514.15 78.778 514.1 78.911 514.011 79.025C513.922 79.1263 513.789 79.177 513.612 79.177H512.358ZM509.318 79.177C509.229 79.177 509.153 79.1453 509.09 79.082C509.039 79.0187 509.014 78.9427 509.014 78.854C509.014 78.7527 509.033 78.6513 509.071 78.55L510.078 75.947C510.141 75.8203 510.211 75.719 510.287 75.643C510.363 75.5543 510.477 75.51 510.629 75.51H511.256C511.357 75.51 511.433 75.548 511.484 75.624C511.547 75.7 511.566 75.8013 511.541 75.928L511.123 78.626C511.11 78.778 511.06 78.911 510.971 79.025C510.882 79.1263 510.756 79.177 510.591 79.177H509.318Z" fill="white" fill-opacity="0.75"/>
<path d="M178.441 90.596C178.34 90.596 178.251 90.558 178.175 90.482C178.099 90.406 178.061 90.3173 178.061 90.216C178.061 90.1527 178.08 90.0767 178.118 89.988L184.616 74.408C184.654 74.332 184.705 74.256 184.768 74.18C184.844 74.104 184.958 74.066 185.11 74.066H185.851C185.953 74.066 186.041 74.104 186.117 74.18C186.193 74.256 186.231 74.3447 186.231 74.446C186.231 74.4967 186.219 74.5727 186.193 74.674L179.676 90.254C179.651 90.3173 179.594 90.387 179.505 90.463C179.429 90.5517 179.322 90.596 179.182 90.596H178.441ZM189.93 89.19C189.296 89.19 188.72 89.0633 188.201 88.81C187.681 88.5567 187.263 88.2147 186.947 87.784C186.63 87.3533 186.472 86.8657 186.472 86.321C186.472 85.447 186.826 84.7503 187.536 84.231C188.245 83.7117 189.17 83.3697 190.31 83.205L193.141 82.806V82.255C193.141 81.647 192.963 81.172 192.609 80.83C192.267 80.488 191.703 80.317 190.918 80.317C190.348 80.317 189.885 80.431 189.531 80.659C189.189 80.887 188.948 81.1783 188.809 81.533C188.733 81.723 188.6 81.818 188.41 81.818H187.555C187.415 81.818 187.308 81.78 187.232 81.704C187.168 81.6153 187.137 81.514 187.137 81.4C187.137 81.21 187.206 80.9757 187.346 80.697C187.498 80.4183 187.726 80.146 188.03 79.88C188.334 79.614 188.72 79.3923 189.189 79.215C189.67 79.025 190.253 78.93 190.937 78.93C191.697 78.93 192.336 79.0313 192.856 79.234C193.375 79.424 193.78 79.6837 194.072 80.013C194.376 80.3423 194.591 80.716 194.718 81.134C194.857 81.552 194.927 81.9763 194.927 82.407V88.563C194.927 88.6897 194.882 88.7973 194.794 88.886C194.718 88.962 194.616 89 194.49 89H193.616C193.476 89 193.369 88.962 193.293 88.886C193.217 88.7973 193.179 88.6897 193.179 88.563V87.746C193.014 87.974 192.792 88.202 192.514 88.43C192.235 88.6453 191.887 88.829 191.469 88.981C191.051 89.1203 190.538 89.19 189.93 89.19ZM190.329 87.765C190.848 87.765 191.323 87.6573 191.754 87.442C192.184 87.214 192.52 86.8657 192.761 86.397C193.014 85.9283 193.141 85.3393 193.141 84.63V84.098L190.937 84.421C190.037 84.5477 189.36 84.763 188.904 85.067C188.448 85.3583 188.22 85.732 188.22 86.188C188.22 86.5427 188.321 86.8403 188.524 87.081C188.739 87.309 189.005 87.48 189.322 87.594C189.651 87.708 189.987 87.765 190.329 87.765ZM201.648 89.19C200.749 89.19 199.97 89.019 199.311 88.677C198.665 88.3223 198.165 87.822 197.81 87.176C197.455 86.5173 197.265 85.732 197.24 84.82C197.227 84.63 197.221 84.3767 197.221 84.06C197.221 83.7433 197.227 83.49 197.24 83.3C197.265 82.388 197.455 81.609 197.81 80.963C198.165 80.3043 198.665 79.804 199.311 79.462C199.97 79.1073 200.749 78.93 201.648 78.93C202.383 78.93 203.01 79.0313 203.529 79.234C204.061 79.4367 204.498 79.6963 204.84 80.013C205.182 80.3297 205.435 80.6717 205.6 81.039C205.777 81.4063 205.872 81.7547 205.885 82.084C205.898 82.2107 205.86 82.312 205.771 82.388C205.682 82.464 205.575 82.502 205.448 82.502H204.536C204.409 82.502 204.314 82.4767 204.251 82.426C204.188 82.3627 204.124 82.2613 204.061 82.122C203.833 81.5013 203.523 81.0643 203.13 80.811C202.737 80.5577 202.25 80.431 201.667 80.431C200.907 80.431 200.286 80.6653 199.805 81.134C199.336 81.6027 199.083 82.3563 199.045 83.395C199.032 83.851 199.032 84.2943 199.045 84.725C199.083 85.7763 199.336 86.5363 199.805 87.005C200.286 87.461 200.907 87.689 201.667 87.689C202.25 87.689 202.737 87.5623 203.13 87.309C203.523 87.0557 203.833 86.6187 204.061 85.998C204.124 85.8587 204.188 85.7637 204.251 85.713C204.314 85.6497 204.409 85.618 204.536 85.618H205.448C205.575 85.618 205.682 85.656 205.771 85.732C205.86 85.808 205.898 85.9093 205.885 86.036C205.872 86.302 205.815 86.5743 205.714 86.853C205.613 87.1317 205.448 87.4167 205.22 87.708C205.005 87.9867 204.732 88.24 204.403 88.468C204.074 88.6833 203.675 88.8607 203.206 89C202.75 89.1267 202.231 89.19 201.648 89.19ZM211.998 89C211.289 89 210.713 88.867 210.269 88.601C209.826 88.3223 209.503 87.936 209.3 87.442C209.098 86.9353 208.996 86.34 208.996 85.656V80.64H207.514C207.388 80.64 207.28 80.602 207.191 80.526C207.115 80.4373 207.077 80.3297 207.077 80.203V79.557C207.077 79.4303 207.115 79.329 207.191 79.253C207.28 79.1643 207.388 79.12 207.514 79.12H208.996V75.947C208.996 75.8203 209.034 75.719 209.11 75.643C209.199 75.5543 209.307 75.51 209.433 75.51H210.326C210.453 75.51 210.554 75.5543 210.63 75.643C210.719 75.719 210.763 75.8203 210.763 75.947V79.12H213.119C213.246 79.12 213.347 79.1643 213.423 79.253C213.512 79.329 213.556 79.4303 213.556 79.557V80.203C213.556 80.3297 213.512 80.4373 213.423 80.526C213.347 80.602 213.246 80.64 213.119 80.64H210.763V85.523C210.763 86.1183 210.865 86.587 211.067 86.929C211.27 87.271 211.631 87.442 212.15 87.442H213.309C213.436 87.442 213.537 87.4863 213.613 87.575C213.702 87.651 213.746 87.7523 213.746 87.879V88.563C213.746 88.6897 213.702 88.7973 213.613 88.886C213.537 88.962 213.436 89 213.309 89H211.998ZM216 89C215.874 89 215.766 88.962 215.677 88.886C215.601 88.7973 215.563 88.6897 215.563 88.563V79.557C215.563 79.4303 215.601 79.329 215.677 79.253C215.766 79.1643 215.874 79.12 216 79.12H216.912C217.039 79.12 217.14 79.1643 217.216 79.253C217.292 79.329 217.33 79.4303 217.33 79.557V88.563C217.33 88.6897 217.292 88.7973 217.216 88.886C217.14 88.962 217.039 89 216.912 89H216ZM215.848 77.277C215.722 77.277 215.614 77.239 215.525 77.163C215.449 77.0743 215.411 76.9667 215.411 76.84V75.814C215.411 75.6873 215.449 75.586 215.525 75.51C215.614 75.4213 215.722 75.377 215.848 75.377H217.045C217.172 75.377 217.273 75.4213 217.349 75.51C217.438 75.586 217.482 75.6873 217.482 75.814V76.84C217.482 76.9667 217.438 77.0743 217.349 77.163C217.273 77.239 217.172 77.277 217.045 77.277H215.848ZM224.249 89.19C223.286 89.19 222.482 89.0063 221.836 88.639C221.19 88.2717 220.696 87.765 220.354 87.119C220.012 86.4603 219.822 85.713 219.784 84.877C219.771 84.6617 219.765 84.3893 219.765 84.06C219.765 83.718 219.771 83.4457 219.784 83.243C219.822 82.3943 220.012 81.647 220.354 81.001C220.709 80.355 221.209 79.8483 221.855 79.481C222.501 79.1137 223.299 78.93 224.249 78.93C225.199 78.93 225.997 79.1137 226.643 79.481C227.289 79.8483 227.783 80.355 228.125 81.001C228.48 81.647 228.676 82.3943 228.714 83.243C228.727 83.4457 228.733 83.718 228.733 84.06C228.733 84.3893 228.727 84.6617 228.714 84.877C228.676 85.713 228.486 86.4603 228.144 87.119C227.802 87.765 227.308 88.2717 226.662 88.639C226.016 89.0063 225.212 89.19 224.249 89.19ZM224.249 87.727C225.034 87.727 225.661 87.48 226.13 86.986C226.599 86.4793 226.852 85.7447 226.89 84.782C226.903 84.592 226.909 84.3513 226.909 84.06C226.909 83.7687 226.903 83.528 226.89 83.338C226.852 82.3753 226.599 81.647 226.13 81.153C225.661 80.6463 225.034 80.393 224.249 80.393C223.464 80.393 222.83 80.6463 222.349 81.153C221.88 81.647 221.633 82.3753 221.608 83.338C221.595 83.528 221.589 83.7687 221.589 84.06C221.589 84.3513 221.595 84.592 221.608 84.782C221.633 85.7447 221.88 86.4793 222.349 86.986C222.83 87.48 223.464 87.727 224.249 87.727ZM231.549 89C231.422 89 231.315 88.962 231.226 88.886C231.15 88.7973 231.112 88.6897 231.112 88.563V79.557C231.112 79.4303 231.15 79.329 231.226 79.253C231.315 79.1643 231.422 79.12 231.549 79.12H232.442C232.569 79.12 232.67 79.1643 232.746 79.253C232.835 79.329 232.879 79.4303 232.879 79.557V80.393C233.208 79.9623 233.62 79.614 234.114 79.348C234.621 79.0693 235.267 78.93 236.052 78.93C236.875 78.93 237.572 79.1137 238.142 79.481C238.725 79.8357 239.162 80.336 239.453 80.982C239.744 81.6153 239.89 82.3563 239.89 83.205V88.563C239.89 88.6897 239.852 88.7973 239.776 88.886C239.7 88.962 239.599 89 239.472 89H238.522C238.395 89 238.288 88.962 238.199 88.886C238.123 88.7973 238.085 88.6897 238.085 88.563V83.3C238.085 82.4133 237.87 81.723 237.439 81.229C237.008 80.7223 236.375 80.469 235.539 80.469C234.754 80.469 234.12 80.7223 233.639 81.229C233.17 81.723 232.936 82.4133 232.936 83.3V88.563C232.936 88.6897 232.892 88.7973 232.803 88.886C232.727 88.962 232.626 89 232.499 89H231.549ZM242.825 89.779C242.685 89.779 242.578 89.7347 242.502 89.646C242.426 89.57 242.388 89.4687 242.388 89.342V88.62C242.388 88.4933 242.426 88.392 242.502 88.316C242.578 88.2273 242.685 88.183 242.825 88.183H253.845C253.971 88.183 254.073 88.2273 254.149 88.316C254.237 88.392 254.282 88.4933 254.282 88.62V89.342C254.282 89.4687 254.237 89.57 254.149 89.646C254.073 89.7347 253.971 89.779 253.845 89.779H242.825ZM257.303 92.61C257.177 92.61 257.069 92.5657 256.98 92.477C256.904 92.401 256.866 92.2997 256.866 92.173V79.557C256.866 79.4303 256.904 79.329 256.98 79.253C257.069 79.1643 257.177 79.12 257.303 79.12H258.177C258.304 79.12 258.405 79.1643 258.481 79.253C258.57 79.329 258.614 79.4303 258.614 79.557V80.393C258.918 79.975 259.324 79.6267 259.83 79.348C260.337 79.0693 260.97 78.93 261.73 78.93C262.44 78.93 263.041 79.0503 263.535 79.291C264.042 79.5317 264.454 79.861 264.77 80.279C265.1 80.697 265.347 81.172 265.511 81.704C265.676 82.236 265.765 82.806 265.777 83.414C265.79 83.6167 265.796 83.832 265.796 84.06C265.796 84.288 265.79 84.5033 265.777 84.706C265.765 85.3013 265.676 85.8713 265.511 86.416C265.347 86.948 265.1 87.423 264.77 87.841C264.454 88.2463 264.042 88.5757 263.535 88.829C263.041 89.0697 262.44 89.19 261.73 89.19C260.996 89.19 260.375 89.057 259.868 88.791C259.374 88.5123 258.969 88.1703 258.652 87.765V92.173C258.652 92.2997 258.614 92.401 258.538 92.477C258.462 92.5657 258.355 92.61 258.215 92.61H257.303ZM261.331 87.651C261.99 87.651 262.503 87.5117 262.87 87.233C263.25 86.9417 263.523 86.568 263.687 86.112C263.852 85.6433 263.947 85.143 263.972 84.611C263.985 84.2437 263.985 83.8763 263.972 83.509C263.947 82.977 263.852 82.483 263.687 82.027C263.523 81.5583 263.25 81.1847 262.87 80.906C262.503 80.6147 261.99 80.469 261.331 80.469C260.711 80.469 260.204 80.6147 259.811 80.906C259.431 81.1973 259.146 81.571 258.956 82.027C258.779 82.4703 258.678 82.9263 258.652 83.395C258.64 83.5977 258.633 83.8383 258.633 84.117C258.633 84.3957 258.64 84.6427 258.652 84.858C258.665 85.3013 258.766 85.7383 258.956 86.169C259.159 86.5997 259.457 86.9543 259.849 87.233C260.242 87.5117 260.736 87.651 261.331 87.651ZM270.921 89.19C270.287 89.19 269.711 89.0633 269.192 88.81C268.672 88.5567 268.254 88.2147 267.938 87.784C267.621 87.3533 267.463 86.8657 267.463 86.321C267.463 85.447 267.817 84.7503 268.527 84.231C269.236 83.7117 270.161 83.3697 271.301 83.205L274.132 82.806V82.255C274.132 81.647 273.954 81.172 273.6 80.83C273.258 80.488 272.694 80.317 271.909 80.317C271.339 80.317 270.876 80.431 270.522 80.659C270.18 80.887 269.939 81.1783 269.8 81.533C269.724 81.723 269.591 81.818 269.401 81.818H268.546C268.406 81.818 268.299 81.78 268.223 81.704C268.159 81.6153 268.128 81.514 268.128 81.4C268.128 81.21 268.197 80.9757 268.337 80.697C268.489 80.4183 268.717 80.146 269.021 79.88C269.325 79.614 269.711 79.3923 270.18 79.215C270.661 79.025 271.244 78.93 271.928 78.93C272.688 78.93 273.327 79.0313 273.847 79.234C274.366 79.424 274.771 79.6837 275.063 80.013C275.367 80.3423 275.582 80.716 275.709 81.134C275.848 81.552 275.918 81.9763 275.918 82.407V88.563C275.918 88.6897 275.873 88.7973 275.785 88.886C275.709 88.962 275.607 89 275.481 89H274.607C274.467 89 274.36 88.962 274.284 88.886C274.208 88.7973 274.17 88.6897 274.17 88.563V87.746C274.005 87.974 273.783 88.202 273.505 88.43C273.226 88.6453 272.878 88.829 272.46 88.981C272.042 89.1203 271.529 89.19 270.921 89.19ZM271.32 87.765C271.839 87.765 272.314 87.6573 272.745 87.442C273.175 87.214 273.511 86.8657 273.752 86.397C274.005 85.9283 274.132 85.3393 274.132 84.63V84.098L271.928 84.421C271.028 84.5477 270.351 84.763 269.895 85.067C269.439 85.3583 269.211 85.732 269.211 86.188C269.211 86.5427 269.312 86.8403 269.515 87.081C269.73 87.309 269.996 87.48 270.313 87.594C270.642 87.708 270.978 87.765 271.32 87.765ZM282.696 93.18C281.835 93.18 281.125 93.066 280.568 92.838C280.023 92.61 279.593 92.3313 279.276 92.002C278.972 91.6853 278.75 91.3623 278.611 91.033C278.484 90.7163 278.415 90.463 278.402 90.273C278.389 90.1463 278.427 90.0387 278.516 89.95C278.617 89.8613 278.725 89.817 278.839 89.817H279.751C279.865 89.817 279.96 89.8423 280.036 89.893C280.112 89.9437 280.175 90.0513 280.226 90.216C280.302 90.406 280.416 90.615 280.568 90.843C280.72 91.0837 280.954 91.2863 281.271 91.451C281.588 91.6283 282.031 91.717 282.601 91.717C283.196 91.717 283.697 91.6347 284.102 91.47C284.507 91.318 284.811 91.0393 285.014 90.634C285.229 90.2413 285.337 89.6967 285.337 89V87.708C285.033 88.1007 284.634 88.43 284.14 88.696C283.646 88.9493 283.025 89.076 282.278 89.076C281.569 89.076 280.961 88.9557 280.454 88.715C279.947 88.4617 279.529 88.126 279.2 87.708C278.883 87.2773 278.643 86.7897 278.478 86.245C278.326 85.7003 278.237 85.1303 278.212 84.535C278.199 84.1803 278.199 83.832 278.212 83.49C278.237 82.8947 278.326 82.3247 278.478 81.78C278.643 81.2353 278.883 80.7477 279.2 80.317C279.529 79.8863 279.947 79.5507 280.454 79.31C280.961 79.0567 281.569 78.93 282.278 78.93C283.038 78.93 283.665 79.0757 284.159 79.367C284.666 79.6457 285.077 79.9877 285.394 80.393V79.576C285.394 79.4493 285.432 79.3417 285.508 79.253C285.597 79.1643 285.704 79.12 285.831 79.12H286.705C286.832 79.12 286.939 79.1643 287.028 79.253C287.117 79.3417 287.161 79.4493 287.161 79.576V88.791C287.161 89.6397 287.015 90.3933 286.724 91.052C286.445 91.7107 285.977 92.23 285.318 92.61C284.672 92.99 283.798 93.18 282.696 93.18ZM282.658 87.556C283.291 87.556 283.798 87.4103 284.178 87.119C284.571 86.8277 284.856 86.4603 285.033 86.017C285.223 85.5737 285.324 85.124 285.337 84.668C285.35 84.4907 285.356 84.2753 285.356 84.022C285.356 83.756 285.35 83.5343 285.337 83.357C285.324 82.901 285.223 82.4513 285.033 82.008C284.856 81.5647 284.571 81.1973 284.178 80.906C283.798 80.6147 283.291 80.469 282.658 80.469C282.025 80.469 281.518 80.6147 281.138 80.906C280.758 81.1847 280.486 81.5583 280.321 82.027C280.156 82.483 280.061 82.977 280.036 83.509C280.023 83.8383 280.023 84.174 280.036 84.516C280.061 85.048 280.156 85.5483 280.321 86.017C280.486 86.473 280.758 86.8467 281.138 87.138C281.518 87.4167 282.025 87.556 282.658 87.556ZM293.919 89.19C292.614 89.19 291.576 88.791 290.803 87.993C290.03 87.1823 289.606 86.0803 289.53 84.687C289.517 84.5223 289.511 84.3133 289.511 84.06C289.511 83.794 289.517 83.5787 289.53 83.414C289.581 82.5147 289.79 81.7293 290.157 81.058C290.524 80.374 291.025 79.8483 291.658 79.481C292.304 79.1137 293.058 78.93 293.919 78.93C294.882 78.93 295.686 79.1327 296.332 79.538C296.991 79.9433 297.491 80.5197 297.833 81.267C298.175 82.0143 298.346 82.8883 298.346 83.889V84.212C298.346 84.3513 298.302 84.459 298.213 84.535C298.137 84.611 298.036 84.649 297.909 84.649H291.335C291.335 84.6617 291.335 84.687 291.335 84.725C291.335 84.763 291.335 84.7947 291.335 84.82C291.36 85.3393 291.474 85.827 291.677 86.283C291.88 86.7263 292.171 87.0873 292.551 87.366C292.931 87.6447 293.387 87.784 293.919 87.784C294.375 87.784 294.755 87.7143 295.059 87.575C295.363 87.4357 295.61 87.2837 295.8 87.119C295.99 86.9417 296.117 86.8087 296.18 86.72C296.294 86.5553 296.383 86.4603 296.446 86.435C296.509 86.397 296.611 86.378 296.75 86.378H297.662C297.789 86.378 297.89 86.416 297.966 86.492C298.055 86.5553 298.093 86.6503 298.08 86.777C298.067 86.967 297.966 87.2013 297.776 87.48C297.586 87.746 297.314 88.012 296.959 88.278C296.604 88.544 296.174 88.7657 295.667 88.943C295.16 89.1077 294.578 89.19 293.919 89.19ZM291.335 83.338H296.541V83.281C296.541 82.711 296.433 82.2043 296.218 81.761C296.015 81.3177 295.718 80.9693 295.325 80.716C294.932 80.45 294.464 80.317 293.919 80.317C293.374 80.317 292.906 80.45 292.513 80.716C292.133 80.9693 291.842 81.3177 291.639 81.761C291.436 82.2043 291.335 82.711 291.335 83.281V83.338ZM300.922 89C300.795 89 300.688 88.962 300.599 88.886C300.523 88.7973 300.485 88.6897 300.485 88.563V87.195C300.485 87.0683 300.523 86.967 300.599 86.891C300.688 86.8023 300.795 86.758 300.922 86.758H302.29C302.417 86.758 302.518 86.8023 302.594 86.891C302.683 86.967 302.727 87.0683 302.727 87.195V88.563C302.727 88.6897 302.683 88.7973 302.594 88.886C302.518 88.962 302.417 89 302.29 89H300.922ZM305.861 92.61C305.734 92.61 305.627 92.5657 305.538 92.477C305.462 92.401 305.424 92.2997 305.424 92.173V79.557C305.424 79.4303 305.462 79.329 305.538 79.253C305.627 79.1643 305.734 79.12 305.861 79.12H306.735C306.862 79.12 306.963 79.1643 307.039 79.253C307.128 79.329 307.172 79.4303 307.172 79.557V80.393C307.476 79.975 307.881 79.6267 308.388 79.348C308.895 79.0693 309.528 78.93 310.288 78.93C310.997 78.93 311.599 79.0503 312.093 79.291C312.6 79.5317 313.011 79.861 313.328 80.279C313.657 80.697 313.904 81.172 314.069 81.704C314.234 82.236 314.322 82.806 314.335 83.414C314.348 83.6167 314.354 83.832 314.354 84.06C314.354 84.288 314.348 84.5033 314.335 84.706C314.322 85.3013 314.234 85.8713 314.069 86.416C313.904 86.948 313.657 87.423 313.328 87.841C313.011 88.2463 312.6 88.5757 312.093 88.829C311.599 89.0697 310.997 89.19 310.288 89.19C309.553 89.19 308.933 89.057 308.426 88.791C307.932 88.5123 307.527 88.1703 307.21 87.765V92.173C307.21 92.2997 307.172 92.401 307.096 92.477C307.02 92.5657 306.912 92.61 306.773 92.61H305.861ZM309.889 87.651C310.548 87.651 311.061 87.5117 311.428 87.233C311.808 86.9417 312.08 86.568 312.245 86.112C312.41 85.6433 312.505 85.143 312.53 84.611C312.543 84.2437 312.543 83.8763 312.53 83.509C312.505 82.977 312.41 82.483 312.245 82.027C312.08 81.5583 311.808 81.1847 311.428 80.906C311.061 80.6147 310.548 80.469 309.889 80.469C309.268 80.469 308.762 80.6147 308.369 80.906C307.989 81.1973 307.704 81.571 307.514 82.027C307.337 82.4703 307.235 82.9263 307.21 83.395C307.197 83.5977 307.191 83.8383 307.191 84.117C307.191 84.3957 307.197 84.6427 307.21 84.858C307.223 85.3013 307.324 85.7383 307.514 86.169C307.717 86.5997 308.014 86.9543 308.407 87.233C308.8 87.5117 309.294 87.651 309.889 87.651ZM317.179 89C317.053 89 316.945 88.962 316.856 88.886C316.78 88.7973 316.742 88.6897 316.742 88.563V75.947C316.742 75.8203 316.78 75.719 316.856 75.643C316.945 75.5543 317.053 75.51 317.179 75.51H318.129C318.269 75.51 318.376 75.5543 318.452 75.643C318.528 75.719 318.566 75.8203 318.566 75.947V80.374C318.908 79.9433 319.326 79.595 319.82 79.329C320.314 79.063 320.941 78.93 321.701 78.93C322.525 78.93 323.221 79.1137 323.791 79.481C324.374 79.8357 324.811 80.336 325.102 80.982C325.406 81.6153 325.558 82.3563 325.558 83.205V88.563C325.558 88.6897 325.52 88.7973 325.444 88.886C325.368 88.962 325.261 89 325.121 89H324.171C324.045 89 323.937 88.962 323.848 88.886C323.772 88.7973 323.734 88.6897 323.734 88.563V83.3C323.734 82.4133 323.519 81.723 323.088 81.229C322.658 80.7223 322.024 80.469 321.188 80.469C320.403 80.469 319.77 80.7223 319.288 81.229C318.807 81.723 318.566 82.4133 318.566 83.3V88.563C318.566 88.6897 318.528 88.7973 318.452 88.886C318.376 88.962 318.269 89 318.129 89H317.179ZM328.758 92.61C328.631 92.61 328.523 92.5657 328.435 92.477C328.359 92.401 328.321 92.2997 328.321 92.173V79.557C328.321 79.4303 328.359 79.329 328.435 79.253C328.523 79.1643 328.631 79.12 328.758 79.12H329.632C329.758 79.12 329.86 79.1643 329.936 79.253C330.024 79.329 330.069 79.4303 330.069 79.557V80.393C330.373 79.975 330.778 79.6267 331.285 79.348C331.791 79.0693 332.425 78.93 333.185 78.93C333.894 78.93 334.496 79.0503 334.99 79.291C335.496 79.5317 335.908 79.861 336.225 80.279C336.554 80.697 336.801 81.172 336.966 81.704C337.13 82.236 337.219 82.806 337.232 83.414C337.244 83.6167 337.251 83.832 337.251 84.06C337.251 84.288 337.244 84.5033 337.232 84.706C337.219 85.3013 337.13 85.8713 336.966 86.416C336.801 86.948 336.554 87.423 336.225 87.841C335.908 88.2463 335.496 88.5757 334.99 88.829C334.496 89.0697 333.894 89.19 333.185 89.19C332.45 89.19 331.829 89.057 331.323 88.791C330.829 88.5123 330.423 88.1703 330.107 87.765V92.173C330.107 92.2997 330.069 92.401 329.993 92.477C329.917 92.5657 329.809 92.61 329.67 92.61H328.758ZM332.786 87.651C333.444 87.651 333.957 87.5117 334.325 87.233C334.705 86.9417 334.977 86.568 335.142 86.112C335.306 85.6433 335.401 85.143 335.427 84.611C335.439 84.2437 335.439 83.8763 335.427 83.509C335.401 82.977 335.306 82.483 335.142 82.027C334.977 81.5583 334.705 81.1847 334.325 80.906C333.957 80.6147 333.444 80.469 332.786 80.469C332.165 80.469 331.658 80.6147 331.266 80.906C330.886 81.1973 330.601 81.571 330.411 82.027C330.233 82.4703 330.132 82.9263 330.107 83.395C330.094 83.5977 330.088 83.8383 330.088 84.117C330.088 84.3957 330.094 84.6427 330.107 84.858C330.119 85.3013 330.221 85.7383 330.411 86.169C330.613 86.5997 330.911 86.9543 331.304 87.233C331.696 87.5117 332.19 87.651 332.786 87.651ZM443.048 89.779C442.909 89.779 442.801 89.7347 442.725 89.646C442.649 89.57 442.611 89.4687 442.611 89.342V88.62C442.611 88.4933 442.649 88.392 442.725 88.316C442.801 88.2273 442.909 88.183 443.048 88.183H454.068C454.195 88.183 454.296 88.2273 454.372 88.316C454.461 88.392 454.505 88.4933 454.505 88.62V89.342C454.505 89.4687 454.461 89.57 454.372 89.646C454.296 89.7347 454.195 89.779 454.068 89.779H443.048ZM461.954 89.19C461.194 89.19 460.561 89.057 460.054 88.791C459.547 88.5123 459.142 88.1703 458.838 87.765V88.563C458.838 88.6897 458.794 88.7973 458.705 88.886C458.629 88.962 458.528 89 458.401 89H457.527C457.4 89 457.293 88.962 457.204 88.886C457.128 88.7973 457.09 88.6897 457.09 88.563V75.947C457.09 75.8203 457.128 75.719 457.204 75.643C457.293 75.5543 457.4 75.51 457.527 75.51H458.439C458.578 75.51 458.686 75.5543 458.762 75.643C458.838 75.719 458.876 75.8203 458.876 75.947V80.317C459.193 79.9243 459.598 79.595 460.092 79.329C460.599 79.063 461.219 78.93 461.954 78.93C462.663 78.93 463.265 79.0567 463.759 79.31C464.266 79.5507 464.677 79.8863 464.994 80.317C465.323 80.7477 465.57 81.2353 465.735 81.78C465.9 82.3247 465.988 82.8947 466.001 83.49C466.014 83.6927 466.02 83.8827 466.02 84.06C466.02 84.2373 466.014 84.4273 466.001 84.63C465.988 85.238 465.9 85.8143 465.735 86.359C465.57 86.9037 465.323 87.3913 464.994 87.822C464.677 88.24 464.266 88.5757 463.759 88.829C463.265 89.0697 462.663 89.19 461.954 89.19ZM461.555 87.651C462.214 87.651 462.727 87.5117 463.094 87.233C463.474 86.9417 463.746 86.568 463.911 86.112C464.076 85.6433 464.171 85.143 464.196 84.611C464.209 84.2437 464.209 83.8763 464.196 83.509C464.171 82.977 464.076 82.483 463.911 82.027C463.746 81.5583 463.474 81.1847 463.094 80.906C462.727 80.6147 462.214 80.469 461.555 80.469C460.96 80.469 460.466 80.6083 460.073 80.887C459.68 81.1657 459.383 81.5203 459.18 81.951C458.99 82.3817 458.889 82.8187 458.876 83.262C458.863 83.4647 458.857 83.7117 458.857 84.003C458.857 84.2817 458.863 84.5223 458.876 84.725C458.901 85.1937 459.003 85.656 459.18 86.112C459.37 86.5553 459.655 86.9227 460.035 87.214C460.428 87.5053 460.934 87.651 461.555 87.651ZM468.827 89C468.7 89 468.593 88.962 468.504 88.886C468.428 88.7973 468.39 88.6897 468.39 88.563V75.947C468.39 75.8203 468.428 75.719 468.504 75.643C468.593 75.5543 468.7 75.51 468.827 75.51H469.72C469.859 75.51 469.967 75.5543 470.043 75.643C470.119 75.719 470.157 75.8203 470.157 75.947V88.563C470.157 88.6897 470.119 88.7973 470.043 88.886C469.967 88.962 469.859 89 469.72 89H468.827ZM475.746 89.19C475.113 89.19 474.536 89.0633 474.017 88.81C473.498 88.5567 473.08 88.2147 472.763 87.784C472.446 87.3533 472.288 86.8657 472.288 86.321C472.288 85.447 472.643 84.7503 473.352 84.231C474.061 83.7117 474.986 83.3697 476.126 83.205L478.957 82.806V82.255C478.957 81.647 478.78 81.172 478.425 80.83C478.083 80.488 477.519 80.317 476.734 80.317C476.164 80.317 475.702 80.431 475.347 80.659C475.005 80.887 474.764 81.1783 474.625 81.533C474.549 81.723 474.416 81.818 474.226 81.818H473.371C473.232 81.818 473.124 81.78 473.048 81.704C472.985 81.6153 472.953 81.514 472.953 81.4C472.953 81.21 473.023 80.9757 473.162 80.697C473.314 80.4183 473.542 80.146 473.846 79.88C474.15 79.614 474.536 79.3923 475.005 79.215C475.486 79.025 476.069 78.93 476.753 78.93C477.513 78.93 478.153 79.0313 478.672 79.234C479.191 79.424 479.597 79.6837 479.888 80.013C480.192 80.3423 480.407 80.716 480.534 81.134C480.673 81.552 480.743 81.9763 480.743 82.407V88.563C480.743 88.6897 480.699 88.7973 480.61 88.886C480.534 88.962 480.433 89 480.306 89H479.432C479.293 89 479.185 88.962 479.109 88.886C479.033 88.7973 478.995 88.6897 478.995 88.563V87.746C478.83 87.974 478.609 88.202 478.33 88.43C478.051 88.6453 477.703 88.829 477.285 88.981C476.867 89.1203 476.354 89.19 475.746 89.19ZM476.145 87.765C476.664 87.765 477.139 87.6573 477.57 87.442C478.001 87.214 478.336 86.8657 478.577 86.397C478.83 85.9283 478.957 85.3393 478.957 84.63V84.098L476.753 84.421C475.854 84.5477 475.176 84.763 474.72 85.067C474.264 85.3583 474.036 85.732 474.036 86.188C474.036 86.5427 474.137 86.8403 474.34 87.081C474.555 87.309 474.821 87.48 475.138 87.594C475.467 87.708 475.803 87.765 476.145 87.765ZM483.911 89C483.785 89 483.677 88.962 483.588 88.886C483.512 88.7973 483.474 88.6897 483.474 88.563V79.557C483.474 79.4303 483.512 79.329 483.588 79.253C483.677 79.1643 483.785 79.12 483.911 79.12H484.804C484.931 79.12 485.032 79.1643 485.108 79.253C485.197 79.329 485.241 79.4303 485.241 79.557V80.393C485.571 79.9623 485.982 79.614 486.476 79.348C486.983 79.0693 487.629 78.93 488.414 78.93C489.238 78.93 489.934 79.1137 490.504 79.481C491.087 79.8357 491.524 80.336 491.815 80.982C492.107 81.6153 492.252 82.3563 492.252 83.205V88.563C492.252 88.6897 492.214 88.7973 492.138 88.886C492.062 88.962 491.961 89 491.834 89H490.884C490.758 89 490.65 88.962 490.561 88.886C490.485 88.7973 490.447 88.6897 490.447 88.563V83.3C490.447 82.4133 490.232 81.723 489.801 81.229C489.371 80.7223 488.737 80.469 487.901 80.469C487.116 80.469 486.483 80.7223 486.001 81.229C485.533 81.723 485.298 82.4133 485.298 83.3V88.563C485.298 88.6897 485.254 88.7973 485.165 88.886C485.089 88.962 484.988 89 484.861 89H483.911ZM495.453 89C495.326 89 495.218 88.962 495.13 88.886C495.054 88.7973 495.016 88.6897 495.016 88.563V75.947C495.016 75.8203 495.054 75.719 495.13 75.643C495.218 75.5543 495.326 75.51 495.453 75.51H496.346C496.472 75.51 496.574 75.5543 496.65 75.643C496.738 75.719 496.783 75.8203 496.783 75.947V82.559L500.526 79.443C500.678 79.3163 500.792 79.234 500.868 79.196C500.956 79.1453 501.096 79.12 501.286 79.12H502.293C502.407 79.12 502.502 79.158 502.578 79.234C502.654 79.31 502.692 79.405 502.692 79.519C502.692 79.5697 502.673 79.6267 502.635 79.69C502.609 79.7533 502.552 79.8167 502.464 79.88L498.075 83.528L502.939 88.259C503.091 88.3857 503.167 88.4997 503.167 88.601C503.167 88.715 503.129 88.81 503.053 88.886C502.977 88.962 502.882 89 502.768 89H501.78C501.59 89 501.45 88.981 501.362 88.943C501.273 88.8923 501.159 88.8037 501.02 88.677L496.783 84.63V88.563C496.783 88.6897 496.738 88.7973 496.65 88.886C496.574 88.962 496.472 89 496.346 89H495.453Z" fill="white"/>
<g filter="url(#filter0_d_206_28)">
<path d="M4 12C4 5.37258 9.37258 0 16 0H578C584.627 0 590 5.37258 590 12V43H4V12Z" fill="#242526"/>
</g>
<ellipse cx="29.1279" cy="21.9141" rx="5.84369" ry="6.72025" fill="#E65100"/>
<ellipse cx="48.4121" cy="21.9141" rx="5.84369" ry="6.72025" fill="#FFD600"/>
<ellipse cx="67.6962" cy="21.9141" rx="5.84369" ry="6.72025" fill="#4EC433"/>
<defs>
<filter id="filter0_d_206_28" x="0" y="0" width="594" height="51" filterUnits="userSpaceOnUse" color-interpolation-filters="sRGB">
<feFlood flood-opacity="0" result="BackgroundImageFix"/>
<feColorMatrix in="SourceAlpha" type="matrix" values="0 0 0 0 0 0 0 0 0 0 0 0 0 0 0 0 0 0 127 0" result="hardAlpha"/>
<feOffset dy="4"/>
<feGaussianBlur stdDeviation="2"/>
<feComposite in2="hardAlpha" operator="out"/>
<feColorMatrix type="matrix" values="0 0 0 0 0 0 0 0 0 0 0 0 0 0 0 0 0 0 0.25 0"/>
<feBlend mode="normal" in2="BackgroundImageFix" result="effect1_dropShadow_206_28"/>
<feBlend mode="normal" in="SourceGraphic" in2="effect1_dropShadow_206_28" result="shape"/>
</filter>
</defs>
</svg>
