<svg width="691" height="144" viewBox="0 0 691 144" fill="none" xmlns="http://www.w3.org/2000/svg">
<rect x="4" width="586" height="144" rx="12" fill="#242526"/>
<rect x="4" width="683" height="144" rx="12" fill="#242526"/>
<path d="M21.676 89.525C21.6 89.525 21.5177 89.4997 21.429 89.449C21.353 89.3983 21.2833 89.3603 21.22 89.335L15.235 85.212C15.045 85.0853 14.9057 84.9587 14.817 84.832C14.7283 84.6927 14.684 84.5343 14.684 84.357V84.015C14.684 83.8377 14.7283 83.6857 14.817 83.559C14.9057 83.4323 15.045 83.2993 15.235 83.16L21.22 79.056C21.2833 79.018 21.353 78.9737 21.429 78.923C21.5177 78.8723 21.6 78.847 21.676 78.847C21.7773 78.847 21.866 78.885 21.942 78.961C22.018 79.0243 22.056 79.1193 22.056 79.246V80.082C22.056 80.2213 22.018 80.3417 21.942 80.443C21.866 80.5317 21.7583 80.6203 21.619 80.709L16.527 84.186L21.619 87.663C21.7583 87.7643 21.866 87.8593 21.942 87.948C22.018 88.0367 22.056 88.157 22.056 88.309V89.145C22.056 89.259 22.018 89.354 21.942 89.43C21.866 89.4933 21.7773 89.525 21.676 89.525ZM649.333 89.506C649.232 89.506 649.143 89.4743 649.067 89.411C648.991 89.3477 648.953 89.2527 648.953 89.126V88.29C648.953 88.138 648.985 88.0177 649.048 87.929C649.124 87.8403 649.238 87.7517 649.39 87.663L654.463 84.186L649.39 80.709C649.238 80.6077 649.124 80.5127 649.048 80.424C648.985 80.3353 648.953 80.215 648.953 80.063V79.227C648.953 79.1003 648.991 79.0053 649.067 78.942C649.143 78.8787 649.232 78.847 649.333 78.847C649.409 78.847 649.491 78.8723 649.58 78.923C649.669 78.961 649.738 78.999 649.789 79.037L655.755 83.141C655.958 83.2803 656.097 83.4133 656.173 83.54C656.262 83.6667 656.306 83.825 656.306 84.015V84.338C656.306 84.5153 656.262 84.6737 656.173 84.813C656.097 84.9397 655.958 85.0727 655.755 85.212L649.789 89.316C649.738 89.354 649.669 89.3983 649.58 89.449C649.491 89.487 649.409 89.506 649.333 89.506Z" fill="#647DFF"/>
<path d="M30.8398 90C30.7131 90 30.6055 89.962 30.5168 89.886C30.4408 89.7973 30.4028 89.6897 30.4028 89.563V81.64H28.7878C28.6611 81.64 28.5535 81.602 28.4648 81.526C28.3888 81.4373 28.3508 81.3297 28.3508 81.203V80.557C28.3508 80.4303 28.3888 80.329 28.4648 80.253C28.5535 80.1643 28.6611 80.12 28.7878 80.12H30.4028V79.17C30.4028 78.524 30.5105 77.9603 30.7258 77.479C30.9411 76.985 31.2831 76.605 31.7518 76.339C32.2331 76.073 32.8728 75.94 33.6708 75.94H34.8108C34.9375 75.94 35.0388 75.9843 35.1148 76.073C35.1908 76.149 35.2288 76.2503 35.2288 76.377V77.023C35.2288 77.1497 35.1908 77.2573 35.1148 77.346C35.0388 77.422 34.9375 77.46 34.8108 77.46H33.7088C33.1135 77.46 32.7081 77.6183 32.4928 77.935C32.2775 78.239 32.1698 78.6823 32.1698 79.265V80.12H34.6208C34.7475 80.12 34.8488 80.1643 34.9248 80.253C35.0008 80.329 35.0388 80.4303 35.0388 80.557V81.203C35.0388 81.3297 35.0008 81.4373 34.9248 81.526C34.8488 81.602 34.7475 81.64 34.6208 81.64H32.1698V89.563C32.1698 89.6897 32.1255 89.7973 32.0368 89.886C31.9608 89.962 31.8595 90 31.7328 90H30.8398ZM40.5868 90.19C39.6241 90.19 38.8198 90.0063 38.1738 89.639C37.5278 89.2717 37.0338 88.765 36.6918 88.119C36.3498 87.4603 36.1598 86.713 36.1218 85.877C36.1091 85.6617 36.1028 85.3893 36.1028 85.06C36.1028 84.718 36.1091 84.4457 36.1218 84.243C36.1598 83.3943 36.3498 82.647 36.6918 82.001C37.0465 81.355 37.5468 80.8483 38.1928 80.481C38.8388 80.1137 39.6368 79.93 40.5868 79.93C41.5368 79.93 42.3348 80.1137 42.9808 80.481C43.6268 80.8483 44.1208 81.355 44.4628 82.001C44.8175 82.647 45.0138 83.3943 45.0518 84.243C45.0645 84.4457 45.0708 84.718 45.0708 85.06C45.0708 85.3893 45.0645 85.6617 45.0518 85.877C45.0138 86.713 44.8238 87.4603 44.4818 88.119C44.1398 88.765 43.6458 89.2717 42.9998 89.639C42.3538 90.0063 41.5495 90.19 40.5868 90.19ZM40.5868 88.727C41.3721 88.727 41.9991 88.48 42.4678 87.986C42.9365 87.4793 43.1898 86.7447 43.2278 85.782C43.2405 85.592 43.2468 85.3513 43.2468 85.06C43.2468 84.7687 43.2405 84.528 43.2278 84.338C43.1898 83.3753 42.9365 82.647 42.4678 82.153C41.9991 81.6463 41.3721 81.393 40.5868 81.393C39.8015 81.393 39.1681 81.6463 38.6868 82.153C38.2181 82.647 37.9711 83.3753 37.9458 84.338C37.9331 84.528 37.9268 84.7687 37.9268 85.06C37.9268 85.3513 37.9331 85.592 37.9458 85.782C37.9711 86.7447 38.2181 87.4793 38.6868 87.986C39.1681 88.48 39.8015 88.727 40.5868 88.727ZM47.8869 90C47.7603 90 47.6526 89.962 47.5639 89.886C47.4879 89.7973 47.4499 89.6897 47.4499 89.563V80.576C47.4499 80.4493 47.4879 80.3417 47.5639 80.253C47.6526 80.1643 47.7603 80.12 47.8869 80.12H48.7609C48.8876 80.12 48.9953 80.1643 49.0839 80.253C49.1726 80.3417 49.2169 80.4493 49.2169 80.576V81.412C49.4703 80.9813 49.8186 80.6583 50.2619 80.443C50.7053 80.2277 51.2373 80.12 51.8579 80.12H52.6179C52.7446 80.12 52.8459 80.1643 52.9219 80.253C52.9979 80.329 53.0359 80.4303 53.0359 80.557V81.336C53.0359 81.4627 52.9979 81.564 52.9219 81.64C52.8459 81.716 52.7446 81.754 52.6179 81.754H51.4779C50.7939 81.754 50.2556 81.9567 49.8629 82.362C49.4703 82.7547 49.2739 83.293 49.2739 83.977V89.563C49.2739 89.6897 49.2296 89.7973 49.1409 89.886C49.0523 89.962 48.9446 90 48.8179 90H47.8869ZM55.1047 90C54.9781 90 54.8704 89.962 54.7817 89.886C54.7057 89.7973 54.6677 89.6897 54.6677 89.563V80.557C54.6677 80.4303 54.7057 80.329 54.7817 80.253C54.8704 80.1643 54.9781 80.12 55.1047 80.12H55.9597C56.0864 80.12 56.1877 80.1643 56.2637 80.253C56.3524 80.329 56.3967 80.4303 56.3967 80.557V81.222C56.6881 80.8293 57.0554 80.519 57.4987 80.291C57.9421 80.0503 58.4741 79.93 59.0947 79.93C60.5261 79.9173 61.5394 80.5 62.1347 81.678C62.4261 81.146 62.8504 80.7217 63.4077 80.405C63.9651 80.0883 64.5984 79.93 65.3077 79.93C65.9664 79.93 66.5617 80.082 67.0937 80.386C67.6384 80.69 68.0627 81.1523 68.3667 81.773C68.6834 82.381 68.8417 83.1473 68.8417 84.072V89.563C68.8417 89.6897 68.7974 89.7973 68.7087 89.886C68.6327 89.962 68.5314 90 68.4047 90H67.5117C67.3851 90 67.2774 89.962 67.1887 89.886C67.1127 89.7973 67.0747 89.6897 67.0747 89.563V84.243C67.0747 83.5337 66.9734 82.9763 66.7707 82.571C66.5681 82.1657 66.2957 81.8807 65.9537 81.716C65.6117 81.5513 65.2381 81.469 64.8327 81.469C64.5034 81.469 64.1677 81.5513 63.8257 81.716C63.4837 81.8807 63.1987 82.1657 62.9707 82.571C62.7554 82.9763 62.6477 83.5337 62.6477 84.243V89.563C62.6477 89.6897 62.6034 89.7973 62.5147 89.886C62.4387 89.962 62.3374 90 62.2107 90H61.3177C61.1911 90 61.0834 89.962 60.9947 89.886C60.9187 89.7973 60.8807 89.6897 60.8807 89.563V84.243C60.8807 83.5337 60.7731 82.9763 60.5577 82.571C60.3424 82.1657 60.0637 81.8807 59.7217 81.716C59.3797 81.5513 59.0187 81.469 58.6387 81.469C58.3094 81.469 57.9737 81.5513 57.6317 81.716C57.2897 81.8807 57.0047 82.1657 56.7767 82.571C56.5614 82.9763 56.4537 83.5273 56.4537 84.224V89.563C56.4537 89.6897 56.4094 89.7973 56.3207 89.886C56.2447 89.962 56.1434 90 56.0167 90H55.1047ZM78.9647 90.19C78.3314 90.19 77.755 90.0633 77.2357 89.81C76.7164 89.5567 76.2984 89.2147 75.9817 88.784C75.665 88.3533 75.5067 87.8657 75.5067 87.321C75.5067 86.447 75.8614 85.7503 76.5707 85.231C77.28 84.7117 78.2047 84.3697 79.3447 84.205L82.1757 83.806V83.255C82.1757 82.647 81.9984 82.172 81.6437 81.83C81.3017 81.488 80.738 81.317 79.9527 81.317C79.3827 81.317 78.9204 81.431 78.5657 81.659C78.2237 81.887 77.983 82.1783 77.8437 82.533C77.7677 82.723 77.6347 82.818 77.4447 82.818H76.5897C76.4504 82.818 76.3427 82.78 76.2667 82.704C76.2034 82.6153 76.1717 82.514 76.1717 82.4C76.1717 82.21 76.2414 81.9757 76.3807 81.697C76.5327 81.4183 76.7607 81.146 77.0647 80.88C77.3687 80.614 77.755 80.3923 78.2237 80.215C78.705 80.025 79.2877 79.93 79.9717 79.93C80.7317 79.93 81.3714 80.0313 81.8907 80.234C82.41 80.424 82.8154 80.6837 83.1067 81.013C83.4107 81.3423 83.626 81.716 83.7527 82.134C83.892 82.552 83.9617 82.9763 83.9617 83.407V89.563C83.9617 89.6897 83.9174 89.7973 83.8287 89.886C83.7527 89.962 83.6514 90 83.5247 90H82.6507C82.5114 90 82.4037 89.962 82.3277 89.886C82.2517 89.7973 82.2137 89.6897 82.2137 89.563V88.746C82.049 88.974 81.8274 89.202 81.5487 89.43C81.27 89.6453 80.9217 89.829 80.5037 89.981C80.0857 90.1203 79.5727 90.19 78.9647 90.19ZM79.3637 88.765C79.883 88.765 80.358 88.6573 80.7887 88.442C81.2194 88.214 81.555 87.8657 81.7957 87.397C82.049 86.9283 82.1757 86.3393 82.1757 85.63V85.098L79.9717 85.421C79.0724 85.5477 78.3947 85.763 77.9387 86.067C77.4827 86.3583 77.2547 86.732 77.2547 87.188C77.2547 87.5427 77.356 87.8403 77.5587 88.081C77.774 88.309 78.04 88.48 78.3567 88.594C78.686 88.708 79.0217 88.765 79.3637 88.765ZM90.6831 90.19C89.7838 90.19 89.0048 90.019 88.3461 89.677C87.7001 89.3223 87.1998 88.822 86.8451 88.176C86.4904 87.5173 86.3004 86.732 86.2751 85.82C86.2624 85.63 86.2561 85.3767 86.2561 85.06C86.2561 84.7433 86.2624 84.49 86.2751 84.3C86.3004 83.388 86.4904 82.609 86.8451 81.963C87.1998 81.3043 87.7001 80.804 88.3461 80.462C89.0048 80.1073 89.7838 79.93 90.6831 79.93C91.4178 79.93 92.0448 80.0313 92.5641 80.234C93.0961 80.4367 93.5331 80.6963 93.8751 81.013C94.2171 81.3297 94.4704 81.6717 94.6351 82.039C94.8124 82.4063 94.9074 82.7547 94.9201 83.084C94.9328 83.2107 94.8948 83.312 94.8061 83.388C94.7174 83.464 94.6098 83.502 94.4831 83.502H93.5711C93.4444 83.502 93.3494 83.4767 93.2861 83.426C93.2228 83.3627 93.1594 83.2613 93.0961 83.122C92.8681 82.5013 92.5578 82.0643 92.1651 81.811C91.7724 81.5577 91.2848 81.431 90.7021 81.431C89.9421 81.431 89.3214 81.6653 88.8401 82.134C88.3714 82.6027 88.1181 83.3563 88.0801 84.395C88.0674 84.851 88.0674 85.2943 88.0801 85.725C88.1181 86.7763 88.3714 87.5363 88.8401 88.005C89.3214 88.461 89.9421 88.689 90.7021 88.689C91.2848 88.689 91.7724 88.5623 92.1651 88.309C92.5578 88.0557 92.8681 87.6187 93.0961 86.998C93.1594 86.8587 93.2228 86.7637 93.2861 86.713C93.3494 86.6497 93.4444 86.618 93.5711 86.618H94.4831C94.6098 86.618 94.7174 86.656 94.8061 86.732C94.8948 86.808 94.9328 86.9093 94.9201 87.036C94.9074 87.302 94.8504 87.5743 94.7491 87.853C94.6478 88.1317 94.4831 88.4167 94.2551 88.708C94.0398 88.9867 93.7674 89.24 93.4381 89.468C93.1088 89.6833 92.7098 89.8607 92.2411 90C91.7851 90.1267 91.2658 90.19 90.6831 90.19ZM101.034 90C100.324 90 99.7478 89.867 99.3045 89.601C98.8612 89.3223 98.5382 88.936 98.3355 88.442C98.1328 87.9353 98.0315 87.34 98.0315 86.656V81.64H96.5495C96.4228 81.64 96.3152 81.602 96.2265 81.526C96.1505 81.4373 96.1125 81.3297 96.1125 81.203V80.557C96.1125 80.4303 96.1505 80.329 96.2265 80.253C96.3152 80.1643 96.4228 80.12 96.5495 80.12H98.0315V76.947C98.0315 76.8203 98.0695 76.719 98.1455 76.643C98.2342 76.5543 98.3418 76.51 98.4685 76.51H99.3615C99.4882 76.51 99.5895 76.5543 99.6655 76.643C99.7542 76.719 99.7985 76.8203 99.7985 76.947V80.12H102.155C102.281 80.12 102.383 80.1643 102.459 80.253C102.547 80.329 102.592 80.4303 102.592 80.557V81.203C102.592 81.3297 102.547 81.4373 102.459 81.526C102.383 81.602 102.281 81.64 102.155 81.64H99.7985V86.523C99.7985 87.1183 99.8998 87.587 100.103 87.929C100.305 88.271 100.666 88.442 101.186 88.442H102.345C102.471 88.442 102.573 88.4863 102.649 88.575C102.737 88.651 102.782 88.7523 102.782 88.879V89.563C102.782 89.6897 102.737 89.7973 102.649 89.886C102.573 89.962 102.471 90 102.345 90H101.034ZM105.035 90C104.909 90 104.801 89.962 104.712 89.886C104.636 89.7973 104.598 89.6897 104.598 89.563V80.557C104.598 80.4303 104.636 80.329 104.712 80.253C104.801 80.1643 104.909 80.12 105.035 80.12H105.947C106.074 80.12 106.175 80.1643 106.251 80.253C106.327 80.329 106.365 80.4303 106.365 80.557V89.563C106.365 89.6897 106.327 89.7973 106.251 89.886C106.175 89.962 106.074 90 105.947 90H105.035ZM104.883 78.277C104.757 78.277 104.649 78.239 104.56 78.163C104.484 78.0743 104.446 77.9667 104.446 77.84V76.814C104.446 76.6873 104.484 76.586 104.56 76.51C104.649 76.4213 104.757 76.377 104.883 76.377H106.08C106.207 76.377 106.308 76.4213 106.384 76.51C106.473 76.586 106.517 76.6873 106.517 76.814V77.84C106.517 77.9667 106.473 78.0743 106.384 78.163C106.308 78.239 106.207 78.277 106.08 78.277H104.883ZM113.284 90.19C112.321 90.19 111.517 90.0063 110.871 89.639C110.225 89.2717 109.731 88.765 109.389 88.119C109.047 87.4603 108.857 86.713 108.819 85.877C108.806 85.6617 108.8 85.3893 108.8 85.06C108.8 84.718 108.806 84.4457 108.819 84.243C108.857 83.3943 109.047 82.647 109.389 82.001C109.744 81.355 110.244 80.8483 110.89 80.481C111.536 80.1137 112.334 79.93 113.284 79.93C114.234 79.93 115.032 80.1137 115.678 80.481C116.324 80.8483 116.818 81.355 117.16 82.001C117.515 82.647 117.711 83.3943 117.749 84.243C117.762 84.4457 117.768 84.718 117.768 85.06C117.768 85.3893 117.762 85.6617 117.749 85.877C117.711 86.713 117.521 87.4603 117.179 88.119C116.837 88.765 116.343 89.2717 115.697 89.639C115.051 90.0063 114.247 90.19 113.284 90.19ZM113.284 88.727C114.069 88.727 114.696 88.48 115.165 87.986C115.634 87.4793 115.887 86.7447 115.925 85.782C115.938 85.592 115.944 85.3513 115.944 85.06C115.944 84.7687 115.938 84.528 115.925 84.338C115.887 83.3753 115.634 82.647 115.165 82.153C114.696 81.6463 114.069 81.393 113.284 81.393C112.499 81.393 111.865 81.6463 111.384 82.153C110.915 82.647 110.668 83.3753 110.643 84.338C110.63 84.528 110.624 84.7687 110.624 85.06C110.624 85.3513 110.63 85.592 110.643 85.782C110.668 86.7447 110.915 87.4793 111.384 87.986C111.865 88.48 112.499 88.727 113.284 88.727ZM120.584 90C120.458 90 120.35 89.962 120.261 89.886C120.185 89.7973 120.147 89.6897 120.147 89.563V80.557C120.147 80.4303 120.185 80.329 120.261 80.253C120.35 80.1643 120.458 80.12 120.584 80.12H121.477C121.604 80.12 121.705 80.1643 121.781 80.253C121.87 80.329 121.914 80.4303 121.914 80.557V81.393C122.244 80.9623 122.655 80.614 123.149 80.348C123.656 80.0693 124.302 79.93 125.087 79.93C125.911 79.93 126.607 80.1137 127.177 80.481C127.76 80.8357 128.197 81.336 128.488 81.982C128.78 82.6153 128.925 83.3563 128.925 84.205V89.563C128.925 89.6897 128.887 89.7973 128.811 89.886C128.735 89.962 128.634 90 128.507 90H127.557C127.431 90 127.323 89.962 127.234 89.886C127.158 89.7973 127.12 89.6897 127.12 89.563V84.3C127.12 83.4133 126.905 82.723 126.474 82.229C126.044 81.7223 125.41 81.469 124.574 81.469C123.789 81.469 123.156 81.7223 122.674 82.229C122.206 82.723 121.971 83.4133 121.971 84.3V89.563C121.971 89.6897 121.927 89.7973 121.838 89.886C121.762 89.962 121.661 90 121.534 90H120.584ZM136.707 82.666C136.58 82.666 136.479 82.628 136.403 82.552C136.327 82.476 136.289 82.3747 136.289 82.248V81.602C136.289 81.4753 136.327 81.374 136.403 81.298C136.479 81.222 136.58 81.184 136.707 81.184H143.946C144.073 81.184 144.174 81.222 144.25 81.298C144.339 81.374 144.383 81.4753 144.383 81.602V82.248C144.383 82.3747 144.339 82.476 144.25 82.552C144.174 82.628 144.073 82.666 143.946 82.666H136.707ZM136.707 87.416C136.58 87.416 136.479 87.378 136.403 87.302C136.327 87.226 136.289 87.1247 136.289 86.998V86.352C136.289 86.2253 136.327 86.124 136.403 86.048C136.479 85.972 136.58 85.934 136.707 85.934H143.946C144.073 85.934 144.174 85.972 144.25 86.048C144.339 86.124 144.383 86.2253 144.383 86.352V86.998C144.383 87.1247 144.339 87.226 144.25 87.302C144.174 87.378 144.073 87.416 143.946 87.416H136.707ZM154.727 80.177C154.638 80.177 154.562 80.1453 154.499 80.082C154.448 80.0187 154.423 79.9427 154.423 79.854C154.423 79.7527 154.442 79.6513 154.48 79.55L155.487 76.947C155.55 76.8203 155.614 76.719 155.677 76.643C155.753 76.5543 155.873 76.51 156.038 76.51H156.665C156.766 76.51 156.842 76.548 156.893 76.624C156.956 76.7 156.975 76.8013 156.95 76.928L156.532 79.626C156.519 79.778 156.469 79.911 156.38 80.025C156.291 80.1263 156.158 80.177 155.981 80.177H154.727ZM151.687 80.177C151.598 80.177 151.522 80.1453 151.459 80.082C151.408 80.0187 151.383 79.9427 151.383 79.854C151.383 79.7527 151.402 79.6513 151.44 79.55L152.447 76.947C152.51 76.8203 152.58 76.719 152.656 76.643C152.732 76.5543 152.846 76.51 152.998 76.51H153.625C153.726 76.51 153.802 76.548 153.853 76.624C153.916 76.7 153.935 76.8013 153.91 76.928L153.492 79.626C153.479 79.778 153.429 79.911 153.34 80.025C153.251 80.1263 153.125 80.177 152.96 80.177H151.687ZM332.298 80.177C332.184 80.177 332.102 80.139 332.051 80.063C332 79.987 331.981 79.892 331.994 79.778L332.412 77.061C332.437 76.909 332.488 76.7823 332.564 76.681C332.653 76.567 332.786 76.51 332.963 76.51H334.217C334.318 76.51 334.394 76.548 334.445 76.624C334.508 76.6873 334.54 76.757 334.54 76.833C334.54 76.9343 334.515 77.0357 334.464 77.137L333.476 79.74C333.425 79.8667 333.356 79.9743 333.267 80.063C333.191 80.139 333.071 80.177 332.906 80.177H332.298ZM329.258 80.177C329.157 80.177 329.074 80.139 329.011 80.063C328.96 79.987 328.941 79.892 328.954 79.778L329.391 77.061C329.416 76.909 329.467 76.7823 329.543 76.681C329.632 76.567 329.758 76.51 329.923 76.51H331.196C331.285 76.51 331.354 76.548 331.405 76.624C331.468 76.6873 331.5 76.757 331.5 76.833C331.5 76.9343 331.475 77.0357 331.424 77.137L330.436 79.74C330.385 79.8667 330.316 79.9743 330.227 80.063C330.151 80.139 330.031 80.177 329.866 80.177H329.258ZM345.158 90C344.448 90 343.872 89.867 343.429 89.601C342.985 89.3223 342.662 88.936 342.46 88.442C342.257 87.9353 342.156 87.34 342.156 86.656V81.64H340.674C340.547 81.64 340.439 81.602 340.351 81.526C340.275 81.4373 340.237 81.3297 340.237 81.203V80.557C340.237 80.4303 340.275 80.329 340.351 80.253C340.439 80.1643 340.547 80.12 340.674 80.12H342.156V76.947C342.156 76.8203 342.194 76.719 342.27 76.643C342.358 76.5543 342.466 76.51 342.593 76.51H343.486C343.612 76.51 343.714 76.5543 343.79 76.643C343.878 76.719 343.923 76.8203 343.923 76.947V80.12H346.279C346.405 80.12 346.507 80.1643 346.583 80.253C346.671 80.329 346.716 80.4303 346.716 80.557V81.203C346.716 81.3297 346.671 81.4373 346.583 81.526C346.507 81.602 346.405 81.64 346.279 81.64H343.923V86.523C343.923 87.1183 344.024 87.587 344.227 87.929C344.429 88.271 344.79 88.442 345.31 88.442H346.469C346.595 88.442 346.697 88.4863 346.773 88.575C346.861 88.651 346.906 88.7523 346.906 88.879V89.563C346.906 89.6897 346.861 89.7973 346.773 89.886C346.697 89.962 346.595 90 346.469 90H345.158ZM351.477 90.19C350.844 90.19 350.268 90.0633 349.748 89.81C349.229 89.5567 348.811 89.2147 348.494 88.784C348.178 88.3533 348.019 87.8657 348.019 87.321C348.019 86.447 348.374 85.7503 349.083 85.231C349.793 84.7117 350.717 84.3697 351.857 84.205L354.688 83.806V83.255C354.688 82.647 354.511 82.172 354.156 81.83C353.814 81.488 353.251 81.317 352.465 81.317C351.895 81.317 351.433 81.431 351.078 81.659C350.736 81.887 350.496 82.1783 350.356 82.533C350.28 82.723 350.147 82.818 349.957 82.818H349.102C348.963 82.818 348.855 82.78 348.779 82.704C348.716 82.6153 348.684 82.514 348.684 82.4C348.684 82.21 348.754 81.9757 348.893 81.697C349.045 81.4183 349.273 81.146 349.577 80.88C349.881 80.614 350.268 80.3923 350.736 80.215C351.218 80.025 351.8 79.93 352.484 79.93C353.244 79.93 353.884 80.0313 354.403 80.234C354.923 80.424 355.328 80.6837 355.619 81.013C355.923 81.3423 356.139 81.716 356.265 82.134C356.405 82.552 356.474 82.9763 356.474 83.407V89.563C356.474 89.6897 356.43 89.7973 356.341 89.886C356.265 89.962 356.164 90 356.037 90H355.163C355.024 90 354.916 89.962 354.84 89.886C354.764 89.7973 354.726 89.6897 354.726 89.563V88.746C354.562 88.974 354.34 89.202 354.061 89.43C353.783 89.6453 353.434 89.829 353.016 89.981C352.598 90.1203 352.085 90.19 351.477 90.19ZM351.876 88.765C352.396 88.765 352.871 88.6573 353.301 88.442C353.732 88.214 354.068 87.8657 354.308 87.397C354.562 86.9283 354.688 86.3393 354.688 85.63V85.098L352.484 85.421C351.585 85.5477 350.907 85.763 350.451 86.067C349.995 86.3583 349.767 86.732 349.767 87.188C349.767 87.5427 349.869 87.8403 350.071 88.081C350.287 88.309 350.553 88.48 350.869 88.594C351.199 88.708 351.534 88.765 351.876 88.765ZM359.643 90C359.516 90 359.408 89.962 359.32 89.886C359.244 89.7973 359.206 89.6897 359.206 89.563V80.576C359.206 80.4493 359.244 80.3417 359.32 80.253C359.408 80.1643 359.516 80.12 359.643 80.12H360.517C360.643 80.12 360.751 80.1643 360.84 80.253C360.928 80.3417 360.973 80.4493 360.973 80.576V81.412C361.226 80.9813 361.574 80.6583 362.018 80.443C362.461 80.2277 362.993 80.12 363.614 80.12H364.374C364.5 80.12 364.602 80.1643 364.678 80.253C364.754 80.329 364.792 80.4303 364.792 80.557V81.336C364.792 81.4627 364.754 81.564 364.678 81.64C364.602 81.716 364.5 81.754 364.374 81.754H363.234C362.55 81.754 362.011 81.9567 361.619 82.362C361.226 82.7547 361.03 83.293 361.03 83.977V89.563C361.03 89.6897 360.985 89.7973 360.897 89.886C360.808 89.962 360.7 90 360.574 90H359.643ZM370.266 94.18C369.405 94.18 368.696 94.066 368.138 93.838C367.594 93.61 367.163 93.3313 366.846 93.002C366.542 92.6853 366.321 92.3623 366.181 92.033C366.055 91.7163 365.985 91.463 365.972 91.273C365.96 91.1463 365.998 91.0387 366.086 90.95C366.188 90.8613 366.295 90.817 366.409 90.817H367.321C367.435 90.817 367.53 90.8423 367.606 90.893C367.682 90.9437 367.746 91.0513 367.796 91.216C367.872 91.406 367.986 91.615 368.138 91.843C368.29 92.0837 368.525 92.2863 368.841 92.451C369.158 92.6283 369.601 92.717 370.171 92.717C370.767 92.717 371.267 92.6347 371.672 92.47C372.078 92.318 372.382 92.0393 372.584 91.634C372.8 91.2413 372.907 90.6967 372.907 90V88.708C372.603 89.1007 372.204 89.43 371.71 89.696C371.216 89.9493 370.596 90.076 369.848 90.076C369.139 90.076 368.531 89.9557 368.024 89.715C367.518 89.4617 367.1 89.126 366.77 88.708C366.454 88.2773 366.213 87.7897 366.048 87.245C365.896 86.7003 365.808 86.1303 365.782 85.535C365.77 85.1803 365.77 84.832 365.782 84.49C365.808 83.8947 365.896 83.3247 366.048 82.78C366.213 82.2353 366.454 81.7477 366.77 81.317C367.1 80.8863 367.518 80.5507 368.024 80.31C368.531 80.0567 369.139 79.93 369.848 79.93C370.608 79.93 371.235 80.0757 371.729 80.367C372.236 80.6457 372.648 80.9877 372.964 81.393V80.576C372.964 80.4493 373.002 80.3417 373.078 80.253C373.167 80.1643 373.275 80.12 373.401 80.12H374.275C374.402 80.12 374.51 80.1643 374.598 80.253C374.687 80.3417 374.731 80.4493 374.731 80.576V89.791C374.731 90.6397 374.586 91.3933 374.294 92.052C374.016 92.7107 373.547 93.23 372.888 93.61C372.242 93.99 371.368 94.18 370.266 94.18ZM370.228 88.556C370.862 88.556 371.368 88.4103 371.748 88.119C372.141 87.8277 372.426 87.4603 372.603 87.017C372.793 86.5737 372.895 86.124 372.907 85.668C372.92 85.4907 372.926 85.2753 372.926 85.022C372.926 84.756 372.92 84.5343 372.907 84.357C372.895 83.901 372.793 83.4513 372.603 83.008C372.426 82.5647 372.141 82.1973 371.748 81.906C371.368 81.6147 370.862 81.469 370.228 81.469C369.595 81.469 369.088 81.6147 368.708 81.906C368.328 82.1847 368.056 82.5583 367.891 83.027C367.727 83.483 367.632 83.977 367.606 84.509C367.594 84.8383 367.594 85.174 367.606 85.516C367.632 86.048 367.727 86.5483 367.891 87.017C368.056 87.473 368.328 87.8467 368.708 88.138C369.088 88.4167 369.595 88.556 370.228 88.556ZM381.489 90.19C380.185 90.19 379.146 89.791 378.373 88.993C377.601 88.1823 377.176 87.0803 377.1 85.687C377.088 85.5223 377.081 85.3133 377.081 85.06C377.081 84.794 377.088 84.5787 377.1 84.414C377.151 83.5147 377.36 82.7293 377.727 82.058C378.095 81.374 378.595 80.8483 379.228 80.481C379.874 80.1137 380.628 79.93 381.489 79.93C382.452 79.93 383.256 80.1327 383.902 80.538C384.561 80.9433 385.061 81.5197 385.403 82.267C385.745 83.0143 385.916 83.8883 385.916 84.889V85.212C385.916 85.3513 385.872 85.459 385.783 85.535C385.707 85.611 385.606 85.649 385.479 85.649H378.905C378.905 85.6617 378.905 85.687 378.905 85.725C378.905 85.763 378.905 85.7947 378.905 85.82C378.931 86.3393 379.045 86.827 379.247 87.283C379.45 87.7263 379.741 88.0873 380.121 88.366C380.501 88.6447 380.957 88.784 381.489 88.784C381.945 88.784 382.325 88.7143 382.629 88.575C382.933 88.4357 383.18 88.2837 383.37 88.119C383.56 87.9417 383.687 87.8087 383.75 87.72C383.864 87.5553 383.953 87.4603 384.016 87.435C384.08 87.397 384.181 87.378 384.32 87.378H385.232C385.359 87.378 385.46 87.416 385.536 87.492C385.625 87.5553 385.663 87.6503 385.65 87.777C385.638 87.967 385.536 88.2013 385.346 88.48C385.156 88.746 384.884 89.012 384.529 89.278C384.175 89.544 383.744 89.7657 383.237 89.943C382.731 90.1077 382.148 90.19 381.489 90.19ZM378.905 84.338H384.111V84.281C384.111 83.711 384.004 83.2043 383.788 82.761C383.586 82.3177 383.288 81.9693 382.895 81.716C382.503 81.45 382.034 81.317 381.489 81.317C380.945 81.317 380.476 81.45 380.083 81.716C379.703 81.9693 379.412 82.3177 379.209 82.761C379.007 83.2043 378.905 83.711 378.905 84.281V84.338ZM391.99 90C391.28 90 390.704 89.867 390.261 89.601C389.817 89.3223 389.494 88.936 389.292 88.442C389.089 87.9353 388.988 87.34 388.988 86.656V81.64H387.506C387.379 81.64 387.271 81.602 387.183 81.526C387.107 81.4373 387.069 81.3297 387.069 81.203V80.557C387.069 80.4303 387.107 80.329 387.183 80.253C387.271 80.1643 387.379 80.12 387.506 80.12H388.988V76.947C388.988 76.8203 389.026 76.719 389.102 76.643C389.19 76.5543 389.298 76.51 389.425 76.51H390.318C390.444 76.51 390.546 76.5543 390.622 76.643C390.71 76.719 390.755 76.8203 390.755 76.947V80.12H393.111C393.237 80.12 393.339 80.1643 393.415 80.253C393.503 80.329 393.548 80.4303 393.548 80.557V81.203C393.548 81.3297 393.503 81.4373 393.415 81.526C393.339 81.602 393.237 81.64 393.111 81.64H390.755V86.523C390.755 87.1183 390.856 87.587 391.059 87.929C391.261 88.271 391.622 88.442 392.142 88.442H393.301C393.427 88.442 393.529 88.4863 393.605 88.575C393.693 88.651 393.738 88.7523 393.738 88.879V89.563C393.738 89.6897 393.693 89.7973 393.605 89.886C393.529 89.962 393.427 90 393.301 90H391.99ZM400.592 82.666C400.465 82.666 400.364 82.628 400.288 82.552C400.212 82.476 400.174 82.3747 400.174 82.248V81.602C400.174 81.4753 400.212 81.374 400.288 81.298C400.364 81.222 400.465 81.184 400.592 81.184H407.831C407.957 81.184 408.059 81.222 408.135 81.298C408.223 81.374 408.268 81.4753 408.268 81.602V82.248C408.268 82.3747 408.223 82.476 408.135 82.552C408.059 82.628 407.957 82.666 407.831 82.666H400.592ZM400.592 87.416C400.465 87.416 400.364 87.378 400.288 87.302C400.212 87.226 400.174 87.1247 400.174 86.998V86.352C400.174 86.2253 400.212 86.124 400.288 86.048C400.364 85.972 400.465 85.934 400.592 85.934H407.831C407.957 85.934 408.059 85.972 408.135 86.048C408.223 86.124 408.268 86.2253 408.268 86.352V86.998C408.268 87.1247 408.223 87.226 408.135 87.302C408.059 87.378 407.957 87.416 407.831 87.416H400.592ZM418.612 80.177C418.523 80.177 418.447 80.1453 418.384 80.082C418.333 80.0187 418.308 79.9427 418.308 79.854C418.308 79.7527 418.327 79.6513 418.365 79.55L419.372 76.947C419.435 76.8203 419.498 76.719 419.562 76.643C419.638 76.5543 419.758 76.51 419.923 76.51H420.55C420.651 76.51 420.727 76.548 420.778 76.624C420.841 76.7 420.86 76.8013 420.835 76.928L420.417 79.626C420.404 79.778 420.353 79.911 420.265 80.025C420.176 80.1263 420.043 80.177 419.866 80.177H418.612ZM415.572 80.177C415.483 80.177 415.407 80.1453 415.344 80.082C415.293 80.0187 415.268 79.9427 415.268 79.854C415.268 79.7527 415.287 79.6513 415.325 79.55L416.332 76.947C416.395 76.8203 416.465 76.719 416.541 76.643C416.617 76.5543 416.731 76.51 416.883 76.51H417.51C417.611 76.51 417.687 76.548 417.738 76.624C417.801 76.7 417.82 76.8013 417.795 76.928L417.377 79.626C417.364 79.778 417.313 79.911 417.225 80.025C417.136 80.1263 417.009 80.177 416.845 80.177H415.572ZM497.358 80.177C497.269 80.177 497.193 80.1453 497.13 80.082C497.079 80.0187 497.054 79.9427 497.054 79.854C497.054 79.7527 497.073 79.6513 497.111 79.55L498.118 76.947C498.181 76.8203 498.245 76.719 498.308 76.643C498.384 76.5543 498.504 76.51 498.669 76.51H499.296C499.397 76.51 499.473 76.548 499.524 76.624C499.587 76.7 499.606 76.8013 499.581 76.928L499.163 79.626C499.15 79.778 499.1 79.911 499.011 80.025C498.922 80.1263 498.789 80.177 498.612 80.177H497.358ZM494.318 80.177C494.229 80.177 494.153 80.1453 494.09 80.082C494.039 80.0187 494.014 79.9427 494.014 79.854C494.014 79.7527 494.033 79.6513 494.071 79.55L495.078 76.947C495.141 76.8203 495.211 76.719 495.287 76.643C495.363 76.5543 495.477 76.51 495.629 76.51H496.256C496.357 76.51 496.433 76.548 496.484 76.624C496.547 76.7 496.566 76.8013 496.541 76.928L496.123 79.626C496.11 79.778 496.06 79.911 495.971 80.025C495.882 80.1263 495.756 80.177 495.591 80.177H494.318Z" fill="white" fill-opacity="0.75"/>
<path d="M163.441 91.596C163.34 91.596 163.251 91.558 163.175 91.482C163.099 91.406 163.061 91.3173 163.061 91.216C163.061 91.1527 163.08 91.0767 163.118 90.988L169.616 75.408C169.654 75.332 169.705 75.256 169.768 75.18C169.844 75.104 169.958 75.066 170.11 75.066H170.851C170.953 75.066 171.041 75.104 171.117 75.18C171.193 75.256 171.231 75.3447 171.231 75.446C171.231 75.4967 171.219 75.5727 171.193 75.674L164.676 91.254C164.651 91.3173 164.594 91.387 164.505 91.463C164.429 91.5517 164.322 91.596 164.182 91.596H163.441ZM174.93 90.19C174.296 90.19 173.72 90.0633 173.201 89.81C172.681 89.5567 172.263 89.2147 171.947 88.784C171.63 88.3533 171.472 87.8657 171.472 87.321C171.472 86.447 171.826 85.7503 172.536 85.231C173.245 84.7117 174.17 84.3697 175.31 84.205L178.141 83.806V83.255C178.141 82.647 177.963 82.172 177.609 81.83C177.267 81.488 176.703 81.317 175.918 81.317C175.348 81.317 174.885 81.431 174.531 81.659C174.189 81.887 173.948 82.1783 173.809 82.533C173.733 82.723 173.6 82.818 173.41 82.818H172.555C172.415 82.818 172.308 82.78 172.232 82.704C172.168 82.6153 172.137 82.514 172.137 82.4C172.137 82.21 172.206 81.9757 172.346 81.697C172.498 81.4183 172.726 81.146 173.03 80.88C173.334 80.614 173.72 80.3923 174.189 80.215C174.67 80.025 175.253 79.93 175.937 79.93C176.697 79.93 177.336 80.0313 177.856 80.234C178.375 80.424 178.78 80.6837 179.072 81.013C179.376 81.3423 179.591 81.716 179.718 82.134C179.857 82.552 179.927 82.9763 179.927 83.407V89.563C179.927 89.6897 179.882 89.7973 179.794 89.886C179.718 89.962 179.616 90 179.49 90H178.616C178.476 90 178.369 89.962 178.293 89.886C178.217 89.7973 178.179 89.6897 178.179 89.563V88.746C178.014 88.974 177.792 89.202 177.514 89.43C177.235 89.6453 176.887 89.829 176.469 89.981C176.051 90.1203 175.538 90.19 174.93 90.19ZM175.329 88.765C175.848 88.765 176.323 88.6573 176.754 88.442C177.184 88.214 177.52 87.8657 177.761 87.397C178.014 86.9283 178.141 86.3393 178.141 85.63V85.098L175.937 85.421C175.037 85.5477 174.36 85.763 173.904 86.067C173.448 86.3583 173.22 86.732 173.22 87.188C173.22 87.5427 173.321 87.8403 173.524 88.081C173.739 88.309 174.005 88.48 174.322 88.594C174.651 88.708 174.987 88.765 175.329 88.765ZM186.648 90.19C185.749 90.19 184.97 90.019 184.311 89.677C183.665 89.3223 183.165 88.822 182.81 88.176C182.455 87.5173 182.265 86.732 182.24 85.82C182.227 85.63 182.221 85.3767 182.221 85.06C182.221 84.7433 182.227 84.49 182.24 84.3C182.265 83.388 182.455 82.609 182.81 81.963C183.165 81.3043 183.665 80.804 184.311 80.462C184.97 80.1073 185.749 79.93 186.648 79.93C187.383 79.93 188.01 80.0313 188.529 80.234C189.061 80.4367 189.498 80.6963 189.84 81.013C190.182 81.3297 190.435 81.6717 190.6 82.039C190.777 82.4063 190.872 82.7547 190.885 83.084C190.898 83.2107 190.86 83.312 190.771 83.388C190.682 83.464 190.575 83.502 190.448 83.502H189.536C189.409 83.502 189.314 83.4767 189.251 83.426C189.188 83.3627 189.124 83.2613 189.061 83.122C188.833 82.5013 188.523 82.0643 188.13 81.811C187.737 81.5577 187.25 81.431 186.667 81.431C185.907 81.431 185.286 81.6653 184.805 82.134C184.336 82.6027 184.083 83.3563 184.045 84.395C184.032 84.851 184.032 85.2943 184.045 85.725C184.083 86.7763 184.336 87.5363 184.805 88.005C185.286 88.461 185.907 88.689 186.667 88.689C187.25 88.689 187.737 88.5623 188.13 88.309C188.523 88.0557 188.833 87.6187 189.061 86.998C189.124 86.8587 189.188 86.7637 189.251 86.713C189.314 86.6497 189.409 86.618 189.536 86.618H190.448C190.575 86.618 190.682 86.656 190.771 86.732C190.86 86.808 190.898 86.9093 190.885 87.036C190.872 87.302 190.815 87.5743 190.714 87.853C190.613 88.1317 190.448 88.4167 190.22 88.708C190.005 88.9867 189.732 89.24 189.403 89.468C189.074 89.6833 188.675 89.8607 188.206 90C187.75 90.1267 187.231 90.19 186.648 90.19ZM196.998 90C196.289 90 195.713 89.867 195.269 89.601C194.826 89.3223 194.503 88.936 194.3 88.442C194.098 87.9353 193.996 87.34 193.996 86.656V81.64H192.514C192.388 81.64 192.28 81.602 192.191 81.526C192.115 81.4373 192.077 81.3297 192.077 81.203V80.557C192.077 80.4303 192.115 80.329 192.191 80.253C192.28 80.1643 192.388 80.12 192.514 80.12H193.996V76.947C193.996 76.8203 194.034 76.719 194.11 76.643C194.199 76.5543 194.307 76.51 194.433 76.51H195.326C195.453 76.51 195.554 76.5543 195.63 76.643C195.719 76.719 195.763 76.8203 195.763 76.947V80.12H198.119C198.246 80.12 198.347 80.1643 198.423 80.253C198.512 80.329 198.556 80.4303 198.556 80.557V81.203C198.556 81.3297 198.512 81.4373 198.423 81.526C198.347 81.602 198.246 81.64 198.119 81.64H195.763V86.523C195.763 87.1183 195.865 87.587 196.067 87.929C196.27 88.271 196.631 88.442 197.15 88.442H198.309C198.436 88.442 198.537 88.4863 198.613 88.575C198.702 88.651 198.746 88.7523 198.746 88.879V89.563C198.746 89.6897 198.702 89.7973 198.613 89.886C198.537 89.962 198.436 90 198.309 90H196.998ZM201 90C200.874 90 200.766 89.962 200.677 89.886C200.601 89.7973 200.563 89.6897 200.563 89.563V80.557C200.563 80.4303 200.601 80.329 200.677 80.253C200.766 80.1643 200.874 80.12 201 80.12H201.912C202.039 80.12 202.14 80.1643 202.216 80.253C202.292 80.329 202.33 80.4303 202.33 80.557V89.563C202.33 89.6897 202.292 89.7973 202.216 89.886C202.14 89.962 202.039 90 201.912 90H201ZM200.848 78.277C200.722 78.277 200.614 78.239 200.525 78.163C200.449 78.0743 200.411 77.9667 200.411 77.84V76.814C200.411 76.6873 200.449 76.586 200.525 76.51C200.614 76.4213 200.722 76.377 200.848 76.377H202.045C202.172 76.377 202.273 76.4213 202.349 76.51C202.438 76.586 202.482 76.6873 202.482 76.814V77.84C202.482 77.9667 202.438 78.0743 202.349 78.163C202.273 78.239 202.172 78.277 202.045 78.277H200.848ZM209.249 90.19C208.286 90.19 207.482 90.0063 206.836 89.639C206.19 89.2717 205.696 88.765 205.354 88.119C205.012 87.4603 204.822 86.713 204.784 85.877C204.771 85.6617 204.765 85.3893 204.765 85.06C204.765 84.718 204.771 84.4457 204.784 84.243C204.822 83.3943 205.012 82.647 205.354 82.001C205.709 81.355 206.209 80.8483 206.855 80.481C207.501 80.1137 208.299 79.93 209.249 79.93C210.199 79.93 210.997 80.1137 211.643 80.481C212.289 80.8483 212.783 81.355 213.125 82.001C213.48 82.647 213.676 83.3943 213.714 84.243C213.727 84.4457 213.733 84.718 213.733 85.06C213.733 85.3893 213.727 85.6617 213.714 85.877C213.676 86.713 213.486 87.4603 213.144 88.119C212.802 88.765 212.308 89.2717 211.662 89.639C211.016 90.0063 210.212 90.19 209.249 90.19ZM209.249 88.727C210.034 88.727 210.661 88.48 211.13 87.986C211.599 87.4793 211.852 86.7447 211.89 85.782C211.903 85.592 211.909 85.3513 211.909 85.06C211.909 84.7687 211.903 84.528 211.89 84.338C211.852 83.3753 211.599 82.647 211.13 82.153C210.661 81.6463 210.034 81.393 209.249 81.393C208.464 81.393 207.83 81.6463 207.349 82.153C206.88 82.647 206.633 83.3753 206.608 84.338C206.595 84.528 206.589 84.7687 206.589 85.06C206.589 85.3513 206.595 85.592 206.608 85.782C206.633 86.7447 206.88 87.4793 207.349 87.986C207.83 88.48 208.464 88.727 209.249 88.727ZM216.549 90C216.422 90 216.315 89.962 216.226 89.886C216.15 89.7973 216.112 89.6897 216.112 89.563V80.557C216.112 80.4303 216.15 80.329 216.226 80.253C216.315 80.1643 216.422 80.12 216.549 80.12H217.442C217.569 80.12 217.67 80.1643 217.746 80.253C217.835 80.329 217.879 80.4303 217.879 80.557V81.393C218.208 80.9623 218.62 80.614 219.114 80.348C219.621 80.0693 220.267 79.93 221.052 79.93C221.875 79.93 222.572 80.1137 223.142 80.481C223.725 80.8357 224.162 81.336 224.453 81.982C224.744 82.6153 224.89 83.3563 224.89 84.205V89.563C224.89 89.6897 224.852 89.7973 224.776 89.886C224.7 89.962 224.599 90 224.472 90H223.522C223.395 90 223.288 89.962 223.199 89.886C223.123 89.7973 223.085 89.6897 223.085 89.563V84.3C223.085 83.4133 222.87 82.723 222.439 82.229C222.008 81.7223 221.375 81.469 220.539 81.469C219.754 81.469 219.12 81.7223 218.639 82.229C218.17 82.723 217.936 83.4133 217.936 84.3V89.563C217.936 89.6897 217.892 89.7973 217.803 89.886C217.727 89.962 217.626 90 217.499 90H216.549ZM227.825 90.779C227.685 90.779 227.578 90.7347 227.502 90.646C227.426 90.57 227.388 90.4687 227.388 90.342V89.62C227.388 89.4933 227.426 89.392 227.502 89.316C227.578 89.2273 227.685 89.183 227.825 89.183H238.845C238.971 89.183 239.073 89.2273 239.149 89.316C239.237 89.392 239.282 89.4933 239.282 89.62V90.342C239.282 90.4687 239.237 90.57 239.149 90.646C239.073 90.7347 238.971 90.779 238.845 90.779H227.825ZM242.303 93.61C242.177 93.61 242.069 93.5657 241.98 93.477C241.904 93.401 241.866 93.2997 241.866 93.173V80.557C241.866 80.4303 241.904 80.329 241.98 80.253C242.069 80.1643 242.177 80.12 242.303 80.12H243.177C243.304 80.12 243.405 80.1643 243.481 80.253C243.57 80.329 243.614 80.4303 243.614 80.557V81.393C243.918 80.975 244.324 80.6267 244.83 80.348C245.337 80.0693 245.97 79.93 246.73 79.93C247.44 79.93 248.041 80.0503 248.535 80.291C249.042 80.5317 249.454 80.861 249.77 81.279C250.1 81.697 250.347 82.172 250.511 82.704C250.676 83.236 250.765 83.806 250.777 84.414C250.79 84.6167 250.796 84.832 250.796 85.06C250.796 85.288 250.79 85.5033 250.777 85.706C250.765 86.3013 250.676 86.8713 250.511 87.416C250.347 87.948 250.1 88.423 249.77 88.841C249.454 89.2463 249.042 89.5757 248.535 89.829C248.041 90.0697 247.44 90.19 246.73 90.19C245.996 90.19 245.375 90.057 244.868 89.791C244.374 89.5123 243.969 89.1703 243.652 88.765V93.173C243.652 93.2997 243.614 93.401 243.538 93.477C243.462 93.5657 243.355 93.61 243.215 93.61H242.303ZM246.331 88.651C246.99 88.651 247.503 88.5117 247.87 88.233C248.25 87.9417 248.523 87.568 248.687 87.112C248.852 86.6433 248.947 86.143 248.972 85.611C248.985 85.2437 248.985 84.8763 248.972 84.509C248.947 83.977 248.852 83.483 248.687 83.027C248.523 82.5583 248.25 82.1847 247.87 81.906C247.503 81.6147 246.99 81.469 246.331 81.469C245.711 81.469 245.204 81.6147 244.811 81.906C244.431 82.1973 244.146 82.571 243.956 83.027C243.779 83.4703 243.678 83.9263 243.652 84.395C243.64 84.5977 243.633 84.8383 243.633 85.117C243.633 85.3957 243.64 85.6427 243.652 85.858C243.665 86.3013 243.766 86.7383 243.956 87.169C244.159 87.5997 244.457 87.9543 244.849 88.233C245.242 88.5117 245.736 88.651 246.331 88.651ZM255.921 90.19C255.287 90.19 254.711 90.0633 254.192 89.81C253.672 89.5567 253.254 89.2147 252.938 88.784C252.621 88.3533 252.463 87.8657 252.463 87.321C252.463 86.447 252.817 85.7503 253.527 85.231C254.236 84.7117 255.161 84.3697 256.301 84.205L259.132 83.806V83.255C259.132 82.647 258.954 82.172 258.6 81.83C258.258 81.488 257.694 81.317 256.909 81.317C256.339 81.317 255.876 81.431 255.522 81.659C255.18 81.887 254.939 82.1783 254.8 82.533C254.724 82.723 254.591 82.818 254.401 82.818H253.546C253.406 82.818 253.299 82.78 253.223 82.704C253.159 82.6153 253.128 82.514 253.128 82.4C253.128 82.21 253.197 81.9757 253.337 81.697C253.489 81.4183 253.717 81.146 254.021 80.88C254.325 80.614 254.711 80.3923 255.18 80.215C255.661 80.025 256.244 79.93 256.928 79.93C257.688 79.93 258.327 80.0313 258.847 80.234C259.366 80.424 259.771 80.6837 260.063 81.013C260.367 81.3423 260.582 81.716 260.709 82.134C260.848 82.552 260.918 82.9763 260.918 83.407V89.563C260.918 89.6897 260.873 89.7973 260.785 89.886C260.709 89.962 260.607 90 260.481 90H259.607C259.467 90 259.36 89.962 259.284 89.886C259.208 89.7973 259.17 89.6897 259.17 89.563V88.746C259.005 88.974 258.783 89.202 258.505 89.43C258.226 89.6453 257.878 89.829 257.46 89.981C257.042 90.1203 256.529 90.19 255.921 90.19ZM256.32 88.765C256.839 88.765 257.314 88.6573 257.745 88.442C258.175 88.214 258.511 87.8657 258.752 87.397C259.005 86.9283 259.132 86.3393 259.132 85.63V85.098L256.928 85.421C256.028 85.5477 255.351 85.763 254.895 86.067C254.439 86.3583 254.211 86.732 254.211 87.188C254.211 87.5427 254.312 87.8403 254.515 88.081C254.73 88.309 254.996 88.48 255.313 88.594C255.642 88.708 255.978 88.765 256.32 88.765ZM267.696 94.18C266.835 94.18 266.125 94.066 265.568 93.838C265.023 93.61 264.593 93.3313 264.276 93.002C263.972 92.6853 263.75 92.3623 263.611 92.033C263.484 91.7163 263.415 91.463 263.402 91.273C263.389 91.1463 263.427 91.0387 263.516 90.95C263.617 90.8613 263.725 90.817 263.839 90.817H264.751C264.865 90.817 264.96 90.8423 265.036 90.893C265.112 90.9437 265.175 91.0513 265.226 91.216C265.302 91.406 265.416 91.615 265.568 91.843C265.72 92.0837 265.954 92.2863 266.271 92.451C266.588 92.6283 267.031 92.717 267.601 92.717C268.196 92.717 268.697 92.6347 269.102 92.47C269.507 92.318 269.811 92.0393 270.014 91.634C270.229 91.2413 270.337 90.6967 270.337 90V88.708C270.033 89.1007 269.634 89.43 269.14 89.696C268.646 89.9493 268.025 90.076 267.278 90.076C266.569 90.076 265.961 89.9557 265.454 89.715C264.947 89.4617 264.529 89.126 264.2 88.708C263.883 88.2773 263.643 87.7897 263.478 87.245C263.326 86.7003 263.237 86.1303 263.212 85.535C263.199 85.1803 263.199 84.832 263.212 84.49C263.237 83.8947 263.326 83.3247 263.478 82.78C263.643 82.2353 263.883 81.7477 264.2 81.317C264.529 80.8863 264.947 80.5507 265.454 80.31C265.961 80.0567 266.569 79.93 267.278 79.93C268.038 79.93 268.665 80.0757 269.159 80.367C269.666 80.6457 270.077 80.9877 270.394 81.393V80.576C270.394 80.4493 270.432 80.3417 270.508 80.253C270.597 80.1643 270.704 80.12 270.831 80.12H271.705C271.832 80.12 271.939 80.1643 272.028 80.253C272.117 80.3417 272.161 80.4493 272.161 80.576V89.791C272.161 90.6397 272.015 91.3933 271.724 92.052C271.445 92.7107 270.977 93.23 270.318 93.61C269.672 93.99 268.798 94.18 267.696 94.18ZM267.658 88.556C268.291 88.556 268.798 88.4103 269.178 88.119C269.571 87.8277 269.856 87.4603 270.033 87.017C270.223 86.5737 270.324 86.124 270.337 85.668C270.35 85.4907 270.356 85.2753 270.356 85.022C270.356 84.756 270.35 84.5343 270.337 84.357C270.324 83.901 270.223 83.4513 270.033 83.008C269.856 82.5647 269.571 82.1973 269.178 81.906C268.798 81.6147 268.291 81.469 267.658 81.469C267.025 81.469 266.518 81.6147 266.138 81.906C265.758 82.1847 265.486 82.5583 265.321 83.027C265.156 83.483 265.061 83.977 265.036 84.509C265.023 84.8383 265.023 85.174 265.036 85.516C265.061 86.048 265.156 86.5483 265.321 87.017C265.486 87.473 265.758 87.8467 266.138 88.138C266.518 88.4167 267.025 88.556 267.658 88.556ZM278.919 90.19C277.614 90.19 276.576 89.791 275.803 88.993C275.03 88.1823 274.606 87.0803 274.53 85.687C274.517 85.5223 274.511 85.3133 274.511 85.06C274.511 84.794 274.517 84.5787 274.53 84.414C274.581 83.5147 274.79 82.7293 275.157 82.058C275.524 81.374 276.025 80.8483 276.658 80.481C277.304 80.1137 278.058 79.93 278.919 79.93C279.882 79.93 280.686 80.1327 281.332 80.538C281.991 80.9433 282.491 81.5197 282.833 82.267C283.175 83.0143 283.346 83.8883 283.346 84.889V85.212C283.346 85.3513 283.302 85.459 283.213 85.535C283.137 85.611 283.036 85.649 282.909 85.649H276.335C276.335 85.6617 276.335 85.687 276.335 85.725C276.335 85.763 276.335 85.7947 276.335 85.82C276.36 86.3393 276.474 86.827 276.677 87.283C276.88 87.7263 277.171 88.0873 277.551 88.366C277.931 88.6447 278.387 88.784 278.919 88.784C279.375 88.784 279.755 88.7143 280.059 88.575C280.363 88.4357 280.61 88.2837 280.8 88.119C280.99 87.9417 281.117 87.8087 281.18 87.72C281.294 87.5553 281.383 87.4603 281.446 87.435C281.509 87.397 281.611 87.378 281.75 87.378H282.662C282.789 87.378 282.89 87.416 282.966 87.492C283.055 87.5553 283.093 87.6503 283.08 87.777C283.067 87.967 282.966 88.2013 282.776 88.48C282.586 88.746 282.314 89.012 281.959 89.278C281.604 89.544 281.174 89.7657 280.667 89.943C280.16 90.1077 279.578 90.19 278.919 90.19ZM276.335 84.338H281.541V84.281C281.541 83.711 281.433 83.2043 281.218 82.761C281.015 82.3177 280.718 81.9693 280.325 81.716C279.932 81.45 279.464 81.317 278.919 81.317C278.374 81.317 277.906 81.45 277.513 81.716C277.133 81.9693 276.842 82.3177 276.639 82.761C276.436 83.2043 276.335 83.711 276.335 84.281V84.338ZM285.922 90C285.795 90 285.688 89.962 285.599 89.886C285.523 89.7973 285.485 89.6897 285.485 89.563V88.195C285.485 88.0683 285.523 87.967 285.599 87.891C285.688 87.8023 285.795 87.758 285.922 87.758H287.29C287.417 87.758 287.518 87.8023 287.594 87.891C287.683 87.967 287.727 88.0683 287.727 88.195V89.563C287.727 89.6897 287.683 89.7973 287.594 89.886C287.518 89.962 287.417 90 287.29 90H285.922ZM290.861 93.61C290.734 93.61 290.627 93.5657 290.538 93.477C290.462 93.401 290.424 93.2997 290.424 93.173V80.557C290.424 80.4303 290.462 80.329 290.538 80.253C290.627 80.1643 290.734 80.12 290.861 80.12H291.735C291.862 80.12 291.963 80.1643 292.039 80.253C292.128 80.329 292.172 80.4303 292.172 80.557V81.393C292.476 80.975 292.881 80.6267 293.388 80.348C293.895 80.0693 294.528 79.93 295.288 79.93C295.997 79.93 296.599 80.0503 297.093 80.291C297.6 80.5317 298.011 80.861 298.328 81.279C298.657 81.697 298.904 82.172 299.069 82.704C299.234 83.236 299.322 83.806 299.335 84.414C299.348 84.6167 299.354 84.832 299.354 85.06C299.354 85.288 299.348 85.5033 299.335 85.706C299.322 86.3013 299.234 86.8713 299.069 87.416C298.904 87.948 298.657 88.423 298.328 88.841C298.011 89.2463 297.6 89.5757 297.093 89.829C296.599 90.0697 295.997 90.19 295.288 90.19C294.553 90.19 293.933 90.057 293.426 89.791C292.932 89.5123 292.527 89.1703 292.21 88.765V93.173C292.21 93.2997 292.172 93.401 292.096 93.477C292.02 93.5657 291.912 93.61 291.773 93.61H290.861ZM294.889 88.651C295.548 88.651 296.061 88.5117 296.428 88.233C296.808 87.9417 297.08 87.568 297.245 87.112C297.41 86.6433 297.505 86.143 297.53 85.611C297.543 85.2437 297.543 84.8763 297.53 84.509C297.505 83.977 297.41 83.483 297.245 83.027C297.08 82.5583 296.808 82.1847 296.428 81.906C296.061 81.6147 295.548 81.469 294.889 81.469C294.268 81.469 293.762 81.6147 293.369 81.906C292.989 82.1973 292.704 82.571 292.514 83.027C292.337 83.4703 292.235 83.9263 292.21 84.395C292.197 84.5977 292.191 84.8383 292.191 85.117C292.191 85.3957 292.197 85.6427 292.21 85.858C292.223 86.3013 292.324 86.7383 292.514 87.169C292.717 87.5997 293.014 87.9543 293.407 88.233C293.8 88.5117 294.294 88.651 294.889 88.651ZM302.179 90C302.053 90 301.945 89.962 301.856 89.886C301.78 89.7973 301.742 89.6897 301.742 89.563V76.947C301.742 76.8203 301.78 76.719 301.856 76.643C301.945 76.5543 302.053 76.51 302.179 76.51H303.129C303.269 76.51 303.376 76.5543 303.452 76.643C303.528 76.719 303.566 76.8203 303.566 76.947V81.374C303.908 80.9433 304.326 80.595 304.82 80.329C305.314 80.063 305.941 79.93 306.701 79.93C307.525 79.93 308.221 80.1137 308.791 80.481C309.374 80.8357 309.811 81.336 310.102 81.982C310.406 82.6153 310.558 83.3563 310.558 84.205V89.563C310.558 89.6897 310.52 89.7973 310.444 89.886C310.368 89.962 310.261 90 310.121 90H309.171C309.045 90 308.937 89.962 308.848 89.886C308.772 89.7973 308.734 89.6897 308.734 89.563V84.3C308.734 83.4133 308.519 82.723 308.088 82.229C307.658 81.7223 307.024 81.469 306.188 81.469C305.403 81.469 304.77 81.7223 304.288 82.229C303.807 82.723 303.566 83.4133 303.566 84.3V89.563C303.566 89.6897 303.528 89.7973 303.452 89.886C303.376 89.962 303.269 90 303.129 90H302.179ZM313.758 93.61C313.631 93.61 313.523 93.5657 313.435 93.477C313.359 93.401 313.321 93.2997 313.321 93.173V80.557C313.321 80.4303 313.359 80.329 313.435 80.253C313.523 80.1643 313.631 80.12 313.758 80.12H314.632C314.758 80.12 314.86 80.1643 314.936 80.253C315.024 80.329 315.069 80.4303 315.069 80.557V81.393C315.373 80.975 315.778 80.6267 316.285 80.348C316.791 80.0693 317.425 79.93 318.185 79.93C318.894 79.93 319.496 80.0503 319.99 80.291C320.496 80.5317 320.908 80.861 321.225 81.279C321.554 81.697 321.801 82.172 321.966 82.704C322.13 83.236 322.219 83.806 322.232 84.414C322.244 84.6167 322.251 84.832 322.251 85.06C322.251 85.288 322.244 85.5033 322.232 85.706C322.219 86.3013 322.13 86.8713 321.966 87.416C321.801 87.948 321.554 88.423 321.225 88.841C320.908 89.2463 320.496 89.5757 319.99 89.829C319.496 90.0697 318.894 90.19 318.185 90.19C317.45 90.19 316.829 90.057 316.323 89.791C315.829 89.5123 315.423 89.1703 315.107 88.765V93.173C315.107 93.2997 315.069 93.401 314.993 93.477C314.917 93.5657 314.809 93.61 314.67 93.61H313.758ZM317.786 88.651C318.444 88.651 318.957 88.5117 319.325 88.233C319.705 87.9417 319.977 87.568 320.142 87.112C320.306 86.6433 320.401 86.143 320.427 85.611C320.439 85.2437 320.439 84.8763 320.427 84.509C320.401 83.977 320.306 83.483 320.142 83.027C319.977 82.5583 319.705 82.1847 319.325 81.906C318.957 81.6147 318.444 81.469 317.786 81.469C317.165 81.469 316.658 81.6147 316.266 81.906C315.886 82.1973 315.601 82.571 315.411 83.027C315.233 83.4703 315.132 83.9263 315.107 84.395C315.094 84.5977 315.088 84.8383 315.088 85.117C315.088 85.3957 315.094 85.6427 315.107 85.858C315.119 86.3013 315.221 86.7383 315.411 87.169C315.613 87.5997 315.911 87.9543 316.304 88.233C316.696 88.5117 317.19 88.651 317.786 88.651ZM428.048 90.779C427.909 90.779 427.801 90.7347 427.725 90.646C427.649 90.57 427.611 90.4687 427.611 90.342V89.62C427.611 89.4933 427.649 89.392 427.725 89.316C427.801 89.2273 427.909 89.183 428.048 89.183H439.068C439.195 89.183 439.296 89.2273 439.372 89.316C439.461 89.392 439.505 89.4933 439.505 89.62V90.342C439.505 90.4687 439.461 90.57 439.372 90.646C439.296 90.7347 439.195 90.779 439.068 90.779H428.048ZM446.954 90.19C446.194 90.19 445.561 90.057 445.054 89.791C444.547 89.5123 444.142 89.1703 443.838 88.765V89.563C443.838 89.6897 443.794 89.7973 443.705 89.886C443.629 89.962 443.528 90 443.401 90H442.527C442.4 90 442.293 89.962 442.204 89.886C442.128 89.7973 442.09 89.6897 442.09 89.563V76.947C442.09 76.8203 442.128 76.719 442.204 76.643C442.293 76.5543 442.4 76.51 442.527 76.51H443.439C443.578 76.51 443.686 76.5543 443.762 76.643C443.838 76.719 443.876 76.8203 443.876 76.947V81.317C444.193 80.9243 444.598 80.595 445.092 80.329C445.599 80.063 446.219 79.93 446.954 79.93C447.663 79.93 448.265 80.0567 448.759 80.31C449.266 80.5507 449.677 80.8863 449.994 81.317C450.323 81.7477 450.57 82.2353 450.735 82.78C450.9 83.3247 450.988 83.8947 451.001 84.49C451.014 84.6927 451.02 84.8827 451.02 85.06C451.02 85.2373 451.014 85.4273 451.001 85.63C450.988 86.238 450.9 86.8143 450.735 87.359C450.57 87.9037 450.323 88.3913 449.994 88.822C449.677 89.24 449.266 89.5757 448.759 89.829C448.265 90.0697 447.663 90.19 446.954 90.19ZM446.555 88.651C447.214 88.651 447.727 88.5117 448.094 88.233C448.474 87.9417 448.746 87.568 448.911 87.112C449.076 86.6433 449.171 86.143 449.196 85.611C449.209 85.2437 449.209 84.8763 449.196 84.509C449.171 83.977 449.076 83.483 448.911 83.027C448.746 82.5583 448.474 82.1847 448.094 81.906C447.727 81.6147 447.214 81.469 446.555 81.469C445.96 81.469 445.466 81.6083 445.073 81.887C444.68 82.1657 444.383 82.5203 444.18 82.951C443.99 83.3817 443.889 83.8187 443.876 84.262C443.863 84.4647 443.857 84.7117 443.857 85.003C443.857 85.2817 443.863 85.5223 443.876 85.725C443.901 86.1937 444.003 86.656 444.18 87.112C444.37 87.5553 444.655 87.9227 445.035 88.214C445.428 88.5053 445.934 88.651 446.555 88.651ZM453.827 90C453.7 90 453.593 89.962 453.504 89.886C453.428 89.7973 453.39 89.6897 453.39 89.563V76.947C453.39 76.8203 453.428 76.719 453.504 76.643C453.593 76.5543 453.7 76.51 453.827 76.51H454.72C454.859 76.51 454.967 76.5543 455.043 76.643C455.119 76.719 455.157 76.8203 455.157 76.947V89.563C455.157 89.6897 455.119 89.7973 455.043 89.886C454.967 89.962 454.859 90 454.72 90H453.827ZM460.746 90.19C460.113 90.19 459.536 90.0633 459.017 89.81C458.498 89.5567 458.08 89.2147 457.763 88.784C457.446 88.3533 457.288 87.8657 457.288 87.321C457.288 86.447 457.643 85.7503 458.352 85.231C459.061 84.7117 459.986 84.3697 461.126 84.205L463.957 83.806V83.255C463.957 82.647 463.78 82.172 463.425 81.83C463.083 81.488 462.519 81.317 461.734 81.317C461.164 81.317 460.702 81.431 460.347 81.659C460.005 81.887 459.764 82.1783 459.625 82.533C459.549 82.723 459.416 82.818 459.226 82.818H458.371C458.232 82.818 458.124 82.78 458.048 82.704C457.985 82.6153 457.953 82.514 457.953 82.4C457.953 82.21 458.023 81.9757 458.162 81.697C458.314 81.4183 458.542 81.146 458.846 80.88C459.15 80.614 459.536 80.3923 460.005 80.215C460.486 80.025 461.069 79.93 461.753 79.93C462.513 79.93 463.153 80.0313 463.672 80.234C464.191 80.424 464.597 80.6837 464.888 81.013C465.192 81.3423 465.407 81.716 465.534 82.134C465.673 82.552 465.743 82.9763 465.743 83.407V89.563C465.743 89.6897 465.699 89.7973 465.61 89.886C465.534 89.962 465.433 90 465.306 90H464.432C464.293 90 464.185 89.962 464.109 89.886C464.033 89.7973 463.995 89.6897 463.995 89.563V88.746C463.83 88.974 463.609 89.202 463.33 89.43C463.051 89.6453 462.703 89.829 462.285 89.981C461.867 90.1203 461.354 90.19 460.746 90.19ZM461.145 88.765C461.664 88.765 462.139 88.6573 462.57 88.442C463.001 88.214 463.336 87.8657 463.577 87.397C463.83 86.9283 463.957 86.3393 463.957 85.63V85.098L461.753 85.421C460.854 85.5477 460.176 85.763 459.72 86.067C459.264 86.3583 459.036 86.732 459.036 87.188C459.036 87.5427 459.137 87.8403 459.34 88.081C459.555 88.309 459.821 88.48 460.138 88.594C460.467 88.708 460.803 88.765 461.145 88.765ZM468.911 90C468.785 90 468.677 89.962 468.588 89.886C468.512 89.7973 468.474 89.6897 468.474 89.563V80.557C468.474 80.4303 468.512 80.329 468.588 80.253C468.677 80.1643 468.785 80.12 468.911 80.12H469.804C469.931 80.12 470.032 80.1643 470.108 80.253C470.197 80.329 470.241 80.4303 470.241 80.557V81.393C470.571 80.9623 470.982 80.614 471.476 80.348C471.983 80.0693 472.629 79.93 473.414 79.93C474.238 79.93 474.934 80.1137 475.504 80.481C476.087 80.8357 476.524 81.336 476.815 81.982C477.107 82.6153 477.252 83.3563 477.252 84.205V89.563C477.252 89.6897 477.214 89.7973 477.138 89.886C477.062 89.962 476.961 90 476.834 90H475.884C475.758 90 475.65 89.962 475.561 89.886C475.485 89.7973 475.447 89.6897 475.447 89.563V84.3C475.447 83.4133 475.232 82.723 474.801 82.229C474.371 81.7223 473.737 81.469 472.901 81.469C472.116 81.469 471.483 81.7223 471.001 82.229C470.533 82.723 470.298 83.4133 470.298 84.3V89.563C470.298 89.6897 470.254 89.7973 470.165 89.886C470.089 89.962 469.988 90 469.861 90H468.911ZM480.453 90C480.326 90 480.218 89.962 480.13 89.886C480.054 89.7973 480.016 89.6897 480.016 89.563V76.947C480.016 76.8203 480.054 76.719 480.13 76.643C480.218 76.5543 480.326 76.51 480.453 76.51H481.346C481.472 76.51 481.574 76.5543 481.65 76.643C481.738 76.719 481.783 76.8203 481.783 76.947V83.559L485.526 80.443C485.678 80.3163 485.792 80.234 485.868 80.196C485.956 80.1453 486.096 80.12 486.286 80.12H487.293C487.407 80.12 487.502 80.158 487.578 80.234C487.654 80.31 487.692 80.405 487.692 80.519C487.692 80.5697 487.673 80.6267 487.635 80.69C487.609 80.7533 487.552 80.8167 487.464 80.88L483.075 84.528L487.939 89.259C488.091 89.3857 488.167 89.4997 488.167 89.601C488.167 89.715 488.129 89.81 488.053 89.886C487.977 89.962 487.882 90 487.768 90H486.78C486.59 90 486.45 89.981 486.362 89.943C486.273 89.8923 486.159 89.8037 486.02 89.677L481.783 85.63V89.563C481.783 89.6897 481.738 89.7973 481.65 89.886C481.574 89.962 481.472 90 481.346 90H480.453ZM611.626 94.18C610.765 94.18 610.055 94.066 609.498 93.838C608.953 93.61 608.523 93.3313 608.206 93.002C607.902 92.6853 607.68 92.3623 607.541 92.033C607.414 91.7163 607.345 91.463 607.332 91.273C607.319 91.1463 607.357 91.0387 607.446 90.95C607.547 90.8613 607.655 90.817 607.769 90.817H608.681C608.795 90.817 608.89 90.8423 608.966 90.893C609.042 90.9437 609.105 91.0513 609.156 91.216C609.232 91.406 609.346 91.615 609.498 91.843C609.65 92.0837 609.884 92.2863 610.201 92.451C610.518 92.6283 610.961 92.717 611.531 92.717C612.126 92.717 612.627 92.6347 613.032 92.47C613.437 92.318 613.741 92.0393 613.944 91.634C614.159 91.2413 614.267 90.6967 614.267 90V88.708C613.963 89.1007 613.564 89.43 613.07 89.696C612.576 89.9493 611.955 90.076 611.208 90.076C610.499 90.076 609.891 89.9557 609.384 89.715C608.877 89.4617 608.459 89.126 608.13 88.708C607.813 88.2773 607.573 87.7897 607.408 87.245C607.256 86.7003 607.167 86.1303 607.142 85.535C607.129 85.1803 607.129 84.832 607.142 84.49C607.167 83.8947 607.256 83.3247 607.408 82.78C607.573 82.2353 607.813 81.7477 608.13 81.317C608.459 80.8863 608.877 80.5507 609.384 80.31C609.891 80.0567 610.499 79.93 611.208 79.93C611.968 79.93 612.595 80.0757 613.089 80.367C613.596 80.6457 614.007 80.9877 614.324 81.393V80.576C614.324 80.4493 614.362 80.3417 614.438 80.253C614.527 80.1643 614.634 80.12 614.761 80.12H615.635C615.762 80.12 615.869 80.1643 615.958 80.253C616.047 80.3417 616.091 80.4493 616.091 80.576V89.791C616.091 90.6397 615.945 91.3933 615.654 92.052C615.375 92.7107 614.907 93.23 614.248 93.61C613.602 93.99 612.728 94.18 611.626 94.18ZM611.588 88.556C612.221 88.556 612.728 88.4103 613.108 88.119C613.501 87.8277 613.786 87.4603 613.963 87.017C614.153 86.5737 614.254 86.124 614.267 85.668C614.28 85.4907 614.286 85.2753 614.286 85.022C614.286 84.756 614.28 84.5343 614.267 84.357C614.254 83.901 614.153 83.4513 613.963 83.008C613.786 82.5647 613.501 82.1973 613.108 81.906C612.728 81.6147 612.221 81.469 611.588 81.469C610.955 81.469 610.448 81.6147 610.068 81.906C609.688 82.1847 609.416 82.5583 609.251 83.027C609.086 83.483 608.991 83.977 608.966 84.509C608.953 84.8383 608.953 85.174 608.966 85.516C608.991 86.048 609.086 86.5483 609.251 87.017C609.416 87.473 609.688 87.8467 610.068 88.138C610.448 88.4167 610.955 88.556 611.588 88.556ZM622.849 90.19C621.544 90.19 620.505 89.791 619.733 88.993C618.96 88.1823 618.536 87.0803 618.46 85.687C618.447 85.5223 618.441 85.3133 618.441 85.06C618.441 84.794 618.447 84.5787 618.46 84.414C618.51 83.5147 618.719 82.7293 619.087 82.058C619.454 81.374 619.954 80.8483 620.588 80.481C621.234 80.1137 621.987 79.93 622.849 79.93C623.811 79.93 624.616 80.1327 625.262 80.538C625.92 80.9433 626.421 81.5197 626.763 82.267C627.105 83.0143 627.276 83.8883 627.276 84.889V85.212C627.276 85.3513 627.231 85.459 627.143 85.535C627.067 85.611 626.965 85.649 626.839 85.649H620.265C620.265 85.6617 620.265 85.687 620.265 85.725C620.265 85.763 620.265 85.7947 620.265 85.82C620.29 86.3393 620.404 86.827 620.607 87.283C620.809 87.7263 621.101 88.0873 621.481 88.366C621.861 88.6447 622.317 88.784 622.849 88.784C623.305 88.784 623.685 88.7143 623.989 88.575C624.293 88.4357 624.54 88.2837 624.73 88.119C624.92 87.9417 625.046 87.8087 625.11 87.72C625.224 87.5553 625.312 87.4603 625.376 87.435C625.439 87.397 625.54 87.378 625.68 87.378H626.592C626.718 87.378 626.82 87.416 626.896 87.492C626.984 87.5553 627.022 87.6503 627.01 87.777C626.997 87.967 626.896 88.2013 626.706 88.48C626.516 88.746 626.243 89.012 625.889 89.278C625.534 89.544 625.103 89.7657 624.597 89.943C624.09 90.1077 623.507 90.19 622.849 90.19ZM620.265 84.338H625.471V84.281C625.471 83.711 625.363 83.2043 625.148 82.761C624.945 82.3177 624.647 81.9693 624.255 81.716C623.862 81.45 623.393 81.317 622.849 81.317C622.304 81.317 621.835 81.45 621.443 81.716C621.063 81.9693 620.771 82.3177 620.569 82.761C620.366 83.2043 620.265 83.711 620.265 84.281V84.338ZM633.349 90C632.64 90 632.063 89.867 631.62 89.601C631.177 89.3223 630.854 88.936 630.651 88.442C630.448 87.9353 630.347 87.34 630.347 86.656V81.64H628.865C628.738 81.64 628.631 81.602 628.542 81.526C628.466 81.4373 628.428 81.3297 628.428 81.203V80.557C628.428 80.4303 628.466 80.329 628.542 80.253C628.631 80.1643 628.738 80.12 628.865 80.12H630.347V76.947C630.347 76.8203 630.385 76.719 630.461 76.643C630.55 76.5543 630.657 76.51 630.784 76.51H631.677C631.804 76.51 631.905 76.5543 631.981 76.643C632.07 76.719 632.114 76.8203 632.114 76.947V80.12H634.47C634.597 80.12 634.698 80.1643 634.774 80.253C634.863 80.329 634.907 80.4303 634.907 80.557V81.203C634.907 81.3297 634.863 81.4373 634.774 81.526C634.698 81.602 634.597 81.64 634.47 81.64H632.114V86.523C632.114 87.1183 632.215 87.587 632.418 87.929C632.621 88.271 632.982 88.442 633.501 88.442H634.66C634.787 88.442 634.888 88.4863 634.964 88.575C635.053 88.651 635.097 88.7523 635.097 88.879V89.563C635.097 89.6897 635.053 89.7973 634.964 89.886C634.888 89.962 634.787 90 634.66 90H633.349Z" fill="white"/>
<path d="M507.041 90C506.915 90 506.807 89.962 506.718 89.886C506.642 89.7973 506.604 89.6897 506.604 89.563V80.557C506.604 80.4303 506.642 80.329 506.718 80.253C506.807 80.1643 506.915 80.12 507.041 80.12H507.896C508.023 80.12 508.124 80.1643 508.2 80.253C508.289 80.329 508.333 80.4303 508.333 80.557V81.222C508.625 80.8293 508.992 80.519 509.435 80.291C509.879 80.0503 510.411 79.93 511.031 79.93C512.463 79.9173 513.476 80.5 514.071 81.678C514.363 81.146 514.787 80.7217 515.344 80.405C515.902 80.0883 516.535 79.93 517.244 79.93C517.903 79.93 518.498 80.082 519.03 80.386C519.575 80.69 519.999 81.1523 520.303 81.773C520.62 82.381 520.778 83.1473 520.778 84.072V89.563C520.778 89.6897 520.734 89.7973 520.645 89.886C520.569 89.962 520.468 90 520.341 90H519.448C519.322 90 519.214 89.962 519.125 89.886C519.049 89.7973 519.011 89.6897 519.011 89.563V84.243C519.011 83.5337 518.91 82.9763 518.707 82.571C518.505 82.1657 518.232 81.8807 517.89 81.716C517.548 81.5513 517.175 81.469 516.769 81.469C516.44 81.469 516.104 81.5513 515.762 81.716C515.42 81.8807 515.135 82.1657 514.907 82.571C514.692 82.9763 514.584 83.5337 514.584 84.243V89.563C514.584 89.6897 514.54 89.7973 514.451 89.886C514.375 89.962 514.274 90 514.147 90H513.254C513.128 90 513.02 89.962 512.931 89.886C512.855 89.7973 512.817 89.6897 512.817 89.563V84.243C512.817 83.5337 512.71 82.9763 512.494 82.571C512.279 82.1657 512 81.8807 511.658 81.716C511.316 81.5513 510.955 81.469 510.575 81.469C510.246 81.469 509.91 81.5513 509.568 81.716C509.226 81.8807 508.941 82.1657 508.713 82.571C508.498 82.9763 508.39 83.5273 508.39 84.224V89.563C508.39 89.6897 508.346 89.7973 508.257 89.886C508.181 89.962 508.08 90 507.953 90H507.041ZM527.422 90.19C526.117 90.19 525.079 89.791 524.306 88.993C523.533 88.1823 523.109 87.0803 523.033 85.687C523.02 85.5223 523.014 85.3133 523.014 85.06C523.014 84.794 523.02 84.5787 523.033 84.414C523.084 83.5147 523.293 82.7293 523.66 82.058C524.027 81.374 524.528 80.8483 525.161 80.481C525.807 80.1137 526.561 79.93 527.422 79.93C528.385 79.93 529.189 80.1327 529.835 80.538C530.494 80.9433 530.994 81.5197 531.336 82.267C531.678 83.0143 531.849 83.8883 531.849 84.889V85.212C531.849 85.3513 531.805 85.459 531.716 85.535C531.64 85.611 531.539 85.649 531.412 85.649H524.838C524.838 85.6617 524.838 85.687 524.838 85.725C524.838 85.763 524.838 85.7947 524.838 85.82C524.863 86.3393 524.977 86.827 525.18 87.283C525.383 87.7263 525.674 88.0873 526.054 88.366C526.434 88.6447 526.89 88.784 527.422 88.784C527.878 88.784 528.258 88.7143 528.562 88.575C528.866 88.4357 529.113 88.2837 529.303 88.119C529.493 87.9417 529.62 87.8087 529.683 87.72C529.797 87.5553 529.886 87.4603 529.949 87.435C530.012 87.397 530.114 87.378 530.253 87.378H531.165C531.292 87.378 531.393 87.416 531.469 87.492C531.558 87.5553 531.596 87.6503 531.583 87.777C531.57 87.967 531.469 88.2013 531.279 88.48C531.089 88.746 530.817 89.012 530.462 89.278C530.107 89.544 529.677 89.7657 529.17 89.943C528.663 90.1077 528.081 90.19 527.422 90.19ZM524.838 84.338H530.044V84.281C530.044 83.711 529.936 83.2043 529.721 82.761C529.518 82.3177 529.221 81.9693 528.828 81.716C528.435 81.45 527.967 81.317 527.422 81.317C526.877 81.317 526.409 81.45 526.016 81.716C525.636 81.9693 525.345 82.3177 525.142 82.761C524.939 83.2043 524.838 83.711 524.838 84.281V84.338ZM537.922 90C537.213 90 536.637 89.867 536.193 89.601C535.75 89.3223 535.427 88.936 535.224 88.442C535.022 87.9353 534.92 87.34 534.92 86.656V81.64H533.438C533.312 81.64 533.204 81.602 533.115 81.526C533.039 81.4373 533.001 81.3297 533.001 81.203V80.557C533.001 80.4303 533.039 80.329 533.115 80.253C533.204 80.1643 533.312 80.12 533.438 80.12H534.92V76.947C534.92 76.8203 534.958 76.719 535.034 76.643C535.123 76.5543 535.231 76.51 535.357 76.51H536.25C536.377 76.51 536.478 76.5543 536.554 76.643C536.643 76.719 536.687 76.8203 536.687 76.947V80.12H539.043C539.17 80.12 539.271 80.1643 539.347 80.253C539.436 80.329 539.48 80.4303 539.48 80.557V81.203C539.48 81.3297 539.436 81.4373 539.347 81.526C539.271 81.602 539.17 81.64 539.043 81.64H536.687V86.523C536.687 87.1183 536.789 87.587 536.991 87.929C537.194 88.271 537.555 88.442 538.074 88.442H539.233C539.36 88.442 539.461 88.4863 539.537 88.575C539.626 88.651 539.67 88.7523 539.67 88.879V89.563C539.67 89.6897 539.626 89.7973 539.537 89.886C539.461 89.962 539.36 90 539.233 90H537.922ZM541.943 90C541.816 90 541.709 89.962 541.62 89.886C541.544 89.7973 541.506 89.6897 541.506 89.563V76.947C541.506 76.8203 541.544 76.719 541.62 76.643C541.709 76.5543 541.816 76.51 541.943 76.51H542.893C543.032 76.51 543.14 76.5543 543.216 76.643C543.292 76.719 543.33 76.8203 543.33 76.947V81.374C543.672 80.9433 544.09 80.595 544.584 80.329C545.078 80.063 545.705 79.93 546.465 79.93C547.288 79.93 547.985 80.1137 548.555 80.481C549.138 80.8357 549.575 81.336 549.866 81.982C550.17 82.6153 550.322 83.3563 550.322 84.205V89.563C550.322 89.6897 550.284 89.7973 550.208 89.886C550.132 89.962 550.024 90 549.885 90H548.935C548.808 90 548.701 89.962 548.612 89.886C548.536 89.7973 548.498 89.6897 548.498 89.563V84.3C548.498 83.4133 548.283 82.723 547.852 82.229C547.421 81.7223 546.788 81.469 545.952 81.469C545.167 81.469 544.533 81.7223 544.052 82.229C543.571 82.723 543.33 83.4133 543.33 84.3V89.563C543.33 89.6897 543.292 89.7973 543.216 89.886C543.14 89.962 543.032 90 542.893 90H541.943ZM557.112 90.19C556.15 90.19 555.345 90.0063 554.699 89.639C554.053 89.2717 553.559 88.765 553.217 88.119C552.875 87.4603 552.685 86.713 552.647 85.877C552.635 85.6617 552.628 85.3893 552.628 85.06C552.628 84.718 552.635 84.4457 552.647 84.243C552.685 83.3943 552.875 82.647 553.217 82.001C553.572 81.355 554.072 80.8483 554.718 80.481C555.364 80.1137 556.162 79.93 557.112 79.93C558.062 79.93 558.86 80.1137 559.506 80.481C560.152 80.8483 560.646 81.355 560.988 82.001C561.343 82.647 561.539 83.3943 561.577 84.243C561.59 84.4457 561.596 84.718 561.596 85.06C561.596 85.3893 561.59 85.6617 561.577 85.877C561.539 86.713 561.349 87.4603 561.007 88.119C560.665 88.765 560.171 89.2717 559.525 89.639C558.879 90.0063 558.075 90.19 557.112 90.19ZM557.112 88.727C557.898 88.727 558.525 88.48 558.993 87.986C559.462 87.4793 559.715 86.7447 559.753 85.782C559.766 85.592 559.772 85.3513 559.772 85.06C559.772 84.7687 559.766 84.528 559.753 84.338C559.715 83.3753 559.462 82.647 558.993 82.153C558.525 81.6463 557.898 81.393 557.112 81.393C556.327 81.393 555.694 81.6463 555.212 82.153C554.744 82.647 554.497 83.3753 554.471 84.338C554.459 84.528 554.452 84.7687 554.452 85.06C554.452 85.3513 554.459 85.592 554.471 85.782C554.497 86.7447 554.744 87.4793 555.212 87.986C555.694 88.48 556.327 88.727 557.112 88.727ZM567.585 90.19C566.889 90.19 566.287 90.0697 565.78 89.829C565.274 89.5757 564.856 89.24 564.526 88.822C564.21 88.3913 563.969 87.9037 563.804 87.359C563.652 86.8143 563.564 86.238 563.538 85.63C563.526 85.4273 563.519 85.2373 563.519 85.06C563.519 84.8827 563.526 84.6927 563.538 84.49C563.564 83.8947 563.652 83.3247 563.804 82.78C563.969 82.2353 564.21 81.7477 564.526 81.317C564.856 80.8863 565.274 80.5507 565.78 80.31C566.287 80.0567 566.889 79.93 567.585 79.93C568.333 79.93 568.953 80.063 569.447 80.329C569.941 80.595 570.347 80.9243 570.663 81.317V76.947C570.663 76.8203 570.701 76.719 570.777 76.643C570.866 76.5543 570.974 76.51 571.1 76.51H572.012C572.139 76.51 572.24 76.5543 572.316 76.643C572.405 76.719 572.449 76.8203 572.449 76.947V89.563C572.449 89.6897 572.405 89.7973 572.316 89.886C572.24 89.962 572.139 90 572.012 90H571.157C571.018 90 570.91 89.962 570.834 89.886C570.758 89.7973 570.72 89.6897 570.72 89.563V88.765C570.404 89.1703 569.992 89.5123 569.485 89.791C568.979 90.057 568.345 90.19 567.585 90.19ZM567.984 88.651C568.618 88.651 569.124 88.5053 569.504 88.214C569.884 87.9227 570.169 87.5553 570.359 87.112C570.549 86.656 570.651 86.1937 570.663 85.725C570.676 85.5223 570.682 85.2817 570.682 85.003C570.682 84.7117 570.676 84.4647 570.663 84.262C570.651 83.8187 570.543 83.3817 570.34 82.951C570.15 82.5203 569.859 82.1657 569.466 81.887C569.086 81.6083 568.592 81.469 567.984 81.469C567.338 81.469 566.825 81.6147 566.445 81.906C566.065 82.1847 565.793 82.5583 565.628 83.027C565.464 83.483 565.369 83.977 565.343 84.509C565.331 84.8763 565.331 85.2437 565.343 85.611C565.369 86.143 565.464 86.6433 565.628 87.112C565.793 87.568 566.065 87.9417 566.445 88.233C566.825 88.5117 567.338 88.651 567.984 88.651ZM580.312 82.666C580.186 82.666 580.084 82.628 580.008 82.552C579.932 82.476 579.894 82.3747 579.894 82.248V81.602C579.894 81.4753 579.932 81.374 580.008 81.298C580.084 81.222 580.186 81.184 580.312 81.184H587.551C587.678 81.184 587.779 81.222 587.855 81.298C587.944 81.374 587.988 81.4753 587.988 81.602V82.248C587.988 82.3747 587.944 82.476 587.855 82.552C587.779 82.628 587.678 82.666 587.551 82.666H580.312ZM580.312 87.416C580.186 87.416 580.084 87.378 580.008 87.302C579.932 87.226 579.894 87.1247 579.894 86.998V86.352C579.894 86.2253 579.932 86.124 580.008 86.048C580.084 85.972 580.186 85.934 580.312 85.934H587.551C587.678 85.934 587.779 85.972 587.855 86.048C587.944 86.124 587.988 86.2253 587.988 86.352V86.998C587.988 87.1247 587.944 87.226 587.855 87.302C587.779 87.378 587.678 87.416 587.551 87.416H580.312ZM598.333 80.177C598.244 80.177 598.168 80.1453 598.105 80.082C598.054 80.0187 598.029 79.9427 598.029 79.854C598.029 79.7527 598.048 79.6513 598.086 79.55L599.093 76.947C599.156 76.8203 599.219 76.719 599.283 76.643C599.359 76.5543 599.479 76.51 599.644 76.51H600.271C600.372 76.51 600.448 76.548 600.499 76.624C600.562 76.7 600.581 76.8013 600.556 76.928L600.138 79.626C600.125 79.778 600.074 79.911 599.986 80.025C599.897 80.1263 599.764 80.177 599.587 80.177H598.333ZM595.293 80.177C595.204 80.177 595.128 80.1453 595.065 80.082C595.014 80.0187 594.989 79.9427 594.989 79.854C594.989 79.7527 595.008 79.6513 595.046 79.55L596.053 76.947C596.116 76.8203 596.186 76.719 596.262 76.643C596.338 76.5543 596.452 76.51 596.604 76.51H597.231C597.332 76.51 597.408 76.548 597.459 76.624C597.522 76.7 597.541 76.8013 597.516 76.928L597.098 79.626C597.085 79.778 597.034 79.911 596.946 80.025C596.857 80.1263 596.73 80.177 596.566 80.177H595.293ZM644.478 80.177C644.389 80.177 644.313 80.1453 644.25 80.082C644.199 80.0187 644.174 79.9427 644.174 79.854C644.174 79.7527 644.193 79.6513 644.231 79.55L645.238 76.947C645.301 76.8203 645.365 76.719 645.428 76.643C645.504 76.5543 645.624 76.51 645.789 76.51H646.416C646.517 76.51 646.593 76.548 646.644 76.624C646.707 76.7 646.726 76.8013 646.701 76.928L646.283 79.626C646.27 79.778 646.22 79.911 646.131 80.025C646.042 80.1263 645.909 80.177 645.732 80.177H644.478ZM641.438 80.177C641.349 80.177 641.273 80.1453 641.21 80.082C641.159 80.0187 641.134 79.9427 641.134 79.854C641.134 79.7527 641.153 79.6513 641.191 79.55L642.198 76.947C642.261 76.8203 642.331 76.719 642.407 76.643C642.483 76.5543 642.597 76.51 642.749 76.51H643.376C643.477 76.51 643.553 76.548 643.604 76.624C643.667 76.7 643.686 76.8013 643.661 76.928L643.243 79.626C643.23 79.778 643.18 79.911 643.091 80.025C643.002 80.1263 642.876 80.177 642.711 80.177H641.438Z" fill="white" fill-opacity="0.85"/>
<g filter="url(#filter0_d_206_28)">
<path d="M4 12C4 5.37258 9.37258 0 16 0H675C681.627 0 687 5.37258 687 12V43H4V12Z" fill="#242526"/>
</g>
<ellipse cx="29.1279" cy="21.9141" rx="5.84369" ry="6.72025" fill="#E65100"/>
<ellipse cx="48.4121" cy="21.9141" rx="5.84369" ry="6.72025" fill="#FFD600"/>
<ellipse cx="67.6962" cy="21.9141" rx="5.84369" ry="6.72025" fill="#4EC433"/>
<defs>
<filter id="filter0_d_206_28" x="0" y="0" width="691" height="51" filterUnits="userSpaceOnUse" color-interpolation-filters="sRGB">
<feFlood flood-opacity="0" result="BackgroundImageFix"/>
<feColorMatrix in="SourceAlpha" type="matrix" values="0 0 0 0 0 0 0 0 0 0 0 0 0 0 0 0 0 0 127 0" result="hardAlpha"/>
<feOffset dy="4"/>
<feGaussianBlur stdDeviation="2"/>
<feComposite in2="hardAlpha" operator="out"/>
<feColorMatrix type="matrix" values="0 0 0 0 0 0 0 0 0 0 0 0 0 0 0 0 0 0 0.25 0"/>
<feBlend mode="normal" in2="BackgroundImageFix" result="effect1_dropShadow_206_28"/>
<feBlend mode="normal" in="SourceGraphic" in2="effect1_dropShadow_206_28" result="shape"/>
</filter>
</defs>
</svg>
