<svg width="300" height="115" viewBox="0 0 300 115" fill="none" xmlns="http://www.w3.org/2000/svg">
<rect x="4" width="292" height="115" rx="12" fill="#242526"/>
<path d="M26.06 84.625C26 84.625 25.935 84.605 25.865 84.565C25.805 84.525 25.75 84.495 25.7 84.475L20.975 81.22C20.825 81.12 20.715 81.02 20.645 80.92C20.575 80.81 20.54 80.685 20.54 80.545V80.275C20.54 80.135 20.575 80.015 20.645 79.915C20.715 79.815 20.825 79.71 20.975 79.6L25.7 76.36C25.75 76.33 25.805 76.295 25.865 76.255C25.935 76.215 26 76.195 26.06 76.195C26.14 76.195 26.21 76.225 26.27 76.285C26.33 76.335 26.36 76.41 26.36 76.51V77.17C26.36 77.28 26.33 77.375 26.27 77.455C26.21 77.525 26.125 77.595 26.015 77.665L21.995 80.41L26.015 83.155C26.125 83.235 26.21 83.31 26.27 83.38C26.33 83.45 26.36 83.545 26.36 83.665V84.325C26.36 84.415 26.33 84.49 26.27 84.55C26.21 84.6 26.14 84.625 26.06 84.625ZM98.2389 84.61C98.1589 84.61 98.0889 84.585 98.0289 84.535C97.9689 84.485 97.9389 84.41 97.9389 84.31V83.65C97.9389 83.53 97.9639 83.435 98.0139 83.365C98.0739 83.295 98.1639 83.225 98.2839 83.155L102.289 80.41L98.2839 77.665C98.1639 77.585 98.0739 77.51 98.0139 77.44C97.9639 77.37 97.9389 77.275 97.9389 77.155V76.495C97.9389 76.395 97.9689 76.32 98.0289 76.27C98.0889 76.22 98.1589 76.195 98.2389 76.195C98.2989 76.195 98.3639 76.215 98.4339 76.255C98.5039 76.285 98.5589 76.315 98.5989 76.345L103.309 79.585C103.469 79.695 103.579 79.8 103.639 79.9C103.709 80 103.744 80.125 103.744 80.275V80.53C103.744 80.67 103.709 80.795 103.639 80.905C103.579 81.005 103.469 81.11 103.309 81.22L98.5989 84.46C98.5589 84.49 98.5039 84.525 98.4339 84.565C98.3639 84.595 98.2989 84.61 98.2389 84.61ZM174.405 84.625C174.345 84.625 174.28 84.605 174.21 84.565C174.15 84.525 174.095 84.495 174.045 84.475L169.32 81.22C169.17 81.12 169.06 81.02 168.99 80.92C168.92 80.81 168.885 80.685 168.885 80.545V80.275C168.885 80.135 168.92 80.015 168.99 79.915C169.06 79.815 169.17 79.71 169.32 79.6L174.045 76.36C174.095 76.33 174.15 76.295 174.21 76.255C174.28 76.215 174.345 76.195 174.405 76.195C174.485 76.195 174.555 76.225 174.615 76.285C174.675 76.335 174.705 76.41 174.705 76.51V77.17C174.705 77.28 174.675 77.375 174.615 77.455C174.555 77.525 174.47 77.595 174.36 77.665L170.34 80.41L174.36 83.155C174.47 83.235 174.555 83.31 174.615 83.38C174.675 83.45 174.705 83.545 174.705 83.665V84.325C174.705 84.415 174.675 84.49 174.615 84.55C174.555 84.6 174.485 84.625 174.405 84.625ZM257.482 84.61C257.402 84.61 257.332 84.585 257.272 84.535C257.212 84.485 257.182 84.41 257.182 84.31V83.65C257.182 83.53 257.207 83.435 257.257 83.365C257.317 83.295 257.407 83.225 257.527 83.155L261.532 80.41L257.527 77.665C257.407 77.585 257.317 77.51 257.257 77.44C257.207 77.37 257.182 77.275 257.182 77.155V76.495C257.182 76.395 257.212 76.32 257.272 76.27C257.332 76.22 257.402 76.195 257.482 76.195C257.542 76.195 257.607 76.215 257.677 76.255C257.747 76.285 257.802 76.315 257.842 76.345L262.552 79.585C262.712 79.695 262.822 79.8 262.882 79.9C262.952 80 262.987 80.125 262.987 80.275V80.53C262.987 80.67 262.952 80.795 262.882 80.905C262.822 81.005 262.712 81.11 262.552 81.22L257.842 84.46C257.802 84.49 257.747 84.525 257.677 84.565C257.607 84.595 257.542 84.61 257.482 84.61Z" fill="#647DFF"/>
<path d="M113.049 85.15C112.129 85.15 111.364 84.98 110.754 84.64C110.154 84.3 109.699 83.825 109.389 83.215C109.079 82.605 108.909 81.895 108.879 81.085C108.869 80.675 108.864 80.235 108.864 79.765C108.864 79.295 108.869 78.845 108.879 78.415C108.909 77.605 109.079 76.895 109.389 76.285C109.699 75.675 110.154 75.2 110.754 74.86C111.364 74.52 112.129 74.35 113.049 74.35C113.739 74.35 114.344 74.445 114.864 74.635C115.384 74.825 115.814 75.08 116.154 75.4C116.504 75.72 116.769 76.08 116.949 76.48C117.129 76.87 117.229 77.275 117.249 77.695C117.259 77.785 117.229 77.86 117.159 77.92C117.099 77.98 117.024 78.01 116.934 78.01H116.109C116.019 78.01 115.939 77.985 115.869 77.935C115.809 77.885 115.764 77.795 115.734 77.665C115.564 76.885 115.244 76.35 114.774 76.06C114.314 75.77 113.734 75.625 113.034 75.625C112.234 75.625 111.599 75.855 111.129 76.315C110.659 76.765 110.404 77.49 110.364 78.49C110.334 79.31 110.334 80.15 110.364 81.01C110.404 82.01 110.659 82.74 111.129 83.2C111.599 83.65 112.234 83.875 113.034 83.875C113.734 83.875 114.314 83.73 114.774 83.44C115.244 83.15 115.564 82.615 115.734 81.835C115.764 81.705 115.809 81.615 115.869 81.565C115.939 81.515 116.019 81.49 116.109 81.49H116.934C117.024 81.49 117.099 81.52 117.159 81.58C117.229 81.64 117.259 81.715 117.249 81.805C117.229 82.225 117.129 82.635 116.949 83.035C116.769 83.425 116.504 83.78 116.154 84.1C115.814 84.42 115.384 84.675 114.864 84.865C114.344 85.055 113.739 85.15 113.049 85.15ZM122.259 85.15C121.499 85.15 120.864 85.005 120.354 84.715C119.844 84.425 119.454 84.025 119.184 83.515C118.914 82.995 118.764 82.405 118.734 81.745C118.724 81.575 118.719 81.36 118.719 81.1C118.719 80.83 118.724 80.615 118.734 80.455C118.764 79.785 118.914 79.195 119.184 78.685C119.464 78.175 119.859 77.775 120.369 77.485C120.879 77.195 121.509 77.05 122.259 77.05C123.009 77.05 123.639 77.195 124.149 77.485C124.659 77.775 125.049 78.175 125.319 78.685C125.599 79.195 125.754 79.785 125.784 80.455C125.794 80.615 125.799 80.83 125.799 81.1C125.799 81.36 125.794 81.575 125.784 81.745C125.754 82.405 125.604 82.995 125.334 83.515C125.064 84.025 124.674 84.425 124.164 84.715C123.654 85.005 123.019 85.15 122.259 85.15ZM122.259 83.995C122.879 83.995 123.374 83.8 123.744 83.41C124.114 83.01 124.314 82.43 124.344 81.67C124.354 81.52 124.359 81.33 124.359 81.1C124.359 80.87 124.354 80.68 124.344 80.53C124.314 79.77 124.114 79.195 123.744 78.805C123.374 78.405 122.879 78.205 122.259 78.205C121.639 78.205 121.139 78.405 120.759 78.805C120.389 79.195 120.194 79.77 120.174 80.53C120.164 80.68 120.159 80.87 120.159 81.1C120.159 81.33 120.164 81.52 120.174 81.67C120.194 82.43 120.389 83.01 120.759 83.41C121.139 83.8 121.639 83.995 122.259 83.995ZM128.022 85C127.922 85 127.837 84.97 127.767 84.91C127.707 84.84 127.677 84.755 127.677 84.655V77.545C127.677 77.445 127.707 77.365 127.767 77.305C127.837 77.235 127.922 77.2 128.022 77.2H128.727C128.827 77.2 128.907 77.235 128.967 77.305C129.037 77.365 129.072 77.445 129.072 77.545V78.205C129.332 77.865 129.657 77.59 130.047 77.38C130.447 77.16 130.957 77.05 131.577 77.05C132.227 77.05 132.777 77.195 133.227 77.485C133.687 77.765 134.032 78.16 134.262 78.67C134.492 79.17 134.607 79.755 134.607 80.425V84.655C134.607 84.755 134.577 84.84 134.517 84.91C134.457 84.97 134.377 85 134.277 85H133.527C133.427 85 133.342 84.97 133.272 84.91C133.212 84.84 133.182 84.755 133.182 84.655V80.5C133.182 79.8 133.012 79.255 132.672 78.865C132.332 78.465 131.832 78.265 131.172 78.265C130.552 78.265 130.052 78.465 129.672 78.865C129.302 79.255 129.117 79.8 129.117 80.5V84.655C129.117 84.755 129.082 84.84 129.012 84.91C128.952 84.97 128.872 85 128.772 85H128.022ZM139.717 85C139.157 85 138.702 84.895 138.352 84.685C138.002 84.465 137.747 84.16 137.587 83.77C137.427 83.37 137.347 82.9 137.347 82.36V78.4H136.177C136.077 78.4 135.992 78.37 135.922 78.31C135.862 78.24 135.832 78.155 135.832 78.055V77.545C135.832 77.445 135.862 77.365 135.922 77.305C135.992 77.235 136.077 77.2 136.177 77.2H137.347V74.695C137.347 74.595 137.377 74.515 137.437 74.455C137.507 74.385 137.592 74.35 137.692 74.35H138.397C138.497 74.35 138.577 74.385 138.637 74.455C138.707 74.515 138.742 74.595 138.742 74.695V77.2H140.602C140.702 77.2 140.782 77.235 140.842 77.305C140.912 77.365 140.947 77.445 140.947 77.545V78.055C140.947 78.155 140.912 78.24 140.842 78.31C140.782 78.37 140.702 78.4 140.602 78.4H138.742V82.255C138.742 82.725 138.822 83.095 138.982 83.365C139.142 83.635 139.427 83.77 139.837 83.77H140.752C140.852 83.77 140.932 83.805 140.992 83.875C141.062 83.935 141.097 84.015 141.097 84.115V84.655C141.097 84.755 141.062 84.84 140.992 84.91C140.932 84.97 140.852 85 140.752 85H139.717ZM145.636 85.15C144.606 85.15 143.786 84.835 143.176 84.205C142.566 83.565 142.231 82.695 142.171 81.595C142.161 81.465 142.156 81.3 142.156 81.1C142.156 80.89 142.161 80.72 142.171 80.59C142.211 79.88 142.376 79.26 142.666 78.73C142.956 78.19 143.351 77.775 143.851 77.485C144.361 77.195 144.956 77.05 145.636 77.05C146.396 77.05 147.031 77.21 147.541 77.53C148.061 77.85 148.456 78.305 148.726 78.895C148.996 79.485 149.131 80.175 149.131 80.965V81.22C149.131 81.33 149.096 81.415 149.026 81.475C148.966 81.535 148.886 81.565 148.786 81.565H143.596C143.596 81.575 143.596 81.595 143.596 81.625C143.596 81.655 143.596 81.68 143.596 81.7C143.616 82.11 143.706 82.495 143.866 82.855C144.026 83.205 144.256 83.49 144.556 83.71C144.856 83.93 145.216 84.04 145.636 84.04C145.996 84.04 146.296 83.985 146.536 83.875C146.776 83.765 146.971 83.645 147.121 83.515C147.271 83.375 147.371 83.27 147.421 83.2C147.511 83.07 147.581 82.995 147.631 82.975C147.681 82.945 147.761 82.93 147.871 82.93H148.591C148.691 82.93 148.771 82.96 148.831 83.02C148.901 83.07 148.931 83.145 148.921 83.245C148.911 83.395 148.831 83.58 148.681 83.8C148.531 84.01 148.316 84.22 148.036 84.43C147.756 84.64 147.416 84.815 147.016 84.955C146.616 85.085 146.156 85.15 145.636 85.15ZM143.596 80.53H147.706V80.485C147.706 80.035 147.621 79.635 147.451 79.285C147.291 78.935 147.056 78.66 146.746 78.46C146.436 78.25 146.066 78.145 145.636 78.145C145.206 78.145 144.836 78.25 144.526 78.46C144.226 78.66 143.996 78.935 143.836 79.285C143.676 79.635 143.596 80.035 143.596 80.485V80.53ZM151.269 85C151.169 85 151.084 84.97 151.014 84.91C150.954 84.84 150.924 84.755 150.924 84.655V77.545C150.924 77.445 150.954 77.365 151.014 77.305C151.084 77.235 151.169 77.2 151.269 77.2H151.974C152.074 77.2 152.154 77.235 152.214 77.305C152.284 77.365 152.319 77.445 152.319 77.545V78.205C152.579 77.865 152.904 77.59 153.294 77.38C153.694 77.16 154.204 77.05 154.824 77.05C155.474 77.05 156.024 77.195 156.474 77.485C156.934 77.765 157.279 78.16 157.509 78.67C157.739 79.17 157.854 79.755 157.854 80.425V84.655C157.854 84.755 157.824 84.84 157.764 84.91C157.704 84.97 157.624 85 157.524 85H156.774C156.674 85 156.589 84.97 156.519 84.91C156.459 84.84 156.429 84.755 156.429 84.655V80.5C156.429 79.8 156.259 79.255 155.919 78.865C155.579 78.465 155.079 78.265 154.419 78.265C153.799 78.265 153.299 78.465 152.919 78.865C152.549 79.255 152.364 79.8 152.364 80.5V84.655C152.364 84.755 152.329 84.84 152.259 84.91C152.199 84.97 152.119 85 152.019 85H151.269ZM162.964 85C162.404 85 161.949 84.895 161.599 84.685C161.249 84.465 160.994 84.16 160.834 83.77C160.674 83.37 160.594 82.9 160.594 82.36V78.4H159.424C159.324 78.4 159.239 78.37 159.169 78.31C159.109 78.24 159.079 78.155 159.079 78.055V77.545C159.079 77.445 159.109 77.365 159.169 77.305C159.239 77.235 159.324 77.2 159.424 77.2H160.594V74.695C160.594 74.595 160.624 74.515 160.684 74.455C160.754 74.385 160.839 74.35 160.939 74.35H161.644C161.744 74.35 161.824 74.385 161.884 74.455C161.954 74.515 161.989 74.595 161.989 74.695V77.2H163.849C163.949 77.2 164.029 77.235 164.089 77.305C164.159 77.365 164.194 77.445 164.194 77.545V78.055C164.194 78.155 164.159 78.24 164.089 78.31C164.029 78.37 163.949 78.4 163.849 78.4H161.989V82.255C161.989 82.725 162.069 83.095 162.229 83.365C162.389 83.635 162.674 83.77 163.084 83.77H163.999C164.099 83.77 164.179 83.805 164.239 83.875C164.309 83.935 164.344 84.015 164.344 84.115V84.655C164.344 84.755 164.309 84.84 164.239 84.91C164.179 84.97 164.099 85 163.999 85H162.964ZM180.094 86.26C180.014 86.26 179.944 86.23 179.884 86.17C179.824 86.11 179.794 86.04 179.794 85.96C179.794 85.91 179.809 85.85 179.839 85.78L184.969 73.48C184.999 73.42 185.039 73.36 185.089 73.3C185.149 73.24 185.239 73.21 185.359 73.21H185.944C186.024 73.21 186.094 73.24 186.154 73.3C186.214 73.36 186.244 73.43 186.244 73.51C186.244 73.55 186.234 73.61 186.214 73.69L181.069 85.99C181.049 86.04 181.004 86.095 180.934 86.155C180.874 86.225 180.789 86.26 180.679 86.26H180.094Z" fill="white"/>
<path d="M35.2146 85C34.6546 85 34.1996 84.895 33.8496 84.685C33.4996 84.465 33.2446 84.16 33.0846 83.77C32.9246 83.37 32.8446 82.9 32.8446 82.36V78.4H31.6746C31.5746 78.4 31.4896 78.37 31.4196 78.31C31.3596 78.24 31.3296 78.155 31.3296 78.055V77.545C31.3296 77.445 31.3596 77.365 31.4196 77.305C31.4896 77.235 31.5746 77.2 31.6746 77.2H32.8446V74.695C32.8446 74.595 32.8746 74.515 32.9346 74.455C33.0046 74.385 33.0896 74.35 33.1896 74.35H33.8946C33.9946 74.35 34.0746 74.385 34.1346 74.455C34.2046 74.515 34.2396 74.595 34.2396 74.695V77.2H36.0996C36.1996 77.2 36.2796 77.235 36.3396 77.305C36.4096 77.365 36.4446 77.445 36.4446 77.545V78.055C36.4446 78.155 36.4096 78.24 36.3396 78.31C36.2796 78.37 36.1996 78.4 36.0996 78.4H34.2396V82.255C34.2396 82.725 34.3196 83.095 34.4796 83.365C34.6396 83.635 34.9246 83.77 35.3346 83.77H36.2496C36.3496 83.77 36.4296 83.805 36.4896 83.875C36.5596 83.935 36.5946 84.015 36.5946 84.115V84.655C36.5946 84.755 36.5596 84.84 36.4896 84.91C36.4296 84.97 36.3496 85 36.2496 85H35.2146ZM40.2039 85.15C39.7039 85.15 39.2489 85.05 38.8389 84.85C38.4289 84.65 38.0989 84.38 37.8489 84.04C37.5989 83.7 37.4739 83.315 37.4739 82.885C37.4739 82.195 37.7539 81.645 38.3139 81.235C38.8739 80.825 39.6039 80.555 40.5039 80.425L42.7389 80.11V79.675C42.7389 79.195 42.5989 78.82 42.3189 78.55C42.0489 78.28 41.6039 78.145 40.9839 78.145C40.5339 78.145 40.1689 78.235 39.8889 78.415C39.6189 78.595 39.4289 78.825 39.3189 79.105C39.2589 79.255 39.1539 79.33 39.0039 79.33H38.3289C38.2189 79.33 38.1339 79.3 38.0739 79.24C38.0239 79.17 37.9989 79.09 37.9989 79C37.9989 78.85 38.0539 78.665 38.1639 78.445C38.2839 78.225 38.4639 78.01 38.7039 77.8C38.9439 77.59 39.2489 77.415 39.6189 77.275C39.9989 77.125 40.4589 77.05 40.9989 77.05C41.5989 77.05 42.1039 77.13 42.5139 77.29C42.9239 77.44 43.2439 77.645 43.4739 77.905C43.7139 78.165 43.8839 78.46 43.9839 78.79C44.0939 79.12 44.1489 79.455 44.1489 79.795V84.655C44.1489 84.755 44.1139 84.84 44.0439 84.91C43.9839 84.97 43.9039 85 43.8039 85H43.1139C43.0039 85 42.9189 84.97 42.8589 84.91C42.7989 84.84 42.7689 84.755 42.7689 84.655V84.01C42.6389 84.19 42.4639 84.37 42.2439 84.55C42.0239 84.72 41.7489 84.865 41.4189 84.985C41.0889 85.095 40.6839 85.15 40.2039 85.15ZM40.5189 84.025C40.9289 84.025 41.3039 83.94 41.6439 83.77C41.9839 83.59 42.2489 83.315 42.4389 82.945C42.6389 82.575 42.7389 82.11 42.7389 81.55V81.13L40.9989 81.385C40.2889 81.485 39.7539 81.655 39.3939 81.895C39.0339 82.125 38.8539 82.42 38.8539 82.78C38.8539 83.06 38.9339 83.295 39.0939 83.485C39.2639 83.665 39.4739 83.8 39.7239 83.89C39.9839 83.98 40.2489 84.025 40.5189 84.025ZM49.5003 88.3C48.8203 88.3 48.2603 88.21 47.8203 88.03C47.3903 87.85 47.0503 87.63 46.8003 87.37C46.5603 87.12 46.3853 86.865 46.2753 86.605C46.1753 86.355 46.1203 86.155 46.1103 86.005C46.1003 85.905 46.1303 85.82 46.2003 85.75C46.2803 85.68 46.3653 85.645 46.4553 85.645H47.1753C47.2653 85.645 47.3403 85.665 47.4003 85.705C47.4603 85.745 47.5103 85.83 47.5503 85.96C47.6103 86.11 47.7003 86.275 47.8203 86.455C47.9403 86.645 48.1253 86.805 48.3753 86.935C48.6253 87.075 48.9753 87.145 49.4253 87.145C49.8953 87.145 50.2903 87.08 50.6103 86.95C50.9303 86.83 51.1703 86.61 51.3303 86.29C51.5003 85.98 51.5853 85.55 51.5853 85V83.98C51.3453 84.29 51.0303 84.55 50.6403 84.76C50.2503 84.96 49.7603 85.06 49.1703 85.06C48.6103 85.06 48.1303 84.965 47.7303 84.775C47.3303 84.575 47.0003 84.31 46.7403 83.98C46.4903 83.64 46.3003 83.255 46.1703 82.825C46.0503 82.395 45.9803 81.945 45.9603 81.475C45.9503 81.195 45.9503 80.92 45.9603 80.65C45.9803 80.18 46.0503 79.73 46.1703 79.3C46.3003 78.87 46.4903 78.485 46.7403 78.145C47.0003 77.805 47.3303 77.54 47.7303 77.35C48.1303 77.15 48.6103 77.05 49.1703 77.05C49.7703 77.05 50.2653 77.165 50.6553 77.395C51.0553 77.615 51.3803 77.885 51.6303 78.205V77.56C51.6303 77.46 51.6603 77.375 51.7203 77.305C51.7903 77.235 51.8753 77.2 51.9753 77.2H52.6653C52.7653 77.2 52.8503 77.235 52.9203 77.305C52.9903 77.375 53.0253 77.46 53.0253 77.56V84.835C53.0253 85.505 52.9103 86.1 52.6803 86.62C52.4603 87.14 52.0903 87.55 51.5703 87.85C51.0603 88.15 50.3703 88.3 49.5003 88.3ZM49.4703 83.86C49.9703 83.86 50.3703 83.745 50.6703 83.515C50.9803 83.285 51.2053 82.995 51.3453 82.645C51.4953 82.295 51.5753 81.94 51.5853 81.58C51.5953 81.44 51.6003 81.27 51.6003 81.07C51.6003 80.86 51.5953 80.685 51.5853 80.545C51.5753 80.185 51.4953 79.83 51.3453 79.48C51.2053 79.13 50.9803 78.84 50.6703 78.61C50.3703 78.38 49.9703 78.265 49.4703 78.265C48.9703 78.265 48.5703 78.38 48.2703 78.61C47.9703 78.83 47.7553 79.125 47.6253 79.495C47.4953 79.855 47.4203 80.245 47.4003 80.665C47.3903 80.925 47.3903 81.19 47.4003 81.46C47.4203 81.88 47.4953 82.275 47.6253 82.645C47.7553 83.005 47.9703 83.3 48.2703 83.53C48.5703 83.75 48.9703 83.86 49.4703 83.86ZM55.6005 85C55.5005 85 55.4155 84.97 55.3455 84.91C55.2855 84.84 55.2555 84.755 55.2555 84.655V77.545C55.2555 77.445 55.2855 77.365 55.3455 77.305C55.4155 77.235 55.5005 77.2 55.6005 77.2H56.3055C56.4055 77.2 56.4855 77.235 56.5455 77.305C56.6155 77.365 56.6505 77.445 56.6505 77.545V78.205C56.9105 77.865 57.2355 77.59 57.6255 77.38C58.0255 77.16 58.5355 77.05 59.1555 77.05C59.8055 77.05 60.3555 77.195 60.8055 77.485C61.2655 77.765 61.6105 78.16 61.8405 78.67C62.0705 79.17 62.1855 79.755 62.1855 80.425V84.655C62.1855 84.755 62.1555 84.84 62.0955 84.91C62.0355 84.97 61.9555 85 61.8555 85H61.1055C61.0055 85 60.9205 84.97 60.8505 84.91C60.7905 84.84 60.7605 84.755 60.7605 84.655V80.5C60.7605 79.8 60.5905 79.255 60.2505 78.865C59.9105 78.465 59.4105 78.265 58.7505 78.265C58.1305 78.265 57.6305 78.465 57.2505 78.865C56.8805 79.255 56.6955 79.8 56.6955 80.5V84.655C56.6955 84.755 56.6605 84.84 56.5905 84.91C56.5305 84.97 56.4505 85 56.3505 85H55.6005ZM66.5272 85.15C66.0272 85.15 65.5722 85.05 65.1622 84.85C64.7522 84.65 64.4222 84.38 64.1722 84.04C63.9222 83.7 63.7972 83.315 63.7972 82.885C63.7972 82.195 64.0772 81.645 64.6372 81.235C65.1972 80.825 65.9272 80.555 66.8272 80.425L69.0622 80.11V79.675C69.0622 79.195 68.9222 78.82 68.6422 78.55C68.3722 78.28 67.9272 78.145 67.3072 78.145C66.8572 78.145 66.4922 78.235 66.2122 78.415C65.9422 78.595 65.7522 78.825 65.6422 79.105C65.5822 79.255 65.4772 79.33 65.3272 79.33H64.6522C64.5422 79.33 64.4572 79.3 64.3972 79.24C64.3472 79.17 64.3222 79.09 64.3222 79C64.3222 78.85 64.3772 78.665 64.4872 78.445C64.6072 78.225 64.7872 78.01 65.0272 77.8C65.2672 77.59 65.5722 77.415 65.9422 77.275C66.3222 77.125 66.7822 77.05 67.3222 77.05C67.9222 77.05 68.4272 77.13 68.8372 77.29C69.2472 77.44 69.5672 77.645 69.7972 77.905C70.0372 78.165 70.2072 78.46 70.3072 78.79C70.4172 79.12 70.4722 79.455 70.4722 79.795V84.655C70.4722 84.755 70.4372 84.84 70.3672 84.91C70.3072 84.97 70.2272 85 70.1272 85H69.4372C69.3272 85 69.2422 84.97 69.1822 84.91C69.1222 84.84 69.0922 84.755 69.0922 84.655V84.01C68.9622 84.19 68.7872 84.37 68.5672 84.55C68.3472 84.72 68.0722 84.865 67.7422 84.985C67.4122 85.095 67.0072 85.15 66.5272 85.15ZM66.8422 84.025C67.2522 84.025 67.6272 83.94 67.9672 83.77C68.3072 83.59 68.5722 83.315 68.7622 82.945C68.9622 82.575 69.0622 82.11 69.0622 81.55V81.13L67.3222 81.385C66.6122 81.485 66.0772 81.655 65.7172 81.895C65.3572 82.125 65.1772 82.42 65.1772 82.78C65.1772 83.06 65.2572 83.295 65.4172 83.485C65.5872 83.665 65.7972 83.8 66.0472 83.89C66.3072 83.98 66.5722 84.025 66.8422 84.025ZM72.9736 85C72.8736 85 72.7886 84.97 72.7186 84.91C72.6586 84.84 72.6286 84.755 72.6286 84.655V77.545C72.6286 77.445 72.6586 77.365 72.7186 77.305C72.7886 77.235 72.8736 77.2 72.9736 77.2H73.6486C73.7486 77.2 73.8286 77.235 73.8886 77.305C73.9586 77.365 73.9936 77.445 73.9936 77.545V78.07C74.2236 77.76 74.5136 77.515 74.8636 77.335C75.2136 77.145 75.6336 77.05 76.1236 77.05C77.2536 77.04 78.0536 77.5 78.5236 78.43C78.7536 78.01 79.0886 77.675 79.5286 77.425C79.9686 77.175 80.4686 77.05 81.0286 77.05C81.5486 77.05 82.0186 77.17 82.4386 77.41C82.8686 77.65 83.2036 78.015 83.4436 78.505C83.6936 78.985 83.8186 79.59 83.8186 80.32V84.655C83.8186 84.755 83.7836 84.84 83.7136 84.91C83.6536 84.97 83.5736 85 83.4736 85H82.7686C82.6686 85 82.5836 84.97 82.5136 84.91C82.4536 84.84 82.4236 84.755 82.4236 84.655V80.455C82.4236 79.895 82.3436 79.455 82.1836 79.135C82.0236 78.815 81.8086 78.59 81.5386 78.46C81.2686 78.33 80.9736 78.265 80.6536 78.265C80.3936 78.265 80.1286 78.33 79.8586 78.46C79.5886 78.59 79.3636 78.815 79.1836 79.135C79.0136 79.455 78.9286 79.895 78.9286 80.455V84.655C78.9286 84.755 78.8936 84.84 78.8236 84.91C78.7636 84.97 78.6836 85 78.5836 85H77.8786C77.7786 85 77.6936 84.97 77.6236 84.91C77.5636 84.84 77.5336 84.755 77.5336 84.655V80.455C77.5336 79.895 77.4486 79.455 77.2786 79.135C77.1086 78.815 76.8886 78.59 76.6186 78.46C76.3486 78.33 76.0636 78.265 75.7636 78.265C75.5036 78.265 75.2386 78.33 74.9686 78.46C74.6986 78.59 74.4736 78.815 74.2936 79.135C74.1236 79.455 74.0386 79.89 74.0386 80.44V84.655C74.0386 84.755 74.0036 84.84 73.9336 84.91C73.8736 84.97 73.7936 85 73.6936 85H72.9736ZM89.0636 85.15C88.0336 85.15 87.2136 84.835 86.6036 84.205C85.9936 83.565 85.6586 82.695 85.5986 81.595C85.5886 81.465 85.5836 81.3 85.5836 81.1C85.5836 80.89 85.5886 80.72 85.5986 80.59C85.6386 79.88 85.8036 79.26 86.0936 78.73C86.3836 78.19 86.7786 77.775 87.2786 77.485C87.7886 77.195 88.3836 77.05 89.0636 77.05C89.8236 77.05 90.4586 77.21 90.9686 77.53C91.4886 77.85 91.8836 78.305 92.1536 78.895C92.4236 79.485 92.5586 80.175 92.5586 80.965V81.22C92.5586 81.33 92.5236 81.415 92.4536 81.475C92.3936 81.535 92.3136 81.565 92.2136 81.565H87.0236C87.0236 81.575 87.0236 81.595 87.0236 81.625C87.0236 81.655 87.0236 81.68 87.0236 81.7C87.0436 82.11 87.1336 82.495 87.2936 82.855C87.4536 83.205 87.6836 83.49 87.9836 83.71C88.2836 83.93 88.6436 84.04 89.0636 84.04C89.4236 84.04 89.7236 83.985 89.9636 83.875C90.2036 83.765 90.3986 83.645 90.5486 83.515C90.6986 83.375 90.7986 83.27 90.8486 83.2C90.9386 83.07 91.0086 82.995 91.0586 82.975C91.1086 82.945 91.1886 82.93 91.2986 82.93H92.0186C92.1186 82.93 92.1986 82.96 92.2586 83.02C92.3286 83.07 92.3586 83.145 92.3486 83.245C92.3386 83.395 92.2586 83.58 92.1086 83.8C91.9586 84.01 91.7436 84.22 91.4636 84.43C91.1836 84.64 90.8436 84.815 90.4436 84.955C90.0436 85.085 89.5836 85.15 89.0636 85.15ZM87.0236 80.53H91.1336V80.485C91.1336 80.035 91.0486 79.635 90.8786 79.285C90.7186 78.935 90.4836 78.66 90.1736 78.46C89.8636 78.25 89.4936 78.145 89.0636 78.145C88.6336 78.145 88.2636 78.25 87.9536 78.46C87.6536 78.66 87.4236 78.935 87.2636 79.285C87.1036 79.635 87.0236 80.035 87.0236 80.485V80.53ZM194.458 85C193.898 85 193.443 84.895 193.093 84.685C192.743 84.465 192.488 84.16 192.328 83.77C192.168 83.37 192.088 82.9 192.088 82.36V78.4H190.918C190.818 78.4 190.733 78.37 190.663 78.31C190.603 78.24 190.573 78.155 190.573 78.055V77.545C190.573 77.445 190.603 77.365 190.663 77.305C190.733 77.235 190.818 77.2 190.918 77.2H192.088V74.695C192.088 74.595 192.118 74.515 192.178 74.455C192.248 74.385 192.333 74.35 192.433 74.35H193.138C193.238 74.35 193.318 74.385 193.378 74.455C193.448 74.515 193.483 74.595 193.483 74.695V77.2H195.343C195.443 77.2 195.523 77.235 195.583 77.305C195.653 77.365 195.688 77.445 195.688 77.545V78.055C195.688 78.155 195.653 78.24 195.583 78.31C195.523 78.37 195.443 78.4 195.343 78.4H193.483V82.255C193.483 82.725 193.563 83.095 193.723 83.365C193.883 83.635 194.168 83.77 194.578 83.77H195.493C195.593 83.77 195.673 83.805 195.733 83.875C195.803 83.935 195.838 84.015 195.838 84.115V84.655C195.838 84.755 195.803 84.84 195.733 84.91C195.673 84.97 195.593 85 195.493 85H194.458ZM199.447 85.15C198.947 85.15 198.492 85.05 198.082 84.85C197.672 84.65 197.342 84.38 197.092 84.04C196.842 83.7 196.717 83.315 196.717 82.885C196.717 82.195 196.997 81.645 197.557 81.235C198.117 80.825 198.847 80.555 199.747 80.425L201.982 80.11V79.675C201.982 79.195 201.842 78.82 201.562 78.55C201.292 78.28 200.847 78.145 200.227 78.145C199.777 78.145 199.412 78.235 199.132 78.415C198.862 78.595 198.672 78.825 198.562 79.105C198.502 79.255 198.397 79.33 198.247 79.33H197.572C197.462 79.33 197.377 79.3 197.317 79.24C197.267 79.17 197.242 79.09 197.242 79C197.242 78.85 197.297 78.665 197.407 78.445C197.527 78.225 197.707 78.01 197.947 77.8C198.187 77.59 198.492 77.415 198.862 77.275C199.242 77.125 199.702 77.05 200.242 77.05C200.842 77.05 201.347 77.13 201.757 77.29C202.167 77.44 202.487 77.645 202.717 77.905C202.957 78.165 203.127 78.46 203.227 78.79C203.337 79.12 203.392 79.455 203.392 79.795V84.655C203.392 84.755 203.357 84.84 203.287 84.91C203.227 84.97 203.147 85 203.047 85H202.357C202.247 85 202.162 84.97 202.102 84.91C202.042 84.84 202.012 84.755 202.012 84.655V84.01C201.882 84.19 201.707 84.37 201.487 84.55C201.267 84.72 200.992 84.865 200.662 84.985C200.332 85.095 199.927 85.15 199.447 85.15ZM199.762 84.025C200.172 84.025 200.547 83.94 200.887 83.77C201.227 83.59 201.492 83.315 201.682 82.945C201.882 82.575 201.982 82.11 201.982 81.55V81.13L200.242 81.385C199.532 81.485 198.997 81.655 198.637 81.895C198.277 82.125 198.097 82.42 198.097 82.78C198.097 83.06 198.177 83.295 198.337 83.485C198.507 83.665 198.717 83.8 198.967 83.89C199.227 83.98 199.492 84.025 199.762 84.025ZM208.743 88.3C208.063 88.3 207.503 88.21 207.063 88.03C206.633 87.85 206.293 87.63 206.043 87.37C205.803 87.12 205.628 86.865 205.518 86.605C205.418 86.355 205.363 86.155 205.353 86.005C205.343 85.905 205.373 85.82 205.443 85.75C205.523 85.68 205.608 85.645 205.698 85.645H206.418C206.508 85.645 206.583 85.665 206.643 85.705C206.703 85.745 206.753 85.83 206.793 85.96C206.853 86.11 206.943 86.275 207.063 86.455C207.183 86.645 207.368 86.805 207.618 86.935C207.868 87.075 208.218 87.145 208.668 87.145C209.138 87.145 209.533 87.08 209.853 86.95C210.173 86.83 210.413 86.61 210.573 86.29C210.743 85.98 210.828 85.55 210.828 85V83.98C210.588 84.29 210.273 84.55 209.883 84.76C209.493 84.96 209.003 85.06 208.413 85.06C207.853 85.06 207.373 84.965 206.973 84.775C206.573 84.575 206.243 84.31 205.983 83.98C205.733 83.64 205.543 83.255 205.413 82.825C205.293 82.395 205.223 81.945 205.203 81.475C205.193 81.195 205.193 80.92 205.203 80.65C205.223 80.18 205.293 79.73 205.413 79.3C205.543 78.87 205.733 78.485 205.983 78.145C206.243 77.805 206.573 77.54 206.973 77.35C207.373 77.15 207.853 77.05 208.413 77.05C209.013 77.05 209.508 77.165 209.898 77.395C210.298 77.615 210.623 77.885 210.873 78.205V77.56C210.873 77.46 210.903 77.375 210.963 77.305C211.033 77.235 211.118 77.2 211.218 77.2H211.908C212.008 77.2 212.093 77.235 212.163 77.305C212.233 77.375 212.268 77.46 212.268 77.56V84.835C212.268 85.505 212.153 86.1 211.923 86.62C211.703 87.14 211.333 87.55 210.813 87.85C210.303 88.15 209.613 88.3 208.743 88.3ZM208.713 83.86C209.213 83.86 209.613 83.745 209.913 83.515C210.223 83.285 210.448 82.995 210.588 82.645C210.738 82.295 210.818 81.94 210.828 81.58C210.838 81.44 210.843 81.27 210.843 81.07C210.843 80.86 210.838 80.685 210.828 80.545C210.818 80.185 210.738 79.83 210.588 79.48C210.448 79.13 210.223 78.84 209.913 78.61C209.613 78.38 209.213 78.265 208.713 78.265C208.213 78.265 207.813 78.38 207.513 78.61C207.213 78.83 206.998 79.125 206.868 79.495C206.738 79.855 206.663 80.245 206.643 80.665C206.633 80.925 206.633 81.19 206.643 81.46C206.663 81.88 206.738 82.275 206.868 82.645C206.998 83.005 207.213 83.3 207.513 83.53C207.813 83.75 208.213 83.86 208.713 83.86ZM214.844 85C214.744 85 214.659 84.97 214.589 84.91C214.529 84.84 214.499 84.755 214.499 84.655V77.545C214.499 77.445 214.529 77.365 214.589 77.305C214.659 77.235 214.744 77.2 214.844 77.2H215.549C215.649 77.2 215.729 77.235 215.789 77.305C215.859 77.365 215.894 77.445 215.894 77.545V78.205C216.154 77.865 216.479 77.59 216.869 77.38C217.269 77.16 217.779 77.05 218.399 77.05C219.049 77.05 219.599 77.195 220.049 77.485C220.509 77.765 220.854 78.16 221.084 78.67C221.314 79.17 221.429 79.755 221.429 80.425V84.655C221.429 84.755 221.399 84.84 221.339 84.91C221.279 84.97 221.199 85 221.099 85H220.349C220.249 85 220.164 84.97 220.094 84.91C220.034 84.84 220.004 84.755 220.004 84.655V80.5C220.004 79.8 219.834 79.255 219.494 78.865C219.154 78.465 218.654 78.265 217.994 78.265C217.374 78.265 216.874 78.465 216.494 78.865C216.124 79.255 215.939 79.8 215.939 80.5V84.655C215.939 84.755 215.904 84.84 215.834 84.91C215.774 84.97 215.694 85 215.594 85H214.844ZM225.77 85.15C225.27 85.15 224.815 85.05 224.405 84.85C223.995 84.65 223.665 84.38 223.415 84.04C223.165 83.7 223.04 83.315 223.04 82.885C223.04 82.195 223.32 81.645 223.88 81.235C224.44 80.825 225.17 80.555 226.07 80.425L228.305 80.11V79.675C228.305 79.195 228.165 78.82 227.885 78.55C227.615 78.28 227.17 78.145 226.55 78.145C226.1 78.145 225.735 78.235 225.455 78.415C225.185 78.595 224.995 78.825 224.885 79.105C224.825 79.255 224.72 79.33 224.57 79.33H223.895C223.785 79.33 223.7 79.3 223.64 79.24C223.59 79.17 223.565 79.09 223.565 79C223.565 78.85 223.62 78.665 223.73 78.445C223.85 78.225 224.03 78.01 224.27 77.8C224.51 77.59 224.815 77.415 225.185 77.275C225.565 77.125 226.025 77.05 226.565 77.05C227.165 77.05 227.67 77.13 228.08 77.29C228.49 77.44 228.81 77.645 229.04 77.905C229.28 78.165 229.45 78.46 229.55 78.79C229.66 79.12 229.715 79.455 229.715 79.795V84.655C229.715 84.755 229.68 84.84 229.61 84.91C229.55 84.97 229.47 85 229.37 85H228.68C228.57 85 228.485 84.97 228.425 84.91C228.365 84.84 228.335 84.755 228.335 84.655V84.01C228.205 84.19 228.03 84.37 227.81 84.55C227.59 84.72 227.315 84.865 226.985 84.985C226.655 85.095 226.25 85.15 225.77 85.15ZM226.085 84.025C226.495 84.025 226.87 83.94 227.21 83.77C227.55 83.59 227.815 83.315 228.005 82.945C228.205 82.575 228.305 82.11 228.305 81.55V81.13L226.565 81.385C225.855 81.485 225.32 81.655 224.96 81.895C224.6 82.125 224.42 82.42 224.42 82.78C224.42 83.06 224.5 83.295 224.66 83.485C224.83 83.665 225.04 83.8 225.29 83.89C225.55 83.98 225.815 84.025 226.085 84.025ZM232.217 85C232.117 85 232.032 84.97 231.962 84.91C231.902 84.84 231.872 84.755 231.872 84.655V77.545C231.872 77.445 231.902 77.365 231.962 77.305C232.032 77.235 232.117 77.2 232.217 77.2H232.892C232.992 77.2 233.072 77.235 233.132 77.305C233.202 77.365 233.237 77.445 233.237 77.545V78.07C233.467 77.76 233.757 77.515 234.107 77.335C234.457 77.145 234.877 77.05 235.367 77.05C236.497 77.04 237.297 77.5 237.767 78.43C237.997 78.01 238.332 77.675 238.772 77.425C239.212 77.175 239.712 77.05 240.272 77.05C240.792 77.05 241.262 77.17 241.682 77.41C242.112 77.65 242.447 78.015 242.687 78.505C242.937 78.985 243.062 79.59 243.062 80.32V84.655C243.062 84.755 243.027 84.84 242.957 84.91C242.897 84.97 242.817 85 242.717 85H242.012C241.912 85 241.827 84.97 241.757 84.91C241.697 84.84 241.667 84.755 241.667 84.655V80.455C241.667 79.895 241.587 79.455 241.427 79.135C241.267 78.815 241.052 78.59 240.782 78.46C240.512 78.33 240.217 78.265 239.897 78.265C239.637 78.265 239.372 78.33 239.102 78.46C238.832 78.59 238.607 78.815 238.427 79.135C238.257 79.455 238.172 79.895 238.172 80.455V84.655C238.172 84.755 238.137 84.84 238.067 84.91C238.007 84.97 237.927 85 237.827 85H237.122C237.022 85 236.937 84.97 236.867 84.91C236.807 84.84 236.777 84.755 236.777 84.655V80.455C236.777 79.895 236.692 79.455 236.522 79.135C236.352 78.815 236.132 78.59 235.862 78.46C235.592 78.33 235.307 78.265 235.007 78.265C234.747 78.265 234.482 78.33 234.212 78.46C233.942 78.59 233.717 78.815 233.537 79.135C233.367 79.455 233.282 79.89 233.282 80.44V84.655C233.282 84.755 233.247 84.84 233.177 84.91C233.117 84.97 233.037 85 232.937 85H232.217ZM248.307 85.15C247.277 85.15 246.457 84.835 245.847 84.205C245.237 83.565 244.902 82.695 244.842 81.595C244.832 81.465 244.827 81.3 244.827 81.1C244.827 80.89 244.832 80.72 244.842 80.59C244.882 79.88 245.047 79.26 245.337 78.73C245.627 78.19 246.022 77.775 246.522 77.485C247.032 77.195 247.627 77.05 248.307 77.05C249.067 77.05 249.702 77.21 250.212 77.53C250.732 77.85 251.127 78.305 251.397 78.895C251.667 79.485 251.802 80.175 251.802 80.965V81.22C251.802 81.33 251.767 81.415 251.697 81.475C251.637 81.535 251.557 81.565 251.457 81.565H246.267C246.267 81.575 246.267 81.595 246.267 81.625C246.267 81.655 246.267 81.68 246.267 81.7C246.287 82.11 246.377 82.495 246.537 82.855C246.697 83.205 246.927 83.49 247.227 83.71C247.527 83.93 247.887 84.04 248.307 84.04C248.667 84.04 248.967 83.985 249.207 83.875C249.447 83.765 249.642 83.645 249.792 83.515C249.942 83.375 250.042 83.27 250.092 83.2C250.182 83.07 250.252 82.995 250.302 82.975C250.352 82.945 250.432 82.93 250.542 82.93H251.262C251.362 82.93 251.442 82.96 251.502 83.02C251.572 83.07 251.602 83.145 251.592 83.245C251.582 83.395 251.502 83.58 251.352 83.8C251.202 84.01 250.987 84.22 250.707 84.43C250.427 84.64 250.087 84.815 249.687 84.955C249.287 85.085 248.827 85.15 248.307 85.15ZM246.267 80.53H250.377V80.485C250.377 80.035 250.292 79.635 250.122 79.285C249.962 78.935 249.727 78.66 249.417 78.46C249.107 78.25 248.737 78.145 248.307 78.145C247.877 78.145 247.507 78.25 247.197 78.46C246.897 78.66 246.667 78.935 246.507 79.285C246.347 79.635 246.267 80.035 246.267 80.485V80.53Z" fill="white" fill-opacity="0.75"/>
<g filter="url(#filter0_d_152_3)">
<path d="M4 12C4 5.37258 9.37258 0 16 0H284C290.627 0 296 5.37258 296 12V41H4V12Z" fill="#242526"/>
</g>
<ellipse cx="27" cy="19.9309" rx="7" ry="6.93088" fill="#E65100"/>
<ellipse cx="50" cy="19.9309" rx="7" ry="6.93088" fill="#FFD600"/>
<ellipse cx="73" cy="19.9309" rx="7" ry="6.93088" fill="#4EC433"/>
<defs>
<filter id="filter0_d_152_3" x="0" y="0" width="300" height="49" filterUnits="userSpaceOnUse" color-interpolation-filters="sRGB">
<feFlood flood-opacity="0" result="BackgroundImageFix"/>
<feColorMatrix in="SourceAlpha" type="matrix" values="0 0 0 0 0 0 0 0 0 0 0 0 0 0 0 0 0 0 127 0" result="hardAlpha"/>
<feOffset dy="4"/>
<feGaussianBlur stdDeviation="2"/>
<feComposite in2="hardAlpha" operator="out"/>
<feColorMatrix type="matrix" values="0 0 0 0 0 0 0 0 0 0 0 0 0 0 0 0 0 0 0.25 0"/>
<feBlend mode="normal" in2="BackgroundImageFix" result="effect1_dropShadow_152_3"/>
<feBlend mode="normal" in="SourceGraphic" in2="effect1_dropShadow_152_3" result="shape"/>
</filter>
</defs>
</svg>
