<svg width="164" height="177" viewBox="0 0 164 177" fill="none" xmlns="http://www.w3.org/2000/svg">
<path d="M163.318 0.514032H0.68457L15.0346 157.962L82.0014 176.484L148.968 157.962L163.318 0.514032Z" fill="#E65100"/>
<path d="M82.002 14.4065V162.13L135.575 147.311L147.533 14.4065H82.002Z" fill="#FF6D00"/>
<path fill-rule="evenodd" clip-rule="evenodd" d="M82.002 93.1318V74.6084H123.138L119.791 127.863L82.002 139.903V120.453L101.613 113.97L103.049 93.1318H82.002ZM124.573 56.0849L126.009 37.5615H82.002V56.0849H124.573Z" fill="white"/>
<path fill-rule="evenodd" clip-rule="evenodd" d="M81.9997 120.453V139.903L44.2112 127.863L42.298 102.393H61.4312L62.388 113.97L81.9997 120.453ZM58.5614 56.0849H81.9997V37.5615H38.4714L41.8197 93.1312H81.9997V74.6082H59.9964L58.5614 56.0849Z" fill="#EEEEEE"/>
</svg>
