<svg width="594" height="237" viewBox="0 0 594 237" fill="none" xmlns="http://www.w3.org/2000/svg">
<rect x="4" width="586" height="237" rx="12" fill="#242526"/>
<g filter="url(#filter0_d_175_26)">
<path d="M4 12C4 5.37258 9.37258 0 16 0H578C584.627 0 590 5.37258 590 12V43H4V12Z" fill="#242526"/>
</g>
<path d="M44.5 17.53V19.225H40.135V21.91H43.48V23.575H40.135V28H38.035V17.53H44.5ZM49.6791 28.135C48.8791 28.135 48.1591 27.96 47.5191 27.61C46.8791 27.25 46.3741 26.745 46.0041 26.095C45.6441 25.445 45.4641 24.695 45.4641 23.845C45.4641 22.995 45.6491 22.245 46.0191 21.595C46.3991 20.945 46.9141 20.445 47.5641 20.095C48.2141 19.735 48.9391 19.555 49.7391 19.555C50.5391 19.555 51.2641 19.735 51.9141 20.095C52.5641 20.445 53.0741 20.945 53.4441 21.595C53.8241 22.245 54.0141 22.995 54.0141 23.845C54.0141 24.695 53.8191 25.445 53.4291 26.095C53.0491 26.745 52.5291 27.25 51.8691 27.61C51.2191 27.96 50.4891 28.135 49.6791 28.135ZM49.6791 26.305C50.0591 26.305 50.4141 26.215 50.7441 26.035C51.0841 25.845 51.3541 25.565 51.5541 25.195C51.7541 24.825 51.8541 24.375 51.8541 23.845C51.8541 23.055 51.6441 22.45 51.2241 22.03C50.8141 21.6 50.3091 21.385 49.7091 21.385C49.1091 21.385 48.6041 21.6 48.1941 22.03C47.7941 22.45 47.5941 23.055 47.5941 23.845C47.5941 24.635 47.7891 25.245 48.1791 25.675C48.5791 26.095 49.0791 26.305 49.6791 26.305ZM57.6545 20.98C57.9245 20.54 58.2745 20.195 58.7045 19.945C59.1445 19.695 59.6445 19.57 60.2045 19.57V21.775H59.6495C58.9895 21.775 58.4895 21.93 58.1495 22.24C57.8195 22.55 57.6545 23.09 57.6545 23.86V28H55.5545V19.69H57.6545V20.98ZM72.9182 23.665C72.9182 23.965 72.8982 24.235 72.8582 24.475H66.7832C66.8332 25.075 67.0432 25.545 67.4132 25.885C67.7832 26.225 68.2382 26.395 68.7782 26.395C69.5582 26.395 70.1132 26.06 70.4432 25.39H72.7082C72.4682 26.19 72.0082 26.85 71.3282 27.37C70.6482 27.88 69.8132 28.135 68.8232 28.135C68.0232 28.135 67.3032 27.96 66.6632 27.61C66.0332 27.25 65.5382 26.745 65.1782 26.095C64.8282 25.445 64.6532 24.695 64.6532 23.845C64.6532 22.985 64.8282 22.23 65.1782 21.58C65.5282 20.93 66.0182 20.43 66.6482 20.08C67.2782 19.73 68.0032 19.555 68.8232 19.555C69.6132 19.555 70.3182 19.725 70.9382 20.065C71.5682 20.405 72.0532 20.89 72.3932 21.52C72.7432 22.14 72.9182 22.855 72.9182 23.665ZM70.7432 23.065C70.7332 22.525 70.5382 22.095 70.1582 21.775C69.7782 21.445 69.3132 21.28 68.7632 21.28C68.2432 21.28 67.8032 21.44 67.4432 21.76C67.0932 22.07 66.8782 22.505 66.7982 23.065H70.7432ZM79.041 28L77.331 25.42L75.816 28H73.566L76.281 23.83L73.536 19.69H75.906L77.601 22.255L79.131 19.69H81.381L78.651 23.83L81.411 28H79.041ZM82.0116 23.815C82.0116 22.975 82.1766 22.23 82.5066 21.58C82.8466 20.93 83.3016 20.43 83.8716 20.08C84.4516 19.73 85.0966 19.555 85.8066 19.555C86.4266 19.555 86.9666 19.68 87.4266 19.93C87.8966 20.18 88.2716 20.495 88.5516 20.875V19.69H90.6666V28H88.5516V26.785C88.2816 27.175 87.9066 27.5 87.4266 27.76C86.9566 28.01 86.4116 28.135 85.7916 28.135C85.0916 28.135 84.4516 27.955 83.8716 27.595C83.3016 27.235 82.8466 26.73 82.5066 26.08C82.1766 25.42 82.0116 24.665 82.0116 23.815ZM88.5516 23.845C88.5516 23.335 88.4516 22.9 88.2516 22.54C88.0516 22.17 87.7816 21.89 87.4416 21.7C87.1016 21.5 86.7366 21.4 86.3466 21.4C85.9566 21.4 85.5966 21.495 85.2666 21.685C84.9366 21.875 84.6666 22.155 84.4566 22.525C84.2566 22.885 84.1566 23.315 84.1566 23.815C84.1566 24.315 84.2566 24.755 84.4566 25.135C84.6666 25.505 84.9366 25.79 85.2666 25.99C85.6066 26.19 85.9666 26.29 86.3466 26.29C86.7366 26.29 87.1016 26.195 87.4416 26.005C87.7816 25.805 88.0516 25.525 88.2516 25.165C88.4516 24.795 88.5516 24.355 88.5516 23.845ZM103.038 19.57C104.058 19.57 104.878 19.885 105.498 20.515C106.128 21.135 106.443 22.005 106.443 23.125V28H104.343V23.41C104.343 22.76 104.178 22.265 103.848 21.925C103.518 21.575 103.068 21.4 102.498 21.4C101.928 21.4 101.473 21.575 101.133 21.925C100.803 22.265 100.638 22.76 100.638 23.41V28H98.5376V23.41C98.5376 22.76 98.3726 22.265 98.0426 21.925C97.7126 21.575 97.2626 21.4 96.6926 21.4C96.1126 21.4 95.6526 21.575 95.3126 21.925C94.9826 22.265 94.8176 22.76 94.8176 23.41V28H92.7176V19.69H94.8176V20.695C95.0876 20.345 95.4326 20.07 95.8526 19.87C96.2826 19.67 96.7526 19.57 97.2626 19.57C97.9126 19.57 98.4926 19.71 99.0026 19.99C99.5126 20.26 99.9076 20.65 100.188 21.16C100.458 20.68 100.848 20.295 101.358 20.005C101.878 19.715 102.438 19.57 103.038 19.57ZM110.535 20.89C110.805 20.51 111.175 20.195 111.645 19.945C112.125 19.685 112.67 19.555 113.28 19.555C113.99 19.555 114.63 19.73 115.2 20.08C115.78 20.43 116.235 20.93 116.565 21.58C116.905 22.22 117.075 22.965 117.075 23.815C117.075 24.665 116.905 25.42 116.565 26.08C116.235 26.73 115.78 27.235 115.2 27.595C114.63 27.955 113.99 28.135 113.28 28.135C112.67 28.135 112.13 28.01 111.66 27.76C111.2 27.51 110.825 27.195 110.535 26.815V31.96H108.435V19.69H110.535V20.89ZM114.93 23.815C114.93 23.315 114.825 22.885 114.615 22.525C114.415 22.155 114.145 21.875 113.805 21.685C113.475 21.495 113.115 21.4 112.725 21.4C112.345 21.4 111.985 21.5 111.645 21.7C111.315 21.89 111.045 22.17 110.835 22.54C110.635 22.91 110.535 23.345 110.535 23.845C110.535 24.345 110.635 24.78 110.835 25.15C111.045 25.52 111.315 25.805 111.645 26.005C111.985 26.195 112.345 26.29 112.725 26.29C113.115 26.29 113.475 26.19 113.805 25.99C114.145 25.79 114.415 25.505 114.615 25.135C114.825 24.765 114.93 24.325 114.93 23.815ZM120.701 16.9V28H118.601V16.9H120.701ZM130.501 23.665C130.501 23.965 130.481 24.235 130.441 24.475H124.366C124.416 25.075 124.626 25.545 124.996 25.885C125.366 26.225 125.821 26.395 126.361 26.395C127.141 26.395 127.696 26.06 128.026 25.39H130.291C130.051 26.19 129.591 26.85 128.911 27.37C128.231 27.88 127.396 28.135 126.406 28.135C125.606 28.135 124.886 27.96 124.246 27.61C123.616 27.25 123.121 26.745 122.761 26.095C122.411 25.445 122.236 24.695 122.236 23.845C122.236 22.985 122.411 22.23 122.761 21.58C123.111 20.93 123.601 20.43 124.231 20.08C124.861 19.73 125.586 19.555 126.406 19.555C127.196 19.555 127.901 19.725 128.521 20.065C129.151 20.405 129.636 20.89 129.976 21.52C130.326 22.14 130.501 22.855 130.501 23.665ZM128.326 23.065C128.316 22.525 128.121 22.095 127.741 21.775C127.361 21.445 126.896 21.28 126.346 21.28C125.826 21.28 125.386 21.44 125.026 21.76C124.676 22.07 124.461 22.505 124.381 23.065H128.326ZM136.538 28.105C136.158 28.105 135.843 27.99 135.593 27.76C135.353 27.52 135.233 27.225 135.233 26.875C135.233 26.525 135.353 26.235 135.593 26.005C135.843 25.765 136.158 25.645 136.538 25.645C136.908 25.645 137.213 25.765 137.453 26.005C137.693 26.235 137.813 26.525 137.813 26.875C137.813 27.225 137.693 27.52 137.453 27.76C137.213 27.99 136.908 28.105 136.538 28.105ZM136.538 21.895C136.158 21.895 135.843 21.78 135.593 21.55C135.353 21.31 135.233 21.015 135.233 20.665C135.233 20.315 135.353 20.025 135.593 19.795C135.843 19.555 136.158 19.435 136.538 19.435C136.908 19.435 137.213 19.555 137.453 19.795C137.693 20.025 137.813 20.315 137.813 20.665C137.813 21.015 137.693 21.31 137.453 21.55C137.213 21.78 136.908 21.895 136.538 21.895Z" fill="#3D5CFF"/>
<path d="M44.5 17.53V19.225H40.135V21.91H43.48V23.575H40.135V28H38.035V17.53H44.5ZM49.6791 28.135C48.8791 28.135 48.1591 27.96 47.5191 27.61C46.8791 27.25 46.3741 26.745 46.0041 26.095C45.6441 25.445 45.4641 24.695 45.4641 23.845C45.4641 22.995 45.6491 22.245 46.0191 21.595C46.3991 20.945 46.9141 20.445 47.5641 20.095C48.2141 19.735 48.9391 19.555 49.7391 19.555C50.5391 19.555 51.2641 19.735 51.9141 20.095C52.5641 20.445 53.0741 20.945 53.4441 21.595C53.8241 22.245 54.0141 22.995 54.0141 23.845C54.0141 24.695 53.8191 25.445 53.4291 26.095C53.0491 26.745 52.5291 27.25 51.8691 27.61C51.2191 27.96 50.4891 28.135 49.6791 28.135ZM49.6791 26.305C50.0591 26.305 50.4141 26.215 50.7441 26.035C51.0841 25.845 51.3541 25.565 51.5541 25.195C51.7541 24.825 51.8541 24.375 51.8541 23.845C51.8541 23.055 51.6441 22.45 51.2241 22.03C50.8141 21.6 50.3091 21.385 49.7091 21.385C49.1091 21.385 48.6041 21.6 48.1941 22.03C47.7941 22.45 47.5941 23.055 47.5941 23.845C47.5941 24.635 47.7891 25.245 48.1791 25.675C48.5791 26.095 49.0791 26.305 49.6791 26.305ZM57.6545 20.98C57.9245 20.54 58.2745 20.195 58.7045 19.945C59.1445 19.695 59.6445 19.57 60.2045 19.57V21.775H59.6495C58.9895 21.775 58.4895 21.93 58.1495 22.24C57.8195 22.55 57.6545 23.09 57.6545 23.86V28H55.5545V19.69H57.6545V20.98ZM72.9182 23.665C72.9182 23.965 72.8982 24.235 72.8582 24.475H66.7832C66.8332 25.075 67.0432 25.545 67.4132 25.885C67.7832 26.225 68.2382 26.395 68.7782 26.395C69.5582 26.395 70.1132 26.06 70.4432 25.39H72.7082C72.4682 26.19 72.0082 26.85 71.3282 27.37C70.6482 27.88 69.8132 28.135 68.8232 28.135C68.0232 28.135 67.3032 27.96 66.6632 27.61C66.0332 27.25 65.5382 26.745 65.1782 26.095C64.8282 25.445 64.6532 24.695 64.6532 23.845C64.6532 22.985 64.8282 22.23 65.1782 21.58C65.5282 20.93 66.0182 20.43 66.6482 20.08C67.2782 19.73 68.0032 19.555 68.8232 19.555C69.6132 19.555 70.3182 19.725 70.9382 20.065C71.5682 20.405 72.0532 20.89 72.3932 21.52C72.7432 22.14 72.9182 22.855 72.9182 23.665ZM70.7432 23.065C70.7332 22.525 70.5382 22.095 70.1582 21.775C69.7782 21.445 69.3132 21.28 68.7632 21.28C68.2432 21.28 67.8032 21.44 67.4432 21.76C67.0932 22.07 66.8782 22.505 66.7982 23.065H70.7432ZM79.041 28L77.331 25.42L75.816 28H73.566L76.281 23.83L73.536 19.69H75.906L77.601 22.255L79.131 19.69H81.381L78.651 23.83L81.411 28H79.041ZM82.0116 23.815C82.0116 22.975 82.1766 22.23 82.5066 21.58C82.8466 20.93 83.3016 20.43 83.8716 20.08C84.4516 19.73 85.0966 19.555 85.8066 19.555C86.4266 19.555 86.9666 19.68 87.4266 19.93C87.8966 20.18 88.2716 20.495 88.5516 20.875V19.69H90.6666V28H88.5516V26.785C88.2816 27.175 87.9066 27.5 87.4266 27.76C86.9566 28.01 86.4116 28.135 85.7916 28.135C85.0916 28.135 84.4516 27.955 83.8716 27.595C83.3016 27.235 82.8466 26.73 82.5066 26.08C82.1766 25.42 82.0116 24.665 82.0116 23.815ZM88.5516 23.845C88.5516 23.335 88.4516 22.9 88.2516 22.54C88.0516 22.17 87.7816 21.89 87.4416 21.7C87.1016 21.5 86.7366 21.4 86.3466 21.4C85.9566 21.4 85.5966 21.495 85.2666 21.685C84.9366 21.875 84.6666 22.155 84.4566 22.525C84.2566 22.885 84.1566 23.315 84.1566 23.815C84.1566 24.315 84.2566 24.755 84.4566 25.135C84.6666 25.505 84.9366 25.79 85.2666 25.99C85.6066 26.19 85.9666 26.29 86.3466 26.29C86.7366 26.29 87.1016 26.195 87.4416 26.005C87.7816 25.805 88.0516 25.525 88.2516 25.165C88.4516 24.795 88.5516 24.355 88.5516 23.845ZM103.038 19.57C104.058 19.57 104.878 19.885 105.498 20.515C106.128 21.135 106.443 22.005 106.443 23.125V28H104.343V23.41C104.343 22.76 104.178 22.265 103.848 21.925C103.518 21.575 103.068 21.4 102.498 21.4C101.928 21.4 101.473 21.575 101.133 21.925C100.803 22.265 100.638 22.76 100.638 23.41V28H98.5376V23.41C98.5376 22.76 98.3726 22.265 98.0426 21.925C97.7126 21.575 97.2626 21.4 96.6926 21.4C96.1126 21.4 95.6526 21.575 95.3126 21.925C94.9826 22.265 94.8176 22.76 94.8176 23.41V28H92.7176V19.69H94.8176V20.695C95.0876 20.345 95.4326 20.07 95.8526 19.87C96.2826 19.67 96.7526 19.57 97.2626 19.57C97.9126 19.57 98.4926 19.71 99.0026 19.99C99.5126 20.26 99.9076 20.65 100.188 21.16C100.458 20.68 100.848 20.295 101.358 20.005C101.878 19.715 102.438 19.57 103.038 19.57ZM110.535 20.89C110.805 20.51 111.175 20.195 111.645 19.945C112.125 19.685 112.67 19.555 113.28 19.555C113.99 19.555 114.63 19.73 115.2 20.08C115.78 20.43 116.235 20.93 116.565 21.58C116.905 22.22 117.075 22.965 117.075 23.815C117.075 24.665 116.905 25.42 116.565 26.08C116.235 26.73 115.78 27.235 115.2 27.595C114.63 27.955 113.99 28.135 113.28 28.135C112.67 28.135 112.13 28.01 111.66 27.76C111.2 27.51 110.825 27.195 110.535 26.815V31.96H108.435V19.69H110.535V20.89ZM114.93 23.815C114.93 23.315 114.825 22.885 114.615 22.525C114.415 22.155 114.145 21.875 113.805 21.685C113.475 21.495 113.115 21.4 112.725 21.4C112.345 21.4 111.985 21.5 111.645 21.7C111.315 21.89 111.045 22.17 110.835 22.54C110.635 22.91 110.535 23.345 110.535 23.845C110.535 24.345 110.635 24.78 110.835 25.15C111.045 25.52 111.315 25.805 111.645 26.005C111.985 26.195 112.345 26.29 112.725 26.29C113.115 26.29 113.475 26.19 113.805 25.99C114.145 25.79 114.415 25.505 114.615 25.135C114.825 24.765 114.93 24.325 114.93 23.815ZM120.701 16.9V28H118.601V16.9H120.701ZM130.501 23.665C130.501 23.965 130.481 24.235 130.441 24.475H124.366C124.416 25.075 124.626 25.545 124.996 25.885C125.366 26.225 125.821 26.395 126.361 26.395C127.141 26.395 127.696 26.06 128.026 25.39H130.291C130.051 26.19 129.591 26.85 128.911 27.37C128.231 27.88 127.396 28.135 126.406 28.135C125.606 28.135 124.886 27.96 124.246 27.61C123.616 27.25 123.121 26.745 122.761 26.095C122.411 25.445 122.236 24.695 122.236 23.845C122.236 22.985 122.411 22.23 122.761 21.58C123.111 20.93 123.601 20.43 124.231 20.08C124.861 19.73 125.586 19.555 126.406 19.555C127.196 19.555 127.901 19.725 128.521 20.065C129.151 20.405 129.636 20.89 129.976 21.52C130.326 22.14 130.501 22.855 130.501 23.665ZM128.326 23.065C128.316 22.525 128.121 22.095 127.741 21.775C127.361 21.445 126.896 21.28 126.346 21.28C125.826 21.28 125.386 21.44 125.026 21.76C124.676 22.07 124.461 22.505 124.381 23.065H128.326ZM136.538 28.105C136.158 28.105 135.843 27.99 135.593 27.76C135.353 27.52 135.233 27.225 135.233 26.875C135.233 26.525 135.353 26.235 135.593 26.005C135.843 25.765 136.158 25.645 136.538 25.645C136.908 25.645 137.213 25.765 137.453 26.005C137.693 26.235 137.813 26.525 137.813 26.875C137.813 27.225 137.693 27.52 137.453 27.76C137.213 27.99 136.908 28.105 136.538 28.105ZM136.538 21.895C136.158 21.895 135.843 21.78 135.593 21.55C135.353 21.31 135.233 21.015 135.233 20.665C135.233 20.315 135.353 20.025 135.593 19.795C135.843 19.555 136.158 19.435 136.538 19.435C136.908 19.435 137.213 19.555 137.453 19.795C137.693 20.025 137.813 20.315 137.813 20.665C137.813 21.015 137.693 21.31 137.453 21.55C137.213 21.78 136.908 21.895 136.538 21.895Z" fill="white" fill-opacity="0.2"/>
<path d="M53.614 64.757V66.163H50.004V78H48.275V66.163H44.646V64.757H53.614ZM60.9103 67.398C61.6956 67.398 62.405 67.569 63.0383 67.911C63.6716 68.2403 64.1656 68.7407 64.5203 69.412C64.8876 70.0833 65.0713 70.9003 65.0713 71.863V78H63.3613V72.11C63.3613 71.0713 63.1016 70.2797 62.5823 69.735C62.063 69.1777 61.3536 68.899 60.4543 68.899C59.5423 68.899 58.814 69.184 58.2693 69.754C57.7373 70.324 57.4713 71.1537 57.4713 72.243V78H55.7423V63.94H57.4713V69.07C57.8133 68.538 58.282 68.1263 58.8773 67.835C59.4853 67.5437 60.163 67.398 60.9103 67.398ZM68.7886 65.897C68.4593 65.897 68.1806 65.783 67.9526 65.555C67.7246 65.327 67.6106 65.0483 67.6106 64.719C67.6106 64.3897 67.7246 64.111 67.9526 63.883C68.1806 63.655 68.4593 63.541 68.7886 63.541C69.1053 63.541 69.3713 63.655 69.5866 63.883C69.8146 64.111 69.9286 64.3897 69.9286 64.719C69.9286 65.0483 69.8146 65.327 69.5866 65.555C69.3713 65.783 69.1053 65.897 68.7886 65.897ZM69.6246 67.588V78H67.8956V67.588H69.6246ZM76.2574 78.171C75.4594 78.171 74.7437 78.038 74.1104 77.772C73.4771 77.4933 72.9767 77.1133 72.6094 76.632C72.2421 76.138 72.0394 75.5743 72.0014 74.941H73.7874C73.8381 75.4603 74.0787 75.8847 74.5094 76.214C74.9527 76.5433 75.5291 76.708 76.2384 76.708C76.8971 76.708 77.4164 76.5623 77.7964 76.271C78.1764 75.9797 78.3664 75.6123 78.3664 75.169C78.3664 74.713 78.1637 74.3773 77.7584 74.162C77.3531 73.934 76.7261 73.7123 75.8774 73.497C75.1047 73.2943 74.4714 73.0917 73.9774 72.889C73.4961 72.6737 73.0781 72.3633 72.7234 71.958C72.3814 71.54 72.2104 70.9953 72.2104 70.324C72.2104 69.792 72.3687 69.3043 72.6854 68.861C73.0021 68.4177 73.4517 68.0693 74.0344 67.816C74.6171 67.55 75.2821 67.417 76.0294 67.417C77.1821 67.417 78.1131 67.7083 78.8224 68.291C79.5317 68.8737 79.9117 69.6717 79.9624 70.685H78.2334C78.1954 70.1403 77.9737 69.7033 77.5684 69.374C77.1757 69.0447 76.6437 68.88 75.9724 68.88C75.3517 68.88 74.8577 69.013 74.4904 69.279C74.1231 69.545 73.9394 69.8933 73.9394 70.324C73.9394 70.666 74.0471 70.951 74.2624 71.179C74.4904 71.3943 74.7691 71.5717 75.0984 71.711C75.4404 71.8377 75.9091 71.9833 76.5044 72.148C77.2517 72.3507 77.8597 72.5533 78.3284 72.756C78.7971 72.946 79.1961 73.2373 79.5254 73.63C79.8674 74.0227 80.0447 74.5357 80.0574 75.169C80.0574 75.739 79.8991 76.252 79.5824 76.708C79.2657 77.164 78.8161 77.525 78.2334 77.791C77.6634 78.0443 77.0047 78.171 76.2574 78.171ZM89.6726 69.013V75.15C89.6726 75.6567 89.7803 76.0177 89.9956 76.233C90.2109 76.4357 90.5846 76.537 91.1166 76.537H92.3896V78H90.8316C89.8689 78 89.1469 77.7783 88.6656 77.335C88.1843 76.8917 87.9436 76.1633 87.9436 75.15V69.013H86.5946V67.588H87.9436V64.966H89.6726V67.588H92.3896V69.013H89.6726ZM103.984 72.395C103.984 72.7243 103.965 73.0727 103.927 73.44H95.6055C95.6688 74.466 96.0172 75.2703 96.6505 75.853C97.2965 76.423 98.0755 76.708 98.9875 76.708C99.7348 76.708 100.355 76.537 100.849 76.195C101.356 75.8403 101.711 75.3717 101.913 74.789H103.775C103.497 75.7897 102.939 76.6067 102.103 77.24C101.267 77.8607 100.229 78.171 98.9875 78.171C97.9995 78.171 97.1128 77.9493 96.3275 77.506C95.5548 77.0627 94.9468 76.4357 94.5035 75.625C94.0602 74.8017 93.8385 73.8517 93.8385 72.775C93.8385 71.6983 94.0538 70.7547 94.4845 69.944C94.9152 69.1333 95.5168 68.5127 96.2895 68.082C97.0748 67.6387 97.9742 67.417 98.9875 67.417C99.9755 67.417 100.849 67.6323 101.609 68.063C102.369 68.4937 102.952 69.089 103.357 69.849C103.775 70.5963 103.984 71.445 103.984 72.395ZM102.198 72.034C102.198 71.3753 102.053 70.8117 101.761 70.343C101.47 69.8617 101.071 69.5007 100.564 69.26C100.07 69.0067 99.5195 68.88 98.9115 68.88C98.0375 68.88 97.2902 69.1587 96.6695 69.716C96.0615 70.2733 95.7132 71.046 95.6245 72.034H102.198ZM111.701 78L109.231 74.124L106.856 78H105.051L108.414 72.832L105.051 67.588H107.008L109.478 71.445L111.834 67.588H113.639L110.295 72.737L113.658 78H111.701ZM117.468 69.013V75.15C117.468 75.6567 117.575 76.0177 117.791 76.233C118.006 76.4357 118.38 76.537 118.912 76.537H120.185V78H118.627C117.664 78 116.942 77.7783 116.461 77.335C115.979 76.8917 115.739 76.1633 115.739 75.15V69.013H114.39V67.588H115.739V64.966H117.468V67.588H120.185V69.013H117.468ZM128.238 65.897C127.909 65.897 127.63 65.783 127.402 65.555C127.174 65.327 127.06 65.0483 127.06 64.719C127.06 64.3897 127.174 64.111 127.402 63.883C127.63 63.655 127.909 63.541 128.238 63.541C128.555 63.541 128.821 63.655 129.036 63.883C129.264 64.111 129.378 64.3897 129.378 64.719C129.378 65.0483 129.264 65.327 129.036 65.555C128.821 65.783 128.555 65.897 128.238 65.897ZM129.074 67.588V78H127.345V67.588H129.074ZM135.707 78.171C134.909 78.171 134.193 78.038 133.56 77.772C132.926 77.4933 132.426 77.1133 132.059 76.632C131.691 76.138 131.489 75.5743 131.451 74.941H133.237C133.287 75.4603 133.528 75.8847 133.959 76.214C134.402 76.5433 134.978 76.708 135.688 76.708C136.346 76.708 136.866 76.5623 137.246 76.271C137.626 75.9797 137.816 75.6123 137.816 75.169C137.816 74.713 137.613 74.3773 137.208 74.162C136.802 73.934 136.175 73.7123 135.327 73.497C134.554 73.2943 133.921 73.0917 133.427 72.889C132.945 72.6737 132.527 72.3633 132.173 71.958C131.831 71.54 131.66 70.9953 131.66 70.324C131.66 69.792 131.818 69.3043 132.135 68.861C132.451 68.4177 132.901 68.0693 133.484 67.816C134.066 67.55 134.731 67.417 135.479 67.417C136.631 67.417 137.562 67.7083 138.272 68.291C138.981 68.8737 139.361 69.6717 139.412 70.685H137.683C137.645 70.1403 137.423 69.7033 137.018 69.374C136.625 69.0447 136.093 68.88 135.422 68.88C134.801 68.88 134.307 69.013 133.94 69.279C133.572 69.545 133.389 69.8933 133.389 70.324C133.389 70.666 133.496 70.951 133.712 71.179C133.94 71.3943 134.218 71.5717 134.548 71.711C134.89 71.8377 135.358 71.9833 135.954 72.148C136.701 72.3507 137.309 72.5533 137.778 72.756C138.246 72.946 138.645 73.2373 138.975 73.63C139.317 74.0227 139.494 74.5357 139.507 75.169C139.507 75.739 139.348 76.252 139.032 76.708C138.715 77.164 138.265 77.525 137.683 77.791C137.113 78.0443 136.454 78.171 135.707 78.171ZM53.614 126.757V128.163H50.004V140H48.275V128.163H44.646V126.757H53.614ZM60.9103 129.398C61.6956 129.398 62.405 129.569 63.0383 129.911C63.6716 130.24 64.1656 130.741 64.5203 131.412C64.8876 132.083 65.0713 132.9 65.0713 133.863V140H63.3613V134.11C63.3613 133.071 63.1016 132.28 62.5823 131.735C62.063 131.178 61.3536 130.899 60.4543 130.899C59.5423 130.899 58.814 131.184 58.2693 131.754C57.7373 132.324 57.4713 133.154 57.4713 134.243V140H55.7423V125.94H57.4713V131.07C57.8133 130.538 58.282 130.126 58.8773 129.835C59.4853 129.544 60.163 129.398 60.9103 129.398ZM68.7886 127.897C68.4593 127.897 68.1806 127.783 67.9526 127.555C67.7246 127.327 67.6106 127.048 67.6106 126.719C67.6106 126.39 67.7246 126.111 67.9526 125.883C68.1806 125.655 68.4593 125.541 68.7886 125.541C69.1053 125.541 69.3713 125.655 69.5866 125.883C69.8146 126.111 69.9286 126.39 69.9286 126.719C69.9286 127.048 69.8146 127.327 69.5866 127.555C69.3713 127.783 69.1053 127.897 68.7886 127.897ZM69.6246 129.588V140H67.8956V129.588H69.6246ZM76.2574 140.171C75.4594 140.171 74.7437 140.038 74.1104 139.772C73.4771 139.493 72.9767 139.113 72.6094 138.632C72.2421 138.138 72.0394 137.574 72.0014 136.941H73.7874C73.8381 137.46 74.0787 137.885 74.5094 138.214C74.9527 138.543 75.5291 138.708 76.2384 138.708C76.8971 138.708 77.4164 138.562 77.7964 138.271C78.1764 137.98 78.3664 137.612 78.3664 137.169C78.3664 136.713 78.1637 136.377 77.7584 136.162C77.3531 135.934 76.7261 135.712 75.8774 135.497C75.1047 135.294 74.4714 135.092 73.9774 134.889C73.4961 134.674 73.0781 134.363 72.7234 133.958C72.3814 133.54 72.2104 132.995 72.2104 132.324C72.2104 131.792 72.3687 131.304 72.6854 130.861C73.0021 130.418 73.4517 130.069 74.0344 129.816C74.6171 129.55 75.2821 129.417 76.0294 129.417C77.1821 129.417 78.1131 129.708 78.8224 130.291C79.5317 130.874 79.9117 131.672 79.9624 132.685H78.2334C78.1954 132.14 77.9737 131.703 77.5684 131.374C77.1757 131.045 76.6437 130.88 75.9724 130.88C75.3517 130.88 74.8577 131.013 74.4904 131.279C74.1231 131.545 73.9394 131.893 73.9394 132.324C73.9394 132.666 74.0471 132.951 74.2624 133.179C74.4904 133.394 74.7691 133.572 75.0984 133.711C75.4404 133.838 75.9091 133.983 76.5044 134.148C77.2517 134.351 77.8597 134.553 78.3284 134.756C78.7971 134.946 79.1961 135.237 79.5254 135.63C79.8674 136.023 80.0447 136.536 80.0574 137.169C80.0574 137.739 79.8991 138.252 79.5824 138.708C79.2657 139.164 78.8161 139.525 78.2334 139.791C77.6634 140.044 77.0047 140.171 76.2574 140.171ZM89.6726 131.013V137.15C89.6726 137.657 89.7803 138.018 89.9956 138.233C90.2109 138.436 90.5846 138.537 91.1166 138.537H92.3896V140H90.8316C89.8689 140 89.1469 139.778 88.6656 139.335C88.1843 138.892 87.9436 138.163 87.9436 137.15V131.013H86.5946V129.588H87.9436V126.966H89.6726V129.588H92.3896V131.013H89.6726ZM103.984 134.395C103.984 134.724 103.965 135.073 103.927 135.44H95.6055C95.6688 136.466 96.0172 137.27 96.6505 137.853C97.2965 138.423 98.0755 138.708 98.9875 138.708C99.7348 138.708 100.355 138.537 100.849 138.195C101.356 137.84 101.711 137.372 101.913 136.789H103.775C103.497 137.79 102.939 138.607 102.103 139.24C101.267 139.861 100.229 140.171 98.9875 140.171C97.9995 140.171 97.1128 139.949 96.3275 139.506C95.5548 139.063 94.9468 138.436 94.5035 137.625C94.0602 136.802 93.8385 135.852 93.8385 134.775C93.8385 133.698 94.0538 132.755 94.4845 131.944C94.9152 131.133 95.5168 130.513 96.2895 130.082C97.0748 129.639 97.9742 129.417 98.9875 129.417C99.9755 129.417 100.849 129.632 101.609 130.063C102.369 130.494 102.952 131.089 103.357 131.849C103.775 132.596 103.984 133.445 103.984 134.395ZM102.198 134.034C102.198 133.375 102.053 132.812 101.761 132.343C101.47 131.862 101.071 131.501 100.564 131.26C100.07 131.007 99.5195 130.88 98.9115 130.88C98.0375 130.88 97.2902 131.159 96.6695 131.716C96.0615 132.273 95.7132 133.046 95.6245 134.034H102.198ZM111.701 140L109.231 136.124L106.856 140H105.051L108.414 134.832L105.051 129.588H107.008L109.478 133.445L111.834 129.588H113.639L110.295 134.737L113.658 140H111.701ZM117.468 131.013V137.15C117.468 137.657 117.575 138.018 117.791 138.233C118.006 138.436 118.38 138.537 118.912 138.537H120.185V140H118.627C117.664 140 116.942 139.778 116.461 139.335C115.979 138.892 115.739 138.163 115.739 137.15V131.013H114.39V129.588H115.739V126.966H117.468V129.588H120.185V131.013H117.468ZM128.238 127.897C127.909 127.897 127.63 127.783 127.402 127.555C127.174 127.327 127.06 127.048 127.06 126.719C127.06 126.39 127.174 126.111 127.402 125.883C127.63 125.655 127.909 125.541 128.238 125.541C128.555 125.541 128.821 125.655 129.036 125.883C129.264 126.111 129.378 126.39 129.378 126.719C129.378 127.048 129.264 127.327 129.036 127.555C128.821 127.783 128.555 127.897 128.238 127.897ZM129.074 129.588V140H127.345V129.588H129.074ZM135.707 140.171C134.909 140.171 134.193 140.038 133.56 139.772C132.926 139.493 132.426 139.113 132.059 138.632C131.691 138.138 131.489 137.574 131.451 136.941H133.237C133.287 137.46 133.528 137.885 133.959 138.214C134.402 138.543 134.978 138.708 135.688 138.708C136.346 138.708 136.866 138.562 137.246 138.271C137.626 137.98 137.816 137.612 137.816 137.169C137.816 136.713 137.613 136.377 137.208 136.162C136.802 135.934 136.175 135.712 135.327 135.497C134.554 135.294 133.921 135.092 133.427 134.889C132.945 134.674 132.527 134.363 132.173 133.958C131.831 133.54 131.66 132.995 131.66 132.324C131.66 131.792 131.818 131.304 132.135 130.861C132.451 130.418 132.901 130.069 133.484 129.816C134.066 129.55 134.731 129.417 135.479 129.417C136.631 129.417 137.562 129.708 138.272 130.291C138.981 130.874 139.361 131.672 139.412 132.685H137.683C137.645 132.14 137.423 131.703 137.018 131.374C136.625 131.045 136.093 130.88 135.422 130.88C134.801 130.88 134.307 131.013 133.94 131.279C133.572 131.545 133.389 131.893 133.389 132.324C133.389 132.666 133.496 132.951 133.712 133.179C133.94 133.394 134.218 133.572 134.548 133.711C134.89 133.838 135.358 133.983 135.954 134.148C136.701 134.351 137.309 134.553 137.778 134.756C138.246 134.946 138.645 135.237 138.975 135.63C139.317 136.023 139.494 136.536 139.507 137.169C139.507 137.739 139.348 138.252 139.032 138.708C138.715 139.164 138.265 139.525 137.683 139.791C137.113 140.044 136.454 140.171 135.707 140.171ZM149.065 127.897C148.786 127.897 148.552 127.808 148.362 127.631C148.184 127.441 148.096 127.207 148.096 126.928C148.096 126.548 148.235 126.225 148.514 125.959C148.792 125.68 149.115 125.541 149.483 125.541C149.774 125.541 150.008 125.63 150.186 125.807C150.363 125.984 150.452 126.219 150.452 126.51C150.452 126.89 150.312 127.219 150.034 127.498C149.755 127.764 149.432 127.897 149.065 127.897ZM149.616 129.588L147.773 140H146.044L147.887 129.588H149.616ZM153.342 137.15C153.304 137.34 153.285 137.505 153.285 137.644C153.285 137.961 153.38 138.189 153.57 138.328C153.772 138.467 154.095 138.537 154.539 138.537H155.812L155.546 140H153.988C153.164 140 152.544 139.842 152.126 139.525C151.72 139.208 151.518 138.689 151.518 137.967C151.518 137.688 151.543 137.416 151.594 137.15L152.677 131.013H151.347L151.594 129.588H152.943L153.399 126.966H155.147L154.691 129.588H157.389L157.142 131.013H154.425L153.342 137.15ZM157.906 134.756C158.096 133.692 158.476 132.761 159.046 131.963C159.629 131.152 160.332 130.525 161.155 130.082C161.991 129.639 162.878 129.417 163.815 129.417C164.727 129.417 165.481 129.613 166.076 130.006C166.672 130.399 167.083 130.893 167.311 131.488L167.653 129.588H169.401L167.558 140H165.81L166.171 138.062C165.715 138.67 165.114 139.177 164.366 139.582C163.619 139.975 162.796 140.171 161.896 140.171C161.086 140.171 160.37 140 159.749 139.658C159.129 139.303 158.647 138.803 158.305 138.157C157.963 137.511 157.792 136.764 157.792 135.915C157.792 135.535 157.83 135.149 157.906 134.756ZM166.741 134.775C166.792 134.509 166.817 134.224 166.817 133.92C166.817 132.995 166.539 132.267 165.981 131.735C165.437 131.19 164.74 130.918 163.891 130.918C163.245 130.918 162.625 131.07 162.029 131.374C161.447 131.678 160.946 132.121 160.528 132.704C160.11 133.287 159.832 133.971 159.692 134.756C159.642 135.022 159.616 135.313 159.616 135.63C159.616 136.567 159.889 137.308 160.433 137.853C160.978 138.385 161.675 138.651 162.523 138.651C163.169 138.651 163.784 138.499 164.366 138.195C164.962 137.878 165.468 137.429 165.886 136.846C166.317 136.251 166.602 135.56 166.741 134.775ZM174.698 125.94L172.209 140H170.48L172.969 125.94H174.698ZM178.177 127.897C177.898 127.897 177.664 127.808 177.474 127.631C177.297 127.441 177.208 127.207 177.208 126.928C177.208 126.548 177.347 126.225 177.626 125.959C177.905 125.68 178.228 125.541 178.595 125.541C178.886 125.541 179.121 125.63 179.298 125.807C179.475 125.984 179.564 126.219 179.564 126.51C179.564 126.89 179.425 127.219 179.146 127.498C178.867 127.764 178.544 127.897 178.177 127.897ZM178.728 129.588L176.885 140H175.156L176.999 129.588H178.728ZM180.098 134.775C180.288 133.698 180.668 132.761 181.238 131.963C181.821 131.152 182.536 130.525 183.385 130.082C184.234 129.639 185.152 129.417 186.14 129.417C187.419 129.417 188.414 129.727 189.123 130.348C189.845 130.969 190.244 131.83 190.32 132.932H188.458C188.395 132.299 188.135 131.798 187.679 131.431C187.236 131.064 186.634 130.88 185.874 130.88C184.886 130.88 184.025 131.222 183.29 131.906C182.568 132.577 182.099 133.534 181.884 134.775C181.821 135.193 181.789 135.541 181.789 135.82C181.789 136.745 182.036 137.46 182.53 137.967C183.024 138.461 183.683 138.708 184.506 138.708C185.266 138.708 185.925 138.531 186.482 138.176C187.052 137.821 187.489 137.315 187.793 136.656H189.655C189.199 137.72 188.496 138.575 187.546 139.221C186.596 139.854 185.494 140.171 184.24 140.171C182.935 140.171 181.897 139.797 181.124 139.05C180.364 138.303 179.984 137.283 179.984 135.991C179.984 135.598 180.022 135.193 180.098 134.775ZM53.614 188.757V190.163H50.004V202H48.275V190.163H44.646V188.757H53.614ZM60.9103 191.398C61.6956 191.398 62.405 191.569 63.0383 191.911C63.6716 192.24 64.1656 192.741 64.5203 193.412C64.8876 194.083 65.0713 194.9 65.0713 195.863V202H63.3613V196.11C63.3613 195.071 63.1016 194.28 62.5823 193.735C62.063 193.178 61.3536 192.899 60.4543 192.899C59.5423 192.899 58.814 193.184 58.2693 193.754C57.7373 194.324 57.4713 195.154 57.4713 196.243V202H55.7423V187.94H57.4713V193.07C57.8133 192.538 58.282 192.126 58.8773 191.835C59.4853 191.544 60.163 191.398 60.9103 191.398ZM68.7886 189.897C68.4593 189.897 68.1806 189.783 67.9526 189.555C67.7246 189.327 67.6106 189.048 67.6106 188.719C67.6106 188.39 67.7246 188.111 67.9526 187.883C68.1806 187.655 68.4593 187.541 68.7886 187.541C69.1053 187.541 69.3713 187.655 69.5866 187.883C69.8146 188.111 69.9286 188.39 69.9286 188.719C69.9286 189.048 69.8146 189.327 69.5866 189.555C69.3713 189.783 69.1053 189.897 68.7886 189.897ZM69.6246 191.588V202H67.8956V191.588H69.6246ZM76.2574 202.171C75.4594 202.171 74.7437 202.038 74.1104 201.772C73.4771 201.493 72.9767 201.113 72.6094 200.632C72.2421 200.138 72.0394 199.574 72.0014 198.941H73.7874C73.8381 199.46 74.0787 199.885 74.5094 200.214C74.9527 200.543 75.5291 200.708 76.2384 200.708C76.8971 200.708 77.4164 200.562 77.7964 200.271C78.1764 199.98 78.3664 199.612 78.3664 199.169C78.3664 198.713 78.1637 198.377 77.7584 198.162C77.3531 197.934 76.7261 197.712 75.8774 197.497C75.1047 197.294 74.4714 197.092 73.9774 196.889C73.4961 196.674 73.0781 196.363 72.7234 195.958C72.3814 195.54 72.2104 194.995 72.2104 194.324C72.2104 193.792 72.3687 193.304 72.6854 192.861C73.0021 192.418 73.4517 192.069 74.0344 191.816C74.6171 191.55 75.2821 191.417 76.0294 191.417C77.1821 191.417 78.1131 191.708 78.8224 192.291C79.5317 192.874 79.9117 193.672 79.9624 194.685H78.2334C78.1954 194.14 77.9737 193.703 77.5684 193.374C77.1757 193.045 76.6437 192.88 75.9724 192.88C75.3517 192.88 74.8577 193.013 74.4904 193.279C74.1231 193.545 73.9394 193.893 73.9394 194.324C73.9394 194.666 74.0471 194.951 74.2624 195.179C74.4904 195.394 74.7691 195.572 75.0984 195.711C75.4404 195.838 75.9091 195.983 76.5044 196.148C77.2517 196.351 77.8597 196.553 78.3284 196.756C78.7971 196.946 79.1961 197.237 79.5254 197.63C79.8674 198.023 80.0447 198.536 80.0574 199.169C80.0574 199.739 79.8991 200.252 79.5824 200.708C79.2657 201.164 78.8161 201.525 78.2334 201.791C77.6634 202.044 77.0047 202.171 76.2574 202.171ZM88.4566 189.897C88.1273 189.897 87.8486 189.783 87.6206 189.555C87.3926 189.327 87.2786 189.048 87.2786 188.719C87.2786 188.39 87.3926 188.111 87.6206 187.883C87.8486 187.655 88.1273 187.541 88.4566 187.541C88.7733 187.541 89.0393 187.655 89.2546 187.883C89.4826 188.111 89.5966 188.39 89.5966 188.719C89.5966 189.048 89.4826 189.327 89.2546 189.555C89.0393 189.783 88.7733 189.897 88.4566 189.897ZM89.2926 191.588V202H87.5636V191.588H89.2926ZM95.9254 202.171C95.1274 202.171 94.4117 202.038 93.7784 201.772C93.145 201.493 92.6447 201.113 92.2774 200.632C91.91 200.138 91.7074 199.574 91.6694 198.941H93.4554C93.506 199.46 93.7467 199.885 94.1774 200.214C94.6207 200.543 95.197 200.708 95.9064 200.708C96.565 200.708 97.0844 200.562 97.4644 200.271C97.8444 199.98 98.0344 199.612 98.0344 199.169C98.0344 198.713 97.8317 198.377 97.4264 198.162C97.021 197.934 96.394 197.712 95.5454 197.497C94.7727 197.294 94.1394 197.092 93.6454 196.889C93.164 196.674 92.746 196.363 92.3914 195.958C92.0494 195.54 91.8784 194.995 91.8784 194.324C91.8784 193.792 92.0367 193.304 92.3534 192.861C92.67 192.418 93.1197 192.069 93.7024 191.816C94.285 191.55 94.95 191.417 95.6974 191.417C96.85 191.417 97.781 191.708 98.4904 192.291C99.1997 192.874 99.5797 193.672 99.6304 194.685H97.9014C97.8634 194.14 97.6417 193.703 97.2364 193.374C96.8437 193.045 96.3117 192.88 95.6404 192.88C95.0197 192.88 94.5257 193.013 94.1584 193.279C93.791 193.545 93.6074 193.893 93.6074 194.324C93.6074 194.666 93.715 194.951 93.9304 195.179C94.1584 195.394 94.437 195.572 94.7664 195.711C95.1084 195.838 95.577 195.983 96.1724 196.148C96.9197 196.351 97.5277 196.553 97.9964 196.756C98.465 196.946 98.864 197.237 99.1934 197.63C99.5354 198.023 99.7127 198.536 99.7254 199.169C99.7254 199.739 99.567 200.252 99.2504 200.708C98.9337 201.164 98.484 201.525 97.9014 201.791C97.3314 202.044 96.6727 202.171 95.9254 202.171ZM162.305 196.756C162.305 195.692 162.521 194.761 162.951 193.963C163.382 193.152 163.971 192.525 164.718 192.082C165.478 191.639 166.321 191.417 167.245 191.417C168.157 191.417 168.949 191.613 169.62 192.006C170.292 192.399 170.792 192.893 171.121 193.488V191.588H172.869V202H171.121V200.062C170.779 200.67 170.266 201.177 169.582 201.582C168.911 201.975 168.126 202.171 167.226 202.171C166.302 202.171 165.466 201.943 164.718 201.487C163.971 201.031 163.382 200.391 162.951 199.568C162.521 198.745 162.305 197.807 162.305 196.756ZM171.121 196.775C171.121 195.99 170.963 195.306 170.646 194.723C170.33 194.14 169.899 193.697 169.354 193.393C168.822 193.076 168.233 192.918 167.587 192.918C166.941 192.918 166.352 193.07 165.82 193.374C165.288 193.678 164.864 194.121 164.547 194.704C164.231 195.287 164.072 195.971 164.072 196.756C164.072 197.554 164.231 198.251 164.547 198.846C164.864 199.429 165.288 199.878 165.82 200.195C166.352 200.499 166.941 200.651 167.587 200.651C168.233 200.651 168.822 200.499 169.354 200.195C169.899 199.878 170.33 199.429 170.646 198.846C170.963 198.251 171.121 197.56 171.121 196.775ZM180.864 191.398C182.131 191.398 183.157 191.784 183.942 192.557C184.727 193.317 185.12 194.419 185.12 195.863V202H183.41V196.11C183.41 195.071 183.15 194.28 182.631 193.735C182.112 193.178 181.402 192.899 180.503 192.899C179.591 192.899 178.863 193.184 178.318 193.754C177.786 194.324 177.52 195.154 177.52 196.243V202H175.791V191.588H177.52V193.07C177.862 192.538 178.324 192.126 178.907 191.835C179.502 191.544 180.155 191.398 180.864 191.398ZM187.298 196.756C187.298 195.692 187.514 194.761 187.944 193.963C188.375 193.152 188.964 192.525 189.711 192.082C190.471 191.639 191.32 191.417 192.257 191.417C193.068 191.417 193.822 191.607 194.518 191.987C195.215 192.354 195.747 192.842 196.114 193.45V187.94H197.862V202H196.114V200.043C195.772 200.664 195.266 201.177 194.594 201.582C193.923 201.975 193.138 202.171 192.238 202.171C191.314 202.171 190.471 201.943 189.711 201.487C188.964 201.031 188.375 200.391 187.944 199.568C187.514 198.745 187.298 197.807 187.298 196.756ZM196.114 196.775C196.114 195.99 195.956 195.306 195.639 194.723C195.323 194.14 194.892 193.697 194.347 193.393C193.815 193.076 193.226 192.918 192.58 192.918C191.934 192.918 191.345 193.07 190.813 193.374C190.281 193.678 189.857 194.121 189.54 194.704C189.224 195.287 189.065 195.971 189.065 196.756C189.065 197.554 189.224 198.251 189.54 198.846C189.857 199.429 190.281 199.878 190.813 200.195C191.345 200.499 191.934 200.651 192.58 200.651C193.226 200.651 193.815 200.499 194.347 200.195C194.892 199.878 195.323 199.429 195.639 198.846C195.956 198.251 196.114 197.56 196.114 196.775Z" fill="white" fill-opacity="0.75"/>
<path d="M149.977 68.899C150.281 68.405 150.718 68.006 151.288 67.702C151.858 67.398 152.51 67.246 153.245 67.246C154.119 67.246 154.91 67.4677 155.62 67.911C156.329 68.3543 156.886 68.9877 157.292 69.811C157.71 70.6343 157.919 71.5907 157.919 72.68C157.919 73.7693 157.71 74.732 157.292 75.568C156.886 76.3913 156.329 77.031 155.62 77.487C154.91 77.9303 154.119 78.152 153.245 78.152C152.497 78.152 151.845 78.0063 151.288 77.715C150.73 77.411 150.293 77.012 149.977 76.518V78H146.728V63.94H149.977V68.899ZM154.613 72.68C154.613 71.8693 154.385 71.236 153.929 70.78C153.485 70.3113 152.934 70.077 152.276 70.077C151.63 70.077 151.079 70.3113 150.623 70.78C150.179 71.2487 149.958 71.8883 149.958 72.699C149.958 73.5097 150.179 74.1493 150.623 74.618C151.079 75.0867 151.63 75.321 152.276 75.321C152.922 75.321 153.473 75.0867 153.929 74.618C154.385 74.1367 154.613 73.4907 154.613 72.68ZM164.449 78.152C163.411 78.152 162.473 77.9303 161.637 77.487C160.814 77.0437 160.162 76.4103 159.68 75.587C159.212 74.7637 158.977 73.801 158.977 72.699C158.977 71.6097 159.218 70.6533 159.699 69.83C160.181 68.994 160.839 68.3543 161.675 67.911C162.511 67.4677 163.449 67.246 164.487 67.246C165.526 67.246 166.463 67.4677 167.299 67.911C168.135 68.3543 168.794 68.994 169.275 69.83C169.757 70.6533 169.997 71.6097 169.997 72.699C169.997 73.7883 169.75 74.751 169.256 75.587C168.775 76.4103 168.11 77.0437 167.261 77.487C166.425 77.9303 165.488 78.152 164.449 78.152ZM164.449 75.34C165.07 75.34 165.596 75.112 166.026 74.656C166.47 74.2 166.691 73.5477 166.691 72.699C166.691 71.8503 166.476 71.198 166.045 70.742C165.627 70.286 165.108 70.058 164.487 70.058C163.854 70.058 163.328 70.286 162.91 70.742C162.492 71.1853 162.283 71.8377 162.283 72.699C162.283 73.5477 162.486 74.2 162.891 74.656C163.309 75.112 163.829 75.34 164.449 75.34ZM174.97 63.94V78H171.721V63.94H174.97ZM176.678 72.68C176.678 71.5907 176.881 70.6343 177.286 69.811C177.704 68.9877 178.268 68.3543 178.977 67.911C179.687 67.4677 180.478 67.246 181.352 67.246C182.049 67.246 182.682 67.3917 183.252 67.683C183.835 67.9743 184.291 68.367 184.62 68.861V63.94H187.869V78H184.62V76.48C184.316 76.9867 183.879 77.392 183.309 77.696C182.752 78 182.1 78.152 181.352 78.152C180.478 78.152 179.687 77.9303 178.977 77.487C178.268 77.031 177.704 76.3913 177.286 75.568C176.881 74.732 176.678 73.7693 176.678 72.68ZM184.62 72.699C184.62 71.8883 184.392 71.2487 183.936 70.78C183.493 70.3113 182.948 70.077 182.302 70.077C181.656 70.077 181.105 70.3113 180.649 70.78C180.206 71.236 179.984 71.8693 179.984 72.68C179.984 73.4907 180.206 74.1367 180.649 74.618C181.105 75.0867 181.656 75.321 182.302 75.321C182.948 75.321 183.493 75.0867 183.936 74.618C184.392 74.1493 184.62 73.5097 184.62 72.699Z" fill="white"/>
<path d="M110.042 215.09C109.622 215.09 109.245 215.02 108.912 214.88C108.579 214.733 108.315 214.533 108.122 214.28C107.929 214.02 107.822 213.723 107.802 213.39H108.742C108.769 213.663 108.895 213.887 109.122 214.06C109.355 214.233 109.659 214.32 110.032 214.32C110.379 214.32 110.652 214.243 110.852 214.09C111.052 213.937 111.152 213.743 111.152 213.51C111.152 213.27 111.045 213.093 110.832 212.98C110.619 212.86 110.289 212.743 109.842 212.63C109.435 212.523 109.102 212.417 108.842 212.31C108.589 212.197 108.369 212.033 108.182 211.82C108.002 211.6 107.912 211.313 107.912 210.96C107.912 210.68 107.995 210.423 108.162 210.19C108.329 209.957 108.565 209.773 108.872 209.64C109.179 209.5 109.529 209.43 109.922 209.43C110.529 209.43 111.019 209.583 111.392 209.89C111.765 210.197 111.965 210.617 111.992 211.15H111.082C111.062 210.863 110.945 210.633 110.732 210.46C110.525 210.287 110.245 210.2 109.892 210.2C109.565 210.2 109.305 210.27 109.112 210.41C108.919 210.55 108.822 210.733 108.822 210.96C108.822 211.14 108.879 211.29 108.992 211.41C109.112 211.523 109.259 211.617 109.432 211.69C109.612 211.757 109.859 211.833 110.172 211.92C110.565 212.027 110.885 212.133 111.132 212.24C111.379 212.34 111.589 212.493 111.762 212.7C111.942 212.907 112.035 213.177 112.042 213.51C112.042 213.81 111.959 214.08 111.792 214.32C111.625 214.56 111.389 214.75 111.082 214.89C110.782 215.023 110.435 215.09 110.042 215.09ZM118.187 209.52V215H117.277V214.19C117.103 214.47 116.86 214.69 116.547 214.85C116.24 215.003 115.9 215.08 115.527 215.08C115.1 215.08 114.717 214.993 114.377 214.82C114.037 214.64 113.767 214.373 113.567 214.02C113.373 213.667 113.277 213.237 113.277 212.73V209.52H114.177V212.61C114.177 213.15 114.313 213.567 114.587 213.86C114.86 214.147 115.233 214.29 115.707 214.29C116.193 214.29 116.577 214.14 116.857 213.84C117.137 213.54 117.277 213.103 117.277 212.53V209.52H118.187ZM120.633 210.54C120.82 210.213 121.093 209.947 121.453 209.74C121.813 209.533 122.223 209.43 122.683 209.43C123.176 209.43 123.62 209.547 124.013 209.78C124.406 210.013 124.716 210.343 124.943 210.77C125.17 211.19 125.283 211.68 125.283 212.24C125.283 212.793 125.17 213.287 124.943 213.72C124.716 214.153 124.403 214.49 124.003 214.73C123.61 214.97 123.17 215.09 122.683 215.09C122.21 215.09 121.793 214.987 121.433 214.78C121.08 214.573 120.813 214.31 120.633 213.99V215H119.723V207.6H120.633V210.54ZM124.353 212.24C124.353 211.827 124.27 211.467 124.103 211.16C123.936 210.853 123.71 210.62 123.423 210.46C123.143 210.3 122.833 210.22 122.493 210.22C122.16 210.22 121.85 210.303 121.563 210.47C121.283 210.63 121.056 210.867 120.883 211.18C120.716 211.487 120.633 211.843 120.633 212.25C120.633 212.663 120.716 213.027 120.883 213.34C121.056 213.647 121.283 213.883 121.563 214.05C121.85 214.21 122.16 214.29 122.493 214.29C122.833 214.29 123.143 214.21 123.423 214.05C123.71 213.883 123.936 213.647 124.103 213.34C124.27 213.027 124.353 212.66 124.353 212.24ZM128.421 215.09C128.001 215.09 127.624 215.02 127.291 214.88C126.958 214.733 126.694 214.533 126.501 214.28C126.308 214.02 126.201 213.723 126.181 213.39H127.121C127.148 213.663 127.274 213.887 127.501 214.06C127.734 214.233 128.038 214.32 128.411 214.32C128.758 214.32 129.031 214.243 129.231 214.09C129.431 213.937 129.531 213.743 129.531 213.51C129.531 213.27 129.424 213.093 129.211 212.98C128.998 212.86 128.668 212.743 128.221 212.63C127.814 212.523 127.481 212.417 127.221 212.31C126.968 212.197 126.748 212.033 126.561 211.82C126.381 211.6 126.291 211.313 126.291 210.96C126.291 210.68 126.374 210.423 126.541 210.19C126.708 209.957 126.944 209.773 127.251 209.64C127.558 209.5 127.908 209.43 128.301 209.43C128.908 209.43 129.398 209.583 129.771 209.89C130.144 210.197 130.344 210.617 130.371 211.15H129.461C129.441 210.863 129.324 210.633 129.111 210.46C128.904 210.287 128.624 210.2 128.271 210.2C127.944 210.2 127.684 210.27 127.491 210.41C127.298 210.55 127.201 210.733 127.201 210.96C127.201 211.14 127.258 211.29 127.371 211.41C127.491 211.523 127.638 211.617 127.811 211.69C127.991 211.757 128.238 211.833 128.551 211.92C128.944 212.027 129.264 212.133 129.511 212.24C129.758 212.34 129.968 212.493 130.141 212.7C130.321 212.907 130.414 213.177 130.421 213.51C130.421 213.81 130.338 214.08 130.171 214.32C130.004 214.56 129.768 214.75 129.461 214.89C129.161 215.023 128.814 215.09 128.421 215.09ZM131.366 212.25C131.366 211.683 131.479 211.19 131.706 210.77C131.932 210.343 132.246 210.013 132.646 209.78C133.052 209.547 133.516 209.43 134.036 209.43C134.709 209.43 135.262 209.593 135.696 209.92C136.136 210.247 136.426 210.7 136.566 211.28H135.586C135.492 210.947 135.309 210.683 135.036 210.49C134.769 210.297 134.436 210.2 134.036 210.2C133.516 210.2 133.096 210.38 132.776 210.74C132.456 211.093 132.296 211.597 132.296 212.25C132.296 212.91 132.456 213.42 132.776 213.78C133.096 214.14 133.516 214.32 134.036 214.32C134.436 214.32 134.769 214.227 135.036 214.04C135.302 213.853 135.486 213.587 135.586 213.24H136.566C136.419 213.8 136.126 214.25 135.686 214.59C135.246 214.923 134.696 215.09 134.036 215.09C133.516 215.09 133.052 214.973 132.646 214.74C132.246 214.507 131.932 214.177 131.706 213.75C131.479 213.323 131.366 212.823 131.366 212.25ZM138.69 210.41C138.85 210.097 139.076 209.853 139.37 209.68C139.67 209.507 140.033 209.42 140.46 209.42V210.36H140.22C139.2 210.36 138.69 210.913 138.69 212.02V215H137.78V209.52H138.69V210.41ZM141.98 208.63C141.807 208.63 141.66 208.57 141.54 208.45C141.42 208.33 141.36 208.183 141.36 208.01C141.36 207.837 141.42 207.69 141.54 207.57C141.66 207.45 141.807 207.39 141.98 207.39C142.147 207.39 142.287 207.45 142.4 207.57C142.52 207.69 142.58 207.837 142.58 208.01C142.58 208.183 142.52 208.33 142.4 208.45C142.287 208.57 142.147 208.63 141.98 208.63ZM142.42 209.52V215H141.51V209.52H142.42ZM144.881 210.53C145.061 210.217 145.328 209.957 145.681 209.75C146.041 209.537 146.458 209.43 146.931 209.43C147.418 209.43 147.858 209.547 148.251 209.78C148.651 210.013 148.965 210.343 149.191 210.77C149.418 211.19 149.531 211.68 149.531 212.24C149.531 212.793 149.418 213.287 149.191 213.72C148.965 214.153 148.651 214.49 148.251 214.73C147.858 214.97 147.418 215.09 146.931 215.09C146.465 215.09 146.051 214.987 145.691 214.78C145.338 214.567 145.068 214.303 144.881 213.99V217.6H143.971V209.52H144.881V210.53ZM148.601 212.24C148.601 211.827 148.518 211.467 148.351 211.16C148.185 210.853 147.958 210.62 147.671 210.46C147.391 210.3 147.081 210.22 146.741 210.22C146.408 210.22 146.098 210.303 145.811 210.47C145.531 210.63 145.305 210.867 145.131 211.18C144.965 211.487 144.881 211.843 144.881 212.25C144.881 212.663 144.965 213.027 145.131 213.34C145.305 213.647 145.531 213.883 145.811 214.05C146.098 214.21 146.408 214.29 146.741 214.29C147.081 214.29 147.391 214.21 147.671 214.05C147.958 213.883 148.185 213.647 148.351 213.34C148.518 213.027 148.601 212.66 148.601 212.24ZM151.839 210.27V213.5C151.839 213.767 151.896 213.957 152.009 214.07C152.122 214.177 152.319 214.23 152.599 214.23H153.269V215H152.449C151.942 215 151.562 214.883 151.309 214.65C151.056 214.417 150.929 214.033 150.929 213.5V210.27H150.219V209.52H150.929V208.14H151.839V209.52H153.269V210.27H151.839Z" fill="white" fill-opacity="0.75"/>
<path d="M214.042 190.09C213.622 190.09 213.245 190.02 212.912 189.88C212.579 189.733 212.315 189.533 212.122 189.28C211.929 189.02 211.822 188.723 211.802 188.39H212.742C212.769 188.663 212.895 188.887 213.122 189.06C213.355 189.233 213.659 189.32 214.032 189.32C214.379 189.32 214.652 189.243 214.852 189.09C215.052 188.937 215.152 188.743 215.152 188.51C215.152 188.27 215.045 188.093 214.832 187.98C214.619 187.86 214.289 187.743 213.842 187.63C213.435 187.523 213.102 187.417 212.842 187.31C212.589 187.197 212.369 187.033 212.182 186.82C212.002 186.6 211.912 186.313 211.912 185.96C211.912 185.68 211.995 185.423 212.162 185.19C212.329 184.957 212.565 184.773 212.872 184.64C213.179 184.5 213.529 184.43 213.922 184.43C214.529 184.43 215.019 184.583 215.392 184.89C215.765 185.197 215.965 185.617 215.992 186.15H215.082C215.062 185.863 214.945 185.633 214.732 185.46C214.525 185.287 214.245 185.2 213.892 185.2C213.565 185.2 213.305 185.27 213.112 185.41C212.919 185.55 212.822 185.733 212.822 185.96C212.822 186.14 212.879 186.29 212.992 186.41C213.112 186.523 213.259 186.617 213.432 186.69C213.612 186.757 213.859 186.833 214.172 186.92C214.565 187.027 214.885 187.133 215.132 187.24C215.379 187.34 215.589 187.493 215.762 187.7C215.942 187.907 216.035 188.177 216.042 188.51C216.042 188.81 215.959 189.08 215.792 189.32C215.625 189.56 215.389 189.75 215.082 189.89C214.782 190.023 214.435 190.09 214.042 190.09ZM222.187 184.52V190H221.277V189.19C221.103 189.47 220.86 189.69 220.547 189.85C220.24 190.003 219.9 190.08 219.527 190.08C219.1 190.08 218.717 189.993 218.377 189.82C218.037 189.64 217.767 189.373 217.567 189.02C217.373 188.667 217.277 188.237 217.277 187.73V184.52H218.177V187.61C218.177 188.15 218.313 188.567 218.587 188.86C218.86 189.147 219.233 189.29 219.707 189.29C220.193 189.29 220.577 189.14 220.857 188.84C221.137 188.54 221.277 188.103 221.277 187.53V184.52H222.187ZM224.633 185.54C224.82 185.213 225.093 184.947 225.453 184.74C225.813 184.533 226.223 184.43 226.683 184.43C227.176 184.43 227.62 184.547 228.013 184.78C228.406 185.013 228.716 185.343 228.943 185.77C229.17 186.19 229.283 186.68 229.283 187.24C229.283 187.793 229.17 188.287 228.943 188.72C228.716 189.153 228.403 189.49 228.003 189.73C227.61 189.97 227.17 190.09 226.683 190.09C226.21 190.09 225.793 189.987 225.433 189.78C225.08 189.573 224.813 189.31 224.633 188.99V190H223.723V182.6H224.633V185.54ZM228.353 187.24C228.353 186.827 228.27 186.467 228.103 186.16C227.936 185.853 227.71 185.62 227.423 185.46C227.143 185.3 226.833 185.22 226.493 185.22C226.16 185.22 225.85 185.303 225.563 185.47C225.283 185.63 225.056 185.867 224.883 186.18C224.716 186.487 224.633 186.843 224.633 187.25C224.633 187.663 224.716 188.027 224.883 188.34C225.056 188.647 225.283 188.883 225.563 189.05C225.85 189.21 226.16 189.29 226.493 189.29C226.833 189.29 227.143 189.21 227.423 189.05C227.71 188.883 227.936 188.647 228.103 188.34C228.27 188.027 228.353 187.66 228.353 187.24ZM232.421 190.09C232.001 190.09 231.624 190.02 231.291 189.88C230.958 189.733 230.694 189.533 230.501 189.28C230.308 189.02 230.201 188.723 230.181 188.39H231.121C231.148 188.663 231.274 188.887 231.501 189.06C231.734 189.233 232.038 189.32 232.411 189.32C232.758 189.32 233.031 189.243 233.231 189.09C233.431 188.937 233.531 188.743 233.531 188.51C233.531 188.27 233.424 188.093 233.211 187.98C232.998 187.86 232.668 187.743 232.221 187.63C231.814 187.523 231.481 187.417 231.221 187.31C230.968 187.197 230.748 187.033 230.561 186.82C230.381 186.6 230.291 186.313 230.291 185.96C230.291 185.68 230.374 185.423 230.541 185.19C230.708 184.957 230.944 184.773 231.251 184.64C231.558 184.5 231.908 184.43 232.301 184.43C232.908 184.43 233.398 184.583 233.771 184.89C234.144 185.197 234.344 185.617 234.371 186.15H233.461C233.441 185.863 233.324 185.633 233.111 185.46C232.904 185.287 232.624 185.2 232.271 185.2C231.944 185.2 231.684 185.27 231.491 185.41C231.298 185.55 231.201 185.733 231.201 185.96C231.201 186.14 231.258 186.29 231.371 186.41C231.491 186.523 231.638 186.617 231.811 186.69C231.991 186.757 232.238 186.833 232.551 186.92C232.944 187.027 233.264 187.133 233.511 187.24C233.758 187.34 233.968 187.493 234.141 187.7C234.321 187.907 234.414 188.177 234.421 188.51C234.421 188.81 234.338 189.08 234.171 189.32C234.004 189.56 233.768 189.75 233.461 189.89C233.161 190.023 232.814 190.09 232.421 190.09ZM235.366 187.25C235.366 186.683 235.479 186.19 235.706 185.77C235.932 185.343 236.246 185.013 236.646 184.78C237.052 184.547 237.516 184.43 238.036 184.43C238.709 184.43 239.262 184.593 239.696 184.92C240.136 185.247 240.426 185.7 240.566 186.28H239.586C239.492 185.947 239.309 185.683 239.036 185.49C238.769 185.297 238.436 185.2 238.036 185.2C237.516 185.2 237.096 185.38 236.776 185.74C236.456 186.093 236.296 186.597 236.296 187.25C236.296 187.91 236.456 188.42 236.776 188.78C237.096 189.14 237.516 189.32 238.036 189.32C238.436 189.32 238.769 189.227 239.036 189.04C239.302 188.853 239.486 188.587 239.586 188.24H240.566C240.419 188.8 240.126 189.25 239.686 189.59C239.246 189.923 238.696 190.09 238.036 190.09C237.516 190.09 237.052 189.973 236.646 189.74C236.246 189.507 235.932 189.177 235.706 188.75C235.479 188.323 235.366 187.823 235.366 187.25ZM242.69 185.41C242.85 185.097 243.076 184.853 243.37 184.68C243.67 184.507 244.033 184.42 244.46 184.42V185.36H244.22C243.2 185.36 242.69 185.913 242.69 187.02V190H241.78V184.52H242.69V185.41ZM245.98 183.63C245.807 183.63 245.66 183.57 245.54 183.45C245.42 183.33 245.36 183.183 245.36 183.01C245.36 182.837 245.42 182.69 245.54 182.57C245.66 182.45 245.807 182.39 245.98 182.39C246.147 182.39 246.287 182.45 246.4 182.57C246.52 182.69 246.58 182.837 246.58 183.01C246.58 183.183 246.52 183.33 246.4 183.45C246.287 183.57 246.147 183.63 245.98 183.63ZM246.42 184.52V190H245.51V184.52H246.42ZM248.881 185.53C249.061 185.217 249.328 184.957 249.681 184.75C250.041 184.537 250.458 184.43 250.931 184.43C251.418 184.43 251.858 184.547 252.251 184.78C252.651 185.013 252.965 185.343 253.191 185.77C253.418 186.19 253.531 186.68 253.531 187.24C253.531 187.793 253.418 188.287 253.191 188.72C252.965 189.153 252.651 189.49 252.251 189.73C251.858 189.97 251.418 190.09 250.931 190.09C250.465 190.09 250.051 189.987 249.691 189.78C249.338 189.567 249.068 189.303 248.881 188.99V192.6H247.971V184.52H248.881V185.53ZM252.601 187.24C252.601 186.827 252.518 186.467 252.351 186.16C252.185 185.853 251.958 185.62 251.671 185.46C251.391 185.3 251.081 185.22 250.741 185.22C250.408 185.22 250.098 185.303 249.811 185.47C249.531 185.63 249.305 185.867 249.131 186.18C248.965 186.487 248.881 186.843 248.881 187.25C248.881 187.663 248.965 188.027 249.131 188.34C249.305 188.647 249.531 188.883 249.811 189.05C250.098 189.21 250.408 189.29 250.741 189.29C251.081 189.29 251.391 189.21 251.671 189.05C251.958 188.883 252.185 188.647 252.351 188.34C252.518 188.027 252.601 187.66 252.601 187.24ZM255.839 185.27V188.5C255.839 188.767 255.896 188.957 256.009 189.07C256.122 189.177 256.319 189.23 256.599 189.23H257.269V190H256.449C255.942 190 255.562 189.883 255.309 189.65C255.056 189.417 254.929 189.033 254.929 188.5V185.27H254.219V184.52H254.929V183.14H255.839V184.52H257.269V185.27H255.839Z" fill="white" fill-opacity="0.75"/>
<defs>
<filter id="filter0_d_175_26" x="0" y="0" width="594" height="51" filterUnits="userSpaceOnUse" color-interpolation-filters="sRGB">
<feFlood flood-opacity="0" result="BackgroundImageFix"/>
<feColorMatrix in="SourceAlpha" type="matrix" values="0 0 0 0 0 0 0 0 0 0 0 0 0 0 0 0 0 0 127 0" result="hardAlpha"/>
<feOffset dy="4"/>
<feGaussianBlur stdDeviation="2"/>
<feComposite in2="hardAlpha" operator="out"/>
<feColorMatrix type="matrix" values="0 0 0 0 0 0 0 0 0 0 0 0 0 0 0 0 0 0 0.25 0"/>
<feBlend mode="normal" in2="BackgroundImageFix" result="effect1_dropShadow_175_26"/>
<feBlend mode="normal" in="SourceGraphic" in2="effect1_dropShadow_175_26" result="shape"/>
</filter>
</defs>
</svg>
