<svg width="491" height="213" viewBox="0 0 491 213" fill="none" xmlns="http://www.w3.org/2000/svg">
<rect x="4" width="483" height="213" rx="12" fill="#242526"/>
<g filter="url(#filter0_d_164_23)">
<path d="M4 12C4 5.37258 9.37258 0 16 0H475C481.627 0 487 5.37258 487 12V41H4V12Z" fill="#242526"/>
</g>
<path d="M43.3761 27.098C42.6948 27.098 42.0788 26.9813 41.5281 26.748C40.9868 26.5147 40.5575 26.1787 40.2401 25.74C39.9228 25.3013 39.7595 24.7833 39.7501 24.186H41.8501C41.8781 24.5873 42.0181 24.9047 42.2701 25.138C42.5315 25.3713 42.8861 25.488 43.3341 25.488C43.7915 25.488 44.1508 25.3807 44.4121 25.166C44.6735 24.942 44.8041 24.6527 44.8041 24.298C44.8041 24.0087 44.7155 23.7707 44.5381 23.584C44.3608 23.3973 44.1368 23.2527 43.8661 23.15C43.6048 23.038 43.2408 22.9167 42.7741 22.786C42.1395 22.5993 41.6215 22.4173 41.2201 22.24C40.8281 22.0533 40.4875 21.778 40.1981 21.414C39.9181 21.0407 39.7781 20.546 39.7781 19.93C39.7781 19.3513 39.9228 18.8473 40.2121 18.418C40.5015 17.9887 40.9075 17.662 41.4301 17.438C41.9528 17.2047 42.5501 17.088 43.2221 17.088C44.2301 17.088 45.0468 17.3353 45.6721 17.83C46.3068 18.3153 46.6568 18.9967 46.7221 19.874H44.5661C44.5475 19.538 44.4028 19.2627 44.1321 19.048C43.8708 18.824 43.5208 18.712 43.0821 18.712C42.6995 18.712 42.3915 18.81 42.1581 19.006C41.9341 19.202 41.8221 19.4867 41.8221 19.86C41.8221 20.1213 41.9061 20.3407 42.0741 20.518C42.2515 20.686 42.4661 20.826 42.7181 20.938C42.9795 21.0407 43.3435 21.162 43.8101 21.302C44.4448 21.4887 44.9628 21.6753 45.3641 21.862C45.7655 22.0487 46.1108 22.3287 46.4001 22.702C46.6895 23.0753 46.8341 23.5653 46.8341 24.172C46.8341 24.6947 46.6988 25.18 46.4281 25.628C46.1575 26.076 45.7608 26.4353 45.2381 26.706C44.7155 26.9673 44.0948 27.098 43.3761 27.098ZM50.8154 20.854V24.606C50.8154 24.8673 50.876 25.0587 50.9974 25.18C51.128 25.292 51.3427 25.348 51.6414 25.348H52.5514V27H51.3194C49.6674 27 48.8414 26.1973 48.8414 24.592V20.854H47.9174V19.244H48.8414V17.326H50.8154V19.244H52.5514V20.854H50.8154ZM53.4571 23.094C53.4571 22.31 53.6111 21.6147 53.9191 21.008C54.2365 20.4013 54.6611 19.9347 55.1931 19.608C55.7345 19.2813 56.3365 19.118 56.9991 19.118C57.5778 19.118 58.0818 19.2347 58.5111 19.468C58.9498 19.7013 59.2998 19.9953 59.5611 20.35V19.244H61.5351V27H59.5611V25.866C59.3091 26.23 58.9591 26.5333 58.5111 26.776C58.0725 27.0093 57.5638 27.126 56.9851 27.126C56.3318 27.126 55.7345 26.958 55.1931 26.622C54.6611 26.286 54.2365 25.8147 53.9191 25.208C53.6111 24.592 53.4571 23.8873 53.4571 23.094ZM59.5611 23.122C59.5611 22.646 59.4678 22.24 59.2811 21.904C59.0945 21.5587 58.8425 21.2973 58.5251 21.12C58.2078 20.9333 57.8671 20.84 57.5031 20.84C57.1391 20.84 56.8031 20.9287 56.4951 21.106C56.1871 21.2833 55.9351 21.5447 55.7391 21.89C55.5525 22.226 55.4591 22.6273 55.4591 23.094C55.4591 23.5607 55.5525 23.9713 55.7391 24.326C55.9351 24.6713 56.1871 24.9373 56.4951 25.124C56.8125 25.3107 57.1485 25.404 57.5031 25.404C57.8671 25.404 58.2078 25.3153 58.5251 25.138C58.8425 24.9513 59.0945 24.69 59.2811 24.354C59.4678 24.0087 59.5611 23.598 59.5611 23.122ZM65.4094 20.448C65.6614 20.0373 65.9881 19.7153 66.3894 19.482C66.8001 19.2487 67.2667 19.132 67.7894 19.132V21.19H67.2714C66.6554 21.19 66.1887 21.3347 65.8714 21.624C65.5634 21.9133 65.4094 22.4173 65.4094 23.136V27H63.4494V19.244H65.4094V20.448ZM71.3916 20.854V24.606C71.3916 24.8673 71.4522 25.0587 71.5736 25.18C71.7042 25.292 71.9189 25.348 72.2176 25.348H73.1276V27H71.8956C70.2436 27 69.4176 26.1973 69.4176 24.592V20.854H68.4936V19.244H69.4176V17.326H71.3916V19.244H73.1276V20.854H71.3916ZM84.5232 17.228V18.81H81.9192V27H79.9592V18.81H77.3552V17.228H84.5232ZM85.4493 23.094C85.4493 22.31 85.6033 21.6147 85.9113 21.008C86.2286 20.4013 86.6533 19.9347 87.1853 19.608C87.7266 19.2813 88.3286 19.118 88.9913 19.118C89.57 19.118 90.074 19.2347 90.5033 19.468C90.942 19.7013 91.292 19.9953 91.5533 20.35V19.244H93.5273V27H91.5533V25.866C91.3013 26.23 90.9513 26.5333 90.5033 26.776C90.0646 27.0093 89.556 27.126 88.9773 27.126C88.324 27.126 87.7266 26.958 87.1853 26.622C86.6533 26.286 86.2286 25.8147 85.9113 25.208C85.6033 24.592 85.4493 23.8873 85.4493 23.094ZM91.5533 23.122C91.5533 22.646 91.46 22.24 91.2733 21.904C91.0866 21.5587 90.8346 21.2973 90.5173 21.12C90.2 20.9333 89.8593 20.84 89.4953 20.84C89.1313 20.84 88.7953 20.9287 88.4873 21.106C88.1793 21.2833 87.9273 21.5447 87.7313 21.89C87.5446 22.226 87.4513 22.6273 87.4513 23.094C87.4513 23.5607 87.5446 23.9713 87.7313 24.326C87.9273 24.6713 88.1793 24.9373 88.4873 25.124C88.8046 25.3107 89.1406 25.404 89.4953 25.404C89.8593 25.404 90.2 25.3153 90.5173 25.138C90.8346 24.9513 91.0866 24.69 91.2733 24.354C91.46 24.0087 91.5533 23.598 91.5533 23.122ZM98.4796 19.118C99.0583 19.118 99.5669 19.2347 100.006 19.468C100.444 19.692 100.79 19.986 101.042 20.35V19.244H103.016V27.056C103.016 27.7747 102.871 28.414 102.582 28.974C102.292 29.5433 101.858 29.9913 101.28 30.318C100.701 30.654 100.001 30.822 99.1796 30.822C98.0783 30.822 97.1729 30.5653 96.4636 30.052C95.7636 29.5387 95.3669 28.8387 95.2736 27.952H97.2196C97.3223 28.3067 97.5416 28.5867 97.8776 28.792C98.2229 29.0067 98.6383 29.114 99.1236 29.114C99.6929 29.114 100.155 28.9413 100.51 28.596C100.864 28.26 101.042 27.7467 101.042 27.056V25.852C100.79 26.216 100.44 26.5193 99.9916 26.762C99.5529 27.0047 99.0489 27.126 98.4796 27.126C97.8263 27.126 97.2289 26.958 96.6876 26.622C96.1463 26.286 95.7169 25.8147 95.3996 25.208C95.0916 24.592 94.9376 23.8873 94.9376 23.094C94.9376 22.31 95.0916 21.6147 95.3996 21.008C95.7169 20.4013 96.1416 19.9347 96.6736 19.608C97.2149 19.2813 97.8169 19.118 98.4796 19.118ZM101.042 23.122C101.042 22.646 100.948 22.24 100.762 21.904C100.575 21.5587 100.323 21.2973 100.006 21.12C99.6883 20.9333 99.3476 20.84 98.9836 20.84C98.6196 20.84 98.2836 20.9287 97.9756 21.106C97.6676 21.2833 97.4156 21.5447 97.2196 21.89C97.0329 22.226 96.9396 22.6273 96.9396 23.094C96.9396 23.5607 97.0329 23.9713 97.2196 24.326C97.4156 24.6713 97.6676 24.9373 97.9756 25.124C98.2929 25.3107 98.6289 25.404 98.9836 25.404C99.3476 25.404 99.6883 25.3153 100.006 25.138C100.323 24.9513 100.575 24.69 100.762 24.354C100.948 24.0087 101.042 23.598 101.042 23.122Z" fill="white"/>
<path d="M394.132 18.81V21.26H397.422V22.814H394.132V25.404H397.842V27H392.172V17.214H397.842V18.81H394.132ZM403.921 19.132C404.845 19.132 405.592 19.426 406.161 20.014C406.731 20.5927 407.015 21.4047 407.015 22.45V27H405.055V22.716C405.055 22.1 404.901 21.6287 404.593 21.302C404.285 20.966 403.865 20.798 403.333 20.798C402.792 20.798 402.363 20.966 402.045 21.302C401.737 21.6287 401.583 22.1 401.583 22.716V27H399.623V19.244H401.583V20.21C401.845 19.874 402.176 19.6127 402.577 19.426C402.988 19.23 403.436 19.132 403.921 19.132ZM408.375 23.094C408.375 22.31 408.529 21.6147 408.837 21.008C409.154 20.4013 409.584 19.9347 410.125 19.608C410.666 19.2813 411.268 19.118 411.931 19.118C412.435 19.118 412.916 19.23 413.373 19.454C413.83 19.6687 414.194 19.958 414.465 20.322V16.64H416.453V27H414.465V25.852C414.222 26.2347 413.882 26.5427 413.443 26.776C413.004 27.0093 412.496 27.126 411.917 27.126C411.264 27.126 410.666 26.958 410.125 26.622C409.584 26.286 409.154 25.8147 408.837 25.208C408.529 24.592 408.375 23.8873 408.375 23.094ZM414.479 23.122C414.479 22.646 414.386 22.24 414.199 21.904C414.012 21.5587 413.76 21.2973 413.443 21.12C413.126 20.9333 412.785 20.84 412.421 20.84C412.057 20.84 411.721 20.9287 411.413 21.106C411.105 21.2833 410.853 21.5447 410.657 21.89C410.47 22.226 410.377 22.6273 410.377 23.094C410.377 23.5607 410.47 23.9713 410.657 24.326C410.853 24.6713 411.105 24.9373 411.413 25.124C411.73 25.3107 412.066 25.404 412.421 25.404C412.785 25.404 413.126 25.3153 413.443 25.138C413.76 24.9513 414.012 24.69 414.199 24.354C414.386 24.0087 414.479 23.598 414.479 23.122ZM428.353 17.228V18.81H425.749V27H423.789V18.81H421.185V17.228H428.353ZM429.279 23.094C429.279 22.31 429.433 21.6147 429.741 21.008C430.059 20.4013 430.483 19.9347 431.015 19.608C431.557 19.2813 432.159 19.118 432.821 19.118C433.4 19.118 433.904 19.2347 434.333 19.468C434.772 19.7013 435.122 19.9953 435.383 20.35V19.244H437.357V27H435.383V25.866C435.131 26.23 434.781 26.5333 434.333 26.776C433.895 27.0093 433.386 27.126 432.807 27.126C432.154 27.126 431.557 26.958 431.015 26.622C430.483 26.286 430.059 25.8147 429.741 25.208C429.433 24.592 429.279 23.8873 429.279 23.094ZM435.383 23.122C435.383 22.646 435.29 22.24 435.103 21.904C434.917 21.5587 434.665 21.2973 434.347 21.12C434.03 20.9333 433.689 20.84 433.325 20.84C432.961 20.84 432.625 20.9287 432.317 21.106C432.009 21.2833 431.757 21.5447 431.561 21.89C431.375 22.226 431.281 22.6273 431.281 23.094C431.281 23.5607 431.375 23.9713 431.561 24.326C431.757 24.6713 432.009 24.9373 432.317 25.124C432.635 25.3107 432.971 25.404 433.325 25.404C433.689 25.404 434.03 25.3153 434.347 25.138C434.665 24.9513 434.917 24.69 435.103 24.354C435.29 24.0087 435.383 23.598 435.383 23.122ZM442.31 19.118C442.888 19.118 443.397 19.2347 443.836 19.468C444.274 19.692 444.62 19.986 444.872 20.35V19.244H446.846V27.056C446.846 27.7747 446.701 28.414 446.412 28.974C446.122 29.5433 445.688 29.9913 445.11 30.318C444.531 30.654 443.831 30.822 443.01 30.822C441.908 30.822 441.003 30.5653 440.294 30.052C439.594 29.5387 439.197 28.8387 439.104 27.952H441.05C441.152 28.3067 441.372 28.5867 441.708 28.792C442.053 29.0067 442.468 29.114 442.954 29.114C443.523 29.114 443.985 28.9413 444.34 28.596C444.694 28.26 444.872 27.7467 444.872 27.056V25.852C444.62 26.216 444.27 26.5193 443.822 26.762C443.383 27.0047 442.879 27.126 442.31 27.126C441.656 27.126 441.059 26.958 440.518 26.622C439.976 26.286 439.547 25.8147 439.23 25.208C438.922 24.592 438.768 23.8873 438.768 23.094C438.768 22.31 438.922 21.6147 439.23 21.008C439.547 20.4013 439.972 19.9347 440.504 19.608C441.045 19.2813 441.647 19.118 442.31 19.118ZM444.872 23.122C444.872 22.646 444.778 22.24 444.592 21.904C444.405 21.5587 444.153 21.2973 443.836 21.12C443.518 20.9333 443.178 20.84 442.814 20.84C442.45 20.84 442.114 20.9287 441.806 21.106C441.498 21.2833 441.246 21.5447 441.05 21.89C440.863 22.226 440.77 22.6273 440.77 23.094C440.77 23.5607 440.863 23.9713 441.05 24.326C441.246 24.6713 441.498 24.9373 441.806 25.124C442.123 25.3107 442.459 25.404 442.814 25.404C443.178 25.404 443.518 25.3153 443.836 25.138C444.153 24.9513 444.405 24.69 444.592 24.354C444.778 24.0087 444.872 23.598 444.872 23.122Z" fill="white"/>
<path d="M217.149 22.1C217.149 21.1387 217.364 20.28 217.793 19.524C218.232 18.7587 218.825 18.166 219.571 17.746C220.327 17.3167 221.172 17.102 222.105 17.102C223.197 17.102 224.154 17.382 224.975 17.942C225.797 18.502 226.371 19.2767 226.697 20.266H224.443C224.219 19.7993 223.902 19.4493 223.491 19.216C223.09 18.9827 222.623 18.866 222.091 18.866C221.522 18.866 221.013 19.0013 220.565 19.272C220.127 19.5333 219.781 19.9067 219.529 20.392C219.287 20.8773 219.165 21.4467 219.165 22.1C219.165 22.744 219.287 23.3133 219.529 23.808C219.781 24.2933 220.127 24.6713 220.565 24.942C221.013 25.2033 221.522 25.334 222.091 25.334C222.623 25.334 223.09 25.2173 223.491 24.984C223.902 24.7413 224.219 24.3867 224.443 23.92H226.697C226.371 24.9187 225.797 25.698 224.975 26.258C224.163 26.8087 223.207 27.084 222.105 27.084C221.172 27.084 220.327 26.874 219.571 26.454C218.825 26.0247 218.232 25.432 217.793 24.676C217.364 23.92 217.149 23.0613 217.149 22.1ZM231.815 27.126C231.069 27.126 230.397 26.9627 229.799 26.636C229.202 26.3 228.731 25.8287 228.385 25.222C228.049 24.6153 227.881 23.9153 227.881 23.122C227.881 22.3287 228.054 21.6287 228.399 21.022C228.754 20.4153 229.235 19.9487 229.841 19.622C230.448 19.286 231.125 19.118 231.871 19.118C232.618 19.118 233.295 19.286 233.901 19.622C234.508 19.9487 234.984 20.4153 235.329 21.022C235.684 21.6287 235.861 22.3287 235.861 23.122C235.861 23.9153 235.679 24.6153 235.315 25.222C234.961 25.8287 234.475 26.3 233.859 26.636C233.253 26.9627 232.571 27.126 231.815 27.126ZM231.815 25.418C232.17 25.418 232.501 25.334 232.809 25.166C233.127 24.9887 233.379 24.7273 233.565 24.382C233.752 24.0367 233.845 23.6167 233.845 23.122C233.845 22.3847 233.649 21.82 233.257 21.428C232.875 21.0267 232.403 20.826 231.843 20.826C231.283 20.826 230.812 21.0267 230.429 21.428C230.056 21.82 229.869 22.3847 229.869 23.122C229.869 23.8593 230.051 24.4287 230.415 24.83C230.789 25.222 231.255 25.418 231.815 25.418ZM241.597 19.132C242.521 19.132 243.268 19.426 243.837 20.014C244.406 20.5927 244.691 21.4047 244.691 22.45V27H242.731V22.716C242.731 22.1 242.577 21.6287 242.269 21.302C241.961 20.966 241.541 20.798 241.009 20.798C240.468 20.798 240.038 20.966 239.721 21.302C239.413 21.6287 239.259 22.1 239.259 22.716V27H237.299V19.244H239.259V20.21C239.52 19.874 239.852 19.6127 240.253 19.426C240.664 19.23 241.112 19.132 241.597 19.132ZM248.837 20.854V24.606C248.837 24.8673 248.898 25.0587 249.019 25.18C249.15 25.292 249.364 25.348 249.663 25.348H250.573V27H249.341C247.689 27 246.863 26.1973 246.863 24.592V20.854H245.939V19.244H246.863V17.326H248.837V19.244H250.573V20.854H248.837ZM259.193 22.954C259.193 23.234 259.174 23.486 259.137 23.71H253.467C253.513 24.27 253.709 24.7087 254.055 25.026C254.4 25.3433 254.825 25.502 255.329 25.502C256.057 25.502 256.575 25.1893 256.883 24.564H258.997C258.773 25.3107 258.343 25.9267 257.709 26.412C257.074 26.888 256.295 27.126 255.371 27.126C254.624 27.126 253.952 26.9627 253.355 26.636C252.767 26.3 252.305 25.8287 251.969 25.222C251.642 24.6153 251.479 23.9153 251.479 23.122C251.479 22.3193 251.642 21.6147 251.969 21.008C252.295 20.4013 252.753 19.9347 253.341 19.608C253.929 19.2813 254.605 19.118 255.371 19.118C256.108 19.118 256.766 19.2767 257.345 19.594C257.933 19.9113 258.385 20.364 258.703 20.952C259.029 21.5307 259.193 22.198 259.193 22.954ZM257.163 22.394C257.153 21.89 256.971 21.4887 256.617 21.19C256.262 20.882 255.828 20.728 255.315 20.728C254.829 20.728 254.419 20.8773 254.083 21.176C253.756 21.4653 253.555 21.8713 253.481 22.394H257.163ZM264.921 19.132C265.845 19.132 266.592 19.426 267.161 20.014C267.731 20.5927 268.015 21.4047 268.015 22.45V27H266.055V22.716C266.055 22.1 265.901 21.6287 265.593 21.302C265.285 20.966 264.865 20.798 264.333 20.798C263.792 20.798 263.363 20.966 263.045 21.302C262.737 21.6287 262.583 22.1 262.583 22.716V27H260.623V19.244H262.583V20.21C262.845 19.874 263.176 19.6127 263.577 19.426C263.988 19.23 264.436 19.132 264.921 19.132ZM272.161 20.854V24.606C272.161 24.8673 272.222 25.0587 272.343 25.18C272.474 25.292 272.688 25.348 272.987 25.348H273.897V27H272.665C271.013 27 270.187 26.1973 270.187 24.592V20.854H269.263V19.244H270.187V17.326H272.161V19.244H273.897V20.854H272.161Z" fill="white"/>
<line x1="140.5" y1="12" x2="140.5" y2="32" stroke="#303030"/>
<line x1="339.5" y1="12" x2="339.5" y2="32" stroke="#303030"/>
<path d="M48.0471 71.124L44.8271 67.946L48.0471 64.768H50.0631L46.8291 67.946L50.0631 71.124H48.0471ZM60.7041 65.16C61.2921 65.16 61.8147 65.286 62.2721 65.538C62.7387 65.79 63.1027 66.1633 63.3641 66.658C63.6347 67.1527 63.7701 67.75 63.7701 68.45V73H62.1881V68.688C62.1881 67.9973 62.0154 67.47 61.6701 67.106C61.3247 66.7327 60.8534 66.546 60.2561 66.546C59.6587 66.546 59.1827 66.7327 58.8281 67.106C58.4827 67.47 58.3101 67.9973 58.3101 68.688V73H56.7141V62.64H58.3101V66.182C58.5807 65.8553 58.9214 65.6033 59.3321 65.426C59.7521 65.2487 60.2094 65.16 60.7041 65.16ZM65.3859 64.25V62.794H68.2979V73H66.6879V64.25H65.3859ZM74.8551 64.768H76.8711L80.0911 67.946L76.8711 71.124H74.8551L78.0891 67.946L74.8551 64.768Z" fill="white" fill-opacity="0.75"/>
<path d="M50.2961 110.124L47.0761 106.946L50.2961 103.768H52.3121L49.0781 106.946L52.3121 110.124H50.2961ZM60.5591 105.42C60.8298 105.065 61.1984 104.767 61.6651 104.524C62.1318 104.281 62.6591 104.16 63.2471 104.16C63.9191 104.16 64.5304 104.328 65.0811 104.664C65.6411 104.991 66.0798 105.453 66.3971 106.05C66.7144 106.647 66.8731 107.333 66.8731 108.108C66.8731 108.883 66.7144 109.578 66.3971 110.194C66.0798 110.801 65.6411 111.277 65.0811 111.622C64.5304 111.958 63.9191 112.126 63.2471 112.126C62.6591 112.126 62.1364 112.009 61.6791 111.776C61.2218 111.533 60.8484 111.235 60.5591 110.88V115.668H58.9631V104.286H60.5591V105.42ZM65.2491 108.108C65.2491 107.576 65.1371 107.119 64.9131 106.736C64.6984 106.344 64.4091 106.05 64.0451 105.854C63.6904 105.649 63.3078 105.546 62.8971 105.546C62.4958 105.546 62.1131 105.649 61.7491 105.854C61.3944 106.059 61.1051 106.358 60.8811 106.75C60.6664 107.142 60.5591 107.604 60.5591 108.136C60.5591 108.668 60.6664 109.135 60.8811 109.536C61.1051 109.928 61.3944 110.227 61.7491 110.432C62.1131 110.637 62.4958 110.74 62.8971 110.74C63.3078 110.74 63.6904 110.637 64.0451 110.432C64.4091 110.217 64.6984 109.909 64.9131 109.508C65.1371 109.107 65.2491 108.64 65.2491 108.108ZM72.6061 103.768H74.6221L77.8421 106.946L74.6221 110.124H72.6061L75.8401 106.946L72.6061 103.768Z" fill="white" fill-opacity="0.75"/>
<path d="M47.6096 149.124L44.3896 145.946L47.6096 142.768H49.6256L46.3916 145.946L49.6256 149.124H47.6096ZM57.8726 144.434C58.1432 144.061 58.5119 143.757 58.9786 143.524C59.4546 143.281 59.9819 143.16 60.5606 143.16C61.2419 143.16 61.8579 143.323 62.4086 143.65C62.9592 143.977 63.3932 144.443 63.7106 145.05C64.0279 145.647 64.1866 146.333 64.1866 147.108C64.1866 147.883 64.0279 148.578 63.7106 149.194C63.3932 149.801 62.9546 150.277 62.3946 150.622C61.8439 150.958 61.2326 151.126 60.5606 151.126C59.9632 151.126 59.4312 151.009 58.9646 150.776C58.5072 150.543 58.1432 150.244 57.8726 149.88V151H56.2766V140.64H57.8726V144.434ZM62.5626 147.108C62.5626 146.576 62.4506 146.119 62.2266 145.736C62.0119 145.344 61.7226 145.05 61.3586 144.854C61.0039 144.649 60.6212 144.546 60.2106 144.546C59.8092 144.546 59.4266 144.649 59.0626 144.854C58.7079 145.059 58.4186 145.358 58.1946 145.75C57.9799 146.142 57.8726 146.604 57.8726 147.136C57.8726 147.668 57.9799 148.135 58.1946 148.536C58.4186 148.928 58.7079 149.227 59.0626 149.432C59.4266 149.637 59.8092 149.74 60.2106 149.74C60.6212 149.74 61.0039 149.637 61.3586 149.432C61.7226 149.217 62.0119 148.909 62.2266 148.508C62.4506 148.107 62.5626 147.64 62.5626 147.108ZM67.3608 144.406C67.5942 144.014 67.9022 143.711 68.2848 143.496C68.6768 143.272 69.1388 143.16 69.6708 143.16V144.812H69.2648C68.6395 144.812 68.1635 144.971 67.8368 145.288C67.5195 145.605 67.3608 146.156 67.3608 146.94V151H65.7648V143.286H67.3608V144.406ZM75.2926 142.768H77.3086L80.5286 145.946L77.3086 149.124H75.2926L78.5266 145.946L75.2926 142.768Z" fill="white" fill-opacity="0.75"/>
<path d="M47.8078 188.124L44.5878 184.946L47.8078 181.768H49.8238L46.5898 184.946L49.8238 188.124H47.8078ZM60.4648 182.16C61.0528 182.16 61.5755 182.286 62.0328 182.538C62.4995 182.79 62.8635 183.163 63.1248 183.658C63.3955 184.153 63.5308 184.75 63.5308 185.45V190H61.9488V185.688C61.9488 184.997 61.7761 184.47 61.4308 184.106C61.0855 183.733 60.6141 183.546 60.0168 183.546C59.4195 183.546 58.9435 183.733 58.5888 184.106C58.2435 184.47 58.0708 184.997 58.0708 185.688V190H56.4748V179.64H58.0708V183.182C58.3415 182.855 58.6821 182.603 59.0928 182.426C59.5128 182.249 59.9701 182.16 60.4648 182.16ZM67.1626 183.406C67.3959 183.014 67.7039 182.711 68.0866 182.496C68.4786 182.272 68.9406 182.16 69.4726 182.16V183.812H69.0666C68.4413 183.812 67.9653 183.971 67.6386 184.288C67.3213 184.605 67.1626 185.156 67.1626 185.94V190H65.5666V182.286H67.1626V183.406ZM75.0944 181.768H77.1104L80.3304 184.946L77.1104 188.124H75.0944L78.3284 184.946L75.0944 181.768Z" fill="white" fill-opacity="0.75"/>
<path d="M224.44 59.27V69H222.844V64.744H218.266V69H216.67V59.27H218.266V63.442H222.844V59.27H224.44ZM233.611 64.954C233.611 65.2433 233.593 65.5047 233.555 65.738H227.661C227.708 66.354 227.937 66.8487 228.347 67.222C228.758 67.5953 229.262 67.782 229.859 67.782C230.718 67.782 231.325 67.4227 231.679 66.704H233.401C233.168 67.4133 232.743 67.9967 232.127 68.454C231.521 68.902 230.765 69.126 229.859 69.126C229.122 69.126 228.459 68.9627 227.871 68.636C227.293 68.3 226.835 67.8333 226.499 67.236C226.173 66.6293 226.009 65.9293 226.009 65.136C226.009 64.3427 226.168 63.6473 226.485 63.05C226.812 62.4433 227.265 61.9767 227.843 61.65C228.431 61.3233 229.103 61.16 229.859 61.16C230.587 61.16 231.236 61.3187 231.805 61.636C232.375 61.9533 232.818 62.4013 233.135 62.98C233.453 63.5493 233.611 64.2073 233.611 64.954ZM231.945 64.45C231.936 63.862 231.726 63.3907 231.315 63.036C230.905 62.6813 230.396 62.504 229.789 62.504C229.239 62.504 228.767 62.6813 228.375 63.036C227.983 63.3813 227.75 63.8527 227.675 64.45H231.945ZM234.65 65.108C234.65 64.3333 234.809 63.6473 235.126 63.05C235.453 62.4527 235.891 61.9907 236.442 61.664C237.002 61.328 237.618 61.16 238.29 61.16C238.897 61.16 239.424 61.2813 239.872 61.524C240.329 61.7573 240.693 62.0513 240.964 62.406V61.286H242.574V69H240.964V67.852C240.693 68.216 240.325 68.5193 239.858 68.762C239.391 69.0047 238.859 69.126 238.262 69.126C237.599 69.126 236.993 68.958 236.442 68.622C235.891 68.2767 235.453 67.8007 235.126 67.194C234.809 66.578 234.65 65.8827 234.65 65.108ZM240.964 65.136C240.964 64.604 240.852 64.142 240.628 63.75C240.413 63.358 240.129 63.0593 239.774 62.854C239.419 62.6487 239.037 62.546 238.626 62.546C238.215 62.546 237.833 62.6487 237.478 62.854C237.123 63.05 236.834 63.344 236.61 63.736C236.395 64.1187 236.288 64.576 236.288 65.108C236.288 65.64 236.395 66.1067 236.61 66.508C236.834 66.9093 237.123 67.2173 237.478 67.432C237.842 67.6373 238.225 67.74 238.626 67.74C239.037 67.74 239.419 67.6373 239.774 67.432C240.129 67.2267 240.413 66.928 240.628 66.536C240.852 66.1347 240.964 65.668 240.964 65.136ZM244.138 65.108C244.138 64.3333 244.297 63.6473 244.614 63.05C244.941 62.4527 245.379 61.9907 245.93 61.664C246.49 61.328 247.111 61.16 247.792 61.16C248.296 61.16 248.791 61.272 249.276 61.496C249.771 61.7107 250.163 62 250.452 62.364V58.64H252.062V69H250.452V67.838C250.191 68.2113 249.827 68.5193 249.36 68.762C248.903 69.0047 248.375 69.126 247.778 69.126C247.106 69.126 246.49 68.958 245.93 68.622C245.379 68.2767 244.941 67.8007 244.614 67.194C244.297 66.578 244.138 65.8827 244.138 65.108ZM250.452 65.136C250.452 64.604 250.34 64.142 250.116 63.75C249.901 63.358 249.617 63.0593 249.262 62.854C248.907 62.6487 248.525 62.546 248.114 62.546C247.703 62.546 247.321 62.6487 246.966 62.854C246.611 63.05 246.322 63.344 246.098 63.736C245.883 64.1187 245.776 64.576 245.776 65.108C245.776 65.64 245.883 66.1067 246.098 66.508C246.322 66.9093 246.611 67.2173 246.966 67.432C247.33 67.6373 247.713 67.74 248.114 67.74C248.525 67.74 248.907 67.6373 249.262 67.432C249.617 67.2267 249.901 66.928 250.116 66.536C250.34 66.1347 250.452 65.668 250.452 65.136ZM254.97 60.264C254.681 60.264 254.438 60.166 254.242 59.97C254.046 59.774 253.948 59.5313 253.948 59.242C253.948 58.9527 254.046 58.71 254.242 58.514C254.438 58.318 254.681 58.22 254.97 58.22C255.25 58.22 255.488 58.318 255.684 58.514C255.88 58.71 255.978 58.9527 255.978 59.242C255.978 59.5313 255.88 59.774 255.684 59.97C255.488 60.166 255.25 60.264 254.97 60.264ZM255.754 61.286V69H254.158V61.286H255.754ZM261.742 61.16C262.348 61.16 262.89 61.286 263.366 61.538C263.851 61.79 264.229 62.1633 264.5 62.658C264.77 63.1527 264.906 63.75 264.906 64.45V69H263.324V64.688C263.324 63.9973 263.151 63.47 262.806 63.106C262.46 62.7327 261.989 62.546 261.392 62.546C260.794 62.546 260.318 62.7327 259.964 63.106C259.618 63.47 259.446 63.9973 259.446 64.688V69H257.85V61.286H259.446V62.168C259.707 61.8507 260.038 61.6033 260.44 61.426C260.85 61.2487 261.284 61.16 261.742 61.16ZM270.05 61.16C270.647 61.16 271.174 61.2813 271.632 61.524C272.098 61.7573 272.462 62.0513 272.724 62.406V61.286H274.334V69.126C274.334 69.8353 274.184 70.4653 273.886 71.016C273.587 71.576 273.153 72.0147 272.584 72.332C272.024 72.6493 271.352 72.808 270.568 72.808C269.522 72.808 268.654 72.5607 267.964 72.066C267.273 71.5807 266.881 70.918 266.788 70.078H268.37C268.491 70.4793 268.748 70.8013 269.14 71.044C269.541 71.296 270.017 71.422 270.568 71.422C271.212 71.422 271.73 71.226 272.122 70.834C272.523 70.442 272.724 69.8727 272.724 69.126V67.838C272.453 68.202 272.084 68.51 271.618 68.762C271.16 69.0047 270.638 69.126 270.05 69.126C269.378 69.126 268.762 68.958 268.202 68.622C267.651 68.2767 267.212 67.8007 266.886 67.194C266.568 66.578 266.41 65.8827 266.41 65.108C266.41 64.3333 266.568 63.6473 266.886 63.05C267.212 62.4527 267.651 61.9907 268.202 61.664C268.762 61.328 269.378 61.16 270.05 61.16ZM272.724 65.136C272.724 64.604 272.612 64.142 272.388 63.75C272.173 63.358 271.888 63.0593 271.534 62.854C271.179 62.6487 270.796 62.546 270.386 62.546C269.975 62.546 269.592 62.6487 269.238 62.854C268.883 63.05 268.594 63.344 268.37 63.736C268.155 64.1187 268.048 64.576 268.048 65.108C268.048 65.64 268.155 66.1067 268.37 66.508C268.594 66.9093 268.883 67.2173 269.238 67.432C269.602 67.6373 269.984 67.74 270.386 67.74C270.796 67.74 271.179 67.6373 271.534 67.432C271.888 67.2267 272.173 66.928 272.388 66.536C272.612 66.1347 272.724 65.668 272.724 65.136Z" fill="white" fill-opacity="0.75"/>
<path d="M216.051 101.168C216.051 101.663 215.935 102.129 215.701 102.568C215.468 103.007 215.095 103.366 214.581 103.646C214.068 103.917 213.41 104.052 212.607 104.052H210.843V108H209.247V98.27H212.607C213.354 98.27 213.984 98.4007 214.497 98.662C215.02 98.914 215.407 99.2593 215.659 99.698C215.921 100.137 216.051 100.627 216.051 101.168ZM212.607 102.75C213.214 102.75 213.667 102.615 213.965 102.344C214.264 102.064 214.413 101.672 214.413 101.168C214.413 100.104 213.811 99.572 212.607 99.572H210.843V102.75H212.607ZM217.041 104.108C217.041 103.333 217.2 102.647 217.517 102.05C217.844 101.453 218.283 100.991 218.833 100.664C219.393 100.328 220.009 100.16 220.681 100.16C221.288 100.16 221.815 100.281 222.263 100.524C222.721 100.757 223.085 101.051 223.355 101.406V100.286H224.965V108H223.355V106.852C223.085 107.216 222.716 107.519 222.249 107.762C221.783 108.005 221.251 108.126 220.653 108.126C219.991 108.126 219.384 107.958 218.833 107.622C218.283 107.277 217.844 106.801 217.517 106.194C217.2 105.578 217.041 104.883 217.041 104.108ZM223.355 104.136C223.355 103.604 223.243 103.142 223.019 102.75C222.805 102.358 222.52 102.059 222.165 101.854C221.811 101.649 221.428 101.546 221.017 101.546C220.607 101.546 220.224 101.649 219.869 101.854C219.515 102.05 219.225 102.344 219.001 102.736C218.787 103.119 218.679 103.576 218.679 104.108C218.679 104.64 218.787 105.107 219.001 105.508C219.225 105.909 219.515 106.217 219.869 106.432C220.233 106.637 220.616 106.74 221.017 106.74C221.428 106.74 221.811 106.637 222.165 106.432C222.52 106.227 222.805 105.928 223.019 105.536C223.243 105.135 223.355 104.668 223.355 104.136ZM228.658 101.406C228.891 101.014 229.199 100.711 229.582 100.496C229.974 100.272 230.436 100.16 230.968 100.16V101.812H230.562C229.936 101.812 229.46 101.971 229.134 102.288C228.816 102.605 228.658 103.156 228.658 103.94V108H227.062V100.286H228.658V101.406ZM231.903 104.108C231.903 103.333 232.061 102.647 232.379 102.05C232.705 101.453 233.144 100.991 233.695 100.664C234.255 100.328 234.871 100.16 235.543 100.16C236.149 100.16 236.677 100.281 237.125 100.524C237.582 100.757 237.946 101.051 238.217 101.406V100.286H239.827V108H238.217V106.852C237.946 107.216 237.577 107.519 237.111 107.762C236.644 108.005 236.112 108.126 235.515 108.126C234.852 108.126 234.245 107.958 233.695 107.622C233.144 107.277 232.705 106.801 232.379 106.194C232.061 105.578 231.903 104.883 231.903 104.108ZM238.217 104.136C238.217 103.604 238.105 103.142 237.881 102.75C237.666 102.358 237.381 102.059 237.027 101.854C236.672 101.649 236.289 101.546 235.879 101.546C235.468 101.546 235.085 101.649 234.731 101.854C234.376 102.05 234.087 102.344 233.863 102.736C233.648 103.119 233.541 103.576 233.541 104.108C233.541 104.64 233.648 105.107 233.863 105.508C234.087 105.909 234.376 106.217 234.731 106.432C235.095 106.637 235.477 106.74 235.879 106.74C236.289 106.74 236.672 106.637 237.027 106.432C237.381 106.227 237.666 105.928 237.881 105.536C238.105 105.135 238.217 104.668 238.217 104.136ZM245.031 100.16C245.628 100.16 246.156 100.281 246.613 100.524C247.08 100.757 247.444 101.051 247.705 101.406V100.286H249.315V108.126C249.315 108.835 249.166 109.465 248.867 110.016C248.568 110.576 248.134 111.015 247.565 111.332C247.005 111.649 246.333 111.808 245.549 111.808C244.504 111.808 243.636 111.561 242.945 111.066C242.254 110.581 241.862 109.918 241.769 109.078H243.351C243.472 109.479 243.729 109.801 244.121 110.044C244.522 110.296 244.998 110.422 245.549 110.422C246.193 110.422 246.711 110.226 247.103 109.834C247.504 109.442 247.705 108.873 247.705 108.126V106.838C247.434 107.202 247.066 107.51 246.599 107.762C246.142 108.005 245.619 108.126 245.031 108.126C244.359 108.126 243.743 107.958 243.183 107.622C242.632 107.277 242.194 106.801 241.867 106.194C241.55 105.578 241.391 104.883 241.391 104.108C241.391 103.333 241.55 102.647 241.867 102.05C242.194 101.453 242.632 100.991 243.183 100.664C243.743 100.328 244.359 100.16 245.031 100.16ZM247.705 104.136C247.705 103.604 247.593 103.142 247.369 102.75C247.154 102.358 246.87 102.059 246.515 101.854C246.16 101.649 245.778 101.546 245.367 101.546C244.956 101.546 244.574 101.649 244.219 101.854C243.864 102.05 243.575 102.344 243.351 102.736C243.136 103.119 243.029 103.576 243.029 104.108C243.029 104.64 243.136 105.107 243.351 105.508C243.575 105.909 243.864 106.217 244.219 106.432C244.583 106.637 244.966 106.74 245.367 106.74C245.778 106.74 246.16 106.637 246.515 106.432C246.87 106.227 247.154 105.928 247.369 105.536C247.593 105.135 247.705 104.668 247.705 104.136ZM253.007 101.406C253.241 101.014 253.549 100.711 253.931 100.496C254.323 100.272 254.785 100.16 255.317 100.16V101.812H254.911C254.286 101.812 253.81 101.971 253.483 102.288C253.166 102.605 253.007 103.156 253.007 103.94V108H251.411V100.286H253.007V101.406ZM256.252 104.108C256.252 103.333 256.411 102.647 256.728 102.05C257.055 101.453 257.494 100.991 258.044 100.664C258.604 100.328 259.22 100.16 259.892 100.16C260.499 100.16 261.026 100.281 261.474 100.524C261.932 100.757 262.296 101.051 262.566 101.406V100.286H264.176V108H262.566V106.852C262.296 107.216 261.927 107.519 261.46 107.762C260.994 108.005 260.462 108.126 259.864 108.126C259.202 108.126 258.595 107.958 258.044 107.622C257.494 107.277 257.055 106.801 256.728 106.194C256.411 105.578 256.252 104.883 256.252 104.108ZM262.566 104.136C262.566 103.604 262.454 103.142 262.23 102.75C262.016 102.358 261.731 102.059 261.376 101.854C261.022 101.649 260.639 101.546 260.228 101.546C259.818 101.546 259.435 101.649 259.08 101.854C258.726 102.05 258.436 102.344 258.212 102.736C257.998 103.119 257.89 103.576 257.89 104.108C257.89 104.64 257.998 105.107 258.212 105.508C258.436 105.909 258.726 106.217 259.08 106.432C259.444 106.637 259.827 106.74 260.228 106.74C260.639 106.74 261.022 106.637 261.376 106.432C261.731 106.227 262.016 105.928 262.23 105.536C262.454 105.135 262.566 104.668 262.566 104.136ZM267.869 101.42C268.139 101.065 268.508 100.767 268.975 100.524C269.441 100.281 269.969 100.16 270.557 100.16C271.229 100.16 271.84 100.328 272.391 100.664C272.951 100.991 273.389 101.453 273.707 102.05C274.024 102.647 274.183 103.333 274.183 104.108C274.183 104.883 274.024 105.578 273.707 106.194C273.389 106.801 272.951 107.277 272.391 107.622C271.84 107.958 271.229 108.126 270.557 108.126C269.969 108.126 269.446 108.009 268.989 107.776C268.531 107.533 268.158 107.235 267.869 106.88V111.668H266.273V100.286H267.869V101.42ZM272.559 104.108C272.559 103.576 272.447 103.119 272.223 102.736C272.008 102.344 271.719 102.05 271.355 101.854C271 101.649 270.617 101.546 270.207 101.546C269.805 101.546 269.423 101.649 269.059 101.854C268.704 102.059 268.415 102.358 268.191 102.75C267.976 103.142 267.869 103.604 267.869 104.136C267.869 104.668 267.976 105.135 268.191 105.536C268.415 105.928 268.704 106.227 269.059 106.432C269.423 106.637 269.805 106.74 270.207 106.74C270.617 106.74 271 106.637 271.355 106.432C271.719 106.217 272.008 105.909 272.223 105.508C272.447 105.107 272.559 104.64 272.559 104.108ZM279.751 100.16C280.339 100.16 280.862 100.286 281.319 100.538C281.786 100.79 282.15 101.163 282.411 101.658C282.682 102.153 282.817 102.75 282.817 103.45V108H281.235V103.688C281.235 102.997 281.062 102.47 280.717 102.106C280.372 101.733 279.9 101.546 279.303 101.546C278.706 101.546 278.23 101.733 277.875 102.106C277.53 102.47 277.357 102.997 277.357 103.688V108H275.761V97.64H277.357V101.182C277.628 100.855 277.968 100.603 278.379 100.426C278.799 100.249 279.256 100.16 279.751 100.16Z" fill="white" fill-opacity="0.75"/>
<path d="M222.566 139.16C223.173 139.16 223.714 139.286 224.19 139.538C224.675 139.79 225.053 140.163 225.324 140.658C225.595 141.153 225.73 141.75 225.73 142.45V147H224.148V142.688C224.148 141.997 223.975 141.47 223.63 141.106C223.285 140.733 222.813 140.546 222.216 140.546C221.619 140.546 221.143 140.733 220.788 141.106C220.443 141.47 220.27 141.997 220.27 142.688V147H218.674V139.286H220.27V140.168C220.531 139.851 220.863 139.603 221.264 139.426C221.675 139.249 222.109 139.16 222.566 139.16ZM231.112 147.126C230.384 147.126 229.726 146.963 229.138 146.636C228.55 146.3 228.088 145.833 227.752 145.236C227.416 144.629 227.248 143.929 227.248 143.136C227.248 142.352 227.42 141.657 227.766 141.05C228.111 140.443 228.582 139.977 229.18 139.65C229.777 139.323 230.444 139.16 231.182 139.16C231.919 139.16 232.586 139.323 233.184 139.65C233.781 139.977 234.252 140.443 234.598 141.05C234.943 141.657 235.116 142.352 235.116 143.136C235.116 143.92 234.938 144.615 234.584 145.222C234.229 145.829 233.744 146.3 233.128 146.636C232.521 146.963 231.849 147.126 231.112 147.126ZM231.112 145.74C231.522 145.74 231.905 145.642 232.26 145.446C232.624 145.25 232.918 144.956 233.142 144.564C233.366 144.172 233.478 143.696 233.478 143.136C233.478 142.576 233.37 142.105 233.156 141.722C232.941 141.33 232.656 141.036 232.302 140.84C231.947 140.644 231.564 140.546 231.154 140.546C230.743 140.546 230.36 140.644 230.006 140.84C229.66 141.036 229.385 141.33 229.18 141.722C228.974 142.105 228.872 142.576 228.872 143.136C228.872 143.967 229.082 144.611 229.502 145.068C229.931 145.516 230.468 145.74 231.112 145.74ZM240.586 139.16C241.192 139.16 241.734 139.286 242.21 139.538C242.695 139.79 243.073 140.163 243.344 140.658C243.614 141.153 243.75 141.75 243.75 142.45V147H242.168V142.688C242.168 141.997 241.995 141.47 241.65 141.106C241.304 140.733 240.833 140.546 240.236 140.546C239.638 140.546 239.162 140.733 238.808 141.106C238.462 141.47 238.29 141.997 238.29 142.688V147H236.694V139.286H238.29V140.168C238.551 139.851 238.882 139.603 239.284 139.426C239.694 139.249 240.128 139.16 240.586 139.16ZM252.855 142.954C252.855 143.243 252.837 143.505 252.799 143.738H246.905C246.952 144.354 247.181 144.849 247.591 145.222C248.002 145.595 248.506 145.782 249.103 145.782C249.962 145.782 250.569 145.423 250.923 144.704H252.645C252.412 145.413 251.987 145.997 251.371 146.454C250.765 146.902 250.009 147.126 249.103 147.126C248.366 147.126 247.703 146.963 247.115 146.636C246.537 146.3 246.079 145.833 245.743 145.236C245.417 144.629 245.253 143.929 245.253 143.136C245.253 142.343 245.412 141.647 245.729 141.05C246.056 140.443 246.509 139.977 247.087 139.65C247.675 139.323 248.347 139.16 249.103 139.16C249.831 139.16 250.48 139.319 251.049 139.636C251.619 139.953 252.062 140.401 252.379 140.98C252.697 141.549 252.855 142.207 252.855 142.954ZM251.189 142.45C251.18 141.862 250.97 141.391 250.559 141.036C250.149 140.681 249.64 140.504 249.033 140.504C248.483 140.504 248.011 140.681 247.619 141.036C247.227 141.381 246.994 141.853 246.919 142.45H251.189Z" fill="white" fill-opacity="0.75"/>
<path d="M222.566 178.16C223.173 178.16 223.714 178.286 224.19 178.538C224.675 178.79 225.053 179.163 225.324 179.658C225.595 180.153 225.73 180.75 225.73 181.45V186H224.148V181.688C224.148 180.997 223.975 180.47 223.63 180.106C223.285 179.733 222.813 179.546 222.216 179.546C221.619 179.546 221.143 179.733 220.788 180.106C220.443 180.47 220.27 180.997 220.27 181.688V186H218.674V178.286H220.27V179.168C220.531 178.851 220.863 178.603 221.264 178.426C221.675 178.249 222.109 178.16 222.566 178.16ZM231.112 186.126C230.384 186.126 229.726 185.963 229.138 185.636C228.55 185.3 228.088 184.833 227.752 184.236C227.416 183.629 227.248 182.929 227.248 182.136C227.248 181.352 227.42 180.657 227.766 180.05C228.111 179.443 228.582 178.977 229.18 178.65C229.777 178.323 230.444 178.16 231.182 178.16C231.919 178.16 232.586 178.323 233.184 178.65C233.781 178.977 234.252 179.443 234.598 180.05C234.943 180.657 235.116 181.352 235.116 182.136C235.116 182.92 234.938 183.615 234.584 184.222C234.229 184.829 233.744 185.3 233.128 185.636C232.521 185.963 231.849 186.126 231.112 186.126ZM231.112 184.74C231.522 184.74 231.905 184.642 232.26 184.446C232.624 184.25 232.918 183.956 233.142 183.564C233.366 183.172 233.478 182.696 233.478 182.136C233.478 181.576 233.37 181.105 233.156 180.722C232.941 180.33 232.656 180.036 232.302 179.84C231.947 179.644 231.564 179.546 231.154 179.546C230.743 179.546 230.36 179.644 230.006 179.84C229.66 180.036 229.385 180.33 229.18 180.722C228.974 181.105 228.872 181.576 228.872 182.136C228.872 182.967 229.082 183.611 229.502 184.068C229.931 184.516 230.468 184.74 231.112 184.74ZM240.586 178.16C241.192 178.16 241.734 178.286 242.21 178.538C242.695 178.79 243.073 179.163 243.344 179.658C243.614 180.153 243.75 180.75 243.75 181.45V186H242.168V181.688C242.168 180.997 241.995 180.47 241.65 180.106C241.304 179.733 240.833 179.546 240.236 179.546C239.638 179.546 239.162 179.733 238.808 180.106C238.462 180.47 238.29 180.997 238.29 181.688V186H236.694V178.286H238.29V179.168C238.551 178.851 238.882 178.603 239.284 178.426C239.694 178.249 240.128 178.16 240.586 178.16ZM252.855 181.954C252.855 182.243 252.837 182.505 252.799 182.738H246.905C246.952 183.354 247.181 183.849 247.591 184.222C248.002 184.595 248.506 184.782 249.103 184.782C249.962 184.782 250.569 184.423 250.923 183.704H252.645C252.412 184.413 251.987 184.997 251.371 185.454C250.765 185.902 250.009 186.126 249.103 186.126C248.366 186.126 247.703 185.963 247.115 185.636C246.537 185.3 246.079 184.833 245.743 184.236C245.417 183.629 245.253 182.929 245.253 182.136C245.253 181.343 245.412 180.647 245.729 180.05C246.056 179.443 246.509 178.977 247.087 178.65C247.675 178.323 248.347 178.16 249.103 178.16C249.831 178.16 250.48 178.319 251.049 178.636C251.619 178.953 252.062 179.401 252.379 179.98C252.697 180.549 252.855 181.207 252.855 181.954ZM251.189 181.45C251.18 180.862 250.97 180.391 250.559 180.036C250.149 179.681 249.64 179.504 249.033 179.504C248.483 179.504 248.011 179.681 247.619 180.036C247.227 180.381 246.994 180.853 246.919 181.45H251.189Z" fill="white" fill-opacity="0.75"/>
<path d="M393.633 64.124L390.413 60.946L393.633 57.768H395.649L392.415 60.946L395.649 64.124H393.633ZM407.48 52.784L403.672 68.45H402.104L405.898 52.784H407.48ZM417.118 58.16C417.706 58.16 418.229 58.286 418.686 58.538C419.153 58.79 419.517 59.1633 419.778 59.658C420.049 60.1527 420.184 60.75 420.184 61.45V66H418.602V61.688C418.602 60.9973 418.429 60.47 418.084 60.106C417.739 59.7327 417.267 59.546 416.67 59.546C416.073 59.546 415.597 59.7327 415.242 60.106C414.897 60.47 414.724 60.9973 414.724 61.688V66H413.128V55.64H414.724V59.182C414.995 58.8553 415.335 58.6033 415.746 58.426C416.166 58.2487 416.623 58.16 417.118 58.16ZM421.8 57.25V55.794H424.712V66H423.102V57.25H421.8ZM431.269 57.768H433.285L436.505 60.946L433.285 64.124H431.269L434.503 60.946L431.269 57.768Z" fill="white" fill-opacity="0.75"/>
<path d="M395.882 103.124L392.662 99.946L395.882 96.768H397.898L394.664 99.946L397.898 103.124H395.882ZM409.729 91.784L405.921 107.45H404.353L408.147 91.784H409.729ZM416.973 98.42C417.244 98.0653 417.612 97.7667 418.079 97.524C418.546 97.2813 419.073 97.16 419.661 97.16C420.333 97.16 420.944 97.328 421.495 97.664C422.055 97.9907 422.494 98.4527 422.811 99.05C423.128 99.6473 423.287 100.333 423.287 101.108C423.287 101.883 423.128 102.578 422.811 103.194C422.494 103.801 422.055 104.277 421.495 104.622C420.944 104.958 420.333 105.126 419.661 105.126C419.073 105.126 418.55 105.009 418.093 104.776C417.636 104.533 417.262 104.235 416.973 103.88V108.668H415.377V97.286H416.973V98.42ZM421.663 101.108C421.663 100.576 421.551 100.119 421.327 99.736C421.112 99.344 420.823 99.05 420.459 98.854C420.104 98.6487 419.722 98.546 419.311 98.546C418.91 98.546 418.527 98.6487 418.163 98.854C417.808 99.0593 417.519 99.358 417.295 99.75C417.08 100.142 416.973 100.604 416.973 101.136C416.973 101.668 417.08 102.135 417.295 102.536C417.519 102.928 417.808 103.227 418.163 103.432C418.527 103.637 418.91 103.74 419.311 103.74C419.722 103.74 420.104 103.637 420.459 103.432C420.823 103.217 421.112 102.909 421.327 102.508C421.551 102.107 421.663 101.64 421.663 101.108ZM429.02 96.768H431.036L434.256 99.946L431.036 103.124H429.02L432.254 99.946L429.02 96.768Z" fill="white" fill-opacity="0.75"/>
<path d="M400.566 136.16C401.173 136.16 401.714 136.286 402.19 136.538C402.675 136.79 403.053 137.163 403.324 137.658C403.595 138.153 403.73 138.75 403.73 139.45V144H402.148V139.688C402.148 138.997 401.975 138.47 401.63 138.106C401.285 137.733 400.813 137.546 400.216 137.546C399.619 137.546 399.143 137.733 398.788 138.106C398.443 138.47 398.27 138.997 398.27 139.688V144H396.674V136.286H398.27V137.168C398.531 136.851 398.863 136.603 399.264 136.426C399.675 136.249 400.109 136.16 400.566 136.16ZM409.112 144.126C408.384 144.126 407.726 143.963 407.138 143.636C406.55 143.3 406.088 142.833 405.752 142.236C405.416 141.629 405.248 140.929 405.248 140.136C405.248 139.352 405.42 138.657 405.766 138.05C406.111 137.443 406.582 136.977 407.18 136.65C407.777 136.323 408.444 136.16 409.182 136.16C409.919 136.16 410.586 136.323 411.184 136.65C411.781 136.977 412.252 137.443 412.598 138.05C412.943 138.657 413.116 139.352 413.116 140.136C413.116 140.92 412.938 141.615 412.584 142.222C412.229 142.829 411.744 143.3 411.128 143.636C410.521 143.963 409.849 144.126 409.112 144.126ZM409.112 142.74C409.522 142.74 409.905 142.642 410.26 142.446C410.624 142.25 410.918 141.956 411.142 141.564C411.366 141.172 411.478 140.696 411.478 140.136C411.478 139.576 411.37 139.105 411.156 138.722C410.941 138.33 410.656 138.036 410.302 137.84C409.947 137.644 409.564 137.546 409.154 137.546C408.743 137.546 408.36 137.644 408.006 137.84C407.66 138.036 407.385 138.33 407.18 138.722C406.974 139.105 406.872 139.576 406.872 140.136C406.872 140.967 407.082 141.611 407.502 142.068C407.931 142.516 408.468 142.74 409.112 142.74ZM418.586 136.16C419.192 136.16 419.734 136.286 420.21 136.538C420.695 136.79 421.073 137.163 421.344 137.658C421.614 138.153 421.75 138.75 421.75 139.45V144H420.168V139.688C420.168 138.997 419.995 138.47 419.65 138.106C419.304 137.733 418.833 137.546 418.236 137.546C417.638 137.546 417.162 137.733 416.808 138.106C416.462 138.47 416.29 138.997 416.29 139.688V144H414.694V136.286H416.29V137.168C416.551 136.851 416.882 136.603 417.284 136.426C417.694 136.249 418.128 136.16 418.586 136.16ZM430.855 139.954C430.855 140.243 430.837 140.505 430.799 140.738H424.905C424.952 141.354 425.181 141.849 425.591 142.222C426.002 142.595 426.506 142.782 427.103 142.782C427.962 142.782 428.569 142.423 428.923 141.704H430.645C430.412 142.413 429.987 142.997 429.371 143.454C428.765 143.902 428.009 144.126 427.103 144.126C426.366 144.126 425.703 143.963 425.115 143.636C424.537 143.3 424.079 142.833 423.743 142.236C423.417 141.629 423.253 140.929 423.253 140.136C423.253 139.343 423.412 138.647 423.729 138.05C424.056 137.443 424.509 136.977 425.087 136.65C425.675 136.323 426.347 136.16 427.103 136.16C427.831 136.16 428.48 136.319 429.049 136.636C429.619 136.953 430.062 137.401 430.379 137.98C430.697 138.549 430.855 139.207 430.855 139.954ZM429.189 139.45C429.18 138.862 428.97 138.391 428.559 138.036C428.149 137.681 427.64 137.504 427.033 137.504C426.483 137.504 426.011 137.681 425.619 138.036C425.227 138.381 424.994 138.853 424.919 139.45H429.189Z" fill="white" fill-opacity="0.75"/>
<path d="M400.566 175.16C401.173 175.16 401.714 175.286 402.19 175.538C402.675 175.79 403.053 176.163 403.324 176.658C403.595 177.153 403.73 177.75 403.73 178.45V183H402.148V178.688C402.148 177.997 401.975 177.47 401.63 177.106C401.285 176.733 400.813 176.546 400.216 176.546C399.619 176.546 399.143 176.733 398.788 177.106C398.443 177.47 398.27 177.997 398.27 178.688V183H396.674V175.286H398.27V176.168C398.531 175.851 398.863 175.603 399.264 175.426C399.675 175.249 400.109 175.16 400.566 175.16ZM409.112 183.126C408.384 183.126 407.726 182.963 407.138 182.636C406.55 182.3 406.088 181.833 405.752 181.236C405.416 180.629 405.248 179.929 405.248 179.136C405.248 178.352 405.42 177.657 405.766 177.05C406.111 176.443 406.582 175.977 407.18 175.65C407.777 175.323 408.444 175.16 409.182 175.16C409.919 175.16 410.586 175.323 411.184 175.65C411.781 175.977 412.252 176.443 412.598 177.05C412.943 177.657 413.116 178.352 413.116 179.136C413.116 179.92 412.938 180.615 412.584 181.222C412.229 181.829 411.744 182.3 411.128 182.636C410.521 182.963 409.849 183.126 409.112 183.126ZM409.112 181.74C409.522 181.74 409.905 181.642 410.26 181.446C410.624 181.25 410.918 180.956 411.142 180.564C411.366 180.172 411.478 179.696 411.478 179.136C411.478 178.576 411.37 178.105 411.156 177.722C410.941 177.33 410.656 177.036 410.302 176.84C409.947 176.644 409.564 176.546 409.154 176.546C408.743 176.546 408.36 176.644 408.006 176.84C407.66 177.036 407.385 177.33 407.18 177.722C406.974 178.105 406.872 178.576 406.872 179.136C406.872 179.967 407.082 180.611 407.502 181.068C407.931 181.516 408.468 181.74 409.112 181.74ZM418.586 175.16C419.192 175.16 419.734 175.286 420.21 175.538C420.695 175.79 421.073 176.163 421.344 176.658C421.614 177.153 421.75 177.75 421.75 178.45V183H420.168V178.688C420.168 177.997 419.995 177.47 419.65 177.106C419.304 176.733 418.833 176.546 418.236 176.546C417.638 176.546 417.162 176.733 416.808 177.106C416.462 177.47 416.29 177.997 416.29 178.688V183H414.694V175.286H416.29V176.168C416.551 175.851 416.882 175.603 417.284 175.426C417.694 175.249 418.128 175.16 418.586 175.16ZM430.855 178.954C430.855 179.243 430.837 179.505 430.799 179.738H424.905C424.952 180.354 425.181 180.849 425.591 181.222C426.002 181.595 426.506 181.782 427.103 181.782C427.962 181.782 428.569 181.423 428.923 180.704H430.645C430.412 181.413 429.987 181.997 429.371 182.454C428.765 182.902 428.009 183.126 427.103 183.126C426.366 183.126 425.703 182.963 425.115 182.636C424.537 182.3 424.079 181.833 423.743 181.236C423.417 180.629 423.253 179.929 423.253 179.136C423.253 178.343 423.412 177.647 423.729 177.05C424.056 176.443 424.509 175.977 425.087 175.65C425.675 175.323 426.347 175.16 427.103 175.16C427.831 175.16 428.48 175.319 429.049 175.636C429.619 175.953 430.062 176.401 430.379 176.98C430.697 177.549 430.855 178.207 430.855 178.954ZM429.189 178.45C429.18 177.862 428.97 177.391 428.559 177.036C428.149 176.681 427.64 176.504 427.033 176.504C426.483 176.504 426.011 176.681 425.619 177.036C425.227 177.381 424.994 177.853 424.919 178.45H429.189Z" fill="white" fill-opacity="0.75"/>
<defs>
<filter id="filter0_d_164_23" x="0" y="0" width="491" height="49" filterUnits="userSpaceOnUse" color-interpolation-filters="sRGB">
<feFlood flood-opacity="0" result="BackgroundImageFix"/>
<feColorMatrix in="SourceAlpha" type="matrix" values="0 0 0 0 0 0 0 0 0 0 0 0 0 0 0 0 0 0 127 0" result="hardAlpha"/>
<feOffset dy="4"/>
<feGaussianBlur stdDeviation="2"/>
<feComposite in2="hardAlpha" operator="out"/>
<feColorMatrix type="matrix" values="0 0 0 0 0 0 0 0 0 0 0 0 0 0 0 0 0 0 0.25 0"/>
<feBlend mode="normal" in2="BackgroundImageFix" result="effect1_dropShadow_164_23"/>
<feBlend mode="normal" in="SourceGraphic" in2="effect1_dropShadow_164_23" result="shape"/>
</filter>
</defs>
</svg>
