<svg width="42" height="47" viewBox="0 0 42 47" fill="none" xmlns="http://www.w3.org/2000/svg">
<path d="M41.2448 0.624023H0.27832L3.893 41.5903L20.7615 46.4098L37.63 41.5903L41.2448 0.624023Z" fill="#E65100"/>
<path d="M20.7617 4.23859V42.6747L34.2564 38.819L37.2686 4.23859H20.7617Z" fill="#FF6D00"/>
<path fill-rule="evenodd" clip-rule="evenodd" d="M20.7617 24.7223V19.9027H31.1237L30.2805 33.759L20.7617 36.8917V31.831L25.7016 30.1442L26.0634 24.7223H20.7617ZM31.4851 15.083L31.8468 10.2634H20.7617V15.083H31.4851Z" fill="white"/>
<path fill-rule="evenodd" clip-rule="evenodd" d="M20.7614 31.831V36.8917L11.2427 33.759L10.7608 27.132H15.5803L15.8213 30.1442L20.7614 31.831ZM14.8574 15.083H20.7614V10.2634H9.79688L10.6403 24.7221H20.7614V19.9026H15.2189L14.8574 15.083Z" fill="#EEEEEE"/>
</svg>
