<svg width="935" height="160" viewBox="0 0 935 160" fill="none" xmlns="http://www.w3.org/2000/svg">
<rect x="4" width="912" height="160" rx="12" fill="#242526"/>
<path d="M30.676 101.525C30.6 101.525 30.5177 101.5 30.429 101.449C30.353 101.398 30.2833 101.36 30.22 101.335L24.235 97.212C24.045 97.0853 23.9057 96.9587 23.817 96.832C23.7283 96.6927 23.684 96.5343 23.684 96.357V96.015C23.684 95.8377 23.7283 95.6857 23.817 95.559C23.9057 95.4323 24.045 95.2993 24.235 95.16L30.22 91.056C30.2833 91.018 30.353 90.9737 30.429 90.923C30.5177 90.8723 30.6 90.847 30.676 90.847C30.7773 90.847 30.866 90.885 30.942 90.961C31.018 91.0243 31.056 91.1193 31.056 91.246V92.082C31.056 92.2213 31.018 92.3417 30.942 92.443C30.866 92.5317 30.7583 92.6203 30.619 92.709L25.527 96.186L30.619 99.663C30.7583 99.7643 30.866 99.8593 30.942 99.948C31.018 100.037 31.056 100.157 31.056 100.309V101.145C31.056 101.259 31.018 101.354 30.942 101.43C30.866 101.493 30.7773 101.525 30.676 101.525ZM722.866 101.506C722.765 101.506 722.676 101.474 722.6 101.411C722.524 101.348 722.486 101.253 722.486 101.126V100.29C722.486 100.138 722.518 100.018 722.581 99.929C722.657 99.8403 722.771 99.7517 722.923 99.663L727.996 96.186L722.923 92.709C722.771 92.6077 722.657 92.5127 722.581 92.424C722.518 92.3353 722.486 92.215 722.486 92.063V91.227C722.486 91.1003 722.524 91.0053 722.6 90.942C722.676 90.8787 722.765 90.847 722.866 90.847C722.942 90.847 723.025 90.8723 723.113 90.923C723.202 90.961 723.272 90.999 723.322 91.037L729.288 95.141C729.491 95.2803 729.63 95.4133 729.706 95.54C729.795 95.6667 729.839 95.825 729.839 96.015V96.338C729.839 96.5153 729.795 96.6737 729.706 96.813C729.63 96.9397 729.491 97.0727 729.288 97.212L723.322 101.316C723.272 101.354 723.202 101.398 723.113 101.449C723.025 101.487 722.942 101.506 722.866 101.506Z" fill="#647DFF"/>
<path d="M38.8518 102C38.7251 102 38.6175 101.962 38.5288 101.886C38.4528 101.797 38.4148 101.69 38.4148 101.563V92.557C38.4148 92.4303 38.4528 92.329 38.5288 92.253C38.6175 92.1643 38.7251 92.12 38.8518 92.12H39.7638C39.8905 92.12 39.9918 92.1643 40.0678 92.253C40.1438 92.329 40.1818 92.4303 40.1818 92.557V101.563C40.1818 101.69 40.1438 101.797 40.0678 101.886C39.9918 101.962 39.8905 102 39.7638 102H38.8518ZM38.6998 90.277C38.5731 90.277 38.4655 90.239 38.3768 90.163C38.3008 90.0743 38.2628 89.9667 38.2628 89.84V88.814C38.2628 88.6873 38.3008 88.586 38.3768 88.51C38.4655 88.4213 38.5731 88.377 38.6998 88.377H39.8968C40.0235 88.377 40.1248 88.4213 40.2008 88.51C40.2895 88.586 40.3338 88.6873 40.3338 88.814V89.84C40.3338 89.9667 40.2895 90.0743 40.2008 90.163C40.1248 90.239 40.0235 90.277 39.8968 90.277H38.6998ZM43.6389 102C43.5122 102 43.4046 101.962 43.3159 101.886C43.2399 101.797 43.2019 101.69 43.2019 101.563V92.557C43.2019 92.4303 43.2399 92.329 43.3159 92.253C43.4046 92.1643 43.5122 92.12 43.6389 92.12H44.4939C44.6206 92.12 44.7219 92.1643 44.7979 92.253C44.8866 92.329 44.9309 92.4303 44.9309 92.557V93.222C45.2222 92.8293 45.5896 92.519 46.0329 92.291C46.4762 92.0503 47.0082 91.93 47.6289 91.93C49.0602 91.9173 50.0736 92.5 50.6689 93.678C50.9602 93.146 51.3846 92.7217 51.9419 92.405C52.4992 92.0883 53.1326 91.93 53.8419 91.93C54.5006 91.93 55.0959 92.082 55.6279 92.386C56.1726 92.69 56.5969 93.1523 56.9009 93.773C57.2176 94.381 57.3759 95.1473 57.3759 96.072V101.563C57.3759 101.69 57.3316 101.797 57.2429 101.886C57.1669 101.962 57.0656 102 56.9389 102H56.0459C55.9192 102 55.8116 101.962 55.7229 101.886C55.6469 101.797 55.6089 101.69 55.6089 101.563V96.243C55.6089 95.5337 55.5076 94.9763 55.3049 94.571C55.1022 94.1657 54.8299 93.8807 54.4879 93.716C54.1459 93.5513 53.7722 93.469 53.3669 93.469C53.0376 93.469 52.7019 93.5513 52.3599 93.716C52.0179 93.8807 51.7329 94.1657 51.5049 94.571C51.2896 94.9763 51.1819 95.5337 51.1819 96.243V101.563C51.1819 101.69 51.1376 101.797 51.0489 101.886C50.9729 101.962 50.8716 102 50.7449 102H49.8519C49.7252 102 49.6176 101.962 49.5289 101.886C49.4529 101.797 49.4149 101.69 49.4149 101.563V96.243C49.4149 95.5337 49.3072 94.9763 49.0919 94.571C48.8766 94.1657 48.5979 93.8807 48.2559 93.716C47.9139 93.5513 47.5529 93.469 47.1729 93.469C46.8436 93.469 46.5079 93.5513 46.1659 93.716C45.8239 93.8807 45.5389 94.1657 45.3109 94.571C45.0956 94.9763 44.9879 95.5273 44.9879 96.224V101.563C44.9879 101.69 44.9436 101.797 44.8549 101.886C44.7789 101.962 44.6776 102 44.5509 102H43.6389ZM64.1337 106.18C63.2723 106.18 62.563 106.066 62.0057 105.838C61.461 105.61 61.0303 105.331 60.7137 105.002C60.4097 104.685 60.188 104.362 60.0487 104.033C59.922 103.716 59.8523 103.463 59.8397 103.273C59.827 103.146 59.865 103.039 59.9537 102.95C60.055 102.861 60.1627 102.817 60.2767 102.817H61.1887C61.3027 102.817 61.3977 102.842 61.4737 102.893C61.5497 102.944 61.613 103.051 61.6637 103.216C61.7397 103.406 61.8537 103.615 62.0057 103.843C62.1577 104.084 62.392 104.286 62.7087 104.451C63.0253 104.628 63.4687 104.717 64.0387 104.717C64.634 104.717 65.1343 104.635 65.5397 104.47C65.945 104.318 66.249 104.039 66.4517 103.634C66.667 103.241 66.7747 102.697 66.7747 102V100.708C66.4707 101.101 66.0717 101.43 65.5777 101.696C65.0837 101.949 64.463 102.076 63.7157 102.076C63.0063 102.076 62.3983 101.956 61.8917 101.715C61.385 101.462 60.967 101.126 60.6377 100.708C60.321 100.277 60.0803 99.7897 59.9157 99.245C59.7637 98.7003 59.675 98.1303 59.6497 97.535C59.637 97.1803 59.637 96.832 59.6497 96.49C59.675 95.8947 59.7637 95.3247 59.9157 94.78C60.0803 94.2353 60.321 93.7477 60.6377 93.317C60.967 92.8863 61.385 92.5507 61.8917 92.31C62.3983 92.0567 63.0063 91.93 63.7157 91.93C64.4757 91.93 65.1027 92.0757 65.5967 92.367C66.1033 92.6457 66.515 92.9877 66.8317 93.393V92.576C66.8317 92.4493 66.8697 92.3417 66.9457 92.253C67.0343 92.1643 67.142 92.12 67.2687 92.12H68.1427C68.2693 92.12 68.377 92.1643 68.4657 92.253C68.5543 92.3417 68.5987 92.4493 68.5987 92.576V101.791C68.5987 102.64 68.453 103.393 68.1617 104.052C67.883 104.711 67.4143 105.23 66.7557 105.61C66.1097 105.99 65.2357 106.18 64.1337 106.18ZM64.0957 100.556C64.729 100.556 65.2357 100.41 65.6157 100.119C66.0083 99.8277 66.2933 99.4603 66.4707 99.017C66.6607 98.5737 66.762 98.124 66.7747 97.668C66.7873 97.4907 66.7937 97.2753 66.7937 97.022C66.7937 96.756 66.7873 96.5343 66.7747 96.357C66.762 95.901 66.6607 95.4513 66.4707 95.008C66.2933 94.5647 66.0083 94.1973 65.6157 93.906C65.2357 93.6147 64.729 93.469 64.0957 93.469C63.4623 93.469 62.9557 93.6147 62.5757 93.906C62.1957 94.1847 61.9233 94.5583 61.7587 95.027C61.594 95.483 61.499 95.977 61.4737 96.509C61.461 96.8383 61.461 97.174 61.4737 97.516C61.499 98.048 61.594 98.5483 61.7587 99.017C61.9233 99.473 62.1957 99.8467 62.5757 100.138C62.9557 100.417 63.4623 100.556 64.0957 100.556ZM79.5008 102.19C78.7915 102.19 78.1835 102.101 77.6768 101.924C77.1701 101.747 76.7585 101.531 76.4418 101.278C76.1251 101.025 75.8845 100.771 75.7198 100.518C75.5678 100.265 75.4855 100.062 75.4728 99.91C75.4601 99.7707 75.5045 99.663 75.6058 99.587C75.7071 99.511 75.8085 99.473 75.9098 99.473H76.7458C76.8218 99.473 76.8788 99.4857 76.9168 99.511C76.9675 99.5237 77.0308 99.5743 77.1068 99.663C77.2715 99.8403 77.4551 100.018 77.6578 100.195C77.8605 100.372 78.1075 100.518 78.3988 100.632C78.7028 100.746 79.0765 100.803 79.5198 100.803C80.1658 100.803 80.6978 100.683 81.1158 100.442C81.5338 100.189 81.7428 99.8213 81.7428 99.34C81.7428 99.0233 81.6541 98.77 81.4768 98.58C81.3121 98.39 81.0081 98.219 80.5648 98.067C80.1341 97.915 79.5388 97.7567 78.7788 97.592C78.0188 97.4147 77.4171 97.1993 76.9738 96.946C76.5305 96.68 76.2138 96.3697 76.0238 96.015C75.8338 95.6477 75.7388 95.236 75.7388 94.78C75.7388 94.3113 75.8781 93.8617 76.1568 93.431C76.4355 92.9877 76.8408 92.6267 77.3728 92.348C77.9175 92.0693 78.5951 91.93 79.4058 91.93C80.0645 91.93 80.6281 92.0123 81.0968 92.177C81.5655 92.3417 81.9518 92.5507 82.2558 92.804C82.5598 93.0447 82.7878 93.2853 82.9398 93.526C83.0918 93.7667 83.1741 93.9693 83.1868 94.134C83.1995 94.2607 83.1615 94.3683 83.0728 94.457C82.9841 94.533 82.8828 94.571 82.7688 94.571H81.9708C81.8821 94.571 81.8061 94.552 81.7428 94.514C81.6921 94.476 81.6415 94.4317 81.5908 94.381C81.4641 94.2163 81.3121 94.0517 81.1348 93.887C80.9701 93.7223 80.7485 93.5893 80.4698 93.488C80.2038 93.374 79.8491 93.317 79.4058 93.317C78.7725 93.317 78.2975 93.45 77.9808 93.716C77.6641 93.982 77.5058 94.3177 77.5058 94.723C77.5058 94.9637 77.5755 95.179 77.7148 95.369C77.8541 95.559 78.1201 95.73 78.5128 95.882C78.9055 96.034 79.4881 96.1987 80.2608 96.376C81.0968 96.5407 81.7555 96.7623 82.2368 97.041C82.7181 97.3197 83.0601 97.6427 83.2628 98.01C83.4655 98.3773 83.5668 98.8017 83.5668 99.283C83.5668 99.815 83.4085 100.303 83.0918 100.746C82.7878 101.189 82.3318 101.544 81.7238 101.81C81.1285 102.063 80.3875 102.19 79.5008 102.19ZM86.2034 102C86.0767 102 85.969 101.962 85.8804 101.886C85.8044 101.797 85.7664 101.69 85.7664 101.563V92.576C85.7664 92.4493 85.8044 92.3417 85.8804 92.253C85.969 92.1643 86.0767 92.12 86.2034 92.12H87.0774C87.204 92.12 87.3117 92.1643 87.4004 92.253C87.489 92.3417 87.5334 92.4493 87.5334 92.576V93.412C87.7867 92.9813 88.135 92.6583 88.5784 92.443C89.0217 92.2277 89.5537 92.12 90.1744 92.12H90.9344C91.061 92.12 91.1624 92.1643 91.2384 92.253C91.3144 92.329 91.3524 92.4303 91.3524 92.557V93.336C91.3524 93.4627 91.3144 93.564 91.2384 93.64C91.1624 93.716 91.061 93.754 90.9344 93.754H89.7944C89.1104 93.754 88.572 93.9567 88.1794 94.362C87.7867 94.7547 87.5904 95.293 87.5904 95.977V101.563C87.5904 101.69 87.546 101.797 87.4574 101.886C87.3687 101.962 87.261 102 87.1344 102H86.2034ZM96.7886 102.19C95.8892 102.19 95.1102 102.019 94.4516 101.677C93.8056 101.322 93.3052 100.822 92.9506 100.176C92.5959 99.5173 92.4059 98.732 92.3806 97.82C92.3679 97.63 92.3616 97.3767 92.3616 97.06C92.3616 96.7433 92.3679 96.49 92.3806 96.3C92.4059 95.388 92.5959 94.609 92.9506 93.963C93.3052 93.3043 93.8056 92.804 94.4516 92.462C95.1102 92.1073 95.8892 91.93 96.7886 91.93C97.5232 91.93 98.1502 92.0313 98.6696 92.234C99.2016 92.4367 99.6386 92.6963 99.9806 93.013C100.323 93.3297 100.576 93.6717 100.741 94.039C100.918 94.4063 101.013 94.7547 101.026 95.084C101.038 95.2107 101 95.312 100.912 95.388C100.823 95.464 100.715 95.502 100.589 95.502H99.6766C99.5499 95.502 99.4549 95.4767 99.3916 95.426C99.3282 95.3627 99.2649 95.2613 99.2016 95.122C98.9736 94.5013 98.6632 94.0643 98.2706 93.811C97.8779 93.5577 97.3902 93.431 96.8076 93.431C96.0476 93.431 95.4269 93.6653 94.9456 94.134C94.4769 94.6027 94.2236 95.3563 94.1856 96.395C94.1729 96.851 94.1729 97.2943 94.1856 97.725C94.2236 98.7763 94.4769 99.5363 94.9456 100.005C95.4269 100.461 96.0476 100.689 96.8076 100.689C97.3902 100.689 97.8779 100.562 98.2706 100.309C98.6632 100.056 98.9736 99.6187 99.2016 98.998C99.2649 98.8587 99.3282 98.7637 99.3916 98.713C99.4549 98.6497 99.5499 98.618 99.6766 98.618H100.589C100.715 98.618 100.823 98.656 100.912 98.732C101 98.808 101.038 98.9093 101.026 99.036C101.013 99.302 100.956 99.5743 100.855 99.853C100.753 100.132 100.589 100.417 100.361 100.708C100.145 100.987 99.8729 101.24 99.5436 101.468C99.2142 101.683 98.8152 101.861 98.3466 102C97.8906 102.127 97.3712 102.19 96.7886 102.19ZM108.319 94.666C108.193 94.666 108.091 94.628 108.015 94.552C107.939 94.476 107.901 94.3747 107.901 94.248V93.602C107.901 93.4753 107.939 93.374 108.015 93.298C108.091 93.222 108.193 93.184 108.319 93.184H115.558C115.685 93.184 115.786 93.222 115.862 93.298C115.951 93.374 115.995 93.4753 115.995 93.602V94.248C115.995 94.3747 115.951 94.476 115.862 94.552C115.786 94.628 115.685 94.666 115.558 94.666H108.319ZM108.319 99.416C108.193 99.416 108.091 99.378 108.015 99.302C107.939 99.226 107.901 99.1247 107.901 98.998V98.352C107.901 98.2253 107.939 98.124 108.015 98.048C108.091 97.972 108.193 97.934 108.319 97.934H115.558C115.685 97.934 115.786 97.972 115.862 98.048C115.951 98.124 115.995 98.2253 115.995 98.352V98.998C115.995 99.1247 115.951 99.226 115.862 99.302C115.786 99.378 115.685 99.416 115.558 99.416H108.319ZM126.339 92.177C126.251 92.177 126.175 92.1453 126.111 92.082C126.061 92.0187 126.035 91.9427 126.035 91.854C126.035 91.7527 126.054 91.6513 126.092 91.55L127.099 88.947C127.163 88.8203 127.226 88.719 127.289 88.643C127.365 88.5543 127.486 88.51 127.65 88.51H128.277C128.379 88.51 128.455 88.548 128.505 88.624C128.569 88.7 128.588 88.8013 128.562 88.928L128.144 91.626C128.132 91.778 128.081 91.911 127.992 92.025C127.904 92.1263 127.771 92.177 127.593 92.177H126.339ZM123.299 92.177C123.211 92.177 123.135 92.1453 123.071 92.082C123.021 92.0187 122.995 91.9427 122.995 91.854C122.995 91.7527 123.014 91.6513 123.052 91.55L124.059 88.947C124.123 88.8203 124.192 88.719 124.268 88.643C124.344 88.5543 124.458 88.51 124.61 88.51H125.237C125.339 88.51 125.415 88.548 125.465 88.624C125.529 88.7 125.548 88.8013 125.522 88.928L125.104 91.626C125.092 91.778 125.041 91.911 124.952 92.025C124.864 92.1263 124.737 92.177 124.572 92.177H123.299ZM238.354 92.177C238.265 92.177 238.189 92.1453 238.126 92.082C238.075 92.0187 238.05 91.9427 238.05 91.854C238.05 91.7527 238.069 91.6513 238.107 91.55L239.114 88.947C239.177 88.8203 239.241 88.719 239.304 88.643C239.38 88.5543 239.5 88.51 239.665 88.51H240.292C240.393 88.51 240.469 88.548 240.52 88.624C240.583 88.7 240.602 88.8013 240.577 88.928L240.159 91.626C240.146 91.778 240.096 91.911 240.007 92.025C239.918 92.1263 239.785 92.177 239.608 92.177H238.354ZM235.314 92.177C235.225 92.177 235.149 92.1453 235.086 92.082C235.035 92.0187 235.01 91.9427 235.01 91.854C235.01 91.7527 235.029 91.6513 235.067 91.55L236.074 88.947C236.137 88.8203 236.207 88.719 236.283 88.643C236.359 88.5543 236.473 88.51 236.625 88.51H237.252C237.353 88.51 237.429 88.548 237.48 88.624C237.543 88.7 237.562 88.8013 237.537 88.928L237.119 91.626C237.106 91.778 237.056 91.911 236.967 92.025C236.878 92.1263 236.752 92.177 236.587 92.177H235.314ZM249.777 102C249.612 102 249.486 101.962 249.397 101.886C249.308 101.797 249.232 101.677 249.169 101.525L246.471 92.709C246.446 92.6457 246.433 92.5823 246.433 92.519C246.433 92.405 246.471 92.31 246.547 92.234C246.636 92.158 246.731 92.12 246.832 92.12H247.668C247.807 92.12 247.915 92.158 247.991 92.234C248.067 92.31 248.118 92.3797 248.143 92.443L250.252 99.606L252.513 92.519C252.538 92.4303 252.589 92.3417 252.665 92.253C252.754 92.1643 252.88 92.12 253.045 92.12H253.691C253.856 92.12 253.982 92.1643 254.071 92.253C254.16 92.3417 254.21 92.4303 254.223 92.519L256.484 99.606L258.593 92.443C258.606 92.3797 258.65 92.31 258.726 92.234C258.802 92.158 258.91 92.12 259.049 92.12H259.885C259.999 92.12 260.094 92.158 260.17 92.234C260.246 92.31 260.284 92.405 260.284 92.519C260.284 92.5823 260.271 92.6457 260.246 92.709L257.548 101.525C257.51 101.677 257.44 101.797 257.339 101.886C257.25 101.962 257.117 102 256.94 102H256.199C256.034 102 255.895 101.962 255.781 101.886C255.68 101.797 255.61 101.677 255.572 101.525L253.368 94.723L251.164 101.525C251.113 101.677 251.037 101.797 250.936 101.886C250.835 101.962 250.695 102 250.518 102H249.777ZM262.825 102C262.699 102 262.591 101.962 262.502 101.886C262.426 101.797 262.388 101.69 262.388 101.563V92.557C262.388 92.4303 262.426 92.329 262.502 92.253C262.591 92.1643 262.699 92.12 262.825 92.12H263.737C263.864 92.12 263.965 92.1643 264.041 92.253C264.117 92.329 264.155 92.4303 264.155 92.557V101.563C264.155 101.69 264.117 101.797 264.041 101.886C263.965 101.962 263.864 102 263.737 102H262.825ZM262.673 90.277C262.547 90.277 262.439 90.239 262.35 90.163C262.274 90.0743 262.236 89.9667 262.236 89.84V88.814C262.236 88.6873 262.274 88.586 262.35 88.51C262.439 88.4213 262.547 88.377 262.673 88.377H263.87C263.997 88.377 264.098 88.4213 264.174 88.51C264.263 88.586 264.307 88.6873 264.307 88.814V89.84C264.307 89.9667 264.263 90.0743 264.174 90.163C264.098 90.239 263.997 90.277 263.87 90.277H262.673ZM270.6 102.19C269.903 102.19 269.302 102.07 268.795 101.829C268.288 101.576 267.87 101.24 267.541 100.822C267.224 100.391 266.984 99.9037 266.819 99.359C266.667 98.8143 266.578 98.238 266.553 97.63C266.54 97.4273 266.534 97.2373 266.534 97.06C266.534 96.8827 266.54 96.6927 266.553 96.49C266.578 95.8947 266.667 95.3247 266.819 94.78C266.984 94.2353 267.224 93.7477 267.541 93.317C267.87 92.8863 268.288 92.5507 268.795 92.31C269.302 92.0567 269.903 91.93 270.6 91.93C271.347 91.93 271.968 92.063 272.462 92.329C272.956 92.595 273.361 92.9243 273.678 93.317V88.947C273.678 88.8203 273.716 88.719 273.792 88.643C273.881 88.5543 273.988 88.51 274.115 88.51H275.027C275.154 88.51 275.255 88.5543 275.331 88.643C275.42 88.719 275.464 88.8203 275.464 88.947V101.563C275.464 101.69 275.42 101.797 275.331 101.886C275.255 101.962 275.154 102 275.027 102H274.172C274.033 102 273.925 101.962 273.849 101.886C273.773 101.797 273.735 101.69 273.735 101.563V100.765C273.418 101.17 273.007 101.512 272.5 101.791C271.993 102.057 271.36 102.19 270.6 102.19ZM270.999 100.651C271.632 100.651 272.139 100.505 272.519 100.214C272.899 99.9227 273.184 99.5553 273.374 99.112C273.564 98.656 273.665 98.1937 273.678 97.725C273.691 97.5223 273.697 97.2817 273.697 97.003C273.697 96.7117 273.691 96.4647 273.678 96.262C273.665 95.8187 273.558 95.3817 273.355 94.951C273.165 94.5203 272.874 94.1657 272.481 93.887C272.101 93.6083 271.607 93.469 270.999 93.469C270.353 93.469 269.84 93.6147 269.46 93.906C269.08 94.1847 268.808 94.5583 268.643 95.027C268.478 95.483 268.383 95.977 268.358 96.509C268.345 96.8763 268.345 97.2437 268.358 97.611C268.383 98.143 268.478 98.6433 268.643 99.112C268.808 99.568 269.08 99.9417 269.46 100.233C269.84 100.512 270.353 100.651 270.999 100.651ZM282.147 102C281.437 102 280.861 101.867 280.418 101.601C279.974 101.322 279.651 100.936 279.449 100.442C279.246 99.9353 279.145 99.34 279.145 98.656V93.64H277.663C277.536 93.64 277.428 93.602 277.34 93.526C277.264 93.4373 277.226 93.3297 277.226 93.203V92.557C277.226 92.4303 277.264 92.329 277.34 92.253C277.428 92.1643 277.536 92.12 277.663 92.12H279.145V88.947C279.145 88.8203 279.183 88.719 279.259 88.643C279.347 88.5543 279.455 88.51 279.582 88.51H280.475C280.601 88.51 280.703 88.5543 280.779 88.643C280.867 88.719 280.912 88.8203 280.912 88.947V92.12H283.268C283.394 92.12 283.496 92.1643 283.572 92.253C283.66 92.329 283.705 92.4303 283.705 92.557V93.203C283.705 93.3297 283.66 93.4373 283.572 93.526C283.496 93.602 283.394 93.64 283.268 93.64H280.912V98.523C280.912 99.1183 281.013 99.587 281.216 99.929C281.418 100.271 281.779 100.442 282.299 100.442H283.458C283.584 100.442 283.686 100.486 283.762 100.575C283.85 100.651 283.895 100.752 283.895 100.879V101.563C283.895 101.69 283.85 101.797 283.762 101.886C283.686 101.962 283.584 102 283.458 102H282.147ZM286.168 102C286.041 102 285.933 101.962 285.845 101.886C285.769 101.797 285.731 101.69 285.731 101.563V88.947C285.731 88.8203 285.769 88.719 285.845 88.643C285.933 88.5543 286.041 88.51 286.168 88.51H287.118C287.257 88.51 287.365 88.5543 287.441 88.643C287.517 88.719 287.555 88.8203 287.555 88.947V93.374C287.897 92.9433 288.315 92.595 288.809 92.329C289.303 92.063 289.93 91.93 290.69 91.93C291.513 91.93 292.21 92.1137 292.78 92.481C293.362 92.8357 293.799 93.336 294.091 93.982C294.395 94.6153 294.547 95.3563 294.547 96.205V101.563C294.547 101.69 294.509 101.797 294.433 101.886C294.357 101.962 294.249 102 294.11 102H293.16C293.033 102 292.925 101.962 292.837 101.886C292.761 101.797 292.723 101.69 292.723 101.563V96.3C292.723 95.4133 292.507 94.723 292.077 94.229C291.646 93.7223 291.013 93.469 290.177 93.469C289.391 93.469 288.758 93.7223 288.277 94.229C287.795 94.723 287.555 95.4133 287.555 96.3V101.563C287.555 101.69 287.517 101.797 287.441 101.886C287.365 101.962 287.257 102 287.118 102H286.168ZM302.327 94.666C302.2 94.666 302.099 94.628 302.023 94.552C301.947 94.476 301.909 94.3747 301.909 94.248V93.602C301.909 93.4753 301.947 93.374 302.023 93.298C302.099 93.222 302.2 93.184 302.327 93.184H309.566C309.693 93.184 309.794 93.222 309.87 93.298C309.959 93.374 310.003 93.4753 310.003 93.602V94.248C310.003 94.3747 309.959 94.476 309.87 94.552C309.794 94.628 309.693 94.666 309.566 94.666H302.327ZM302.327 99.416C302.2 99.416 302.099 99.378 302.023 99.302C301.947 99.226 301.909 99.1247 301.909 98.998V98.352C301.909 98.2253 301.947 98.124 302.023 98.048C302.099 97.972 302.2 97.934 302.327 97.934H309.566C309.693 97.934 309.794 97.972 309.87 98.048C309.959 98.124 310.003 98.2253 310.003 98.352V98.998C310.003 99.1247 309.959 99.226 309.87 99.302C309.794 99.378 309.693 99.416 309.566 99.416H302.327ZM320.461 92.177C320.347 92.177 320.265 92.139 320.214 92.063C320.164 91.987 320.145 91.892 320.157 91.778L320.575 89.061C320.601 88.909 320.651 88.7823 320.727 88.681C320.816 88.567 320.949 88.51 321.126 88.51H322.38C322.482 88.51 322.558 88.548 322.608 88.624C322.672 88.6873 322.703 88.757 322.703 88.833C322.703 88.9343 322.678 89.0357 322.627 89.137L321.639 91.74C321.589 91.8667 321.519 91.9743 321.43 92.063C321.354 92.139 321.234 92.177 321.069 92.177H320.461ZM317.421 92.177C317.32 92.177 317.238 92.139 317.174 92.063C317.124 91.987 317.105 91.892 317.117 91.778L317.554 89.061C317.58 88.909 317.63 88.7823 317.706 88.681C317.795 88.567 317.922 88.51 318.086 88.51H319.359C319.448 88.51 319.518 88.548 319.568 88.624C319.632 88.6873 319.663 88.757 319.663 88.833C319.663 88.9343 319.638 89.0357 319.587 89.137L318.599 91.74C318.549 91.8667 318.479 91.9743 318.39 92.063C318.314 92.139 318.194 92.177 318.029 92.177H317.421ZM371.781 92.177C371.692 92.177 371.616 92.1453 371.553 92.082C371.502 92.0187 371.477 91.9427 371.477 91.854C371.477 91.7527 371.496 91.6513 371.534 91.55L372.541 88.947C372.604 88.8203 372.667 88.719 372.731 88.643C372.807 88.5543 372.927 88.51 373.092 88.51H373.719C373.82 88.51 373.896 88.548 373.947 88.624C374.01 88.7 374.029 88.8013 374.004 88.928L373.586 91.626C373.573 91.778 373.522 91.911 373.434 92.025C373.345 92.1263 373.212 92.177 373.035 92.177H371.781ZM368.741 92.177C368.652 92.177 368.576 92.1453 368.513 92.082C368.462 92.0187 368.437 91.9427 368.437 91.854C368.437 91.7527 368.456 91.6513 368.494 91.55L369.501 88.947C369.564 88.8203 369.634 88.719 369.71 88.643C369.786 88.5543 369.9 88.51 370.052 88.51H370.679C370.78 88.51 370.856 88.548 370.907 88.624C370.97 88.7 370.989 88.8013 370.964 88.928L370.546 91.626C370.533 91.778 370.482 91.911 370.394 92.025C370.305 92.1263 370.178 92.177 370.014 92.177H368.741ZM381.483 102C381.356 102 381.249 101.962 381.16 101.886C381.084 101.797 381.046 101.69 381.046 101.563V88.947C381.046 88.8203 381.084 88.719 381.16 88.643C381.249 88.5543 381.356 88.51 381.483 88.51H382.433C382.572 88.51 382.68 88.5543 382.756 88.643C382.832 88.719 382.87 88.8203 382.87 88.947V93.374C383.212 92.9433 383.63 92.595 384.124 92.329C384.618 92.063 385.245 91.93 386.005 91.93C386.828 91.93 387.525 92.1137 388.095 92.481C388.678 92.8357 389.115 93.336 389.406 93.982C389.71 94.6153 389.862 95.3563 389.862 96.205V101.563C389.862 101.69 389.824 101.797 389.748 101.886C389.672 101.962 389.564 102 389.425 102H388.475C388.348 102 388.241 101.962 388.152 101.886C388.076 101.797 388.038 101.69 388.038 101.563V96.3C388.038 95.4133 387.823 94.723 387.392 94.229C386.961 93.7223 386.328 93.469 385.492 93.469C384.707 93.469 384.073 93.7223 383.592 94.229C383.111 94.723 382.87 95.4133 382.87 96.3V101.563C382.87 101.69 382.832 101.797 382.756 101.886C382.68 101.962 382.572 102 382.433 102H381.483ZM396.538 102.19C395.234 102.19 394.195 101.791 393.422 100.993C392.65 100.182 392.225 99.0803 392.149 97.687C392.137 97.5223 392.13 97.3133 392.13 97.06C392.13 96.794 392.137 96.5787 392.149 96.414C392.2 95.5147 392.409 94.7293 392.776 94.058C393.144 93.374 393.644 92.8483 394.277 92.481C394.923 92.1137 395.677 91.93 396.538 91.93C397.501 91.93 398.305 92.1327 398.951 92.538C399.61 92.9433 400.11 93.5197 400.452 94.267C400.794 95.0143 400.965 95.8883 400.965 96.889V97.212C400.965 97.3513 400.921 97.459 400.832 97.535C400.756 97.611 400.655 97.649 400.528 97.649H393.954C393.954 97.6617 393.954 97.687 393.954 97.725C393.954 97.763 393.954 97.7947 393.954 97.82C393.98 98.3393 394.094 98.827 394.296 99.283C394.499 99.7263 394.79 100.087 395.17 100.366C395.55 100.645 396.006 100.784 396.538 100.784C396.994 100.784 397.374 100.714 397.678 100.575C397.982 100.436 398.229 100.284 398.419 100.119C398.609 99.9417 398.736 99.8087 398.799 99.72C398.913 99.5553 399.002 99.4603 399.065 99.435C399.129 99.397 399.23 99.378 399.369 99.378H400.281C400.408 99.378 400.509 99.416 400.585 99.492C400.674 99.5553 400.712 99.6503 400.699 99.777C400.687 99.967 400.585 100.201 400.395 100.48C400.205 100.746 399.933 101.012 399.578 101.278C399.224 101.544 398.793 101.766 398.286 101.943C397.78 102.108 397.197 102.19 396.538 102.19ZM393.954 96.338H399.16V96.281C399.16 95.711 399.053 95.2043 398.837 94.761C398.635 94.3177 398.337 93.9693 397.944 93.716C397.552 93.45 397.083 93.317 396.538 93.317C395.994 93.317 395.525 93.45 395.132 93.716C394.752 93.9693 394.461 94.3177 394.258 94.761C394.056 95.2043 393.954 95.711 393.954 96.281V96.338ZM403.674 102C403.547 102 403.44 101.962 403.351 101.886C403.275 101.797 403.237 101.69 403.237 101.563V92.557C403.237 92.4303 403.275 92.329 403.351 92.253C403.44 92.1643 403.547 92.12 403.674 92.12H404.586C404.713 92.12 404.814 92.1643 404.89 92.253C404.966 92.329 405.004 92.4303 405.004 92.557V101.563C405.004 101.69 404.966 101.797 404.89 101.886C404.814 101.962 404.713 102 404.586 102H403.674ZM403.522 90.277C403.395 90.277 403.288 90.239 403.199 90.163C403.123 90.0743 403.085 89.9667 403.085 89.84V88.814C403.085 88.6873 403.123 88.586 403.199 88.51C403.288 88.4213 403.395 88.377 403.522 88.377H404.719C404.846 88.377 404.947 88.4213 405.023 88.51C405.112 88.586 405.156 88.6873 405.156 88.814V89.84C405.156 89.9667 405.112 90.0743 405.023 90.163C404.947 90.239 404.846 90.277 404.719 90.277H403.522ZM411.886 106.18C411.024 106.18 410.315 106.066 409.758 105.838C409.213 105.61 408.782 105.331 408.466 105.002C408.162 104.685 407.94 104.362 407.801 104.033C407.674 103.716 407.604 103.463 407.592 103.273C407.579 103.146 407.617 103.039 407.706 102.95C407.807 102.861 407.915 102.817 408.029 102.817H408.941C409.055 102.817 409.15 102.842 409.226 102.893C409.302 102.944 409.365 103.051 409.416 103.216C409.492 103.406 409.606 103.615 409.758 103.843C409.91 104.084 410.144 104.286 410.461 104.451C410.777 104.628 411.221 104.717 411.791 104.717C412.386 104.717 412.886 104.635 413.292 104.47C413.697 104.318 414.001 104.039 414.204 103.634C414.419 103.241 414.527 102.697 414.527 102V100.708C414.223 101.101 413.824 101.43 413.33 101.696C412.836 101.949 412.215 102.076 411.468 102.076C410.758 102.076 410.15 101.956 409.644 101.715C409.137 101.462 408.719 101.126 408.39 100.708C408.073 100.277 407.832 99.7897 407.668 99.245C407.516 98.7003 407.427 98.1303 407.402 97.535C407.389 97.1803 407.389 96.832 407.402 96.49C407.427 95.8947 407.516 95.3247 407.668 94.78C407.832 94.2353 408.073 93.7477 408.39 93.317C408.719 92.8863 409.137 92.5507 409.644 92.31C410.15 92.0567 410.758 91.93 411.468 91.93C412.228 91.93 412.855 92.0757 413.349 92.367C413.855 92.6457 414.267 92.9877 414.584 93.393V92.576C414.584 92.4493 414.622 92.3417 414.698 92.253C414.786 92.1643 414.894 92.12 415.021 92.12H415.895C416.021 92.12 416.129 92.1643 416.218 92.253C416.306 92.3417 416.351 92.4493 416.351 92.576V101.791C416.351 102.64 416.205 103.393 415.914 104.052C415.635 104.711 415.166 105.23 414.508 105.61C413.862 105.99 412.988 106.18 411.886 106.18ZM411.848 100.556C412.481 100.556 412.988 100.41 413.368 100.119C413.76 99.8277 414.045 99.4603 414.223 99.017C414.413 98.5737 414.514 98.124 414.527 97.668C414.539 97.4907 414.546 97.2753 414.546 97.022C414.546 96.756 414.539 96.5343 414.527 96.357C414.514 95.901 414.413 95.4513 414.223 95.008C414.045 94.5647 413.76 94.1973 413.368 93.906C412.988 93.6147 412.481 93.469 411.848 93.469C411.214 93.469 410.708 93.6147 410.328 93.906C409.948 94.1847 409.675 94.5583 409.511 95.027C409.346 95.483 409.251 95.977 409.226 96.509C409.213 96.8383 409.213 97.174 409.226 97.516C409.251 98.048 409.346 98.5483 409.511 99.017C409.675 99.473 409.948 99.8467 410.328 100.138C410.708 100.417 411.214 100.556 411.848 100.556ZM419.632 102C419.505 102 419.397 101.962 419.309 101.886C419.233 101.797 419.195 101.69 419.195 101.563V88.947C419.195 88.8203 419.233 88.719 419.309 88.643C419.397 88.5543 419.505 88.51 419.632 88.51H420.582C420.721 88.51 420.829 88.5543 420.905 88.643C420.981 88.719 421.019 88.8203 421.019 88.947V93.374C421.361 92.9433 421.779 92.595 422.273 92.329C422.767 92.063 423.394 91.93 424.154 91.93C424.977 91.93 425.674 92.1137 426.244 92.481C426.826 92.8357 427.263 93.336 427.555 93.982C427.859 94.6153 428.011 95.3563 428.011 96.205V101.563C428.011 101.69 427.973 101.797 427.897 101.886C427.821 101.962 427.713 102 427.574 102H426.624C426.497 102 426.389 101.962 426.301 101.886C426.225 101.797 426.187 101.69 426.187 101.563V96.3C426.187 95.4133 425.971 94.723 425.541 94.229C425.11 93.7223 424.477 93.469 423.641 93.469C422.855 93.469 422.222 93.7223 421.741 94.229C421.259 94.723 421.019 95.4133 421.019 96.3V101.563C421.019 101.69 420.981 101.797 420.905 101.886C420.829 101.962 420.721 102 420.582 102H419.632ZM434.481 102C433.771 102 433.195 101.867 432.752 101.601C432.308 101.322 431.985 100.936 431.783 100.442C431.58 99.9353 431.479 99.34 431.479 98.656V93.64H429.997C429.87 93.64 429.762 93.602 429.674 93.526C429.598 93.4373 429.56 93.3297 429.56 93.203V92.557C429.56 92.4303 429.598 92.329 429.674 92.253C429.762 92.1643 429.87 92.12 429.997 92.12H431.479V88.947C431.479 88.8203 431.517 88.719 431.593 88.643C431.681 88.5543 431.789 88.51 431.916 88.51H432.809C432.935 88.51 433.037 88.5543 433.113 88.643C433.201 88.719 433.246 88.8203 433.246 88.947V92.12H435.602C435.728 92.12 435.83 92.1643 435.906 92.253C435.994 92.329 436.039 92.4303 436.039 92.557V93.203C436.039 93.3297 435.994 93.4373 435.906 93.526C435.83 93.602 435.728 93.64 435.602 93.64H433.246V98.523C433.246 99.1183 433.347 99.587 433.55 99.929C433.752 100.271 434.113 100.442 434.633 100.442H435.792C435.918 100.442 436.02 100.486 436.096 100.575C436.184 100.651 436.229 100.752 436.229 100.879V101.563C436.229 101.69 436.184 101.797 436.096 101.886C436.02 101.962 435.918 102 435.792 102H434.481ZM443.083 94.666C442.956 94.666 442.855 94.628 442.779 94.552C442.703 94.476 442.665 94.3747 442.665 94.248V93.602C442.665 93.4753 442.703 93.374 442.779 93.298C442.855 93.222 442.956 93.184 443.083 93.184H450.322C450.449 93.184 450.55 93.222 450.626 93.298C450.715 93.374 450.759 93.4753 450.759 93.602V94.248C450.759 94.3747 450.715 94.476 450.626 94.552C450.55 94.628 450.449 94.666 450.322 94.666H443.083ZM443.083 99.416C442.956 99.416 442.855 99.378 442.779 99.302C442.703 99.226 442.665 99.1247 442.665 98.998V98.352C442.665 98.2253 442.703 98.124 442.779 98.048C442.855 97.972 442.956 97.934 443.083 97.934H450.322C450.449 97.934 450.55 97.972 450.626 98.048C450.715 98.124 450.759 98.2253 450.759 98.352V98.998C450.759 99.1247 450.715 99.226 450.626 99.302C450.55 99.378 450.449 99.416 450.322 99.416H443.083ZM461.103 92.177C461.014 92.177 460.938 92.1453 460.875 92.082C460.824 92.0187 460.799 91.9427 460.799 91.854C460.799 91.7527 460.818 91.6513 460.856 91.55L461.863 88.947C461.926 88.8203 461.99 88.719 462.053 88.643C462.129 88.5543 462.249 88.51 462.414 88.51H463.041C463.142 88.51 463.218 88.548 463.269 88.624C463.332 88.7 463.351 88.8013 463.326 88.928L462.908 91.626C462.895 91.778 462.845 91.911 462.756 92.025C462.667 92.1263 462.534 92.177 462.357 92.177H461.103ZM458.063 92.177C457.974 92.177 457.898 92.1453 457.835 92.082C457.784 92.0187 457.759 91.9427 457.759 91.854C457.759 91.7527 457.778 91.6513 457.816 91.55L458.823 88.947C458.886 88.8203 458.956 88.719 459.032 88.643C459.108 88.5543 459.222 88.51 459.374 88.51H460.001C460.102 88.51 460.178 88.548 460.229 88.624C460.292 88.7 460.311 88.8013 460.286 88.928L459.868 91.626C459.855 91.778 459.805 91.911 459.716 92.025C459.627 92.1263 459.501 92.177 459.336 92.177H458.063ZM512.277 92.177C512.188 92.177 512.112 92.1453 512.049 92.082C511.998 92.0187 511.973 91.9427 511.973 91.854C511.973 91.7527 511.992 91.6513 512.03 91.55L513.037 88.947C513.1 88.8203 513.164 88.719 513.227 88.643C513.303 88.5543 513.423 88.51 513.588 88.51H514.215C514.316 88.51 514.392 88.548 514.443 88.624C514.506 88.7 514.525 88.8013 514.5 88.928L514.082 91.626C514.069 91.778 514.019 91.911 513.93 92.025C513.841 92.1263 513.708 92.177 513.531 92.177H512.277ZM509.237 92.177C509.148 92.177 509.072 92.1453 509.009 92.082C508.958 92.0187 508.933 91.9427 508.933 91.854C508.933 91.7527 508.952 91.6513 508.99 91.55L509.997 88.947C510.06 88.8203 510.13 88.719 510.206 88.643C510.282 88.5543 510.396 88.51 510.548 88.51H511.175C511.276 88.51 511.352 88.548 511.403 88.624C511.466 88.7 511.485 88.8013 511.46 88.928L511.042 91.626C511.029 91.778 510.979 91.911 510.89 92.025C510.801 92.1263 510.675 92.177 510.51 92.177H509.237ZM524.278 102.19C523.645 102.19 523.069 102.063 522.549 101.81C522.03 101.557 521.612 101.215 521.295 100.784C520.979 100.353 520.82 99.8657 520.82 99.321C520.82 98.447 521.175 97.7503 521.884 97.231C522.594 96.7117 523.518 96.3697 524.658 96.205L527.489 95.806V95.255C527.489 94.647 527.312 94.172 526.957 93.83C526.615 93.488 526.052 93.317 525.266 93.317C524.696 93.317 524.234 93.431 523.879 93.659C523.537 93.887 523.297 94.1783 523.157 94.533C523.081 94.723 522.948 94.818 522.758 94.818H521.903C521.764 94.818 521.656 94.78 521.58 94.704C521.517 94.6153 521.485 94.514 521.485 94.4C521.485 94.21 521.555 93.9757 521.694 93.697C521.846 93.4183 522.074 93.146 522.378 92.88C522.682 92.614 523.069 92.3923 523.537 92.215C524.019 92.025 524.601 91.93 525.285 91.93C526.045 91.93 526.685 92.0313 527.204 92.234C527.724 92.424 528.129 92.6837 528.42 93.013C528.724 93.3423 528.94 93.716 529.066 94.134C529.206 94.552 529.275 94.9763 529.275 95.407V101.563C529.275 101.69 529.231 101.797 529.142 101.886C529.066 101.962 528.965 102 528.838 102H527.964C527.825 102 527.717 101.962 527.641 101.886C527.565 101.797 527.527 101.69 527.527 101.563V100.746C527.363 100.974 527.141 101.202 526.862 101.43C526.584 101.645 526.235 101.829 525.817 101.981C525.399 102.12 524.886 102.19 524.278 102.19ZM524.677 100.765C525.197 100.765 525.672 100.657 526.102 100.442C526.533 100.214 526.869 99.8657 527.109 99.397C527.363 98.9283 527.489 98.3393 527.489 97.63V97.098L525.285 97.421C524.386 97.5477 523.708 97.763 523.252 98.067C522.796 98.3583 522.568 98.732 522.568 99.188C522.568 99.5427 522.67 99.8403 522.872 100.081C523.088 100.309 523.354 100.48 523.67 100.594C524 100.708 524.335 100.765 524.677 100.765ZM532.463 102C532.336 102 532.228 101.962 532.14 101.886C532.064 101.797 532.026 101.69 532.026 101.563V88.947C532.026 88.8203 532.064 88.719 532.14 88.643C532.228 88.5543 532.336 88.51 532.463 88.51H533.356C533.495 88.51 533.603 88.5543 533.679 88.643C533.755 88.719 533.793 88.8203 533.793 88.947V101.563C533.793 101.69 533.755 101.797 533.679 101.886C533.603 101.962 533.495 102 533.356 102H532.463ZM540.484 102C539.774 102 539.198 101.867 538.755 101.601C538.311 101.322 537.988 100.936 537.786 100.442C537.583 99.9353 537.482 99.34 537.482 98.656V93.64H536C535.873 93.64 535.765 93.602 535.677 93.526C535.601 93.4373 535.563 93.3297 535.563 93.203V92.557C535.563 92.4303 535.601 92.329 535.677 92.253C535.765 92.1643 535.873 92.12 536 92.12H537.482V88.947C537.482 88.8203 537.52 88.719 537.596 88.643C537.684 88.5543 537.792 88.51 537.919 88.51H538.812C538.938 88.51 539.04 88.5543 539.116 88.643C539.204 88.719 539.249 88.8203 539.249 88.947V92.12H541.605C541.731 92.12 541.833 92.1643 541.909 92.253C541.997 92.329 542.042 92.4303 542.042 92.557V93.203C542.042 93.3297 541.997 93.4373 541.909 93.526C541.833 93.602 541.731 93.64 541.605 93.64H539.249V98.523C539.249 99.1183 539.35 99.587 539.553 99.929C539.755 100.271 540.116 100.442 540.636 100.442H541.795C541.921 100.442 542.023 100.486 542.099 100.575C542.187 100.651 542.232 100.752 542.232 100.879V101.563C542.232 101.69 542.187 101.797 542.099 101.886C542.023 101.962 541.921 102 541.795 102H540.484ZM549.086 94.666C548.959 94.666 548.858 94.628 548.782 94.552C548.706 94.476 548.668 94.3747 548.668 94.248V93.602C548.668 93.4753 548.706 93.374 548.782 93.298C548.858 93.222 548.959 93.184 549.086 93.184H556.325C556.451 93.184 556.553 93.222 556.629 93.298C556.717 93.374 556.762 93.4753 556.762 93.602V94.248C556.762 94.3747 556.717 94.476 556.629 94.552C556.553 94.628 556.451 94.666 556.325 94.666H549.086ZM549.086 99.416C548.959 99.416 548.858 99.378 548.782 99.302C548.706 99.226 548.668 99.1247 548.668 98.998V98.352C548.668 98.2253 548.706 98.124 548.782 98.048C548.858 97.972 548.959 97.934 549.086 97.934H556.325C556.451 97.934 556.553 97.972 556.629 98.048C556.717 98.124 556.762 98.2253 556.762 98.352V98.998C556.762 99.1247 556.717 99.226 556.629 99.302C556.553 99.378 556.451 99.416 556.325 99.416H549.086ZM567.106 92.177C567.017 92.177 566.941 92.1453 566.878 92.082C566.827 92.0187 566.802 91.9427 566.802 91.854C566.802 91.7527 566.821 91.6513 566.859 91.55L567.866 88.947C567.929 88.8203 567.993 88.719 568.056 88.643C568.132 88.5543 568.252 88.51 568.417 88.51H569.044C569.145 88.51 569.221 88.548 569.272 88.624C569.335 88.7 569.354 88.8013 569.329 88.928L568.911 91.626C568.898 91.778 568.848 91.911 568.759 92.025C568.67 92.1263 568.537 92.177 568.36 92.177H567.106ZM564.066 92.177C563.977 92.177 563.901 92.1453 563.838 92.082C563.787 92.0187 563.762 91.9427 563.762 91.854C563.762 91.7527 563.781 91.6513 563.819 91.55L564.826 88.947C564.889 88.8203 564.959 88.719 565.035 88.643C565.111 88.5543 565.225 88.51 565.377 88.51H566.004C566.105 88.51 566.181 88.548 566.232 88.624C566.295 88.7 566.314 88.8013 566.289 88.928L565.871 91.626C565.858 91.778 565.808 91.911 565.719 92.025C565.63 92.1263 565.504 92.177 565.339 92.177H564.066ZM708.697 92.177C708.608 92.177 708.532 92.1453 708.469 92.082C708.418 92.0187 708.393 91.9427 708.393 91.854C708.393 91.7527 708.412 91.6513 708.45 91.55L709.457 88.947C709.52 88.8203 709.583 88.719 709.647 88.643C709.723 88.5543 709.843 88.51 710.008 88.51H710.635C710.736 88.51 710.812 88.548 710.863 88.624C710.926 88.7 710.945 88.8013 710.92 88.928L710.502 91.626C710.489 91.778 710.438 91.911 710.35 92.025C710.261 92.1263 710.128 92.177 709.951 92.177H708.697ZM705.657 92.177C705.568 92.177 705.492 92.1453 705.429 92.082C705.378 92.0187 705.353 91.9427 705.353 91.854C705.353 91.7527 705.372 91.6513 705.41 91.55L706.417 88.947C706.48 88.8203 706.55 88.719 706.626 88.643C706.702 88.5543 706.816 88.51 706.968 88.51H707.595C707.696 88.51 707.772 88.548 707.823 88.624C707.886 88.7 707.905 88.8013 707.88 88.928L707.462 91.626C707.449 91.778 707.398 91.911 707.31 92.025C707.221 92.1263 707.094 92.177 706.93 92.177H705.657Z" fill="white" fill-opacity="0.75"/>
<path d="M136.042 105.61C135.915 105.61 135.807 105.566 135.719 105.477C135.643 105.401 135.605 105.3 135.605 105.173V92.557C135.605 92.4303 135.643 92.329 135.719 92.253C135.807 92.1643 135.915 92.12 136.042 92.12H136.916C137.042 92.12 137.144 92.1643 137.22 92.253C137.308 92.329 137.353 92.4303 137.353 92.557V93.393C137.657 92.975 138.062 92.6267 138.569 92.348C139.075 92.0693 139.709 91.93 140.469 91.93C141.178 91.93 141.78 92.0503 142.274 92.291C142.78 92.5317 143.192 92.861 143.509 93.279C143.838 93.697 144.085 94.172 144.25 94.704C144.414 95.236 144.503 95.806 144.516 96.414C144.528 96.6167 144.535 96.832 144.535 97.06C144.535 97.288 144.528 97.5033 144.516 97.706C144.503 98.3013 144.414 98.8713 144.25 99.416C144.085 99.948 143.838 100.423 143.509 100.841C143.192 101.246 142.78 101.576 142.274 101.829C141.78 102.07 141.178 102.19 140.469 102.19C139.734 102.19 139.113 102.057 138.607 101.791C138.113 101.512 137.707 101.17 137.391 100.765V105.173C137.391 105.3 137.353 105.401 137.277 105.477C137.201 105.566 137.093 105.61 136.954 105.61H136.042ZM140.07 100.651C140.728 100.651 141.241 100.512 141.609 100.233C141.989 99.9417 142.261 99.568 142.426 99.112C142.59 98.6433 142.685 98.143 142.711 97.611C142.723 97.2437 142.723 96.8763 142.711 96.509C142.685 95.977 142.59 95.483 142.426 95.027C142.261 94.5583 141.989 94.1847 141.609 93.906C141.241 93.6147 140.728 93.469 140.07 93.469C139.449 93.469 138.942 93.6147 138.55 93.906C138.17 94.1973 137.885 94.571 137.695 95.027C137.517 95.4703 137.416 95.9263 137.391 96.395C137.378 96.5977 137.372 96.8383 137.372 97.117C137.372 97.3957 137.378 97.6427 137.391 97.858C137.403 98.3013 137.505 98.7383 137.695 99.169C137.897 99.5997 138.195 99.9543 138.588 100.233C138.98 100.512 139.474 100.651 140.07 100.651ZM147.341 102C147.214 102 147.107 101.962 147.018 101.886C146.942 101.797 146.904 101.69 146.904 101.563V92.557C146.904 92.4303 146.942 92.329 147.018 92.253C147.107 92.1643 147.214 92.12 147.341 92.12H148.253C148.38 92.12 148.481 92.1643 148.557 92.253C148.633 92.329 148.671 92.4303 148.671 92.557V101.563C148.671 101.69 148.633 101.797 148.557 101.886C148.481 101.962 148.38 102 148.253 102H147.341ZM147.189 90.277C147.062 90.277 146.955 90.239 146.866 90.163C146.79 90.0743 146.752 89.9667 146.752 89.84V88.814C146.752 88.6873 146.79 88.586 146.866 88.51C146.955 88.4213 147.062 88.377 147.189 88.377H148.386C148.513 88.377 148.614 88.4213 148.69 88.51C148.779 88.586 148.823 88.6873 148.823 88.814V89.84C148.823 89.9667 148.779 90.0743 148.69 90.163C148.614 90.239 148.513 90.277 148.386 90.277H147.189ZM155.533 102.19C154.633 102.19 153.854 102.019 153.196 101.677C152.55 101.322 152.049 100.822 151.695 100.176C151.34 99.5173 151.15 98.732 151.125 97.82C151.112 97.63 151.106 97.3767 151.106 97.06C151.106 96.7433 151.112 96.49 151.125 96.3C151.15 95.388 151.34 94.609 151.695 93.963C152.049 93.3043 152.55 92.804 153.196 92.462C153.854 92.1073 154.633 91.93 155.533 91.93C156.267 91.93 156.894 92.0313 157.414 92.234C157.946 92.4367 158.383 92.6963 158.725 93.013C159.067 93.3297 159.32 93.6717 159.485 94.039C159.662 94.4063 159.757 94.7547 159.77 95.084C159.782 95.2107 159.744 95.312 159.656 95.388C159.567 95.464 159.459 95.502 159.333 95.502H158.421C158.294 95.502 158.199 95.4767 158.136 95.426C158.072 95.3627 158.009 95.2613 157.946 95.122C157.718 94.5013 157.407 94.0643 157.015 93.811C156.622 93.5577 156.134 93.431 155.552 93.431C154.792 93.431 154.171 93.6653 153.69 94.134C153.221 94.6027 152.968 95.3563 152.93 96.395C152.917 96.851 152.917 97.2943 152.93 97.725C152.968 98.7763 153.221 99.5363 153.69 100.005C154.171 100.461 154.792 100.689 155.552 100.689C156.134 100.689 156.622 100.562 157.015 100.309C157.407 100.056 157.718 99.6187 157.946 98.998C158.009 98.8587 158.072 98.7637 158.136 98.713C158.199 98.6497 158.294 98.618 158.421 98.618H159.333C159.459 98.618 159.567 98.656 159.656 98.732C159.744 98.808 159.782 98.9093 159.77 99.036C159.757 99.302 159.7 99.5743 159.599 99.853C159.497 100.132 159.333 100.417 159.105 100.708C158.889 100.987 158.617 101.24 158.288 101.468C157.958 101.683 157.559 101.861 157.091 102C156.635 102.127 156.115 102.19 155.533 102.19ZM165.883 102C165.174 102 164.597 101.867 164.154 101.601C163.711 101.322 163.388 100.936 163.185 100.442C162.982 99.9353 162.881 99.34 162.881 98.656V93.64H161.399C161.272 93.64 161.165 93.602 161.076 93.526C161 93.4373 160.962 93.3297 160.962 93.203V92.557C160.962 92.4303 161 92.329 161.076 92.253C161.165 92.1643 161.272 92.12 161.399 92.12H162.881V88.947C162.881 88.8203 162.919 88.719 162.995 88.643C163.084 88.5543 163.191 88.51 163.318 88.51H164.211C164.338 88.51 164.439 88.5543 164.515 88.643C164.604 88.719 164.648 88.8203 164.648 88.947V92.12H167.004C167.131 92.12 167.232 92.1643 167.308 92.253C167.397 92.329 167.441 92.4303 167.441 92.557V93.203C167.441 93.3297 167.397 93.4373 167.308 93.526C167.232 93.602 167.131 93.64 167.004 93.64H164.648V98.523C164.648 99.1183 164.749 99.587 164.952 99.929C165.155 100.271 165.516 100.442 166.035 100.442H167.194C167.321 100.442 167.422 100.486 167.498 100.575C167.587 100.651 167.631 100.752 167.631 100.879V101.563C167.631 101.69 167.587 101.797 167.498 101.886C167.422 101.962 167.321 102 167.194 102H165.883ZM173.134 102.19C172.323 102.19 171.633 102.013 171.063 101.658C170.506 101.291 170.081 100.784 169.79 100.138C169.499 99.492 169.353 98.751 169.353 97.915V92.557C169.353 92.4303 169.391 92.329 169.467 92.253C169.556 92.1643 169.663 92.12 169.79 92.12H170.74C170.867 92.12 170.968 92.1643 171.044 92.253C171.133 92.329 171.177 92.4303 171.177 92.557V97.82C171.177 99.7073 172 100.651 173.647 100.651C174.432 100.651 175.059 100.404 175.528 99.91C176.009 99.4033 176.25 98.7067 176.25 97.82V92.557C176.25 92.4303 176.288 92.329 176.364 92.253C176.453 92.1643 176.56 92.12 176.687 92.12H177.618C177.757 92.12 177.865 92.1643 177.941 92.253C178.017 92.329 178.055 92.4303 178.055 92.557V101.563C178.055 101.69 178.017 101.797 177.941 101.886C177.865 101.962 177.757 102 177.618 102H176.744C176.617 102 176.51 101.962 176.421 101.886C176.345 101.797 176.307 101.69 176.307 101.563V100.727C175.965 101.17 175.547 101.525 175.053 101.791C174.572 102.057 173.932 102.19 173.134 102.19ZM181.315 102C181.188 102 181.08 101.962 180.992 101.886C180.916 101.797 180.878 101.69 180.878 101.563V92.576C180.878 92.4493 180.916 92.3417 180.992 92.253C181.08 92.1643 181.188 92.12 181.315 92.12H182.189C182.315 92.12 182.423 92.1643 182.512 92.253C182.6 92.3417 182.645 92.4493 182.645 92.576V93.412C182.898 92.9813 183.246 92.6583 183.69 92.443C184.133 92.2277 184.665 92.12 185.286 92.12H186.046C186.172 92.12 186.274 92.1643 186.35 92.253C186.426 92.329 186.464 92.4303 186.464 92.557V93.336C186.464 93.4627 186.426 93.564 186.35 93.64C186.274 93.716 186.172 93.754 186.046 93.754H184.906C184.222 93.754 183.683 93.9567 183.291 94.362C182.898 94.7547 182.702 95.293 182.702 95.977V101.563C182.702 101.69 182.657 101.797 182.569 101.886C182.48 101.962 182.372 102 182.246 102H181.315ZM191.843 102.19C190.538 102.19 189.5 101.791 188.727 100.993C187.954 100.182 187.53 99.0803 187.454 97.687C187.441 97.5223 187.435 97.3133 187.435 97.06C187.435 96.794 187.441 96.5787 187.454 96.414C187.505 95.5147 187.714 94.7293 188.081 94.058C188.448 93.374 188.949 92.8483 189.582 92.481C190.228 92.1137 190.982 91.93 191.843 91.93C192.806 91.93 193.61 92.1327 194.256 92.538C194.915 92.9433 195.415 93.5197 195.757 94.267C196.099 95.0143 196.27 95.8883 196.27 96.889V97.212C196.27 97.3513 196.226 97.459 196.137 97.535C196.061 97.611 195.96 97.649 195.833 97.649H189.259C189.259 97.6617 189.259 97.687 189.259 97.725C189.259 97.763 189.259 97.7947 189.259 97.82C189.284 98.3393 189.398 98.827 189.601 99.283C189.804 99.7263 190.095 100.087 190.475 100.366C190.855 100.645 191.311 100.784 191.843 100.784C192.299 100.784 192.679 100.714 192.983 100.575C193.287 100.436 193.534 100.284 193.724 100.119C193.914 99.9417 194.041 99.8087 194.104 99.72C194.218 99.5553 194.307 99.4603 194.37 99.435C194.433 99.397 194.535 99.378 194.674 99.378H195.586C195.713 99.378 195.814 99.416 195.89 99.492C195.979 99.5553 196.017 99.6503 196.004 99.777C195.991 99.967 195.89 100.201 195.7 100.48C195.51 100.746 195.238 101.012 194.883 101.278C194.528 101.544 194.098 101.766 193.591 101.943C193.084 102.108 192.502 102.19 191.843 102.19ZM189.259 96.338H194.465V96.281C194.465 95.711 194.357 95.2043 194.142 94.761C193.939 94.3177 193.642 93.9693 193.249 93.716C192.856 93.45 192.388 93.317 191.843 93.317C191.298 93.317 190.83 93.45 190.437 93.716C190.057 93.9693 189.766 94.3177 189.563 94.761C189.36 95.2043 189.259 95.711 189.259 96.281V96.338ZM198.846 102C198.719 102 198.611 101.962 198.523 101.886C198.447 101.797 198.409 101.69 198.409 101.563V100.195C198.409 100.068 198.447 99.967 198.523 99.891C198.611 99.8023 198.719 99.758 198.846 99.758H200.214C200.34 99.758 200.442 99.8023 200.518 99.891C200.606 99.967 200.651 100.068 200.651 100.195V101.563C200.651 101.69 200.606 101.797 200.518 101.886C200.442 101.962 200.34 102 200.214 102H198.846ZM201.51 105.61C201.383 105.61 201.282 105.566 201.206 105.477C201.117 105.401 201.073 105.3 201.073 105.173V104.527C201.073 104.4 201.117 104.293 201.206 104.204C201.282 104.128 201.383 104.09 201.51 104.09H201.776C202.232 104.09 202.567 104.001 202.783 103.824C202.998 103.659 203.137 103.438 203.201 103.159C203.277 102.88 203.315 102.564 203.315 102.209V92.557C203.315 92.4303 203.353 92.329 203.429 92.253C203.517 92.1643 203.625 92.12 203.752 92.12H204.683C204.809 92.12 204.911 92.1643 204.987 92.253C205.075 92.329 205.12 92.4303 205.12 92.557V102.228C205.12 102.899 205.012 103.488 204.797 103.995C204.594 104.502 204.258 104.894 203.79 105.173C203.321 105.464 202.681 105.61 201.871 105.61H201.51ZM203.6 90.277C203.473 90.277 203.365 90.239 203.277 90.163C203.201 90.0743 203.163 89.9667 203.163 89.84V88.814C203.163 88.6873 203.201 88.586 203.277 88.51C203.365 88.4213 203.473 88.377 203.6 88.377H204.816C204.942 88.377 205.05 88.4213 205.139 88.51C205.227 88.586 205.272 88.6873 205.272 88.814V89.84C205.272 89.9667 205.227 90.0743 205.139 90.163C205.05 90.239 204.942 90.277 204.816 90.277H203.6ZM208.591 105.61C208.464 105.61 208.356 105.566 208.268 105.477C208.192 105.401 208.154 105.3 208.154 105.173V92.557C208.154 92.4303 208.192 92.329 208.268 92.253C208.356 92.1643 208.464 92.12 208.591 92.12H209.465C209.591 92.12 209.693 92.1643 209.769 92.253C209.857 92.329 209.902 92.4303 209.902 92.557V93.393C210.206 92.975 210.611 92.6267 211.118 92.348C211.624 92.0693 212.258 91.93 213.018 91.93C213.727 91.93 214.329 92.0503 214.823 92.291C215.329 92.5317 215.741 92.861 216.058 93.279C216.387 93.697 216.634 94.172 216.799 94.704C216.963 95.236 217.052 95.806 217.065 96.414C217.077 96.6167 217.084 96.832 217.084 97.06C217.084 97.288 217.077 97.5033 217.065 97.706C217.052 98.3013 216.963 98.8713 216.799 99.416C216.634 99.948 216.387 100.423 216.058 100.841C215.741 101.246 215.329 101.576 214.823 101.829C214.329 102.07 213.727 102.19 213.018 102.19C212.283 102.19 211.662 102.057 211.156 101.791C210.662 101.512 210.256 101.17 209.94 100.765V105.173C209.94 105.3 209.902 105.401 209.826 105.477C209.75 105.566 209.642 105.61 209.503 105.61H208.591ZM212.619 100.651C213.277 100.651 213.79 100.512 214.158 100.233C214.538 99.9417 214.81 99.568 214.975 99.112C215.139 98.6433 215.234 98.143 215.26 97.611C215.272 97.2437 215.272 96.8763 215.26 96.509C215.234 95.977 215.139 95.483 214.975 95.027C214.81 94.5583 214.538 94.1847 214.158 93.906C213.79 93.6147 213.277 93.469 212.619 93.469C211.998 93.469 211.491 93.6147 211.099 93.906C210.719 94.1973 210.434 94.571 210.244 95.027C210.066 95.4703 209.965 95.9263 209.94 96.395C209.927 96.5977 209.921 96.8383 209.921 97.117C209.921 97.3957 209.927 97.6427 209.94 97.858C209.952 98.3013 210.054 98.7383 210.244 99.169C210.446 99.5997 210.744 99.9543 211.137 100.233C211.529 100.512 212.023 100.651 212.619 100.651ZM223.5 106.18C222.639 106.18 221.929 106.066 221.372 105.838C220.827 105.61 220.397 105.331 220.08 105.002C219.776 104.685 219.554 104.362 219.415 104.033C219.288 103.716 219.219 103.463 219.206 103.273C219.193 103.146 219.231 103.039 219.32 102.95C219.421 102.861 219.529 102.817 219.643 102.817H220.555C220.669 102.817 220.764 102.842 220.84 102.893C220.916 102.944 220.979 103.051 221.03 103.216C221.106 103.406 221.22 103.615 221.372 103.843C221.524 104.084 221.758 104.286 222.075 104.451C222.392 104.628 222.835 104.717 223.405 104.717C224 104.717 224.501 104.635 224.906 104.47C225.311 104.318 225.615 104.039 225.818 103.634C226.033 103.241 226.141 102.697 226.141 102V100.708C225.837 101.101 225.438 101.43 224.944 101.696C224.45 101.949 223.829 102.076 223.082 102.076C222.373 102.076 221.765 101.956 221.258 101.715C220.751 101.462 220.333 101.126 220.004 100.708C219.687 100.277 219.447 99.7897 219.282 99.245C219.13 98.7003 219.041 98.1303 219.016 97.535C219.003 97.1803 219.003 96.832 219.016 96.49C219.041 95.8947 219.13 95.3247 219.282 94.78C219.447 94.2353 219.687 93.7477 220.004 93.317C220.333 92.8863 220.751 92.5507 221.258 92.31C221.765 92.0567 222.373 91.93 223.082 91.93C223.842 91.93 224.469 92.0757 224.963 92.367C225.47 92.6457 225.881 92.9877 226.198 93.393V92.576C226.198 92.4493 226.236 92.3417 226.312 92.253C226.401 92.1643 226.508 92.12 226.635 92.12H227.509C227.636 92.12 227.743 92.1643 227.832 92.253C227.921 92.3417 227.965 92.4493 227.965 92.576V101.791C227.965 102.64 227.819 103.393 227.528 104.052C227.249 104.711 226.781 105.23 226.122 105.61C225.476 105.99 224.602 106.18 223.5 106.18ZM223.462 100.556C224.095 100.556 224.602 100.41 224.982 100.119C225.375 99.8277 225.66 99.4603 225.837 99.017C226.027 98.5737 226.128 98.124 226.141 97.668C226.154 97.4907 226.16 97.2753 226.16 97.022C226.16 96.756 226.154 96.5343 226.141 96.357C226.128 95.901 226.027 95.4513 225.837 95.008C225.66 94.5647 225.375 94.1973 224.982 93.906C224.602 93.6147 224.095 93.469 223.462 93.469C222.829 93.469 222.322 93.6147 221.942 93.906C221.562 94.1847 221.29 94.5583 221.125 95.027C220.96 95.483 220.865 95.977 220.84 96.509C220.827 96.8383 220.827 97.174 220.84 97.516C220.865 98.048 220.96 98.5483 221.125 99.017C221.29 99.473 221.562 99.8467 221.942 100.138C222.322 100.417 222.829 100.556 223.462 100.556ZM333.72 102.19C332.922 102.19 332.225 102.095 331.63 101.905C331.034 101.702 330.534 101.436 330.129 101.107C329.723 100.778 329.413 100.417 329.198 100.024C328.995 99.6313 328.887 99.226 328.875 98.808C328.875 98.694 328.913 98.6053 328.989 98.542C329.065 98.4787 329.16 98.447 329.274 98.447H330.205C330.319 98.447 330.42 98.4723 330.509 98.523C330.597 98.5737 330.673 98.6813 330.737 98.846C330.863 99.302 331.079 99.6567 331.383 99.91C331.699 100.163 332.06 100.341 332.466 100.442C332.884 100.531 333.302 100.575 333.72 100.575C334.594 100.575 335.303 100.366 335.848 99.948C336.392 99.53 336.665 98.9157 336.665 98.105C336.665 97.2817 336.418 96.6927 335.924 96.338C335.43 95.9833 334.746 95.806 333.872 95.806H332.067C331.94 95.806 331.832 95.768 331.744 95.692C331.668 95.616 331.63 95.5083 331.63 95.369V94.856C331.63 94.742 331.649 94.647 331.687 94.571C331.737 94.4823 331.788 94.4063 331.839 94.343L335.525 90.315H329.92C329.793 90.315 329.685 90.277 329.597 90.201C329.521 90.125 329.483 90.0173 329.483 89.878V89.156C329.483 89.0167 329.521 88.909 329.597 88.833C329.685 88.7443 329.793 88.7 329.92 88.7H337.501C337.64 88.7 337.748 88.7443 337.824 88.833C337.912 88.909 337.957 89.0167 337.957 89.156V89.84C337.957 89.9287 337.931 90.011 337.881 90.087C337.843 90.1503 337.798 90.2137 337.748 90.277L334.081 94.362L334.385 94.381C335.221 94.4063 335.949 94.5583 336.57 94.837C337.203 95.1157 337.691 95.5337 338.033 96.091C338.387 96.6357 338.565 97.326 338.565 98.162C338.565 99.0107 338.356 99.739 337.938 100.347C337.52 100.942 336.943 101.398 336.209 101.715C335.474 102.032 334.644 102.19 333.72 102.19ZM345.017 102.19C344.016 102.19 343.167 102.019 342.471 101.677C341.787 101.322 341.261 100.866 340.894 100.309C340.539 99.7517 340.349 99.1627 340.324 98.542C340.311 98.428 340.343 98.3393 340.419 98.276C340.495 98.2127 340.59 98.181 340.704 98.181H341.73C341.844 98.181 341.945 98.2063 342.034 98.257C342.122 98.3077 342.192 98.4153 342.243 98.58C342.369 99.0487 342.572 99.435 342.851 99.739C343.142 100.03 343.471 100.246 343.839 100.385C344.219 100.512 344.611 100.575 345.017 100.575C345.561 100.575 346.055 100.467 346.499 100.252C346.955 100.024 347.316 99.6947 347.582 99.264C347.848 98.8207 347.981 98.2887 347.981 97.668C347.981 97.098 347.848 96.6103 347.582 96.205C347.328 95.787 346.974 95.4703 346.518 95.255C346.074 95.027 345.574 94.913 345.017 94.913C344.599 94.913 344.257 94.9637 343.991 95.065C343.725 95.1663 343.497 95.2867 343.307 95.426C343.129 95.5653 342.965 95.6857 342.813 95.787C342.673 95.8883 342.515 95.939 342.338 95.939H341.35C341.236 95.939 341.134 95.901 341.046 95.825C340.957 95.7363 340.919 95.635 340.932 95.521L341.54 89.175C341.552 89.023 341.597 88.909 341.673 88.833C341.761 88.7443 341.875 88.7 342.015 88.7H348.646C348.772 88.7 348.874 88.7443 348.95 88.833C349.038 88.909 349.083 89.0103 349.083 89.137V89.878C349.083 90.0173 349.038 90.125 348.95 90.201C348.874 90.277 348.772 90.315 348.646 90.315H343.174L342.813 94.058C342.99 93.944 343.275 93.811 343.668 93.659C344.06 93.4943 344.599 93.412 345.283 93.412C345.903 93.412 346.486 93.507 347.031 93.697C347.588 93.887 348.082 94.1657 348.513 94.533C348.943 94.9003 349.279 95.35 349.52 95.882C349.76 96.4013 349.881 97.003 349.881 97.687C349.881 98.6497 349.665 99.4667 349.235 100.138C348.817 100.809 348.24 101.322 347.506 101.677C346.784 102.019 345.954 102.19 345.017 102.19ZM356.773 102.19C355.899 102.19 355.158 102.057 354.55 101.791C353.955 101.512 353.467 101.132 353.087 100.651C352.707 100.17 352.428 99.6187 352.251 98.998C352.086 98.3773 351.991 97.7187 351.966 97.022C351.953 96.68 351.941 96.319 351.928 95.939C351.928 95.559 351.928 95.179 351.928 94.799C351.941 94.4063 351.953 94.0327 351.966 93.678C351.979 92.9813 352.074 92.3227 352.251 91.702C352.441 91.0687 352.72 90.5177 353.087 90.049C353.467 89.5677 353.961 89.194 354.569 88.928C355.177 88.6493 355.912 88.51 356.773 88.51C357.647 88.51 358.382 88.6493 358.977 88.928C359.585 89.194 360.079 89.5677 360.459 90.049C360.839 90.5177 361.118 91.0687 361.295 91.702C361.485 92.3227 361.586 92.9813 361.599 93.678C361.612 94.0327 361.618 94.4063 361.618 94.799C361.631 95.179 361.631 95.559 361.618 95.939C361.618 96.319 361.612 96.68 361.599 97.022C361.586 97.7187 361.485 98.3773 361.295 98.998C361.118 99.6187 360.839 100.17 360.459 100.651C360.092 101.132 359.604 101.512 358.996 101.791C358.401 102.057 357.66 102.19 356.773 102.19ZM356.773 100.575C357.761 100.575 358.489 100.252 358.958 99.606C359.439 98.9473 359.686 98.0543 359.699 96.927C359.724 96.5597 359.737 96.205 359.737 95.863C359.737 95.5083 359.737 95.16 359.737 94.818C359.737 94.4633 359.724 94.115 359.699 93.773C359.686 92.671 359.439 91.7907 358.958 91.132C358.489 90.4607 357.761 90.125 356.773 90.125C355.798 90.125 355.069 90.4607 354.588 91.132C354.119 91.7907 353.872 92.671 353.847 93.773C353.847 94.115 353.841 94.4633 353.828 94.818C353.828 95.16 353.828 95.5083 353.828 95.863C353.841 96.205 353.847 96.5597 353.847 96.927C353.872 98.0543 354.126 98.9473 354.607 99.606C355.088 100.252 355.81 100.575 356.773 100.575ZM470.311 102C470.185 102 470.077 101.962 469.988 101.886C469.912 101.797 469.874 101.69 469.874 101.563V100.955C469.874 100.841 469.906 100.714 469.969 100.575C470.033 100.436 470.159 100.284 470.349 100.119L474.377 96.091C475.023 95.5463 475.53 95.084 475.897 94.704C476.277 94.3113 476.543 93.9377 476.695 93.583C476.86 93.2283 476.942 92.861 476.942 92.481C476.942 91.759 476.74 91.189 476.334 90.771C475.929 90.3403 475.327 90.125 474.529 90.125C474.023 90.125 473.586 90.2327 473.218 90.448C472.851 90.6507 472.56 90.9357 472.344 91.303C472.142 91.6577 472.009 92.063 471.945 92.519C471.92 92.6837 471.85 92.7977 471.736 92.861C471.635 92.9243 471.54 92.956 471.451 92.956H470.463C470.349 92.956 470.254 92.9243 470.178 92.861C470.102 92.785 470.064 92.6963 470.064 92.595C470.077 92.1137 470.178 91.6323 470.368 91.151C470.558 90.657 470.837 90.2137 471.204 89.821C471.584 89.4283 472.047 89.1117 472.591 88.871C473.149 88.6177 473.795 88.491 474.529 88.491C475.53 88.491 476.347 88.6747 476.98 89.042C477.626 89.3967 478.101 89.8717 478.405 90.467C478.709 91.0623 478.861 91.7147 478.861 92.424C478.861 92.9813 478.766 93.4943 478.576 93.963C478.386 94.419 478.108 94.8687 477.74 95.312C477.386 95.7427 476.942 96.186 476.41 96.642L472.762 100.347H478.69C478.83 100.347 478.937 100.385 479.013 100.461C479.102 100.537 479.146 100.645 479.146 100.784V101.563C479.146 101.69 479.102 101.797 479.013 101.886C478.937 101.962 478.83 102 478.69 102H470.311ZM481.463 102C481.336 102 481.228 101.962 481.14 101.886C481.064 101.797 481.026 101.69 481.026 101.563V100.955C481.026 100.841 481.057 100.714 481.121 100.575C481.184 100.436 481.311 100.284 481.501 100.119L485.529 96.091C486.175 95.5463 486.681 95.084 487.049 94.704C487.429 94.3113 487.695 93.9377 487.847 93.583C488.011 93.2283 488.094 92.861 488.094 92.481C488.094 91.759 487.891 91.189 487.486 90.771C487.08 90.3403 486.479 90.125 485.681 90.125C485.174 90.125 484.737 90.2327 484.37 90.448C484.002 90.6507 483.711 90.9357 483.496 91.303C483.293 91.6577 483.16 92.063 483.097 92.519C483.071 92.6837 483.002 92.7977 482.888 92.861C482.786 92.9243 482.691 92.956 482.603 92.956H481.615C481.501 92.956 481.406 92.9243 481.33 92.861C481.254 92.785 481.216 92.6963 481.216 92.595C481.228 92.1137 481.33 91.6323 481.52 91.151C481.71 90.657 481.988 90.2137 482.356 89.821C482.736 89.4283 483.198 89.1117 483.743 88.871C484.3 88.6177 484.946 88.491 485.681 88.491C486.681 88.491 487.498 88.6747 488.132 89.042C488.778 89.3967 489.253 89.8717 489.557 90.467C489.861 91.0623 490.013 91.7147 490.013 92.424C490.013 92.9813 489.918 93.4943 489.728 93.963C489.538 94.419 489.259 94.8687 488.892 95.312C488.537 95.7427 488.094 96.186 487.562 96.642L483.914 100.347H489.842C489.981 100.347 490.089 100.385 490.165 100.461C490.253 100.537 490.298 100.645 490.298 100.784V101.563C490.298 101.69 490.253 101.797 490.165 101.886C490.089 101.962 489.981 102 489.842 102H481.463ZM497.269 102.19C496.395 102.19 495.654 102.057 495.046 101.791C494.451 101.512 493.963 101.132 493.583 100.651C493.203 100.17 492.924 99.6187 492.747 98.998C492.582 98.3773 492.487 97.7187 492.462 97.022C492.449 96.68 492.437 96.319 492.424 95.939C492.424 95.559 492.424 95.179 492.424 94.799C492.437 94.4063 492.449 94.0327 492.462 93.678C492.475 92.9813 492.57 92.3227 492.747 91.702C492.937 91.0687 493.216 90.5177 493.583 90.049C493.963 89.5677 494.457 89.194 495.065 88.928C495.673 88.6493 496.408 88.51 497.269 88.51C498.143 88.51 498.878 88.6493 499.473 88.928C500.081 89.194 500.575 89.5677 500.955 90.049C501.335 90.5177 501.614 91.0687 501.791 91.702C501.981 92.3227 502.082 92.9813 502.095 93.678C502.108 94.0327 502.114 94.4063 502.114 94.799C502.127 95.179 502.127 95.559 502.114 95.939C502.114 96.319 502.108 96.68 502.095 97.022C502.082 97.7187 501.981 98.3773 501.791 98.998C501.614 99.6187 501.335 100.17 500.955 100.651C500.588 101.132 500.1 101.512 499.492 101.791C498.897 102.057 498.156 102.19 497.269 102.19ZM497.269 100.575C498.257 100.575 498.985 100.252 499.454 99.606C499.935 98.9473 500.182 98.0543 500.195 96.927C500.22 96.5597 500.233 96.205 500.233 95.863C500.233 95.5083 500.233 95.16 500.233 94.818C500.233 94.4633 500.22 94.115 500.195 93.773C500.182 92.671 499.935 91.7907 499.454 91.132C498.985 90.4607 498.257 90.125 497.269 90.125C496.294 90.125 495.565 90.4607 495.084 91.132C494.615 91.7907 494.368 92.671 494.343 93.773C494.343 94.115 494.337 94.4633 494.324 94.818C494.324 95.16 494.324 95.5083 494.324 95.863C494.337 96.205 494.343 96.5597 494.343 96.927C494.368 98.0543 494.622 98.9473 495.103 99.606C495.584 100.252 496.306 100.575 497.269 100.575ZM579.107 102.19C578.474 102.19 577.898 102.063 577.378 101.81C576.859 101.557 576.441 101.215 576.124 100.784C575.808 100.353 575.649 99.8657 575.649 99.321C575.649 98.447 576.004 97.7503 576.713 97.231C577.423 96.7117 578.347 96.3697 579.487 96.205L582.318 95.806V95.255C582.318 94.647 582.141 94.172 581.786 93.83C581.444 93.488 580.881 93.317 580.095 93.317C579.525 93.317 579.063 93.431 578.708 93.659C578.366 93.887 578.126 94.1783 577.986 94.533C577.91 94.723 577.777 94.818 577.587 94.818H576.732C576.593 94.818 576.485 94.78 576.409 94.704C576.346 94.6153 576.314 94.514 576.314 94.4C576.314 94.21 576.384 93.9757 576.523 93.697C576.675 93.4183 576.903 93.146 577.207 92.88C577.511 92.614 577.898 92.3923 578.366 92.215C578.848 92.025 579.43 91.93 580.114 91.93C580.874 91.93 581.514 92.0313 582.033 92.234C582.553 92.424 582.958 92.6837 583.249 93.013C583.553 93.3423 583.769 93.716 583.895 94.134C584.035 94.552 584.104 94.9763 584.104 95.407V101.563C584.104 101.69 584.06 101.797 583.971 101.886C583.895 101.962 583.794 102 583.667 102H582.793C582.654 102 582.546 101.962 582.47 101.886C582.394 101.797 582.356 101.69 582.356 101.563V100.746C582.192 100.974 581.97 101.202 581.691 101.43C581.413 101.645 581.064 101.829 580.646 101.981C580.228 102.12 579.715 102.19 579.107 102.19ZM579.506 100.765C580.026 100.765 580.501 100.657 580.931 100.442C581.362 100.214 581.698 99.8657 581.938 99.397C582.192 98.9283 582.318 98.3393 582.318 97.63V97.098L580.114 97.421C579.215 97.5477 578.537 97.763 578.081 98.067C577.625 98.3583 577.397 98.732 577.397 99.188C577.397 99.5427 577.499 99.8403 577.701 100.081C577.917 100.309 578.183 100.48 578.499 100.594C578.829 100.708 579.164 100.765 579.506 100.765ZM587.292 102C587.165 102 587.057 101.962 586.969 101.886C586.893 101.797 586.855 101.69 586.855 101.563V88.947C586.855 88.8203 586.893 88.719 586.969 88.643C587.057 88.5543 587.165 88.51 587.292 88.51H588.185C588.324 88.51 588.432 88.5543 588.508 88.643C588.584 88.719 588.622 88.8203 588.622 88.947V101.563C588.622 101.69 588.584 101.797 588.508 101.886C588.432 101.962 588.324 102 588.185 102H587.292ZM595.313 102C594.603 102 594.027 101.867 593.584 101.601C593.14 101.322 592.817 100.936 592.615 100.442C592.412 99.9353 592.311 99.34 592.311 98.656V93.64H590.829C590.702 93.64 590.594 93.602 590.506 93.526C590.43 93.4373 590.392 93.3297 590.392 93.203V92.557C590.392 92.4303 590.43 92.329 590.506 92.253C590.594 92.1643 590.702 92.12 590.829 92.12H592.311V88.947C592.311 88.8203 592.349 88.719 592.425 88.643C592.513 88.5543 592.621 88.51 592.748 88.51H593.641C593.767 88.51 593.869 88.5543 593.945 88.643C594.033 88.719 594.078 88.8203 594.078 88.947V92.12H596.434C596.56 92.12 596.662 92.1643 596.738 92.253C596.826 92.329 596.871 92.4303 596.871 92.557V93.203C596.871 93.3297 596.826 93.4373 596.738 93.526C596.662 93.602 596.56 93.64 596.434 93.64H594.078V98.523C594.078 99.1183 594.179 99.587 594.382 99.929C594.584 100.271 594.945 100.442 595.465 100.442H596.624C596.75 100.442 596.852 100.486 596.928 100.575C597.016 100.651 597.061 100.752 597.061 100.879V101.563C597.061 101.69 597.016 101.797 596.928 101.886C596.852 101.962 596.75 102 596.624 102H595.313ZM602.811 102.19C601.506 102.19 600.467 101.791 599.695 100.993C598.922 100.182 598.498 99.0803 598.422 97.687C598.409 97.5223 598.403 97.3133 598.403 97.06C598.403 96.794 598.409 96.5787 598.422 96.414C598.472 95.5147 598.681 94.7293 599.049 94.058C599.416 93.374 599.916 92.8483 600.55 92.481C601.196 92.1137 601.949 91.93 602.811 91.93C603.773 91.93 604.578 92.1327 605.224 92.538C605.882 92.9433 606.383 93.5197 606.725 94.267C607.067 95.0143 607.238 95.8883 607.238 96.889V97.212C607.238 97.3513 607.193 97.459 607.105 97.535C607.029 97.611 606.927 97.649 606.801 97.649H600.227C600.227 97.6617 600.227 97.687 600.227 97.725C600.227 97.763 600.227 97.7947 600.227 97.82C600.252 98.3393 600.366 98.827 600.569 99.283C600.771 99.7263 601.063 100.087 601.443 100.366C601.823 100.645 602.279 100.784 602.811 100.784C603.267 100.784 603.647 100.714 603.951 100.575C604.255 100.436 604.502 100.284 604.692 100.119C604.882 99.9417 605.008 99.8087 605.072 99.72C605.186 99.5553 605.274 99.4603 605.338 99.435C605.401 99.397 605.502 99.378 605.642 99.378H606.554C606.68 99.378 606.782 99.416 606.858 99.492C606.946 99.5553 606.984 99.6503 606.972 99.777C606.959 99.967 606.858 100.201 606.668 100.48C606.478 100.746 606.205 101.012 605.851 101.278C605.496 101.544 605.065 101.766 604.559 101.943C604.052 102.108 603.469 102.19 602.811 102.19ZM600.227 96.338H605.433V96.281C605.433 95.711 605.325 95.2043 605.11 94.761C604.907 94.3177 604.609 93.9693 604.217 93.716C603.824 93.45 603.355 93.317 602.811 93.317C602.266 93.317 601.797 93.45 601.405 93.716C601.025 93.9693 600.733 94.3177 600.531 94.761C600.328 95.2043 600.227 95.711 600.227 96.281V96.338ZM609.947 102C609.82 102 609.712 101.962 609.624 101.886C609.548 101.797 609.51 101.69 609.51 101.563V92.576C609.51 92.4493 609.548 92.3417 609.624 92.253C609.712 92.1643 609.82 92.12 609.947 92.12H610.821C610.947 92.12 611.055 92.1643 611.144 92.253C611.232 92.3417 611.277 92.4493 611.277 92.576V93.412C611.53 92.9813 611.878 92.6583 612.322 92.443C612.765 92.2277 613.297 92.12 613.918 92.12H614.678C614.804 92.12 614.906 92.1643 614.982 92.253C615.058 92.329 615.096 92.4303 615.096 92.557V93.336C615.096 93.4627 615.058 93.564 614.982 93.64C614.906 93.716 614.804 93.754 614.678 93.754H613.538C612.854 93.754 612.315 93.9567 611.923 94.362C611.53 94.7547 611.334 95.293 611.334 95.977V101.563C611.334 101.69 611.289 101.797 611.201 101.886C611.112 101.962 611.004 102 610.878 102H609.947ZM617.164 102C617.038 102 616.93 101.962 616.841 101.886C616.765 101.797 616.727 101.69 616.727 101.563V92.557C616.727 92.4303 616.765 92.329 616.841 92.253C616.93 92.1643 617.038 92.12 617.164 92.12H618.057C618.184 92.12 618.285 92.1643 618.361 92.253C618.45 92.329 618.494 92.4303 618.494 92.557V93.393C618.824 92.9623 619.235 92.614 619.729 92.348C620.236 92.0693 620.882 91.93 621.667 91.93C622.491 91.93 623.187 92.1137 623.757 92.481C624.34 92.8357 624.777 93.336 625.068 93.982C625.36 94.6153 625.505 95.3563 625.505 96.205V101.563C625.505 101.69 625.467 101.797 625.391 101.886C625.315 101.962 625.214 102 625.087 102H624.137C624.011 102 623.903 101.962 623.814 101.886C623.738 101.797 623.7 101.69 623.7 101.563V96.3C623.7 95.4133 623.485 94.723 623.054 94.229C622.624 93.7223 621.99 93.469 621.154 93.469C620.369 93.469 619.736 93.7223 619.254 94.229C618.786 94.723 618.551 95.4133 618.551 96.3V101.563C618.551 101.69 618.507 101.797 618.418 101.886C618.342 101.962 618.241 102 618.114 102H617.164ZM631.005 102.19C630.371 102.19 629.795 102.063 629.276 101.81C628.756 101.557 628.338 101.215 628.022 100.784C627.705 100.353 627.547 99.8657 627.547 99.321C627.547 98.447 627.901 97.7503 628.611 97.231C629.32 96.7117 630.245 96.3697 631.385 96.205L634.216 95.806V95.255C634.216 94.647 634.038 94.172 633.684 93.83C633.342 93.488 632.778 93.317 631.993 93.317C631.423 93.317 630.96 93.431 630.606 93.659C630.264 93.887 630.023 94.1783 629.884 94.533C629.808 94.723 629.675 94.818 629.485 94.818H628.63C628.49 94.818 628.383 94.78 628.307 94.704C628.243 94.6153 628.212 94.514 628.212 94.4C628.212 94.21 628.281 93.9757 628.421 93.697C628.573 93.4183 628.801 93.146 629.105 92.88C629.409 92.614 629.795 92.3923 630.264 92.215C630.745 92.025 631.328 91.93 632.012 91.93C632.772 91.93 633.411 92.0313 633.931 92.234C634.45 92.424 634.855 92.6837 635.147 93.013C635.451 93.3423 635.666 93.716 635.793 94.134C635.932 94.552 636.002 94.9763 636.002 95.407V101.563C636.002 101.69 635.957 101.797 635.869 101.886C635.793 101.962 635.691 102 635.565 102H634.691C634.551 102 634.444 101.962 634.368 101.886C634.292 101.797 634.254 101.69 634.254 101.563V100.746C634.089 100.974 633.867 101.202 633.589 101.43C633.31 101.645 632.962 101.829 632.544 101.981C632.126 102.12 631.613 102.19 631.005 102.19ZM631.404 100.765C631.923 100.765 632.398 100.657 632.829 100.442C633.259 100.214 633.595 99.8657 633.836 99.397C634.089 98.9283 634.216 98.3393 634.216 97.63V97.098L632.012 97.421C631.112 97.5477 630.435 97.763 629.979 98.067C629.523 98.3583 629.295 98.732 629.295 99.188C629.295 99.5427 629.396 99.8403 629.599 100.081C629.814 100.309 630.08 100.48 630.397 100.594C630.726 100.708 631.062 100.765 631.404 100.765ZM642.497 102C641.788 102 641.212 101.867 640.768 101.601C640.325 101.322 640.002 100.936 639.799 100.442C639.597 99.9353 639.495 99.34 639.495 98.656V93.64H638.013C637.887 93.64 637.779 93.602 637.69 93.526C637.614 93.4373 637.576 93.3297 637.576 93.203V92.557C637.576 92.4303 637.614 92.329 637.69 92.253C637.779 92.1643 637.887 92.12 638.013 92.12H639.495V88.947C639.495 88.8203 639.533 88.719 639.609 88.643C639.698 88.5543 639.806 88.51 639.932 88.51H640.825C640.952 88.51 641.053 88.5543 641.129 88.643C641.218 88.719 641.262 88.8203 641.262 88.947V92.12H643.618C643.745 92.12 643.846 92.1643 643.922 92.253C644.011 92.329 644.055 92.4303 644.055 92.557V93.203C644.055 93.3297 644.011 93.4373 643.922 93.526C643.846 93.602 643.745 93.64 643.618 93.64H641.262V98.523C641.262 99.1183 641.364 99.587 641.566 99.929C641.769 100.271 642.13 100.442 642.649 100.442H643.808C643.935 100.442 644.036 100.486 644.112 100.575C644.201 100.651 644.245 100.752 644.245 100.879V101.563C644.245 101.69 644.201 101.797 644.112 101.886C644.036 101.962 643.935 102 643.808 102H642.497ZM649.995 102.19C648.691 102.19 647.652 101.791 646.879 100.993C646.107 100.182 645.682 99.0803 645.606 97.687C645.594 97.5223 645.587 97.3133 645.587 97.06C645.587 96.794 645.594 96.5787 645.606 96.414C645.657 95.5147 645.866 94.7293 646.233 94.058C646.601 93.374 647.101 92.8483 647.734 92.481C648.38 92.1137 649.134 91.93 649.995 91.93C650.958 91.93 651.762 92.1327 652.408 92.538C653.067 92.9433 653.567 93.5197 653.909 94.267C654.251 95.0143 654.422 95.8883 654.422 96.889V97.212C654.422 97.3513 654.378 97.459 654.289 97.535C654.213 97.611 654.112 97.649 653.985 97.649H647.411C647.411 97.6617 647.411 97.687 647.411 97.725C647.411 97.763 647.411 97.7947 647.411 97.82C647.437 98.3393 647.551 98.827 647.753 99.283C647.956 99.7263 648.247 100.087 648.627 100.366C649.007 100.645 649.463 100.784 649.995 100.784C650.451 100.784 650.831 100.714 651.135 100.575C651.439 100.436 651.686 100.284 651.876 100.119C652.066 99.9417 652.193 99.8087 652.256 99.72C652.37 99.5553 652.459 99.4603 652.522 99.435C652.586 99.397 652.687 99.378 652.826 99.378H653.738C653.865 99.378 653.966 99.416 654.042 99.492C654.131 99.5553 654.169 99.6503 654.156 99.777C654.144 99.967 654.042 100.201 653.852 100.48C653.662 100.746 653.39 101.012 653.035 101.278C652.681 101.544 652.25 101.766 651.743 101.943C651.237 102.108 650.654 102.19 649.995 102.19ZM647.411 96.338H652.617V96.281C652.617 95.711 652.51 95.2043 652.294 94.761C652.092 94.3177 651.794 93.9693 651.401 93.716C651.009 93.45 650.54 93.317 649.995 93.317C649.451 93.317 648.982 93.45 648.589 93.716C648.209 93.9693 647.918 94.3177 647.715 94.761C647.513 95.2043 647.411 95.711 647.411 96.281V96.338ZM657.036 97.098C656.909 97.098 656.802 97.06 656.713 96.984C656.637 96.8953 656.599 96.7877 656.599 96.661V95.939C656.599 95.8123 656.637 95.711 656.713 95.635C656.802 95.5463 656.909 95.502 657.036 95.502H662.736C662.863 95.502 662.964 95.5463 663.04 95.635C663.129 95.711 663.173 95.8123 663.173 95.939V96.661C663.173 96.7877 663.129 96.8953 663.04 96.984C662.964 97.06 662.863 97.098 662.736 97.098H657.036ZM669.476 102C668.767 102 668.19 101.867 667.747 101.601C667.304 101.322 666.981 100.936 666.778 100.442C666.575 99.9353 666.474 99.34 666.474 98.656V93.64H664.992C664.865 93.64 664.758 93.602 664.669 93.526C664.593 93.4373 664.555 93.3297 664.555 93.203V92.557C664.555 92.4303 664.593 92.329 664.669 92.253C664.758 92.1643 664.865 92.12 664.992 92.12H666.474V88.947C666.474 88.8203 666.512 88.719 666.588 88.643C666.677 88.5543 666.784 88.51 666.911 88.51H667.804C667.931 88.51 668.032 88.5543 668.108 88.643C668.197 88.719 668.241 88.8203 668.241 88.947V92.12H670.597C670.724 92.12 670.825 92.1643 670.901 92.253C670.99 92.329 671.034 92.4303 671.034 92.557V93.203C671.034 93.3297 670.99 93.4373 670.901 93.526C670.825 93.602 670.724 93.64 670.597 93.64H668.241V98.523C668.241 99.1183 668.342 99.587 668.545 99.929C668.748 100.271 669.109 100.442 669.628 100.442H670.787C670.914 100.442 671.015 100.486 671.091 100.575C671.18 100.651 671.224 100.752 671.224 100.879V101.563C671.224 101.69 671.18 101.797 671.091 101.886C671.015 101.962 670.914 102 670.787 102H669.476ZM676.974 102.19C675.669 102.19 674.63 101.791 673.858 100.993C673.085 100.182 672.661 99.0803 672.585 97.687C672.572 97.5223 672.566 97.3133 672.566 97.06C672.566 96.794 672.572 96.5787 672.585 96.414C672.635 95.5147 672.844 94.7293 673.212 94.058C673.579 93.374 674.079 92.8483 674.713 92.481C675.359 92.1137 676.112 91.93 676.974 91.93C677.936 91.93 678.741 92.1327 679.387 92.538C680.045 92.9433 680.546 93.5197 680.888 94.267C681.23 95.0143 681.401 95.8883 681.401 96.889V97.212C681.401 97.3513 681.356 97.459 681.268 97.535C681.192 97.611 681.09 97.649 680.964 97.649H674.39C674.39 97.6617 674.39 97.687 674.39 97.725C674.39 97.763 674.39 97.7947 674.39 97.82C674.415 98.3393 674.529 98.827 674.732 99.283C674.934 99.7263 675.226 100.087 675.606 100.366C675.986 100.645 676.442 100.784 676.974 100.784C677.43 100.784 677.81 100.714 678.114 100.575C678.418 100.436 678.665 100.284 678.855 100.119C679.045 99.9417 679.171 99.8087 679.235 99.72C679.349 99.5553 679.437 99.4603 679.501 99.435C679.564 99.397 679.665 99.378 679.805 99.378H680.717C680.843 99.378 680.945 99.416 681.021 99.492C681.109 99.5553 681.147 99.6503 681.135 99.777C681.122 99.967 681.021 100.201 680.831 100.48C680.641 100.746 680.368 101.012 680.014 101.278C679.659 101.544 679.228 101.766 678.722 101.943C678.215 102.108 677.632 102.19 676.974 102.19ZM674.39 96.338H679.596V96.281C679.596 95.711 679.488 95.2043 679.273 94.761C679.07 94.3177 678.772 93.9693 678.38 93.716C677.987 93.45 677.518 93.317 676.974 93.317C676.429 93.317 675.96 93.45 675.568 93.716C675.188 93.9693 674.896 94.3177 674.694 94.761C674.491 95.2043 674.39 95.711 674.39 96.281V96.338ZM683.013 102C682.911 102 682.816 101.962 682.728 101.886C682.652 101.81 682.614 101.715 682.614 101.601C682.614 101.563 682.62 101.519 682.633 101.468C682.658 101.405 682.696 101.335 682.747 101.259L686.053 96.946L682.956 92.861C682.905 92.785 682.867 92.7217 682.842 92.671C682.829 92.6203 682.823 92.5697 682.823 92.519C682.823 92.405 682.861 92.31 682.937 92.234C683.013 92.158 683.108 92.12 683.222 92.12H684.191C684.33 92.12 684.431 92.158 684.495 92.234C684.571 92.2973 684.634 92.3607 684.685 92.424L687.212 95.711L689.739 92.443C689.789 92.3797 689.846 92.31 689.91 92.234C689.986 92.158 690.093 92.12 690.233 92.12H691.164C691.278 92.12 691.373 92.158 691.449 92.234C691.525 92.31 691.562 92.405 691.562 92.519C691.562 92.5697 691.55 92.6203 691.525 92.671C691.512 92.7217 691.48 92.785 691.43 92.861L688.295 96.984L691.601 101.259C691.651 101.335 691.683 101.398 691.696 101.449C691.721 101.5 691.734 101.55 691.734 101.601C691.734 101.715 691.696 101.81 691.62 101.886C691.544 101.962 691.449 102 691.335 102H690.328C690.201 102 690.1 101.968 690.024 101.905C689.948 101.842 689.884 101.778 689.834 101.715L687.155 98.238L684.476 101.715C684.425 101.766 684.362 101.829 684.286 101.905C684.222 101.968 684.121 102 683.982 102H683.013ZM697.568 102C696.858 102 696.282 101.867 695.839 101.601C695.395 101.322 695.072 100.936 694.87 100.442C694.667 99.9353 694.566 99.34 694.566 98.656V93.64H693.084C692.957 93.64 692.849 93.602 692.761 93.526C692.685 93.4373 692.647 93.3297 692.647 93.203V92.557C692.647 92.4303 692.685 92.329 692.761 92.253C692.849 92.1643 692.957 92.12 693.084 92.12H694.566V88.947C694.566 88.8203 694.604 88.719 694.68 88.643C694.768 88.5543 694.876 88.51 695.003 88.51H695.896C696.022 88.51 696.124 88.5543 696.2 88.643C696.288 88.719 696.333 88.8203 696.333 88.947V92.12H698.689C698.815 92.12 698.917 92.1643 698.993 92.253C699.081 92.329 699.126 92.4303 699.126 92.557V93.203C699.126 93.3297 699.081 93.4373 698.993 93.526C698.917 93.602 698.815 93.64 698.689 93.64H696.333V98.523C696.333 99.1183 696.434 99.587 696.637 99.929C696.839 100.271 697.2 100.442 697.72 100.442H698.879C699.005 100.442 699.107 100.486 699.183 100.575C699.271 100.651 699.316 100.752 699.316 100.879V101.563C699.316 101.69 699.271 101.797 699.183 101.886C699.107 101.962 699.005 102 698.879 102H697.568Z" fill="white"/>
<g filter="url(#filter0_d_190_2)">
<path d="M4 12C4 5.37258 9.37258 0 16 0H904C910.627 0 916 5.37258 916 12V43H4V12Z" fill="#242526"/>
</g>
<ellipse cx="29.1279" cy="21.9139" rx="5.84369" ry="6.72025" fill="#E65100"/>
<ellipse cx="48.4121" cy="21.9139" rx="5.84369" ry="6.72025" fill="#FFD600"/>
<ellipse cx="67.6962" cy="21.9139" rx="5.84369" ry="6.72025" fill="#4EC433"/>
<defs>
<filter id="filter0_d_190_2" x="0" y="0" width="920" height="51" filterUnits="userSpaceOnUse" color-interpolation-filters="sRGB">
<feFlood flood-opacity="0" result="BackgroundImageFix"/>
<feColorMatrix in="SourceAlpha" type="matrix" values="0 0 0 0 0 0 0 0 0 0 0 0 0 0 0 0 0 0 127 0" result="hardAlpha"/>
<feOffset dy="4"/>
<feGaussianBlur stdDeviation="2"/>
<feComposite in2="hardAlpha" operator="out"/>
<feColorMatrix type="matrix" values="0 0 0 0 0 0 0 0 0 0 0 0 0 0 0 0 0 0 0.25 0"/>
<feBlend mode="normal" in2="BackgroundImageFix" result="effect1_dropShadow_190_2"/>
<feBlend mode="normal" in="SourceGraphic" in2="effect1_dropShadow_190_2" result="shape"/>
</filter>
</defs>
</svg>
