<svg width="803" height="150" viewBox="0 0 803 150" fill="none" xmlns="http://www.w3.org/2000/svg">
<rect x="4" width="795" height="131" rx="12" fill="#242526"/>
<path d="M21.676 89.525C21.6 89.525 21.5177 89.4997 21.429 89.449C21.353 89.3983 21.2833 89.3603 21.22 89.335L15.235 85.212C15.045 85.0853 14.9057 84.9587 14.817 84.832C14.7283 84.6927 14.684 84.5343 14.684 84.357V84.015C14.684 83.8377 14.7283 83.6857 14.817 83.559C14.9057 83.4323 15.045 83.2993 15.235 83.16L21.22 79.056C21.2833 79.018 21.353 78.9737 21.429 78.923C21.5177 78.8723 21.6 78.847 21.676 78.847C21.7773 78.847 21.866 78.885 21.942 78.961C22.018 79.0243 22.056 79.1193 22.056 79.246V80.082C22.056 80.2213 22.018 80.3417 21.942 80.443C21.866 80.5317 21.7583 80.6203 21.619 80.709L16.527 84.186L21.619 87.663C21.7583 87.7643 21.866 87.8593 21.942 87.948C22.018 88.0367 22.056 88.157 22.056 88.309V89.145C22.056 89.259 22.018 89.354 21.942 89.43C21.866 89.4933 21.7773 89.525 21.676 89.525ZM692.436 89.506C692.334 89.506 692.246 89.4743 692.17 89.411C692.094 89.3477 692.056 89.2527 692.056 89.126V88.29C692.056 88.138 692.087 88.0177 692.151 87.929C692.227 87.8403 692.341 87.7517 692.493 87.663L697.566 84.186L692.493 80.709C692.341 80.6077 692.227 80.5127 692.151 80.424C692.087 80.3353 692.056 80.215 692.056 80.063V79.227C692.056 79.1003 692.094 79.0053 692.17 78.942C692.246 78.8787 692.334 78.847 692.436 78.847C692.512 78.847 692.594 78.8723 692.683 78.923C692.771 78.961 692.841 78.999 692.892 79.037L698.858 83.141C699.06 83.2803 699.2 83.4133 699.276 83.54C699.364 83.6667 699.409 83.825 699.409 84.015V84.338C699.409 84.5153 699.364 84.6737 699.276 84.813C699.2 84.9397 699.06 85.0727 698.858 85.212L692.892 89.316C692.841 89.354 692.771 89.3983 692.683 89.449C692.594 89.487 692.512 89.506 692.436 89.506Z" fill="#647DFF"/>
<path d="M29.8518 90C29.7251 90 29.6175 89.962 29.5288 89.886C29.4528 89.7973 29.4148 89.6897 29.4148 89.563V80.557C29.4148 80.4303 29.4528 80.329 29.5288 80.253C29.6175 80.1643 29.7251 80.12 29.8518 80.12H30.7638C30.8905 80.12 30.9918 80.1643 31.0678 80.253C31.1438 80.329 31.1818 80.4303 31.1818 80.557V89.563C31.1818 89.6897 31.1438 89.7973 31.0678 89.886C30.9918 89.962 30.8905 90 30.7638 90H29.8518ZM29.6998 78.277C29.5731 78.277 29.4655 78.239 29.3768 78.163C29.3008 78.0743 29.2628 77.9667 29.2628 77.84V76.814C29.2628 76.6873 29.3008 76.586 29.3768 76.51C29.4655 76.4213 29.5731 76.377 29.6998 76.377H30.8968C31.0235 76.377 31.1248 76.4213 31.2008 76.51C31.2895 76.586 31.3338 76.6873 31.3338 76.814V77.84C31.3338 77.9667 31.2895 78.0743 31.2008 78.163C31.1248 78.239 31.0235 78.277 30.8968 78.277H29.6998ZM34.6389 90C34.5122 90 34.4046 89.962 34.3159 89.886C34.2399 89.7973 34.2019 89.6897 34.2019 89.563V80.557C34.2019 80.4303 34.2399 80.329 34.3159 80.253C34.4046 80.1643 34.5122 80.12 34.6389 80.12H35.5319C35.6586 80.12 35.7599 80.1643 35.8359 80.253C35.9246 80.329 35.9689 80.4303 35.9689 80.557V81.393C36.2982 80.9623 36.7099 80.614 37.2039 80.348C37.7106 80.0693 38.3566 79.93 39.1419 79.93C39.9652 79.93 40.6619 80.1137 41.2319 80.481C41.8146 80.8357 42.2516 81.336 42.5429 81.982C42.8342 82.6153 42.9799 83.3563 42.9799 84.205V89.563C42.9799 89.6897 42.9419 89.7973 42.8659 89.886C42.7899 89.962 42.6886 90 42.5619 90H41.6119C41.4852 90 41.3776 89.962 41.2889 89.886C41.2129 89.7973 41.1749 89.6897 41.1749 89.563V84.3C41.1749 83.4133 40.9596 82.723 40.5289 82.229C40.0982 81.7223 39.4649 81.469 38.6289 81.469C37.8436 81.469 37.2102 81.7223 36.7289 82.229C36.2602 82.723 36.0259 83.4133 36.0259 84.3V89.563C36.0259 89.6897 35.9816 89.7973 35.8929 89.886C35.8169 89.962 35.7156 90 35.5889 90H34.6389ZM46.1804 93.61C46.0537 93.61 45.946 93.5657 45.8574 93.477C45.7814 93.401 45.7434 93.2997 45.7434 93.173V80.557C45.7434 80.4303 45.7814 80.329 45.8574 80.253C45.946 80.1643 46.0537 80.12 46.1804 80.12H47.0544C47.181 80.12 47.2824 80.1643 47.3584 80.253C47.447 80.329 47.4914 80.4303 47.4914 80.557V81.393C47.7954 80.975 48.2007 80.6267 48.7074 80.348C49.214 80.0693 49.8474 79.93 50.6074 79.93C51.3167 79.93 51.9184 80.0503 52.4124 80.291C52.919 80.5317 53.3307 80.861 53.6474 81.279C53.9767 81.697 54.2237 82.172 54.3884 82.704C54.553 83.236 54.6417 83.806 54.6544 84.414C54.667 84.6167 54.6734 84.832 54.6734 85.06C54.6734 85.288 54.667 85.5033 54.6544 85.706C54.6417 86.3013 54.553 86.8713 54.3884 87.416C54.2237 87.948 53.9767 88.423 53.6474 88.841C53.3307 89.2463 52.919 89.5757 52.4124 89.829C51.9184 90.0697 51.3167 90.19 50.6074 90.19C49.8727 90.19 49.252 90.057 48.7454 89.791C48.2514 89.5123 47.846 89.1703 47.5294 88.765V93.173C47.5294 93.2997 47.4914 93.401 47.4154 93.477C47.3394 93.5657 47.2317 93.61 47.0924 93.61H46.1804ZM50.2084 88.651C50.867 88.651 51.38 88.5117 51.7474 88.233C52.1274 87.9417 52.3997 87.568 52.5644 87.112C52.729 86.6433 52.824 86.143 52.8494 85.611C52.862 85.2437 52.862 84.8763 52.8494 84.509C52.824 83.977 52.729 83.483 52.5644 83.027C52.3997 82.5583 52.1274 82.1847 51.7474 81.906C51.38 81.6147 50.867 81.469 50.2084 81.469C49.5877 81.469 49.081 81.6147 48.6884 81.906C48.3084 82.1973 48.0234 82.571 47.8334 83.027C47.656 83.4703 47.5547 83.9263 47.5294 84.395C47.5167 84.5977 47.5104 84.8383 47.5104 85.117C47.5104 85.3957 47.5167 85.6427 47.5294 85.858C47.542 86.3013 47.6434 86.7383 47.8334 87.169C48.036 87.5997 48.3337 87.9543 48.7264 88.233C49.119 88.5117 49.613 88.651 50.2084 88.651ZM60.7287 90.19C59.9181 90.19 59.2277 90.0127 58.6577 89.658C58.1004 89.2907 57.6761 88.784 57.3847 88.138C57.0934 87.492 56.9477 86.751 56.9477 85.915V80.557C56.9477 80.4303 56.9857 80.329 57.0617 80.253C57.1504 80.1643 57.2581 80.12 57.3847 80.12H58.3347C58.4614 80.12 58.5627 80.1643 58.6387 80.253C58.7274 80.329 58.7717 80.4303 58.7717 80.557V85.82C58.7717 87.7073 59.5951 88.651 61.2417 88.651C62.0271 88.651 62.6541 88.404 63.1227 87.91C63.6041 87.4033 63.8447 86.7067 63.8447 85.82V80.557C63.8447 80.4303 63.8827 80.329 63.9587 80.253C64.0474 80.1643 64.1551 80.12 64.2817 80.12H65.2127C65.3521 80.12 65.4597 80.1643 65.5357 80.253C65.6117 80.329 65.6497 80.4303 65.6497 80.557V89.563C65.6497 89.6897 65.6117 89.7973 65.5357 89.886C65.4597 89.962 65.3521 90 65.2127 90H64.3387C64.2121 90 64.1044 89.962 64.0157 89.886C63.9397 89.7973 63.9017 89.6897 63.9017 89.563V88.727C63.5597 89.1703 63.1417 89.525 62.6477 89.791C62.1664 90.057 61.5267 90.19 60.7287 90.19ZM72.3294 90C71.6201 90 71.0437 89.867 70.6004 89.601C70.1571 89.3223 69.8341 88.936 69.6314 88.442C69.4287 87.9353 69.3274 87.34 69.3274 86.656V81.64H67.8454C67.7187 81.64 67.6111 81.602 67.5224 81.526C67.4464 81.4373 67.4084 81.3297 67.4084 81.203V80.557C67.4084 80.4303 67.4464 80.329 67.5224 80.253C67.6111 80.1643 67.7187 80.12 67.8454 80.12H69.3274V76.947C69.3274 76.8203 69.3654 76.719 69.4414 76.643C69.5301 76.5543 69.6377 76.51 69.7644 76.51H70.6574C70.7841 76.51 70.8854 76.5543 70.9614 76.643C71.0501 76.719 71.0944 76.8203 71.0944 76.947V80.12H73.4504C73.5771 80.12 73.6784 80.1643 73.7544 80.253C73.8431 80.329 73.8874 80.4303 73.8874 80.557V81.203C73.8874 81.3297 73.8431 81.4373 73.7544 81.526C73.6784 81.602 73.5771 81.64 73.4504 81.64H71.0944V86.523C71.0944 87.1183 71.1957 87.587 71.3984 87.929C71.6011 88.271 71.9621 88.442 72.4814 88.442H73.6404C73.7671 88.442 73.8684 88.4863 73.9444 88.575C74.0331 88.651 74.0774 88.7523 74.0774 88.879V89.563C74.0774 89.6897 74.0331 89.7973 73.9444 89.886C73.8684 89.962 73.7671 90 73.6404 90H72.3294ZM84.0003 90C83.291 90 82.7146 89.867 82.2713 89.601C81.828 89.3223 81.505 88.936 81.3023 88.442C81.0996 87.9353 80.9983 87.34 80.9983 86.656V81.64H79.5163C79.3896 81.64 79.282 81.602 79.1933 81.526C79.1173 81.4373 79.0793 81.3297 79.0793 81.203V80.557C79.0793 80.4303 79.1173 80.329 79.1933 80.253C79.282 80.1643 79.3896 80.12 79.5163 80.12H80.9983V76.947C80.9983 76.8203 81.0363 76.719 81.1123 76.643C81.201 76.5543 81.3086 76.51 81.4353 76.51H82.3283C82.455 76.51 82.5563 76.5543 82.6323 76.643C82.721 76.719 82.7653 76.8203 82.7653 76.947V80.12H85.1213C85.248 80.12 85.3493 80.1643 85.4253 80.253C85.514 80.329 85.5583 80.4303 85.5583 80.557V81.203C85.5583 81.3297 85.514 81.4373 85.4253 81.526C85.3493 81.602 85.248 81.64 85.1213 81.64H82.7653V86.523C82.7653 87.1183 82.8666 87.587 83.0693 87.929C83.272 88.271 83.633 88.442 84.1523 88.442H85.3113C85.438 88.442 85.5393 88.4863 85.6153 88.575C85.704 88.651 85.7483 88.7523 85.7483 88.879V89.563C85.7483 89.6897 85.704 89.7973 85.6153 89.886C85.5393 89.962 85.438 90 85.3113 90H84.0003ZM89.2942 93.61C89.1928 93.61 89.1042 93.572 89.0282 93.496C88.9522 93.42 88.9142 93.3313 88.9142 93.23C88.9142 93.1793 88.9205 93.1287 88.9332 93.078C88.9458 93.0273 88.9712 92.964 89.0092 92.888L90.4722 89.411L86.8432 80.842C86.7798 80.69 86.7482 80.5823 86.7482 80.519C86.7482 80.405 86.7862 80.31 86.8622 80.234C86.9382 80.158 87.0332 80.12 87.1472 80.12H88.0782C88.2048 80.12 88.3062 80.1517 88.3822 80.215C88.4582 80.2783 88.5088 80.3543 88.5342 80.443L91.4222 87.359L94.3862 80.443C94.4242 80.3543 94.4748 80.2783 94.5382 80.215C94.6142 80.1517 94.7218 80.12 94.8612 80.12H95.7542C95.8682 80.12 95.9632 80.158 96.0392 80.234C96.1152 80.31 96.1532 80.3987 96.1532 80.5C96.1532 80.5633 96.1215 80.6773 96.0582 80.842L90.6622 93.287C90.6242 93.3757 90.5672 93.4517 90.4912 93.515C90.4278 93.5783 90.3265 93.61 90.1872 93.61H89.2942ZM98.486 93.61C98.3594 93.61 98.2517 93.5657 98.163 93.477C98.087 93.401 98.049 93.2997 98.049 93.173V80.557C98.049 80.4303 98.087 80.329 98.163 80.253C98.2517 80.1643 98.3594 80.12 98.486 80.12H99.36C99.4867 80.12 99.588 80.1643 99.664 80.253C99.7527 80.329 99.797 80.4303 99.797 80.557V81.393C100.101 80.975 100.506 80.6267 101.013 80.348C101.52 80.0693 102.153 79.93 102.913 79.93C103.622 79.93 104.224 80.0503 104.718 80.291C105.225 80.5317 105.636 80.861 105.953 81.279C106.282 81.697 106.529 82.172 106.694 82.704C106.859 83.236 106.947 83.806 106.96 84.414C106.973 84.6167 106.979 84.832 106.979 85.06C106.979 85.288 106.973 85.5033 106.96 85.706C106.947 86.3013 106.859 86.8713 106.694 87.416C106.529 87.948 106.282 88.423 105.953 88.841C105.636 89.2463 105.225 89.5757 104.718 89.829C104.224 90.0697 103.622 90.19 102.913 90.19C102.178 90.19 101.558 90.057 101.051 89.791C100.557 89.5123 100.152 89.1703 99.835 88.765V93.173C99.835 93.2997 99.797 93.401 99.721 93.477C99.645 93.5657 99.5374 93.61 99.398 93.61H98.486ZM102.514 88.651C103.173 88.651 103.686 88.5117 104.053 88.233C104.433 87.9417 104.705 87.568 104.87 87.112C105.035 86.6433 105.13 86.143 105.155 85.611C105.168 85.2437 105.168 84.8763 105.155 84.509C105.13 83.977 105.035 83.483 104.87 83.027C104.705 82.5583 104.433 82.1847 104.053 81.906C103.686 81.6147 103.173 81.469 102.514 81.469C101.893 81.469 101.387 81.6147 100.994 81.906C100.614 82.1973 100.329 82.571 100.139 83.027C99.9617 83.4703 99.8604 83.9263 99.835 84.395C99.8224 84.5977 99.816 84.8383 99.816 85.117C99.816 85.3957 99.8224 85.6427 99.835 85.858C99.8477 86.3013 99.949 86.7383 100.139 87.169C100.342 87.5997 100.639 87.9543 101.032 88.233C101.425 88.5117 101.919 88.651 102.514 88.651ZM113.281 90.19C111.977 90.19 110.938 89.791 110.165 88.993C109.393 88.1823 108.968 87.0803 108.892 85.687C108.88 85.5223 108.873 85.3133 108.873 85.06C108.873 84.794 108.88 84.5787 108.892 84.414C108.943 83.5147 109.152 82.7293 109.519 82.058C109.887 81.374 110.387 80.8483 111.02 80.481C111.666 80.1137 112.42 79.93 113.281 79.93C114.244 79.93 115.048 80.1327 115.694 80.538C116.353 80.9433 116.853 81.5197 117.195 82.267C117.537 83.0143 117.708 83.8883 117.708 84.889V85.212C117.708 85.3513 117.664 85.459 117.575 85.535C117.499 85.611 117.398 85.649 117.271 85.649H110.697C110.697 85.6617 110.697 85.687 110.697 85.725C110.697 85.763 110.697 85.7947 110.697 85.82C110.723 86.3393 110.837 86.827 111.039 87.283C111.242 87.7263 111.533 88.0873 111.913 88.366C112.293 88.6447 112.749 88.784 113.281 88.784C113.737 88.784 114.117 88.7143 114.421 88.575C114.725 88.4357 114.972 88.2837 115.162 88.119C115.352 87.9417 115.479 87.8087 115.542 87.72C115.656 87.5553 115.745 87.4603 115.808 87.435C115.872 87.397 115.973 87.378 116.112 87.378H117.024C117.151 87.378 117.252 87.416 117.328 87.492C117.417 87.5553 117.455 87.6503 117.442 87.777C117.43 87.967 117.328 88.2013 117.138 88.48C116.948 88.746 116.676 89.012 116.321 89.278C115.967 89.544 115.536 89.7657 115.029 89.943C114.523 90.1077 113.94 90.19 113.281 90.19ZM110.697 84.338H115.903V84.281C115.903 83.711 115.796 83.2043 115.58 82.761C115.378 82.3177 115.08 81.9693 114.687 81.716C114.295 81.45 113.826 81.317 113.281 81.317C112.737 81.317 112.268 81.45 111.875 81.716C111.495 81.9693 111.204 82.3177 111.001 82.761C110.799 83.2043 110.697 83.711 110.697 84.281V84.338ZM125.017 82.666C124.891 82.666 124.789 82.628 124.713 82.552C124.637 82.476 124.599 82.3747 124.599 82.248V81.602C124.599 81.4753 124.637 81.374 124.713 81.298C124.789 81.222 124.891 81.184 125.017 81.184H132.256C132.383 81.184 132.484 81.222 132.56 81.298C132.649 81.374 132.693 81.4753 132.693 81.602V82.248C132.693 82.3747 132.649 82.476 132.56 82.552C132.484 82.628 132.383 82.666 132.256 82.666H125.017ZM125.017 87.416C124.891 87.416 124.789 87.378 124.713 87.302C124.637 87.226 124.599 87.1247 124.599 86.998V86.352C124.599 86.2253 124.637 86.124 124.713 86.048C124.789 85.972 124.891 85.934 125.017 85.934H132.256C132.383 85.934 132.484 85.972 132.56 86.048C132.649 86.124 132.693 86.2253 132.693 86.352V86.998C132.693 87.1247 132.649 87.226 132.56 87.302C132.484 87.378 132.383 87.416 132.256 87.416H125.017ZM143.038 80.177C142.949 80.177 142.873 80.1453 142.81 80.082C142.759 80.0187 142.734 79.9427 142.734 79.854C142.734 79.7527 142.753 79.6513 142.791 79.55L143.798 76.947C143.861 76.8203 143.924 76.719 143.988 76.643C144.064 76.5543 144.184 76.51 144.349 76.51H144.976C145.077 76.51 145.153 76.548 145.204 76.624C145.267 76.7 145.286 76.8013 145.261 76.928L144.843 79.626C144.83 79.778 144.779 79.911 144.691 80.025C144.602 80.1263 144.469 80.177 144.292 80.177H143.038ZM139.998 80.177C139.909 80.177 139.833 80.1453 139.77 80.082C139.719 80.0187 139.694 79.9427 139.694 79.854C139.694 79.7527 139.713 79.6513 139.751 79.55L140.758 76.947C140.821 76.8203 140.891 76.719 140.967 76.643C141.043 76.5543 141.157 76.51 141.309 76.51H141.936C142.037 76.51 142.113 76.548 142.164 76.624C142.227 76.7 142.246 76.8013 142.221 76.928L141.803 79.626C141.79 79.778 141.739 79.911 141.651 80.025C141.562 80.1263 141.435 80.177 141.271 80.177H139.998ZM219.968 80.177C219.854 80.177 219.772 80.139 219.721 80.063C219.67 79.987 219.651 79.892 219.664 79.778L220.082 77.061C220.107 76.909 220.158 76.7823 220.234 76.681C220.323 76.567 220.456 76.51 220.633 76.51H221.887C221.988 76.51 222.064 76.548 222.115 76.624C222.178 76.6873 222.21 76.757 222.21 76.833C222.21 76.9343 222.185 77.0357 222.134 77.137L221.146 79.74C221.095 79.8667 221.026 79.9743 220.937 80.063C220.861 80.139 220.741 80.177 220.576 80.177H219.968ZM216.928 80.177C216.827 80.177 216.744 80.139 216.681 80.063C216.63 79.987 216.611 79.892 216.624 79.778L217.061 77.061C217.086 76.909 217.137 76.7823 217.213 76.681C217.302 76.567 217.428 76.51 217.593 76.51H218.866C218.955 76.51 219.024 76.548 219.075 76.624C219.138 76.6873 219.17 76.757 219.17 76.833C219.17 76.9343 219.145 77.0357 219.094 77.137L218.106 79.74C218.055 79.8667 217.986 79.9743 217.897 80.063C217.821 80.139 217.701 80.177 217.536 80.177H216.928ZM233.017 90.19C232.055 90.19 231.25 90.0063 230.604 89.639C229.958 89.2717 229.464 88.765 229.122 88.119C228.78 87.4603 228.59 86.713 228.552 85.877C228.54 85.6617 228.533 85.3893 228.533 85.06C228.533 84.718 228.54 84.4457 228.552 84.243C228.59 83.3943 228.78 82.647 229.122 82.001C229.477 81.355 229.977 80.8483 230.623 80.481C231.269 80.1137 232.067 79.93 233.017 79.93C233.967 79.93 234.765 80.1137 235.411 80.481C236.057 80.8483 236.551 81.355 236.893 82.001C237.248 82.647 237.444 83.3943 237.482 84.243C237.495 84.4457 237.501 84.718 237.501 85.06C237.501 85.3893 237.495 85.6617 237.482 85.877C237.444 86.713 237.254 87.4603 236.912 88.119C236.57 88.765 236.076 89.2717 235.43 89.639C234.784 90.0063 233.98 90.19 233.017 90.19ZM233.017 88.727C233.803 88.727 234.43 88.48 234.898 87.986C235.367 87.4793 235.62 86.7447 235.658 85.782C235.671 85.592 235.677 85.3513 235.677 85.06C235.677 84.7687 235.671 84.528 235.658 84.338C235.62 83.3753 235.367 82.647 234.898 82.153C234.43 81.6463 233.803 81.393 233.017 81.393C232.232 81.393 231.599 81.6463 231.117 82.153C230.649 82.647 230.402 83.3753 230.376 84.338C230.364 84.528 230.357 84.7687 230.357 85.06C230.357 85.3513 230.364 85.592 230.376 85.782C230.402 86.7447 230.649 87.4793 231.117 87.986C231.599 88.48 232.232 88.727 233.017 88.727ZM240.318 90C240.191 90 240.083 89.962 239.995 89.886C239.919 89.7973 239.881 89.6897 239.881 89.563V80.557C239.881 80.4303 239.919 80.329 239.995 80.253C240.083 80.1643 240.191 80.12 240.318 80.12H241.211C241.337 80.12 241.439 80.1643 241.515 80.253C241.603 80.329 241.648 80.4303 241.648 80.557V81.393C241.977 80.9623 242.389 80.614 242.883 80.348C243.389 80.0693 244.035 79.93 244.821 79.93C245.644 79.93 246.341 80.1137 246.911 80.481C247.493 80.8357 247.93 81.336 248.222 81.982C248.513 82.6153 248.659 83.3563 248.659 84.205V89.563C248.659 89.6897 248.621 89.7973 248.545 89.886C248.469 89.962 248.367 90 248.241 90H247.291C247.164 90 247.056 89.962 246.968 89.886C246.892 89.7973 246.854 89.6897 246.854 89.563V84.3C246.854 83.4133 246.638 82.723 246.208 82.229C245.777 81.7223 245.144 81.469 244.308 81.469C243.522 81.469 242.889 81.7223 242.408 82.229C241.939 82.723 241.705 83.4133 241.705 84.3V89.563C241.705 89.6897 241.66 89.7973 241.572 89.886C241.496 89.962 241.394 90 241.268 90H240.318ZM255.393 90.19C254.494 90.19 253.715 90.019 253.056 89.677C252.41 89.3223 251.91 88.822 251.555 88.176C251.2 87.5173 251.01 86.732 250.985 85.82C250.972 85.63 250.966 85.3767 250.966 85.06C250.966 84.7433 250.972 84.49 250.985 84.3C251.01 83.388 251.2 82.609 251.555 81.963C251.91 81.3043 252.41 80.804 253.056 80.462C253.715 80.1073 254.494 79.93 255.393 79.93C256.128 79.93 256.755 80.0313 257.274 80.234C257.806 80.4367 258.243 80.6963 258.585 81.013C258.927 81.3297 259.18 81.6717 259.345 82.039C259.522 82.4063 259.617 82.7547 259.63 83.084C259.643 83.2107 259.605 83.312 259.516 83.388C259.427 83.464 259.32 83.502 259.193 83.502H258.281C258.154 83.502 258.059 83.4767 257.996 83.426C257.933 83.3627 257.869 83.2613 257.806 83.122C257.578 82.5013 257.268 82.0643 256.875 81.811C256.482 81.5577 255.995 81.431 255.412 81.431C254.652 81.431 254.031 81.6653 253.55 82.134C253.081 82.6027 252.828 83.3563 252.79 84.395C252.777 84.851 252.777 85.2943 252.79 85.725C252.828 86.7763 253.081 87.5363 253.55 88.005C254.031 88.461 254.652 88.689 255.412 88.689C255.995 88.689 256.482 88.5623 256.875 88.309C257.268 88.0557 257.578 87.6187 257.806 86.998C257.869 86.8587 257.933 86.7637 257.996 86.713C258.059 86.6497 258.154 86.618 258.281 86.618H259.193C259.32 86.618 259.427 86.656 259.516 86.732C259.605 86.808 259.643 86.9093 259.63 87.036C259.617 87.302 259.56 87.5743 259.459 87.853C259.358 88.1317 259.193 88.4167 258.965 88.708C258.75 88.9867 258.477 89.24 258.148 89.468C257.819 89.6833 257.42 89.8607 256.951 90C256.495 90.1267 255.976 90.19 255.393 90.19ZM262.342 90C262.216 90 262.108 89.962 262.019 89.886C261.943 89.7973 261.905 89.6897 261.905 89.563V76.947C261.905 76.8203 261.943 76.719 262.019 76.643C262.108 76.5543 262.216 76.51 262.342 76.51H263.235C263.375 76.51 263.482 76.5543 263.558 76.643C263.634 76.719 263.672 76.8203 263.672 76.947V89.563C263.672 89.6897 263.634 89.7973 263.558 89.886C263.482 89.962 263.375 90 263.235 90H262.342ZM267.129 90C267.002 90 266.895 89.962 266.806 89.886C266.73 89.7973 266.692 89.6897 266.692 89.563V80.557C266.692 80.4303 266.73 80.329 266.806 80.253C266.895 80.1643 267.002 80.12 267.129 80.12H268.041C268.168 80.12 268.269 80.1643 268.345 80.253C268.421 80.329 268.459 80.4303 268.459 80.557V89.563C268.459 89.6897 268.421 89.7973 268.345 89.886C268.269 89.962 268.168 90 268.041 90H267.129ZM266.977 78.277C266.85 78.277 266.743 78.239 266.654 78.163C266.578 78.0743 266.54 77.9667 266.54 77.84V76.814C266.54 76.6873 266.578 76.586 266.654 76.51C266.743 76.4213 266.85 76.377 266.977 76.377H268.174C268.301 76.377 268.402 76.4213 268.478 76.51C268.567 76.586 268.611 76.6873 268.611 76.814V77.84C268.611 77.9667 268.567 78.0743 268.478 78.163C268.402 78.239 268.301 78.277 268.174 78.277H266.977ZM275.321 90.19C274.421 90.19 273.642 90.019 272.984 89.677C272.338 89.3223 271.837 88.822 271.483 88.176C271.128 87.5173 270.938 86.732 270.913 85.82C270.9 85.63 270.894 85.3767 270.894 85.06C270.894 84.7433 270.9 84.49 270.913 84.3C270.938 83.388 271.128 82.609 271.483 81.963C271.837 81.3043 272.338 80.804 272.984 80.462C273.642 80.1073 274.421 79.93 275.321 79.93C276.055 79.93 276.682 80.0313 277.202 80.234C277.734 80.4367 278.171 80.6963 278.513 81.013C278.855 81.3297 279.108 81.6717 279.273 82.039C279.45 82.4063 279.545 82.7547 279.558 83.084C279.57 83.2107 279.532 83.312 279.444 83.388C279.355 83.464 279.247 83.502 279.121 83.502H278.209C278.082 83.502 277.987 83.4767 277.924 83.426C277.86 83.3627 277.797 83.2613 277.734 83.122C277.506 82.5013 277.195 82.0643 276.803 81.811C276.41 81.5577 275.922 81.431 275.34 81.431C274.58 81.431 273.959 81.6653 273.478 82.134C273.009 82.6027 272.756 83.3563 272.718 84.395C272.705 84.851 272.705 85.2943 272.718 85.725C272.756 86.7763 273.009 87.5363 273.478 88.005C273.959 88.461 274.58 88.689 275.34 88.689C275.922 88.689 276.41 88.5623 276.803 88.309C277.195 88.0557 277.506 87.6187 277.734 86.998C277.797 86.8587 277.86 86.7637 277.924 86.713C277.987 86.6497 278.082 86.618 278.209 86.618H279.121C279.247 86.618 279.355 86.656 279.444 86.732C279.532 86.808 279.57 86.9093 279.558 87.036C279.545 87.302 279.488 87.5743 279.387 87.853C279.285 88.1317 279.121 88.4167 278.893 88.708C278.677 88.9867 278.405 89.24 278.076 89.468C277.746 89.6833 277.347 89.8607 276.879 90C276.423 90.1267 275.903 90.19 275.321 90.19ZM282.27 90C282.144 90 282.036 89.962 281.947 89.886C281.871 89.7973 281.833 89.6897 281.833 89.563V76.947C281.833 76.8203 281.871 76.719 281.947 76.643C282.036 76.5543 282.144 76.51 282.27 76.51H283.163C283.29 76.51 283.391 76.5543 283.467 76.643C283.556 76.719 283.6 76.8203 283.6 76.947V83.559L287.343 80.443C287.495 80.3163 287.609 80.234 287.685 80.196C287.774 80.1453 287.913 80.12 288.103 80.12H289.11C289.224 80.12 289.319 80.158 289.395 80.234C289.471 80.31 289.509 80.405 289.509 80.519C289.509 80.5697 289.49 80.6267 289.452 80.69C289.427 80.7533 289.37 80.8167 289.281 80.88L284.892 84.528L289.756 89.259C289.908 89.3857 289.984 89.4997 289.984 89.601C289.984 89.715 289.946 89.81 289.87 89.886C289.794 89.962 289.699 90 289.585 90H288.597C288.407 90 288.268 89.981 288.179 89.943C288.091 89.8923 287.977 89.8037 287.837 89.677L283.6 85.63V89.563C283.6 89.6897 283.556 89.7973 283.467 89.886C283.391 89.962 283.29 90 283.163 90H282.27ZM296.463 82.666C296.336 82.666 296.235 82.628 296.159 82.552C296.083 82.476 296.045 82.3747 296.045 82.248V81.602C296.045 81.4753 296.083 81.374 296.159 81.298C296.235 81.222 296.336 81.184 296.463 81.184H303.702C303.828 81.184 303.93 81.222 304.006 81.298C304.094 81.374 304.139 81.4753 304.139 81.602V82.248C304.139 82.3747 304.094 82.476 304.006 82.552C303.93 82.628 303.828 82.666 303.702 82.666H296.463ZM296.463 87.416C296.336 87.416 296.235 87.378 296.159 87.302C296.083 87.226 296.045 87.1247 296.045 86.998V86.352C296.045 86.2253 296.083 86.124 296.159 86.048C296.235 85.972 296.336 85.934 296.463 85.934H303.702C303.828 85.934 303.93 85.972 304.006 86.048C304.094 86.124 304.139 86.2253 304.139 86.352V86.998C304.139 87.1247 304.094 87.226 304.006 87.302C303.93 87.378 303.828 87.416 303.702 87.416H296.463ZM314.483 80.177C314.394 80.177 314.318 80.1453 314.255 80.082C314.204 80.0187 314.179 79.9427 314.179 79.854C314.179 79.7527 314.198 79.6513 314.236 79.55L315.243 76.947C315.306 76.8203 315.37 76.719 315.433 76.643C315.509 76.5543 315.629 76.51 315.794 76.51H316.421C316.522 76.51 316.598 76.548 316.649 76.624C316.712 76.7 316.731 76.8013 316.706 76.928L316.288 79.626C316.275 79.778 316.225 79.911 316.136 80.025C316.047 80.1263 315.914 80.177 315.737 80.177H314.483ZM311.443 80.177C311.354 80.177 311.278 80.1453 311.215 80.082C311.164 80.0187 311.139 79.9427 311.139 79.854C311.139 79.7527 311.158 79.6513 311.196 79.55L312.203 76.947C312.266 76.8203 312.336 76.719 312.412 76.643C312.488 76.5543 312.602 76.51 312.754 76.51H313.381C313.482 76.51 313.558 76.548 313.609 76.624C313.672 76.7 313.691 76.8013 313.666 76.928L313.248 79.626C313.235 79.778 313.185 79.911 313.096 80.025C313.007 80.1263 312.881 80.177 312.716 80.177H311.443ZM519.457 80.177C519.368 80.177 519.292 80.1453 519.229 80.082C519.178 80.0187 519.153 79.9427 519.153 79.854C519.153 79.7527 519.172 79.6513 519.21 79.55L520.217 76.947C520.28 76.8203 520.343 76.719 520.407 76.643C520.483 76.5543 520.603 76.51 520.768 76.51H521.395C521.496 76.51 521.572 76.548 521.623 76.624C521.686 76.7 521.705 76.8013 521.68 76.928L521.262 79.626C521.249 79.778 521.198 79.911 521.11 80.025C521.021 80.1263 520.888 80.177 520.711 80.177H519.457ZM516.417 80.177C516.328 80.177 516.252 80.1453 516.189 80.082C516.138 80.0187 516.113 79.9427 516.113 79.854C516.113 79.7527 516.132 79.6513 516.17 79.55L517.177 76.947C517.24 76.8203 517.31 76.719 517.386 76.643C517.462 76.5543 517.576 76.51 517.728 76.51H518.355C518.456 76.51 518.532 76.548 518.583 76.624C518.646 76.7 518.665 76.8013 518.64 76.928L518.222 79.626C518.209 79.778 518.158 79.911 518.07 80.025C517.981 80.1263 517.854 80.177 517.69 80.177H516.417ZM531.641 90C531.451 90 531.299 89.9557 531.185 89.867C531.084 89.7783 531.001 89.6643 530.938 89.525L527.423 80.709C527.398 80.6457 527.385 80.5823 527.385 80.519C527.385 80.405 527.423 80.31 527.499 80.234C527.575 80.158 527.67 80.12 527.784 80.12H528.696C528.835 80.12 528.943 80.158 529.019 80.234C529.095 80.31 529.139 80.3797 529.152 80.443L532.059 87.929L534.947 80.443C534.972 80.3797 535.017 80.31 535.08 80.234C535.156 80.158 535.264 80.12 535.403 80.12H536.334C536.435 80.12 536.524 80.158 536.6 80.234C536.689 80.31 536.733 80.405 536.733 80.519C536.733 80.5823 536.72 80.6457 536.695 80.709L533.161 89.525C533.11 89.6643 533.028 89.7783 532.914 89.867C532.813 89.9557 532.661 90 532.458 90H531.641ZM541.106 90.19C540.473 90.19 539.897 90.0633 539.377 89.81C538.858 89.5567 538.44 89.2147 538.123 88.784C537.807 88.3533 537.648 87.8657 537.648 87.321C537.648 86.447 538.003 85.7503 538.712 85.231C539.422 84.7117 540.346 84.3697 541.486 84.205L544.317 83.806V83.255C544.317 82.647 544.14 82.172 543.785 81.83C543.443 81.488 542.88 81.317 542.094 81.317C541.524 81.317 541.062 81.431 540.707 81.659C540.365 81.887 540.125 82.1783 539.985 82.533C539.909 82.723 539.776 82.818 539.586 82.818H538.731C538.592 82.818 538.484 82.78 538.408 82.704C538.345 82.6153 538.313 82.514 538.313 82.4C538.313 82.21 538.383 81.9757 538.522 81.697C538.674 81.4183 538.902 81.146 539.206 80.88C539.51 80.614 539.897 80.3923 540.365 80.215C540.847 80.025 541.429 79.93 542.113 79.93C542.873 79.93 543.513 80.0313 544.032 80.234C544.552 80.424 544.957 80.6837 545.248 81.013C545.552 81.3423 545.768 81.716 545.894 82.134C546.034 82.552 546.103 82.9763 546.103 83.407V89.563C546.103 89.6897 546.059 89.7973 545.97 89.886C545.894 89.962 545.793 90 545.666 90H544.792C544.653 90 544.545 89.962 544.469 89.886C544.393 89.7973 544.355 89.6897 544.355 89.563V88.746C544.191 88.974 543.969 89.202 543.69 89.43C543.412 89.6453 543.063 89.829 542.645 89.981C542.227 90.1203 541.714 90.19 541.106 90.19ZM541.505 88.765C542.025 88.765 542.5 88.6573 542.93 88.442C543.361 88.214 543.697 87.8657 543.937 87.397C544.191 86.9283 544.317 86.3393 544.317 85.63V85.098L542.113 85.421C541.214 85.5477 540.536 85.763 540.08 86.067C539.624 86.3583 539.396 86.732 539.396 87.188C539.396 87.5427 539.498 87.8403 539.7 88.081C539.916 88.309 540.182 88.48 540.498 88.594C540.828 88.708 541.163 88.765 541.505 88.765ZM549.291 90C549.164 90 549.056 89.962 548.968 89.886C548.892 89.7973 548.854 89.6897 548.854 89.563V76.947C548.854 76.8203 548.892 76.719 548.968 76.643C549.056 76.5543 549.164 76.51 549.291 76.51H550.184C550.323 76.51 550.431 76.5543 550.507 76.643C550.583 76.719 550.621 76.8203 550.621 76.947V89.563C550.621 89.6897 550.583 89.7973 550.507 89.886C550.431 89.962 550.323 90 550.184 90H549.291ZM557.141 90.19C556.33 90.19 555.64 90.0127 555.07 89.658C554.512 89.2907 554.088 88.784 553.797 88.138C553.505 87.492 553.36 86.751 553.36 85.915V80.557C553.36 80.4303 553.398 80.329 553.474 80.253C553.562 80.1643 553.67 80.12 553.797 80.12H554.747C554.873 80.12 554.975 80.1643 555.051 80.253C555.139 80.329 555.184 80.4303 555.184 80.557V85.82C555.184 87.7073 556.007 88.651 557.654 88.651C558.439 88.651 559.066 88.404 559.535 87.91C560.016 87.4033 560.257 86.7067 560.257 85.82V80.557C560.257 80.4303 560.295 80.329 560.371 80.253C560.459 80.1643 560.567 80.12 560.694 80.12H561.625C561.764 80.12 561.872 80.1643 561.948 80.253C562.024 80.329 562.062 80.4303 562.062 80.557V89.563C562.062 89.6897 562.024 89.7973 561.948 89.886C561.872 89.962 561.764 90 561.625 90H560.751C560.624 90 560.516 89.962 560.428 89.886C560.352 89.7973 560.314 89.6897 560.314 89.563V88.727C559.972 89.1703 559.554 89.525 559.06 89.791C558.578 90.057 557.939 90.19 557.141 90.19ZM568.818 90.19C567.513 90.19 566.474 89.791 565.702 88.993C564.929 88.1823 564.505 87.0803 564.429 85.687C564.416 85.5223 564.41 85.3133 564.41 85.06C564.41 84.794 564.416 84.5787 564.429 84.414C564.479 83.5147 564.688 82.7293 565.056 82.058C565.423 81.374 565.923 80.8483 566.557 80.481C567.203 80.1137 567.956 79.93 568.818 79.93C569.78 79.93 570.585 80.1327 571.231 80.538C571.889 80.9433 572.39 81.5197 572.732 82.267C573.074 83.0143 573.245 83.8883 573.245 84.889V85.212C573.245 85.3513 573.2 85.459 573.112 85.535C573.036 85.611 572.934 85.649 572.808 85.649H566.234C566.234 85.6617 566.234 85.687 566.234 85.725C566.234 85.763 566.234 85.7947 566.234 85.82C566.259 86.3393 566.373 86.827 566.576 87.283C566.778 87.7263 567.07 88.0873 567.45 88.366C567.83 88.6447 568.286 88.784 568.818 88.784C569.274 88.784 569.654 88.7143 569.958 88.575C570.262 88.4357 570.509 88.2837 570.699 88.119C570.889 87.9417 571.015 87.8087 571.079 87.72C571.193 87.5553 571.281 87.4603 571.345 87.435C571.408 87.397 571.509 87.378 571.649 87.378H572.561C572.687 87.378 572.789 87.416 572.865 87.492C572.953 87.5553 572.991 87.6503 572.979 87.777C572.966 87.967 572.865 88.2013 572.675 88.48C572.485 88.746 572.212 89.012 571.858 89.278C571.503 89.544 571.072 89.7657 570.566 89.943C570.059 90.1077 569.476 90.19 568.818 90.19ZM566.234 84.338H571.44V84.281C571.44 83.711 571.332 83.2043 571.117 82.761C570.914 82.3177 570.616 81.9693 570.224 81.716C569.831 81.45 569.362 81.317 568.818 81.317C568.273 81.317 567.804 81.45 567.412 81.716C567.032 81.9693 566.74 82.3177 566.538 82.761C566.335 83.2043 566.234 83.711 566.234 84.281V84.338ZM580.554 82.666C580.427 82.666 580.326 82.628 580.25 82.552C580.174 82.476 580.136 82.3747 580.136 82.248V81.602C580.136 81.4753 580.174 81.374 580.25 81.298C580.326 81.222 580.427 81.184 580.554 81.184H587.793C587.919 81.184 588.021 81.222 588.097 81.298C588.185 81.374 588.23 81.4753 588.23 81.602V82.248C588.23 82.3747 588.185 82.476 588.097 82.552C588.021 82.628 587.919 82.666 587.793 82.666H580.554ZM580.554 87.416C580.427 87.416 580.326 87.378 580.25 87.302C580.174 87.226 580.136 87.1247 580.136 86.998V86.352C580.136 86.2253 580.174 86.124 580.25 86.048C580.326 85.972 580.427 85.934 580.554 85.934H587.793C587.919 85.934 588.021 85.972 588.097 86.048C588.185 86.124 588.23 86.2253 588.23 86.352V86.998C588.23 87.1247 588.185 87.226 588.097 87.302C588.021 87.378 587.919 87.416 587.793 87.416H580.554ZM598.574 80.177C598.485 80.177 598.409 80.1453 598.346 80.082C598.295 80.0187 598.27 79.9427 598.27 79.854C598.27 79.7527 598.289 79.6513 598.327 79.55L599.334 76.947C599.397 76.8203 599.46 76.719 599.524 76.643C599.6 76.5543 599.72 76.51 599.885 76.51H600.512C600.613 76.51 600.689 76.548 600.74 76.624C600.803 76.7 600.822 76.8013 600.797 76.928L600.379 79.626C600.366 79.778 600.315 79.911 600.227 80.025C600.138 80.1263 600.005 80.177 599.828 80.177H598.574ZM595.534 80.177C595.445 80.177 595.369 80.1453 595.306 80.082C595.255 80.0187 595.23 79.9427 595.23 79.854C595.23 79.7527 595.249 79.6513 595.287 79.55L596.294 76.947C596.357 76.8203 596.427 76.719 596.503 76.643C596.579 76.5543 596.693 76.51 596.845 76.51H597.472C597.573 76.51 597.649 76.548 597.7 76.624C597.763 76.7 597.782 76.8013 597.757 76.928L597.339 79.626C597.326 79.778 597.275 79.911 597.187 80.025C597.098 80.1263 596.971 80.177 596.807 80.177H595.534ZM687.581 80.177C687.492 80.177 687.416 80.1453 687.353 80.082C687.302 80.0187 687.277 79.9427 687.277 79.854C687.277 79.7527 687.296 79.6513 687.334 79.55L688.341 76.947C688.404 76.8203 688.467 76.719 688.531 76.643C688.607 76.5543 688.727 76.51 688.892 76.51H689.519C689.62 76.51 689.696 76.548 689.747 76.624C689.81 76.7 689.829 76.8013 689.804 76.928L689.386 79.626C689.373 79.778 689.322 79.911 689.234 80.025C689.145 80.1263 689.012 80.177 688.835 80.177H687.581ZM684.541 80.177C684.452 80.177 684.376 80.1453 684.313 80.082C684.262 80.0187 684.237 79.9427 684.237 79.854C684.237 79.7527 684.256 79.6513 684.294 79.55L685.301 76.947C685.364 76.8203 685.434 76.719 685.51 76.643C685.586 76.5543 685.7 76.51 685.852 76.51H686.479C686.58 76.51 686.656 76.548 686.707 76.624C686.77 76.7 686.789 76.8013 686.764 76.928L686.346 79.626C686.333 79.778 686.282 79.911 686.194 80.025C686.105 80.1263 685.978 80.177 685.814 80.177H684.541Z" fill="white" fill-opacity="0.75"/>
<path d="M157.167 90.19C156.407 90.19 155.774 90.057 155.267 89.791C154.76 89.5123 154.355 89.1703 154.051 88.765V89.563C154.051 89.6897 154.007 89.7973 153.918 89.886C153.842 89.962 153.741 90 153.614 90H152.74C152.613 90 152.506 89.962 152.417 89.886C152.341 89.7973 152.303 89.6897 152.303 89.563V76.947C152.303 76.8203 152.341 76.719 152.417 76.643C152.506 76.5543 152.613 76.51 152.74 76.51H153.652C153.791 76.51 153.899 76.5543 153.975 76.643C154.051 76.719 154.089 76.8203 154.089 76.947V81.317C154.406 80.9243 154.811 80.595 155.305 80.329C155.812 80.063 156.432 79.93 157.167 79.93C157.876 79.93 158.478 80.0567 158.972 80.31C159.479 80.5507 159.89 80.8863 160.207 81.317C160.536 81.7477 160.783 82.2353 160.948 82.78C161.113 83.3247 161.201 83.8947 161.214 84.49C161.227 84.6927 161.233 84.8827 161.233 85.06C161.233 85.2373 161.227 85.4273 161.214 85.63C161.201 86.238 161.113 86.8143 160.948 87.359C160.783 87.9037 160.536 88.3913 160.207 88.822C159.89 89.24 159.479 89.5757 158.972 89.829C158.478 90.0697 157.876 90.19 157.167 90.19ZM156.768 88.651C157.427 88.651 157.94 88.5117 158.307 88.233C158.687 87.9417 158.959 87.568 159.124 87.112C159.289 86.6433 159.384 86.143 159.409 85.611C159.422 85.2437 159.422 84.8763 159.409 84.509C159.384 83.977 159.289 83.483 159.124 83.027C158.959 82.5583 158.687 82.1847 158.307 81.906C157.94 81.6147 157.427 81.469 156.768 81.469C156.173 81.469 155.679 81.6083 155.286 81.887C154.893 82.1657 154.596 82.5203 154.393 82.951C154.203 83.3817 154.102 83.8187 154.089 84.262C154.076 84.4647 154.07 84.7117 154.07 85.003C154.07 85.2817 154.076 85.5223 154.089 85.725C154.114 86.1937 154.216 86.656 154.393 87.112C154.583 87.5553 154.868 87.9227 155.248 88.214C155.641 88.5053 156.147 88.651 156.768 88.651ZM167.27 90.19C166.459 90.19 165.769 90.0127 165.199 89.658C164.641 89.2907 164.217 88.784 163.926 88.138C163.634 87.492 163.489 86.751 163.489 85.915V80.557C163.489 80.4303 163.527 80.329 163.603 80.253C163.691 80.1643 163.799 80.12 163.926 80.12H164.876C165.002 80.12 165.104 80.1643 165.18 80.253C165.268 80.329 165.313 80.4303 165.313 80.557V85.82C165.313 87.7073 166.136 88.651 167.783 88.651C168.568 88.651 169.195 88.404 169.664 87.91C170.145 87.4033 170.386 86.7067 170.386 85.82V80.557C170.386 80.4303 170.424 80.329 170.5 80.253C170.588 80.1643 170.696 80.12 170.823 80.12H171.754C171.893 80.12 172.001 80.1643 172.077 80.253C172.153 80.329 172.191 80.4303 172.191 80.557V89.563C172.191 89.6897 172.153 89.7973 172.077 89.886C172.001 89.962 171.893 90 171.754 90H170.88C170.753 90 170.645 89.962 170.557 89.886C170.481 89.7973 170.443 89.6897 170.443 89.563V88.727C170.101 89.1703 169.683 89.525 169.189 89.791C168.707 90.057 168.068 90.19 167.27 90.19ZM178.87 90C178.161 90 177.585 89.867 177.141 89.601C176.698 89.3223 176.375 88.936 176.172 88.442C175.97 87.9353 175.868 87.34 175.868 86.656V81.64H174.386C174.26 81.64 174.152 81.602 174.063 81.526C173.987 81.4373 173.949 81.3297 173.949 81.203V80.557C173.949 80.4303 173.987 80.329 174.063 80.253C174.152 80.1643 174.26 80.12 174.386 80.12H175.868V76.947C175.868 76.8203 175.906 76.719 175.982 76.643C176.071 76.5543 176.179 76.51 176.305 76.51H177.198C177.325 76.51 177.426 76.5543 177.502 76.643C177.591 76.719 177.635 76.8203 177.635 76.947V80.12H179.991C180.118 80.12 180.219 80.1643 180.295 80.253C180.384 80.329 180.428 80.4303 180.428 80.557V81.203C180.428 81.3297 180.384 81.4373 180.295 81.526C180.219 81.602 180.118 81.64 179.991 81.64H177.635V86.523C177.635 87.1183 177.737 87.587 177.939 87.929C178.142 88.271 178.503 88.442 179.022 88.442H180.181C180.308 88.442 180.409 88.4863 180.485 88.575C180.574 88.651 180.618 88.7523 180.618 88.879V89.563C180.618 89.6897 180.574 89.7973 180.485 89.886C180.409 89.962 180.308 90 180.181 90H178.87ZM186.292 90C185.583 90 185.007 89.867 184.563 89.601C184.12 89.3223 183.797 88.936 183.594 88.442C183.392 87.9353 183.29 87.34 183.29 86.656V81.64H181.808C181.682 81.64 181.574 81.602 181.485 81.526C181.409 81.4373 181.371 81.3297 181.371 81.203V80.557C181.371 80.4303 181.409 80.329 181.485 80.253C181.574 80.1643 181.682 80.12 181.808 80.12H183.29V76.947C183.29 76.8203 183.328 76.719 183.404 76.643C183.493 76.5543 183.601 76.51 183.727 76.51H184.62C184.747 76.51 184.848 76.5543 184.924 76.643C185.013 76.719 185.057 76.8203 185.057 76.947V80.12H187.413C187.54 80.12 187.641 80.1643 187.717 80.253C187.806 80.329 187.85 80.4303 187.85 80.557V81.203C187.85 81.3297 187.806 81.4373 187.717 81.526C187.641 81.602 187.54 81.64 187.413 81.64H185.057V86.523C185.057 87.1183 185.159 87.587 185.361 87.929C185.564 88.271 185.925 88.442 186.444 88.442H187.603C187.73 88.442 187.831 88.4863 187.907 88.575C187.996 88.651 188.04 88.7523 188.04 88.879V89.563C188.04 89.6897 187.996 89.7973 187.907 89.886C187.831 89.962 187.73 90 187.603 90H186.292ZM193.904 90.19C192.942 90.19 192.137 90.0063 191.491 89.639C190.845 89.2717 190.351 88.765 190.009 88.119C189.667 87.4603 189.477 86.713 189.439 85.877C189.427 85.6617 189.42 85.3893 189.42 85.06C189.42 84.718 189.427 84.4457 189.439 84.243C189.477 83.3943 189.667 82.647 190.009 82.001C190.364 81.355 190.864 80.8483 191.51 80.481C192.156 80.1137 192.954 79.93 193.904 79.93C194.854 79.93 195.652 80.1137 196.298 80.481C196.944 80.8483 197.438 81.355 197.78 82.001C198.135 82.647 198.331 83.3943 198.369 84.243C198.382 84.4457 198.388 84.718 198.388 85.06C198.388 85.3893 198.382 85.6617 198.369 85.877C198.331 86.713 198.141 87.4603 197.799 88.119C197.457 88.765 196.963 89.2717 196.317 89.639C195.671 90.0063 194.867 90.19 193.904 90.19ZM193.904 88.727C194.69 88.727 195.317 88.48 195.785 87.986C196.254 87.4793 196.507 86.7447 196.545 85.782C196.558 85.592 196.564 85.3513 196.564 85.06C196.564 84.7687 196.558 84.528 196.545 84.338C196.507 83.3753 196.254 82.647 195.785 82.153C195.317 81.6463 194.69 81.393 193.904 81.393C193.119 81.393 192.486 81.6463 192.004 82.153C191.536 82.647 191.289 83.3753 191.263 84.338C191.251 84.528 191.244 84.7687 191.244 85.06C191.244 85.3513 191.251 85.592 191.263 85.782C191.289 86.7447 191.536 87.4793 192.004 87.986C192.486 88.48 193.119 88.727 193.904 88.727ZM201.204 90C201.078 90 200.97 89.962 200.881 89.886C200.805 89.7973 200.767 89.6897 200.767 89.563V80.557C200.767 80.4303 200.805 80.329 200.881 80.253C200.97 80.1643 201.078 80.12 201.204 80.12H202.097C202.224 80.12 202.325 80.1643 202.401 80.253C202.49 80.329 202.534 80.4303 202.534 80.557V81.393C202.864 80.9623 203.275 80.614 203.769 80.348C204.276 80.0693 204.922 79.93 205.707 79.93C206.531 79.93 207.227 80.1137 207.797 80.481C208.38 80.8357 208.817 81.336 209.108 81.982C209.4 82.6153 209.545 83.3563 209.545 84.205V89.563C209.545 89.6897 209.507 89.7973 209.431 89.886C209.355 89.962 209.254 90 209.127 90H208.177C208.051 90 207.943 89.962 207.854 89.886C207.778 89.7973 207.74 89.6897 207.74 89.563V84.3C207.74 83.4133 207.525 82.723 207.094 82.229C206.664 81.7223 206.03 81.469 205.194 81.469C204.409 81.469 203.776 81.7223 203.294 82.229C202.826 82.723 202.591 83.4133 202.591 84.3V89.563C202.591 89.6897 202.547 89.7973 202.458 89.886C202.382 89.962 202.281 90 202.154 90H201.204ZM326.484 90.19C325.851 90.19 325.275 90.0633 324.755 89.81C324.236 89.5567 323.818 89.2147 323.501 88.784C323.185 88.3533 323.026 87.8657 323.026 87.321C323.026 86.447 323.381 85.7503 324.09 85.231C324.8 84.7117 325.724 84.3697 326.864 84.205L329.695 83.806V83.255C329.695 82.647 329.518 82.172 329.163 81.83C328.821 81.488 328.258 81.317 327.472 81.317C326.902 81.317 326.44 81.431 326.085 81.659C325.743 81.887 325.503 82.1783 325.363 82.533C325.287 82.723 325.154 82.818 324.964 82.818H324.109C323.97 82.818 323.862 82.78 323.786 82.704C323.723 82.6153 323.691 82.514 323.691 82.4C323.691 82.21 323.761 81.9757 323.9 81.697C324.052 81.4183 324.28 81.146 324.584 80.88C324.888 80.614 325.275 80.3923 325.743 80.215C326.225 80.025 326.807 79.93 327.491 79.93C328.251 79.93 328.891 80.0313 329.41 80.234C329.93 80.424 330.335 80.6837 330.626 81.013C330.93 81.3423 331.146 81.716 331.272 82.134C331.412 82.552 331.481 82.9763 331.481 83.407V89.563C331.481 89.6897 331.437 89.7973 331.348 89.886C331.272 89.962 331.171 90 331.044 90H330.17C330.031 90 329.923 89.962 329.847 89.886C329.771 89.7973 329.733 89.6897 329.733 89.563V88.746C329.569 88.974 329.347 89.202 329.068 89.43C328.79 89.6453 328.441 89.829 328.023 89.981C327.605 90.1203 327.092 90.19 326.484 90.19ZM326.883 88.765C327.403 88.765 327.878 88.6573 328.308 88.442C328.739 88.214 329.075 87.8657 329.315 87.397C329.569 86.9283 329.695 86.3393 329.695 85.63V85.098L327.491 85.421C326.592 85.5477 325.914 85.763 325.458 86.067C325.002 86.3583 324.774 86.732 324.774 87.188C324.774 87.5427 324.876 87.8403 325.078 88.081C325.294 88.309 325.56 88.48 325.876 88.594C326.206 88.708 326.541 88.765 326.883 88.765ZM334.669 90C334.542 90 334.434 89.962 334.346 89.886C334.27 89.7973 334.232 89.6897 334.232 89.563V76.947C334.232 76.8203 334.27 76.719 334.346 76.643C334.434 76.5543 334.542 76.51 334.669 76.51H335.562C335.701 76.51 335.809 76.5543 335.885 76.643C335.961 76.719 335.999 76.8203 335.999 76.947V89.563C335.999 89.6897 335.961 89.7973 335.885 89.886C335.809 89.962 335.701 90 335.562 90H334.669ZM342.766 90.19C341.461 90.19 340.422 89.791 339.65 88.993C338.877 88.1823 338.453 87.0803 338.377 85.687C338.364 85.5223 338.358 85.3133 338.358 85.06C338.358 84.794 338.364 84.5787 338.377 84.414C338.427 83.5147 338.636 82.7293 339.004 82.058C339.371 81.374 339.871 80.8483 340.505 80.481C341.151 80.1137 341.904 79.93 342.766 79.93C343.728 79.93 344.533 80.1327 345.179 80.538C345.837 80.9433 346.338 81.5197 346.68 82.267C347.022 83.0143 347.193 83.8883 347.193 84.889V85.212C347.193 85.3513 347.148 85.459 347.06 85.535C346.984 85.611 346.882 85.649 346.756 85.649H340.182C340.182 85.6617 340.182 85.687 340.182 85.725C340.182 85.763 340.182 85.7947 340.182 85.82C340.207 86.3393 340.321 86.827 340.524 87.283C340.726 87.7263 341.018 88.0873 341.398 88.366C341.778 88.6447 342.234 88.784 342.766 88.784C343.222 88.784 343.602 88.7143 343.906 88.575C344.21 88.4357 344.457 88.2837 344.647 88.119C344.837 87.9417 344.963 87.8087 345.027 87.72C345.141 87.5553 345.229 87.4603 345.293 87.435C345.356 87.397 345.457 87.378 345.597 87.378H346.509C346.635 87.378 346.737 87.416 346.813 87.492C346.901 87.5553 346.939 87.6503 346.927 87.777C346.914 87.967 346.813 88.2013 346.623 88.48C346.433 88.746 346.16 89.012 345.806 89.278C345.451 89.544 345.02 89.7657 344.514 89.943C344.007 90.1077 343.424 90.19 342.766 90.19ZM340.182 84.338H345.388V84.281C345.388 83.711 345.28 83.2043 345.065 82.761C344.862 82.3177 344.564 81.9693 344.172 81.716C343.779 81.45 343.31 81.317 342.766 81.317C342.221 81.317 341.752 81.45 341.36 81.716C340.98 81.9693 340.688 82.3177 340.486 82.761C340.283 83.2043 340.182 83.711 340.182 84.281V84.338ZM349.902 90C349.775 90 349.667 89.962 349.579 89.886C349.503 89.7973 349.465 89.6897 349.465 89.563V80.576C349.465 80.4493 349.503 80.3417 349.579 80.253C349.667 80.1643 349.775 80.12 349.902 80.12H350.776C350.902 80.12 351.01 80.1643 351.099 80.253C351.187 80.3417 351.232 80.4493 351.232 80.576V81.412C351.485 80.9813 351.833 80.6583 352.277 80.443C352.72 80.2277 353.252 80.12 353.873 80.12H354.633C354.759 80.12 354.861 80.1643 354.937 80.253C355.013 80.329 355.051 80.4303 355.051 80.557V81.336C355.051 81.4627 355.013 81.564 354.937 81.64C354.861 81.716 354.759 81.754 354.633 81.754H353.493C352.809 81.754 352.27 81.9567 351.878 82.362C351.485 82.7547 351.289 83.293 351.289 83.977V89.563C351.289 89.6897 351.244 89.7973 351.156 89.886C351.067 89.962 350.959 90 350.833 90H349.902ZM360.539 90C359.83 90 359.254 89.867 358.81 89.601C358.367 89.3223 358.044 88.936 357.841 88.442C357.639 87.9353 357.537 87.34 357.537 86.656V81.64H356.055C355.929 81.64 355.821 81.602 355.732 81.526C355.656 81.4373 355.618 81.3297 355.618 81.203V80.557C355.618 80.4303 355.656 80.329 355.732 80.253C355.821 80.1643 355.929 80.12 356.055 80.12H357.537V76.947C357.537 76.8203 357.575 76.719 357.651 76.643C357.74 76.5543 357.848 76.51 357.974 76.51H358.867C358.994 76.51 359.095 76.5543 359.171 76.643C359.26 76.719 359.304 76.8203 359.304 76.947V80.12H361.66C361.787 80.12 361.888 80.1643 361.964 80.253C362.053 80.329 362.097 80.4303 362.097 80.557V81.203C362.097 81.3297 362.053 81.4373 361.964 81.526C361.888 81.602 361.787 81.64 361.66 81.64H359.304V86.523C359.304 87.1183 359.406 87.587 359.608 87.929C359.811 88.271 360.172 88.442 360.691 88.442H361.85C361.977 88.442 362.078 88.4863 362.154 88.575C362.243 88.651 362.287 88.7523 362.287 88.879V89.563C362.287 89.6897 362.243 89.7973 362.154 89.886C362.078 89.962 361.977 90 361.85 90H360.539ZM372.884 93.021C372.061 93.021 371.364 92.8437 370.794 92.489C370.224 92.147 369.768 91.615 369.426 90.893C369.084 90.171 368.831 89.2527 368.666 88.138C368.514 87.0107 368.438 85.6743 368.438 84.129C368.438 82.5837 368.514 81.2537 368.666 80.139C368.831 79.0117 369.084 78.087 369.426 77.365C369.768 76.643 370.224 76.111 370.794 75.769C371.364 75.427 372.061 75.256 372.884 75.256C372.998 75.256 373.1 75.3003 373.188 75.389C373.277 75.4777 373.321 75.579 373.321 75.693V76.358C373.321 76.472 373.277 76.5733 373.188 76.662C373.112 76.7507 373.03 76.795 372.941 76.795C372.409 76.8077 371.96 76.947 371.592 77.213C371.238 77.4663 370.946 77.878 370.718 78.448C370.503 79.018 370.345 79.7717 370.243 80.709C370.155 81.6337 370.11 82.7737 370.11 84.129C370.11 85.4843 370.155 86.6307 370.243 87.568C370.345 88.4927 370.503 89.2463 370.718 89.829C370.946 90.399 371.238 90.8107 371.592 91.064C371.96 91.33 372.409 91.4693 372.941 91.482C373.03 91.482 373.112 91.5263 373.188 91.615C373.277 91.7037 373.321 91.805 373.321 91.919V92.584C373.321 92.698 373.277 92.7993 373.188 92.888C373.1 92.9767 372.998 93.021 372.884 93.021ZM379.706 80.177C379.617 80.177 379.541 80.1453 379.478 80.082C379.427 80.0187 379.402 79.9427 379.402 79.854C379.402 79.7527 379.421 79.6513 379.459 79.55L380.466 76.947C380.529 76.8203 380.599 76.719 380.675 76.643C380.751 76.5543 380.865 76.51 381.017 76.51H381.644C381.745 76.51 381.821 76.548 381.872 76.624C381.935 76.7 381.954 76.8013 381.929 76.928L381.511 79.626C381.498 79.778 381.447 79.911 381.359 80.025C381.27 80.1263 381.143 80.177 380.979 80.177H379.706ZM389.652 90C389.512 90 389.405 89.962 389.329 89.886C389.253 89.7973 389.215 89.6897 389.215 89.563V77.156C389.215 77.0167 389.253 76.909 389.329 76.833C389.405 76.7443 389.512 76.7 389.652 76.7H390.621C390.76 76.7 390.868 76.7443 390.944 76.833C391.032 76.909 391.077 77.0167 391.077 77.156V82.4H397.613V77.156C397.613 77.0167 397.651 76.909 397.727 76.833C397.815 76.7443 397.923 76.7 398.05 76.7H399.019C399.158 76.7 399.266 76.7443 399.342 76.833C399.43 76.909 399.475 77.0167 399.475 77.156V89.563C399.475 89.6897 399.43 89.7973 399.342 89.886C399.266 89.962 399.158 90 399.019 90H398.05C397.923 90 397.815 89.962 397.727 89.886C397.651 89.7973 397.613 89.6897 397.613 89.563V84.11H391.077V89.563C391.077 89.6897 391.032 89.7973 390.944 89.886C390.868 89.962 390.76 90 390.621 90H389.652ZM406.445 90.19C405.141 90.19 404.102 89.791 403.329 88.993C402.557 88.1823 402.132 87.0803 402.056 85.687C402.044 85.5223 402.037 85.3133 402.037 85.06C402.037 84.794 402.044 84.5787 402.056 84.414C402.107 83.5147 402.316 82.7293 402.683 82.058C403.051 81.374 403.551 80.8483 404.184 80.481C404.83 80.1137 405.584 79.93 406.445 79.93C407.408 79.93 408.212 80.1327 408.858 80.538C409.517 80.9433 410.017 81.5197 410.359 82.267C410.701 83.0143 410.872 83.8883 410.872 84.889V85.212C410.872 85.3513 410.828 85.459 410.739 85.535C410.663 85.611 410.562 85.649 410.435 85.649H403.861C403.861 85.6617 403.861 85.687 403.861 85.725C403.861 85.763 403.861 85.7947 403.861 85.82C403.887 86.3393 404.001 86.827 404.203 87.283C404.406 87.7263 404.697 88.0873 405.077 88.366C405.457 88.6447 405.913 88.784 406.445 88.784C406.901 88.784 407.281 88.7143 407.585 88.575C407.889 88.4357 408.136 88.2837 408.326 88.119C408.516 87.9417 408.643 87.8087 408.706 87.72C408.82 87.5553 408.909 87.4603 408.972 87.435C409.036 87.397 409.137 87.378 409.276 87.378H410.188C410.315 87.378 410.416 87.416 410.492 87.492C410.581 87.5553 410.619 87.6503 410.606 87.777C410.594 87.967 410.492 88.2013 410.302 88.48C410.112 88.746 409.84 89.012 409.485 89.278C409.131 89.544 408.7 89.7657 408.193 89.943C407.687 90.1077 407.104 90.19 406.445 90.19ZM403.861 84.338H409.067V84.281C409.067 83.711 408.96 83.2043 408.744 82.761C408.542 82.3177 408.244 81.9693 407.851 81.716C407.459 81.45 406.99 81.317 406.445 81.317C405.901 81.317 405.432 81.45 405.039 81.716C404.659 81.9693 404.368 82.3177 404.165 82.761C403.963 83.2043 403.861 83.711 403.861 84.281V84.338ZM413.6 90C413.474 90 413.366 89.962 413.277 89.886C413.201 89.7973 413.163 89.6897 413.163 89.563V76.947C413.163 76.8203 413.201 76.719 413.277 76.643C413.366 76.5543 413.474 76.51 413.6 76.51H414.493C414.633 76.51 414.74 76.5543 414.816 76.643C414.892 76.719 414.93 76.8203 414.93 76.947V89.563C414.93 89.6897 414.892 89.7973 414.816 89.886C414.74 89.962 414.633 90 414.493 90H413.6ZM418.22 90C418.094 90 417.986 89.962 417.897 89.886C417.821 89.7973 417.783 89.6897 417.783 89.563V76.947C417.783 76.8203 417.821 76.719 417.897 76.643C417.986 76.5543 418.094 76.51 418.22 76.51H419.113C419.253 76.51 419.36 76.5543 419.436 76.643C419.512 76.719 419.55 76.8203 419.55 76.947V89.563C419.55 89.6897 419.512 89.7973 419.436 89.886C419.36 89.962 419.253 90 419.113 90H418.22ZM426.432 90.19C425.469 90.19 424.665 90.0063 424.019 89.639C423.373 89.2717 422.879 88.765 422.537 88.119C422.195 87.4603 422.005 86.713 421.967 85.877C421.954 85.6617 421.948 85.3893 421.948 85.06C421.948 84.718 421.954 84.4457 421.967 84.243C422.005 83.3943 422.195 82.647 422.537 82.001C422.891 81.355 423.392 80.8483 424.038 80.481C424.684 80.1137 425.482 79.93 426.432 79.93C427.382 79.93 428.18 80.1137 428.826 80.481C429.472 80.8483 429.966 81.355 430.308 82.001C430.662 82.647 430.859 83.3943 430.897 84.243C430.909 84.4457 430.916 84.718 430.916 85.06C430.916 85.3893 430.909 85.6617 430.897 85.877C430.859 86.713 430.669 87.4603 430.327 88.119C429.985 88.765 429.491 89.2717 428.845 89.639C428.199 90.0063 427.394 90.19 426.432 90.19ZM426.432 88.727C427.217 88.727 427.844 88.48 428.313 87.986C428.781 87.4793 429.035 86.7447 429.073 85.782C429.085 85.592 429.092 85.3513 429.092 85.06C429.092 84.7687 429.085 84.528 429.073 84.338C429.035 83.3753 428.781 82.647 428.313 82.153C427.844 81.6463 427.217 81.393 426.432 81.393C425.646 81.393 425.013 81.6463 424.532 82.153C424.063 82.647 423.816 83.3753 423.791 84.338C423.778 84.528 423.772 84.7687 423.772 85.06C423.772 85.3513 423.778 85.592 423.791 85.782C423.816 86.7447 424.063 87.4793 424.532 87.986C425.013 88.48 425.646 88.727 426.432 88.727ZM440.129 90C439.964 90 439.837 89.962 439.749 89.886C439.66 89.7973 439.584 89.677 439.521 89.525L436.823 80.709C436.797 80.6457 436.785 80.5823 436.785 80.519C436.785 80.405 436.823 80.31 436.899 80.234C436.987 80.158 437.082 80.12 437.184 80.12H438.02C438.159 80.12 438.267 80.158 438.343 80.234C438.419 80.31 438.469 80.3797 438.495 80.443L440.604 87.606L442.865 80.519C442.89 80.4303 442.941 80.3417 443.017 80.253C443.105 80.1643 443.232 80.12 443.397 80.12H444.043C444.207 80.12 444.334 80.1643 444.423 80.253C444.511 80.3417 444.562 80.4303 444.575 80.519L446.836 87.606L448.945 80.443C448.957 80.3797 449.002 80.31 449.078 80.234C449.154 80.158 449.261 80.12 449.401 80.12H450.237C450.351 80.12 450.446 80.158 450.522 80.234C450.598 80.31 450.636 80.405 450.636 80.519C450.636 80.5823 450.623 80.6457 450.598 80.709L447.9 89.525C447.862 89.677 447.792 89.7973 447.691 89.886C447.602 89.962 447.469 90 447.292 90H446.551C446.386 90 446.247 89.962 446.133 89.886C446.031 89.7973 445.962 89.677 445.924 89.525L443.72 82.723L441.516 89.525C441.465 89.677 441.389 89.7973 441.288 89.886C441.186 89.962 441.047 90 440.87 90H440.129ZM456.527 90.19C455.565 90.19 454.76 90.0063 454.114 89.639C453.468 89.2717 452.974 88.765 452.632 88.119C452.29 87.4603 452.1 86.713 452.062 85.877C452.05 85.6617 452.043 85.3893 452.043 85.06C452.043 84.718 452.05 84.4457 452.062 84.243C452.1 83.3943 452.29 82.647 452.632 82.001C452.987 81.355 453.487 80.8483 454.133 80.481C454.779 80.1137 455.577 79.93 456.527 79.93C457.477 79.93 458.275 80.1137 458.921 80.481C459.567 80.8483 460.061 81.355 460.403 82.001C460.758 82.647 460.954 83.3943 460.992 84.243C461.005 84.4457 461.011 84.718 461.011 85.06C461.011 85.3893 461.005 85.6617 460.992 85.877C460.954 86.713 460.764 87.4603 460.422 88.119C460.08 88.765 459.586 89.2717 458.94 89.639C458.294 90.0063 457.49 90.19 456.527 90.19ZM456.527 88.727C457.313 88.727 457.94 88.48 458.408 87.986C458.877 87.4793 459.13 86.7447 459.168 85.782C459.181 85.592 459.187 85.3513 459.187 85.06C459.187 84.7687 459.181 84.528 459.168 84.338C459.13 83.3753 458.877 82.647 458.408 82.153C457.94 81.6463 457.313 81.393 456.527 81.393C455.742 81.393 455.109 81.6463 454.627 82.153C454.159 82.647 453.912 83.3753 453.886 84.338C453.874 84.528 453.867 84.7687 453.867 85.06C453.867 85.3513 453.874 85.592 453.886 85.782C453.912 86.7447 454.159 87.4793 454.627 87.986C455.109 88.48 455.742 88.727 456.527 88.727ZM463.827 90C463.701 90 463.593 89.962 463.504 89.886C463.428 89.7973 463.39 89.6897 463.39 89.563V80.576C463.39 80.4493 463.428 80.3417 463.504 80.253C463.593 80.1643 463.701 80.12 463.827 80.12H464.701C464.828 80.12 464.936 80.1643 465.024 80.253C465.113 80.3417 465.157 80.4493 465.157 80.576V81.412C465.411 80.9813 465.759 80.6583 466.202 80.443C466.646 80.2277 467.178 80.12 467.798 80.12H468.558C468.685 80.12 468.786 80.1643 468.862 80.253C468.938 80.329 468.976 80.4303 468.976 80.557V81.336C468.976 81.4627 468.938 81.564 468.862 81.64C468.786 81.716 468.685 81.754 468.558 81.754H467.418C466.734 81.754 466.196 81.9567 465.803 82.362C465.411 82.7547 465.214 83.293 465.214 83.977V89.563C465.214 89.6897 465.17 89.7973 465.081 89.886C464.993 89.962 464.885 90 464.758 90H463.827ZM471.064 90C470.937 90 470.83 89.962 470.741 89.886C470.665 89.7973 470.627 89.6897 470.627 89.563V76.947C470.627 76.8203 470.665 76.719 470.741 76.643C470.83 76.5543 470.937 76.51 471.064 76.51H471.957C472.096 76.51 472.204 76.5543 472.28 76.643C472.356 76.719 472.394 76.8203 472.394 76.947V89.563C472.394 89.6897 472.356 89.7973 472.28 89.886C472.204 89.962 472.096 90 471.957 90H471.064ZM478.838 90.19C478.142 90.19 477.54 90.0697 477.033 89.829C476.527 89.5757 476.109 89.24 475.779 88.822C475.463 88.3913 475.222 87.9037 475.057 87.359C474.905 86.8143 474.817 86.238 474.791 85.63C474.779 85.4273 474.772 85.2373 474.772 85.06C474.772 84.8827 474.779 84.6927 474.791 84.49C474.817 83.8947 474.905 83.3247 475.057 82.78C475.222 82.2353 475.463 81.7477 475.779 81.317C476.109 80.8863 476.527 80.5507 477.033 80.31C477.54 80.0567 478.142 79.93 478.838 79.93C479.586 79.93 480.206 80.063 480.7 80.329C481.194 80.595 481.6 80.9243 481.916 81.317V76.947C481.916 76.8203 481.954 76.719 482.03 76.643C482.119 76.5543 482.227 76.51 482.353 76.51H483.265C483.392 76.51 483.493 76.5543 483.569 76.643C483.658 76.719 483.702 76.8203 483.702 76.947V89.563C483.702 89.6897 483.658 89.7973 483.569 89.886C483.493 89.962 483.392 90 483.265 90H482.41C482.271 90 482.163 89.962 482.087 89.886C482.011 89.7973 481.973 89.6897 481.973 89.563V88.765C481.657 89.1703 481.245 89.5123 480.738 89.791C480.232 90.057 479.598 90.19 478.838 90.19ZM479.237 88.651C479.871 88.651 480.377 88.5053 480.757 88.214C481.137 87.9227 481.422 87.5553 481.612 87.112C481.802 86.656 481.904 86.1937 481.916 85.725C481.929 85.5223 481.935 85.2817 481.935 85.003C481.935 84.7117 481.929 84.4647 481.916 84.262C481.904 83.8187 481.796 83.3817 481.593 82.951C481.403 82.5203 481.112 82.1657 480.719 81.887C480.339 81.6083 479.845 81.469 479.237 81.469C478.591 81.469 478.078 81.6147 477.698 81.906C477.318 82.1847 477.046 82.5583 476.881 83.027C476.717 83.483 476.622 83.977 476.596 84.509C476.584 84.8763 476.584 85.2437 476.596 85.611C476.622 86.143 476.717 86.6433 476.881 87.112C477.046 87.568 477.318 87.9417 477.698 88.233C478.078 88.5117 478.591 88.651 479.237 88.651ZM491.052 80.177C490.964 80.177 490.888 80.1453 490.824 80.082C490.774 80.0187 490.748 79.9427 490.748 79.854C490.748 79.7527 490.767 79.6513 490.805 79.55L491.812 76.947C491.876 76.8203 491.945 76.719 492.021 76.643C492.097 76.5543 492.211 76.51 492.363 76.51H492.99C493.092 76.51 493.168 76.548 493.218 76.624C493.282 76.7 493.301 76.8013 493.275 76.928L492.857 79.626C492.845 79.778 492.794 79.911 492.705 80.025C492.617 80.1263 492.49 80.177 492.325 80.177H491.052ZM499.801 93.021C499.687 93.021 499.586 92.9767 499.497 92.888C499.409 92.7993 499.364 92.698 499.364 92.584V91.919C499.364 91.805 499.402 91.7037 499.478 91.615C499.567 91.5263 499.662 91.482 499.763 91.482C500.295 91.4693 500.739 91.33 501.093 91.064C501.461 90.8107 501.752 90.399 501.967 89.829C502.183 89.2463 502.341 88.4927 502.442 87.568C502.544 86.6307 502.594 85.4843 502.594 84.129C502.594 82.7737 502.544 81.6337 502.442 80.709C502.341 79.7717 502.183 79.018 501.967 78.448C501.752 77.878 501.461 77.4663 501.093 77.213C500.739 76.947 500.295 76.8077 499.763 76.795C499.662 76.795 499.567 76.7507 499.478 76.662C499.402 76.5733 499.364 76.472 499.364 76.358V75.693C499.364 75.579 499.409 75.4777 499.497 75.389C499.586 75.3003 499.687 75.256 499.801 75.256C500.625 75.256 501.321 75.427 501.891 75.769C502.461 76.111 502.917 76.643 503.259 77.365C503.601 78.087 503.848 79.0117 504 80.139C504.165 81.2537 504.247 82.5837 504.247 84.129C504.247 85.6743 504.165 87.0107 504 88.138C503.848 89.2527 503.601 90.171 503.259 90.893C502.917 91.615 502.461 92.147 501.891 92.489C501.321 92.8437 500.625 93.021 499.801 93.021ZM506.829 91.425C506.728 91.425 506.652 91.387 506.601 91.311C506.55 91.235 506.531 91.14 506.544 91.026L506.962 88.309C506.987 88.157 507.038 88.0303 507.114 87.929C507.203 87.815 507.329 87.758 507.494 87.758H508.767C508.856 87.758 508.925 87.7897 508.976 87.853C509.039 87.9163 509.071 87.9923 509.071 88.081C509.071 88.1823 509.052 88.2837 509.014 88.385L508.007 90.988C507.956 91.1147 507.893 91.216 507.817 91.292C507.741 91.3807 507.621 91.425 507.456 91.425H506.829ZM507.304 83.35C507.177 83.35 507.07 83.312 506.981 83.236C506.905 83.1473 506.867 83.0397 506.867 82.913V81.583C506.867 81.4563 506.905 81.355 506.981 81.279C507.07 81.1903 507.177 81.146 507.304 81.146H508.672C508.799 81.146 508.906 81.1903 508.995 81.279C509.084 81.355 509.128 81.4563 509.128 81.583V82.913C509.128 83.0397 509.084 83.1473 508.995 83.236C508.906 83.312 508.799 83.35 508.672 83.35H507.304ZM611.81 90.19C610.911 90.19 610.132 90.019 609.473 89.677C608.827 89.3223 608.327 88.822 607.972 88.176C607.617 87.5173 607.427 86.732 607.402 85.82C607.389 85.63 607.383 85.3767 607.383 85.06C607.383 84.7433 607.389 84.49 607.402 84.3C607.427 83.388 607.617 82.609 607.972 81.963C608.327 81.3043 608.827 80.804 609.473 80.462C610.132 80.1073 610.911 79.93 611.81 79.93C612.545 79.93 613.172 80.0313 613.691 80.234C614.223 80.4367 614.66 80.6963 615.002 81.013C615.344 81.3297 615.597 81.6717 615.762 82.039C615.939 82.4063 616.034 82.7547 616.047 83.084C616.06 83.2107 616.022 83.312 615.933 83.388C615.844 83.464 615.737 83.502 615.61 83.502H614.698C614.571 83.502 614.476 83.4767 614.413 83.426C614.35 83.3627 614.286 83.2613 614.223 83.122C613.995 82.5013 613.685 82.0643 613.292 81.811C612.899 81.5577 612.412 81.431 611.829 81.431C611.069 81.431 610.448 81.6653 609.967 82.134C609.498 82.6027 609.245 83.3563 609.207 84.395C609.194 84.851 609.194 85.2943 609.207 85.725C609.245 86.7763 609.498 87.5363 609.967 88.005C610.448 88.461 611.069 88.689 611.829 88.689C612.412 88.689 612.899 88.5623 613.292 88.309C613.685 88.0557 613.995 87.6187 614.223 86.998C614.286 86.8587 614.35 86.7637 614.413 86.713C614.476 86.6497 614.571 86.618 614.698 86.618H615.61C615.737 86.618 615.844 86.656 615.933 86.732C616.022 86.808 616.06 86.9093 616.047 87.036C616.034 87.302 615.977 87.5743 615.876 87.853C615.775 88.1317 615.61 88.4167 615.382 88.708C615.167 88.9867 614.894 89.24 614.565 89.468C614.236 89.6833 613.837 89.8607 613.368 90C612.912 90.1267 612.393 90.19 611.81 90.19ZM618.759 90C618.633 90 618.525 89.962 618.436 89.886C618.36 89.7973 618.322 89.6897 618.322 89.563V76.947C618.322 76.8203 618.36 76.719 618.436 76.643C618.525 76.5543 618.633 76.51 618.759 76.51H619.652C619.792 76.51 619.899 76.5543 619.975 76.643C620.051 76.719 620.089 76.8203 620.089 76.947V89.563C620.089 89.6897 620.051 89.7973 619.975 89.886C619.899 89.962 619.792 90 619.652 90H618.759ZM623.546 90C623.419 90 623.312 89.962 623.223 89.886C623.147 89.7973 623.109 89.6897 623.109 89.563V80.557C623.109 80.4303 623.147 80.329 623.223 80.253C623.312 80.1643 623.419 80.12 623.546 80.12H624.458C624.585 80.12 624.686 80.1643 624.762 80.253C624.838 80.329 624.876 80.4303 624.876 80.557V89.563C624.876 89.6897 624.838 89.7973 624.762 89.886C624.686 89.962 624.585 90 624.458 90H623.546ZM623.394 78.277C623.267 78.277 623.16 78.239 623.071 78.163C622.995 78.0743 622.957 77.9667 622.957 77.84V76.814C622.957 76.6873 622.995 76.586 623.071 76.51C623.16 76.4213 623.267 76.377 623.394 76.377H624.591C624.718 76.377 624.819 76.4213 624.895 76.51C624.984 76.586 625.028 76.6873 625.028 76.814V77.84C625.028 77.9667 624.984 78.0743 624.895 78.163C624.819 78.239 624.718 78.277 624.591 78.277H623.394ZM631.738 90.19C630.838 90.19 630.059 90.019 629.401 89.677C628.755 89.3223 628.254 88.822 627.9 88.176C627.545 87.5173 627.355 86.732 627.33 85.82C627.317 85.63 627.311 85.3767 627.311 85.06C627.311 84.7433 627.317 84.49 627.33 84.3C627.355 83.388 627.545 82.609 627.9 81.963C628.254 81.3043 628.755 80.804 629.401 80.462C630.059 80.1073 630.838 79.93 631.738 79.93C632.472 79.93 633.099 80.0313 633.619 80.234C634.151 80.4367 634.588 80.6963 634.93 81.013C635.272 81.3297 635.525 81.6717 635.69 82.039C635.867 82.4063 635.962 82.7547 635.975 83.084C635.987 83.2107 635.949 83.312 635.861 83.388C635.772 83.464 635.664 83.502 635.538 83.502H634.626C634.499 83.502 634.404 83.4767 634.341 83.426C634.277 83.3627 634.214 83.2613 634.151 83.122C633.923 82.5013 633.612 82.0643 633.22 81.811C632.827 81.5577 632.339 81.431 631.757 81.431C630.997 81.431 630.376 81.6653 629.895 82.134C629.426 82.6027 629.173 83.3563 629.135 84.395C629.122 84.851 629.122 85.2943 629.135 85.725C629.173 86.7763 629.426 87.5363 629.895 88.005C630.376 88.461 630.997 88.689 631.757 88.689C632.339 88.689 632.827 88.5623 633.22 88.309C633.612 88.0557 633.923 87.6187 634.151 86.998C634.214 86.8587 634.277 86.7637 634.341 86.713C634.404 86.6497 634.499 86.618 634.626 86.618H635.538C635.664 86.618 635.772 86.656 635.861 86.732C635.949 86.808 635.987 86.9093 635.975 87.036C635.962 87.302 635.905 87.5743 635.804 87.853C635.702 88.1317 635.538 88.4167 635.31 88.708C635.094 88.9867 634.822 89.24 634.493 89.468C634.163 89.6833 633.764 89.8607 633.296 90C632.84 90.1267 632.32 90.19 631.738 90.19ZM638.687 90C638.561 90 638.453 89.962 638.364 89.886C638.288 89.7973 638.25 89.6897 638.25 89.563V76.947C638.25 76.8203 638.288 76.719 638.364 76.643C638.453 76.5543 638.561 76.51 638.687 76.51H639.58C639.707 76.51 639.808 76.5543 639.884 76.643C639.973 76.719 640.017 76.8203 640.017 76.947V83.559L643.76 80.443C643.912 80.3163 644.026 80.234 644.102 80.196C644.191 80.1453 644.33 80.12 644.52 80.12H645.527C645.641 80.12 645.736 80.158 645.812 80.234C645.888 80.31 645.926 80.405 645.926 80.519C645.926 80.5697 645.907 80.6267 645.869 80.69C645.844 80.7533 645.787 80.8167 645.698 80.88L641.309 84.528L646.173 89.259C646.325 89.3857 646.401 89.4997 646.401 89.601C646.401 89.715 646.363 89.81 646.287 89.886C646.211 89.962 646.116 90 646.002 90H645.014C644.824 90 644.685 89.981 644.596 89.943C644.508 89.8923 644.394 89.8037 644.254 89.677L640.017 85.63V89.563C640.017 89.6897 639.973 89.7973 639.884 89.886C639.808 89.962 639.707 90 639.58 90H638.687ZM652.937 90C652.81 90 652.702 89.962 652.614 89.886C652.538 89.7973 652.5 89.6897 652.5 89.563V80.557C652.5 80.4303 652.538 80.329 652.614 80.253C652.702 80.1643 652.81 80.12 652.937 80.12H653.792C653.918 80.12 654.02 80.1643 654.096 80.253C654.184 80.329 654.229 80.4303 654.229 80.557V81.222C654.52 80.8293 654.887 80.519 655.331 80.291C655.774 80.0503 656.306 79.93 656.927 79.93C658.358 79.9173 659.371 80.5 659.967 81.678C660.258 81.146 660.682 80.7217 661.24 80.405C661.797 80.0883 662.43 79.93 663.14 79.93C663.798 79.93 664.394 80.082 664.926 80.386C665.47 80.69 665.895 81.1523 666.199 81.773C666.515 82.381 666.674 83.1473 666.674 84.072V89.563C666.674 89.6897 666.629 89.7973 666.541 89.886C666.465 89.962 666.363 90 666.237 90H665.344C665.217 90 665.109 89.962 665.021 89.886C664.945 89.7973 664.907 89.6897 664.907 89.563V84.243C664.907 83.5337 664.805 82.9763 664.603 82.571C664.4 82.1657 664.128 81.8807 663.786 81.716C663.444 81.5513 663.07 81.469 662.665 81.469C662.335 81.469 662 81.5513 661.658 81.716C661.316 81.8807 661.031 82.1657 660.803 82.571C660.587 82.9763 660.48 83.5337 660.48 84.243V89.563C660.48 89.6897 660.435 89.7973 660.347 89.886C660.271 89.962 660.169 90 660.043 90H659.15C659.023 90 658.915 89.962 658.827 89.886C658.751 89.7973 658.713 89.6897 658.713 89.563V84.243C658.713 83.5337 658.605 82.9763 658.39 82.571C658.174 82.1657 657.896 81.8807 657.554 81.716C657.212 81.5513 656.851 81.469 656.471 81.469C656.141 81.469 655.806 81.5513 655.464 81.716C655.122 81.8807 654.837 82.1657 654.609 82.571C654.393 82.9763 654.286 83.5273 654.286 84.224V89.563C654.286 89.6897 654.241 89.7973 654.153 89.886C654.077 89.962 653.975 90 653.849 90H652.937ZM673.318 90.19C672.013 90.19 670.974 89.791 670.202 88.993C669.429 88.1823 669.005 87.0803 668.929 85.687C668.916 85.5223 668.91 85.3133 668.91 85.06C668.91 84.794 668.916 84.5787 668.929 84.414C668.979 83.5147 669.188 82.7293 669.556 82.058C669.923 81.374 670.423 80.8483 671.057 80.481C671.703 80.1137 672.456 79.93 673.318 79.93C674.28 79.93 675.085 80.1327 675.731 80.538C676.389 80.9433 676.89 81.5197 677.232 82.267C677.574 83.0143 677.745 83.8883 677.745 84.889V85.212C677.745 85.3513 677.7 85.459 677.612 85.535C677.536 85.611 677.434 85.649 677.308 85.649H670.734C670.734 85.6617 670.734 85.687 670.734 85.725C670.734 85.763 670.734 85.7947 670.734 85.82C670.759 86.3393 670.873 86.827 671.076 87.283C671.278 87.7263 671.57 88.0873 671.95 88.366C672.33 88.6447 672.786 88.784 673.318 88.784C673.774 88.784 674.154 88.7143 674.458 88.575C674.762 88.4357 675.009 88.2837 675.199 88.119C675.389 87.9417 675.515 87.8087 675.579 87.72C675.693 87.5553 675.781 87.4603 675.845 87.435C675.908 87.397 676.009 87.378 676.149 87.378H677.061C677.187 87.378 677.289 87.416 677.365 87.492C677.453 87.5553 677.491 87.6503 677.479 87.777C677.466 87.967 677.365 88.2013 677.175 88.48C676.985 88.746 676.712 89.012 676.358 89.278C676.003 89.544 675.572 89.7657 675.066 89.943C674.559 90.1077 673.976 90.19 673.318 90.19ZM670.734 84.338H675.94V84.281C675.94 83.711 675.832 83.2043 675.617 82.761C675.414 82.3177 675.116 81.9693 674.724 81.716C674.331 81.45 673.862 81.317 673.318 81.317C672.773 81.317 672.304 81.45 671.912 81.716C671.532 81.9693 671.24 82.3177 671.038 82.761C670.835 83.2043 670.734 83.711 670.734 84.281V84.338Z" fill="white"/>
<g filter="url(#filter0_d_212_97)">
<path d="M4 12C4 5.37258 9.37258 0 16 0H787C793.627 0 799 5.37258 799 12V43H4V12Z" fill="#242526"/>
</g>
<ellipse cx="29.1279" cy="21.9141" rx="5.84369" ry="6.72025" fill="#E65100"/>
<ellipse cx="48.4121" cy="21.9141" rx="5.84369" ry="6.72025" fill="#FFD600"/>
<ellipse cx="67.6962" cy="21.9141" rx="5.84369" ry="6.72025" fill="#4EC433"/>
<defs>
<filter id="filter0_d_212_97" x="0" y="0" width="803" height="51" filterUnits="userSpaceOnUse" color-interpolation-filters="sRGB">
<feFlood flood-opacity="0" result="BackgroundImageFix"/>
<feColorMatrix in="SourceAlpha" type="matrix" values="0 0 0 0 0 0 0 0 0 0 0 0 0 0 0 0 0 0 127 0" result="hardAlpha"/>
<feOffset dy="4"/>
<feGaussianBlur stdDeviation="2"/>
<feComposite in2="hardAlpha" operator="out"/>
<feColorMatrix type="matrix" values="0 0 0 0 0 0 0 0 0 0 0 0 0 0 0 0 0 0 0.25 0"/>
<feBlend mode="normal" in2="BackgroundImageFix" result="effect1_dropShadow_212_97"/>
<feBlend mode="normal" in="SourceGraphic" in2="effect1_dropShadow_212_97" result="shape"/>
</filter>
</defs>
</svg>
