<svg width="803" height="178" viewBox="0 0 803 178" fill="none" xmlns="http://www.w3.org/2000/svg">
<rect x="4" width="586" height="144" rx="12" fill="#242526"/>
<rect x="4" width="795" height="178" rx="12" fill="#242526"/>
<path d="M21.676 89.525C21.6 89.525 21.5177 89.4997 21.429 89.449C21.353 89.3983 21.2833 89.3603 21.22 89.335L15.235 85.212C15.045 85.0853 14.9057 84.9587 14.817 84.832C14.7283 84.6927 14.684 84.5343 14.684 84.357V84.015C14.684 83.8377 14.7283 83.6857 14.817 83.559C14.9057 83.4323 15.045 83.2993 15.235 83.16L21.22 79.056C21.2833 79.018 21.353 78.9737 21.429 78.923C21.5177 78.8723 21.6 78.847 21.676 78.847C21.7773 78.847 21.866 78.885 21.942 78.961C22.018 79.0243 22.056 79.1193 22.056 79.246V80.082C22.056 80.2213 22.018 80.3417 21.942 80.443C21.866 80.5317 21.7583 80.6203 21.619 80.709L16.527 84.186L21.619 87.663C21.7583 87.7643 21.866 87.8593 21.942 87.948C22.018 88.0367 22.056 88.157 22.056 88.309V89.145C22.056 89.259 22.018 89.354 21.942 89.43C21.866 89.4933 21.7773 89.525 21.676 89.525ZM182.108 89.506C182.006 89.506 181.918 89.4743 181.842 89.411C181.766 89.3477 181.728 89.2527 181.728 89.126V88.29C181.728 88.138 181.759 88.0177 181.823 87.929C181.899 87.8403 182.013 87.7517 182.165 87.663L187.238 84.186L182.165 80.709C182.013 80.6077 181.899 80.5127 181.823 80.424C181.759 80.3353 181.728 80.215 181.728 80.063V79.227C181.728 79.1003 181.766 79.0053 181.842 78.942C181.918 78.8787 182.006 78.847 182.108 78.847C182.184 78.847 182.266 78.8723 182.355 78.923C182.443 78.961 182.513 78.999 182.564 79.037L188.53 83.141C188.732 83.2803 188.872 83.4133 188.948 83.54C189.036 83.6667 189.081 83.825 189.081 84.015V84.338C189.081 84.5153 189.036 84.6737 188.948 84.813C188.872 84.9397 188.732 85.0727 188.53 85.212L182.564 89.316C182.513 89.354 182.443 89.3983 182.355 89.449C182.266 89.487 182.184 89.506 182.108 89.506ZM316.046 89.525C315.97 89.525 315.888 89.4997 315.799 89.449C315.723 89.3983 315.653 89.3603 315.59 89.335L309.605 85.212C309.415 85.0853 309.276 84.9587 309.187 84.832C309.098 84.6927 309.054 84.5343 309.054 84.357V84.015C309.054 83.8377 309.098 83.6857 309.187 83.559C309.276 83.4323 309.415 83.2993 309.605 83.16L315.59 79.056C315.653 79.018 315.723 78.9737 315.799 78.923C315.888 78.8723 315.97 78.847 316.046 78.847C316.147 78.847 316.236 78.885 316.312 78.961C316.388 79.0243 316.426 79.1193 316.426 79.246V80.082C316.426 80.2213 316.388 80.3417 316.312 80.443C316.236 80.5317 316.128 80.6203 315.989 80.709L310.897 84.186L315.989 87.663C316.128 87.7643 316.236 87.8593 316.312 87.948C316.388 88.0367 316.426 88.157 316.426 88.309V89.145C316.426 89.259 316.388 89.354 316.312 89.43C316.236 89.4933 316.147 89.525 316.046 89.525ZM384.168 89.506C384.067 89.506 383.978 89.4743 383.902 89.411C383.826 89.3477 383.788 89.2527 383.788 89.126V88.29C383.788 88.138 383.82 88.0177 383.883 87.929C383.959 87.8403 384.073 87.7517 384.225 87.663L389.298 84.186L384.225 80.709C384.073 80.6077 383.959 80.5127 383.883 80.424C383.82 80.3353 383.788 80.215 383.788 80.063V79.227C383.788 79.1003 383.826 79.0053 383.902 78.942C383.978 78.8787 384.067 78.847 384.168 78.847C384.244 78.847 384.326 78.8723 384.415 78.923C384.504 78.961 384.573 78.999 384.624 79.037L390.59 83.141C390.793 83.2803 390.932 83.4133 391.008 83.54C391.097 83.6667 391.141 83.825 391.141 84.015V84.338C391.141 84.5153 391.097 84.6737 391.008 84.813C390.932 84.9397 390.793 85.0727 390.59 85.212L384.624 89.316C384.573 89.354 384.504 89.3983 384.415 89.449C384.326 89.487 384.244 89.506 384.168 89.506ZM21.676 120.525C21.6 120.525 21.5177 120.5 21.429 120.449C21.353 120.398 21.2833 120.36 21.22 120.335L15.235 116.212C15.045 116.085 14.9057 115.959 14.817 115.832C14.7283 115.693 14.684 115.534 14.684 115.357V115.015C14.684 114.838 14.7283 114.686 14.817 114.559C14.9057 114.432 15.045 114.299 15.235 114.16L21.22 110.056C21.2833 110.018 21.353 109.974 21.429 109.923C21.5177 109.872 21.6 109.847 21.676 109.847C21.7773 109.847 21.866 109.885 21.942 109.961C22.018 110.024 22.056 110.119 22.056 110.246V111.082C22.056 111.221 22.018 111.342 21.942 111.443C21.866 111.532 21.7583 111.62 21.619 111.709L16.527 115.186L21.619 118.663C21.7583 118.764 21.866 118.859 21.942 118.948C22.018 119.037 22.056 119.157 22.056 119.309V120.145C22.056 120.259 22.018 120.354 21.942 120.43C21.866 120.493 21.7773 120.525 21.676 120.525ZM492.657 120.506C492.556 120.506 492.467 120.474 492.391 120.411C492.315 120.348 492.277 120.253 492.277 120.126V119.29C492.277 119.138 492.309 119.018 492.372 118.929C492.448 118.84 492.562 118.752 492.714 118.663L497.787 115.186L492.714 111.709C492.562 111.608 492.448 111.513 492.372 111.424C492.309 111.335 492.277 111.215 492.277 111.063V110.227C492.277 110.1 492.315 110.005 492.391 109.942C492.467 109.879 492.556 109.847 492.657 109.847C492.733 109.847 492.816 109.872 492.904 109.923C492.993 109.961 493.063 109.999 493.113 110.037L499.079 114.141C499.282 114.28 499.421 114.413 499.497 114.54C499.586 114.667 499.63 114.825 499.63 115.015V115.338C499.63 115.515 499.586 115.674 499.497 115.813C499.421 115.94 499.282 116.073 499.079 116.212L493.113 120.316C493.063 120.354 492.993 120.398 492.904 120.449C492.816 120.487 492.733 120.506 492.657 120.506Z" fill="#647DFF"/>
<path d="M29.8708 90C29.7441 90 29.6365 89.962 29.5478 89.886C29.4718 89.7973 29.4338 89.6897 29.4338 89.563V76.947C29.4338 76.8203 29.4718 76.719 29.5478 76.643C29.6365 76.5543 29.7441 76.51 29.8708 76.51H30.7638C30.9031 76.51 31.0108 76.5543 31.0868 76.643C31.1628 76.719 31.2008 76.8203 31.2008 76.947V89.563C31.2008 89.6897 31.1628 89.7973 31.0868 89.886C31.0108 89.962 30.9031 90 30.7638 90H29.8708ZM36.7899 90.19C36.1566 90.19 35.5802 90.0633 35.0609 89.81C34.5416 89.5567 34.1236 89.2147 33.8069 88.784C33.4902 88.3533 33.3319 87.8657 33.3319 87.321C33.3319 86.447 33.6866 85.7503 34.3959 85.231C35.1052 84.7117 36.0299 84.3697 37.1699 84.205L40.0009 83.806V83.255C40.0009 82.647 39.8236 82.172 39.4689 81.83C39.1269 81.488 38.5632 81.317 37.7779 81.317C37.2079 81.317 36.7456 81.431 36.3909 81.659C36.0489 81.887 35.8082 82.1783 35.6689 82.533C35.5929 82.723 35.4599 82.818 35.2699 82.818H34.4149C34.2756 82.818 34.1679 82.78 34.0919 82.704C34.0286 82.6153 33.9969 82.514 33.9969 82.4C33.9969 82.21 34.0666 81.9757 34.2059 81.697C34.3579 81.4183 34.5859 81.146 34.8899 80.88C35.1939 80.614 35.5802 80.3923 36.0489 80.215C36.5302 80.025 37.1129 79.93 37.7969 79.93C38.5569 79.93 39.1966 80.0313 39.7159 80.234C40.2352 80.424 40.6406 80.6837 40.9319 81.013C41.2359 81.3423 41.4512 81.716 41.5779 82.134C41.7172 82.552 41.7869 82.9763 41.7869 83.407V89.563C41.7869 89.6897 41.7426 89.7973 41.6539 89.886C41.5779 89.962 41.4766 90 41.3499 90H40.4759C40.3366 90 40.2289 89.962 40.1529 89.886C40.0769 89.7973 40.0389 89.6897 40.0389 89.563V88.746C39.8742 88.974 39.6526 89.202 39.3739 89.43C39.0952 89.6453 38.7469 89.829 38.3289 89.981C37.9109 90.1203 37.3979 90.19 36.7899 90.19ZM37.1889 88.765C37.7082 88.765 38.1832 88.6573 38.6139 88.442C39.0446 88.214 39.3802 87.8657 39.6209 87.397C39.8742 86.9283 40.0009 86.3393 40.0009 85.63V85.098L37.7969 85.421C36.8976 85.5477 36.2199 85.763 35.7639 86.067C35.3079 86.3583 35.0799 86.732 35.0799 87.188C35.0799 87.5427 35.1812 87.8403 35.3839 88.081C35.5992 88.309 35.8652 88.48 36.1819 88.594C36.5112 88.708 36.8469 88.765 37.1889 88.765ZM49.4013 90.19C48.6413 90.19 48.008 90.057 47.5013 89.791C46.9946 89.5123 46.5893 89.1703 46.2853 88.765V89.563C46.2853 89.6897 46.241 89.7973 46.1523 89.886C46.0763 89.962 45.975 90 45.8483 90H44.9743C44.8476 90 44.74 89.962 44.6513 89.886C44.5753 89.7973 44.5373 89.6897 44.5373 89.563V76.947C44.5373 76.8203 44.5753 76.719 44.6513 76.643C44.74 76.5543 44.8476 76.51 44.9743 76.51H45.8863C46.0256 76.51 46.1333 76.5543 46.2093 76.643C46.2853 76.719 46.3233 76.8203 46.3233 76.947V81.317C46.64 80.9243 47.0453 80.595 47.5393 80.329C48.046 80.063 48.6666 79.93 49.4013 79.93C50.1106 79.93 50.7123 80.0567 51.2063 80.31C51.713 80.5507 52.1246 80.8863 52.4413 81.317C52.7706 81.7477 53.0176 82.2353 53.1823 82.78C53.347 83.3247 53.4356 83.8947 53.4483 84.49C53.461 84.6927 53.4673 84.8827 53.4673 85.06C53.4673 85.2373 53.461 85.4273 53.4483 85.63C53.4356 86.238 53.347 86.8143 53.1823 87.359C53.0176 87.9037 52.7706 88.3913 52.4413 88.822C52.1246 89.24 51.713 89.5757 51.2063 89.829C50.7123 90.0697 50.1106 90.19 49.4013 90.19ZM49.0023 88.651C49.661 88.651 50.174 88.5117 50.5413 88.233C50.9213 87.9417 51.1936 87.568 51.3583 87.112C51.523 86.6433 51.618 86.143 51.6433 85.611C51.656 85.2437 51.656 84.8763 51.6433 84.509C51.618 83.977 51.523 83.483 51.3583 83.027C51.1936 82.5583 50.9213 82.1847 50.5413 81.906C50.174 81.6147 49.661 81.469 49.0023 81.469C48.407 81.469 47.913 81.6083 47.5203 81.887C47.1276 82.1657 46.83 82.5203 46.6273 82.951C46.4373 83.3817 46.336 83.8187 46.3233 84.262C46.3106 84.4647 46.3043 84.7117 46.3043 85.003C46.3043 85.2817 46.3106 85.5223 46.3233 85.725C46.3486 86.1937 46.45 86.656 46.6273 87.112C46.8173 87.5553 47.1023 87.9227 47.4823 88.214C47.875 88.5053 48.3816 88.651 49.0023 88.651ZM59.7511 90.19C58.4464 90.19 57.4078 89.791 56.6351 88.993C55.8624 88.1823 55.4381 87.0803 55.3621 85.687C55.3494 85.5223 55.3431 85.3133 55.3431 85.06C55.3431 84.794 55.3494 84.5787 55.3621 84.414C55.4128 83.5147 55.6218 82.7293 55.9891 82.058C56.3564 81.374 56.8568 80.8483 57.4901 80.481C58.1361 80.1137 58.8898 79.93 59.7511 79.93C60.7138 79.93 61.5181 80.1327 62.1641 80.538C62.8228 80.9433 63.3231 81.5197 63.6651 82.267C64.0071 83.0143 64.1781 83.8883 64.1781 84.889V85.212C64.1781 85.3513 64.1338 85.459 64.0451 85.535C63.9691 85.611 63.8678 85.649 63.7411 85.649H57.1671C57.1671 85.6617 57.1671 85.687 57.1671 85.725C57.1671 85.763 57.1671 85.7947 57.1671 85.82C57.1924 86.3393 57.3064 86.827 57.5091 87.283C57.7118 87.7263 58.0031 88.0873 58.3831 88.366C58.7631 88.6447 59.2191 88.784 59.7511 88.784C60.2071 88.784 60.5871 88.7143 60.8911 88.575C61.1951 88.4357 61.4421 88.2837 61.6321 88.119C61.8221 87.9417 61.9488 87.8087 62.0121 87.72C62.1261 87.5553 62.2148 87.4603 62.2781 87.435C62.3414 87.397 62.4428 87.378 62.5821 87.378H63.4941C63.6208 87.378 63.7221 87.416 63.7981 87.492C63.8868 87.5553 63.9248 87.6503 63.9121 87.777C63.8994 87.967 63.7981 88.2013 63.6081 88.48C63.4181 88.746 63.1458 89.012 62.7911 89.278C62.4364 89.544 62.0058 89.7657 61.4991 89.943C60.9924 90.1077 60.4098 90.19 59.7511 90.19ZM57.1671 84.338H62.3731V84.281C62.3731 83.711 62.2654 83.2043 62.0501 82.761C61.8474 82.3177 61.5498 81.9693 61.1571 81.716C60.7644 81.45 60.2958 81.317 59.7511 81.317C59.2064 81.317 58.7378 81.45 58.3451 81.716C57.9651 81.9693 57.6738 82.3177 57.4711 82.761C57.2684 83.2043 57.1671 83.711 57.1671 84.281V84.338ZM66.9059 90C66.7793 90 66.6716 89.962 66.5829 89.886C66.5069 89.7973 66.4689 89.6897 66.4689 89.563V76.947C66.4689 76.8203 66.5069 76.719 66.5829 76.643C66.6716 76.5543 66.7793 76.51 66.9059 76.51H67.7989C67.9383 76.51 68.0459 76.5543 68.1219 76.643C68.1979 76.719 68.2359 76.8203 68.2359 76.947V89.563C68.2359 89.6897 68.1979 89.7973 68.1219 89.886C68.0459 89.962 67.9383 90 67.7989 90H66.9059ZM76.7998 90C76.6731 90 76.5654 89.962 76.4767 89.886C76.4008 89.7973 76.3628 89.6897 76.3628 89.563V81.64H74.7478C74.6211 81.64 74.5134 81.602 74.4248 81.526C74.3488 81.4373 74.3108 81.3297 74.3108 81.203V80.557C74.3108 80.4303 74.3488 80.329 74.4248 80.253C74.5134 80.1643 74.6211 80.12 74.7478 80.12H76.3628V79.17C76.3628 78.524 76.4704 77.9603 76.6858 77.479C76.9011 76.985 77.2431 76.605 77.7118 76.339C78.1931 76.073 78.8328 75.94 79.6308 75.94H80.7708C80.8974 75.94 80.9988 75.9843 81.0748 76.073C81.1508 76.149 81.1888 76.2503 81.1888 76.377V77.023C81.1888 77.1497 81.1508 77.2573 81.0748 77.346C80.9988 77.422 80.8974 77.46 80.7708 77.46H79.6688C79.0734 77.46 78.6681 77.6183 78.4528 77.935C78.2374 78.239 78.1298 78.6823 78.1298 79.265V80.12H80.5808C80.7074 80.12 80.8088 80.1643 80.8848 80.253C80.9608 80.329 80.9988 80.4303 80.9988 80.557V81.203C80.9988 81.3297 80.9608 81.4373 80.8848 81.526C80.8088 81.602 80.7074 81.64 80.5808 81.64H78.1298V89.563C78.1298 89.6897 78.0854 89.7973 77.9968 89.886C77.9208 89.962 77.8194 90 77.6928 90H76.7998ZM86.5468 90.19C85.5841 90.19 84.7798 90.0063 84.1338 89.639C83.4878 89.2717 82.9938 88.765 82.6518 88.119C82.3098 87.4603 82.1198 86.713 82.0818 85.877C82.0691 85.6617 82.0628 85.3893 82.0628 85.06C82.0628 84.718 82.0691 84.4457 82.0818 84.243C82.1198 83.3943 82.3098 82.647 82.6518 82.001C83.0064 81.355 83.5068 80.8483 84.1528 80.481C84.7988 80.1137 85.5968 79.93 86.5468 79.93C87.4968 79.93 88.2948 80.1137 88.9408 80.481C89.5868 80.8483 90.0808 81.355 90.4228 82.001C90.7774 82.647 90.9738 83.3943 91.0118 84.243C91.0244 84.4457 91.0308 84.718 91.0308 85.06C91.0308 85.3893 91.0244 85.6617 91.0118 85.877C90.9738 86.713 90.7838 87.4603 90.4418 88.119C90.0998 88.765 89.6058 89.2717 88.9598 89.639C88.3138 90.0063 87.5094 90.19 86.5468 90.19ZM86.5468 88.727C87.3321 88.727 87.9591 88.48 88.4278 87.986C88.8964 87.4793 89.1498 86.7447 89.1878 85.782C89.2004 85.592 89.2068 85.3513 89.2068 85.06C89.2068 84.7687 89.2004 84.528 89.1878 84.338C89.1498 83.3753 88.8964 82.647 88.4278 82.153C87.9591 81.6463 87.3321 81.393 86.5468 81.393C85.7614 81.393 85.1281 81.6463 84.6468 82.153C84.1781 82.647 83.9311 83.3753 83.9058 84.338C83.8931 84.528 83.8867 84.7687 83.8867 85.06C83.8867 85.3513 83.8931 85.592 83.9058 85.782C83.9311 86.7447 84.1781 87.4793 84.6468 87.986C85.1281 88.48 85.7614 88.727 86.5468 88.727ZM93.8469 90C93.7202 90 93.6126 89.962 93.5239 89.886C93.4479 89.7973 93.4099 89.6897 93.4099 89.563V80.576C93.4099 80.4493 93.4479 80.3417 93.5239 80.253C93.6126 80.1643 93.7202 80.12 93.8469 80.12H94.7209C94.8476 80.12 94.9552 80.1643 95.0439 80.253C95.1326 80.3417 95.1769 80.4493 95.1769 80.576V81.412C95.4302 80.9813 95.7786 80.6583 96.2219 80.443C96.6652 80.2277 97.1972 80.12 97.8179 80.12H98.5779C98.7046 80.12 98.8059 80.1643 98.8819 80.253C98.9579 80.329 98.9959 80.4303 98.9959 80.557V81.336C98.9959 81.4627 98.9579 81.564 98.8819 81.64C98.8059 81.716 98.7046 81.754 98.5779 81.754H97.4379C96.7539 81.754 96.2156 81.9567 95.8229 82.362C95.4302 82.7547 95.2339 83.293 95.2339 83.977V89.563C95.2339 89.6897 95.1896 89.7973 95.1009 89.886C95.0122 89.962 94.9046 90 94.7779 90H93.8469ZM105.22 82.666C105.093 82.666 104.992 82.628 104.916 82.552C104.84 82.476 104.802 82.3747 104.802 82.248V81.602C104.802 81.4753 104.84 81.374 104.916 81.298C104.992 81.222 105.093 81.184 105.22 81.184H112.459C112.585 81.184 112.687 81.222 112.763 81.298C112.851 81.374 112.896 81.4753 112.896 81.602V82.248C112.896 82.3747 112.851 82.476 112.763 82.552C112.687 82.628 112.585 82.666 112.459 82.666H105.22ZM105.22 87.416C105.093 87.416 104.992 87.378 104.916 87.302C104.84 87.226 104.802 87.1247 104.802 86.998V86.352C104.802 86.2253 104.84 86.124 104.916 86.048C104.992 85.972 105.093 85.934 105.22 85.934H112.459C112.585 85.934 112.687 85.972 112.763 86.048C112.851 86.124 112.896 86.2253 112.896 86.352V86.998C112.896 87.1247 112.851 87.226 112.763 87.302C112.687 87.378 112.585 87.416 112.459 87.416H105.22ZM123.24 80.177C123.151 80.177 123.075 80.1453 123.012 80.082C122.961 80.0187 122.936 79.9427 122.936 79.854C122.936 79.7527 122.955 79.6513 122.993 79.55L124 76.947C124.063 76.8203 124.126 76.719 124.19 76.643C124.266 76.5543 124.386 76.51 124.551 76.51H125.178C125.279 76.51 125.355 76.548 125.406 76.624C125.469 76.7 125.488 76.8013 125.463 76.928L125.045 79.626C125.032 79.778 124.981 79.911 124.893 80.025C124.804 80.1263 124.671 80.177 124.494 80.177H123.24ZM120.2 80.177C120.111 80.177 120.035 80.1453 119.972 80.082C119.921 80.0187 119.896 79.9427 119.896 79.854C119.896 79.7527 119.915 79.6513 119.953 79.55L120.96 76.947C121.023 76.8203 121.093 76.719 121.169 76.643C121.245 76.5543 121.359 76.51 121.511 76.51H122.138C122.239 76.51 122.315 76.548 122.366 76.624C122.429 76.7 122.448 76.8013 122.423 76.928L122.005 79.626C121.992 79.778 121.941 79.911 121.853 80.025C121.764 80.1263 121.637 80.177 121.473 80.177H120.2ZM177.496 80.177C177.382 80.177 177.3 80.139 177.249 80.063C177.199 79.987 177.18 79.892 177.192 79.778L177.61 77.061C177.636 76.909 177.686 76.7823 177.762 76.681C177.851 76.567 177.984 76.51 178.161 76.51H179.415C179.517 76.51 179.593 76.548 179.643 76.624C179.707 76.6873 179.738 76.757 179.738 76.833C179.738 76.9343 179.713 77.0357 179.662 77.137L178.674 79.74C178.624 79.8667 178.554 79.9743 178.465 80.063C178.389 80.139 178.269 80.177 178.104 80.177H177.496ZM174.456 80.177C174.355 80.177 174.273 80.139 174.209 80.063C174.159 79.987 174.14 79.892 174.152 79.778L174.589 77.061C174.615 76.909 174.665 76.7823 174.741 76.681C174.83 76.567 174.957 76.51 175.121 76.51H176.394C176.483 76.51 176.553 76.548 176.603 76.624C176.667 76.6873 176.698 76.757 176.698 76.833C176.698 76.9343 176.673 77.0357 176.622 77.137L175.634 79.74C175.584 79.8667 175.514 79.9743 175.425 80.063C175.349 80.139 175.229 80.177 175.064 80.177H174.456ZM323.253 91.596C323.152 91.596 323.063 91.558 322.987 91.482C322.911 91.406 322.873 91.3173 322.873 91.216C322.873 91.1527 322.892 91.0767 322.93 90.988L329.428 75.408C329.466 75.332 329.517 75.256 329.58 75.18C329.656 75.104 329.77 75.066 329.922 75.066H330.663C330.764 75.066 330.853 75.104 330.929 75.18C331.005 75.256 331.043 75.3447 331.043 75.446C331.043 75.4967 331.03 75.5727 331.005 75.674L324.488 91.254C324.463 91.3173 324.406 91.387 324.317 91.463C324.241 91.5517 324.133 91.596 323.994 91.596H323.253ZM338.046 90C337.919 90 337.811 89.962 337.723 89.886C337.647 89.7973 337.609 89.6897 337.609 89.563V76.947C337.609 76.8203 337.647 76.719 337.723 76.643C337.811 76.5543 337.919 76.51 338.046 76.51H338.939C339.078 76.51 339.186 76.5543 339.262 76.643C339.338 76.719 339.376 76.8203 339.376 76.947V89.563C339.376 89.6897 339.338 89.7973 339.262 89.886C339.186 89.962 339.078 90 338.939 90H338.046ZM344.965 90.19C344.331 90.19 343.755 90.0633 343.236 89.81C342.716 89.5567 342.298 89.2147 341.982 88.784C341.665 88.3533 341.507 87.8657 341.507 87.321C341.507 86.447 341.861 85.7503 342.571 85.231C343.28 84.7117 344.205 84.3697 345.345 84.205L348.176 83.806V83.255C348.176 82.647 347.998 82.172 347.644 81.83C347.302 81.488 346.738 81.317 345.953 81.317C345.383 81.317 344.92 81.431 344.566 81.659C344.224 81.887 343.983 82.1783 343.844 82.533C343.768 82.723 343.635 82.818 343.445 82.818H342.59C342.45 82.818 342.343 82.78 342.267 82.704C342.203 82.6153 342.172 82.514 342.172 82.4C342.172 82.21 342.241 81.9757 342.381 81.697C342.533 81.4183 342.761 81.146 343.065 80.88C343.369 80.614 343.755 80.3923 344.224 80.215C344.705 80.025 345.288 79.93 345.972 79.93C346.732 79.93 347.371 80.0313 347.891 80.234C348.41 80.424 348.815 80.6837 349.107 81.013C349.411 81.3423 349.626 81.716 349.753 82.134C349.892 82.552 349.962 82.9763 349.962 83.407V89.563C349.962 89.6897 349.917 89.7973 349.829 89.886C349.753 89.962 349.651 90 349.525 90H348.651C348.511 90 348.404 89.962 348.328 89.886C348.252 89.7973 348.214 89.6897 348.214 89.563V88.746C348.049 88.974 347.827 89.202 347.549 89.43C347.27 89.6453 346.922 89.829 346.504 89.981C346.086 90.1203 345.573 90.19 344.965 90.19ZM345.364 88.765C345.883 88.765 346.358 88.6573 346.789 88.442C347.219 88.214 347.555 87.8657 347.796 87.397C348.049 86.9283 348.176 86.3393 348.176 85.63V85.098L345.972 85.421C345.072 85.5477 344.395 85.763 343.939 86.067C343.483 86.3583 343.255 86.732 343.255 87.188C343.255 87.5427 343.356 87.8403 343.559 88.081C343.774 88.309 344.04 88.48 344.357 88.594C344.686 88.708 345.022 88.765 345.364 88.765ZM357.576 90.19C356.816 90.19 356.183 90.057 355.676 89.791C355.169 89.5123 354.764 89.1703 354.46 88.765V89.563C354.46 89.6897 354.416 89.7973 354.327 89.886C354.251 89.962 354.15 90 354.023 90H353.149C353.022 90 352.915 89.962 352.826 89.886C352.75 89.7973 352.712 89.6897 352.712 89.563V76.947C352.712 76.8203 352.75 76.719 352.826 76.643C352.915 76.5543 353.022 76.51 353.149 76.51H354.061C354.2 76.51 354.308 76.5543 354.384 76.643C354.46 76.719 354.498 76.8203 354.498 76.947V81.317C354.815 80.9243 355.22 80.595 355.714 80.329C356.221 80.063 356.841 79.93 357.576 79.93C358.285 79.93 358.887 80.0567 359.381 80.31C359.888 80.5507 360.299 80.8863 360.616 81.317C360.945 81.7477 361.192 82.2353 361.357 82.78C361.522 83.3247 361.61 83.8947 361.623 84.49C361.636 84.6927 361.642 84.8827 361.642 85.06C361.642 85.2373 361.636 85.4273 361.623 85.63C361.61 86.238 361.522 86.8143 361.357 87.359C361.192 87.9037 360.945 88.3913 360.616 88.822C360.299 89.24 359.888 89.5757 359.381 89.829C358.887 90.0697 358.285 90.19 357.576 90.19ZM357.177 88.651C357.836 88.651 358.349 88.5117 358.716 88.233C359.096 87.9417 359.368 87.568 359.533 87.112C359.698 86.6433 359.793 86.143 359.818 85.611C359.831 85.2437 359.831 84.8763 359.818 84.509C359.793 83.977 359.698 83.483 359.533 83.027C359.368 82.5583 359.096 82.1847 358.716 81.906C358.349 81.6147 357.836 81.469 357.177 81.469C356.582 81.469 356.088 81.6083 355.695 81.887C355.302 82.1657 355.005 82.5203 354.802 82.951C354.612 83.3817 354.511 83.8187 354.498 84.262C354.485 84.4647 354.479 84.7117 354.479 85.003C354.479 85.2817 354.485 85.5223 354.498 85.725C354.523 86.1937 354.625 86.656 354.802 87.112C354.992 87.5553 355.277 87.9227 355.657 88.214C356.05 88.5053 356.556 88.651 357.177 88.651ZM367.926 90.19C366.621 90.19 365.583 89.791 364.81 88.993C364.037 88.1823 363.613 87.0803 363.537 85.687C363.524 85.5223 363.518 85.3133 363.518 85.06C363.518 84.794 363.524 84.5787 363.537 84.414C363.588 83.5147 363.797 82.7293 364.164 82.058C364.531 81.374 365.032 80.8483 365.665 80.481C366.311 80.1137 367.065 79.93 367.926 79.93C368.889 79.93 369.693 80.1327 370.339 80.538C370.998 80.9433 371.498 81.5197 371.84 82.267C372.182 83.0143 372.353 83.8883 372.353 84.889V85.212C372.353 85.3513 372.309 85.459 372.22 85.535C372.144 85.611 372.043 85.649 371.916 85.649H365.342C365.342 85.6617 365.342 85.687 365.342 85.725C365.342 85.763 365.342 85.7947 365.342 85.82C365.367 86.3393 365.481 86.827 365.684 87.283C365.887 87.7263 366.178 88.0873 366.558 88.366C366.938 88.6447 367.394 88.784 367.926 88.784C368.382 88.784 368.762 88.7143 369.066 88.575C369.37 88.4357 369.617 88.2837 369.807 88.119C369.997 87.9417 370.124 87.8087 370.187 87.72C370.301 87.5553 370.39 87.4603 370.453 87.435C370.516 87.397 370.618 87.378 370.757 87.378H371.669C371.796 87.378 371.897 87.416 371.973 87.492C372.062 87.5553 372.1 87.6503 372.087 87.777C372.074 87.967 371.973 88.2013 371.783 88.48C371.593 88.746 371.321 89.012 370.966 89.278C370.611 89.544 370.181 89.7657 369.674 89.943C369.167 90.1077 368.585 90.19 367.926 90.19ZM365.342 84.338H370.548V84.281C370.548 83.711 370.44 83.2043 370.225 82.761C370.022 82.3177 369.725 81.9693 369.332 81.716C368.939 81.45 368.471 81.317 367.926 81.317C367.381 81.317 366.913 81.45 366.52 81.716C366.14 81.9693 365.849 82.3177 365.646 82.761C365.443 83.2043 365.342 83.711 365.342 84.281V84.338ZM375.081 90C374.954 90 374.846 89.962 374.758 89.886C374.682 89.7973 374.644 89.6897 374.644 89.563V76.947C374.644 76.8203 374.682 76.719 374.758 76.643C374.846 76.5543 374.954 76.51 375.081 76.51H375.974C376.113 76.51 376.221 76.5543 376.297 76.643C376.373 76.719 376.411 76.8203 376.411 76.947V89.563C376.411 89.6897 376.373 89.7973 376.297 89.886C376.221 89.962 376.113 90 375.974 90H375.081ZM29.8518 121C29.7251 121 29.6175 120.962 29.5288 120.886C29.4528 120.797 29.4148 120.69 29.4148 120.563V111.557C29.4148 111.43 29.4528 111.329 29.5288 111.253C29.6175 111.164 29.7251 111.12 29.8518 111.12H30.7638C30.8905 111.12 30.9918 111.164 31.0678 111.253C31.1438 111.329 31.1818 111.43 31.1818 111.557V120.563C31.1818 120.69 31.1438 120.797 31.0678 120.886C30.9918 120.962 30.8905 121 30.7638 121H29.8518ZM29.6998 109.277C29.5731 109.277 29.4655 109.239 29.3768 109.163C29.3008 109.074 29.2628 108.967 29.2628 108.84V107.814C29.2628 107.687 29.3008 107.586 29.3768 107.51C29.4655 107.421 29.5731 107.377 29.6998 107.377H30.8968C31.0235 107.377 31.1248 107.421 31.2008 107.51C31.2895 107.586 31.3338 107.687 31.3338 107.814V108.84C31.3338 108.967 31.2895 109.074 31.2008 109.163C31.1248 109.239 31.0235 109.277 30.8968 109.277H29.6998ZM34.6389 121C34.5122 121 34.4046 120.962 34.3159 120.886C34.2399 120.797 34.2019 120.69 34.2019 120.563V111.557C34.2019 111.43 34.2399 111.329 34.3159 111.253C34.4046 111.164 34.5122 111.12 34.6389 111.12H35.5319C35.6586 111.12 35.7599 111.164 35.8359 111.253C35.9246 111.329 35.9689 111.43 35.9689 111.557V112.393C36.2982 111.962 36.7099 111.614 37.2039 111.348C37.7106 111.069 38.3566 110.93 39.1419 110.93C39.9652 110.93 40.6619 111.114 41.2319 111.481C41.8146 111.836 42.2516 112.336 42.5429 112.982C42.8342 113.615 42.9799 114.356 42.9799 115.205V120.563C42.9799 120.69 42.9419 120.797 42.8659 120.886C42.7899 120.962 42.6886 121 42.5619 121H41.6119C41.4852 121 41.3776 120.962 41.2889 120.886C41.2129 120.797 41.1749 120.69 41.1749 120.563V115.3C41.1749 114.413 40.9596 113.723 40.5289 113.229C40.0982 112.722 39.4649 112.469 38.6289 112.469C37.8436 112.469 37.2102 112.722 36.7289 113.229C36.2602 113.723 36.0259 114.413 36.0259 115.3V120.563C36.0259 120.69 35.9816 120.797 35.8929 120.886C35.8169 120.962 35.7156 121 35.5889 121H34.6389ZM46.1804 124.61C46.0537 124.61 45.946 124.566 45.8574 124.477C45.7814 124.401 45.7434 124.3 45.7434 124.173V111.557C45.7434 111.43 45.7814 111.329 45.8574 111.253C45.946 111.164 46.0537 111.12 46.1804 111.12H47.0544C47.181 111.12 47.2824 111.164 47.3584 111.253C47.447 111.329 47.4914 111.43 47.4914 111.557V112.393C47.7954 111.975 48.2007 111.627 48.7074 111.348C49.214 111.069 49.8474 110.93 50.6074 110.93C51.3167 110.93 51.9184 111.05 52.4124 111.291C52.919 111.532 53.3307 111.861 53.6474 112.279C53.9767 112.697 54.2237 113.172 54.3884 113.704C54.553 114.236 54.6417 114.806 54.6544 115.414C54.667 115.617 54.6734 115.832 54.6734 116.06C54.6734 116.288 54.667 116.503 54.6544 116.706C54.6417 117.301 54.553 117.871 54.3884 118.416C54.2237 118.948 53.9767 119.423 53.6474 119.841C53.3307 120.246 52.919 120.576 52.4124 120.829C51.9184 121.07 51.3167 121.19 50.6074 121.19C49.8727 121.19 49.252 121.057 48.7454 120.791C48.2514 120.512 47.846 120.17 47.5294 119.765V124.173C47.5294 124.3 47.4914 124.401 47.4154 124.477C47.3394 124.566 47.2317 124.61 47.0924 124.61H46.1804ZM50.2084 119.651C50.867 119.651 51.38 119.512 51.7474 119.233C52.1274 118.942 52.3997 118.568 52.5644 118.112C52.729 117.643 52.824 117.143 52.8494 116.611C52.862 116.244 52.862 115.876 52.8494 115.509C52.824 114.977 52.729 114.483 52.5644 114.027C52.3997 113.558 52.1274 113.185 51.7474 112.906C51.38 112.615 50.867 112.469 50.2084 112.469C49.5877 112.469 49.081 112.615 48.6884 112.906C48.3084 113.197 48.0234 113.571 47.8334 114.027C47.656 114.47 47.5547 114.926 47.5294 115.395C47.5167 115.598 47.5104 115.838 47.5104 116.117C47.5104 116.396 47.5167 116.643 47.5294 116.858C47.542 117.301 47.6434 117.738 47.8334 118.169C48.036 118.6 48.3337 118.954 48.7264 119.233C49.119 119.512 49.613 119.651 50.2084 119.651ZM60.7287 121.19C59.9181 121.19 59.2277 121.013 58.6577 120.658C58.1004 120.291 57.6761 119.784 57.3847 119.138C57.0934 118.492 56.9477 117.751 56.9477 116.915V111.557C56.9477 111.43 56.9857 111.329 57.0617 111.253C57.1504 111.164 57.2581 111.12 57.3847 111.12H58.3347C58.4614 111.12 58.5627 111.164 58.6387 111.253C58.7274 111.329 58.7717 111.43 58.7717 111.557V116.82C58.7717 118.707 59.5951 119.651 61.2417 119.651C62.0271 119.651 62.6541 119.404 63.1227 118.91C63.6041 118.403 63.8447 117.707 63.8447 116.82V111.557C63.8447 111.43 63.8827 111.329 63.9587 111.253C64.0474 111.164 64.1551 111.12 64.2817 111.12H65.2127C65.3521 111.12 65.4597 111.164 65.5357 111.253C65.6117 111.329 65.6497 111.43 65.6497 111.557V120.563C65.6497 120.69 65.6117 120.797 65.5357 120.886C65.4597 120.962 65.3521 121 65.2127 121H64.3387C64.2121 121 64.1044 120.962 64.0157 120.886C63.9397 120.797 63.9017 120.69 63.9017 120.563V119.727C63.5597 120.17 63.1417 120.525 62.6477 120.791C62.1664 121.057 61.5267 121.19 60.7287 121.19ZM72.3294 121C71.6201 121 71.0437 120.867 70.6004 120.601C70.1571 120.322 69.8341 119.936 69.6314 119.442C69.4287 118.935 69.3274 118.34 69.3274 117.656V112.64H67.8454C67.7187 112.64 67.6111 112.602 67.5224 112.526C67.4464 112.437 67.4084 112.33 67.4084 112.203V111.557C67.4084 111.43 67.4464 111.329 67.5224 111.253C67.6111 111.164 67.7187 111.12 67.8454 111.12H69.3274V107.947C69.3274 107.82 69.3654 107.719 69.4414 107.643C69.5301 107.554 69.6377 107.51 69.7644 107.51H70.6574C70.7841 107.51 70.8854 107.554 70.9614 107.643C71.0501 107.719 71.0944 107.82 71.0944 107.947V111.12H73.4504C73.5771 111.12 73.6784 111.164 73.7544 111.253C73.8431 111.329 73.8874 111.43 73.8874 111.557V112.203C73.8874 112.33 73.8431 112.437 73.7544 112.526C73.6784 112.602 73.5771 112.64 73.4504 112.64H71.0944V117.523C71.0944 118.118 71.1957 118.587 71.3984 118.929C71.6011 119.271 71.9621 119.442 72.4814 119.442H73.6404C73.7671 119.442 73.8684 119.486 73.9444 119.575C74.0331 119.651 74.0774 119.752 74.0774 119.879V120.563C74.0774 120.69 74.0331 120.797 73.9444 120.886C73.8684 120.962 73.7671 121 73.6404 121H72.3294ZM84.0003 121C83.291 121 82.7146 120.867 82.2713 120.601C81.828 120.322 81.505 119.936 81.3023 119.442C81.0996 118.935 80.9983 118.34 80.9983 117.656V112.64H79.5163C79.3896 112.64 79.282 112.602 79.1933 112.526C79.1173 112.437 79.0793 112.33 79.0793 112.203V111.557C79.0793 111.43 79.1173 111.329 79.1933 111.253C79.282 111.164 79.3896 111.12 79.5163 111.12H80.9983V107.947C80.9983 107.82 81.0363 107.719 81.1123 107.643C81.201 107.554 81.3086 107.51 81.4353 107.51H82.3283C82.455 107.51 82.5563 107.554 82.6323 107.643C82.721 107.719 82.7653 107.82 82.7653 107.947V111.12H85.1213C85.248 111.12 85.3493 111.164 85.4253 111.253C85.514 111.329 85.5583 111.43 85.5583 111.557V112.203C85.5583 112.33 85.514 112.437 85.4253 112.526C85.3493 112.602 85.248 112.64 85.1213 112.64H82.7653V117.523C82.7653 118.118 82.8666 118.587 83.0693 118.929C83.272 119.271 83.633 119.442 84.1523 119.442H85.3113C85.438 119.442 85.5393 119.486 85.6153 119.575C85.704 119.651 85.7483 119.752 85.7483 119.879V120.563C85.7483 120.69 85.704 120.797 85.6153 120.886C85.5393 120.962 85.438 121 85.3113 121H84.0003ZM89.2942 124.61C89.1928 124.61 89.1042 124.572 89.0282 124.496C88.9522 124.42 88.9142 124.331 88.9142 124.23C88.9142 124.179 88.9205 124.129 88.9332 124.078C88.9458 124.027 88.9712 123.964 89.0092 123.888L90.4722 120.411L86.8432 111.842C86.7798 111.69 86.7482 111.582 86.7482 111.519C86.7482 111.405 86.7862 111.31 86.8622 111.234C86.9382 111.158 87.0332 111.12 87.1472 111.12H88.0782C88.2048 111.12 88.3062 111.152 88.3822 111.215C88.4582 111.278 88.5088 111.354 88.5342 111.443L91.4222 118.359L94.3862 111.443C94.4242 111.354 94.4748 111.278 94.5382 111.215C94.6142 111.152 94.7218 111.12 94.8612 111.12H95.7542C95.8682 111.12 95.9632 111.158 96.0392 111.234C96.1152 111.31 96.1532 111.399 96.1532 111.5C96.1532 111.563 96.1215 111.677 96.0582 111.842L90.6622 124.287C90.6242 124.376 90.5672 124.452 90.4912 124.515C90.4278 124.578 90.3265 124.61 90.1872 124.61H89.2942ZM98.486 124.61C98.3594 124.61 98.2517 124.566 98.163 124.477C98.087 124.401 98.049 124.3 98.049 124.173V111.557C98.049 111.43 98.087 111.329 98.163 111.253C98.2517 111.164 98.3594 111.12 98.486 111.12H99.36C99.4867 111.12 99.588 111.164 99.664 111.253C99.7527 111.329 99.797 111.43 99.797 111.557V112.393C100.101 111.975 100.506 111.627 101.013 111.348C101.52 111.069 102.153 110.93 102.913 110.93C103.622 110.93 104.224 111.05 104.718 111.291C105.225 111.532 105.636 111.861 105.953 112.279C106.282 112.697 106.529 113.172 106.694 113.704C106.859 114.236 106.947 114.806 106.96 115.414C106.973 115.617 106.979 115.832 106.979 116.06C106.979 116.288 106.973 116.503 106.96 116.706C106.947 117.301 106.859 117.871 106.694 118.416C106.529 118.948 106.282 119.423 105.953 119.841C105.636 120.246 105.225 120.576 104.718 120.829C104.224 121.07 103.622 121.19 102.913 121.19C102.178 121.19 101.558 121.057 101.051 120.791C100.557 120.512 100.152 120.17 99.835 119.765V124.173C99.835 124.3 99.797 124.401 99.721 124.477C99.645 124.566 99.5374 124.61 99.398 124.61H98.486ZM102.514 119.651C103.173 119.651 103.686 119.512 104.053 119.233C104.433 118.942 104.705 118.568 104.87 118.112C105.035 117.643 105.13 117.143 105.155 116.611C105.168 116.244 105.168 115.876 105.155 115.509C105.13 114.977 105.035 114.483 104.87 114.027C104.705 113.558 104.433 113.185 104.053 112.906C103.686 112.615 103.173 112.469 102.514 112.469C101.893 112.469 101.387 112.615 100.994 112.906C100.614 113.197 100.329 113.571 100.139 114.027C99.9617 114.47 99.8604 114.926 99.835 115.395C99.8224 115.598 99.816 115.838 99.816 116.117C99.816 116.396 99.8224 116.643 99.835 116.858C99.8477 117.301 99.949 117.738 100.139 118.169C100.342 118.6 100.639 118.954 101.032 119.233C101.425 119.512 101.919 119.651 102.514 119.651ZM113.281 121.19C111.977 121.19 110.938 120.791 110.165 119.993C109.393 119.182 108.968 118.08 108.892 116.687C108.88 116.522 108.873 116.313 108.873 116.06C108.873 115.794 108.88 115.579 108.892 115.414C108.943 114.515 109.152 113.729 109.519 113.058C109.887 112.374 110.387 111.848 111.02 111.481C111.666 111.114 112.42 110.93 113.281 110.93C114.244 110.93 115.048 111.133 115.694 111.538C116.353 111.943 116.853 112.52 117.195 113.267C117.537 114.014 117.708 114.888 117.708 115.889V116.212C117.708 116.351 117.664 116.459 117.575 116.535C117.499 116.611 117.398 116.649 117.271 116.649H110.697C110.697 116.662 110.697 116.687 110.697 116.725C110.697 116.763 110.697 116.795 110.697 116.82C110.723 117.339 110.837 117.827 111.039 118.283C111.242 118.726 111.533 119.087 111.913 119.366C112.293 119.645 112.749 119.784 113.281 119.784C113.737 119.784 114.117 119.714 114.421 119.575C114.725 119.436 114.972 119.284 115.162 119.119C115.352 118.942 115.479 118.809 115.542 118.72C115.656 118.555 115.745 118.46 115.808 118.435C115.872 118.397 115.973 118.378 116.112 118.378H117.024C117.151 118.378 117.252 118.416 117.328 118.492C117.417 118.555 117.455 118.65 117.442 118.777C117.43 118.967 117.328 119.201 117.138 119.48C116.948 119.746 116.676 120.012 116.321 120.278C115.967 120.544 115.536 120.766 115.029 120.943C114.523 121.108 113.94 121.19 113.281 121.19ZM110.697 115.338H115.903V115.281C115.903 114.711 115.796 114.204 115.58 113.761C115.378 113.318 115.08 112.969 114.687 112.716C114.295 112.45 113.826 112.317 113.281 112.317C112.737 112.317 112.268 112.45 111.875 112.716C111.495 112.969 111.204 113.318 111.001 113.761C110.799 114.204 110.697 114.711 110.697 115.281V115.338ZM125.017 113.666C124.891 113.666 124.789 113.628 124.713 113.552C124.637 113.476 124.599 113.375 124.599 113.248V112.602C124.599 112.475 124.637 112.374 124.713 112.298C124.789 112.222 124.891 112.184 125.017 112.184H132.256C132.383 112.184 132.484 112.222 132.56 112.298C132.649 112.374 132.693 112.475 132.693 112.602V113.248C132.693 113.375 132.649 113.476 132.56 113.552C132.484 113.628 132.383 113.666 132.256 113.666H125.017ZM125.017 118.416C124.891 118.416 124.789 118.378 124.713 118.302C124.637 118.226 124.599 118.125 124.599 117.998V117.352C124.599 117.225 124.637 117.124 124.713 117.048C124.789 116.972 124.891 116.934 125.017 116.934H132.256C132.383 116.934 132.484 116.972 132.56 117.048C132.649 117.124 132.693 117.225 132.693 117.352V117.998C132.693 118.125 132.649 118.226 132.56 118.302C132.484 118.378 132.383 118.416 132.256 118.416H125.017ZM143.038 111.177C142.949 111.177 142.873 111.145 142.81 111.082C142.759 111.019 142.734 110.943 142.734 110.854C142.734 110.753 142.753 110.651 142.791 110.55L143.798 107.947C143.861 107.82 143.924 107.719 143.988 107.643C144.064 107.554 144.184 107.51 144.349 107.51H144.976C145.077 107.51 145.153 107.548 145.204 107.624C145.267 107.7 145.286 107.801 145.261 107.928L144.843 110.626C144.83 110.778 144.779 110.911 144.691 111.025C144.602 111.126 144.469 111.177 144.292 111.177H143.038ZM139.998 111.177C139.909 111.177 139.833 111.145 139.77 111.082C139.719 111.019 139.694 110.943 139.694 110.854C139.694 110.753 139.713 110.651 139.751 110.55L140.758 107.947C140.821 107.82 140.891 107.719 140.967 107.643C141.043 107.554 141.157 107.51 141.309 107.51H141.936C142.037 107.51 142.113 107.548 142.164 107.624C142.227 107.7 142.246 107.801 142.221 107.928L141.803 110.626C141.79 110.778 141.739 110.911 141.651 111.025C141.562 111.126 141.435 111.177 141.271 111.177H139.998ZM245.073 111.177C244.959 111.177 244.876 111.139 244.826 111.063C244.775 110.987 244.756 110.892 244.769 110.778L245.187 108.061C245.212 107.909 245.263 107.782 245.339 107.681C245.427 107.567 245.56 107.51 245.738 107.51H246.992C247.093 107.51 247.169 107.548 247.22 107.624C247.283 107.687 247.315 107.757 247.315 107.833C247.315 107.934 247.289 108.036 247.239 108.137L246.251 110.74C246.2 110.867 246.13 110.974 246.042 111.063C245.966 111.139 245.845 111.177 245.681 111.177H245.073ZM242.033 111.177C241.931 111.177 241.849 111.139 241.786 111.063C241.735 110.987 241.716 110.892 241.729 110.778L242.166 108.061C242.191 107.909 242.242 107.782 242.318 107.681C242.406 107.567 242.533 107.51 242.698 107.51H243.971C244.059 107.51 244.129 107.548 244.18 107.624C244.243 107.687 244.275 107.757 244.275 107.833C244.275 107.934 244.249 108.036 244.199 108.137L243.211 110.74C243.16 110.867 243.09 110.974 243.002 111.063C242.926 111.139 242.805 111.177 242.641 111.177H242.033ZM254.512 121C254.385 121 254.278 120.962 254.189 120.886C254.113 120.797 254.075 120.69 254.075 120.563V111.557C254.075 111.43 254.113 111.329 254.189 111.253C254.278 111.164 254.385 111.12 254.512 111.12H255.424C255.551 111.12 255.652 111.164 255.728 111.253C255.804 111.329 255.842 111.43 255.842 111.557V120.563C255.842 120.69 255.804 120.797 255.728 120.886C255.652 120.962 255.551 121 255.424 121H254.512ZM254.36 109.277C254.233 109.277 254.126 109.239 254.037 109.163C253.961 109.074 253.923 108.967 253.923 108.84V107.814C253.923 107.687 253.961 107.586 254.037 107.51C254.126 107.421 254.233 107.377 254.36 107.377H255.557C255.684 107.377 255.785 107.421 255.861 107.51C255.95 107.586 255.994 107.687 255.994 107.814V108.84C255.994 108.967 255.95 109.074 255.861 109.163C255.785 109.239 255.684 109.277 255.557 109.277H254.36ZM262.287 121.19C261.59 121.19 260.988 121.07 260.482 120.829C259.975 120.576 259.557 120.24 259.228 119.822C258.911 119.391 258.67 118.904 258.506 118.359C258.354 117.814 258.265 117.238 258.24 116.63C258.227 116.427 258.221 116.237 258.221 116.06C258.221 115.883 258.227 115.693 258.24 115.49C258.265 114.895 258.354 114.325 258.506 113.78C258.67 113.235 258.911 112.748 259.228 112.317C259.557 111.886 259.975 111.551 260.482 111.31C260.988 111.057 261.59 110.93 262.287 110.93C263.034 110.93 263.655 111.063 264.149 111.329C264.643 111.595 265.048 111.924 265.365 112.317V107.947C265.365 107.82 265.403 107.719 265.479 107.643C265.567 107.554 265.675 107.51 265.802 107.51H266.714C266.84 107.51 266.942 107.554 267.018 107.643C267.106 107.719 267.151 107.82 267.151 107.947V120.563C267.151 120.69 267.106 120.797 267.018 120.886C266.942 120.962 266.84 121 266.714 121H265.859C265.719 121 265.612 120.962 265.536 120.886C265.46 120.797 265.422 120.69 265.422 120.563V119.765C265.105 120.17 264.693 120.512 264.187 120.791C263.68 121.057 263.047 121.19 262.287 121.19ZM262.686 119.651C263.319 119.651 263.826 119.505 264.206 119.214C264.586 118.923 264.871 118.555 265.061 118.112C265.251 117.656 265.352 117.194 265.365 116.725C265.377 116.522 265.384 116.282 265.384 116.003C265.384 115.712 265.377 115.465 265.365 115.262C265.352 114.819 265.244 114.382 265.042 113.951C264.852 113.52 264.56 113.166 264.168 112.887C263.788 112.608 263.294 112.469 262.686 112.469C262.04 112.469 261.527 112.615 261.147 112.906C260.767 113.185 260.494 113.558 260.33 114.027C260.165 114.483 260.07 114.977 260.045 115.509C260.032 115.876 260.032 116.244 260.045 116.611C260.07 117.143 260.165 117.643 260.33 118.112C260.494 118.568 260.767 118.942 261.147 119.233C261.527 119.512 262.04 119.651 262.686 119.651ZM275.014 113.666C274.887 113.666 274.786 113.628 274.71 113.552C274.634 113.476 274.596 113.375 274.596 113.248V112.602C274.596 112.475 274.634 112.374 274.71 112.298C274.786 112.222 274.887 112.184 275.014 112.184H282.253C282.379 112.184 282.481 112.222 282.557 112.298C282.645 112.374 282.69 112.475 282.69 112.602V113.248C282.69 113.375 282.645 113.476 282.557 113.552C282.481 113.628 282.379 113.666 282.253 113.666H275.014ZM275.014 118.416C274.887 118.416 274.786 118.378 274.71 118.302C274.634 118.226 274.596 118.125 274.596 117.998V117.352C274.596 117.225 274.634 117.124 274.71 117.048C274.786 116.972 274.887 116.934 275.014 116.934H282.253C282.379 116.934 282.481 116.972 282.557 117.048C282.645 117.124 282.69 117.225 282.69 117.352V117.998C282.69 118.125 282.645 118.226 282.557 118.302C282.481 118.378 282.379 118.416 282.253 118.416H275.014ZM293.034 111.177C292.945 111.177 292.869 111.145 292.806 111.082C292.755 111.019 292.73 110.943 292.73 110.854C292.73 110.753 292.749 110.651 292.787 110.55L293.794 107.947C293.857 107.82 293.92 107.719 293.984 107.643C294.06 107.554 294.18 107.51 294.345 107.51H294.972C295.073 107.51 295.149 107.548 295.2 107.624C295.263 107.7 295.282 107.801 295.257 107.928L294.839 110.626C294.826 110.778 294.775 110.911 294.687 111.025C294.598 111.126 294.465 111.177 294.288 111.177H293.034ZM289.994 111.177C289.905 111.177 289.829 111.145 289.766 111.082C289.715 111.019 289.69 110.943 289.69 110.854C289.69 110.753 289.709 110.651 289.747 110.55L290.754 107.947C290.817 107.82 290.887 107.719 290.963 107.643C291.039 107.554 291.153 107.51 291.305 107.51H291.932C292.033 107.51 292.109 107.548 292.16 107.624C292.223 107.7 292.242 107.801 292.217 107.928L291.799 110.626C291.786 110.778 291.735 110.911 291.647 111.025C291.558 111.126 291.431 111.177 291.267 111.177H289.994ZM347.176 111.177C347.088 111.177 347.012 111.145 346.948 111.082C346.898 111.019 346.872 110.943 346.872 110.854C346.872 110.753 346.891 110.651 346.929 110.55L347.936 107.947C348 107.82 348.063 107.719 348.126 107.643C348.202 107.554 348.323 107.51 348.487 107.51H349.114C349.216 107.51 349.292 107.548 349.342 107.624C349.406 107.7 349.425 107.801 349.399 107.928L348.981 110.626C348.969 110.778 348.918 110.911 348.829 111.025C348.741 111.126 348.608 111.177 348.43 111.177H347.176ZM344.136 111.177C344.048 111.177 343.972 111.145 343.908 111.082C343.858 111.019 343.832 110.943 343.832 110.854C343.832 110.753 343.851 110.651 343.889 110.55L344.896 107.947C344.96 107.82 345.029 107.719 345.105 107.643C345.181 107.554 345.295 107.51 345.447 107.51H346.074C346.176 107.51 346.252 107.548 346.302 107.624C346.366 107.7 346.385 107.801 346.359 107.928L345.941 110.626C345.929 110.778 345.878 110.911 345.789 111.025C345.701 111.126 345.574 111.177 345.409 111.177H344.136ZM356.86 121C356.733 121 356.625 120.962 356.537 120.886C356.461 120.797 356.423 120.69 356.423 120.563V111.557C356.423 111.43 356.461 111.329 356.537 111.253C356.625 111.164 356.733 111.12 356.86 111.12H357.753C357.879 111.12 357.981 111.164 358.057 111.253C358.145 111.329 358.19 111.43 358.19 111.557V112.393C358.519 111.962 358.931 111.614 359.425 111.348C359.931 111.069 360.577 110.93 361.363 110.93C362.186 110.93 362.883 111.114 363.453 111.481C364.035 111.836 364.472 112.336 364.764 112.982C365.055 113.615 365.201 114.356 365.201 115.205V120.563C365.201 120.69 365.163 120.797 365.087 120.886C365.011 120.962 364.909 121 364.783 121H363.833C363.706 121 363.598 120.962 363.51 120.886C363.434 120.797 363.396 120.69 363.396 120.563V115.3C363.396 114.413 363.18 113.723 362.75 113.229C362.319 112.722 361.686 112.469 360.85 112.469C360.064 112.469 359.431 112.722 358.95 113.229C358.481 113.723 358.247 114.413 358.247 115.3V120.563C358.247 120.69 358.202 120.797 358.114 120.886C358.038 120.962 357.936 121 357.81 121H356.86ZM370.7 121.19C370.067 121.19 369.49 121.063 368.971 120.81C368.452 120.557 368.034 120.215 367.717 119.784C367.4 119.353 367.242 118.866 367.242 118.321C367.242 117.447 367.597 116.75 368.306 116.231C369.015 115.712 369.94 115.37 371.08 115.205L373.911 114.806V114.255C373.911 113.647 373.734 113.172 373.379 112.83C373.037 112.488 372.473 112.317 371.688 112.317C371.118 112.317 370.656 112.431 370.301 112.659C369.959 112.887 369.718 113.178 369.579 113.533C369.503 113.723 369.37 113.818 369.18 113.818H368.325C368.186 113.818 368.078 113.78 368.002 113.704C367.939 113.615 367.907 113.514 367.907 113.4C367.907 113.21 367.977 112.976 368.116 112.697C368.268 112.418 368.496 112.146 368.8 111.88C369.104 111.614 369.49 111.392 369.959 111.215C370.44 111.025 371.023 110.93 371.707 110.93C372.467 110.93 373.107 111.031 373.626 111.234C374.145 111.424 374.551 111.684 374.842 112.013C375.146 112.342 375.361 112.716 375.488 113.134C375.627 113.552 375.697 113.976 375.697 114.407V120.563C375.697 120.69 375.653 120.797 375.564 120.886C375.488 120.962 375.387 121 375.26 121H374.386C374.247 121 374.139 120.962 374.063 120.886C373.987 120.797 373.949 120.69 373.949 120.563V119.746C373.784 119.974 373.563 120.202 373.284 120.43C373.005 120.645 372.657 120.829 372.239 120.981C371.821 121.12 371.308 121.19 370.7 121.19ZM371.099 119.765C371.618 119.765 372.093 119.657 372.524 119.442C372.955 119.214 373.29 118.866 373.531 118.397C373.784 117.928 373.911 117.339 373.911 116.63V116.098L371.707 116.421C370.808 116.548 370.13 116.763 369.674 117.067C369.218 117.358 368.99 117.732 368.99 118.188C368.99 118.543 369.091 118.84 369.294 119.081C369.509 119.309 369.775 119.48 370.092 119.594C370.421 119.708 370.757 119.765 371.099 119.765ZM378.865 121C378.739 121 378.631 120.962 378.542 120.886C378.466 120.797 378.428 120.69 378.428 120.563V111.557C378.428 111.43 378.466 111.329 378.542 111.253C378.631 111.164 378.739 111.12 378.865 111.12H379.72C379.847 111.12 379.948 111.164 380.024 111.253C380.113 111.329 380.157 111.43 380.157 111.557V112.222C380.449 111.829 380.816 111.519 381.259 111.291C381.703 111.05 382.235 110.93 382.855 110.93C384.287 110.917 385.3 111.5 385.895 112.678C386.187 112.146 386.611 111.722 387.168 111.405C387.726 111.088 388.359 110.93 389.068 110.93C389.727 110.93 390.322 111.082 390.854 111.386C391.399 111.69 391.823 112.152 392.127 112.773C392.444 113.381 392.602 114.147 392.602 115.072V120.563C392.602 120.69 392.558 120.797 392.469 120.886C392.393 120.962 392.292 121 392.165 121H391.272C391.146 121 391.038 120.962 390.949 120.886C390.873 120.797 390.835 120.69 390.835 120.563V115.243C390.835 114.534 390.734 113.976 390.531 113.571C390.329 113.166 390.056 112.881 389.714 112.716C389.372 112.551 388.999 112.469 388.593 112.469C388.264 112.469 387.928 112.551 387.586 112.716C387.244 112.881 386.959 113.166 386.731 113.571C386.516 113.976 386.408 114.534 386.408 115.243V120.563C386.408 120.69 386.364 120.797 386.275 120.886C386.199 120.962 386.098 121 385.971 121H385.078C384.952 121 384.844 120.962 384.755 120.886C384.679 120.797 384.641 120.69 384.641 120.563V115.243C384.641 114.534 384.534 113.976 384.318 113.571C384.103 113.166 383.824 112.881 383.482 112.716C383.14 112.551 382.779 112.469 382.399 112.469C382.07 112.469 381.734 112.551 381.392 112.716C381.05 112.881 380.765 113.166 380.537 113.571C380.322 113.976 380.214 114.527 380.214 115.224V120.563C380.214 120.69 380.17 120.797 380.081 120.886C380.005 120.962 379.904 121 379.777 121H378.865ZM399.246 121.19C397.942 121.19 396.903 120.791 396.13 119.993C395.358 119.182 394.933 118.08 394.857 116.687C394.845 116.522 394.838 116.313 394.838 116.06C394.838 115.794 394.845 115.579 394.857 115.414C394.908 114.515 395.117 113.729 395.484 113.058C395.852 112.374 396.352 111.848 396.985 111.481C397.631 111.114 398.385 110.93 399.246 110.93C400.209 110.93 401.013 111.133 401.659 111.538C402.318 111.943 402.818 112.52 403.16 113.267C403.502 114.014 403.673 114.888 403.673 115.889V116.212C403.673 116.351 403.629 116.459 403.54 116.535C403.464 116.611 403.363 116.649 403.236 116.649H396.662C396.662 116.662 396.662 116.687 396.662 116.725C396.662 116.763 396.662 116.795 396.662 116.82C396.688 117.339 396.802 117.827 397.004 118.283C397.207 118.726 397.498 119.087 397.878 119.366C398.258 119.645 398.714 119.784 399.246 119.784C399.702 119.784 400.082 119.714 400.386 119.575C400.69 119.436 400.937 119.284 401.127 119.119C401.317 118.942 401.444 118.809 401.507 118.72C401.621 118.555 401.71 118.46 401.773 118.435C401.837 118.397 401.938 118.378 402.077 118.378H402.989C403.116 118.378 403.217 118.416 403.293 118.492C403.382 118.555 403.42 118.65 403.407 118.777C403.395 118.967 403.293 119.201 403.103 119.48C402.913 119.746 402.641 120.012 402.286 120.278C401.932 120.544 401.501 120.766 400.994 120.943C400.488 121.108 399.905 121.19 399.246 121.19ZM396.662 115.338H401.868V115.281C401.868 114.711 401.761 114.204 401.545 113.761C401.343 113.318 401.045 112.969 400.652 112.716C400.26 112.45 399.791 112.317 399.246 112.317C398.702 112.317 398.233 112.45 397.84 112.716C397.46 112.969 397.169 113.318 396.966 113.761C396.764 114.204 396.662 114.711 396.662 115.281V115.338ZM410.982 113.666C410.856 113.666 410.754 113.628 410.678 113.552C410.602 113.476 410.564 113.375 410.564 113.248V112.602C410.564 112.475 410.602 112.374 410.678 112.298C410.754 112.222 410.856 112.184 410.982 112.184H418.221C418.348 112.184 418.449 112.222 418.525 112.298C418.614 112.374 418.658 112.475 418.658 112.602V113.248C418.658 113.375 418.614 113.476 418.525 113.552C418.449 113.628 418.348 113.666 418.221 113.666H410.982ZM410.982 118.416C410.856 118.416 410.754 118.378 410.678 118.302C410.602 118.226 410.564 118.125 410.564 117.998V117.352C410.564 117.225 410.602 117.124 410.678 117.048C410.754 116.972 410.856 116.934 410.982 116.934H418.221C418.348 116.934 418.449 116.972 418.525 117.048C418.614 117.124 418.658 117.225 418.658 117.352V117.998C418.658 118.125 418.614 118.226 418.525 118.302C418.449 118.378 418.348 118.416 418.221 118.416H410.982ZM429.002 111.177C428.914 111.177 428.838 111.145 428.774 111.082C428.724 111.019 428.698 110.943 428.698 110.854C428.698 110.753 428.717 110.651 428.755 110.55L429.762 107.947C429.826 107.82 429.889 107.719 429.952 107.643C430.028 107.554 430.149 107.51 430.313 107.51H430.94C431.042 107.51 431.118 107.548 431.168 107.624C431.232 107.7 431.251 107.801 431.225 107.928L430.807 110.626C430.795 110.778 430.744 110.911 430.655 111.025C430.567 111.126 430.434 111.177 430.256 111.177H429.002ZM425.962 111.177C425.874 111.177 425.798 111.145 425.734 111.082C425.684 111.019 425.658 110.943 425.658 110.854C425.658 110.753 425.677 110.651 425.715 110.55L426.722 107.947C426.786 107.82 426.855 107.719 426.931 107.643C427.007 107.554 427.121 107.51 427.273 107.51H427.9C428.002 107.51 428.078 107.548 428.128 107.624C428.192 107.7 428.211 107.801 428.185 107.928L427.767 110.626C427.755 110.778 427.704 110.911 427.615 111.025C427.527 111.126 427.4 111.177 427.235 111.177H425.962ZM483.145 111.177C483.056 111.177 482.98 111.145 482.917 111.082C482.866 111.019 482.841 110.943 482.841 110.854C482.841 110.753 482.86 110.651 482.898 110.55L483.905 107.947C483.968 107.82 484.032 107.719 484.095 107.643C484.171 107.554 484.291 107.51 484.456 107.51H485.083C485.184 107.51 485.26 107.548 485.311 107.624C485.374 107.7 485.393 107.801 485.368 107.928L484.95 110.626C484.937 110.778 484.887 110.911 484.798 111.025C484.709 111.126 484.576 111.177 484.399 111.177H483.145ZM480.105 111.177C480.016 111.177 479.94 111.145 479.877 111.082C479.826 111.019 479.801 110.943 479.801 110.854C479.801 110.753 479.82 110.651 479.858 110.55L480.865 107.947C480.928 107.82 480.998 107.719 481.074 107.643C481.15 107.554 481.264 107.51 481.416 107.51H482.043C482.144 107.51 482.22 107.548 482.271 107.624C482.334 107.7 482.353 107.801 482.328 107.928L481.91 110.626C481.897 110.778 481.847 110.911 481.758 111.025C481.669 111.126 481.543 111.177 481.378 111.177H480.105Z" fill="white" fill-opacity="0.75"/>
<path d="M132.942 93.61C132.815 93.61 132.708 93.5657 132.619 93.477C132.543 93.401 132.505 93.2997 132.505 93.173V80.557C132.505 80.4303 132.543 80.329 132.619 80.253C132.708 80.1643 132.815 80.12 132.942 80.12H133.816C133.943 80.12 134.044 80.1643 134.12 80.253C134.209 80.329 134.253 80.4303 134.253 80.557V81.393C134.557 80.975 134.962 80.6267 135.469 80.348C135.976 80.0693 136.609 79.93 137.369 79.93C138.078 79.93 138.68 80.0503 139.174 80.291C139.681 80.5317 140.092 80.861 140.409 81.279C140.738 81.697 140.985 82.172 141.15 82.704C141.315 83.236 141.403 83.806 141.416 84.414C141.429 84.6167 141.435 84.832 141.435 85.06C141.435 85.288 141.429 85.5033 141.416 85.706C141.403 86.3013 141.315 86.8713 141.15 87.416C140.985 87.948 140.738 88.423 140.409 88.841C140.092 89.2463 139.681 89.5757 139.174 89.829C138.68 90.0697 138.078 90.19 137.369 90.19C136.634 90.19 136.014 90.057 135.507 89.791C135.013 89.5123 134.608 89.1703 134.291 88.765V93.173C134.291 93.2997 134.253 93.401 134.177 93.477C134.101 93.5657 133.993 93.61 133.854 93.61H132.942ZM136.97 88.651C137.629 88.651 138.142 88.5117 138.509 88.233C138.889 87.9417 139.161 87.568 139.326 87.112C139.491 86.6433 139.586 86.143 139.611 85.611C139.624 85.2437 139.624 84.8763 139.611 84.509C139.586 83.977 139.491 83.483 139.326 83.027C139.161 82.5583 138.889 82.1847 138.509 81.906C138.142 81.6147 137.629 81.469 136.97 81.469C136.349 81.469 135.843 81.6147 135.45 81.906C135.07 82.1973 134.785 82.571 134.595 83.027C134.418 83.4703 134.316 83.9263 134.291 84.395C134.278 84.5977 134.272 84.8383 134.272 85.117C134.272 85.3957 134.278 85.6427 134.291 85.858C134.304 86.3013 134.405 86.7383 134.595 87.169C134.798 87.5997 135.095 87.9543 135.488 88.233C135.881 88.5117 136.375 88.651 136.97 88.651ZM146.167 90C146.002 90 145.875 89.962 145.787 89.886C145.698 89.7973 145.622 89.677 145.559 89.525L142.861 80.709C142.835 80.6457 142.823 80.5823 142.823 80.519C142.823 80.405 142.861 80.31 142.937 80.234C143.025 80.158 143.12 80.12 143.222 80.12H144.058C144.197 80.12 144.305 80.158 144.381 80.234C144.457 80.31 144.507 80.3797 144.533 80.443L146.642 87.606L148.903 80.519C148.928 80.4303 148.979 80.3417 149.055 80.253C149.143 80.1643 149.27 80.12 149.435 80.12H150.081C150.245 80.12 150.372 80.1643 150.461 80.253C150.549 80.3417 150.6 80.4303 150.613 80.519L152.874 87.606L154.983 80.443C154.995 80.3797 155.04 80.31 155.116 80.234C155.192 80.158 155.299 80.12 155.439 80.12H156.275C156.389 80.12 156.484 80.158 156.56 80.234C156.636 80.31 156.674 80.405 156.674 80.519C156.674 80.5823 156.661 80.6457 156.636 80.709L153.938 89.525C153.9 89.677 153.83 89.7973 153.729 89.886C153.64 89.962 153.507 90 153.33 90H152.589C152.424 90 152.285 89.962 152.171 89.886C152.069 89.7973 152 89.677 151.962 89.525L149.758 82.723L147.554 89.525C147.503 89.677 147.427 89.7973 147.326 89.886C147.224 89.962 147.085 90 146.908 90H146.167ZM162.128 90.19C161.432 90.19 160.83 90.0697 160.323 89.829C159.817 89.5757 159.399 89.24 159.069 88.822C158.753 88.3913 158.512 87.9037 158.347 87.359C158.195 86.8143 158.107 86.238 158.081 85.63C158.069 85.4273 158.062 85.2373 158.062 85.06C158.062 84.8827 158.069 84.6927 158.081 84.49C158.107 83.8947 158.195 83.3247 158.347 82.78C158.512 82.2353 158.753 81.7477 159.069 81.317C159.399 80.8863 159.817 80.5507 160.323 80.31C160.83 80.0567 161.432 79.93 162.128 79.93C162.876 79.93 163.496 80.063 163.99 80.329C164.484 80.595 164.89 80.9243 165.206 81.317V76.947C165.206 76.8203 165.244 76.719 165.32 76.643C165.409 76.5543 165.517 76.51 165.643 76.51H166.555C166.682 76.51 166.783 76.5543 166.859 76.643C166.948 76.719 166.992 76.8203 166.992 76.947V89.563C166.992 89.6897 166.948 89.7973 166.859 89.886C166.783 89.962 166.682 90 166.555 90H165.7C165.561 90 165.453 89.962 165.377 89.886C165.301 89.7973 165.263 89.6897 165.263 89.563V88.765C164.947 89.1703 164.535 89.5123 164.028 89.791C163.522 90.057 162.888 90.19 162.128 90.19ZM162.527 88.651C163.161 88.651 163.667 88.5053 164.047 88.214C164.427 87.9227 164.712 87.5553 164.902 87.112C165.092 86.656 165.194 86.1937 165.206 85.725C165.219 85.5223 165.225 85.2817 165.225 85.003C165.225 84.7117 165.219 84.4647 165.206 84.262C165.194 83.8187 165.086 83.3817 164.883 82.951C164.693 82.5203 164.402 82.1657 164.009 81.887C163.629 81.6083 163.135 81.469 162.527 81.469C161.881 81.469 161.368 81.6147 160.988 81.906C160.608 82.1847 160.336 82.5583 160.171 83.027C160.007 83.483 159.912 83.977 159.886 84.509C159.874 84.8763 159.874 85.2437 159.886 85.611C159.912 86.143 160.007 86.6433 160.171 87.112C160.336 87.568 160.608 87.9417 160.988 88.233C161.368 88.5117 161.881 88.651 162.527 88.651ZM196.516 90C196.376 90 196.269 89.962 196.193 89.886C196.117 89.7973 196.079 89.6897 196.079 89.563V77.156C196.079 77.0167 196.117 76.909 196.193 76.833C196.269 76.7443 196.376 76.7 196.516 76.7H201.342C202.279 76.7 203.09 76.852 203.774 77.156C204.47 77.46 205.009 77.916 205.389 78.524C205.769 79.1193 205.959 79.8667 205.959 80.766C205.959 81.6653 205.769 82.4127 205.389 83.008C205.009 83.6033 204.47 84.053 203.774 84.357C203.09 84.661 202.279 84.813 201.342 84.813H197.979V89.563C197.979 89.6897 197.934 89.7973 197.846 89.886C197.77 89.962 197.662 90 197.523 90H196.516ZM197.96 83.217H201.247C202.184 83.217 202.887 83.008 203.356 82.59C203.824 82.172 204.059 81.564 204.059 80.766C204.059 79.9807 203.831 79.3727 203.375 78.942C202.919 78.5113 202.209 78.296 201.247 78.296H197.96V83.217ZM210.592 90.19C209.958 90.19 209.382 90.0633 208.863 89.81C208.343 89.5567 207.925 89.2147 207.609 88.784C207.292 88.3533 207.134 87.8657 207.134 87.321C207.134 86.447 207.488 85.7503 208.198 85.231C208.907 84.7117 209.832 84.3697 210.972 84.205L213.803 83.806V83.255C213.803 82.647 213.625 82.172 213.271 81.83C212.929 81.488 212.365 81.317 211.58 81.317C211.01 81.317 210.547 81.431 210.193 81.659C209.851 81.887 209.61 82.1783 209.471 82.533C209.395 82.723 209.262 82.818 209.072 82.818H208.217C208.077 82.818 207.97 82.78 207.894 82.704C207.83 82.6153 207.799 82.514 207.799 82.4C207.799 82.21 207.868 81.9757 208.008 81.697C208.16 81.4183 208.388 81.146 208.692 80.88C208.996 80.614 209.382 80.3923 209.851 80.215C210.332 80.025 210.915 79.93 211.599 79.93C212.359 79.93 212.998 80.0313 213.518 80.234C214.037 80.424 214.442 80.6837 214.734 81.013C215.038 81.3423 215.253 81.716 215.38 82.134C215.519 82.552 215.589 82.9763 215.589 83.407V89.563C215.589 89.6897 215.544 89.7973 215.456 89.886C215.38 89.962 215.278 90 215.152 90H214.278C214.138 90 214.031 89.962 213.955 89.886C213.879 89.7973 213.841 89.6897 213.841 89.563V88.746C213.676 88.974 213.454 89.202 213.176 89.43C212.897 89.6453 212.549 89.829 212.131 89.981C211.713 90.1203 211.2 90.19 210.592 90.19ZM210.991 88.765C211.51 88.765 211.985 88.6573 212.416 88.442C212.846 88.214 213.182 87.8657 213.423 87.397C213.676 86.9283 213.803 86.3393 213.803 85.63V85.098L211.599 85.421C210.699 85.5477 210.022 85.763 209.566 86.067C209.11 86.3583 208.882 86.732 208.882 87.188C208.882 87.5427 208.983 87.8403 209.186 88.081C209.401 88.309 209.667 88.48 209.984 88.594C210.313 88.708 210.649 88.765 210.991 88.765ZM221.74 90.19C221.031 90.19 220.423 90.1013 219.916 89.924C219.409 89.7467 218.998 89.5313 218.681 89.278C218.364 89.0247 218.124 88.7713 217.959 88.518C217.807 88.2647 217.725 88.062 217.712 87.91C217.699 87.7707 217.744 87.663 217.845 87.587C217.946 87.511 218.048 87.473 218.149 87.473H218.985C219.061 87.473 219.118 87.4857 219.156 87.511C219.207 87.5237 219.27 87.5743 219.346 87.663C219.511 87.8403 219.694 88.0177 219.897 88.195C220.1 88.3723 220.347 88.518 220.638 88.632C220.942 88.746 221.316 88.803 221.759 88.803C222.405 88.803 222.937 88.6827 223.355 88.442C223.773 88.1887 223.982 87.8213 223.982 87.34C223.982 87.0233 223.893 86.77 223.716 86.58C223.551 86.39 223.247 86.219 222.804 86.067C222.373 85.915 221.778 85.7567 221.018 85.592C220.258 85.4147 219.656 85.1993 219.213 84.946C218.77 84.68 218.453 84.3697 218.263 84.015C218.073 83.6477 217.978 83.236 217.978 82.78C217.978 82.3113 218.117 81.8617 218.396 81.431C218.675 80.9877 219.08 80.6267 219.612 80.348C220.157 80.0693 220.834 79.93 221.645 79.93C222.304 79.93 222.867 80.0123 223.336 80.177C223.805 80.3417 224.191 80.5507 224.495 80.804C224.799 81.0447 225.027 81.2853 225.179 81.526C225.331 81.7667 225.413 81.9693 225.426 82.134C225.439 82.2607 225.401 82.3683 225.312 82.457C225.223 82.533 225.122 82.571 225.008 82.571H224.21C224.121 82.571 224.045 82.552 223.982 82.514C223.931 82.476 223.881 82.4317 223.83 82.381C223.703 82.2163 223.551 82.0517 223.374 81.887C223.209 81.7223 222.988 81.5893 222.709 81.488C222.443 81.374 222.088 81.317 221.645 81.317C221.012 81.317 220.537 81.45 220.22 81.716C219.903 81.982 219.745 82.3177 219.745 82.723C219.745 82.9637 219.815 83.179 219.954 83.369C220.093 83.559 220.359 83.73 220.752 83.882C221.145 84.034 221.727 84.1987 222.5 84.376C223.336 84.5407 223.995 84.7623 224.476 85.041C224.957 85.3197 225.299 85.6427 225.502 86.01C225.705 86.3773 225.806 86.8017 225.806 87.283C225.806 87.815 225.648 88.3027 225.331 88.746C225.027 89.1893 224.571 89.544 223.963 89.81C223.368 90.0633 222.627 90.19 221.74 90.19ZM231.426 90.19C230.716 90.19 230.108 90.1013 229.602 89.924C229.095 89.7467 228.683 89.5313 228.367 89.278C228.05 89.0247 227.809 88.7713 227.645 88.518C227.493 88.2647 227.41 88.062 227.398 87.91C227.385 87.7707 227.429 87.663 227.531 87.587C227.632 87.511 227.733 87.473 227.835 87.473H228.671C228.747 87.473 228.804 87.4857 228.842 87.511C228.892 87.5237 228.956 87.5743 229.032 87.663C229.196 87.8403 229.38 88.0177 229.583 88.195C229.785 88.3723 230.032 88.518 230.324 88.632C230.628 88.746 231.001 88.803 231.445 88.803C232.091 88.803 232.623 88.6827 233.041 88.442C233.459 88.1887 233.668 87.8213 233.668 87.34C233.668 87.0233 233.579 86.77 233.402 86.58C233.237 86.39 232.933 86.219 232.49 86.067C232.059 85.915 231.464 85.7567 230.704 85.592C229.944 85.4147 229.342 85.1993 228.899 84.946C228.455 84.68 228.139 84.3697 227.949 84.015C227.759 83.6477 227.664 83.236 227.664 82.78C227.664 82.3113 227.803 81.8617 228.082 81.431C228.36 80.9877 228.766 80.6267 229.298 80.348C229.842 80.0693 230.52 79.93 231.331 79.93C231.989 79.93 232.553 80.0123 233.022 80.177C233.49 80.3417 233.877 80.5507 234.181 80.804C234.485 81.0447 234.713 81.2853 234.865 81.526C235.017 81.7667 235.099 81.9693 235.112 82.134C235.124 82.2607 235.086 82.3683 234.998 82.457C234.909 82.533 234.808 82.571 234.694 82.571H233.896C233.807 82.571 233.731 82.552 233.668 82.514C233.617 82.476 233.566 82.4317 233.516 82.381C233.389 82.2163 233.237 82.0517 233.06 81.887C232.895 81.7223 232.673 81.5893 232.395 81.488C232.129 81.374 231.774 81.317 231.331 81.317C230.697 81.317 230.222 81.45 229.906 81.716C229.589 81.982 229.431 82.3177 229.431 82.723C229.431 82.9637 229.5 83.179 229.64 83.369C229.779 83.559 230.045 83.73 230.438 83.882C230.83 84.034 231.413 84.1987 232.186 84.376C233.022 84.5407 233.68 84.7623 234.162 85.041C234.643 85.3197 234.985 85.6427 235.188 86.01C235.39 86.3773 235.492 86.8017 235.492 87.283C235.492 87.815 235.333 88.3027 235.017 88.746C234.713 89.1893 234.257 89.544 233.649 89.81C233.053 90.0633 232.312 90.19 231.426 90.19ZM240.053 90C239.889 90 239.762 89.962 239.673 89.886C239.585 89.7973 239.509 89.677 239.445 89.525L236.747 80.709C236.722 80.6457 236.709 80.5823 236.709 80.519C236.709 80.405 236.747 80.31 236.823 80.234C236.912 80.158 237.007 80.12 237.108 80.12H237.944C238.084 80.12 238.191 80.158 238.267 80.234C238.343 80.31 238.394 80.3797 238.419 80.443L240.528 87.606L242.789 80.519C242.815 80.4303 242.865 80.3417 242.941 80.253C243.03 80.1643 243.157 80.12 243.321 80.12H243.967C244.132 80.12 244.259 80.1643 244.347 80.253C244.436 80.3417 244.487 80.4303 244.499 80.519L246.76 87.606L248.869 80.443C248.882 80.3797 248.926 80.31 249.002 80.234C249.078 80.158 249.186 80.12 249.325 80.12H250.161C250.275 80.12 250.37 80.158 250.446 80.234C250.522 80.31 250.56 80.405 250.56 80.519C250.56 80.5823 250.548 80.6457 250.522 80.709L247.824 89.525C247.786 89.677 247.717 89.7973 247.615 89.886C247.527 89.962 247.394 90 247.216 90H246.475C246.311 90 246.171 89.962 246.057 89.886C245.956 89.7973 245.886 89.677 245.848 89.525L243.644 82.723L241.44 89.525C241.39 89.677 241.314 89.7973 241.212 89.886C241.111 89.962 240.972 90 240.794 90H240.053ZM256.452 90.19C255.489 90.19 254.685 90.0063 254.039 89.639C253.393 89.2717 252.899 88.765 252.557 88.119C252.215 87.4603 252.025 86.713 251.987 85.877C251.974 85.6617 251.968 85.3893 251.968 85.06C251.968 84.718 251.974 84.4457 251.987 84.243C252.025 83.3943 252.215 82.647 252.557 82.001C252.912 81.355 253.412 80.8483 254.058 80.481C254.704 80.1137 255.502 79.93 256.452 79.93C257.402 79.93 258.2 80.1137 258.846 80.481C259.492 80.8483 259.986 81.355 260.328 82.001C260.683 82.647 260.879 83.3943 260.917 84.243C260.93 84.4457 260.936 84.718 260.936 85.06C260.936 85.3893 260.93 85.6617 260.917 85.877C260.879 86.713 260.689 87.4603 260.347 88.119C260.005 88.765 259.511 89.2717 258.865 89.639C258.219 90.0063 257.415 90.19 256.452 90.19ZM256.452 88.727C257.237 88.727 257.864 88.48 258.333 87.986C258.802 87.4793 259.055 86.7447 259.093 85.782C259.106 85.592 259.112 85.3513 259.112 85.06C259.112 84.7687 259.106 84.528 259.093 84.338C259.055 83.3753 258.802 82.647 258.333 82.153C257.864 81.6463 257.237 81.393 256.452 81.393C255.667 81.393 255.033 81.6463 254.552 82.153C254.083 82.647 253.836 83.3753 253.811 84.338C253.798 84.528 253.792 84.7687 253.792 85.06C253.792 85.3513 253.798 85.592 253.811 85.782C253.836 86.7447 254.083 87.4793 254.552 87.986C255.033 88.48 255.667 88.727 256.452 88.727ZM263.752 90C263.626 90 263.518 89.962 263.429 89.886C263.353 89.7973 263.315 89.6897 263.315 89.563V80.576C263.315 80.4493 263.353 80.3417 263.429 80.253C263.518 80.1643 263.626 80.12 263.752 80.12H264.626C264.753 80.12 264.861 80.1643 264.949 80.253C265.038 80.3417 265.082 80.4493 265.082 80.576V81.412C265.336 80.9813 265.684 80.6583 266.127 80.443C266.571 80.2277 267.103 80.12 267.723 80.12H268.483C268.61 80.12 268.711 80.1643 268.787 80.253C268.863 80.329 268.901 80.4303 268.901 80.557V81.336C268.901 81.4627 268.863 81.564 268.787 81.64C268.711 81.716 268.61 81.754 268.483 81.754H267.343C266.659 81.754 266.121 81.9567 265.728 82.362C265.336 82.7547 265.139 83.293 265.139 83.977V89.563C265.139 89.6897 265.095 89.7973 265.006 89.886C264.918 89.962 264.81 90 264.683 90H263.752ZM273.939 90.19C273.242 90.19 272.641 90.0697 272.134 89.829C271.627 89.5757 271.209 89.24 270.88 88.822C270.563 88.3913 270.323 87.9037 270.158 87.359C270.006 86.8143 269.917 86.238 269.892 85.63C269.879 85.4273 269.873 85.2373 269.873 85.06C269.873 84.8827 269.879 84.6927 269.892 84.49C269.917 83.8947 270.006 83.3247 270.158 82.78C270.323 82.2353 270.563 81.7477 270.88 81.317C271.209 80.8863 271.627 80.5507 272.134 80.31C272.641 80.0567 273.242 79.93 273.939 79.93C274.686 79.93 275.307 80.063 275.801 80.329C276.295 80.595 276.7 80.9243 277.017 81.317V76.947C277.017 76.8203 277.055 76.719 277.131 76.643C277.22 76.5543 277.327 76.51 277.454 76.51H278.366C278.493 76.51 278.594 76.5543 278.67 76.643C278.759 76.719 278.803 76.8203 278.803 76.947V89.563C278.803 89.6897 278.759 89.7973 278.67 89.886C278.594 89.962 278.493 90 278.366 90H277.511C277.372 90 277.264 89.962 277.188 89.886C277.112 89.7973 277.074 89.6897 277.074 89.563V88.765C276.757 89.1703 276.346 89.5123 275.839 89.791C275.332 90.057 274.699 90.19 273.939 90.19ZM274.338 88.651C274.971 88.651 275.478 88.5053 275.858 88.214C276.238 87.9227 276.523 87.5553 276.713 87.112C276.903 86.656 277.004 86.1937 277.017 85.725C277.03 85.5223 277.036 85.2817 277.036 85.003C277.036 84.7117 277.03 84.4647 277.017 84.262C277.004 83.8187 276.897 83.3817 276.694 82.951C276.504 82.5203 276.213 82.1657 275.82 81.887C275.44 81.6083 274.946 81.469 274.338 81.469C273.692 81.469 273.179 81.6147 272.799 81.906C272.419 82.1847 272.147 82.5583 271.982 83.027C271.817 83.483 271.722 83.977 271.697 84.509C271.684 84.8763 271.684 85.2437 271.697 85.611C271.722 86.143 271.817 86.6433 271.982 87.112C272.147 87.568 272.419 87.9417 272.799 88.233C273.179 88.5117 273.692 88.651 274.338 88.651ZM286.628 83.35C286.501 83.35 286.394 83.312 286.305 83.236C286.229 83.1473 286.191 83.0397 286.191 82.913V81.583C286.191 81.4563 286.229 81.355 286.305 81.279C286.394 81.1903 286.501 81.146 286.628 81.146H287.977C288.116 81.146 288.224 81.1903 288.3 81.279C288.389 81.355 288.433 81.4563 288.433 81.583V82.913C288.433 83.0397 288.389 83.1473 288.3 83.236C288.224 83.312 288.116 83.35 287.977 83.35H286.628ZM286.628 90C286.501 90 286.394 89.962 286.305 89.886C286.229 89.7973 286.191 89.6897 286.191 89.563V88.233C286.191 88.1063 286.229 88.005 286.305 87.929C286.394 87.8403 286.501 87.796 286.628 87.796H287.977C288.116 87.796 288.224 87.8403 288.3 87.929C288.389 88.005 288.433 88.1063 288.433 88.233V89.563C288.433 89.6897 288.389 89.7973 288.3 89.886C288.224 89.962 288.116 90 287.977 90H286.628ZM152.74 124.61C152.613 124.61 152.506 124.566 152.417 124.477C152.341 124.401 152.303 124.3 152.303 124.173V111.557C152.303 111.43 152.341 111.329 152.417 111.253C152.506 111.164 152.613 111.12 152.74 111.12H153.614C153.741 111.12 153.842 111.164 153.918 111.253C154.007 111.329 154.051 111.43 154.051 111.557V112.393C154.355 111.975 154.76 111.627 155.267 111.348C155.774 111.069 156.407 110.93 157.167 110.93C157.876 110.93 158.478 111.05 158.972 111.291C159.479 111.532 159.89 111.861 160.207 112.279C160.536 112.697 160.783 113.172 160.948 113.704C161.113 114.236 161.201 114.806 161.214 115.414C161.227 115.617 161.233 115.832 161.233 116.06C161.233 116.288 161.227 116.503 161.214 116.706C161.201 117.301 161.113 117.871 160.948 118.416C160.783 118.948 160.536 119.423 160.207 119.841C159.89 120.246 159.479 120.576 158.972 120.829C158.478 121.07 157.876 121.19 157.167 121.19C156.432 121.19 155.812 121.057 155.305 120.791C154.811 120.512 154.406 120.17 154.089 119.765V124.173C154.089 124.3 154.051 124.401 153.975 124.477C153.899 124.566 153.791 124.61 153.652 124.61H152.74ZM156.768 119.651C157.427 119.651 157.94 119.512 158.307 119.233C158.687 118.942 158.959 118.568 159.124 118.112C159.289 117.643 159.384 117.143 159.409 116.611C159.422 116.244 159.422 115.876 159.409 115.509C159.384 114.977 159.289 114.483 159.124 114.027C158.959 113.558 158.687 113.185 158.307 112.906C157.94 112.615 157.427 112.469 156.768 112.469C156.147 112.469 155.641 112.615 155.248 112.906C154.868 113.197 154.583 113.571 154.393 114.027C154.216 114.47 154.114 114.926 154.089 115.395C154.076 115.598 154.07 115.838 154.07 116.117C154.07 116.396 154.076 116.643 154.089 116.858C154.102 117.301 154.203 117.738 154.393 118.169C154.596 118.6 154.893 118.954 155.286 119.233C155.679 119.512 156.173 119.651 156.768 119.651ZM166.357 121.19C165.724 121.19 165.148 121.063 164.628 120.81C164.109 120.557 163.691 120.215 163.374 119.784C163.058 119.353 162.899 118.866 162.899 118.321C162.899 117.447 163.254 116.75 163.963 116.231C164.673 115.712 165.597 115.37 166.737 115.205L169.568 114.806V114.255C169.568 113.647 169.391 113.172 169.036 112.83C168.694 112.488 168.131 112.317 167.345 112.317C166.775 112.317 166.313 112.431 165.958 112.659C165.616 112.887 165.376 113.178 165.236 113.533C165.16 113.723 165.027 113.818 164.837 113.818H163.982C163.843 113.818 163.735 113.78 163.659 113.704C163.596 113.615 163.564 113.514 163.564 113.4C163.564 113.21 163.634 112.976 163.773 112.697C163.925 112.418 164.153 112.146 164.457 111.88C164.761 111.614 165.148 111.392 165.616 111.215C166.098 111.025 166.68 110.93 167.364 110.93C168.124 110.93 168.764 111.031 169.283 111.234C169.803 111.424 170.208 111.684 170.499 112.013C170.803 112.342 171.019 112.716 171.145 113.134C171.285 113.552 171.354 113.976 171.354 114.407V120.563C171.354 120.69 171.31 120.797 171.221 120.886C171.145 120.962 171.044 121 170.917 121H170.043C169.904 121 169.796 120.962 169.72 120.886C169.644 120.797 169.606 120.69 169.606 120.563V119.746C169.442 119.974 169.22 120.202 168.941 120.43C168.663 120.645 168.314 120.829 167.896 120.981C167.478 121.12 166.965 121.19 166.357 121.19ZM166.756 119.765C167.276 119.765 167.751 119.657 168.181 119.442C168.612 119.214 168.948 118.866 169.188 118.397C169.442 117.928 169.568 117.339 169.568 116.63V116.098L167.364 116.421C166.465 116.548 165.787 116.763 165.331 117.067C164.875 117.358 164.647 117.732 164.647 118.188C164.647 118.543 164.749 118.84 164.951 119.081C165.167 119.309 165.433 119.48 165.749 119.594C166.079 119.708 166.414 119.765 166.756 119.765ZM177.506 121.19C176.796 121.19 176.188 121.101 175.682 120.924C175.175 120.747 174.763 120.531 174.447 120.278C174.13 120.025 173.889 119.771 173.725 119.518C173.573 119.265 173.49 119.062 173.478 118.91C173.465 118.771 173.509 118.663 173.611 118.587C173.712 118.511 173.813 118.473 173.915 118.473H174.751C174.827 118.473 174.884 118.486 174.922 118.511C174.972 118.524 175.036 118.574 175.112 118.663C175.276 118.84 175.46 119.018 175.663 119.195C175.865 119.372 176.112 119.518 176.404 119.632C176.708 119.746 177.081 119.803 177.525 119.803C178.171 119.803 178.703 119.683 179.121 119.442C179.539 119.189 179.748 118.821 179.748 118.34C179.748 118.023 179.659 117.77 179.482 117.58C179.317 117.39 179.013 117.219 178.57 117.067C178.139 116.915 177.544 116.757 176.784 116.592C176.024 116.415 175.422 116.199 174.979 115.946C174.535 115.68 174.219 115.37 174.029 115.015C173.839 114.648 173.744 114.236 173.744 113.78C173.744 113.311 173.883 112.862 174.162 112.431C174.44 111.988 174.846 111.627 175.378 111.348C175.922 111.069 176.6 110.93 177.411 110.93C178.069 110.93 178.633 111.012 179.102 111.177C179.57 111.342 179.957 111.551 180.261 111.804C180.565 112.045 180.793 112.285 180.945 112.526C181.097 112.767 181.179 112.969 181.192 113.134C181.204 113.261 181.166 113.368 181.078 113.457C180.989 113.533 180.888 113.571 180.774 113.571H179.976C179.887 113.571 179.811 113.552 179.748 113.514C179.697 113.476 179.646 113.432 179.596 113.381C179.469 113.216 179.317 113.052 179.14 112.887C178.975 112.722 178.753 112.589 178.475 112.488C178.209 112.374 177.854 112.317 177.411 112.317C176.777 112.317 176.302 112.45 175.986 112.716C175.669 112.982 175.511 113.318 175.511 113.723C175.511 113.964 175.58 114.179 175.72 114.369C175.859 114.559 176.125 114.73 176.518 114.882C176.91 115.034 177.493 115.199 178.266 115.376C179.102 115.541 179.76 115.762 180.242 116.041C180.723 116.32 181.065 116.643 181.268 117.01C181.47 117.377 181.572 117.802 181.572 118.283C181.572 118.815 181.413 119.303 181.097 119.746C180.793 120.189 180.337 120.544 179.729 120.81C179.133 121.063 178.392 121.19 177.506 121.19ZM187.191 121.19C186.482 121.19 185.874 121.101 185.367 120.924C184.861 120.747 184.449 120.531 184.132 120.278C183.816 120.025 183.575 119.771 183.41 119.518C183.258 119.265 183.176 119.062 183.163 118.91C183.151 118.771 183.195 118.663 183.296 118.587C183.398 118.511 183.499 118.473 183.6 118.473H184.436C184.512 118.473 184.569 118.486 184.607 118.511C184.658 118.524 184.721 118.574 184.797 118.663C184.962 118.84 185.146 119.018 185.348 119.195C185.551 119.372 185.798 119.518 186.089 119.632C186.393 119.746 186.767 119.803 187.21 119.803C187.856 119.803 188.388 119.683 188.806 119.442C189.224 119.189 189.433 118.821 189.433 118.34C189.433 118.023 189.345 117.77 189.167 117.58C189.003 117.39 188.699 117.219 188.255 117.067C187.825 116.915 187.229 116.757 186.469 116.592C185.709 116.415 185.108 116.199 184.664 115.946C184.221 115.68 183.904 115.37 183.714 115.015C183.524 114.648 183.429 114.236 183.429 113.78C183.429 113.311 183.569 112.862 183.847 112.431C184.126 111.988 184.531 111.627 185.063 111.348C185.608 111.069 186.286 110.93 187.096 110.93C187.755 110.93 188.319 111.012 188.787 111.177C189.256 111.342 189.642 111.551 189.946 111.804C190.25 112.045 190.478 112.285 190.63 112.526C190.782 112.767 190.865 112.969 190.877 113.134C190.89 113.261 190.852 113.368 190.763 113.457C190.675 113.533 190.573 113.571 190.459 113.571H189.661C189.573 113.571 189.497 113.552 189.433 113.514C189.383 113.476 189.332 113.432 189.281 113.381C189.155 113.216 189.003 113.052 188.825 112.887C188.661 112.722 188.439 112.589 188.16 112.488C187.894 112.374 187.54 112.317 187.096 112.317C186.463 112.317 185.988 112.45 185.671 112.716C185.355 112.982 185.196 113.318 185.196 113.723C185.196 113.964 185.266 114.179 185.405 114.369C185.545 114.559 185.811 114.73 186.203 114.882C186.596 115.034 187.179 115.199 187.951 115.376C188.787 115.541 189.446 115.762 189.927 116.041C190.409 116.32 190.751 116.643 190.953 117.01C191.156 117.377 191.257 117.802 191.257 118.283C191.257 118.815 191.099 119.303 190.782 119.746C190.478 120.189 190.022 120.544 189.414 120.81C188.819 121.063 188.078 121.19 187.191 121.19ZM195.819 121C195.654 121 195.528 120.962 195.439 120.886C195.35 120.797 195.274 120.677 195.211 120.525L192.513 111.709C192.488 111.646 192.475 111.582 192.475 111.519C192.475 111.405 192.513 111.31 192.589 111.234C192.678 111.158 192.773 111.12 192.874 111.12H193.71C193.849 111.12 193.957 111.158 194.033 111.234C194.109 111.31 194.16 111.38 194.185 111.443L196.294 118.606L198.555 111.519C198.58 111.43 198.631 111.342 198.707 111.253C198.796 111.164 198.922 111.12 199.087 111.12H199.733C199.898 111.12 200.024 111.164 200.113 111.253C200.202 111.342 200.252 111.43 200.265 111.519L202.526 118.606L204.635 111.443C204.648 111.38 204.692 111.31 204.768 111.234C204.844 111.158 204.952 111.12 205.091 111.12H205.927C206.041 111.12 206.136 111.158 206.212 111.234C206.288 111.31 206.326 111.405 206.326 111.519C206.326 111.582 206.313 111.646 206.288 111.709L203.59 120.525C203.552 120.677 203.482 120.797 203.381 120.886C203.292 120.962 203.159 121 202.982 121H202.241C202.076 121 201.937 120.962 201.823 120.886C201.722 120.797 201.652 120.677 201.614 120.525L199.41 113.723L197.206 120.525C197.155 120.677 197.079 120.797 196.978 120.886C196.877 120.962 196.737 121 196.56 121H195.819ZM212.218 121.19C211.255 121.19 210.451 121.006 209.805 120.639C209.159 120.272 208.665 119.765 208.323 119.119C207.981 118.46 207.791 117.713 207.753 116.877C207.74 116.662 207.734 116.389 207.734 116.06C207.734 115.718 207.74 115.446 207.753 115.243C207.791 114.394 207.981 113.647 208.323 113.001C208.677 112.355 209.178 111.848 209.824 111.481C210.47 111.114 211.268 110.93 212.218 110.93C213.168 110.93 213.966 111.114 214.612 111.481C215.258 111.848 215.752 112.355 216.094 113.001C216.448 113.647 216.645 114.394 216.683 115.243C216.695 115.446 216.702 115.718 216.702 116.06C216.702 116.389 216.695 116.662 216.683 116.877C216.645 117.713 216.455 118.46 216.113 119.119C215.771 119.765 215.277 120.272 214.631 120.639C213.985 121.006 213.18 121.19 212.218 121.19ZM212.218 119.727C213.003 119.727 213.63 119.48 214.099 118.986C214.567 118.479 214.821 117.745 214.859 116.782C214.871 116.592 214.878 116.351 214.878 116.06C214.878 115.769 214.871 115.528 214.859 115.338C214.821 114.375 214.567 113.647 214.099 113.153C213.63 112.646 213.003 112.393 212.218 112.393C211.432 112.393 210.799 112.646 210.318 113.153C209.849 113.647 209.602 114.375 209.577 115.338C209.564 115.528 209.558 115.769 209.558 116.06C209.558 116.351 209.564 116.592 209.577 116.782C209.602 117.745 209.849 118.479 210.318 118.986C210.799 119.48 211.432 119.727 212.218 119.727ZM219.518 121C219.391 121 219.283 120.962 219.195 120.886C219.119 120.797 219.081 120.69 219.081 120.563V111.576C219.081 111.449 219.119 111.342 219.195 111.253C219.283 111.164 219.391 111.12 219.518 111.12H220.392C220.518 111.12 220.626 111.164 220.715 111.253C220.803 111.342 220.848 111.449 220.848 111.576V112.412C221.101 111.981 221.449 111.658 221.893 111.443C222.336 111.228 222.868 111.12 223.489 111.12H224.249C224.375 111.12 224.477 111.164 224.553 111.253C224.629 111.329 224.667 111.43 224.667 111.557V112.336C224.667 112.463 224.629 112.564 224.553 112.64C224.477 112.716 224.375 112.754 224.249 112.754H223.109C222.425 112.754 221.886 112.957 221.494 113.362C221.101 113.755 220.905 114.293 220.905 114.977V120.563C220.905 120.69 220.86 120.797 220.772 120.886C220.683 120.962 220.575 121 220.449 121H219.518ZM229.704 121.19C229.008 121.19 228.406 121.07 227.899 120.829C227.393 120.576 226.975 120.24 226.645 119.822C226.329 119.391 226.088 118.904 225.923 118.359C225.771 117.814 225.683 117.238 225.657 116.63C225.645 116.427 225.638 116.237 225.638 116.06C225.638 115.883 225.645 115.693 225.657 115.49C225.683 114.895 225.771 114.325 225.923 113.78C226.088 113.235 226.329 112.748 226.645 112.317C226.975 111.886 227.393 111.551 227.899 111.31C228.406 111.057 229.008 110.93 229.704 110.93C230.452 110.93 231.072 111.063 231.566 111.329C232.06 111.595 232.466 111.924 232.782 112.317V107.947C232.782 107.82 232.82 107.719 232.896 107.643C232.985 107.554 233.093 107.51 233.219 107.51H234.131C234.258 107.51 234.359 107.554 234.435 107.643C234.524 107.719 234.568 107.82 234.568 107.947V120.563C234.568 120.69 234.524 120.797 234.435 120.886C234.359 120.962 234.258 121 234.131 121H233.276C233.137 121 233.029 120.962 232.953 120.886C232.877 120.797 232.839 120.69 232.839 120.563V119.765C232.523 120.17 232.111 120.512 231.604 120.791C231.098 121.057 230.464 121.19 229.704 121.19ZM230.103 119.651C230.737 119.651 231.243 119.505 231.623 119.214C232.003 118.923 232.288 118.555 232.478 118.112C232.668 117.656 232.77 117.194 232.782 116.725C232.795 116.522 232.801 116.282 232.801 116.003C232.801 115.712 232.795 115.465 232.782 115.262C232.77 114.819 232.662 114.382 232.459 113.951C232.269 113.52 231.978 113.166 231.585 112.887C231.205 112.608 230.711 112.469 230.103 112.469C229.457 112.469 228.944 112.615 228.564 112.906C228.184 113.185 227.912 113.558 227.747 114.027C227.583 114.483 227.488 114.977 227.462 115.509C227.45 115.876 227.45 116.244 227.462 116.611C227.488 117.143 227.583 117.643 227.747 118.112C227.912 118.568 228.184 118.942 228.564 119.233C228.944 119.512 229.457 119.651 230.103 119.651ZM302.736 124.61C302.609 124.61 302.502 124.566 302.413 124.477C302.337 124.401 302.299 124.3 302.299 124.173V111.557C302.299 111.43 302.337 111.329 302.413 111.253C302.502 111.164 302.609 111.12 302.736 111.12H303.61C303.737 111.12 303.838 111.164 303.914 111.253C304.003 111.329 304.047 111.43 304.047 111.557V112.393C304.351 111.975 304.756 111.627 305.263 111.348C305.77 111.069 306.403 110.93 307.163 110.93C307.872 110.93 308.474 111.05 308.968 111.291C309.475 111.532 309.886 111.861 310.203 112.279C310.532 112.697 310.779 113.172 310.944 113.704C311.109 114.236 311.197 114.806 311.21 115.414C311.223 115.617 311.229 115.832 311.229 116.06C311.229 116.288 311.223 116.503 311.21 116.706C311.197 117.301 311.109 117.871 310.944 118.416C310.779 118.948 310.532 119.423 310.203 119.841C309.886 120.246 309.475 120.576 308.968 120.829C308.474 121.07 307.872 121.19 307.163 121.19C306.428 121.19 305.808 121.057 305.301 120.791C304.807 120.512 304.402 120.17 304.085 119.765V124.173C304.085 124.3 304.047 124.401 303.971 124.477C303.895 124.566 303.787 124.61 303.648 124.61H302.736ZM306.764 119.651C307.423 119.651 307.936 119.512 308.303 119.233C308.683 118.942 308.955 118.568 309.12 118.112C309.285 117.643 309.38 117.143 309.405 116.611C309.418 116.244 309.418 115.876 309.405 115.509C309.38 114.977 309.285 114.483 309.12 114.027C308.955 113.558 308.683 113.185 308.303 112.906C307.936 112.615 307.423 112.469 306.764 112.469C306.143 112.469 305.637 112.615 305.244 112.906C304.864 113.197 304.579 113.571 304.389 114.027C304.212 114.47 304.11 114.926 304.085 115.395C304.072 115.598 304.066 115.838 304.066 116.117C304.066 116.396 304.072 116.643 304.085 116.858C304.098 117.301 304.199 117.738 304.389 118.169C304.592 118.6 304.889 118.954 305.282 119.233C305.675 119.512 306.169 119.651 306.764 119.651ZM315.961 121C315.796 121 315.669 120.962 315.581 120.886C315.492 120.797 315.416 120.677 315.353 120.525L312.655 111.709C312.629 111.646 312.617 111.582 312.617 111.519C312.617 111.405 312.655 111.31 312.731 111.234C312.819 111.158 312.914 111.12 313.016 111.12H313.852C313.991 111.12 314.099 111.158 314.175 111.234C314.251 111.31 314.301 111.38 314.327 111.443L316.436 118.606L318.697 111.519C318.722 111.43 318.773 111.342 318.849 111.253C318.937 111.164 319.064 111.12 319.229 111.12H319.875C320.039 111.12 320.166 111.164 320.255 111.253C320.343 111.342 320.394 111.43 320.407 111.519L322.668 118.606L324.777 111.443C324.789 111.38 324.834 111.31 324.91 111.234C324.986 111.158 325.093 111.12 325.233 111.12H326.069C326.183 111.12 326.278 111.158 326.354 111.234C326.43 111.31 326.468 111.405 326.468 111.519C326.468 111.582 326.455 111.646 326.43 111.709L323.732 120.525C323.694 120.677 323.624 120.797 323.523 120.886C323.434 120.962 323.301 121 323.124 121H322.383C322.218 121 322.079 120.962 321.965 120.886C321.863 120.797 321.794 120.677 321.756 120.525L319.552 113.723L317.348 120.525C317.297 120.677 317.221 120.797 317.12 120.886C317.018 120.962 316.879 121 316.702 121H315.961ZM331.922 121.19C331.226 121.19 330.624 121.07 330.117 120.829C329.611 120.576 329.193 120.24 328.863 119.822C328.547 119.391 328.306 118.904 328.141 118.359C327.989 117.814 327.901 117.238 327.875 116.63C327.863 116.427 327.856 116.237 327.856 116.06C327.856 115.883 327.863 115.693 327.875 115.49C327.901 114.895 327.989 114.325 328.141 113.78C328.306 113.235 328.547 112.748 328.863 112.317C329.193 111.886 329.611 111.551 330.117 111.31C330.624 111.057 331.226 110.93 331.922 110.93C332.67 110.93 333.29 111.063 333.784 111.329C334.278 111.595 334.684 111.924 335 112.317V107.947C335 107.82 335.038 107.719 335.114 107.643C335.203 107.554 335.311 107.51 335.437 107.51H336.349C336.476 107.51 336.577 107.554 336.653 107.643C336.742 107.719 336.786 107.82 336.786 107.947V120.563C336.786 120.69 336.742 120.797 336.653 120.886C336.577 120.962 336.476 121 336.349 121H335.494C335.355 121 335.247 120.962 335.171 120.886C335.095 120.797 335.057 120.69 335.057 120.563V119.765C334.741 120.17 334.329 120.512 333.822 120.791C333.316 121.057 332.682 121.19 331.922 121.19ZM332.321 119.651C332.955 119.651 333.461 119.505 333.841 119.214C334.221 118.923 334.506 118.555 334.696 118.112C334.886 117.656 334.988 117.194 335 116.725C335.013 116.522 335.019 116.282 335.019 116.003C335.019 115.712 335.013 115.465 335 115.262C334.988 114.819 334.88 114.382 334.677 113.951C334.487 113.52 334.196 113.166 333.803 112.887C333.423 112.608 332.929 112.469 332.321 112.469C331.675 112.469 331.162 112.615 330.782 112.906C330.402 113.185 330.13 113.558 329.965 114.027C329.801 114.483 329.706 114.977 329.68 115.509C329.668 115.876 329.668 116.244 329.68 116.611C329.706 117.143 329.801 117.643 329.965 118.112C330.13 118.568 330.402 118.942 330.782 119.233C331.162 119.512 331.675 119.651 332.321 119.651ZM438.705 124.61C438.578 124.61 438.47 124.566 438.382 124.477C438.306 124.401 438.268 124.3 438.268 124.173V111.557C438.268 111.43 438.306 111.329 438.382 111.253C438.47 111.164 438.578 111.12 438.705 111.12H439.579C439.705 111.12 439.807 111.164 439.883 111.253C439.971 111.329 440.016 111.43 440.016 111.557V112.393C440.32 111.975 440.725 111.627 441.232 111.348C441.738 111.069 442.372 110.93 443.132 110.93C443.841 110.93 444.443 111.05 444.937 111.291C445.443 111.532 445.855 111.861 446.172 112.279C446.501 112.697 446.748 113.172 446.913 113.704C447.077 114.236 447.166 114.806 447.179 115.414C447.191 115.617 447.198 115.832 447.198 116.06C447.198 116.288 447.191 116.503 447.179 116.706C447.166 117.301 447.077 117.871 446.913 118.416C446.748 118.948 446.501 119.423 446.172 119.841C445.855 120.246 445.443 120.576 444.937 120.829C444.443 121.07 443.841 121.19 443.132 121.19C442.397 121.19 441.776 121.057 441.27 120.791C440.776 120.512 440.37 120.17 440.054 119.765V124.173C440.054 124.3 440.016 124.401 439.94 124.477C439.864 124.566 439.756 124.61 439.617 124.61H438.705ZM442.733 119.651C443.391 119.651 443.904 119.512 444.272 119.233C444.652 118.942 444.924 118.568 445.089 118.112C445.253 117.643 445.348 117.143 445.374 116.611C445.386 116.244 445.386 115.876 445.374 115.509C445.348 114.977 445.253 114.483 445.089 114.027C444.924 113.558 444.652 113.185 444.272 112.906C443.904 112.615 443.391 112.469 442.733 112.469C442.112 112.469 441.605 112.615 441.213 112.906C440.833 113.197 440.548 113.571 440.358 114.027C440.18 114.47 440.079 114.926 440.054 115.395C440.041 115.598 440.035 115.838 440.035 116.117C440.035 116.396 440.041 116.643 440.054 116.858C440.066 117.301 440.168 117.738 440.358 118.169C440.56 118.6 440.858 118.954 441.251 119.233C441.643 119.512 442.137 119.651 442.733 119.651ZM451.929 121C451.765 121 451.638 120.962 451.549 120.886C451.461 120.797 451.385 120.677 451.321 120.525L448.623 111.709C448.598 111.646 448.585 111.582 448.585 111.519C448.585 111.405 448.623 111.31 448.699 111.234C448.788 111.158 448.883 111.12 448.984 111.12H449.82C449.96 111.12 450.067 111.158 450.143 111.234C450.219 111.31 450.27 111.38 450.295 111.443L452.404 118.606L454.665 111.519C454.691 111.43 454.741 111.342 454.817 111.253C454.906 111.164 455.033 111.12 455.197 111.12H455.843C456.008 111.12 456.135 111.164 456.223 111.253C456.312 111.342 456.363 111.43 456.375 111.519L458.636 118.606L460.745 111.443C460.758 111.38 460.802 111.31 460.878 111.234C460.954 111.158 461.062 111.12 461.201 111.12H462.037C462.151 111.12 462.246 111.158 462.322 111.234C462.398 111.31 462.436 111.405 462.436 111.519C462.436 111.582 462.424 111.646 462.398 111.709L459.7 120.525C459.662 120.677 459.593 120.797 459.491 120.886C459.403 120.962 459.27 121 459.092 121H458.351C458.187 121 458.047 120.962 457.933 120.886C457.832 120.797 457.762 120.677 457.724 120.525L455.52 113.723L453.316 120.525C453.266 120.677 453.19 120.797 453.088 120.886C452.987 120.962 452.848 121 452.67 121H451.929ZM467.891 121.19C467.194 121.19 466.593 121.07 466.086 120.829C465.579 120.576 465.161 120.24 464.832 119.822C464.515 119.391 464.275 118.904 464.11 118.359C463.958 117.814 463.869 117.238 463.844 116.63C463.831 116.427 463.825 116.237 463.825 116.06C463.825 115.883 463.831 115.693 463.844 115.49C463.869 114.895 463.958 114.325 464.11 113.78C464.275 113.235 464.515 112.748 464.832 112.317C465.161 111.886 465.579 111.551 466.086 111.31C466.593 111.057 467.194 110.93 467.891 110.93C468.638 110.93 469.259 111.063 469.753 111.329C470.247 111.595 470.652 111.924 470.969 112.317V107.947C470.969 107.82 471.007 107.719 471.083 107.643C471.172 107.554 471.279 107.51 471.406 107.51H472.318C472.445 107.51 472.546 107.554 472.622 107.643C472.711 107.719 472.755 107.82 472.755 107.947V120.563C472.755 120.69 472.711 120.797 472.622 120.886C472.546 120.962 472.445 121 472.318 121H471.463C471.324 121 471.216 120.962 471.14 120.886C471.064 120.797 471.026 120.69 471.026 120.563V119.765C470.709 120.17 470.298 120.512 469.791 120.791C469.284 121.057 468.651 121.19 467.891 121.19ZM468.29 119.651C468.923 119.651 469.43 119.505 469.81 119.214C470.19 118.923 470.475 118.555 470.665 118.112C470.855 117.656 470.956 117.194 470.969 116.725C470.982 116.522 470.988 116.282 470.988 116.003C470.988 115.712 470.982 115.465 470.969 115.262C470.956 114.819 470.849 114.382 470.646 113.951C470.456 113.52 470.165 113.166 469.772 112.887C469.392 112.608 468.898 112.469 468.29 112.469C467.644 112.469 467.131 112.615 466.751 112.906C466.371 113.185 466.099 113.558 465.934 114.027C465.769 114.483 465.674 114.977 465.649 115.509C465.636 115.876 465.636 116.244 465.649 116.611C465.674 117.143 465.769 117.643 465.934 118.112C466.099 118.568 466.371 118.942 466.751 119.233C467.131 119.512 467.644 119.651 468.29 119.651Z" fill="white"/>
<g filter="url(#filter0_d_213_152)">
<path d="M4 12C4 5.37258 9.37258 0 16 0H787C793.627 0 799 5.37258 799 12V43H4V12Z" fill="#242526"/>
</g>
<ellipse cx="29.1279" cy="21.9141" rx="5.84369" ry="6.72025" fill="#E65100"/>
<ellipse cx="48.4121" cy="21.9141" rx="5.84369" ry="6.72025" fill="#FFD600"/>
<ellipse cx="67.6962" cy="21.9141" rx="5.84369" ry="6.72025" fill="#4EC433"/>
<defs>
<filter id="filter0_d_213_152" x="0" y="0" width="803" height="51" filterUnits="userSpaceOnUse" color-interpolation-filters="sRGB">
<feFlood flood-opacity="0" result="BackgroundImageFix"/>
<feColorMatrix in="SourceAlpha" type="matrix" values="0 0 0 0 0 0 0 0 0 0 0 0 0 0 0 0 0 0 127 0" result="hardAlpha"/>
<feOffset dy="4"/>
<feGaussianBlur stdDeviation="2"/>
<feComposite in2="hardAlpha" operator="out"/>
<feColorMatrix type="matrix" values="0 0 0 0 0 0 0 0 0 0 0 0 0 0 0 0 0 0 0.25 0"/>
<feBlend mode="normal" in2="BackgroundImageFix" result="effect1_dropShadow_213_152"/>
<feBlend mode="normal" in="SourceGraphic" in2="effect1_dropShadow_213_152" result="shape"/>
</filter>
</defs>
</svg>
