<svg width="803" height="144" viewBox="0 0 803 144" fill="none" xmlns="http://www.w3.org/2000/svg">
<rect x="4" width="586" height="144" rx="12" fill="#242526"/>
<rect x="4" width="795" height="144" rx="12" fill="#242526"/>
<path d="M21.676 89.525C21.6 89.525 21.5177 89.4997 21.429 89.449C21.353 89.3983 21.2833 89.3603 21.22 89.335L15.235 85.212C15.045 85.0853 14.9057 84.9587 14.817 84.832C14.7283 84.6927 14.684 84.5343 14.684 84.357V84.015C14.684 83.8377 14.7283 83.6857 14.817 83.559C14.9057 83.4323 15.045 83.2993 15.235 83.16L21.22 79.056C21.2833 79.018 21.353 78.9737 21.429 78.923C21.5177 78.8723 21.6 78.847 21.676 78.847C21.7773 78.847 21.866 78.885 21.942 78.961C22.018 79.0243 22.056 79.1193 22.056 79.246V80.082C22.056 80.2213 22.018 80.3417 21.942 80.443C21.866 80.5317 21.7583 80.6203 21.619 80.709L16.527 84.186L21.619 87.663C21.7583 87.7643 21.866 87.8593 21.942 87.948C22.018 88.0367 22.056 88.157 22.056 88.309V89.145C22.056 89.259 22.018 89.354 21.942 89.43C21.866 89.4933 21.7773 89.525 21.676 89.525ZM768.361 89.506C768.26 89.506 768.171 89.4743 768.095 89.411C768.019 89.3477 767.981 89.2527 767.981 89.126V88.29C767.981 88.138 768.013 88.0177 768.076 87.929C768.152 87.8403 768.266 87.7517 768.418 87.663L773.491 84.186L768.418 80.709C768.266 80.6077 768.152 80.5127 768.076 80.424C768.013 80.3353 767.981 80.215 767.981 80.063V79.227C767.981 79.1003 768.019 79.0053 768.095 78.942C768.171 78.8787 768.26 78.847 768.361 78.847C768.437 78.847 768.52 78.8723 768.608 78.923C768.697 78.961 768.767 78.999 768.817 79.037L774.783 83.141C774.986 83.2803 775.125 83.4133 775.201 83.54C775.29 83.6667 775.334 83.825 775.334 84.015V84.338C775.334 84.5153 775.29 84.6737 775.201 84.813C775.125 84.9397 774.986 85.0727 774.783 85.212L768.817 89.316C768.767 89.354 768.697 89.3983 768.608 89.449C768.52 89.487 768.437 89.506 768.361 89.506Z" fill="#647DFF"/>
<path d="M29.8518 90C29.7251 90 29.6175 89.962 29.5288 89.886C29.4528 89.7973 29.4148 89.6897 29.4148 89.563V80.557C29.4148 80.4303 29.4528 80.329 29.5288 80.253C29.6175 80.1643 29.7251 80.12 29.8518 80.12H30.7638C30.8905 80.12 30.9918 80.1643 31.0678 80.253C31.1438 80.329 31.1818 80.4303 31.1818 80.557V89.563C31.1818 89.6897 31.1438 89.7973 31.0678 89.886C30.9918 89.962 30.8905 90 30.7638 90H29.8518ZM29.6998 78.277C29.5731 78.277 29.4655 78.239 29.3768 78.163C29.3008 78.0743 29.2628 77.9667 29.2628 77.84V76.814C29.2628 76.6873 29.3008 76.586 29.3768 76.51C29.4655 76.4213 29.5731 76.377 29.6998 76.377H30.8968C31.0235 76.377 31.1248 76.4213 31.2008 76.51C31.2895 76.586 31.3338 76.6873 31.3338 76.814V77.84C31.3338 77.9667 31.2895 78.0743 31.2008 78.163C31.1248 78.239 31.0235 78.277 30.8968 78.277H29.6998ZM34.6389 90C34.5122 90 34.4046 89.962 34.3159 89.886C34.2399 89.7973 34.2019 89.6897 34.2019 89.563V80.557C34.2019 80.4303 34.2399 80.329 34.3159 80.253C34.4046 80.1643 34.5122 80.12 34.6389 80.12H35.5319C35.6586 80.12 35.7599 80.1643 35.8359 80.253C35.9246 80.329 35.9689 80.4303 35.9689 80.557V81.393C36.2982 80.9623 36.7099 80.614 37.2039 80.348C37.7106 80.0693 38.3566 79.93 39.1419 79.93C39.9652 79.93 40.6619 80.1137 41.2319 80.481C41.8146 80.8357 42.2516 81.336 42.5429 81.982C42.8342 82.6153 42.9799 83.3563 42.9799 84.205V89.563C42.9799 89.6897 42.9419 89.7973 42.8659 89.886C42.7899 89.962 42.6886 90 42.5619 90H41.6119C41.4852 90 41.3776 89.962 41.2889 89.886C41.2129 89.7973 41.1749 89.6897 41.1749 89.563V84.3C41.1749 83.4133 40.9596 82.723 40.5289 82.229C40.0982 81.7223 39.4649 81.469 38.6289 81.469C37.8436 81.469 37.2102 81.7223 36.7289 82.229C36.2602 82.723 36.0259 83.4133 36.0259 84.3V89.563C36.0259 89.6897 35.9816 89.7973 35.8929 89.886C35.8169 89.962 35.7156 90 35.5889 90H34.6389ZM46.1804 93.61C46.0537 93.61 45.946 93.5657 45.8574 93.477C45.7814 93.401 45.7434 93.2997 45.7434 93.173V80.557C45.7434 80.4303 45.7814 80.329 45.8574 80.253C45.946 80.1643 46.0537 80.12 46.1804 80.12H47.0544C47.181 80.12 47.2824 80.1643 47.3584 80.253C47.447 80.329 47.4914 80.4303 47.4914 80.557V81.393C47.7954 80.975 48.2007 80.6267 48.7074 80.348C49.214 80.0693 49.8474 79.93 50.6074 79.93C51.3167 79.93 51.9184 80.0503 52.4124 80.291C52.919 80.5317 53.3307 80.861 53.6474 81.279C53.9767 81.697 54.2237 82.172 54.3884 82.704C54.553 83.236 54.6417 83.806 54.6544 84.414C54.667 84.6167 54.6734 84.832 54.6734 85.06C54.6734 85.288 54.667 85.5033 54.6544 85.706C54.6417 86.3013 54.553 86.8713 54.3884 87.416C54.2237 87.948 53.9767 88.423 53.6474 88.841C53.3307 89.2463 52.919 89.5757 52.4124 89.829C51.9184 90.0697 51.3167 90.19 50.6074 90.19C49.8727 90.19 49.252 90.057 48.7454 89.791C48.2514 89.5123 47.846 89.1703 47.5294 88.765V93.173C47.5294 93.2997 47.4914 93.401 47.4154 93.477C47.3394 93.5657 47.2317 93.61 47.0924 93.61H46.1804ZM50.2084 88.651C50.867 88.651 51.38 88.5117 51.7474 88.233C52.1274 87.9417 52.3997 87.568 52.5644 87.112C52.729 86.6433 52.824 86.143 52.8494 85.611C52.862 85.2437 52.862 84.8763 52.8494 84.509C52.824 83.977 52.729 83.483 52.5644 83.027C52.3997 82.5583 52.1274 82.1847 51.7474 81.906C51.38 81.6147 50.867 81.469 50.2084 81.469C49.5877 81.469 49.081 81.6147 48.6884 81.906C48.3084 82.1973 48.0234 82.571 47.8334 83.027C47.656 83.4703 47.5547 83.9263 47.5294 84.395C47.5167 84.5977 47.5104 84.8383 47.5104 85.117C47.5104 85.3957 47.5167 85.6427 47.5294 85.858C47.542 86.3013 47.6434 86.7383 47.8334 87.169C48.036 87.5997 48.3337 87.9543 48.7264 88.233C49.119 88.5117 49.613 88.651 50.2084 88.651ZM60.7287 90.19C59.9181 90.19 59.2277 90.0127 58.6577 89.658C58.1004 89.2907 57.6761 88.784 57.3847 88.138C57.0934 87.492 56.9477 86.751 56.9477 85.915V80.557C56.9477 80.4303 56.9857 80.329 57.0617 80.253C57.1504 80.1643 57.2581 80.12 57.3847 80.12H58.3347C58.4614 80.12 58.5627 80.1643 58.6387 80.253C58.7274 80.329 58.7717 80.4303 58.7717 80.557V85.82C58.7717 87.7073 59.5951 88.651 61.2417 88.651C62.0271 88.651 62.6541 88.404 63.1227 87.91C63.6041 87.4033 63.8447 86.7067 63.8447 85.82V80.557C63.8447 80.4303 63.8827 80.329 63.9587 80.253C64.0474 80.1643 64.1551 80.12 64.2817 80.12H65.2127C65.3521 80.12 65.4597 80.1643 65.5357 80.253C65.6117 80.329 65.6497 80.4303 65.6497 80.557V89.563C65.6497 89.6897 65.6117 89.7973 65.5357 89.886C65.4597 89.962 65.3521 90 65.2127 90H64.3387C64.2121 90 64.1044 89.962 64.0157 89.886C63.9397 89.7973 63.9017 89.6897 63.9017 89.563V88.727C63.5597 89.1703 63.1417 89.525 62.6477 89.791C62.1664 90.057 61.5267 90.19 60.7287 90.19ZM72.3294 90C71.6201 90 71.0437 89.867 70.6004 89.601C70.1571 89.3223 69.8341 88.936 69.6314 88.442C69.4287 87.9353 69.3274 87.34 69.3274 86.656V81.64H67.8454C67.7187 81.64 67.6111 81.602 67.5224 81.526C67.4464 81.4373 67.4084 81.3297 67.4084 81.203V80.557C67.4084 80.4303 67.4464 80.329 67.5224 80.253C67.6111 80.1643 67.7187 80.12 67.8454 80.12H69.3274V76.947C69.3274 76.8203 69.3654 76.719 69.4414 76.643C69.5301 76.5543 69.6377 76.51 69.7644 76.51H70.6574C70.7841 76.51 70.8854 76.5543 70.9614 76.643C71.0501 76.719 71.0944 76.8203 71.0944 76.947V80.12H73.4504C73.5771 80.12 73.6784 80.1643 73.7544 80.253C73.8431 80.329 73.8874 80.4303 73.8874 80.557V81.203C73.8874 81.3297 73.8431 81.4373 73.7544 81.526C73.6784 81.602 73.5771 81.64 73.4504 81.64H71.0944V86.523C71.0944 87.1183 71.1957 87.587 71.3984 87.929C71.6011 88.271 71.9621 88.442 72.4814 88.442H73.6404C73.7671 88.442 73.8684 88.4863 73.9444 88.575C74.0331 88.651 74.0774 88.7523 74.0774 88.879V89.563C74.0774 89.6897 74.0331 89.7973 73.9444 89.886C73.8684 89.962 73.7671 90 73.6404 90H72.3294ZM84.0003 90C83.291 90 82.7146 89.867 82.2713 89.601C81.828 89.3223 81.505 88.936 81.3023 88.442C81.0996 87.9353 80.9983 87.34 80.9983 86.656V81.64H79.5163C79.3896 81.64 79.282 81.602 79.1933 81.526C79.1173 81.4373 79.0793 81.3297 79.0793 81.203V80.557C79.0793 80.4303 79.1173 80.329 79.1933 80.253C79.282 80.1643 79.3896 80.12 79.5163 80.12H80.9983V76.947C80.9983 76.8203 81.0363 76.719 81.1123 76.643C81.201 76.5543 81.3086 76.51 81.4353 76.51H82.3283C82.455 76.51 82.5563 76.5543 82.6323 76.643C82.721 76.719 82.7653 76.8203 82.7653 76.947V80.12H85.1213C85.248 80.12 85.3493 80.1643 85.4253 80.253C85.514 80.329 85.5583 80.4303 85.5583 80.557V81.203C85.5583 81.3297 85.514 81.4373 85.4253 81.526C85.3493 81.602 85.248 81.64 85.1213 81.64H82.7653V86.523C82.7653 87.1183 82.8666 87.587 83.0693 87.929C83.272 88.271 83.633 88.442 84.1523 88.442H85.3113C85.438 88.442 85.5393 88.4863 85.6153 88.575C85.704 88.651 85.7483 88.7523 85.7483 88.879V89.563C85.7483 89.6897 85.704 89.7973 85.6153 89.886C85.5393 89.962 85.438 90 85.3113 90H84.0003ZM89.2942 93.61C89.1928 93.61 89.1042 93.572 89.0282 93.496C88.9522 93.42 88.9142 93.3313 88.9142 93.23C88.9142 93.1793 88.9205 93.1287 88.9332 93.078C88.9458 93.0273 88.9712 92.964 89.0092 92.888L90.4722 89.411L86.8432 80.842C86.7798 80.69 86.7482 80.5823 86.7482 80.519C86.7482 80.405 86.7862 80.31 86.8622 80.234C86.9382 80.158 87.0332 80.12 87.1472 80.12H88.0782C88.2048 80.12 88.3062 80.1517 88.3822 80.215C88.4582 80.2783 88.5088 80.3543 88.5342 80.443L91.4222 87.359L94.3862 80.443C94.4242 80.3543 94.4748 80.2783 94.5382 80.215C94.6142 80.1517 94.7218 80.12 94.8612 80.12H95.7542C95.8682 80.12 95.9632 80.158 96.0392 80.234C96.1152 80.31 96.1532 80.3987 96.1532 80.5C96.1532 80.5633 96.1215 80.6773 96.0582 80.842L90.6622 93.287C90.6242 93.3757 90.5672 93.4517 90.4912 93.515C90.4278 93.5783 90.3265 93.61 90.1872 93.61H89.2942ZM98.486 93.61C98.3594 93.61 98.2517 93.5657 98.163 93.477C98.087 93.401 98.049 93.2997 98.049 93.173V80.557C98.049 80.4303 98.087 80.329 98.163 80.253C98.2517 80.1643 98.3594 80.12 98.486 80.12H99.36C99.4867 80.12 99.588 80.1643 99.664 80.253C99.7527 80.329 99.797 80.4303 99.797 80.557V81.393C100.101 80.975 100.506 80.6267 101.013 80.348C101.52 80.0693 102.153 79.93 102.913 79.93C103.622 79.93 104.224 80.0503 104.718 80.291C105.225 80.5317 105.636 80.861 105.953 81.279C106.282 81.697 106.529 82.172 106.694 82.704C106.859 83.236 106.947 83.806 106.96 84.414C106.973 84.6167 106.979 84.832 106.979 85.06C106.979 85.288 106.973 85.5033 106.96 85.706C106.947 86.3013 106.859 86.8713 106.694 87.416C106.529 87.948 106.282 88.423 105.953 88.841C105.636 89.2463 105.225 89.5757 104.718 89.829C104.224 90.0697 103.622 90.19 102.913 90.19C102.178 90.19 101.558 90.057 101.051 89.791C100.557 89.5123 100.152 89.1703 99.835 88.765V93.173C99.835 93.2997 99.797 93.401 99.721 93.477C99.645 93.5657 99.5374 93.61 99.398 93.61H98.486ZM102.514 88.651C103.173 88.651 103.686 88.5117 104.053 88.233C104.433 87.9417 104.705 87.568 104.87 87.112C105.035 86.6433 105.13 86.143 105.155 85.611C105.168 85.2437 105.168 84.8763 105.155 84.509C105.13 83.977 105.035 83.483 104.87 83.027C104.705 82.5583 104.433 82.1847 104.053 81.906C103.686 81.6147 103.173 81.469 102.514 81.469C101.893 81.469 101.387 81.6147 100.994 81.906C100.614 82.1973 100.329 82.571 100.139 83.027C99.9617 83.4703 99.8604 83.9263 99.835 84.395C99.8224 84.5977 99.816 84.8383 99.816 85.117C99.816 85.3957 99.8224 85.6427 99.835 85.858C99.8477 86.3013 99.949 86.7383 100.139 87.169C100.342 87.5997 100.639 87.9543 101.032 88.233C101.425 88.5117 101.919 88.651 102.514 88.651ZM113.281 90.19C111.977 90.19 110.938 89.791 110.165 88.993C109.393 88.1823 108.968 87.0803 108.892 85.687C108.88 85.5223 108.873 85.3133 108.873 85.06C108.873 84.794 108.88 84.5787 108.892 84.414C108.943 83.5147 109.152 82.7293 109.519 82.058C109.887 81.374 110.387 80.8483 111.02 80.481C111.666 80.1137 112.42 79.93 113.281 79.93C114.244 79.93 115.048 80.1327 115.694 80.538C116.353 80.9433 116.853 81.5197 117.195 82.267C117.537 83.0143 117.708 83.8883 117.708 84.889V85.212C117.708 85.3513 117.664 85.459 117.575 85.535C117.499 85.611 117.398 85.649 117.271 85.649H110.697C110.697 85.6617 110.697 85.687 110.697 85.725C110.697 85.763 110.697 85.7947 110.697 85.82C110.723 86.3393 110.837 86.827 111.039 87.283C111.242 87.7263 111.533 88.0873 111.913 88.366C112.293 88.6447 112.749 88.784 113.281 88.784C113.737 88.784 114.117 88.7143 114.421 88.575C114.725 88.4357 114.972 88.2837 115.162 88.119C115.352 87.9417 115.479 87.8087 115.542 87.72C115.656 87.5553 115.745 87.4603 115.808 87.435C115.872 87.397 115.973 87.378 116.112 87.378H117.024C117.151 87.378 117.252 87.416 117.328 87.492C117.417 87.5553 117.455 87.6503 117.442 87.777C117.43 87.967 117.328 88.2013 117.138 88.48C116.948 88.746 116.676 89.012 116.321 89.278C115.967 89.544 115.536 89.7657 115.029 89.943C114.523 90.1077 113.94 90.19 113.281 90.19ZM110.697 84.338H115.903V84.281C115.903 83.711 115.796 83.2043 115.58 82.761C115.378 82.3177 115.08 81.9693 114.687 81.716C114.295 81.45 113.826 81.317 113.281 81.317C112.737 81.317 112.268 81.45 111.875 81.716C111.495 81.9693 111.204 82.3177 111.001 82.761C110.799 83.2043 110.697 83.711 110.697 84.281V84.338ZM125.017 82.666C124.891 82.666 124.789 82.628 124.713 82.552C124.637 82.476 124.599 82.3747 124.599 82.248V81.602C124.599 81.4753 124.637 81.374 124.713 81.298C124.789 81.222 124.891 81.184 125.017 81.184H132.256C132.383 81.184 132.484 81.222 132.56 81.298C132.649 81.374 132.693 81.4753 132.693 81.602V82.248C132.693 82.3747 132.649 82.476 132.56 82.552C132.484 82.628 132.383 82.666 132.256 82.666H125.017ZM125.017 87.416C124.891 87.416 124.789 87.378 124.713 87.302C124.637 87.226 124.599 87.1247 124.599 86.998V86.352C124.599 86.2253 124.637 86.124 124.713 86.048C124.789 85.972 124.891 85.934 125.017 85.934H132.256C132.383 85.934 132.484 85.972 132.56 86.048C132.649 86.124 132.693 86.2253 132.693 86.352V86.998C132.693 87.1247 132.649 87.226 132.56 87.302C132.484 87.378 132.383 87.416 132.256 87.416H125.017ZM143.038 80.177C142.949 80.177 142.873 80.1453 142.81 80.082C142.759 80.0187 142.734 79.9427 142.734 79.854C142.734 79.7527 142.753 79.6513 142.791 79.55L143.798 76.947C143.861 76.8203 143.924 76.719 143.988 76.643C144.064 76.5543 144.184 76.51 144.349 76.51H144.976C145.077 76.51 145.153 76.548 145.204 76.624C145.267 76.7 145.286 76.8013 145.261 76.928L144.843 79.626C144.83 79.778 144.779 79.911 144.691 80.025C144.602 80.1263 144.469 80.177 144.292 80.177H143.038ZM139.998 80.177C139.909 80.177 139.833 80.1453 139.77 80.082C139.719 80.0187 139.694 79.9427 139.694 79.854C139.694 79.7527 139.713 79.6513 139.751 79.55L140.758 76.947C140.821 76.8203 140.891 76.719 140.967 76.643C141.043 76.5543 141.157 76.51 141.309 76.51H141.936C142.037 76.51 142.113 76.548 142.164 76.624C142.227 76.7 142.246 76.8013 142.221 76.928L141.803 79.626C141.79 79.778 141.739 79.911 141.651 80.025C141.562 80.1263 141.435 80.177 141.271 80.177H139.998ZM195.476 80.177C195.362 80.177 195.279 80.139 195.229 80.063C195.178 79.987 195.159 79.892 195.172 79.778L195.59 77.061C195.615 76.909 195.666 76.7823 195.742 76.681C195.83 76.567 195.963 76.51 196.141 76.51H197.395C197.496 76.51 197.572 76.548 197.623 76.624C197.686 76.6873 197.718 76.757 197.718 76.833C197.718 76.9343 197.692 77.0357 197.642 77.137L196.654 79.74C196.603 79.8667 196.533 79.9743 196.445 80.063C196.369 80.139 196.248 80.177 196.084 80.177H195.476ZM192.436 80.177C192.334 80.177 192.252 80.139 192.189 80.063C192.138 79.987 192.119 79.892 192.132 79.778L192.569 77.061C192.594 76.909 192.645 76.7823 192.721 76.681C192.809 76.567 192.936 76.51 193.101 76.51H194.374C194.462 76.51 194.532 76.548 194.583 76.624C194.646 76.6873 194.678 76.757 194.678 76.833C194.678 76.9343 194.652 77.0357 194.602 77.137L193.614 79.74C193.563 79.8667 193.493 79.9743 193.405 80.063C193.329 80.139 193.208 80.177 193.044 80.177H192.436ZM204.915 90C204.789 90 204.681 89.962 204.592 89.886C204.516 89.7973 204.478 89.6897 204.478 89.563V80.557C204.478 80.4303 204.516 80.329 204.592 80.253C204.681 80.1643 204.789 80.12 204.915 80.12H205.827C205.954 80.12 206.055 80.1643 206.131 80.253C206.207 80.329 206.245 80.4303 206.245 80.557V89.563C206.245 89.6897 206.207 89.7973 206.131 89.886C206.055 89.962 205.954 90 205.827 90H204.915ZM204.763 78.277C204.637 78.277 204.529 78.239 204.44 78.163C204.364 78.0743 204.326 77.9667 204.326 77.84V76.814C204.326 76.6873 204.364 76.586 204.44 76.51C204.529 76.4213 204.637 76.377 204.763 76.377H205.96C206.087 76.377 206.188 76.4213 206.264 76.51C206.353 76.586 206.397 76.6873 206.397 76.814V77.84C206.397 77.9667 206.353 78.0743 206.264 78.163C206.188 78.239 206.087 78.277 205.96 78.277H204.763ZM212.69 90.19C211.993 90.19 211.391 90.0697 210.885 89.829C210.378 89.5757 209.96 89.24 209.631 88.822C209.314 88.3913 209.073 87.9037 208.909 87.359C208.757 86.8143 208.668 86.238 208.643 85.63C208.63 85.4273 208.624 85.2373 208.624 85.06C208.624 84.8827 208.63 84.6927 208.643 84.49C208.668 83.8947 208.757 83.3247 208.909 82.78C209.073 82.2353 209.314 81.7477 209.631 81.317C209.96 80.8863 210.378 80.5507 210.885 80.31C211.391 80.0567 211.993 79.93 212.69 79.93C213.437 79.93 214.058 80.063 214.552 80.329C215.046 80.595 215.451 80.9243 215.768 81.317V76.947C215.768 76.8203 215.806 76.719 215.882 76.643C215.97 76.5543 216.078 76.51 216.205 76.51H217.117C217.243 76.51 217.345 76.5543 217.421 76.643C217.509 76.719 217.554 76.8203 217.554 76.947V89.563C217.554 89.6897 217.509 89.7973 217.421 89.886C217.345 89.962 217.243 90 217.117 90H216.262C216.122 90 216.015 89.962 215.939 89.886C215.863 89.7973 215.825 89.6897 215.825 89.563V88.765C215.508 89.1703 215.096 89.5123 214.59 89.791C214.083 90.057 213.45 90.19 212.69 90.19ZM213.089 88.651C213.722 88.651 214.229 88.5053 214.609 88.214C214.989 87.9227 215.274 87.5553 215.464 87.112C215.654 86.656 215.755 86.1937 215.768 85.725C215.78 85.5223 215.787 85.2817 215.787 85.003C215.787 84.7117 215.78 84.4647 215.768 84.262C215.755 83.8187 215.647 83.3817 215.445 82.951C215.255 82.5203 214.963 82.1657 214.571 81.887C214.191 81.6083 213.697 81.469 213.089 81.469C212.443 81.469 211.93 81.6147 211.55 81.906C211.17 82.1847 210.897 82.5583 210.733 83.027C210.568 83.483 210.473 83.977 210.448 84.509C210.435 84.8763 210.435 85.2437 210.448 85.611C210.473 86.143 210.568 86.6433 210.733 87.112C210.897 87.568 211.17 87.9417 211.55 88.233C211.93 88.5117 212.443 88.651 213.089 88.651ZM225.417 82.666C225.29 82.666 225.189 82.628 225.113 82.552C225.037 82.476 224.999 82.3747 224.999 82.248V81.602C224.999 81.4753 225.037 81.374 225.113 81.298C225.189 81.222 225.29 81.184 225.417 81.184H232.656C232.783 81.184 232.884 81.222 232.96 81.298C233.049 81.374 233.093 81.4753 233.093 81.602V82.248C233.093 82.3747 233.049 82.476 232.96 82.552C232.884 82.628 232.783 82.666 232.656 82.666H225.417ZM225.417 87.416C225.29 87.416 225.189 87.378 225.113 87.302C225.037 87.226 224.999 87.1247 224.999 86.998V86.352C224.999 86.2253 225.037 86.124 225.113 86.048C225.189 85.972 225.29 85.934 225.417 85.934H232.656C232.783 85.934 232.884 85.972 232.96 86.048C233.049 86.124 233.093 86.2253 233.093 86.352V86.998C233.093 87.1247 233.049 87.226 232.96 87.302C232.884 87.378 232.783 87.416 232.656 87.416H225.417ZM243.437 80.177C243.348 80.177 243.272 80.1453 243.209 80.082C243.158 80.0187 243.133 79.9427 243.133 79.854C243.133 79.7527 243.152 79.6513 243.19 79.55L244.197 76.947C244.26 76.8203 244.324 76.719 244.387 76.643C244.463 76.5543 244.583 76.51 244.748 76.51H245.375C245.476 76.51 245.552 76.548 245.603 76.624C245.666 76.7 245.685 76.8013 245.66 76.928L245.242 79.626C245.229 79.778 245.179 79.911 245.09 80.025C245.001 80.1263 244.868 80.177 244.691 80.177H243.437ZM240.397 80.177C240.308 80.177 240.232 80.1453 240.169 80.082C240.118 80.0187 240.093 79.9427 240.093 79.854C240.093 79.7527 240.112 79.6513 240.15 79.55L241.157 76.947C241.22 76.8203 241.29 76.719 241.366 76.643C241.442 76.5543 241.556 76.51 241.708 76.51H242.335C242.436 76.51 242.512 76.548 242.563 76.624C242.626 76.7 242.645 76.8013 242.62 76.928L242.202 79.626C242.189 79.778 242.139 79.911 242.05 80.025C241.961 80.1263 241.835 80.177 241.67 80.177H240.397ZM316.728 80.177C316.639 80.177 316.563 80.1453 316.5 80.082C316.449 80.0187 316.424 79.9427 316.424 79.854C316.424 79.7527 316.443 79.6513 316.481 79.55L317.488 76.947C317.551 76.8203 317.615 76.719 317.678 76.643C317.754 76.5543 317.874 76.51 318.039 76.51H318.666C318.767 76.51 318.843 76.548 318.894 76.624C318.957 76.7 318.976 76.8013 318.951 76.928L318.533 79.626C318.52 79.778 318.47 79.911 318.381 80.025C318.292 80.1263 318.159 80.177 317.982 80.177H316.728ZM313.688 80.177C313.599 80.177 313.523 80.1453 313.46 80.082C313.409 80.0187 313.384 79.9427 313.384 79.854C313.384 79.7527 313.403 79.6513 313.441 79.55L314.448 76.947C314.511 76.8203 314.581 76.719 314.657 76.643C314.733 76.5543 314.847 76.51 314.999 76.51H315.626C315.727 76.51 315.803 76.548 315.854 76.624C315.917 76.7 315.936 76.8013 315.911 76.928L315.493 79.626C315.48 79.778 315.43 79.911 315.341 80.025C315.252 80.1263 315.126 80.177 314.961 80.177H313.688ZM326.411 90C326.285 90 326.177 89.962 326.088 89.886C326.012 89.7973 325.974 89.6897 325.974 89.563V80.557C325.974 80.4303 326.012 80.329 326.088 80.253C326.177 80.1643 326.285 80.12 326.411 80.12H327.304C327.431 80.12 327.532 80.1643 327.608 80.253C327.697 80.329 327.741 80.4303 327.741 80.557V81.393C328.071 80.9623 328.482 80.614 328.976 80.348C329.483 80.0693 330.129 79.93 330.914 79.93C331.738 79.93 332.434 80.1137 333.004 80.481C333.587 80.8357 334.024 81.336 334.315 81.982C334.607 82.6153 334.752 83.3563 334.752 84.205V89.563C334.752 89.6897 334.714 89.7973 334.638 89.886C334.562 89.962 334.461 90 334.334 90H333.384C333.258 90 333.15 89.962 333.061 89.886C332.985 89.7973 332.947 89.6897 332.947 89.563V84.3C332.947 83.4133 332.732 82.723 332.301 82.229C331.871 81.7223 331.237 81.469 330.401 81.469C329.616 81.469 328.983 81.7223 328.501 82.229C328.033 82.723 327.798 83.4133 327.798 84.3V89.563C327.798 89.6897 327.754 89.7973 327.665 89.886C327.589 89.962 327.488 90 327.361 90H326.411ZM340.252 90.19C339.618 90.19 339.042 90.0633 338.523 89.81C338.003 89.5567 337.585 89.2147 337.269 88.784C336.952 88.3533 336.794 87.8657 336.794 87.321C336.794 86.447 337.148 85.7503 337.858 85.231C338.567 84.7117 339.492 84.3697 340.632 84.205L343.463 83.806V83.255C343.463 82.647 343.285 82.172 342.931 81.83C342.589 81.488 342.025 81.317 341.24 81.317C340.67 81.317 340.207 81.431 339.853 81.659C339.511 81.887 339.27 82.1783 339.131 82.533C339.055 82.723 338.922 82.818 338.732 82.818H337.877C337.737 82.818 337.63 82.78 337.554 82.704C337.49 82.6153 337.459 82.514 337.459 82.4C337.459 82.21 337.528 81.9757 337.668 81.697C337.82 81.4183 338.048 81.146 338.352 80.88C338.656 80.614 339.042 80.3923 339.511 80.215C339.992 80.025 340.575 79.93 341.259 79.93C342.019 79.93 342.658 80.0313 343.178 80.234C343.697 80.424 344.102 80.6837 344.394 81.013C344.698 81.3423 344.913 81.716 345.04 82.134C345.179 82.552 345.249 82.9763 345.249 83.407V89.563C345.249 89.6897 345.204 89.7973 345.116 89.886C345.04 89.962 344.938 90 344.812 90H343.938C343.798 90 343.691 89.962 343.615 89.886C343.539 89.7973 343.501 89.6897 343.501 89.563V88.746C343.336 88.974 343.114 89.202 342.836 89.43C342.557 89.6453 342.209 89.829 341.791 89.981C341.373 90.1203 340.86 90.19 340.252 90.19ZM340.651 88.765C341.17 88.765 341.645 88.6573 342.076 88.442C342.506 88.214 342.842 87.8657 343.083 87.397C343.336 86.9283 343.463 86.3393 343.463 85.63V85.098L341.259 85.421C340.359 85.5477 339.682 85.763 339.226 86.067C338.77 86.3583 338.542 86.732 338.542 87.188C338.542 87.5427 338.643 87.8403 338.846 88.081C339.061 88.309 339.327 88.48 339.644 88.594C339.973 88.708 340.309 88.765 340.651 88.765ZM348.417 90C348.291 90 348.183 89.962 348.094 89.886C348.018 89.7973 347.98 89.6897 347.98 89.563V80.557C347.98 80.4303 348.018 80.329 348.094 80.253C348.183 80.1643 348.291 80.12 348.417 80.12H349.272C349.399 80.12 349.5 80.1643 349.576 80.253C349.665 80.329 349.709 80.4303 349.709 80.557V81.222C350.001 80.8293 350.368 80.519 350.811 80.291C351.255 80.0503 351.787 79.93 352.407 79.93C353.839 79.9173 354.852 80.5 355.447 81.678C355.739 81.146 356.163 80.7217 356.72 80.405C357.278 80.0883 357.911 79.93 358.62 79.93C359.279 79.93 359.874 80.082 360.406 80.386C360.951 80.69 361.375 81.1523 361.679 81.773C361.996 82.381 362.154 83.1473 362.154 84.072V89.563C362.154 89.6897 362.11 89.7973 362.021 89.886C361.945 89.962 361.844 90 361.717 90H360.824C360.698 90 360.59 89.962 360.501 89.886C360.425 89.7973 360.387 89.6897 360.387 89.563V84.243C360.387 83.5337 360.286 82.9763 360.083 82.571C359.881 82.1657 359.608 81.8807 359.266 81.716C358.924 81.5513 358.551 81.469 358.145 81.469C357.816 81.469 357.48 81.5513 357.138 81.716C356.796 81.8807 356.511 82.1657 356.283 82.571C356.068 82.9763 355.96 83.5337 355.96 84.243V89.563C355.96 89.6897 355.916 89.7973 355.827 89.886C355.751 89.962 355.65 90 355.523 90H354.63C354.504 90 354.396 89.962 354.307 89.886C354.231 89.7973 354.193 89.6897 354.193 89.563V84.243C354.193 83.5337 354.086 82.9763 353.87 82.571C353.655 82.1657 353.376 81.8807 353.034 81.716C352.692 81.5513 352.331 81.469 351.951 81.469C351.622 81.469 351.286 81.5513 350.944 81.716C350.602 81.8807 350.317 82.1657 350.089 82.571C349.874 82.9763 349.766 83.5273 349.766 84.224V89.563C349.766 89.6897 349.722 89.7973 349.633 89.886C349.557 89.962 349.456 90 349.329 90H348.417ZM368.798 90.19C367.493 90.19 366.455 89.791 365.682 88.993C364.909 88.1823 364.485 87.0803 364.409 85.687C364.396 85.5223 364.39 85.3133 364.39 85.06C364.39 84.794 364.396 84.5787 364.409 84.414C364.46 83.5147 364.669 82.7293 365.036 82.058C365.403 81.374 365.904 80.8483 366.537 80.481C367.183 80.1137 367.937 79.93 368.798 79.93C369.761 79.93 370.565 80.1327 371.211 80.538C371.87 80.9433 372.37 81.5197 372.712 82.267C373.054 83.0143 373.225 83.8883 373.225 84.889V85.212C373.225 85.3513 373.181 85.459 373.092 85.535C373.016 85.611 372.915 85.649 372.788 85.649H366.214C366.214 85.6617 366.214 85.687 366.214 85.725C366.214 85.763 366.214 85.7947 366.214 85.82C366.239 86.3393 366.353 86.827 366.556 87.283C366.759 87.7263 367.05 88.0873 367.43 88.366C367.81 88.6447 368.266 88.784 368.798 88.784C369.254 88.784 369.634 88.7143 369.938 88.575C370.242 88.4357 370.489 88.2837 370.679 88.119C370.869 87.9417 370.996 87.8087 371.059 87.72C371.173 87.5553 371.262 87.4603 371.325 87.435C371.388 87.397 371.49 87.378 371.629 87.378H372.541C372.668 87.378 372.769 87.416 372.845 87.492C372.934 87.5553 372.972 87.6503 372.959 87.777C372.946 87.967 372.845 88.2013 372.655 88.48C372.465 88.746 372.193 89.012 371.838 89.278C371.483 89.544 371.053 89.7657 370.546 89.943C370.039 90.1077 369.457 90.19 368.798 90.19ZM366.214 84.338H371.42V84.281C371.42 83.711 371.312 83.2043 371.097 82.761C370.894 82.3177 370.597 81.9693 370.204 81.716C369.811 81.45 369.343 81.317 368.798 81.317C368.253 81.317 367.785 81.45 367.392 81.716C367.012 81.9693 366.721 82.3177 366.518 82.761C366.315 83.2043 366.214 83.711 366.214 84.281V84.338ZM380.534 82.666C380.407 82.666 380.306 82.628 380.23 82.552C380.154 82.476 380.116 82.3747 380.116 82.248V81.602C380.116 81.4753 380.154 81.374 380.23 81.298C380.306 81.222 380.407 81.184 380.534 81.184H387.773C387.9 81.184 388.001 81.222 388.077 81.298C388.166 81.374 388.21 81.4753 388.21 81.602V82.248C388.21 82.3747 388.166 82.476 388.077 82.552C388.001 82.628 387.9 82.666 387.773 82.666H380.534ZM380.534 87.416C380.407 87.416 380.306 87.378 380.23 87.302C380.154 87.226 380.116 87.1247 380.116 86.998V86.352C380.116 86.2253 380.154 86.124 380.23 86.048C380.306 85.972 380.407 85.934 380.534 85.934H387.773C387.9 85.934 388.001 85.972 388.077 86.048C388.166 86.124 388.21 86.2253 388.21 86.352V86.998C388.21 87.1247 388.166 87.226 388.077 87.302C388.001 87.378 387.9 87.416 387.773 87.416H380.534ZM398.554 80.177C398.466 80.177 398.39 80.1453 398.326 80.082C398.276 80.0187 398.25 79.9427 398.25 79.854C398.25 79.7527 398.269 79.6513 398.307 79.55L399.314 76.947C399.378 76.8203 399.441 76.719 399.504 76.643C399.58 76.5543 399.701 76.51 399.865 76.51H400.492C400.594 76.51 400.67 76.548 400.72 76.624C400.784 76.7 400.803 76.8013 400.777 76.928L400.359 79.626C400.347 79.778 400.296 79.911 400.207 80.025C400.119 80.1263 399.986 80.177 399.808 80.177H398.554ZM395.514 80.177C395.426 80.177 395.35 80.1453 395.286 80.082C395.236 80.0187 395.21 79.9427 395.21 79.854C395.21 79.7527 395.229 79.6513 395.267 79.55L396.274 76.947C396.338 76.8203 396.407 76.719 396.483 76.643C396.559 76.5543 396.673 76.51 396.825 76.51H397.452C397.554 76.51 397.63 76.548 397.68 76.624C397.744 76.7 397.763 76.8013 397.737 76.928L397.319 79.626C397.307 79.778 397.256 79.911 397.167 80.025C397.079 80.1263 396.952 80.177 396.787 80.177H395.514ZM471.845 80.177C471.757 80.177 471.681 80.1453 471.617 80.082C471.567 80.0187 471.541 79.9427 471.541 79.854C471.541 79.7527 471.56 79.6513 471.598 79.55L472.605 76.947C472.669 76.8203 472.732 76.719 472.795 76.643C472.871 76.5543 472.992 76.51 473.156 76.51H473.783C473.885 76.51 473.961 76.548 474.011 76.624C474.075 76.7 474.094 76.8013 474.068 76.928L473.65 79.626C473.638 79.778 473.587 79.911 473.498 80.025C473.41 80.1263 473.277 80.177 473.099 80.177H471.845ZM468.805 80.177C468.717 80.177 468.641 80.1453 468.577 80.082C468.527 80.0187 468.501 79.9427 468.501 79.854C468.501 79.7527 468.52 79.6513 468.558 79.55L469.565 76.947C469.629 76.8203 469.698 76.719 469.774 76.643C469.85 76.5543 469.964 76.51 470.116 76.51H470.743C470.845 76.51 470.921 76.548 470.971 76.624C471.035 76.7 471.054 76.8013 471.028 76.928L470.61 79.626C470.598 79.778 470.547 79.911 470.458 80.025C470.37 80.1263 470.243 80.177 470.078 80.177H468.805Z" fill="white" fill-opacity="0.75"/>
<path d="M156.141 90C155.432 90 154.855 89.867 154.412 89.601C153.969 89.3223 153.646 88.936 153.443 88.442C153.24 87.9353 153.139 87.34 153.139 86.656V81.64H151.657C151.53 81.64 151.423 81.602 151.334 81.526C151.258 81.4373 151.22 81.3297 151.22 81.203V80.557C151.22 80.4303 151.258 80.329 151.334 80.253C151.423 80.1643 151.53 80.12 151.657 80.12H153.139V76.947C153.139 76.8203 153.177 76.719 153.253 76.643C153.342 76.5543 153.449 76.51 153.576 76.51H154.469C154.596 76.51 154.697 76.5543 154.773 76.643C154.862 76.719 154.906 76.8203 154.906 76.947V80.12H157.262C157.389 80.12 157.49 80.1643 157.566 80.253C157.655 80.329 157.699 80.4303 157.699 80.557V81.203C157.699 81.3297 157.655 81.4373 157.566 81.526C157.49 81.602 157.389 81.64 157.262 81.64H154.906V86.523C154.906 87.1183 155.007 87.587 155.21 87.929C155.413 88.271 155.774 88.442 156.293 88.442H157.452C157.579 88.442 157.68 88.4863 157.756 88.575C157.845 88.651 157.889 88.7523 157.889 88.879V89.563C157.889 89.6897 157.845 89.7973 157.756 89.886C157.68 89.962 157.579 90 157.452 90H156.141ZM163.639 90.19C162.334 90.19 161.295 89.791 160.523 88.993C159.75 88.1823 159.326 87.0803 159.25 85.687C159.237 85.5223 159.231 85.3133 159.231 85.06C159.231 84.794 159.237 84.5787 159.25 84.414C159.3 83.5147 159.509 82.7293 159.877 82.058C160.244 81.374 160.744 80.8483 161.378 80.481C162.024 80.1137 162.777 79.93 163.639 79.93C164.601 79.93 165.406 80.1327 166.052 80.538C166.71 80.9433 167.211 81.5197 167.553 82.267C167.895 83.0143 168.066 83.8883 168.066 84.889V85.212C168.066 85.3513 168.021 85.459 167.933 85.535C167.857 85.611 167.755 85.649 167.629 85.649H161.055C161.055 85.6617 161.055 85.687 161.055 85.725C161.055 85.763 161.055 85.7947 161.055 85.82C161.08 86.3393 161.194 86.827 161.397 87.283C161.599 87.7263 161.891 88.0873 162.271 88.366C162.651 88.6447 163.107 88.784 163.639 88.784C164.095 88.784 164.475 88.7143 164.779 88.575C165.083 88.4357 165.33 88.2837 165.52 88.119C165.71 87.9417 165.836 87.8087 165.9 87.72C166.014 87.5553 166.102 87.4603 166.166 87.435C166.229 87.397 166.33 87.378 166.47 87.378H167.382C167.508 87.378 167.61 87.416 167.686 87.492C167.774 87.5553 167.812 87.6503 167.8 87.777C167.787 87.967 167.686 88.2013 167.496 88.48C167.306 88.746 167.033 89.012 166.679 89.278C166.324 89.544 165.893 89.7657 165.387 89.943C164.88 90.1077 164.297 90.19 163.639 90.19ZM161.055 84.338H166.261V84.281C166.261 83.711 166.153 83.2043 165.938 82.761C165.735 82.3177 165.437 81.9693 165.045 81.716C164.652 81.45 164.183 81.317 163.639 81.317C163.094 81.317 162.625 81.45 162.233 81.716C161.853 81.9693 161.561 82.3177 161.359 82.761C161.156 83.2043 161.055 83.711 161.055 84.281V84.338ZM169.678 90C169.576 90 169.481 89.962 169.393 89.886C169.317 89.81 169.279 89.715 169.279 89.601C169.279 89.563 169.285 89.5187 169.298 89.468C169.323 89.4047 169.361 89.335 169.412 89.259L172.718 84.946L169.621 80.861C169.57 80.785 169.532 80.7217 169.507 80.671C169.494 80.6203 169.488 80.5697 169.488 80.519C169.488 80.405 169.526 80.31 169.602 80.234C169.678 80.158 169.773 80.12 169.887 80.12H170.856C170.995 80.12 171.096 80.158 171.16 80.234C171.236 80.2973 171.299 80.3607 171.35 80.424L173.877 83.711L176.404 80.443C176.454 80.3797 176.511 80.31 176.575 80.234C176.651 80.158 176.758 80.12 176.898 80.12H177.829C177.943 80.12 178.038 80.158 178.114 80.234C178.19 80.31 178.228 80.405 178.228 80.519C178.228 80.5697 178.215 80.6203 178.19 80.671C178.177 80.7217 178.145 80.785 178.095 80.861L174.96 84.984L178.266 89.259C178.316 89.335 178.348 89.3983 178.361 89.449C178.386 89.4997 178.399 89.5503 178.399 89.601C178.399 89.715 178.361 89.81 178.285 89.886C178.209 89.962 178.114 90 178 90H176.993C176.866 90 176.765 89.9683 176.689 89.905C176.613 89.8417 176.549 89.7783 176.499 89.715L173.82 86.238L171.141 89.715C171.09 89.7657 171.027 89.829 170.951 89.905C170.887 89.9683 170.786 90 170.647 90H169.678ZM184.233 90C183.523 90 182.947 89.867 182.504 89.601C182.06 89.3223 181.737 88.936 181.535 88.442C181.332 87.9353 181.231 87.34 181.231 86.656V81.64H179.749C179.622 81.64 179.514 81.602 179.426 81.526C179.35 81.4373 179.312 81.3297 179.312 81.203V80.557C179.312 80.4303 179.35 80.329 179.426 80.253C179.514 80.1643 179.622 80.12 179.749 80.12H181.231V76.947C181.231 76.8203 181.269 76.719 181.345 76.643C181.433 76.5543 181.541 76.51 181.668 76.51H182.561C182.687 76.51 182.789 76.5543 182.865 76.643C182.953 76.719 182.998 76.8203 182.998 76.947V80.12H185.354C185.48 80.12 185.582 80.1643 185.658 80.253C185.746 80.329 185.791 80.4303 185.791 80.557V81.203C185.791 81.3297 185.746 81.4373 185.658 81.526C185.582 81.602 185.48 81.64 185.354 81.64H182.998V86.523C182.998 87.1183 183.099 87.587 183.302 87.929C183.504 88.271 183.865 88.442 184.385 88.442H185.544C185.67 88.442 185.772 88.4863 185.848 88.575C185.936 88.651 185.981 88.7523 185.981 88.879V89.563C185.981 89.6897 185.936 89.7973 185.848 89.886C185.772 89.962 185.67 90 185.544 90H184.233ZM253.756 90C253.629 90 253.521 89.962 253.433 89.886C253.357 89.7973 253.319 89.6897 253.319 89.563V81.64H251.704C251.577 81.64 251.469 81.602 251.381 81.526C251.305 81.4373 251.267 81.3297 251.267 81.203V80.557C251.267 80.4303 251.305 80.329 251.381 80.253C251.469 80.1643 251.577 80.12 251.704 80.12H253.319V79.17C253.319 78.524 253.426 77.9603 253.642 77.479C253.857 76.985 254.199 76.605 254.668 76.339C255.149 76.073 255.789 75.94 256.587 75.94H257.727C257.853 75.94 257.955 75.9843 258.031 76.073C258.107 76.149 258.145 76.2503 258.145 76.377V77.023C258.145 77.1497 258.107 77.2573 258.031 77.346C257.955 77.422 257.853 77.46 257.727 77.46H256.625C256.029 77.46 255.624 77.6183 255.409 77.935C255.193 78.239 255.086 78.6823 255.086 79.265V80.12H257.537C257.663 80.12 257.765 80.1643 257.841 80.253C257.917 80.329 257.955 80.4303 257.955 80.557V81.203C257.955 81.3297 257.917 81.4373 257.841 81.526C257.765 81.602 257.663 81.64 257.537 81.64H255.086V89.563C255.086 89.6897 255.041 89.7973 254.953 89.886C254.877 89.962 254.775 90 254.649 90H253.756ZM260.078 90C259.952 90 259.844 89.962 259.755 89.886C259.679 89.7973 259.641 89.6897 259.641 89.563V80.557C259.641 80.4303 259.679 80.329 259.755 80.253C259.844 80.1643 259.952 80.12 260.078 80.12H260.971C261.098 80.12 261.199 80.1643 261.275 80.253C261.364 80.329 261.408 80.4303 261.408 80.557V81.393C261.738 80.9623 262.149 80.614 262.643 80.348C263.15 80.0693 263.796 79.93 264.581 79.93C265.405 79.93 266.101 80.1137 266.671 80.481C267.254 80.8357 267.691 81.336 267.982 81.982C268.274 82.6153 268.419 83.3563 268.419 84.205V89.563C268.419 89.6897 268.381 89.7973 268.305 89.886C268.229 89.962 268.128 90 268.001 90H267.051C266.925 90 266.817 89.962 266.728 89.886C266.652 89.7973 266.614 89.6897 266.614 89.563V84.3C266.614 83.4133 266.399 82.723 265.968 82.229C265.538 81.7223 264.904 81.469 264.068 81.469C263.283 81.469 262.65 81.7223 262.168 82.229C261.7 82.723 261.465 83.4133 261.465 84.3V89.563C261.465 89.6897 261.421 89.7973 261.332 89.886C261.256 89.962 261.155 90 261.028 90H260.078ZM273.919 90.19C273.285 90.19 272.709 90.0633 272.19 89.81C271.67 89.5567 271.252 89.2147 270.936 88.784C270.619 88.3533 270.461 87.8657 270.461 87.321C270.461 86.447 270.815 85.7503 271.525 85.231C272.234 84.7117 273.159 84.3697 274.299 84.205L277.13 83.806V83.255C277.13 82.647 276.952 82.172 276.598 81.83C276.256 81.488 275.692 81.317 274.907 81.317C274.337 81.317 273.874 81.431 273.52 81.659C273.178 81.887 272.937 82.1783 272.798 82.533C272.722 82.723 272.589 82.818 272.399 82.818H271.544C271.404 82.818 271.297 82.78 271.221 82.704C271.157 82.6153 271.126 82.514 271.126 82.4C271.126 82.21 271.195 81.9757 271.335 81.697C271.487 81.4183 271.715 81.146 272.019 80.88C272.323 80.614 272.709 80.3923 273.178 80.215C273.659 80.025 274.242 79.93 274.926 79.93C275.686 79.93 276.325 80.0313 276.845 80.234C277.364 80.424 277.769 80.6837 278.061 81.013C278.365 81.3423 278.58 81.716 278.707 82.134C278.846 82.552 278.916 82.9763 278.916 83.407V89.563C278.916 89.6897 278.871 89.7973 278.783 89.886C278.707 89.962 278.605 90 278.479 90H277.605C277.465 90 277.358 89.962 277.282 89.886C277.206 89.7973 277.168 89.6897 277.168 89.563V88.746C277.003 88.974 276.781 89.202 276.503 89.43C276.224 89.6453 275.876 89.829 275.458 89.981C275.04 90.1203 274.527 90.19 273.919 90.19ZM274.318 88.765C274.837 88.765 275.312 88.6573 275.743 88.442C276.173 88.214 276.509 87.8657 276.75 87.397C277.003 86.9283 277.13 86.3393 277.13 85.63V85.098L274.926 85.421C274.026 85.5477 273.349 85.763 272.893 86.067C272.437 86.3583 272.209 86.732 272.209 87.188C272.209 87.5427 272.31 87.8403 272.513 88.081C272.728 88.309 272.994 88.48 273.311 88.594C273.64 88.708 273.976 88.765 274.318 88.765ZM282.084 90C281.958 90 281.85 89.962 281.761 89.886C281.685 89.7973 281.647 89.6897 281.647 89.563V80.557C281.647 80.4303 281.685 80.329 281.761 80.253C281.85 80.1643 281.958 80.12 282.084 80.12H282.939C283.066 80.12 283.167 80.1643 283.243 80.253C283.332 80.329 283.376 80.4303 283.376 80.557V81.222C283.668 80.8293 284.035 80.519 284.478 80.291C284.922 80.0503 285.454 79.93 286.074 79.93C287.506 79.9173 288.519 80.5 289.114 81.678C289.406 81.146 289.83 80.7217 290.387 80.405C290.945 80.0883 291.578 79.93 292.287 79.93C292.946 79.93 293.541 80.082 294.073 80.386C294.618 80.69 295.042 81.1523 295.346 81.773C295.663 82.381 295.821 83.1473 295.821 84.072V89.563C295.821 89.6897 295.777 89.7973 295.688 89.886C295.612 89.962 295.511 90 295.384 90H294.491C294.365 90 294.257 89.962 294.168 89.886C294.092 89.7973 294.054 89.6897 294.054 89.563V84.243C294.054 83.5337 293.953 82.9763 293.75 82.571C293.548 82.1657 293.275 81.8807 292.933 81.716C292.591 81.5513 292.218 81.469 291.812 81.469C291.483 81.469 291.147 81.5513 290.805 81.716C290.463 81.8807 290.178 82.1657 289.95 82.571C289.735 82.9763 289.627 83.5337 289.627 84.243V89.563C289.627 89.6897 289.583 89.7973 289.494 89.886C289.418 89.962 289.317 90 289.19 90H288.297C288.171 90 288.063 89.962 287.974 89.886C287.898 89.7973 287.86 89.6897 287.86 89.563V84.243C287.86 83.5337 287.753 82.9763 287.537 82.571C287.322 82.1657 287.043 81.8807 286.701 81.716C286.359 81.5513 285.998 81.469 285.618 81.469C285.289 81.469 284.953 81.5513 284.611 81.716C284.269 81.8807 283.984 82.1657 283.756 82.571C283.541 82.9763 283.433 83.5273 283.433 84.224V89.563C283.433 89.6897 283.389 89.7973 283.3 89.886C283.224 89.962 283.123 90 282.996 90H282.084ZM302.465 90.19C301.16 90.19 300.122 89.791 299.349 88.993C298.576 88.1823 298.152 87.0803 298.076 85.687C298.063 85.5223 298.057 85.3133 298.057 85.06C298.057 84.794 298.063 84.5787 298.076 84.414C298.127 83.5147 298.336 82.7293 298.703 82.058C299.07 81.374 299.571 80.8483 300.204 80.481C300.85 80.1137 301.604 79.93 302.465 79.93C303.428 79.93 304.232 80.1327 304.878 80.538C305.537 80.9433 306.037 81.5197 306.379 82.267C306.721 83.0143 306.892 83.8883 306.892 84.889V85.212C306.892 85.3513 306.848 85.459 306.759 85.535C306.683 85.611 306.582 85.649 306.455 85.649H299.881C299.881 85.6617 299.881 85.687 299.881 85.725C299.881 85.763 299.881 85.7947 299.881 85.82C299.906 86.3393 300.02 86.827 300.223 87.283C300.426 87.7263 300.717 88.0873 301.097 88.366C301.477 88.6447 301.933 88.784 302.465 88.784C302.921 88.784 303.301 88.7143 303.605 88.575C303.909 88.4357 304.156 88.2837 304.346 88.119C304.536 87.9417 304.663 87.8087 304.726 87.72C304.84 87.5553 304.929 87.4603 304.992 87.435C305.055 87.397 305.157 87.378 305.296 87.378H306.208C306.335 87.378 306.436 87.416 306.512 87.492C306.601 87.5553 306.639 87.6503 306.626 87.777C306.613 87.967 306.512 88.2013 306.322 88.48C306.132 88.746 305.86 89.012 305.505 89.278C305.15 89.544 304.72 89.7657 304.213 89.943C303.706 90.1077 303.124 90.19 302.465 90.19ZM299.881 84.338H305.087V84.281C305.087 83.711 304.979 83.2043 304.764 82.761C304.561 82.3177 304.264 81.9693 303.871 81.716C303.478 81.45 303.01 81.317 302.465 81.317C301.92 81.317 301.452 81.45 301.059 81.716C300.679 81.9693 300.388 82.3177 300.185 82.761C299.982 83.2043 299.881 83.711 299.881 84.281V84.338ZM408.873 90C408.746 90 408.639 89.962 408.55 89.886C408.474 89.7973 408.436 89.6897 408.436 89.563V81.64H406.821C406.694 81.64 406.587 81.602 406.498 81.526C406.422 81.4373 406.384 81.3297 406.384 81.203V80.557C406.384 80.4303 406.422 80.329 406.498 80.253C406.587 80.1643 406.694 80.12 406.821 80.12H408.436V79.17C408.436 78.524 408.544 77.9603 408.759 77.479C408.974 76.985 409.316 76.605 409.785 76.339C410.266 76.073 410.906 75.94 411.704 75.94H412.844C412.971 75.94 413.072 75.9843 413.148 76.073C413.224 76.149 413.262 76.2503 413.262 76.377V77.023C413.262 77.1497 413.224 77.2573 413.148 77.346C413.072 77.422 412.971 77.46 412.844 77.46H411.742C411.147 77.46 410.741 77.6183 410.526 77.935C410.311 78.239 410.203 78.6823 410.203 79.265V80.12H412.654C412.781 80.12 412.882 80.1643 412.958 80.253C413.034 80.329 413.072 80.4303 413.072 80.557V81.203C413.072 81.3297 413.034 81.4373 412.958 81.526C412.882 81.602 412.781 81.64 412.654 81.64H410.203V89.563C410.203 89.6897 410.159 89.7973 410.07 89.886C409.994 89.962 409.893 90 409.766 90H408.873ZM415.196 90C415.069 90 414.961 89.962 414.873 89.886C414.797 89.7973 414.759 89.6897 414.759 89.563V80.557C414.759 80.4303 414.797 80.329 414.873 80.253C414.961 80.1643 415.069 80.12 415.196 80.12H416.089C416.215 80.12 416.317 80.1643 416.393 80.253C416.481 80.329 416.526 80.4303 416.526 80.557V81.393C416.855 80.9623 417.267 80.614 417.761 80.348C418.267 80.0693 418.913 79.93 419.699 79.93C420.522 79.93 421.219 80.1137 421.789 80.481C422.371 80.8357 422.808 81.336 423.1 81.982C423.391 82.6153 423.537 83.3563 423.537 84.205V89.563C423.537 89.6897 423.499 89.7973 423.423 89.886C423.347 89.962 423.245 90 423.119 90H422.169C422.042 90 421.934 89.962 421.846 89.886C421.77 89.7973 421.732 89.6897 421.732 89.563V84.3C421.732 83.4133 421.516 82.723 421.086 82.229C420.655 81.7223 420.022 81.469 419.186 81.469C418.4 81.469 417.767 81.7223 417.286 82.229C416.817 82.723 416.583 83.4133 416.583 84.3V89.563C416.583 89.6897 416.538 89.7973 416.45 89.886C416.374 89.962 416.272 90 416.146 90H415.196ZM429.036 90.19C428.403 90.19 427.826 90.0633 427.307 89.81C426.788 89.5567 426.37 89.2147 426.053 88.784C425.736 88.3533 425.578 87.8657 425.578 87.321C425.578 86.447 425.933 85.7503 426.642 85.231C427.351 84.7117 428.276 84.3697 429.416 84.205L432.247 83.806V83.255C432.247 82.647 432.07 82.172 431.715 81.83C431.373 81.488 430.809 81.317 430.024 81.317C429.454 81.317 428.992 81.431 428.637 81.659C428.295 81.887 428.054 82.1783 427.915 82.533C427.839 82.723 427.706 82.818 427.516 82.818H426.661C426.522 82.818 426.414 82.78 426.338 82.704C426.275 82.6153 426.243 82.514 426.243 82.4C426.243 82.21 426.313 81.9757 426.452 81.697C426.604 81.4183 426.832 81.146 427.136 80.88C427.44 80.614 427.826 80.3923 428.295 80.215C428.776 80.025 429.359 79.93 430.043 79.93C430.803 79.93 431.443 80.0313 431.962 80.234C432.481 80.424 432.887 80.6837 433.178 81.013C433.482 81.3423 433.697 81.716 433.824 82.134C433.963 82.552 434.033 82.9763 434.033 83.407V89.563C434.033 89.6897 433.989 89.7973 433.9 89.886C433.824 89.962 433.723 90 433.596 90H432.722C432.583 90 432.475 89.962 432.399 89.886C432.323 89.7973 432.285 89.6897 432.285 89.563V88.746C432.12 88.974 431.899 89.202 431.62 89.43C431.341 89.6453 430.993 89.829 430.575 89.981C430.157 90.1203 429.644 90.19 429.036 90.19ZM429.435 88.765C429.954 88.765 430.429 88.6573 430.86 88.442C431.291 88.214 431.626 87.8657 431.867 87.397C432.12 86.9283 432.247 86.3393 432.247 85.63V85.098L430.043 85.421C429.144 85.5477 428.466 85.763 428.01 86.067C427.554 86.3583 427.326 86.732 427.326 87.188C427.326 87.5427 427.427 87.8403 427.63 88.081C427.845 88.309 428.111 88.48 428.428 88.594C428.757 88.708 429.093 88.765 429.435 88.765ZM437.201 90C437.075 90 436.967 89.962 436.878 89.886C436.802 89.7973 436.764 89.6897 436.764 89.563V80.557C436.764 80.4303 436.802 80.329 436.878 80.253C436.967 80.1643 437.075 80.12 437.201 80.12H438.056C438.183 80.12 438.284 80.1643 438.36 80.253C438.449 80.329 438.493 80.4303 438.493 80.557V81.222C438.785 80.8293 439.152 80.519 439.595 80.291C440.039 80.0503 440.571 79.93 441.191 79.93C442.623 79.9173 443.636 80.5 444.231 81.678C444.523 81.146 444.947 80.7217 445.504 80.405C446.062 80.0883 446.695 79.93 447.404 79.93C448.063 79.93 448.658 80.082 449.19 80.386C449.735 80.69 450.159 81.1523 450.463 81.773C450.78 82.381 450.938 83.1473 450.938 84.072V89.563C450.938 89.6897 450.894 89.7973 450.805 89.886C450.729 89.962 450.628 90 450.501 90H449.608C449.482 90 449.374 89.962 449.285 89.886C449.209 89.7973 449.171 89.6897 449.171 89.563V84.243C449.171 83.5337 449.07 82.9763 448.867 82.571C448.665 82.1657 448.392 81.8807 448.05 81.716C447.708 81.5513 447.335 81.469 446.929 81.469C446.6 81.469 446.264 81.5513 445.922 81.716C445.58 81.8807 445.295 82.1657 445.067 82.571C444.852 82.9763 444.744 83.5337 444.744 84.243V89.563C444.744 89.6897 444.7 89.7973 444.611 89.886C444.535 89.962 444.434 90 444.307 90H443.414C443.288 90 443.18 89.962 443.091 89.886C443.015 89.7973 442.977 89.6897 442.977 89.563V84.243C442.977 83.5337 442.87 82.9763 442.654 82.571C442.439 82.1657 442.16 81.8807 441.818 81.716C441.476 81.5513 441.115 81.469 440.735 81.469C440.406 81.469 440.07 81.5513 439.728 81.716C439.386 81.8807 439.101 82.1657 438.873 82.571C438.658 82.9763 438.55 83.5273 438.55 84.224V89.563C438.55 89.6897 438.506 89.7973 438.417 89.886C438.341 89.962 438.24 90 438.113 90H437.201ZM457.582 90.19C456.277 90.19 455.239 89.791 454.466 88.993C453.693 88.1823 453.269 87.0803 453.193 85.687C453.18 85.5223 453.174 85.3133 453.174 85.06C453.174 84.794 453.18 84.5787 453.193 84.414C453.244 83.5147 453.453 82.7293 453.82 82.058C454.187 81.374 454.688 80.8483 455.321 80.481C455.967 80.1137 456.721 79.93 457.582 79.93C458.545 79.93 459.349 80.1327 459.995 80.538C460.654 80.9433 461.154 81.5197 461.496 82.267C461.838 83.0143 462.009 83.8883 462.009 84.889V85.212C462.009 85.3513 461.965 85.459 461.876 85.535C461.8 85.611 461.699 85.649 461.572 85.649H454.998C454.998 85.6617 454.998 85.687 454.998 85.725C454.998 85.763 454.998 85.7947 454.998 85.82C455.023 86.3393 455.137 86.827 455.34 87.283C455.543 87.7263 455.834 88.0873 456.214 88.366C456.594 88.6447 457.05 88.784 457.582 88.784C458.038 88.784 458.418 88.7143 458.722 88.575C459.026 88.4357 459.273 88.2837 459.463 88.119C459.653 87.9417 459.78 87.8087 459.843 87.72C459.957 87.5553 460.046 87.4603 460.109 87.435C460.172 87.397 460.274 87.378 460.413 87.378H461.325C461.452 87.378 461.553 87.416 461.629 87.492C461.718 87.5553 461.756 87.6503 461.743 87.777C461.73 87.967 461.629 88.2013 461.439 88.48C461.249 88.746 460.977 89.012 460.622 89.278C460.267 89.544 459.837 89.7657 459.33 89.943C458.823 90.1077 458.241 90.19 457.582 90.19ZM454.998 84.338H460.204V84.281C460.204 83.711 460.096 83.2043 459.881 82.761C459.678 82.3177 459.381 81.9693 458.988 81.716C458.595 81.45 458.127 81.317 457.582 81.317C457.037 81.317 456.569 81.45 456.176 81.716C455.796 81.9693 455.505 82.3177 455.302 82.761C455.099 83.2043 454.998 83.711 454.998 84.281V84.338ZM620.602 90C619.893 90 619.316 89.867 618.873 89.601C618.43 89.3223 618.107 88.936 617.904 88.442C617.701 87.9353 617.6 87.34 617.6 86.656V81.64H616.118C615.991 81.64 615.884 81.602 615.795 81.526C615.719 81.4373 615.681 81.3297 615.681 81.203V80.557C615.681 80.4303 615.719 80.329 615.795 80.253C615.884 80.1643 615.991 80.12 616.118 80.12H617.6V76.947C617.6 76.8203 617.638 76.719 617.714 76.643C617.803 76.5543 617.91 76.51 618.037 76.51H618.93C619.057 76.51 619.158 76.5543 619.234 76.643C619.323 76.719 619.367 76.8203 619.367 76.947V80.12H621.723C621.85 80.12 621.951 80.1643 622.027 80.253C622.116 80.329 622.16 80.4303 622.16 80.557V81.203C622.16 81.3297 622.116 81.4373 622.027 81.526C621.951 81.602 621.85 81.64 621.723 81.64H619.367V86.523C619.367 87.1183 619.468 87.587 619.671 87.929C619.874 88.271 620.235 88.442 620.754 88.442H621.913C622.04 88.442 622.141 88.4863 622.217 88.575C622.306 88.651 622.35 88.7523 622.35 88.879V89.563C622.35 89.6897 622.306 89.7973 622.217 89.886C622.141 89.962 622.04 90 621.913 90H620.602ZM625.896 93.61C625.794 93.61 625.706 93.572 625.63 93.496C625.554 93.42 625.516 93.3313 625.516 93.23C625.516 93.1793 625.522 93.1287 625.535 93.078C625.547 93.0273 625.573 92.964 625.611 92.888L627.074 89.411L623.445 80.842C623.381 80.69 623.35 80.5823 623.35 80.519C623.35 80.405 623.388 80.31 623.464 80.234C623.54 80.158 623.635 80.12 623.749 80.12H624.68C624.806 80.12 624.908 80.1517 624.984 80.215C625.06 80.2783 625.11 80.3543 625.136 80.443L628.024 87.359L630.988 80.443C631.026 80.3543 631.076 80.2783 631.14 80.215C631.216 80.1517 631.323 80.12 631.463 80.12H632.356C632.47 80.12 632.565 80.158 632.641 80.234C632.717 80.31 632.755 80.3987 632.755 80.5C632.755 80.5633 632.723 80.6773 632.66 80.842L627.264 93.287C627.226 93.3757 627.169 93.4517 627.093 93.515C627.029 93.5783 626.928 93.61 626.789 93.61H625.896ZM635.088 93.61C634.961 93.61 634.853 93.5657 634.765 93.477C634.689 93.401 634.651 93.2997 634.651 93.173V80.557C634.651 80.4303 634.689 80.329 634.765 80.253C634.853 80.1643 634.961 80.12 635.088 80.12H635.962C636.088 80.12 636.19 80.1643 636.266 80.253C636.354 80.329 636.399 80.4303 636.399 80.557V81.393C636.703 80.975 637.108 80.6267 637.615 80.348C638.121 80.0693 638.755 79.93 639.515 79.93C640.224 79.93 640.826 80.0503 641.32 80.291C641.826 80.5317 642.238 80.861 642.555 81.279C642.884 81.697 643.131 82.172 643.296 82.704C643.46 83.236 643.549 83.806 643.562 84.414C643.574 84.6167 643.581 84.832 643.581 85.06C643.581 85.288 643.574 85.5033 643.562 85.706C643.549 86.3013 643.46 86.8713 643.296 87.416C643.131 87.948 642.884 88.423 642.555 88.841C642.238 89.2463 641.826 89.5757 641.32 89.829C640.826 90.0697 640.224 90.19 639.515 90.19C638.78 90.19 638.159 90.057 637.653 89.791C637.159 89.5123 636.753 89.1703 636.437 88.765V93.173C636.437 93.2997 636.399 93.401 636.323 93.477C636.247 93.5657 636.139 93.61 636 93.61H635.088ZM639.116 88.651C639.774 88.651 640.287 88.5117 640.655 88.233C641.035 87.9417 641.307 87.568 641.472 87.112C641.636 86.6433 641.731 86.143 641.757 85.611C641.769 85.2437 641.769 84.8763 641.757 84.509C641.731 83.977 641.636 83.483 641.472 83.027C641.307 82.5583 641.035 82.1847 640.655 81.906C640.287 81.6147 639.774 81.469 639.116 81.469C638.495 81.469 637.988 81.6147 637.596 81.906C637.216 82.1973 636.931 82.571 636.741 83.027C636.563 83.4703 636.462 83.9263 636.437 84.395C636.424 84.5977 636.418 84.8383 636.418 85.117C636.418 85.3957 636.424 85.6427 636.437 85.858C636.449 86.3013 636.551 86.7383 636.741 87.169C636.943 87.5997 637.241 87.9543 637.634 88.233C638.026 88.5117 638.52 88.651 639.116 88.651ZM649.883 90.19C648.578 90.19 647.54 89.791 646.767 88.993C645.994 88.1823 645.57 87.0803 645.494 85.687C645.481 85.5223 645.475 85.3133 645.475 85.06C645.475 84.794 645.481 84.5787 645.494 84.414C645.545 83.5147 645.754 82.7293 646.121 82.058C646.488 81.374 646.989 80.8483 647.622 80.481C648.268 80.1137 649.022 79.93 649.883 79.93C650.846 79.93 651.65 80.1327 652.296 80.538C652.955 80.9433 653.455 81.5197 653.797 82.267C654.139 83.0143 654.31 83.8883 654.31 84.889V85.212C654.31 85.3513 654.266 85.459 654.177 85.535C654.101 85.611 654 85.649 653.873 85.649H647.299C647.299 85.6617 647.299 85.687 647.299 85.725C647.299 85.763 647.299 85.7947 647.299 85.82C647.324 86.3393 647.438 86.827 647.641 87.283C647.844 87.7263 648.135 88.0873 648.515 88.366C648.895 88.6447 649.351 88.784 649.883 88.784C650.339 88.784 650.719 88.7143 651.023 88.575C651.327 88.4357 651.574 88.2837 651.764 88.119C651.954 87.9417 652.081 87.8087 652.144 87.72C652.258 87.5553 652.347 87.4603 652.41 87.435C652.473 87.397 652.575 87.378 652.714 87.378H653.626C653.753 87.378 653.854 87.416 653.93 87.492C654.019 87.5553 654.057 87.6503 654.044 87.777C654.031 87.967 653.93 88.2013 653.74 88.48C653.55 88.746 653.278 89.012 652.923 89.278C652.568 89.544 652.138 89.7657 651.631 89.943C651.124 90.1077 650.542 90.19 649.883 90.19ZM647.299 84.338H652.505V84.281C652.505 83.711 652.397 83.2043 652.182 82.761C651.979 82.3177 651.682 81.9693 651.289 81.716C650.896 81.45 650.428 81.317 649.883 81.317C649.338 81.317 648.87 81.45 648.477 81.716C648.097 81.9693 647.806 82.3177 647.603 82.761C647.4 83.2043 647.299 83.711 647.299 84.281V84.338ZM664.659 90.19C663.95 90.19 663.342 90.1013 662.835 89.924C662.328 89.7467 661.917 89.5313 661.6 89.278C661.283 89.0247 661.043 88.7713 660.878 88.518C660.726 88.2647 660.644 88.062 660.631 87.91C660.618 87.7707 660.663 87.663 660.764 87.587C660.865 87.511 660.967 87.473 661.068 87.473H661.904C661.98 87.473 662.037 87.4857 662.075 87.511C662.126 87.5237 662.189 87.5743 662.265 87.663C662.43 87.8403 662.613 88.0177 662.816 88.195C663.019 88.3723 663.266 88.518 663.557 88.632C663.861 88.746 664.235 88.803 664.678 88.803C665.324 88.803 665.856 88.6827 666.274 88.442C666.692 88.1887 666.901 87.8213 666.901 87.34C666.901 87.0233 666.812 86.77 666.635 86.58C666.47 86.39 666.166 86.219 665.723 86.067C665.292 85.915 664.697 85.7567 663.937 85.592C663.177 85.4147 662.575 85.1993 662.132 84.946C661.689 84.68 661.372 84.3697 661.182 84.015C660.992 83.6477 660.897 83.236 660.897 82.78C660.897 82.3113 661.036 81.8617 661.315 81.431C661.594 80.9877 661.999 80.6267 662.531 80.348C663.076 80.0693 663.753 79.93 664.564 79.93C665.223 79.93 665.786 80.0123 666.255 80.177C666.724 80.3417 667.11 80.5507 667.414 80.804C667.718 81.0447 667.946 81.2853 668.098 81.526C668.25 81.7667 668.332 81.9693 668.345 82.134C668.358 82.2607 668.32 82.3683 668.231 82.457C668.142 82.533 668.041 82.571 667.927 82.571H667.129C667.04 82.571 666.964 82.552 666.901 82.514C666.85 82.476 666.8 82.4317 666.749 82.381C666.622 82.2163 666.47 82.0517 666.293 81.887C666.128 81.7223 665.907 81.5893 665.628 81.488C665.362 81.374 665.007 81.317 664.564 81.317C663.931 81.317 663.456 81.45 663.139 81.716C662.822 81.982 662.664 82.3177 662.664 82.723C662.664 82.9637 662.734 83.179 662.873 83.369C663.012 83.559 663.278 83.73 663.671 83.882C664.064 84.034 664.646 84.1987 665.419 84.376C666.255 84.5407 666.914 84.7623 667.395 85.041C667.876 85.3197 668.218 85.6427 668.421 86.01C668.624 86.3773 668.725 86.8017 668.725 87.283C668.725 87.815 668.567 88.3027 668.25 88.746C667.946 89.1893 667.49 89.544 666.882 89.81C666.287 90.0633 665.546 90.19 664.659 90.19ZM674.972 90.19C674.009 90.19 673.205 90.0063 672.559 89.639C671.913 89.2717 671.419 88.765 671.077 88.119C670.735 87.4603 670.545 86.713 670.507 85.877C670.494 85.6617 670.488 85.3893 670.488 85.06C670.488 84.718 670.494 84.4457 670.507 84.243C670.545 83.3943 670.735 82.647 671.077 82.001C671.431 81.355 671.932 80.8483 672.578 80.481C673.224 80.1137 674.022 79.93 674.972 79.93C675.922 79.93 676.72 80.1137 677.366 80.481C678.012 80.8483 678.506 81.355 678.848 82.001C679.202 82.647 679.399 83.3943 679.437 84.243C679.449 84.4457 679.456 84.718 679.456 85.06C679.456 85.3893 679.449 85.6617 679.437 85.877C679.399 86.713 679.209 87.4603 678.867 88.119C678.525 88.765 678.031 89.2717 677.385 89.639C676.739 90.0063 675.934 90.19 674.972 90.19ZM674.972 88.727C675.757 88.727 676.384 88.48 676.853 87.986C677.321 87.4793 677.575 86.7447 677.613 85.782C677.625 85.592 677.632 85.3513 677.632 85.06C677.632 84.7687 677.625 84.528 677.613 84.338C677.575 83.3753 677.321 82.647 676.853 82.153C676.384 81.6463 675.757 81.393 674.972 81.393C674.186 81.393 673.553 81.6463 673.072 82.153C672.603 82.647 672.356 83.3753 672.331 84.338C672.318 84.528 672.312 84.7687 672.312 85.06C672.312 85.3513 672.318 85.592 672.331 85.782C672.356 86.7447 672.603 87.4793 673.072 87.986C673.553 88.48 674.186 88.727 674.972 88.727ZM682.272 90C682.145 90 682.037 89.962 681.949 89.886C681.873 89.7973 681.835 89.6897 681.835 89.563V80.557C681.835 80.4303 681.873 80.329 681.949 80.253C682.037 80.1643 682.145 80.12 682.272 80.12H683.127C683.253 80.12 683.355 80.1643 683.431 80.253C683.519 80.329 683.564 80.4303 683.564 80.557V81.222C683.855 80.8293 684.222 80.519 684.666 80.291C685.109 80.0503 685.641 79.93 686.262 79.93C687.693 79.9173 688.706 80.5 689.302 81.678C689.593 81.146 690.017 80.7217 690.575 80.405C691.132 80.0883 691.765 79.93 692.475 79.93C693.133 79.93 693.729 80.082 694.261 80.386C694.805 80.69 695.23 81.1523 695.534 81.773C695.85 82.381 696.009 83.1473 696.009 84.072V89.563C696.009 89.6897 695.964 89.7973 695.876 89.886C695.8 89.962 695.698 90 695.572 90H694.679C694.552 90 694.444 89.962 694.356 89.886C694.28 89.7973 694.242 89.6897 694.242 89.563V84.243C694.242 83.5337 694.14 82.9763 693.938 82.571C693.735 82.1657 693.463 81.8807 693.121 81.716C692.779 81.5513 692.405 81.469 692 81.469C691.67 81.469 691.335 81.5513 690.993 81.716C690.651 81.8807 690.366 82.1657 690.138 82.571C689.922 82.9763 689.815 83.5337 689.815 84.243V89.563C689.815 89.6897 689.77 89.7973 689.682 89.886C689.606 89.962 689.504 90 689.378 90H688.485C688.358 90 688.25 89.962 688.162 89.886C688.086 89.7973 688.048 89.6897 688.048 89.563V84.243C688.048 83.5337 687.94 82.9763 687.725 82.571C687.509 82.1657 687.231 81.8807 686.889 81.716C686.547 81.5513 686.186 81.469 685.806 81.469C685.476 81.469 685.141 81.5513 684.799 81.716C684.457 81.8807 684.172 82.1657 683.944 82.571C683.728 82.9763 683.621 83.5273 683.621 84.224V89.563C683.621 89.6897 683.576 89.7973 683.488 89.886C683.412 89.962 683.31 90 683.184 90H682.272ZM702.652 90.19C701.348 90.19 700.309 89.791 699.536 88.993C698.764 88.1823 698.339 87.0803 698.263 85.687C698.251 85.5223 698.244 85.3133 698.244 85.06C698.244 84.794 698.251 84.5787 698.263 84.414C698.314 83.5147 698.523 82.7293 698.89 82.058C699.258 81.374 699.758 80.8483 700.391 80.481C701.037 80.1137 701.791 79.93 702.652 79.93C703.615 79.93 704.419 80.1327 705.065 80.538C705.724 80.9433 706.224 81.5197 706.566 82.267C706.908 83.0143 707.079 83.8883 707.079 84.889V85.212C707.079 85.3513 707.035 85.459 706.946 85.535C706.87 85.611 706.769 85.649 706.642 85.649H700.068C700.068 85.6617 700.068 85.687 700.068 85.725C700.068 85.763 700.068 85.7947 700.068 85.82C700.094 86.3393 700.208 86.827 700.41 87.283C700.613 87.7263 700.904 88.0873 701.284 88.366C701.664 88.6447 702.12 88.784 702.652 88.784C703.108 88.784 703.488 88.7143 703.792 88.575C704.096 88.4357 704.343 88.2837 704.533 88.119C704.723 87.9417 704.85 87.8087 704.913 87.72C705.027 87.5553 705.116 87.4603 705.179 87.435C705.243 87.397 705.344 87.378 705.483 87.378H706.395C706.522 87.378 706.623 87.416 706.699 87.492C706.788 87.5553 706.826 87.6503 706.813 87.777C706.801 87.967 706.699 88.2013 706.509 88.48C706.319 88.746 706.047 89.012 705.692 89.278C705.338 89.544 704.907 89.7657 704.4 89.943C703.894 90.1077 703.311 90.19 702.652 90.19ZM700.068 84.338H705.274V84.281C705.274 83.711 705.167 83.2043 704.951 82.761C704.749 82.3177 704.451 81.9693 704.058 81.716C703.666 81.45 703.197 81.317 702.652 81.317C702.108 81.317 701.639 81.45 701.246 81.716C700.866 81.9693 700.575 82.3177 700.372 82.761C700.17 83.2043 700.068 83.711 700.068 84.281V84.338ZM713.153 90C712.443 90 711.867 89.867 711.424 89.601C710.98 89.3223 710.657 88.936 710.455 88.442C710.252 87.9353 710.151 87.34 710.151 86.656V81.64H708.669C708.542 81.64 708.434 81.602 708.346 81.526C708.27 81.4373 708.232 81.3297 708.232 81.203V80.557C708.232 80.4303 708.27 80.329 708.346 80.253C708.434 80.1643 708.542 80.12 708.669 80.12H710.151V76.947C710.151 76.8203 710.189 76.719 710.265 76.643C710.353 76.5543 710.461 76.51 710.588 76.51H711.481C711.607 76.51 711.709 76.5543 711.785 76.643C711.873 76.719 711.918 76.8203 711.918 76.947V80.12H714.274C714.4 80.12 714.502 80.1643 714.578 80.253C714.666 80.329 714.711 80.4303 714.711 80.557V81.203C714.711 81.3297 714.666 81.4373 714.578 81.526C714.502 81.602 714.4 81.64 714.274 81.64H711.918V86.523C711.918 87.1183 712.019 87.587 712.222 87.929C712.424 88.271 712.785 88.442 713.305 88.442H714.464C714.59 88.442 714.692 88.4863 714.768 88.575C714.856 88.651 714.901 88.7523 714.901 88.879V89.563C714.901 89.6897 714.856 89.7973 714.768 89.886C714.692 89.962 714.59 90 714.464 90H713.153ZM717.174 90C717.047 90 716.939 89.962 716.851 89.886C716.775 89.7973 716.737 89.6897 716.737 89.563V76.947C716.737 76.8203 716.775 76.719 716.851 76.643C716.939 76.5543 717.047 76.51 717.174 76.51H718.124C718.263 76.51 718.371 76.5543 718.447 76.643C718.523 76.719 718.561 76.8203 718.561 76.947V81.374C718.903 80.9433 719.321 80.595 719.815 80.329C720.309 80.063 720.936 79.93 721.696 79.93C722.519 79.93 723.216 80.1137 723.786 80.481C724.368 80.8357 724.805 81.336 725.097 81.982C725.401 82.6153 725.553 83.3563 725.553 84.205V89.563C725.553 89.6897 725.515 89.7973 725.439 89.886C725.363 89.962 725.255 90 725.116 90H724.166C724.039 90 723.931 89.962 723.843 89.886C723.767 89.7973 723.729 89.6897 723.729 89.563V84.3C723.729 83.4133 723.513 82.723 723.083 82.229C722.652 81.7223 722.019 81.469 721.183 81.469C720.397 81.469 719.764 81.7223 719.283 82.229C718.801 82.723 718.561 83.4133 718.561 84.3V89.563C718.561 89.6897 718.523 89.7973 718.447 89.886C718.371 89.962 718.263 90 718.124 90H717.174ZM728.733 90C728.606 90 728.498 89.962 728.41 89.886C728.334 89.7973 728.296 89.6897 728.296 89.563V80.557C728.296 80.4303 728.334 80.329 728.41 80.253C728.498 80.1643 728.606 80.12 728.733 80.12H729.645C729.771 80.12 729.873 80.1643 729.949 80.253C730.025 80.329 730.063 80.4303 730.063 80.557V89.563C730.063 89.6897 730.025 89.7973 729.949 89.886C729.873 89.962 729.771 90 729.645 90H728.733ZM728.581 78.277C728.454 78.277 728.346 78.239 728.258 78.163C728.182 78.0743 728.144 77.9667 728.144 77.84V76.814C728.144 76.6873 728.182 76.586 728.258 76.51C728.346 76.4213 728.454 76.377 728.581 76.377H729.778C729.904 76.377 730.006 76.4213 730.082 76.51C730.17 76.586 730.215 76.6873 730.215 76.814V77.84C730.215 77.9667 730.17 78.0743 730.082 78.163C730.006 78.239 729.904 78.277 729.778 78.277H728.581ZM733.52 90C733.393 90 733.285 89.962 733.197 89.886C733.121 89.7973 733.083 89.6897 733.083 89.563V80.557C733.083 80.4303 733.121 80.329 733.197 80.253C733.285 80.1643 733.393 80.12 733.52 80.12H734.413C734.539 80.12 734.641 80.1643 734.717 80.253C734.805 80.329 734.85 80.4303 734.85 80.557V81.393C735.179 80.9623 735.591 80.614 736.085 80.348C736.591 80.0693 737.237 79.93 738.023 79.93C738.846 79.93 739.543 80.1137 740.113 80.481C740.695 80.8357 741.132 81.336 741.424 81.982C741.715 82.6153 741.861 83.3563 741.861 84.205V89.563C741.861 89.6897 741.823 89.7973 741.747 89.886C741.671 89.962 741.569 90 741.443 90H740.493C740.366 90 740.258 89.962 740.17 89.886C740.094 89.7973 740.056 89.6897 740.056 89.563V84.3C740.056 83.4133 739.84 82.723 739.41 82.229C738.979 81.7223 738.346 81.469 737.51 81.469C736.724 81.469 736.091 81.7223 735.61 82.229C735.141 82.723 734.907 83.4133 734.907 84.3V89.563C734.907 89.6897 734.862 89.7973 734.774 89.886C734.698 89.962 734.596 90 734.47 90H733.52ZM748.652 94.18C747.791 94.18 747.082 94.066 746.524 93.838C745.98 93.61 745.549 93.3313 745.232 93.002C744.928 92.6853 744.707 92.3623 744.567 92.033C744.441 91.7163 744.371 91.463 744.358 91.273C744.346 91.1463 744.384 91.0387 744.472 90.95C744.574 90.8613 744.681 90.817 744.795 90.817H745.707C745.821 90.817 745.916 90.8423 745.992 90.893C746.068 90.9437 746.132 91.0513 746.182 91.216C746.258 91.406 746.372 91.615 746.524 91.843C746.676 92.0837 746.911 92.2863 747.227 92.451C747.544 92.6283 747.987 92.717 748.557 92.717C749.153 92.717 749.653 92.6347 750.058 92.47C750.464 92.318 750.768 92.0393 750.97 91.634C751.186 91.2413 751.293 90.6967 751.293 90V88.708C750.989 89.1007 750.59 89.43 750.096 89.696C749.602 89.9493 748.982 90.076 748.234 90.076C747.525 90.076 746.917 89.9557 746.41 89.715C745.904 89.4617 745.486 89.126 745.156 88.708C744.84 88.2773 744.599 87.7897 744.434 87.245C744.282 86.7003 744.194 86.1303 744.168 85.535C744.156 85.1803 744.156 84.832 744.168 84.49C744.194 83.8947 744.282 83.3247 744.434 82.78C744.599 82.2353 744.84 81.7477 745.156 81.317C745.486 80.8863 745.904 80.5507 746.41 80.31C746.917 80.0567 747.525 79.93 748.234 79.93C748.994 79.93 749.621 80.0757 750.115 80.367C750.622 80.6457 751.034 80.9877 751.35 81.393V80.576C751.35 80.4493 751.388 80.3417 751.464 80.253C751.553 80.1643 751.661 80.12 751.787 80.12H752.661C752.788 80.12 752.896 80.1643 752.984 80.253C753.073 80.3417 753.117 80.4493 753.117 80.576V89.791C753.117 90.6397 752.972 91.3933 752.68 92.052C752.402 92.7107 751.933 93.23 751.274 93.61C750.628 93.99 749.754 94.18 748.652 94.18ZM748.614 88.556C749.248 88.556 749.754 88.4103 750.134 88.119C750.527 87.8277 750.812 87.4603 750.989 87.017C751.179 86.5737 751.281 86.124 751.293 85.668C751.306 85.4907 751.312 85.2753 751.312 85.022C751.312 84.756 751.306 84.5343 751.293 84.357C751.281 83.901 751.179 83.4513 750.989 83.008C750.812 82.5647 750.527 82.1973 750.134 81.906C749.754 81.6147 749.248 81.469 748.614 81.469C747.981 81.469 747.474 81.6147 747.094 81.906C746.714 82.1847 746.442 82.5583 746.277 83.027C746.113 83.483 746.018 83.977 745.992 84.509C745.98 84.8383 745.98 85.174 745.992 85.516C746.018 86.048 746.113 86.5483 746.277 87.017C746.442 87.473 746.714 87.8467 747.094 88.138C747.474 88.4167 747.981 88.556 748.614 88.556Z" fill="white"/>
<path d="M481.548 93.61C481.421 93.61 481.313 93.5657 481.225 93.477C481.149 93.401 481.111 93.2997 481.111 93.173V80.557C481.111 80.4303 481.149 80.329 481.225 80.253C481.313 80.1643 481.421 80.12 481.548 80.12H482.422C482.548 80.12 482.65 80.1643 482.726 80.253C482.814 80.329 482.859 80.4303 482.859 80.557V81.393C483.163 80.975 483.568 80.6267 484.075 80.348C484.581 80.0693 485.215 79.93 485.975 79.93C486.684 79.93 487.286 80.0503 487.78 80.291C488.286 80.5317 488.698 80.861 489.015 81.279C489.344 81.697 489.591 82.172 489.756 82.704C489.92 83.236 490.009 83.806 490.022 84.414C490.034 84.6167 490.041 84.832 490.041 85.06C490.041 85.288 490.034 85.5033 490.022 85.706C490.009 86.3013 489.92 86.8713 489.756 87.416C489.591 87.948 489.344 88.423 489.015 88.841C488.698 89.2463 488.286 89.5757 487.78 89.829C487.286 90.0697 486.684 90.19 485.975 90.19C485.24 90.19 484.619 90.057 484.113 89.791C483.619 89.5123 483.213 89.1703 482.897 88.765V93.173C482.897 93.2997 482.859 93.401 482.783 93.477C482.707 93.5657 482.599 93.61 482.46 93.61H481.548ZM485.576 88.651C486.234 88.651 486.747 88.5117 487.115 88.233C487.495 87.9417 487.767 87.568 487.932 87.112C488.096 86.6433 488.191 86.143 488.217 85.611C488.229 85.2437 488.229 84.8763 488.217 84.509C488.191 83.977 488.096 83.483 487.932 83.027C487.767 82.5583 487.495 82.1847 487.115 81.906C486.747 81.6147 486.234 81.469 485.576 81.469C484.955 81.469 484.448 81.6147 484.056 81.906C483.676 82.1973 483.391 82.571 483.201 83.027C483.023 83.4703 482.922 83.9263 482.897 84.395C482.884 84.5977 482.878 84.8383 482.878 85.117C482.878 85.3957 482.884 85.6427 482.897 85.858C482.909 86.3013 483.011 86.7383 483.201 87.169C483.403 87.5997 483.701 87.9543 484.094 88.233C484.486 88.5117 484.98 88.651 485.576 88.651ZM492.866 90C492.739 90 492.632 89.962 492.543 89.886C492.467 89.7973 492.429 89.6897 492.429 89.563V76.947C492.429 76.8203 492.467 76.719 492.543 76.643C492.632 76.5543 492.739 76.51 492.866 76.51H493.759C493.898 76.51 494.006 76.5543 494.082 76.643C494.158 76.719 494.196 76.8203 494.196 76.947V89.563C494.196 89.6897 494.158 89.7973 494.082 89.886C494.006 89.962 493.898 90 493.759 90H492.866ZM499.785 90.19C499.152 90.19 498.575 90.0633 498.056 89.81C497.537 89.5567 497.119 89.2147 496.802 88.784C496.485 88.3533 496.327 87.8657 496.327 87.321C496.327 86.447 496.682 85.7503 497.391 85.231C498.1 84.7117 499.025 84.3697 500.165 84.205L502.996 83.806V83.255C502.996 82.647 502.819 82.172 502.464 81.83C502.122 81.488 501.558 81.317 500.773 81.317C500.203 81.317 499.741 81.431 499.386 81.659C499.044 81.887 498.803 82.1783 498.664 82.533C498.588 82.723 498.455 82.818 498.265 82.818H497.41C497.271 82.818 497.163 82.78 497.087 82.704C497.024 82.6153 496.992 82.514 496.992 82.4C496.992 82.21 497.062 81.9757 497.201 81.697C497.353 81.4183 497.581 81.146 497.885 80.88C498.189 80.614 498.575 80.3923 499.044 80.215C499.525 80.025 500.108 79.93 500.792 79.93C501.552 79.93 502.192 80.0313 502.711 80.234C503.23 80.424 503.636 80.6837 503.927 81.013C504.231 81.3423 504.446 81.716 504.573 82.134C504.712 82.552 504.782 82.9763 504.782 83.407V89.563C504.782 89.6897 504.738 89.7973 504.649 89.886C504.573 89.962 504.472 90 504.345 90H503.471C503.332 90 503.224 89.962 503.148 89.886C503.072 89.7973 503.034 89.6897 503.034 89.563V88.746C502.869 88.974 502.648 89.202 502.369 89.43C502.09 89.6453 501.742 89.829 501.324 89.981C500.906 90.1203 500.393 90.19 499.785 90.19ZM500.184 88.765C500.703 88.765 501.178 88.6573 501.609 88.442C502.04 88.214 502.375 87.8657 502.616 87.397C502.869 86.9283 502.996 86.3393 502.996 85.63V85.098L500.792 85.421C499.893 85.5477 499.215 85.763 498.759 86.067C498.303 86.3583 498.075 86.732 498.075 87.188C498.075 87.5427 498.176 87.8403 498.379 88.081C498.594 88.309 498.86 88.48 499.177 88.594C499.506 88.708 499.842 88.765 500.184 88.765ZM511.503 90.19C510.604 90.19 509.825 90.019 509.166 89.677C508.52 89.3223 508.02 88.822 507.665 88.176C507.311 87.5173 507.121 86.732 507.095 85.82C507.083 85.63 507.076 85.3767 507.076 85.06C507.076 84.7433 507.083 84.49 507.095 84.3C507.121 83.388 507.311 82.609 507.665 81.963C508.02 81.3043 508.52 80.804 509.166 80.462C509.825 80.1073 510.604 79.93 511.503 79.93C512.238 79.93 512.865 80.0313 513.384 80.234C513.916 80.4367 514.353 80.6963 514.695 81.013C515.037 81.3297 515.291 81.6717 515.455 82.039C515.633 82.4063 515.728 82.7547 515.74 83.084C515.753 83.2107 515.715 83.312 515.626 83.388C515.538 83.464 515.43 83.502 515.303 83.502H514.391C514.265 83.502 514.17 83.4767 514.106 83.426C514.043 83.3627 513.98 83.2613 513.916 83.122C513.688 82.5013 513.378 82.0643 512.985 81.811C512.593 81.5577 512.105 81.431 511.522 81.431C510.762 81.431 510.142 81.6653 509.66 82.134C509.192 82.6027 508.938 83.3563 508.9 84.395C508.888 84.851 508.888 85.2943 508.9 85.725C508.938 86.7763 509.192 87.5363 509.66 88.005C510.142 88.461 510.762 88.689 511.522 88.689C512.105 88.689 512.593 88.5623 512.985 88.309C513.378 88.0557 513.688 87.6187 513.916 86.998C513.98 86.8587 514.043 86.7637 514.106 86.713C514.17 86.6497 514.265 86.618 514.391 86.618H515.303C515.43 86.618 515.538 86.656 515.626 86.732C515.715 86.808 515.753 86.9093 515.74 87.036C515.728 87.302 515.671 87.5743 515.569 87.853C515.468 88.1317 515.303 88.4167 515.075 88.708C514.86 88.9867 514.588 89.24 514.258 89.468C513.929 89.6833 513.53 89.8607 513.061 90C512.605 90.1267 512.086 90.19 511.503 90.19ZM521.93 90.19C520.625 90.19 519.586 89.791 518.814 88.993C518.041 88.1823 517.617 87.0803 517.541 85.687C517.528 85.5223 517.522 85.3133 517.522 85.06C517.522 84.794 517.528 84.5787 517.541 84.414C517.591 83.5147 517.8 82.7293 518.168 82.058C518.535 81.374 519.035 80.8483 519.669 80.481C520.315 80.1137 521.068 79.93 521.93 79.93C522.892 79.93 523.697 80.1327 524.343 80.538C525.001 80.9433 525.502 81.5197 525.844 82.267C526.186 83.0143 526.357 83.8883 526.357 84.889V85.212C526.357 85.3513 526.312 85.459 526.224 85.535C526.148 85.611 526.046 85.649 525.92 85.649H519.346C519.346 85.6617 519.346 85.687 519.346 85.725C519.346 85.763 519.346 85.7947 519.346 85.82C519.371 86.3393 519.485 86.827 519.688 87.283C519.89 87.7263 520.182 88.0873 520.562 88.366C520.942 88.6447 521.398 88.784 521.93 88.784C522.386 88.784 522.766 88.7143 523.07 88.575C523.374 88.4357 523.621 88.2837 523.811 88.119C524.001 87.9417 524.127 87.8087 524.191 87.72C524.305 87.5553 524.393 87.4603 524.457 87.435C524.52 87.397 524.621 87.378 524.761 87.378H525.673C525.799 87.378 525.901 87.416 525.977 87.492C526.065 87.5553 526.103 87.6503 526.091 87.777C526.078 87.967 525.977 88.2013 525.787 88.48C525.597 88.746 525.324 89.012 524.97 89.278C524.615 89.544 524.184 89.7657 523.678 89.943C523.171 90.1077 522.588 90.19 521.93 90.19ZM519.346 84.338H524.552V84.281C524.552 83.711 524.444 83.2043 524.229 82.761C524.026 82.3177 523.728 81.9693 523.336 81.716C522.943 81.45 522.474 81.317 521.93 81.317C521.385 81.317 520.916 81.45 520.524 81.716C520.144 81.9693 519.852 82.3177 519.65 82.761C519.447 83.2043 519.346 83.711 519.346 84.281V84.338ZM529.085 90C528.958 90 528.85 89.962 528.762 89.886C528.686 89.7973 528.648 89.6897 528.648 89.563V76.947C528.648 76.8203 528.686 76.719 528.762 76.643C528.85 76.5543 528.958 76.51 529.085 76.51H530.035C530.174 76.51 530.282 76.5543 530.358 76.643C530.434 76.719 530.472 76.8203 530.472 76.947V81.374C530.814 80.9433 531.232 80.595 531.726 80.329C532.22 80.063 532.847 79.93 533.607 79.93C534.43 79.93 535.127 80.1137 535.697 80.481C536.279 80.8357 536.716 81.336 537.008 81.982C537.312 82.6153 537.464 83.3563 537.464 84.205V89.563C537.464 89.6897 537.426 89.7973 537.35 89.886C537.274 89.962 537.166 90 537.027 90H536.077C535.95 90 535.842 89.962 535.754 89.886C535.678 89.7973 535.64 89.6897 535.64 89.563V84.3C535.64 83.4133 535.424 82.723 534.994 82.229C534.563 81.7223 533.93 81.469 533.094 81.469C532.308 81.469 531.675 81.7223 531.194 82.229C530.712 82.723 530.472 83.4133 530.472 84.3V89.563C530.472 89.6897 530.434 89.7973 530.358 89.886C530.282 89.962 530.174 90 530.035 90H529.085ZM544.254 90.19C543.291 90.19 542.487 90.0063 541.841 89.639C541.195 89.2717 540.701 88.765 540.359 88.119C540.017 87.4603 539.827 86.713 539.789 85.877C539.776 85.6617 539.77 85.3893 539.77 85.06C539.77 84.718 539.776 84.4457 539.789 84.243C539.827 83.3943 540.017 82.647 540.359 82.001C540.713 81.355 541.214 80.8483 541.86 80.481C542.506 80.1137 543.304 79.93 544.254 79.93C545.204 79.93 546.002 80.1137 546.648 80.481C547.294 80.8483 547.788 81.355 548.13 82.001C548.484 82.647 548.681 83.3943 548.719 84.243C548.731 84.4457 548.738 84.718 548.738 85.06C548.738 85.3893 548.731 85.6617 548.719 85.877C548.681 86.713 548.491 87.4603 548.149 88.119C547.807 88.765 547.313 89.2717 546.667 89.639C546.021 90.0063 545.216 90.19 544.254 90.19ZM544.254 88.727C545.039 88.727 545.666 88.48 546.135 87.986C546.603 87.4793 546.857 86.7447 546.895 85.782C546.907 85.592 546.914 85.3513 546.914 85.06C546.914 84.7687 546.907 84.528 546.895 84.338C546.857 83.3753 546.603 82.647 546.135 82.153C545.666 81.6463 545.039 81.393 544.254 81.393C543.468 81.393 542.835 81.6463 542.354 82.153C541.885 82.647 541.638 83.3753 541.613 84.338C541.6 84.528 541.594 84.7687 541.594 85.06C541.594 85.3513 541.6 85.592 541.613 85.782C541.638 86.7447 541.885 87.4793 542.354 87.986C542.835 88.48 543.468 88.727 544.254 88.727ZM551.573 90C551.446 90 551.339 89.962 551.25 89.886C551.174 89.7973 551.136 89.6897 551.136 89.563V76.947C551.136 76.8203 551.174 76.719 551.25 76.643C551.339 76.5543 551.446 76.51 551.573 76.51H552.466C552.605 76.51 552.713 76.5543 552.789 76.643C552.865 76.719 552.903 76.8203 552.903 76.947V89.563C552.903 89.6897 552.865 89.7973 552.789 89.886C552.713 89.962 552.605 90 552.466 90H551.573ZM559.347 90.19C558.65 90.19 558.049 90.0697 557.542 89.829C557.035 89.5757 556.617 89.24 556.288 88.822C555.971 88.3913 555.731 87.9037 555.566 87.359C555.414 86.8143 555.325 86.238 555.3 85.63C555.287 85.4273 555.281 85.2373 555.281 85.06C555.281 84.8827 555.287 84.6927 555.3 84.49C555.325 83.8947 555.414 83.3247 555.566 82.78C555.731 82.2353 555.971 81.7477 556.288 81.317C556.617 80.8863 557.035 80.5507 557.542 80.31C558.049 80.0567 558.65 79.93 559.347 79.93C560.094 79.93 560.715 80.063 561.209 80.329C561.703 80.595 562.108 80.9243 562.425 81.317V76.947C562.425 76.8203 562.463 76.719 562.539 76.643C562.628 76.5543 562.735 76.51 562.862 76.51H563.774C563.901 76.51 564.002 76.5543 564.078 76.643C564.167 76.719 564.211 76.8203 564.211 76.947V89.563C564.211 89.6897 564.167 89.7973 564.078 89.886C564.002 89.962 563.901 90 563.774 90H562.919C562.78 90 562.672 89.962 562.596 89.886C562.52 89.7973 562.482 89.6897 562.482 89.563V88.765C562.165 89.1703 561.754 89.5123 561.247 89.791C560.74 90.057 560.107 90.19 559.347 90.19ZM559.746 88.651C560.379 88.651 560.886 88.5053 561.266 88.214C561.646 87.9227 561.931 87.5553 562.121 87.112C562.311 86.656 562.412 86.1937 562.425 85.725C562.438 85.5223 562.444 85.2817 562.444 85.003C562.444 84.7117 562.438 84.4647 562.425 84.262C562.412 83.8187 562.305 83.3817 562.102 82.951C561.912 82.5203 561.621 82.1657 561.228 81.887C560.848 81.6083 560.354 81.469 559.746 81.469C559.1 81.469 558.587 81.6147 558.207 81.906C557.827 82.1847 557.555 82.5583 557.39 83.027C557.225 83.483 557.13 83.977 557.105 84.509C557.092 84.8763 557.092 85.2437 557.105 85.611C557.13 86.143 557.225 86.6433 557.39 87.112C557.555 87.568 557.827 87.9417 558.207 88.233C558.587 88.5117 559.1 88.651 559.746 88.651ZM570.97 90.19C569.665 90.19 568.627 89.791 567.854 88.993C567.081 88.1823 566.657 87.0803 566.581 85.687C566.568 85.5223 566.562 85.3133 566.562 85.06C566.562 84.794 566.568 84.5787 566.581 84.414C566.632 83.5147 566.841 82.7293 567.208 82.058C567.575 81.374 568.076 80.8483 568.709 80.481C569.355 80.1137 570.109 79.93 570.97 79.93C571.933 79.93 572.737 80.1327 573.383 80.538C574.042 80.9433 574.542 81.5197 574.884 82.267C575.226 83.0143 575.397 83.8883 575.397 84.889V85.212C575.397 85.3513 575.353 85.459 575.264 85.535C575.188 85.611 575.087 85.649 574.96 85.649H568.386C568.386 85.6617 568.386 85.687 568.386 85.725C568.386 85.763 568.386 85.7947 568.386 85.82C568.411 86.3393 568.525 86.827 568.728 87.283C568.931 87.7263 569.222 88.0873 569.602 88.366C569.982 88.6447 570.438 88.784 570.97 88.784C571.426 88.784 571.806 88.7143 572.11 88.575C572.414 88.4357 572.661 88.2837 572.851 88.119C573.041 87.9417 573.168 87.8087 573.231 87.72C573.345 87.5553 573.434 87.4603 573.497 87.435C573.56 87.397 573.662 87.378 573.801 87.378H574.713C574.84 87.378 574.941 87.416 575.017 87.492C575.106 87.5553 575.144 87.6503 575.131 87.777C575.118 87.967 575.017 88.2013 574.827 88.48C574.637 88.746 574.365 89.012 574.01 89.278C573.655 89.544 573.225 89.7657 572.718 89.943C572.211 90.1077 571.629 90.19 570.97 90.19ZM568.386 84.338H573.592V84.281C573.592 83.711 573.484 83.2043 573.269 82.761C573.066 82.3177 572.769 81.9693 572.376 81.716C571.983 81.45 571.515 81.317 570.97 81.317C570.425 81.317 569.957 81.45 569.564 81.716C569.184 81.9693 568.893 82.3177 568.69 82.761C568.487 83.2043 568.386 83.711 568.386 84.281V84.338ZM578.106 90C577.979 90 577.871 89.962 577.783 89.886C577.707 89.7973 577.669 89.6897 577.669 89.563V80.576C577.669 80.4493 577.707 80.3417 577.783 80.253C577.871 80.1643 577.979 80.12 578.106 80.12H578.98C579.106 80.12 579.214 80.1643 579.303 80.253C579.391 80.3417 579.436 80.4493 579.436 80.576V81.412C579.689 80.9813 580.037 80.6583 580.481 80.443C580.924 80.2277 581.456 80.12 582.077 80.12H582.837C582.963 80.12 583.065 80.1643 583.141 80.253C583.217 80.329 583.255 80.4303 583.255 80.557V81.336C583.255 81.4627 583.217 81.564 583.141 81.64C583.065 81.716 582.963 81.754 582.837 81.754H581.697C581.013 81.754 580.474 81.9567 580.082 82.362C579.689 82.7547 579.493 83.293 579.493 83.977V89.563C579.493 89.6897 579.448 89.7973 579.36 89.886C579.271 89.962 579.163 90 579.037 90H578.106ZM589.478 82.666C589.352 82.666 589.25 82.628 589.174 82.552C589.098 82.476 589.06 82.3747 589.06 82.248V81.602C589.06 81.4753 589.098 81.374 589.174 81.298C589.25 81.222 589.352 81.184 589.478 81.184H596.717C596.844 81.184 596.945 81.222 597.021 81.298C597.11 81.374 597.154 81.4753 597.154 81.602V82.248C597.154 82.3747 597.11 82.476 597.021 82.552C596.945 82.628 596.844 82.666 596.717 82.666H589.478ZM589.478 87.416C589.352 87.416 589.25 87.378 589.174 87.302C589.098 87.226 589.06 87.1247 589.06 86.998V86.352C589.06 86.2253 589.098 86.124 589.174 86.048C589.25 85.972 589.352 85.934 589.478 85.934H596.717C596.844 85.934 596.945 85.972 597.021 86.048C597.11 86.124 597.154 86.2253 597.154 86.352V86.998C597.154 87.1247 597.11 87.226 597.021 87.302C596.945 87.378 596.844 87.416 596.717 87.416H589.478ZM607.499 80.177C607.41 80.177 607.334 80.1453 607.271 80.082C607.22 80.0187 607.195 79.9427 607.195 79.854C607.195 79.7527 607.214 79.6513 607.252 79.55L608.259 76.947C608.322 76.8203 608.385 76.719 608.449 76.643C608.525 76.5543 608.645 76.51 608.81 76.51H609.437C609.538 76.51 609.614 76.548 609.665 76.624C609.728 76.7 609.747 76.8013 609.722 76.928L609.304 79.626C609.291 79.778 609.24 79.911 609.152 80.025C609.063 80.1263 608.93 80.177 608.753 80.177H607.499ZM604.459 80.177C604.37 80.177 604.294 80.1453 604.231 80.082C604.18 80.0187 604.155 79.9427 604.155 79.854C604.155 79.7527 604.174 79.6513 604.212 79.55L605.219 76.947C605.282 76.8203 605.352 76.719 605.428 76.643C605.504 76.5543 605.618 76.51 605.77 76.51H606.397C606.498 76.51 606.574 76.548 606.625 76.624C606.688 76.7 606.707 76.8013 606.682 76.928L606.264 79.626C606.251 79.778 606.2 79.911 606.112 80.025C606.023 80.1263 605.896 80.177 605.732 80.177H604.459ZM763.506 80.177C763.418 80.177 763.342 80.1453 763.278 80.082C763.228 80.0187 763.202 79.9427 763.202 79.854C763.202 79.7527 763.221 79.6513 763.259 79.55L764.266 76.947C764.33 76.8203 764.393 76.719 764.456 76.643C764.532 76.5543 764.653 76.51 764.817 76.51H765.444C765.546 76.51 765.622 76.548 765.672 76.624C765.736 76.7 765.755 76.8013 765.729 76.928L765.311 79.626C765.299 79.778 765.248 79.911 765.159 80.025C765.071 80.1263 764.938 80.177 764.76 80.177H763.506ZM760.466 80.177C760.378 80.177 760.302 80.1453 760.238 80.082C760.188 80.0187 760.162 79.9427 760.162 79.854C760.162 79.7527 760.181 79.6513 760.219 79.55L761.226 76.947C761.29 76.8203 761.359 76.719 761.435 76.643C761.511 76.5543 761.625 76.51 761.777 76.51H762.404C762.506 76.51 762.582 76.548 762.632 76.624C762.696 76.7 762.715 76.8013 762.689 76.928L762.271 79.626C762.259 79.778 762.208 79.911 762.119 80.025C762.031 80.1263 761.904 80.177 761.739 80.177H760.466Z" fill="white" fill-opacity="0.85"/>
<g filter="url(#filter0_d_210_55)">
<path d="M4 12C4 5.37258 9.37258 0 16 0H787C793.627 0 799 5.37258 799 12V43H4V12Z" fill="#242526"/>
</g>
<ellipse cx="29.1279" cy="21.9141" rx="5.84369" ry="6.72025" fill="#E65100"/>
<ellipse cx="48.4121" cy="21.9141" rx="5.84369" ry="6.72025" fill="#FFD600"/>
<ellipse cx="67.6962" cy="21.9141" rx="5.84369" ry="6.72025" fill="#4EC433"/>
<defs>
<filter id="filter0_d_210_55" x="0" y="0" width="803" height="51" filterUnits="userSpaceOnUse" color-interpolation-filters="sRGB">
<feFlood flood-opacity="0" result="BackgroundImageFix"/>
<feColorMatrix in="SourceAlpha" type="matrix" values="0 0 0 0 0 0 0 0 0 0 0 0 0 0 0 0 0 0 127 0" result="hardAlpha"/>
<feOffset dy="4"/>
<feGaussianBlur stdDeviation="2"/>
<feComposite in2="hardAlpha" operator="out"/>
<feColorMatrix type="matrix" values="0 0 0 0 0 0 0 0 0 0 0 0 0 0 0 0 0 0 0.25 0"/>
<feBlend mode="normal" in2="BackgroundImageFix" result="effect1_dropShadow_210_55"/>
<feBlend mode="normal" in="SourceGraphic" in2="effect1_dropShadow_210_55" result="shape"/>
</filter>
</defs>
</svg>
