<svg width="803" height="178" viewBox="0 0 803 178" fill="none" xmlns="http://www.w3.org/2000/svg">
<rect x="4" width="586" height="144" rx="12" fill="#242526"/>
<rect x="4" width="795" height="178" rx="12" fill="#242526"/>
<path d="M21.676 89.525C21.6 89.525 21.5177 89.4997 21.429 89.449C21.353 89.3983 21.2833 89.3603 21.22 89.335L15.235 85.212C15.045 85.0853 14.9057 84.9587 14.817 84.832C14.7283 84.6927 14.684 84.5343 14.684 84.357V84.015C14.684 83.8377 14.7283 83.6857 14.817 83.559C14.9057 83.4323 15.045 83.2993 15.235 83.16L21.22 79.056C21.2833 79.018 21.353 78.9737 21.429 78.923C21.5177 78.8723 21.6 78.847 21.676 78.847C21.7773 78.847 21.866 78.885 21.942 78.961C22.018 79.0243 22.056 79.1193 22.056 79.246V80.082C22.056 80.2213 22.018 80.3417 21.942 80.443C21.866 80.5317 21.7583 80.6203 21.619 80.709L16.527 84.186L21.619 87.663C21.7583 87.7643 21.866 87.8593 21.942 87.948C22.018 88.0367 22.056 88.157 22.056 88.309V89.145C22.056 89.259 22.018 89.354 21.942 89.43C21.866 89.4933 21.7773 89.525 21.676 89.525ZM197.508 89.506C197.407 89.506 197.318 89.4743 197.242 89.411C197.166 89.3477 197.128 89.2527 197.128 89.126V88.29C197.128 88.138 197.16 88.0177 197.223 87.929C197.299 87.8403 197.413 87.7517 197.565 87.663L202.638 84.186L197.565 80.709C197.413 80.6077 197.299 80.5127 197.223 80.424C197.16 80.3353 197.128 80.215 197.128 80.063V79.227C197.128 79.1003 197.166 79.0053 197.242 78.942C197.318 78.8787 197.407 78.847 197.508 78.847C197.584 78.847 197.666 78.8723 197.755 78.923C197.844 78.961 197.913 78.999 197.964 79.037L203.93 83.141C204.133 83.2803 204.272 83.4133 204.348 83.54C204.437 83.6667 204.481 83.825 204.481 84.015V84.338C204.481 84.5153 204.437 84.6737 204.348 84.813C204.272 84.9397 204.133 85.0727 203.93 85.212L197.964 89.316C197.913 89.354 197.844 89.3983 197.755 89.449C197.666 89.487 197.584 89.506 197.508 89.506ZM351.04 89.525C350.964 89.525 350.882 89.4997 350.793 89.449C350.717 89.3983 350.648 89.3603 350.584 89.335L344.599 85.212C344.409 85.0853 344.27 84.9587 344.181 84.832C344.093 84.6927 344.048 84.5343 344.048 84.357V84.015C344.048 83.8377 344.093 83.6857 344.181 83.559C344.27 83.4323 344.409 83.2993 344.599 83.16L350.584 79.056C350.648 79.018 350.717 78.9737 350.793 78.923C350.882 78.8723 350.964 78.847 351.04 78.847C351.142 78.847 351.23 78.885 351.306 78.961C351.382 79.0243 351.42 79.1193 351.42 79.246V80.082C351.42 80.2213 351.382 80.3417 351.306 80.443C351.23 80.5317 351.123 80.6203 350.983 80.709L345.891 84.186L350.983 87.663C351.123 87.7643 351.23 87.8593 351.306 87.948C351.382 88.0367 351.42 88.157 351.42 88.309V89.145C351.42 89.259 351.382 89.354 351.306 89.43C351.23 89.4933 351.142 89.525 351.04 89.525ZM419.162 89.506C419.061 89.506 418.972 89.4743 418.896 89.411C418.82 89.3477 418.782 89.2527 418.782 89.126V88.29C418.782 88.138 418.814 88.0177 418.877 87.929C418.953 87.8403 419.067 87.7517 419.219 87.663L424.292 84.186L419.219 80.709C419.067 80.6077 418.953 80.5127 418.877 80.424C418.814 80.3353 418.782 80.215 418.782 80.063V79.227C418.782 79.1003 418.82 79.0053 418.896 78.942C418.972 78.8787 419.061 78.847 419.162 78.847C419.238 78.847 419.321 78.8723 419.409 78.923C419.498 78.961 419.568 78.999 419.618 79.037L425.584 83.141C425.787 83.2803 425.926 83.4133 426.002 83.54C426.091 83.6667 426.135 83.825 426.135 84.015V84.338C426.135 84.5153 426.091 84.6737 426.002 84.813C425.926 84.9397 425.787 85.0727 425.584 85.212L419.618 89.316C419.568 89.354 419.498 89.3983 419.409 89.449C419.321 89.487 419.238 89.506 419.162 89.506ZM21.676 120.525C21.6 120.525 21.5177 120.5 21.429 120.449C21.353 120.398 21.2833 120.36 21.22 120.335L15.235 116.212C15.045 116.085 14.9057 115.959 14.817 115.832C14.7283 115.693 14.684 115.534 14.684 115.357V115.015C14.684 114.838 14.7283 114.686 14.817 114.559C14.9057 114.432 15.045 114.299 15.235 114.16L21.22 110.056C21.2833 110.018 21.353 109.974 21.429 109.923C21.5177 109.872 21.6 109.847 21.676 109.847C21.7773 109.847 21.866 109.885 21.942 109.961C22.018 110.024 22.056 110.119 22.056 110.246V111.082C22.056 111.221 22.018 111.342 21.942 111.443C21.866 111.532 21.7583 111.62 21.619 111.709L16.527 115.186L21.619 118.663C21.7583 118.764 21.866 118.859 21.942 118.948C22.018 119.037 22.056 119.157 22.056 119.309V120.145C22.056 120.259 22.018 120.354 21.942 120.43C21.866 120.493 21.7773 120.525 21.676 120.525ZM464.027 120.506C463.926 120.506 463.837 120.474 463.761 120.411C463.685 120.348 463.647 120.253 463.647 120.126V119.29C463.647 119.138 463.679 119.018 463.742 118.929C463.818 118.84 463.932 118.752 464.084 118.663L469.157 115.186L464.084 111.709C463.932 111.608 463.818 111.513 463.742 111.424C463.679 111.335 463.647 111.215 463.647 111.063V110.227C463.647 110.1 463.685 110.005 463.761 109.942C463.837 109.879 463.926 109.847 464.027 109.847C464.103 109.847 464.186 109.872 464.274 109.923C464.363 109.961 464.433 109.999 464.483 110.037L470.449 114.141C470.652 114.28 470.791 114.413 470.867 114.54C470.956 114.667 471 114.825 471 115.015V115.338C471 115.515 470.956 115.674 470.867 115.813C470.791 115.94 470.652 116.073 470.449 116.212L464.483 120.316C464.433 120.354 464.363 120.398 464.274 120.449C464.186 120.487 464.103 120.506 464.027 120.506Z" fill="#647DFF"/>
<path d="M29.8708 90C29.7441 90 29.6365 89.962 29.5478 89.886C29.4718 89.7973 29.4338 89.6897 29.4338 89.563V76.947C29.4338 76.8203 29.4718 76.719 29.5478 76.643C29.6365 76.5543 29.7441 76.51 29.8708 76.51H30.7638C30.9031 76.51 31.0108 76.5543 31.0868 76.643C31.1628 76.719 31.2008 76.8203 31.2008 76.947V89.563C31.2008 89.6897 31.1628 89.7973 31.0868 89.886C31.0108 89.962 30.9031 90 30.7638 90H29.8708ZM36.7899 90.19C36.1566 90.19 35.5802 90.0633 35.0609 89.81C34.5416 89.5567 34.1236 89.2147 33.8069 88.784C33.4902 88.3533 33.3319 87.8657 33.3319 87.321C33.3319 86.447 33.6866 85.7503 34.3959 85.231C35.1052 84.7117 36.0299 84.3697 37.1699 84.205L40.0009 83.806V83.255C40.0009 82.647 39.8236 82.172 39.4689 81.83C39.1269 81.488 38.5632 81.317 37.7779 81.317C37.2079 81.317 36.7456 81.431 36.3909 81.659C36.0489 81.887 35.8082 82.1783 35.6689 82.533C35.5929 82.723 35.4599 82.818 35.2699 82.818H34.4149C34.2756 82.818 34.1679 82.78 34.0919 82.704C34.0286 82.6153 33.9969 82.514 33.9969 82.4C33.9969 82.21 34.0666 81.9757 34.2059 81.697C34.3579 81.4183 34.5859 81.146 34.8899 80.88C35.1939 80.614 35.5802 80.3923 36.0489 80.215C36.5302 80.025 37.1129 79.93 37.7969 79.93C38.5569 79.93 39.1966 80.0313 39.7159 80.234C40.2352 80.424 40.6406 80.6837 40.9319 81.013C41.2359 81.3423 41.4512 81.716 41.5779 82.134C41.7172 82.552 41.7869 82.9763 41.7869 83.407V89.563C41.7869 89.6897 41.7426 89.7973 41.6539 89.886C41.5779 89.962 41.4766 90 41.3499 90H40.4759C40.3366 90 40.2289 89.962 40.1529 89.886C40.0769 89.7973 40.0389 89.6897 40.0389 89.563V88.746C39.8742 88.974 39.6526 89.202 39.3739 89.43C39.0952 89.6453 38.7469 89.829 38.3289 89.981C37.9109 90.1203 37.3979 90.19 36.7899 90.19ZM37.1889 88.765C37.7082 88.765 38.1832 88.6573 38.6139 88.442C39.0446 88.214 39.3802 87.8657 39.6209 87.397C39.8742 86.9283 40.0009 86.3393 40.0009 85.63V85.098L37.7969 85.421C36.8976 85.5477 36.2199 85.763 35.7639 86.067C35.3079 86.3583 35.0799 86.732 35.0799 87.188C35.0799 87.5427 35.1812 87.8403 35.3839 88.081C35.5992 88.309 35.8652 88.48 36.1819 88.594C36.5112 88.708 36.8469 88.765 37.1889 88.765ZM49.4013 90.19C48.6413 90.19 48.008 90.057 47.5013 89.791C46.9946 89.5123 46.5893 89.1703 46.2853 88.765V89.563C46.2853 89.6897 46.241 89.7973 46.1523 89.886C46.0763 89.962 45.975 90 45.8483 90H44.9743C44.8476 90 44.74 89.962 44.6513 89.886C44.5753 89.7973 44.5373 89.6897 44.5373 89.563V76.947C44.5373 76.8203 44.5753 76.719 44.6513 76.643C44.74 76.5543 44.8476 76.51 44.9743 76.51H45.8863C46.0256 76.51 46.1333 76.5543 46.2093 76.643C46.2853 76.719 46.3233 76.8203 46.3233 76.947V81.317C46.64 80.9243 47.0453 80.595 47.5393 80.329C48.046 80.063 48.6666 79.93 49.4013 79.93C50.1106 79.93 50.7123 80.0567 51.2063 80.31C51.713 80.5507 52.1246 80.8863 52.4413 81.317C52.7706 81.7477 53.0176 82.2353 53.1823 82.78C53.347 83.3247 53.4356 83.8947 53.4483 84.49C53.461 84.6927 53.4673 84.8827 53.4673 85.06C53.4673 85.2373 53.461 85.4273 53.4483 85.63C53.4356 86.238 53.347 86.8143 53.1823 87.359C53.0176 87.9037 52.7706 88.3913 52.4413 88.822C52.1246 89.24 51.713 89.5757 51.2063 89.829C50.7123 90.0697 50.1106 90.19 49.4013 90.19ZM49.0023 88.651C49.661 88.651 50.174 88.5117 50.5413 88.233C50.9213 87.9417 51.1936 87.568 51.3583 87.112C51.523 86.6433 51.618 86.143 51.6433 85.611C51.656 85.2437 51.656 84.8763 51.6433 84.509C51.618 83.977 51.523 83.483 51.3583 83.027C51.1936 82.5583 50.9213 82.1847 50.5413 81.906C50.174 81.6147 49.661 81.469 49.0023 81.469C48.407 81.469 47.913 81.6083 47.5203 81.887C47.1276 82.1657 46.83 82.5203 46.6273 82.951C46.4373 83.3817 46.336 83.8187 46.3233 84.262C46.3106 84.4647 46.3043 84.7117 46.3043 85.003C46.3043 85.2817 46.3106 85.5223 46.3233 85.725C46.3486 86.1937 46.45 86.656 46.6273 87.112C46.8173 87.5553 47.1023 87.9227 47.4823 88.214C47.875 88.5053 48.3816 88.651 49.0023 88.651ZM59.7511 90.19C58.4464 90.19 57.4078 89.791 56.6351 88.993C55.8624 88.1823 55.4381 87.0803 55.3621 85.687C55.3494 85.5223 55.3431 85.3133 55.3431 85.06C55.3431 84.794 55.3494 84.5787 55.3621 84.414C55.4128 83.5147 55.6218 82.7293 55.9891 82.058C56.3564 81.374 56.8568 80.8483 57.4901 80.481C58.1361 80.1137 58.8898 79.93 59.7511 79.93C60.7138 79.93 61.5181 80.1327 62.1641 80.538C62.8228 80.9433 63.3231 81.5197 63.6651 82.267C64.0071 83.0143 64.1781 83.8883 64.1781 84.889V85.212C64.1781 85.3513 64.1338 85.459 64.0451 85.535C63.9691 85.611 63.8678 85.649 63.7411 85.649H57.1671C57.1671 85.6617 57.1671 85.687 57.1671 85.725C57.1671 85.763 57.1671 85.7947 57.1671 85.82C57.1924 86.3393 57.3064 86.827 57.5091 87.283C57.7118 87.7263 58.0031 88.0873 58.3831 88.366C58.7631 88.6447 59.2191 88.784 59.7511 88.784C60.2071 88.784 60.5871 88.7143 60.8911 88.575C61.1951 88.4357 61.4421 88.2837 61.6321 88.119C61.8221 87.9417 61.9488 87.8087 62.0121 87.72C62.1261 87.5553 62.2148 87.4603 62.2781 87.435C62.3414 87.397 62.4428 87.378 62.5821 87.378H63.4941C63.6208 87.378 63.7221 87.416 63.7981 87.492C63.8868 87.5553 63.9248 87.6503 63.9121 87.777C63.8994 87.967 63.7981 88.2013 63.6081 88.48C63.4181 88.746 63.1458 89.012 62.7911 89.278C62.4364 89.544 62.0058 89.7657 61.4991 89.943C60.9924 90.1077 60.4098 90.19 59.7511 90.19ZM57.1671 84.338H62.3731V84.281C62.3731 83.711 62.2654 83.2043 62.0501 82.761C61.8474 82.3177 61.5498 81.9693 61.1571 81.716C60.7644 81.45 60.2958 81.317 59.7511 81.317C59.2064 81.317 58.7378 81.45 58.3451 81.716C57.9651 81.9693 57.6738 82.3177 57.4711 82.761C57.2684 83.2043 57.1671 83.711 57.1671 84.281V84.338ZM66.9059 90C66.7793 90 66.6716 89.962 66.5829 89.886C66.5069 89.7973 66.4689 89.6897 66.4689 89.563V76.947C66.4689 76.8203 66.5069 76.719 66.5829 76.643C66.6716 76.5543 66.7793 76.51 66.9059 76.51H67.7989C67.9383 76.51 68.0459 76.5543 68.1219 76.643C68.1979 76.719 68.2359 76.8203 68.2359 76.947V89.563C68.2359 89.6897 68.1979 89.7973 68.1219 89.886C68.0459 89.962 67.9383 90 67.7989 90H66.9059ZM76.7998 90C76.6731 90 76.5654 89.962 76.4767 89.886C76.4008 89.7973 76.3628 89.6897 76.3628 89.563V81.64H74.7478C74.6211 81.64 74.5134 81.602 74.4248 81.526C74.3488 81.4373 74.3108 81.3297 74.3108 81.203V80.557C74.3108 80.4303 74.3488 80.329 74.4248 80.253C74.5134 80.1643 74.6211 80.12 74.7478 80.12H76.3628V79.17C76.3628 78.524 76.4704 77.9603 76.6858 77.479C76.9011 76.985 77.2431 76.605 77.7118 76.339C78.1931 76.073 78.8328 75.94 79.6308 75.94H80.7708C80.8974 75.94 80.9988 75.9843 81.0748 76.073C81.1508 76.149 81.1888 76.2503 81.1888 76.377V77.023C81.1888 77.1497 81.1508 77.2573 81.0748 77.346C80.9988 77.422 80.8974 77.46 80.7708 77.46H79.6688C79.0734 77.46 78.6681 77.6183 78.4528 77.935C78.2374 78.239 78.1298 78.6823 78.1298 79.265V80.12H80.5808C80.7074 80.12 80.8088 80.1643 80.8848 80.253C80.9608 80.329 80.9988 80.4303 80.9988 80.557V81.203C80.9988 81.3297 80.9608 81.4373 80.8848 81.526C80.8088 81.602 80.7074 81.64 80.5808 81.64H78.1298V89.563C78.1298 89.6897 78.0854 89.7973 77.9968 89.886C77.9208 89.962 77.8194 90 77.6928 90H76.7998ZM86.5468 90.19C85.5841 90.19 84.7798 90.0063 84.1338 89.639C83.4878 89.2717 82.9938 88.765 82.6518 88.119C82.3098 87.4603 82.1198 86.713 82.0818 85.877C82.0691 85.6617 82.0628 85.3893 82.0628 85.06C82.0628 84.718 82.0691 84.4457 82.0818 84.243C82.1198 83.3943 82.3098 82.647 82.6518 82.001C83.0064 81.355 83.5068 80.8483 84.1528 80.481C84.7988 80.1137 85.5968 79.93 86.5468 79.93C87.4968 79.93 88.2948 80.1137 88.9408 80.481C89.5868 80.8483 90.0808 81.355 90.4228 82.001C90.7774 82.647 90.9738 83.3943 91.0118 84.243C91.0244 84.4457 91.0308 84.718 91.0308 85.06C91.0308 85.3893 91.0244 85.6617 91.0118 85.877C90.9738 86.713 90.7838 87.4603 90.4418 88.119C90.0998 88.765 89.6058 89.2717 88.9598 89.639C88.3138 90.0063 87.5094 90.19 86.5468 90.19ZM86.5468 88.727C87.3321 88.727 87.9591 88.48 88.4278 87.986C88.8964 87.4793 89.1498 86.7447 89.1878 85.782C89.2004 85.592 89.2068 85.3513 89.2068 85.06C89.2068 84.7687 89.2004 84.528 89.1878 84.338C89.1498 83.3753 88.8964 82.647 88.4278 82.153C87.9591 81.6463 87.3321 81.393 86.5468 81.393C85.7614 81.393 85.1281 81.6463 84.6468 82.153C84.1781 82.647 83.9311 83.3753 83.9058 84.338C83.8931 84.528 83.8867 84.7687 83.8867 85.06C83.8867 85.3513 83.8931 85.592 83.9058 85.782C83.9311 86.7447 84.1781 87.4793 84.6468 87.986C85.1281 88.48 85.7614 88.727 86.5468 88.727ZM93.8469 90C93.7202 90 93.6126 89.962 93.5239 89.886C93.4479 89.7973 93.4099 89.6897 93.4099 89.563V80.576C93.4099 80.4493 93.4479 80.3417 93.5239 80.253C93.6126 80.1643 93.7202 80.12 93.8469 80.12H94.7209C94.8476 80.12 94.9552 80.1643 95.0439 80.253C95.1326 80.3417 95.1769 80.4493 95.1769 80.576V81.412C95.4302 80.9813 95.7786 80.6583 96.2219 80.443C96.6652 80.2277 97.1972 80.12 97.8179 80.12H98.5779C98.7046 80.12 98.8059 80.1643 98.8819 80.253C98.9579 80.329 98.9959 80.4303 98.9959 80.557V81.336C98.9959 81.4627 98.9579 81.564 98.8819 81.64C98.8059 81.716 98.7046 81.754 98.5779 81.754H97.4379C96.7539 81.754 96.2156 81.9567 95.8229 82.362C95.4302 82.7547 95.2339 83.293 95.2339 83.977V89.563C95.2339 89.6897 95.1896 89.7973 95.1009 89.886C95.0122 89.962 94.9046 90 94.7779 90H93.8469ZM105.22 82.666C105.093 82.666 104.992 82.628 104.916 82.552C104.84 82.476 104.802 82.3747 104.802 82.248V81.602C104.802 81.4753 104.84 81.374 104.916 81.298C104.992 81.222 105.093 81.184 105.22 81.184H112.459C112.585 81.184 112.687 81.222 112.763 81.298C112.851 81.374 112.896 81.4753 112.896 81.602V82.248C112.896 82.3747 112.851 82.476 112.763 82.552C112.687 82.628 112.585 82.666 112.459 82.666H105.22ZM105.22 87.416C105.093 87.416 104.992 87.378 104.916 87.302C104.84 87.226 104.802 87.1247 104.802 86.998V86.352C104.802 86.2253 104.84 86.124 104.916 86.048C104.992 85.972 105.093 85.934 105.22 85.934H112.459C112.585 85.934 112.687 85.972 112.763 86.048C112.851 86.124 112.896 86.2253 112.896 86.352V86.998C112.896 87.1247 112.851 87.226 112.763 87.302C112.687 87.378 112.585 87.416 112.459 87.416H105.22ZM123.24 80.177C123.151 80.177 123.075 80.1453 123.012 80.082C122.961 80.0187 122.936 79.9427 122.936 79.854C122.936 79.7527 122.955 79.6513 122.993 79.55L124 76.947C124.063 76.8203 124.126 76.719 124.19 76.643C124.266 76.5543 124.386 76.51 124.551 76.51H125.178C125.279 76.51 125.355 76.548 125.406 76.624C125.469 76.7 125.488 76.8013 125.463 76.928L125.045 79.626C125.032 79.778 124.981 79.911 124.893 80.025C124.804 80.1263 124.671 80.177 124.494 80.177H123.24ZM120.2 80.177C120.111 80.177 120.035 80.1453 119.972 80.082C119.921 80.0187 119.896 79.9427 119.896 79.854C119.896 79.7527 119.915 79.6513 119.953 79.55L120.96 76.947C121.023 76.8203 121.093 76.719 121.169 76.643C121.245 76.5543 121.359 76.51 121.511 76.51H122.138C122.239 76.51 122.315 76.548 122.366 76.624C122.429 76.7 122.448 76.8013 122.423 76.928L122.005 79.626C121.992 79.778 121.941 79.911 121.853 80.025C121.764 80.1263 121.637 80.177 121.473 80.177H120.2ZM192.897 80.177C192.783 80.177 192.7 80.139 192.65 80.063C192.599 79.987 192.58 79.892 192.593 79.778L193.011 77.061C193.036 76.909 193.087 76.7823 193.163 76.681C193.251 76.567 193.384 76.51 193.562 76.51H194.816C194.917 76.51 194.993 76.548 195.044 76.624C195.107 76.6873 195.139 76.757 195.139 76.833C195.139 76.9343 195.113 77.0357 195.063 77.137L194.075 79.74C194.024 79.8667 193.954 79.9743 193.866 80.063C193.79 80.139 193.669 80.177 193.505 80.177H192.897ZM189.857 80.177C189.755 80.177 189.673 80.139 189.61 80.063C189.559 79.987 189.54 79.892 189.553 79.778L189.99 77.061C190.015 76.909 190.066 76.7823 190.142 76.681C190.23 76.567 190.357 76.51 190.522 76.51H191.795C191.883 76.51 191.953 76.548 192.004 76.624C192.067 76.6873 192.099 76.757 192.099 76.833C192.099 76.9343 192.073 77.0357 192.023 77.137L191.035 79.74C190.984 79.8667 190.914 79.9743 190.826 80.063C190.75 80.139 190.629 80.177 190.465 80.177H189.857ZM358.247 91.596C358.146 91.596 358.057 91.558 357.981 91.482C357.905 91.406 357.867 91.3173 357.867 91.216C357.867 91.1527 357.886 91.0767 357.924 90.988L364.422 75.408C364.46 75.332 364.511 75.256 364.574 75.18C364.65 75.104 364.764 75.066 364.916 75.066H365.657C365.758 75.066 365.847 75.104 365.923 75.18C365.999 75.256 366.037 75.3447 366.037 75.446C366.037 75.4967 366.024 75.5727 365.999 75.674L359.482 91.254C359.457 91.3173 359.4 91.387 359.311 91.463C359.235 91.5517 359.127 91.596 358.988 91.596H358.247ZM373.04 90C372.913 90 372.805 89.962 372.717 89.886C372.641 89.7973 372.603 89.6897 372.603 89.563V76.947C372.603 76.8203 372.641 76.719 372.717 76.643C372.805 76.5543 372.913 76.51 373.04 76.51H373.933C374.072 76.51 374.18 76.5543 374.256 76.643C374.332 76.719 374.37 76.8203 374.37 76.947V89.563C374.37 89.6897 374.332 89.7973 374.256 89.886C374.18 89.962 374.072 90 373.933 90H373.04ZM379.959 90.19C379.326 90.19 378.749 90.0633 378.23 89.81C377.711 89.5567 377.293 89.2147 376.976 88.784C376.659 88.3533 376.501 87.8657 376.501 87.321C376.501 86.447 376.856 85.7503 377.565 85.231C378.274 84.7117 379.199 84.3697 380.339 84.205L383.17 83.806V83.255C383.17 82.647 382.993 82.172 382.638 81.83C382.296 81.488 381.732 81.317 380.947 81.317C380.377 81.317 379.915 81.431 379.56 81.659C379.218 81.887 378.977 82.1783 378.838 82.533C378.762 82.723 378.629 82.818 378.439 82.818H377.584C377.445 82.818 377.337 82.78 377.261 82.704C377.198 82.6153 377.166 82.514 377.166 82.4C377.166 82.21 377.236 81.9757 377.375 81.697C377.527 81.4183 377.755 81.146 378.059 80.88C378.363 80.614 378.749 80.3923 379.218 80.215C379.699 80.025 380.282 79.93 380.966 79.93C381.726 79.93 382.366 80.0313 382.885 80.234C383.404 80.424 383.81 80.6837 384.101 81.013C384.405 81.3423 384.62 81.716 384.747 82.134C384.886 82.552 384.956 82.9763 384.956 83.407V89.563C384.956 89.6897 384.912 89.7973 384.823 89.886C384.747 89.962 384.646 90 384.519 90H383.645C383.506 90 383.398 89.962 383.322 89.886C383.246 89.7973 383.208 89.6897 383.208 89.563V88.746C383.043 88.974 382.822 89.202 382.543 89.43C382.264 89.6453 381.916 89.829 381.498 89.981C381.08 90.1203 380.567 90.19 379.959 90.19ZM380.358 88.765C380.877 88.765 381.352 88.6573 381.783 88.442C382.214 88.214 382.549 87.8657 382.79 87.397C383.043 86.9283 383.17 86.3393 383.17 85.63V85.098L380.966 85.421C380.067 85.5477 379.389 85.763 378.933 86.067C378.477 86.3583 378.249 86.732 378.249 87.188C378.249 87.5427 378.35 87.8403 378.553 88.081C378.768 88.309 379.034 88.48 379.351 88.594C379.68 88.708 380.016 88.765 380.358 88.765ZM392.57 90.19C391.81 90.19 391.177 90.057 390.67 89.791C390.164 89.5123 389.758 89.1703 389.454 88.765V89.563C389.454 89.6897 389.41 89.7973 389.321 89.886C389.245 89.962 389.144 90 389.017 90H388.143C388.017 90 387.909 89.962 387.82 89.886C387.744 89.7973 387.706 89.6897 387.706 89.563V76.947C387.706 76.8203 387.744 76.719 387.82 76.643C387.909 76.5543 388.017 76.51 388.143 76.51H389.055C389.195 76.51 389.302 76.5543 389.378 76.643C389.454 76.719 389.492 76.8203 389.492 76.947V81.317C389.809 80.9243 390.214 80.595 390.708 80.329C391.215 80.063 391.836 79.93 392.57 79.93C393.28 79.93 393.881 80.0567 394.375 80.31C394.882 80.5507 395.294 80.8863 395.61 81.317C395.94 81.7477 396.187 82.2353 396.351 82.78C396.516 83.3247 396.605 83.8947 396.617 84.49C396.63 84.6927 396.636 84.8827 396.636 85.06C396.636 85.2373 396.63 85.4273 396.617 85.63C396.605 86.238 396.516 86.8143 396.351 87.359C396.187 87.9037 395.94 88.3913 395.61 88.822C395.294 89.24 394.882 89.5757 394.375 89.829C393.881 90.0697 393.28 90.19 392.57 90.19ZM392.171 88.651C392.83 88.651 393.343 88.5117 393.71 88.233C394.09 87.9417 394.363 87.568 394.527 87.112C394.692 86.6433 394.787 86.143 394.812 85.611C394.825 85.2437 394.825 84.8763 394.812 84.509C394.787 83.977 394.692 83.483 394.527 83.027C394.363 82.5583 394.09 82.1847 393.71 81.906C393.343 81.6147 392.83 81.469 392.171 81.469C391.576 81.469 391.082 81.6083 390.689 81.887C390.297 82.1657 389.999 82.5203 389.796 82.951C389.606 83.3817 389.505 83.8187 389.492 84.262C389.48 84.4647 389.473 84.7117 389.473 85.003C389.473 85.2817 389.48 85.5223 389.492 85.725C389.518 86.1937 389.619 86.656 389.796 87.112C389.986 87.5553 390.271 87.9227 390.651 88.214C391.044 88.5053 391.551 88.651 392.171 88.651ZM402.92 90.19C401.615 90.19 400.577 89.791 399.804 88.993C399.031 88.1823 398.607 87.0803 398.531 85.687C398.518 85.5223 398.512 85.3133 398.512 85.06C398.512 84.794 398.518 84.5787 398.531 84.414C398.582 83.5147 398.791 82.7293 399.158 82.058C399.525 81.374 400.026 80.8483 400.659 80.481C401.305 80.1137 402.059 79.93 402.92 79.93C403.883 79.93 404.687 80.1327 405.333 80.538C405.992 80.9433 406.492 81.5197 406.834 82.267C407.176 83.0143 407.347 83.8883 407.347 84.889V85.212C407.347 85.3513 407.303 85.459 407.214 85.535C407.138 85.611 407.037 85.649 406.91 85.649H400.336C400.336 85.6617 400.336 85.687 400.336 85.725C400.336 85.763 400.336 85.7947 400.336 85.82C400.361 86.3393 400.475 86.827 400.678 87.283C400.881 87.7263 401.172 88.0873 401.552 88.366C401.932 88.6447 402.388 88.784 402.92 88.784C403.376 88.784 403.756 88.7143 404.06 88.575C404.364 88.4357 404.611 88.2837 404.801 88.119C404.991 87.9417 405.118 87.8087 405.181 87.72C405.295 87.5553 405.384 87.4603 405.447 87.435C405.51 87.397 405.612 87.378 405.751 87.378H406.663C406.79 87.378 406.891 87.416 406.967 87.492C407.056 87.5553 407.094 87.6503 407.081 87.777C407.068 87.967 406.967 88.2013 406.777 88.48C406.587 88.746 406.315 89.012 405.96 89.278C405.605 89.544 405.175 89.7657 404.668 89.943C404.161 90.1077 403.579 90.19 402.92 90.19ZM400.336 84.338H405.542V84.281C405.542 83.711 405.434 83.2043 405.219 82.761C405.016 82.3177 404.719 81.9693 404.326 81.716C403.933 81.45 403.465 81.317 402.92 81.317C402.375 81.317 401.907 81.45 401.514 81.716C401.134 81.9693 400.843 82.3177 400.64 82.761C400.437 83.2043 400.336 83.711 400.336 84.281V84.338ZM410.075 90C409.948 90 409.841 89.962 409.752 89.886C409.676 89.7973 409.638 89.6897 409.638 89.563V76.947C409.638 76.8203 409.676 76.719 409.752 76.643C409.841 76.5543 409.948 76.51 410.075 76.51H410.968C411.107 76.51 411.215 76.5543 411.291 76.643C411.367 76.719 411.405 76.8203 411.405 76.947V89.563C411.405 89.6897 411.367 89.7973 411.291 89.886C411.215 89.962 411.107 90 410.968 90H410.075ZM29.8518 121C29.7251 121 29.6175 120.962 29.5288 120.886C29.4528 120.797 29.4148 120.69 29.4148 120.563V111.557C29.4148 111.43 29.4528 111.329 29.5288 111.253C29.6175 111.164 29.7251 111.12 29.8518 111.12H30.7638C30.8905 111.12 30.9918 111.164 31.0678 111.253C31.1438 111.329 31.1818 111.43 31.1818 111.557V120.563C31.1818 120.69 31.1438 120.797 31.0678 120.886C30.9918 120.962 30.8905 121 30.7638 121H29.8518ZM29.6998 109.277C29.5731 109.277 29.4655 109.239 29.3768 109.163C29.3008 109.074 29.2628 108.967 29.2628 108.84V107.814C29.2628 107.687 29.3008 107.586 29.3768 107.51C29.4655 107.421 29.5731 107.377 29.6998 107.377H30.8968C31.0235 107.377 31.1248 107.421 31.2008 107.51C31.2895 107.586 31.3338 107.687 31.3338 107.814V108.84C31.3338 108.967 31.2895 109.074 31.2008 109.163C31.1248 109.239 31.0235 109.277 30.8968 109.277H29.6998ZM34.6389 121C34.5122 121 34.4046 120.962 34.3159 120.886C34.2399 120.797 34.2019 120.69 34.2019 120.563V111.557C34.2019 111.43 34.2399 111.329 34.3159 111.253C34.4046 111.164 34.5122 111.12 34.6389 111.12H35.5319C35.6586 111.12 35.7599 111.164 35.8359 111.253C35.9246 111.329 35.9689 111.43 35.9689 111.557V112.393C36.2982 111.962 36.7099 111.614 37.2039 111.348C37.7106 111.069 38.3566 110.93 39.1419 110.93C39.9652 110.93 40.6619 111.114 41.2319 111.481C41.8146 111.836 42.2516 112.336 42.5429 112.982C42.8342 113.615 42.9799 114.356 42.9799 115.205V120.563C42.9799 120.69 42.9419 120.797 42.8659 120.886C42.7899 120.962 42.6886 121 42.5619 121H41.6119C41.4852 121 41.3776 120.962 41.2889 120.886C41.2129 120.797 41.1749 120.69 41.1749 120.563V115.3C41.1749 114.413 40.9596 113.723 40.5289 113.229C40.0982 112.722 39.4649 112.469 38.6289 112.469C37.8436 112.469 37.2102 112.722 36.7289 113.229C36.2602 113.723 36.0259 114.413 36.0259 115.3V120.563C36.0259 120.69 35.9816 120.797 35.8929 120.886C35.8169 120.962 35.7156 121 35.5889 121H34.6389ZM46.1804 124.61C46.0537 124.61 45.946 124.566 45.8574 124.477C45.7814 124.401 45.7434 124.3 45.7434 124.173V111.557C45.7434 111.43 45.7814 111.329 45.8574 111.253C45.946 111.164 46.0537 111.12 46.1804 111.12H47.0544C47.181 111.12 47.2824 111.164 47.3584 111.253C47.447 111.329 47.4914 111.43 47.4914 111.557V112.393C47.7954 111.975 48.2007 111.627 48.7074 111.348C49.214 111.069 49.8474 110.93 50.6074 110.93C51.3167 110.93 51.9184 111.05 52.4124 111.291C52.919 111.532 53.3307 111.861 53.6474 112.279C53.9767 112.697 54.2237 113.172 54.3884 113.704C54.553 114.236 54.6417 114.806 54.6544 115.414C54.667 115.617 54.6734 115.832 54.6734 116.06C54.6734 116.288 54.667 116.503 54.6544 116.706C54.6417 117.301 54.553 117.871 54.3884 118.416C54.2237 118.948 53.9767 119.423 53.6474 119.841C53.3307 120.246 52.919 120.576 52.4124 120.829C51.9184 121.07 51.3167 121.19 50.6074 121.19C49.8727 121.19 49.252 121.057 48.7454 120.791C48.2514 120.512 47.846 120.17 47.5294 119.765V124.173C47.5294 124.3 47.4914 124.401 47.4154 124.477C47.3394 124.566 47.2317 124.61 47.0924 124.61H46.1804ZM50.2084 119.651C50.867 119.651 51.38 119.512 51.7474 119.233C52.1274 118.942 52.3997 118.568 52.5644 118.112C52.729 117.643 52.824 117.143 52.8494 116.611C52.862 116.244 52.862 115.876 52.8494 115.509C52.824 114.977 52.729 114.483 52.5644 114.027C52.3997 113.558 52.1274 113.185 51.7474 112.906C51.38 112.615 50.867 112.469 50.2084 112.469C49.5877 112.469 49.081 112.615 48.6884 112.906C48.3084 113.197 48.0234 113.571 47.8334 114.027C47.656 114.47 47.5547 114.926 47.5294 115.395C47.5167 115.598 47.5104 115.838 47.5104 116.117C47.5104 116.396 47.5167 116.643 47.5294 116.858C47.542 117.301 47.6434 117.738 47.8334 118.169C48.036 118.6 48.3337 118.954 48.7264 119.233C49.119 119.512 49.613 119.651 50.2084 119.651ZM60.7287 121.19C59.9181 121.19 59.2277 121.013 58.6577 120.658C58.1004 120.291 57.6761 119.784 57.3847 119.138C57.0934 118.492 56.9477 117.751 56.9477 116.915V111.557C56.9477 111.43 56.9857 111.329 57.0617 111.253C57.1504 111.164 57.2581 111.12 57.3847 111.12H58.3347C58.4614 111.12 58.5627 111.164 58.6387 111.253C58.7274 111.329 58.7717 111.43 58.7717 111.557V116.82C58.7717 118.707 59.5951 119.651 61.2417 119.651C62.0271 119.651 62.6541 119.404 63.1227 118.91C63.6041 118.403 63.8447 117.707 63.8447 116.82V111.557C63.8447 111.43 63.8827 111.329 63.9587 111.253C64.0474 111.164 64.1551 111.12 64.2817 111.12H65.2127C65.3521 111.12 65.4597 111.164 65.5357 111.253C65.6117 111.329 65.6497 111.43 65.6497 111.557V120.563C65.6497 120.69 65.6117 120.797 65.5357 120.886C65.4597 120.962 65.3521 121 65.2127 121H64.3387C64.2121 121 64.1044 120.962 64.0157 120.886C63.9397 120.797 63.9017 120.69 63.9017 120.563V119.727C63.5597 120.17 63.1417 120.525 62.6477 120.791C62.1664 121.057 61.5267 121.19 60.7287 121.19ZM72.3294 121C71.6201 121 71.0437 120.867 70.6004 120.601C70.1571 120.322 69.8341 119.936 69.6314 119.442C69.4287 118.935 69.3274 118.34 69.3274 117.656V112.64H67.8454C67.7187 112.64 67.6111 112.602 67.5224 112.526C67.4464 112.437 67.4084 112.33 67.4084 112.203V111.557C67.4084 111.43 67.4464 111.329 67.5224 111.253C67.6111 111.164 67.7187 111.12 67.8454 111.12H69.3274V107.947C69.3274 107.82 69.3654 107.719 69.4414 107.643C69.5301 107.554 69.6377 107.51 69.7644 107.51H70.6574C70.7841 107.51 70.8854 107.554 70.9614 107.643C71.0501 107.719 71.0944 107.82 71.0944 107.947V111.12H73.4504C73.5771 111.12 73.6784 111.164 73.7544 111.253C73.8431 111.329 73.8874 111.43 73.8874 111.557V112.203C73.8874 112.33 73.8431 112.437 73.7544 112.526C73.6784 112.602 73.5771 112.64 73.4504 112.64H71.0944V117.523C71.0944 118.118 71.1957 118.587 71.3984 118.929C71.6011 119.271 71.9621 119.442 72.4814 119.442H73.6404C73.7671 119.442 73.8684 119.486 73.9444 119.575C74.0331 119.651 74.0774 119.752 74.0774 119.879V120.563C74.0774 120.69 74.0331 120.797 73.9444 120.886C73.8684 120.962 73.7671 121 73.6404 121H72.3294ZM84.0003 121C83.291 121 82.7146 120.867 82.2713 120.601C81.828 120.322 81.505 119.936 81.3023 119.442C81.0996 118.935 80.9983 118.34 80.9983 117.656V112.64H79.5163C79.3896 112.64 79.282 112.602 79.1933 112.526C79.1173 112.437 79.0793 112.33 79.0793 112.203V111.557C79.0793 111.43 79.1173 111.329 79.1933 111.253C79.282 111.164 79.3896 111.12 79.5163 111.12H80.9983V107.947C80.9983 107.82 81.0363 107.719 81.1123 107.643C81.201 107.554 81.3086 107.51 81.4353 107.51H82.3283C82.455 107.51 82.5563 107.554 82.6323 107.643C82.721 107.719 82.7653 107.82 82.7653 107.947V111.12H85.1213C85.248 111.12 85.3493 111.164 85.4253 111.253C85.514 111.329 85.5583 111.43 85.5583 111.557V112.203C85.5583 112.33 85.514 112.437 85.4253 112.526C85.3493 112.602 85.248 112.64 85.1213 112.64H82.7653V117.523C82.7653 118.118 82.8666 118.587 83.0693 118.929C83.272 119.271 83.633 119.442 84.1523 119.442H85.3113C85.438 119.442 85.5393 119.486 85.6153 119.575C85.704 119.651 85.7483 119.752 85.7483 119.879V120.563C85.7483 120.69 85.704 120.797 85.6153 120.886C85.5393 120.962 85.438 121 85.3113 121H84.0003ZM89.2942 124.61C89.1928 124.61 89.1042 124.572 89.0282 124.496C88.9522 124.42 88.9142 124.331 88.9142 124.23C88.9142 124.179 88.9205 124.129 88.9332 124.078C88.9458 124.027 88.9712 123.964 89.0092 123.888L90.4722 120.411L86.8432 111.842C86.7798 111.69 86.7482 111.582 86.7482 111.519C86.7482 111.405 86.7862 111.31 86.8622 111.234C86.9382 111.158 87.0332 111.12 87.1472 111.12H88.0782C88.2048 111.12 88.3062 111.152 88.3822 111.215C88.4582 111.278 88.5088 111.354 88.5342 111.443L91.4222 118.359L94.3862 111.443C94.4242 111.354 94.4748 111.278 94.5382 111.215C94.6142 111.152 94.7218 111.12 94.8612 111.12H95.7542C95.8682 111.12 95.9632 111.158 96.0392 111.234C96.1152 111.31 96.1532 111.399 96.1532 111.5C96.1532 111.563 96.1215 111.677 96.0582 111.842L90.6622 124.287C90.6242 124.376 90.5672 124.452 90.4912 124.515C90.4278 124.578 90.3265 124.61 90.1872 124.61H89.2942ZM98.486 124.61C98.3594 124.61 98.2517 124.566 98.163 124.477C98.087 124.401 98.049 124.3 98.049 124.173V111.557C98.049 111.43 98.087 111.329 98.163 111.253C98.2517 111.164 98.3594 111.12 98.486 111.12H99.36C99.4867 111.12 99.588 111.164 99.664 111.253C99.7527 111.329 99.797 111.43 99.797 111.557V112.393C100.101 111.975 100.506 111.627 101.013 111.348C101.52 111.069 102.153 110.93 102.913 110.93C103.622 110.93 104.224 111.05 104.718 111.291C105.225 111.532 105.636 111.861 105.953 112.279C106.282 112.697 106.529 113.172 106.694 113.704C106.859 114.236 106.947 114.806 106.96 115.414C106.973 115.617 106.979 115.832 106.979 116.06C106.979 116.288 106.973 116.503 106.96 116.706C106.947 117.301 106.859 117.871 106.694 118.416C106.529 118.948 106.282 119.423 105.953 119.841C105.636 120.246 105.225 120.576 104.718 120.829C104.224 121.07 103.622 121.19 102.913 121.19C102.178 121.19 101.558 121.057 101.051 120.791C100.557 120.512 100.152 120.17 99.835 119.765V124.173C99.835 124.3 99.797 124.401 99.721 124.477C99.645 124.566 99.5374 124.61 99.398 124.61H98.486ZM102.514 119.651C103.173 119.651 103.686 119.512 104.053 119.233C104.433 118.942 104.705 118.568 104.87 118.112C105.035 117.643 105.13 117.143 105.155 116.611C105.168 116.244 105.168 115.876 105.155 115.509C105.13 114.977 105.035 114.483 104.87 114.027C104.705 113.558 104.433 113.185 104.053 112.906C103.686 112.615 103.173 112.469 102.514 112.469C101.893 112.469 101.387 112.615 100.994 112.906C100.614 113.197 100.329 113.571 100.139 114.027C99.9617 114.47 99.8604 114.926 99.835 115.395C99.8224 115.598 99.816 115.838 99.816 116.117C99.816 116.396 99.8224 116.643 99.835 116.858C99.8477 117.301 99.949 117.738 100.139 118.169C100.342 118.6 100.639 118.954 101.032 119.233C101.425 119.512 101.919 119.651 102.514 119.651ZM113.281 121.19C111.977 121.19 110.938 120.791 110.165 119.993C109.393 119.182 108.968 118.08 108.892 116.687C108.88 116.522 108.873 116.313 108.873 116.06C108.873 115.794 108.88 115.579 108.892 115.414C108.943 114.515 109.152 113.729 109.519 113.058C109.887 112.374 110.387 111.848 111.02 111.481C111.666 111.114 112.42 110.93 113.281 110.93C114.244 110.93 115.048 111.133 115.694 111.538C116.353 111.943 116.853 112.52 117.195 113.267C117.537 114.014 117.708 114.888 117.708 115.889V116.212C117.708 116.351 117.664 116.459 117.575 116.535C117.499 116.611 117.398 116.649 117.271 116.649H110.697C110.697 116.662 110.697 116.687 110.697 116.725C110.697 116.763 110.697 116.795 110.697 116.82C110.723 117.339 110.837 117.827 111.039 118.283C111.242 118.726 111.533 119.087 111.913 119.366C112.293 119.645 112.749 119.784 113.281 119.784C113.737 119.784 114.117 119.714 114.421 119.575C114.725 119.436 114.972 119.284 115.162 119.119C115.352 118.942 115.479 118.809 115.542 118.72C115.656 118.555 115.745 118.46 115.808 118.435C115.872 118.397 115.973 118.378 116.112 118.378H117.024C117.151 118.378 117.252 118.416 117.328 118.492C117.417 118.555 117.455 118.65 117.442 118.777C117.43 118.967 117.328 119.201 117.138 119.48C116.948 119.746 116.676 120.012 116.321 120.278C115.967 120.544 115.536 120.766 115.029 120.943C114.523 121.108 113.94 121.19 113.281 121.19ZM110.697 115.338H115.903V115.281C115.903 114.711 115.796 114.204 115.58 113.761C115.378 113.318 115.08 112.969 114.687 112.716C114.295 112.45 113.826 112.317 113.281 112.317C112.737 112.317 112.268 112.45 111.875 112.716C111.495 112.969 111.204 113.318 111.001 113.761C110.799 114.204 110.697 114.711 110.697 115.281V115.338ZM125.017 113.666C124.891 113.666 124.789 113.628 124.713 113.552C124.637 113.476 124.599 113.375 124.599 113.248V112.602C124.599 112.475 124.637 112.374 124.713 112.298C124.789 112.222 124.891 112.184 125.017 112.184H132.256C132.383 112.184 132.484 112.222 132.56 112.298C132.649 112.374 132.693 112.475 132.693 112.602V113.248C132.693 113.375 132.649 113.476 132.56 113.552C132.484 113.628 132.383 113.666 132.256 113.666H125.017ZM125.017 118.416C124.891 118.416 124.789 118.378 124.713 118.302C124.637 118.226 124.599 118.125 124.599 117.998V117.352C124.599 117.225 124.637 117.124 124.713 117.048C124.789 116.972 124.891 116.934 125.017 116.934H132.256C132.383 116.934 132.484 116.972 132.56 117.048C132.649 117.124 132.693 117.225 132.693 117.352V117.998C132.693 118.125 132.649 118.226 132.56 118.302C132.484 118.378 132.383 118.416 132.256 118.416H125.017ZM143.038 111.177C142.949 111.177 142.873 111.145 142.81 111.082C142.759 111.019 142.734 110.943 142.734 110.854C142.734 110.753 142.753 110.651 142.791 110.55L143.798 107.947C143.861 107.82 143.924 107.719 143.988 107.643C144.064 107.554 144.184 107.51 144.349 107.51H144.976C145.077 107.51 145.153 107.548 145.204 107.624C145.267 107.7 145.286 107.801 145.261 107.928L144.843 110.626C144.83 110.778 144.779 110.911 144.691 111.025C144.602 111.126 144.469 111.177 144.292 111.177H143.038ZM139.998 111.177C139.909 111.177 139.833 111.145 139.77 111.082C139.719 111.019 139.694 110.943 139.694 110.854C139.694 110.753 139.713 110.651 139.751 110.55L140.758 107.947C140.821 107.82 140.891 107.719 140.967 107.643C141.043 107.554 141.157 107.51 141.309 107.51H141.936C142.037 107.51 142.113 107.548 142.164 107.624C142.227 107.7 142.246 107.801 142.221 107.928L141.803 110.626C141.79 110.778 141.739 110.911 141.651 111.025C141.562 111.126 141.435 111.177 141.271 111.177H139.998ZM185.642 111.177C185.528 111.177 185.446 111.139 185.395 111.063C185.344 110.987 185.325 110.892 185.338 110.778L185.756 108.061C185.781 107.909 185.832 107.782 185.908 107.681C185.997 107.567 186.13 107.51 186.307 107.51H187.561C187.662 107.51 187.738 107.548 187.789 107.624C187.852 107.687 187.884 107.757 187.884 107.833C187.884 107.934 187.859 108.036 187.808 108.137L186.82 110.74C186.769 110.867 186.7 110.974 186.611 111.063C186.535 111.139 186.415 111.177 186.25 111.177H185.642ZM182.602 111.177C182.501 111.177 182.418 111.139 182.355 111.063C182.304 110.987 182.285 110.892 182.298 110.778L182.735 108.061C182.76 107.909 182.811 107.782 182.887 107.681C182.976 107.567 183.102 107.51 183.267 107.51H184.54C184.629 107.51 184.698 107.548 184.749 107.624C184.812 107.687 184.844 107.757 184.844 107.833C184.844 107.934 184.819 108.036 184.768 108.137L183.78 110.74C183.729 110.867 183.66 110.974 183.571 111.063C183.495 111.139 183.375 111.177 183.21 111.177H182.602ZM195.081 121C194.955 121 194.847 120.962 194.758 120.886C194.682 120.797 194.644 120.69 194.644 120.563V111.557C194.644 111.43 194.682 111.329 194.758 111.253C194.847 111.164 194.955 111.12 195.081 111.12H195.993C196.12 111.12 196.221 111.164 196.297 111.253C196.373 111.329 196.411 111.43 196.411 111.557V120.563C196.411 120.69 196.373 120.797 196.297 120.886C196.221 120.962 196.12 121 195.993 121H195.081ZM194.929 109.277C194.803 109.277 194.695 109.239 194.606 109.163C194.53 109.074 194.492 108.967 194.492 108.84V107.814C194.492 107.687 194.53 107.586 194.606 107.51C194.695 107.421 194.803 107.377 194.929 107.377H196.126C196.253 107.377 196.354 107.421 196.43 107.51C196.519 107.586 196.563 107.687 196.563 107.814V108.84C196.563 108.967 196.519 109.074 196.43 109.163C196.354 109.239 196.253 109.277 196.126 109.277H194.929ZM202.856 121.19C202.159 121.19 201.558 121.07 201.051 120.829C200.544 120.576 200.126 120.24 199.797 119.822C199.48 119.391 199.24 118.904 199.075 118.359C198.923 117.814 198.834 117.238 198.809 116.63C198.796 116.427 198.79 116.237 198.79 116.06C198.79 115.883 198.796 115.693 198.809 115.49C198.834 114.895 198.923 114.325 199.075 113.78C199.24 113.235 199.48 112.748 199.797 112.317C200.126 111.886 200.544 111.551 201.051 111.31C201.558 111.057 202.159 110.93 202.856 110.93C203.603 110.93 204.224 111.063 204.718 111.329C205.212 111.595 205.617 111.924 205.934 112.317V107.947C205.934 107.82 205.972 107.719 206.048 107.643C206.137 107.554 206.244 107.51 206.371 107.51H207.283C207.41 107.51 207.511 107.554 207.587 107.643C207.676 107.719 207.72 107.82 207.72 107.947V120.563C207.72 120.69 207.676 120.797 207.587 120.886C207.511 120.962 207.41 121 207.283 121H206.428C206.289 121 206.181 120.962 206.105 120.886C206.029 120.797 205.991 120.69 205.991 120.563V119.765C205.674 120.17 205.263 120.512 204.756 120.791C204.249 121.057 203.616 121.19 202.856 121.19ZM203.255 119.651C203.888 119.651 204.395 119.505 204.775 119.214C205.155 118.923 205.44 118.555 205.63 118.112C205.82 117.656 205.921 117.194 205.934 116.725C205.947 116.522 205.953 116.282 205.953 116.003C205.953 115.712 205.947 115.465 205.934 115.262C205.921 114.819 205.814 114.382 205.611 113.951C205.421 113.52 205.13 113.166 204.737 112.887C204.357 112.608 203.863 112.469 203.255 112.469C202.609 112.469 202.096 112.615 201.716 112.906C201.336 113.185 201.064 113.558 200.899 114.027C200.734 114.483 200.639 114.977 200.614 115.509C200.601 115.876 200.601 116.244 200.614 116.611C200.639 117.143 200.734 117.643 200.899 118.112C201.064 118.568 201.336 118.942 201.716 119.233C202.096 119.512 202.609 119.651 203.255 119.651ZM215.583 113.666C215.456 113.666 215.355 113.628 215.279 113.552C215.203 113.476 215.165 113.375 215.165 113.248V112.602C215.165 112.475 215.203 112.374 215.279 112.298C215.355 112.222 215.456 112.184 215.583 112.184H222.822C222.949 112.184 223.05 112.222 223.126 112.298C223.215 112.374 223.259 112.475 223.259 112.602V113.248C223.259 113.375 223.215 113.476 223.126 113.552C223.05 113.628 222.949 113.666 222.822 113.666H215.583ZM215.583 118.416C215.456 118.416 215.355 118.378 215.279 118.302C215.203 118.226 215.165 118.125 215.165 117.998V117.352C215.165 117.225 215.203 117.124 215.279 117.048C215.355 116.972 215.456 116.934 215.583 116.934H222.822C222.949 116.934 223.05 116.972 223.126 117.048C223.215 117.124 223.259 117.225 223.259 117.352V117.998C223.259 118.125 223.215 118.226 223.126 118.302C223.05 118.378 222.949 118.416 222.822 118.416H215.583ZM233.603 111.177C233.514 111.177 233.438 111.145 233.375 111.082C233.324 111.019 233.299 110.943 233.299 110.854C233.299 110.753 233.318 110.651 233.356 110.55L234.363 107.947C234.426 107.82 234.49 107.719 234.553 107.643C234.629 107.554 234.749 107.51 234.914 107.51H235.541C235.642 107.51 235.718 107.548 235.769 107.624C235.832 107.7 235.851 107.801 235.826 107.928L235.408 110.626C235.395 110.778 235.345 110.911 235.256 111.025C235.167 111.126 235.034 111.177 234.857 111.177H233.603ZM230.563 111.177C230.474 111.177 230.398 111.145 230.335 111.082C230.284 111.019 230.259 110.943 230.259 110.854C230.259 110.753 230.278 110.651 230.316 110.55L231.323 107.947C231.386 107.82 231.456 107.719 231.532 107.643C231.608 107.554 231.722 107.51 231.874 107.51H232.501C232.602 107.51 232.678 107.548 232.729 107.624C232.792 107.7 232.811 107.801 232.786 107.928L232.368 110.626C232.355 110.778 232.305 110.911 232.216 111.025C232.127 111.126 232.001 111.177 231.836 111.177H230.563ZM303.146 111.177C303.057 111.177 302.981 111.145 302.918 111.082C302.867 111.019 302.842 110.943 302.842 110.854C302.842 110.753 302.861 110.651 302.899 110.55L303.906 107.947C303.969 107.82 304.033 107.719 304.096 107.643C304.172 107.554 304.292 107.51 304.457 107.51H305.084C305.185 107.51 305.261 107.548 305.312 107.624C305.375 107.7 305.394 107.801 305.369 107.928L304.951 110.626C304.938 110.778 304.888 110.911 304.799 111.025C304.71 111.126 304.577 111.177 304.4 111.177H303.146ZM300.106 111.177C300.017 111.177 299.941 111.145 299.878 111.082C299.827 111.019 299.802 110.943 299.802 110.854C299.802 110.753 299.821 110.651 299.859 110.55L300.866 107.947C300.929 107.82 300.999 107.719 301.075 107.643C301.151 107.554 301.265 107.51 301.417 107.51H302.044C302.145 107.51 302.221 107.548 302.272 107.624C302.335 107.7 302.354 107.801 302.329 107.928L301.911 110.626C301.898 110.778 301.848 110.911 301.759 111.025C301.67 111.126 301.544 111.177 301.379 111.177H300.106ZM312.829 121C312.703 121 312.595 120.962 312.506 120.886C312.43 120.797 312.392 120.69 312.392 120.563V111.557C312.392 111.43 312.43 111.329 312.506 111.253C312.595 111.164 312.703 111.12 312.829 111.12H313.722C313.849 111.12 313.95 111.164 314.026 111.253C314.115 111.329 314.159 111.43 314.159 111.557V112.393C314.489 111.962 314.9 111.614 315.394 111.348C315.901 111.069 316.547 110.93 317.332 110.93C318.156 110.93 318.852 111.114 319.422 111.481C320.005 111.836 320.442 112.336 320.733 112.982C321.025 113.615 321.17 114.356 321.17 115.205V120.563C321.17 120.69 321.132 120.797 321.056 120.886C320.98 120.962 320.879 121 320.752 121H319.802C319.676 121 319.568 120.962 319.479 120.886C319.403 120.797 319.365 120.69 319.365 120.563V115.3C319.365 114.413 319.15 113.723 318.719 113.229C318.289 112.722 317.655 112.469 316.819 112.469C316.034 112.469 315.401 112.722 314.919 113.229C314.451 113.723 314.216 114.413 314.216 115.3V120.563C314.216 120.69 314.172 120.797 314.083 120.886C314.007 120.962 313.906 121 313.779 121H312.829ZM326.67 121.19C326.036 121.19 325.46 121.063 324.941 120.81C324.421 120.557 324.003 120.215 323.687 119.784C323.37 119.353 323.212 118.866 323.212 118.321C323.212 117.447 323.566 116.75 324.276 116.231C324.985 115.712 325.91 115.37 327.05 115.205L329.881 114.806V114.255C329.881 113.647 329.703 113.172 329.349 112.83C329.007 112.488 328.443 112.317 327.658 112.317C327.088 112.317 326.625 112.431 326.271 112.659C325.929 112.887 325.688 113.178 325.549 113.533C325.473 113.723 325.34 113.818 325.15 113.818H324.295C324.155 113.818 324.048 113.78 323.972 113.704C323.908 113.615 323.877 113.514 323.877 113.4C323.877 113.21 323.946 112.976 324.086 112.697C324.238 112.418 324.466 112.146 324.77 111.88C325.074 111.614 325.46 111.392 325.929 111.215C326.41 111.025 326.993 110.93 327.677 110.93C328.437 110.93 329.076 111.031 329.596 111.234C330.115 111.424 330.52 111.684 330.812 112.013C331.116 112.342 331.331 112.716 331.458 113.134C331.597 113.552 331.667 113.976 331.667 114.407V120.563C331.667 120.69 331.622 120.797 331.534 120.886C331.458 120.962 331.356 121 331.23 121H330.356C330.216 121 330.109 120.962 330.033 120.886C329.957 120.797 329.919 120.69 329.919 120.563V119.746C329.754 119.974 329.532 120.202 329.254 120.43C328.975 120.645 328.627 120.829 328.209 120.981C327.791 121.12 327.278 121.19 326.67 121.19ZM327.069 119.765C327.588 119.765 328.063 119.657 328.494 119.442C328.924 119.214 329.26 118.866 329.501 118.397C329.754 117.928 329.881 117.339 329.881 116.63V116.098L327.677 116.421C326.777 116.548 326.1 116.763 325.644 117.067C325.188 117.358 324.96 117.732 324.96 118.188C324.96 118.543 325.061 118.84 325.264 119.081C325.479 119.309 325.745 119.48 326.062 119.594C326.391 119.708 326.727 119.765 327.069 119.765ZM334.835 121C334.709 121 334.601 120.962 334.512 120.886C334.436 120.797 334.398 120.69 334.398 120.563V111.557C334.398 111.43 334.436 111.329 334.512 111.253C334.601 111.164 334.709 111.12 334.835 111.12H335.69C335.817 111.12 335.918 111.164 335.994 111.253C336.083 111.329 336.127 111.43 336.127 111.557V112.222C336.419 111.829 336.786 111.519 337.229 111.291C337.673 111.05 338.205 110.93 338.825 110.93C340.257 110.917 341.27 111.5 341.865 112.678C342.157 112.146 342.581 111.722 343.138 111.405C343.696 111.088 344.329 110.93 345.038 110.93C345.697 110.93 346.292 111.082 346.824 111.386C347.369 111.69 347.793 112.152 348.097 112.773C348.414 113.381 348.572 114.147 348.572 115.072V120.563C348.572 120.69 348.528 120.797 348.439 120.886C348.363 120.962 348.262 121 348.135 121H347.242C347.116 121 347.008 120.962 346.919 120.886C346.843 120.797 346.805 120.69 346.805 120.563V115.243C346.805 114.534 346.704 113.976 346.501 113.571C346.299 113.166 346.026 112.881 345.684 112.716C345.342 112.551 344.969 112.469 344.563 112.469C344.234 112.469 343.898 112.551 343.556 112.716C343.214 112.881 342.929 113.166 342.701 113.571C342.486 113.976 342.378 114.534 342.378 115.243V120.563C342.378 120.69 342.334 120.797 342.245 120.886C342.169 120.962 342.068 121 341.941 121H341.048C340.922 121 340.814 120.962 340.725 120.886C340.649 120.797 340.611 120.69 340.611 120.563V115.243C340.611 114.534 340.504 113.976 340.288 113.571C340.073 113.166 339.794 112.881 339.452 112.716C339.11 112.551 338.749 112.469 338.369 112.469C338.04 112.469 337.704 112.551 337.362 112.716C337.02 112.881 336.735 113.166 336.507 113.571C336.292 113.976 336.184 114.527 336.184 115.224V120.563C336.184 120.69 336.14 120.797 336.051 120.886C335.975 120.962 335.874 121 335.747 121H334.835ZM355.216 121.19C353.911 121.19 352.873 120.791 352.1 119.993C351.327 119.182 350.903 118.08 350.827 116.687C350.814 116.522 350.808 116.313 350.808 116.06C350.808 115.794 350.814 115.579 350.827 115.414C350.878 114.515 351.087 113.729 351.454 113.058C351.821 112.374 352.322 111.848 352.955 111.481C353.601 111.114 354.355 110.93 355.216 110.93C356.179 110.93 356.983 111.133 357.629 111.538C358.288 111.943 358.788 112.52 359.13 113.267C359.472 114.014 359.643 114.888 359.643 115.889V116.212C359.643 116.351 359.599 116.459 359.51 116.535C359.434 116.611 359.333 116.649 359.206 116.649H352.632C352.632 116.662 352.632 116.687 352.632 116.725C352.632 116.763 352.632 116.795 352.632 116.82C352.657 117.339 352.771 117.827 352.974 118.283C353.177 118.726 353.468 119.087 353.848 119.366C354.228 119.645 354.684 119.784 355.216 119.784C355.672 119.784 356.052 119.714 356.356 119.575C356.66 119.436 356.907 119.284 357.097 119.119C357.287 118.942 357.414 118.809 357.477 118.72C357.591 118.555 357.68 118.46 357.743 118.435C357.806 118.397 357.908 118.378 358.047 118.378H358.959C359.086 118.378 359.187 118.416 359.263 118.492C359.352 118.555 359.39 118.65 359.377 118.777C359.364 118.967 359.263 119.201 359.073 119.48C358.883 119.746 358.611 120.012 358.256 120.278C357.901 120.544 357.471 120.766 356.964 120.943C356.457 121.108 355.875 121.19 355.216 121.19ZM352.632 115.338H357.838V115.281C357.838 114.711 357.73 114.204 357.515 113.761C357.312 113.318 357.015 112.969 356.622 112.716C356.229 112.45 355.761 112.317 355.216 112.317C354.671 112.317 354.203 112.45 353.81 112.716C353.43 112.969 353.139 113.318 352.936 113.761C352.733 114.204 352.632 114.711 352.632 115.281V115.338ZM366.952 113.666C366.825 113.666 366.724 113.628 366.648 113.552C366.572 113.476 366.534 113.375 366.534 113.248V112.602C366.534 112.475 366.572 112.374 366.648 112.298C366.724 112.222 366.825 112.184 366.952 112.184H374.191C374.318 112.184 374.419 112.222 374.495 112.298C374.584 112.374 374.628 112.475 374.628 112.602V113.248C374.628 113.375 374.584 113.476 374.495 113.552C374.419 113.628 374.318 113.666 374.191 113.666H366.952ZM366.952 118.416C366.825 118.416 366.724 118.378 366.648 118.302C366.572 118.226 366.534 118.125 366.534 117.998V117.352C366.534 117.225 366.572 117.124 366.648 117.048C366.724 116.972 366.825 116.934 366.952 116.934H374.191C374.318 116.934 374.419 116.972 374.495 117.048C374.584 117.124 374.628 117.225 374.628 117.352V117.998C374.628 118.125 374.584 118.226 374.495 118.302C374.419 118.378 374.318 118.416 374.191 118.416H366.952ZM384.972 111.177C384.884 111.177 384.808 111.145 384.744 111.082C384.694 111.019 384.668 110.943 384.668 110.854C384.668 110.753 384.687 110.651 384.725 110.55L385.732 107.947C385.796 107.82 385.859 107.719 385.922 107.643C385.998 107.554 386.119 107.51 386.283 107.51H386.91C387.012 107.51 387.088 107.548 387.138 107.624C387.202 107.7 387.221 107.801 387.195 107.928L386.777 110.626C386.765 110.778 386.714 110.911 386.625 111.025C386.537 111.126 386.404 111.177 386.226 111.177H384.972ZM381.932 111.177C381.844 111.177 381.768 111.145 381.704 111.082C381.654 111.019 381.628 110.943 381.628 110.854C381.628 110.753 381.647 110.651 381.685 110.55L382.692 107.947C382.756 107.82 382.825 107.719 382.901 107.643C382.977 107.554 383.091 107.51 383.243 107.51H383.87C383.972 107.51 384.048 107.548 384.098 107.624C384.162 107.7 384.181 107.801 384.155 107.928L383.737 110.626C383.725 110.778 383.674 110.911 383.585 111.025C383.497 111.126 383.37 111.177 383.205 111.177H381.932ZM454.515 111.177C454.426 111.177 454.35 111.145 454.287 111.082C454.236 111.019 454.211 110.943 454.211 110.854C454.211 110.753 454.23 110.651 454.268 110.55L455.275 107.947C455.338 107.82 455.402 107.719 455.465 107.643C455.541 107.554 455.661 107.51 455.826 107.51H456.453C456.554 107.51 456.63 107.548 456.681 107.624C456.744 107.7 456.763 107.801 456.738 107.928L456.32 110.626C456.307 110.778 456.257 110.911 456.168 111.025C456.079 111.126 455.946 111.177 455.769 111.177H454.515ZM451.475 111.177C451.386 111.177 451.31 111.145 451.247 111.082C451.196 111.019 451.171 110.943 451.171 110.854C451.171 110.753 451.19 110.651 451.228 110.55L452.235 107.947C452.298 107.82 452.368 107.719 452.444 107.643C452.52 107.554 452.634 107.51 452.786 107.51H453.413C453.514 107.51 453.59 107.548 453.641 107.624C453.704 107.7 453.723 107.801 453.698 107.928L453.28 110.626C453.267 110.778 453.217 110.911 453.128 111.025C453.039 111.126 452.913 111.177 452.748 111.177H451.475Z" fill="white" fill-opacity="0.75"/>
<path d="M132.923 90C132.796 90 132.689 89.962 132.6 89.886C132.524 89.7973 132.486 89.6897 132.486 89.563V80.557C132.486 80.4303 132.524 80.329 132.6 80.253C132.689 80.1643 132.796 80.12 132.923 80.12H133.778C133.905 80.12 134.006 80.1643 134.082 80.253C134.171 80.329 134.215 80.4303 134.215 80.557V81.222C134.506 80.8293 134.874 80.519 135.317 80.291C135.76 80.0503 136.292 79.93 136.913 79.93C138.344 79.9173 139.358 80.5 139.953 81.678C140.244 81.146 140.669 80.7217 141.226 80.405C141.783 80.0883 142.417 79.93 143.126 79.93C143.785 79.93 144.38 80.082 144.912 80.386C145.457 80.69 145.881 81.1523 146.185 81.773C146.502 82.381 146.66 83.1473 146.66 84.072V89.563C146.66 89.6897 146.616 89.7973 146.527 89.886C146.451 89.962 146.35 90 146.223 90H145.33C145.203 90 145.096 89.962 145.007 89.886C144.931 89.7973 144.893 89.6897 144.893 89.563V84.243C144.893 83.5337 144.792 82.9763 144.589 82.571C144.386 82.1657 144.114 81.8807 143.772 81.716C143.43 81.5513 143.056 81.469 142.651 81.469C142.322 81.469 141.986 81.5513 141.644 81.716C141.302 81.8807 141.017 82.1657 140.789 82.571C140.574 82.9763 140.466 83.5337 140.466 84.243V89.563C140.466 89.6897 140.422 89.7973 140.333 89.886C140.257 89.962 140.156 90 140.029 90H139.136C139.009 90 138.902 89.962 138.813 89.886C138.737 89.7973 138.699 89.6897 138.699 89.563V84.243C138.699 83.5337 138.591 82.9763 138.376 82.571C138.161 82.1657 137.882 81.8807 137.54 81.716C137.198 81.5513 136.837 81.469 136.457 81.469C136.128 81.469 135.792 81.5513 135.45 81.716C135.108 81.8807 134.823 82.1657 134.595 82.571C134.38 82.9763 134.272 83.5273 134.272 84.224V89.563C134.272 89.6897 134.228 89.7973 134.139 89.886C134.063 89.962 133.962 90 133.835 90H132.923ZM150.803 93.61C150.702 93.61 150.613 93.572 150.537 93.496C150.461 93.42 150.423 93.3313 150.423 93.23C150.423 93.1793 150.429 93.1287 150.442 93.078C150.455 93.0273 150.48 92.964 150.518 92.888L151.981 89.411L148.352 80.842C148.289 80.69 148.257 80.5823 148.257 80.519C148.257 80.405 148.295 80.31 148.371 80.234C148.447 80.158 148.542 80.12 148.656 80.12H149.587C149.714 80.12 149.815 80.1517 149.891 80.215C149.967 80.2783 150.018 80.3543 150.043 80.443L152.931 87.359L155.895 80.443C155.933 80.3543 155.984 80.2783 156.047 80.215C156.123 80.1517 156.231 80.12 156.37 80.12H157.263C157.377 80.12 157.472 80.158 157.548 80.234C157.624 80.31 157.662 80.3987 157.662 80.5C157.662 80.5633 157.63 80.6773 157.567 80.842L152.171 93.287C152.133 93.3757 152.076 93.4517 152 93.515C151.937 93.5783 151.835 93.61 151.696 93.61H150.803ZM160.964 90C160.837 90 160.729 89.962 160.641 89.886C160.565 89.7973 160.527 89.6897 160.527 89.563V81.64H158.912C158.785 81.64 158.677 81.602 158.589 81.526C158.513 81.4373 158.475 81.3297 158.475 81.203V80.557C158.475 80.4303 158.513 80.329 158.589 80.253C158.677 80.1643 158.785 80.12 158.912 80.12H160.527V79.17C160.527 78.524 160.634 77.9603 160.85 77.479C161.065 76.985 161.407 76.605 161.876 76.339C162.357 76.073 162.997 75.94 163.795 75.94H166.721C166.847 75.94 166.949 75.9843 167.025 76.073C167.113 76.149 167.158 76.2503 167.158 76.377V77.023C167.158 77.1497 167.113 77.2573 167.025 77.346C166.949 77.422 166.847 77.46 166.721 77.46H163.833C163.237 77.46 162.832 77.6183 162.617 77.935C162.401 78.239 162.294 78.6823 162.294 79.265V80.12H166.721C166.847 80.12 166.949 80.1643 167.025 80.253C167.113 80.329 167.158 80.4303 167.158 80.557V89.563C167.158 89.6897 167.113 89.7973 167.025 89.886C166.949 89.962 166.847 90 166.721 90H165.847C165.707 90 165.6 89.962 165.524 89.886C165.448 89.7973 165.41 89.6897 165.41 89.563V81.64H162.294V89.563C162.294 89.6897 162.249 89.7973 162.161 89.886C162.085 89.962 161.983 90 161.857 90H160.964ZM170.423 90C170.296 90 170.188 89.962 170.1 89.886C170.024 89.7973 169.986 89.6897 169.986 89.563V76.947C169.986 76.8203 170.024 76.719 170.1 76.643C170.188 76.5543 170.296 76.51 170.423 76.51H171.316C171.455 76.51 171.563 76.5543 171.639 76.643C171.715 76.719 171.753 76.8203 171.753 76.947V89.563C171.753 89.6897 171.715 89.7973 171.639 89.886C171.563 89.962 171.455 90 171.316 90H170.423ZM178.52 90.19C177.215 90.19 176.176 89.791 175.404 88.993C174.631 88.1823 174.207 87.0803 174.131 85.687C174.118 85.5223 174.112 85.3133 174.112 85.06C174.112 84.794 174.118 84.5787 174.131 84.414C174.181 83.5147 174.39 82.7293 174.758 82.058C175.125 81.374 175.625 80.8483 176.259 80.481C176.905 80.1137 177.658 79.93 178.52 79.93C179.482 79.93 180.287 80.1327 180.933 80.538C181.591 80.9433 182.092 81.5197 182.434 82.267C182.776 83.0143 182.947 83.8883 182.947 84.889V85.212C182.947 85.3513 182.902 85.459 182.814 85.535C182.738 85.611 182.636 85.649 182.51 85.649H175.936C175.936 85.6617 175.936 85.687 175.936 85.725C175.936 85.763 175.936 85.7947 175.936 85.82C175.961 86.3393 176.075 86.827 176.278 87.283C176.48 87.7263 176.772 88.0873 177.152 88.366C177.532 88.6447 177.988 88.784 178.52 88.784C178.976 88.784 179.356 88.7143 179.66 88.575C179.964 88.4357 180.211 88.2837 180.401 88.119C180.591 87.9417 180.717 87.8087 180.781 87.72C180.895 87.5553 180.983 87.4603 181.047 87.435C181.11 87.397 181.211 87.378 181.351 87.378H182.263C182.389 87.378 182.491 87.416 182.567 87.492C182.655 87.5553 182.693 87.6503 182.681 87.777C182.668 87.967 182.567 88.2013 182.377 88.48C182.187 88.746 181.914 89.012 181.56 89.278C181.205 89.544 180.774 89.7657 180.268 89.943C179.761 90.1077 179.178 90.19 178.52 90.19ZM175.936 84.338H181.142V84.281C181.142 83.711 181.034 83.2043 180.819 82.761C180.616 82.3177 180.318 81.9693 179.926 81.716C179.533 81.45 179.064 81.317 178.52 81.317C177.975 81.317 177.506 81.45 177.114 81.716C176.734 81.9693 176.442 82.3177 176.24 82.761C176.037 83.2043 175.936 83.711 175.936 84.281V84.338ZM215.754 90.19C214.652 90.19 213.728 90.0253 212.98 89.696C212.233 89.354 211.657 88.917 211.251 88.385C210.859 87.8403 210.65 87.264 210.624 86.656C210.624 86.5547 210.662 86.466 210.738 86.39C210.827 86.3013 210.928 86.257 211.042 86.257H212.011C212.163 86.257 212.277 86.295 212.353 86.371C212.429 86.447 212.48 86.5357 212.505 86.637C212.569 86.941 212.721 87.245 212.961 87.549C213.215 87.8403 213.563 88.0873 214.006 88.29C214.462 88.48 215.045 88.575 215.754 88.575C216.844 88.575 217.642 88.385 218.148 88.005C218.668 87.6123 218.927 87.093 218.927 86.447C218.927 86.0037 218.788 85.649 218.509 85.383C218.243 85.1043 217.832 84.8573 217.274 84.642C216.717 84.4267 215.995 84.1923 215.108 83.939C214.184 83.673 213.417 83.3817 212.809 83.065C212.201 82.7483 211.745 82.3557 211.441 81.887C211.15 81.4183 211.004 80.823 211.004 80.101C211.004 79.417 211.188 78.809 211.555 78.277C211.923 77.7323 212.448 77.3017 213.132 76.985C213.829 76.6683 214.671 76.51 215.659 76.51C216.445 76.51 217.129 76.6177 217.711 76.833C218.307 77.0357 218.801 77.3143 219.193 77.669C219.586 78.011 219.884 78.3847 220.086 78.79C220.289 79.1827 220.397 79.569 220.409 79.949C220.409 80.0377 220.378 80.1263 220.314 80.215C220.251 80.291 220.15 80.329 220.01 80.329H219.003C218.915 80.329 218.82 80.3037 218.718 80.253C218.63 80.2023 218.56 80.1073 218.509 79.968C218.433 79.4487 218.142 79.0117 217.635 78.657C217.129 78.3023 216.47 78.125 215.659 78.125C214.836 78.125 214.165 78.2833 213.645 78.6C213.139 78.9167 212.885 79.4107 212.885 80.082C212.885 80.5127 213.006 80.8737 213.246 81.165C213.487 81.4437 213.867 81.6907 214.386 81.906C214.906 82.1213 215.583 82.3493 216.419 82.59C217.433 82.8687 218.262 83.1663 218.908 83.483C219.554 83.787 220.029 84.1733 220.333 84.642C220.65 85.098 220.808 85.687 220.808 86.409C220.808 87.207 220.599 87.891 220.181 88.461C219.763 89.0183 219.174 89.449 218.414 89.753C217.667 90.0443 216.78 90.19 215.754 90.19ZM226.985 90.19C225.68 90.19 224.641 89.791 223.869 88.993C223.096 88.1823 222.672 87.0803 222.596 85.687C222.583 85.5223 222.577 85.3133 222.577 85.06C222.577 84.794 222.583 84.5787 222.596 84.414C222.646 83.5147 222.855 82.7293 223.223 82.058C223.59 81.374 224.09 80.8483 224.724 80.481C225.37 80.1137 226.123 79.93 226.985 79.93C227.947 79.93 228.752 80.1327 229.398 80.538C230.056 80.9433 230.557 81.5197 230.899 82.267C231.241 83.0143 231.412 83.8883 231.412 84.889V85.212C231.412 85.3513 231.367 85.459 231.279 85.535C231.203 85.611 231.101 85.649 230.975 85.649H224.401C224.401 85.6617 224.401 85.687 224.401 85.725C224.401 85.763 224.401 85.7947 224.401 85.82C224.426 86.3393 224.54 86.827 224.743 87.283C224.945 87.7263 225.237 88.0873 225.617 88.366C225.997 88.6447 226.453 88.784 226.985 88.784C227.441 88.784 227.821 88.7143 228.125 88.575C228.429 88.4357 228.676 88.2837 228.866 88.119C229.056 87.9417 229.182 87.8087 229.246 87.72C229.36 87.5553 229.448 87.4603 229.512 87.435C229.575 87.397 229.676 87.378 229.816 87.378H230.728C230.854 87.378 230.956 87.416 231.032 87.492C231.12 87.5553 231.158 87.6503 231.146 87.777C231.133 87.967 231.032 88.2013 230.842 88.48C230.652 88.746 230.379 89.012 230.025 89.278C229.67 89.544 229.239 89.7657 228.733 89.943C228.226 90.1077 227.643 90.19 226.985 90.19ZM224.401 84.338H229.607V84.281C229.607 83.711 229.499 83.2043 229.284 82.761C229.081 82.3177 228.783 81.9693 228.391 81.716C227.998 81.45 227.529 81.317 226.985 81.317C226.44 81.317 225.971 81.45 225.579 81.716C225.199 81.9693 224.907 82.3177 224.705 82.761C224.502 83.2043 224.401 83.711 224.401 84.281V84.338ZM234.139 90C234.013 90 233.905 89.962 233.816 89.886C233.74 89.7973 233.702 89.6897 233.702 89.563V76.947C233.702 76.8203 233.74 76.719 233.816 76.643C233.905 76.5543 234.013 76.51 234.139 76.51H235.032C235.172 76.51 235.279 76.5543 235.355 76.643C235.431 76.719 235.469 76.8203 235.469 76.947V89.563C235.469 89.6897 235.431 89.7973 235.355 89.886C235.279 89.962 235.172 90 235.032 90H234.139ZM242.236 90.19C240.932 90.19 239.893 89.791 239.12 88.993C238.348 88.1823 237.923 87.0803 237.847 85.687C237.835 85.5223 237.828 85.3133 237.828 85.06C237.828 84.794 237.835 84.5787 237.847 84.414C237.898 83.5147 238.107 82.7293 238.474 82.058C238.842 81.374 239.342 80.8483 239.975 80.481C240.621 80.1137 241.375 79.93 242.236 79.93C243.199 79.93 244.003 80.1327 244.649 80.538C245.308 80.9433 245.808 81.5197 246.15 82.267C246.492 83.0143 246.663 83.8883 246.663 84.889V85.212C246.663 85.3513 246.619 85.459 246.53 85.535C246.454 85.611 246.353 85.649 246.226 85.649H239.652C239.652 85.6617 239.652 85.687 239.652 85.725C239.652 85.763 239.652 85.7947 239.652 85.82C239.678 86.3393 239.792 86.827 239.994 87.283C240.197 87.7263 240.488 88.0873 240.868 88.366C241.248 88.6447 241.704 88.784 242.236 88.784C242.692 88.784 243.072 88.7143 243.376 88.575C243.68 88.4357 243.927 88.2837 244.117 88.119C244.307 87.9417 244.434 87.8087 244.497 87.72C244.611 87.5553 244.7 87.4603 244.763 87.435C244.827 87.397 244.928 87.378 245.067 87.378H245.979C246.106 87.378 246.207 87.416 246.283 87.492C246.372 87.5553 246.41 87.6503 246.397 87.777C246.385 87.967 246.283 88.2013 246.093 88.48C245.903 88.746 245.631 89.012 245.276 89.278C244.922 89.544 244.491 89.7657 243.984 89.943C243.478 90.1077 242.895 90.19 242.236 90.19ZM239.652 84.338H244.858V84.281C244.858 83.711 244.751 83.2043 244.535 82.761C244.333 82.3177 244.035 81.9693 243.642 81.716C243.25 81.45 242.781 81.317 242.236 81.317C241.692 81.317 241.223 81.45 240.83 81.716C240.45 81.9693 240.159 82.3177 239.956 82.761C239.754 83.2043 239.652 83.711 239.652 84.281V84.338ZM252.925 90.19C252.026 90.19 251.247 90.019 250.588 89.677C249.942 89.3223 249.442 88.822 249.087 88.176C248.733 87.5173 248.543 86.732 248.517 85.82C248.505 85.63 248.498 85.3767 248.498 85.06C248.498 84.7433 248.505 84.49 248.517 84.3C248.543 83.388 248.733 82.609 249.087 81.963C249.442 81.3043 249.942 80.804 250.588 80.462C251.247 80.1073 252.026 79.93 252.925 79.93C253.66 79.93 254.287 80.0313 254.806 80.234C255.338 80.4367 255.775 80.6963 256.117 81.013C256.459 81.3297 256.713 81.6717 256.877 82.039C257.055 82.4063 257.15 82.7547 257.162 83.084C257.175 83.2107 257.137 83.312 257.048 83.388C256.96 83.464 256.852 83.502 256.725 83.502H255.813C255.687 83.502 255.592 83.4767 255.528 83.426C255.465 83.3627 255.402 83.2613 255.338 83.122C255.11 82.5013 254.8 82.0643 254.407 81.811C254.015 81.5577 253.527 81.431 252.944 81.431C252.184 81.431 251.564 81.6653 251.082 82.134C250.614 82.6027 250.36 83.3563 250.322 84.395C250.31 84.851 250.31 85.2943 250.322 85.725C250.36 86.7763 250.614 87.5363 251.082 88.005C251.564 88.461 252.184 88.689 252.944 88.689C253.527 88.689 254.015 88.5623 254.407 88.309C254.8 88.0557 255.11 87.6187 255.338 86.998C255.402 86.8587 255.465 86.7637 255.528 86.713C255.592 86.6497 255.687 86.618 255.813 86.618H256.725C256.852 86.618 256.96 86.656 257.048 86.732C257.137 86.808 257.175 86.9093 257.162 87.036C257.15 87.302 257.093 87.5743 256.991 87.853C256.89 88.1317 256.725 88.4167 256.497 88.708C256.282 88.9867 256.01 89.24 255.68 89.468C255.351 89.6833 254.952 89.8607 254.483 90C254.027 90.1267 253.508 90.19 252.925 90.19ZM263.276 90C262.566 90 261.99 89.867 261.547 89.601C261.103 89.3223 260.78 88.936 260.578 88.442C260.375 87.9353 260.274 87.34 260.274 86.656V81.64H258.792C258.665 81.64 258.557 81.602 258.469 81.526C258.393 81.4373 258.355 81.3297 258.355 81.203V80.557C258.355 80.4303 258.393 80.329 258.469 80.253C258.557 80.1643 258.665 80.12 258.792 80.12H260.274V76.947C260.274 76.8203 260.312 76.719 260.388 76.643C260.476 76.5543 260.584 76.51 260.711 76.51H261.604C261.73 76.51 261.832 76.5543 261.908 76.643C261.996 76.719 262.041 76.8203 262.041 76.947V80.12H264.397C264.523 80.12 264.625 80.1643 264.701 80.253C264.789 80.329 264.834 80.4303 264.834 80.557V81.203C264.834 81.3297 264.789 81.4373 264.701 81.526C264.625 81.602 264.523 81.64 264.397 81.64H262.041V86.523C262.041 87.1183 262.142 87.587 262.345 87.929C262.547 88.271 262.908 88.442 263.428 88.442H264.587C264.713 88.442 264.815 88.4863 264.891 88.575C264.979 88.651 265.024 88.7523 265.024 88.879V89.563C265.024 89.6897 264.979 89.7973 264.891 89.886C264.815 89.962 264.713 90 264.587 90H263.276ZM274.253 90.19C273.619 90.19 273.043 90.0633 272.524 89.81C272.004 89.5567 271.586 89.2147 271.27 88.784C270.953 88.3533 270.795 87.8657 270.795 87.321C270.795 86.447 271.149 85.7503 271.859 85.231C272.568 84.7117 273.493 84.3697 274.633 84.205L277.464 83.806V83.255C277.464 82.647 277.286 82.172 276.932 81.83C276.59 81.488 276.026 81.317 275.241 81.317C274.671 81.317 274.208 81.431 273.854 81.659C273.512 81.887 273.271 82.1783 273.132 82.533C273.056 82.723 272.923 82.818 272.733 82.818H271.878C271.738 82.818 271.631 82.78 271.555 82.704C271.491 82.6153 271.46 82.514 271.46 82.4C271.46 82.21 271.529 81.9757 271.669 81.697C271.821 81.4183 272.049 81.146 272.353 80.88C272.657 80.614 273.043 80.3923 273.512 80.215C273.993 80.025 274.576 79.93 275.26 79.93C276.02 79.93 276.659 80.0313 277.179 80.234C277.698 80.424 278.103 80.6837 278.395 81.013C278.699 81.3423 278.914 81.716 279.041 82.134C279.18 82.552 279.25 82.9763 279.25 83.407V89.563C279.25 89.6897 279.205 89.7973 279.117 89.886C279.041 89.962 278.939 90 278.813 90H277.939C277.799 90 277.692 89.962 277.616 89.886C277.54 89.7973 277.502 89.6897 277.502 89.563V88.746C277.337 88.974 277.115 89.202 276.837 89.43C276.558 89.6453 276.21 89.829 275.792 89.981C275.374 90.1203 274.861 90.19 274.253 90.19ZM274.652 88.765C275.171 88.765 275.646 88.6573 276.077 88.442C276.507 88.214 276.843 87.8657 277.084 87.397C277.337 86.9283 277.464 86.3393 277.464 85.63V85.098L275.26 85.421C274.36 85.5477 273.683 85.763 273.227 86.067C272.771 86.3583 272.543 86.732 272.543 87.188C272.543 87.5427 272.644 87.8403 272.847 88.081C273.062 88.309 273.328 88.48 273.645 88.594C273.974 88.708 274.31 88.765 274.652 88.765ZM287.711 90C287.584 90 287.477 89.962 287.388 89.886C287.312 89.7973 287.274 89.6897 287.274 89.563V81.64H285.659C285.532 81.64 285.425 81.602 285.336 81.526C285.26 81.4373 285.222 81.3297 285.222 81.203V80.557C285.222 80.4303 285.26 80.329 285.336 80.253C285.425 80.1643 285.532 80.12 285.659 80.12H287.274V79.17C287.274 78.524 287.382 77.9603 287.597 77.479C287.812 76.985 288.154 76.605 288.623 76.339C289.104 76.073 289.744 75.94 290.542 75.94H293.468C293.595 75.94 293.696 75.9843 293.772 76.073C293.861 76.149 293.905 76.2503 293.905 76.377V77.023C293.905 77.1497 293.861 77.2573 293.772 77.346C293.696 77.422 293.595 77.46 293.468 77.46H290.58C289.985 77.46 289.579 77.6183 289.364 77.935C289.149 78.239 289.041 78.6823 289.041 79.265V80.12H293.468C293.595 80.12 293.696 80.1643 293.772 80.253C293.861 80.329 293.905 80.4303 293.905 80.557V89.563C293.905 89.6897 293.861 89.7973 293.772 89.886C293.696 89.962 293.595 90 293.468 90H292.594C292.455 90 292.347 89.962 292.271 89.886C292.195 89.7973 292.157 89.6897 292.157 89.563V81.64H289.041V89.563C289.041 89.6897 288.997 89.7973 288.908 89.886C288.832 89.962 288.731 90 288.604 90H287.711ZM297.17 90C297.043 90 296.935 89.962 296.847 89.886C296.771 89.7973 296.733 89.6897 296.733 89.563V76.947C296.733 76.8203 296.771 76.719 296.847 76.643C296.935 76.5543 297.043 76.51 297.17 76.51H298.063C298.202 76.51 298.31 76.5543 298.386 76.643C298.462 76.719 298.5 76.8203 298.5 76.947V89.563C298.5 89.6897 298.462 89.7973 298.386 89.886C298.31 89.962 298.202 90 298.063 90H297.17ZM305.267 90.19C303.962 90.19 302.923 89.791 302.151 88.993C301.378 88.1823 300.954 87.0803 300.878 85.687C300.865 85.5223 300.859 85.3133 300.859 85.06C300.859 84.794 300.865 84.5787 300.878 84.414C300.928 83.5147 301.137 82.7293 301.505 82.058C301.872 81.374 302.372 80.8483 303.006 80.481C303.652 80.1137 304.405 79.93 305.267 79.93C306.229 79.93 307.034 80.1327 307.68 80.538C308.338 80.9433 308.839 81.5197 309.181 82.267C309.523 83.0143 309.694 83.8883 309.694 84.889V85.212C309.694 85.3513 309.649 85.459 309.561 85.535C309.485 85.611 309.383 85.649 309.257 85.649H302.683C302.683 85.6617 302.683 85.687 302.683 85.725C302.683 85.763 302.683 85.7947 302.683 85.82C302.708 86.3393 302.822 86.827 303.025 87.283C303.227 87.7263 303.519 88.0873 303.899 88.366C304.279 88.6447 304.735 88.784 305.267 88.784C305.723 88.784 306.103 88.7143 306.407 88.575C306.711 88.4357 306.958 88.2837 307.148 88.119C307.338 87.9417 307.464 87.8087 307.528 87.72C307.642 87.5553 307.73 87.4603 307.794 87.435C307.857 87.397 307.958 87.378 308.098 87.378H309.01C309.136 87.378 309.238 87.416 309.314 87.492C309.402 87.5553 309.44 87.6503 309.428 87.777C309.415 87.967 309.314 88.2013 309.124 88.48C308.934 88.746 308.661 89.012 308.307 89.278C307.952 89.544 307.521 89.7657 307.015 89.943C306.508 90.1077 305.925 90.19 305.267 90.19ZM302.683 84.338H307.889V84.281C307.889 83.711 307.781 83.2043 307.566 82.761C307.363 82.3177 307.065 81.9693 306.673 81.716C306.28 81.45 305.811 81.317 305.267 81.317C304.722 81.317 304.253 81.45 303.861 81.716C303.481 81.9693 303.189 82.3177 302.987 82.761C302.784 83.2043 302.683 83.711 302.683 84.281V84.338ZM321.622 83.35C321.495 83.35 321.388 83.312 321.299 83.236C321.223 83.1473 321.185 83.0397 321.185 82.913V81.583C321.185 81.4563 321.223 81.355 321.299 81.279C321.388 81.1903 321.495 81.146 321.622 81.146H322.971C323.11 81.146 323.218 81.1903 323.294 81.279C323.383 81.355 323.427 81.4563 323.427 81.583V82.913C323.427 83.0397 323.383 83.1473 323.294 83.236C323.218 83.312 323.11 83.35 322.971 83.35H321.622ZM321.622 90C321.495 90 321.388 89.962 321.299 89.886C321.223 89.7973 321.185 89.6897 321.185 89.563V88.233C321.185 88.1063 321.223 88.005 321.299 87.929C321.388 87.8403 321.495 87.796 321.622 87.796H322.971C323.11 87.796 323.218 87.8403 323.294 87.929C323.383 88.005 323.427 88.1063 323.427 88.233V89.563C323.427 89.6897 323.383 89.7973 323.294 89.886C323.218 89.962 323.11 90 322.971 90H321.622ZM153.709 121C153.582 121 153.475 120.962 153.386 120.886C153.31 120.797 153.272 120.69 153.272 120.563V112.64H151.657C151.53 112.64 151.423 112.602 151.334 112.526C151.258 112.437 151.22 112.33 151.22 112.203V111.557C151.22 111.43 151.258 111.329 151.334 111.253C151.423 111.164 151.53 111.12 151.657 111.12H153.272V110.17C153.272 109.524 153.38 108.96 153.595 108.479C153.81 107.985 154.152 107.605 154.621 107.339C155.102 107.073 155.742 106.94 156.54 106.94H159.466C159.593 106.94 159.694 106.984 159.77 107.073C159.859 107.149 159.903 107.25 159.903 107.377V108.023C159.903 108.15 159.859 108.257 159.77 108.346C159.694 108.422 159.593 108.46 159.466 108.46H156.578C155.983 108.46 155.577 108.618 155.362 108.935C155.147 109.239 155.039 109.682 155.039 110.265V111.12H159.466C159.593 111.12 159.694 111.164 159.77 111.253C159.859 111.329 159.903 111.43 159.903 111.557V120.563C159.903 120.69 159.859 120.797 159.77 120.886C159.694 120.962 159.593 121 159.466 121H158.592C158.453 121 158.345 120.962 158.269 120.886C158.193 120.797 158.155 120.69 158.155 120.563V112.64H155.039V120.563C155.039 120.69 154.995 120.797 154.906 120.886C154.83 120.962 154.729 121 154.602 121H153.709ZM163.168 121C163.041 121 162.933 120.962 162.845 120.886C162.769 120.797 162.731 120.69 162.731 120.563V107.947C162.731 107.82 162.769 107.719 162.845 107.643C162.933 107.554 163.041 107.51 163.168 107.51H164.061C164.2 107.51 164.308 107.554 164.384 107.643C164.46 107.719 164.498 107.82 164.498 107.947V120.563C164.498 120.69 164.46 120.797 164.384 120.886C164.308 120.962 164.2 121 164.061 121H163.168ZM171.265 121.19C169.96 121.19 168.921 120.791 168.149 119.993C167.376 119.182 166.952 118.08 166.876 116.687C166.863 116.522 166.857 116.313 166.857 116.06C166.857 115.794 166.863 115.579 166.876 115.414C166.926 114.515 167.135 113.729 167.503 113.058C167.87 112.374 168.37 111.848 169.004 111.481C169.65 111.114 170.403 110.93 171.265 110.93C172.227 110.93 173.032 111.133 173.678 111.538C174.336 111.943 174.837 112.52 175.179 113.267C175.521 114.014 175.692 114.888 175.692 115.889V116.212C175.692 116.351 175.647 116.459 175.559 116.535C175.483 116.611 175.381 116.649 175.255 116.649H168.681C168.681 116.662 168.681 116.687 168.681 116.725C168.681 116.763 168.681 116.795 168.681 116.82C168.706 117.339 168.82 117.827 169.023 118.283C169.225 118.726 169.517 119.087 169.897 119.366C170.277 119.645 170.733 119.784 171.265 119.784C171.721 119.784 172.101 119.714 172.405 119.575C172.709 119.436 172.956 119.284 173.146 119.119C173.336 118.942 173.462 118.809 173.526 118.72C173.64 118.555 173.728 118.46 173.792 118.435C173.855 118.397 173.956 118.378 174.096 118.378H175.008C175.134 118.378 175.236 118.416 175.312 118.492C175.4 118.555 175.438 118.65 175.426 118.777C175.413 118.967 175.312 119.201 175.122 119.48C174.932 119.746 174.659 120.012 174.305 120.278C173.95 120.544 173.519 120.766 173.013 120.943C172.506 121.108 171.923 121.19 171.265 121.19ZM168.681 115.338H173.887V115.281C173.887 114.711 173.779 114.204 173.564 113.761C173.361 113.318 173.063 112.969 172.671 112.716C172.278 112.45 171.809 112.317 171.265 112.317C170.72 112.317 170.251 112.45 169.859 112.716C169.479 112.969 169.187 113.318 168.985 113.761C168.782 114.204 168.681 114.711 168.681 115.281V115.338ZM243.286 121C243.16 121 243.052 120.962 242.963 120.886C242.887 120.797 242.849 120.69 242.849 120.563V111.557C242.849 111.43 242.887 111.329 242.963 111.253C243.052 111.164 243.16 111.12 243.286 111.12H244.141C244.268 111.12 244.369 111.164 244.445 111.253C244.534 111.329 244.578 111.43 244.578 111.557V112.222C244.87 111.829 245.237 111.519 245.68 111.291C246.124 111.05 246.656 110.93 247.276 110.93C248.708 110.917 249.721 111.5 250.316 112.678C250.608 112.146 251.032 111.722 251.589 111.405C252.147 111.088 252.78 110.93 253.489 110.93C254.148 110.93 254.743 111.082 255.275 111.386C255.82 111.69 256.244 112.152 256.548 112.773C256.865 113.381 257.023 114.147 257.023 115.072V120.563C257.023 120.69 256.979 120.797 256.89 120.886C256.814 120.962 256.713 121 256.586 121H255.693C255.567 121 255.459 120.962 255.37 120.886C255.294 120.797 255.256 120.69 255.256 120.563V115.243C255.256 114.534 255.155 113.976 254.952 113.571C254.75 113.166 254.477 112.881 254.135 112.716C253.793 112.551 253.42 112.469 253.014 112.469C252.685 112.469 252.349 112.551 252.007 112.716C251.665 112.881 251.38 113.166 251.152 113.571C250.937 113.976 250.829 114.534 250.829 115.243V120.563C250.829 120.69 250.785 120.797 250.696 120.886C250.62 120.962 250.519 121 250.392 121H249.499C249.373 121 249.265 120.962 249.176 120.886C249.1 120.797 249.062 120.69 249.062 120.563V115.243C249.062 114.534 248.955 113.976 248.739 113.571C248.524 113.166 248.245 112.881 247.903 112.716C247.561 112.551 247.2 112.469 246.82 112.469C246.491 112.469 246.155 112.551 245.813 112.716C245.471 112.881 245.186 113.166 244.958 113.571C244.743 113.976 244.635 114.527 244.635 115.224V120.563C244.635 120.69 244.591 120.797 244.502 120.886C244.426 120.962 244.325 121 244.198 121H243.286ZM261.166 124.61C261.065 124.61 260.976 124.572 260.9 124.496C260.824 124.42 260.786 124.331 260.786 124.23C260.786 124.179 260.793 124.129 260.805 124.078C260.818 124.027 260.843 123.964 260.881 123.888L262.344 120.411L258.715 111.842C258.652 111.69 258.62 111.582 258.62 111.519C258.62 111.405 258.658 111.31 258.734 111.234C258.81 111.158 258.905 111.12 259.019 111.12H259.95C260.077 111.12 260.178 111.152 260.254 111.215C260.33 111.278 260.381 111.354 260.406 111.443L263.294 118.359L266.258 111.443C266.296 111.354 266.347 111.278 266.41 111.215C266.486 111.152 266.594 111.12 266.733 111.12H267.626C267.74 111.12 267.835 111.158 267.911 111.234C267.987 111.31 268.025 111.399 268.025 111.5C268.025 111.563 267.994 111.677 267.93 111.842L262.534 124.287C262.496 124.376 262.439 124.452 262.363 124.515C262.3 124.578 262.199 124.61 262.059 124.61H261.166ZM271.327 121C271.2 121 271.093 120.962 271.004 120.886C270.928 120.797 270.89 120.69 270.89 120.563V112.64H269.275C269.148 112.64 269.041 112.602 268.952 112.526C268.876 112.437 268.838 112.33 268.838 112.203V111.557C268.838 111.43 268.876 111.329 268.952 111.253C269.041 111.164 269.148 111.12 269.275 111.12H270.89V110.17C270.89 109.524 270.998 108.96 271.213 108.479C271.428 107.985 271.77 107.605 272.239 107.339C272.72 107.073 273.36 106.94 274.158 106.94H277.084C277.211 106.94 277.312 106.984 277.388 107.073C277.477 107.149 277.521 107.25 277.521 107.377V108.023C277.521 108.15 277.477 108.257 277.388 108.346C277.312 108.422 277.211 108.46 277.084 108.46H274.196C273.601 108.46 273.195 108.618 272.98 108.935C272.765 109.239 272.657 109.682 272.657 110.265V111.12H277.084C277.211 111.12 277.312 111.164 277.388 111.253C277.477 111.329 277.521 111.43 277.521 111.557V120.563C277.521 120.69 277.477 120.797 277.388 120.886C277.312 120.962 277.211 121 277.084 121H276.21C276.071 121 275.963 120.962 275.887 120.886C275.811 120.797 275.773 120.69 275.773 120.563V112.64H272.657V120.563C272.657 120.69 272.613 120.797 272.524 120.886C272.448 120.962 272.347 121 272.22 121H271.327ZM280.786 121C280.659 121 280.551 120.962 280.463 120.886C280.387 120.797 280.349 120.69 280.349 120.563V107.947C280.349 107.82 280.387 107.719 280.463 107.643C280.551 107.554 280.659 107.51 280.786 107.51H281.679C281.818 107.51 281.926 107.554 282.002 107.643C282.078 107.719 282.116 107.82 282.116 107.947V120.563C282.116 120.69 282.078 120.797 282.002 120.886C281.926 120.962 281.818 121 281.679 121H280.786ZM288.883 121.19C287.578 121.19 286.54 120.791 285.767 119.993C284.994 119.182 284.57 118.08 284.494 116.687C284.481 116.522 284.475 116.313 284.475 116.06C284.475 115.794 284.481 115.579 284.494 115.414C284.545 114.515 284.754 113.729 285.121 113.058C285.488 112.374 285.989 111.848 286.622 111.481C287.268 111.114 288.022 110.93 288.883 110.93C289.846 110.93 290.65 111.133 291.296 111.538C291.955 111.943 292.455 112.52 292.797 113.267C293.139 114.014 293.31 114.888 293.31 115.889V116.212C293.31 116.351 293.266 116.459 293.177 116.535C293.101 116.611 293 116.649 292.873 116.649H286.299C286.299 116.662 286.299 116.687 286.299 116.725C286.299 116.763 286.299 116.795 286.299 116.82C286.324 117.339 286.438 117.827 286.641 118.283C286.844 118.726 287.135 119.087 287.515 119.366C287.895 119.645 288.351 119.784 288.883 119.784C289.339 119.784 289.719 119.714 290.023 119.575C290.327 119.436 290.574 119.284 290.764 119.119C290.954 118.942 291.081 118.809 291.144 118.72C291.258 118.555 291.347 118.46 291.41 118.435C291.473 118.397 291.575 118.378 291.714 118.378H292.626C292.753 118.378 292.854 118.416 292.93 118.492C293.019 118.555 293.057 118.65 293.044 118.777C293.031 118.967 292.93 119.201 292.74 119.48C292.55 119.746 292.278 120.012 291.923 120.278C291.568 120.544 291.138 120.766 290.631 120.943C290.124 121.108 289.542 121.19 288.883 121.19ZM286.299 115.338H291.505V115.281C291.505 114.711 291.397 114.204 291.182 113.761C290.979 113.318 290.682 112.969 290.289 112.716C289.896 112.45 289.428 112.317 288.883 112.317C288.338 112.317 287.87 112.45 287.477 112.716C287.097 112.969 286.806 113.318 286.603 113.761C286.4 114.204 286.299 114.711 286.299 115.281V115.338ZM394.656 121C394.529 121 394.421 120.962 394.333 120.886C394.257 120.797 394.219 120.69 394.219 120.563V111.557C394.219 111.43 394.257 111.329 394.333 111.253C394.421 111.164 394.529 111.12 394.656 111.12H395.511C395.637 111.12 395.739 111.164 395.815 111.253C395.903 111.329 395.948 111.43 395.948 111.557V112.222C396.239 111.829 396.606 111.519 397.05 111.291C397.493 111.05 398.025 110.93 398.646 110.93C400.077 110.917 401.09 111.5 401.686 112.678C401.977 112.146 402.401 111.722 402.959 111.405C403.516 111.088 404.149 110.93 404.859 110.93C405.517 110.93 406.113 111.082 406.645 111.386C407.189 111.69 407.614 112.152 407.918 112.773C408.234 113.381 408.393 114.147 408.393 115.072V120.563C408.393 120.69 408.348 120.797 408.26 120.886C408.184 120.962 408.082 121 407.956 121H407.063C406.936 121 406.828 120.962 406.74 120.886C406.664 120.797 406.626 120.69 406.626 120.563V115.243C406.626 114.534 406.524 113.976 406.322 113.571C406.119 113.166 405.847 112.881 405.505 112.716C405.163 112.551 404.789 112.469 404.384 112.469C404.054 112.469 403.719 112.551 403.377 112.716C403.035 112.881 402.75 113.166 402.522 113.571C402.306 113.976 402.199 114.534 402.199 115.243V120.563C402.199 120.69 402.154 120.797 402.066 120.886C401.99 120.962 401.888 121 401.762 121H400.869C400.742 121 400.634 120.962 400.546 120.886C400.47 120.797 400.432 120.69 400.432 120.563V115.243C400.432 114.534 400.324 113.976 400.109 113.571C399.893 113.166 399.615 112.881 399.273 112.716C398.931 112.551 398.57 112.469 398.19 112.469C397.86 112.469 397.525 112.551 397.183 112.716C396.841 112.881 396.556 113.166 396.328 113.571C396.112 113.976 396.005 114.527 396.005 115.224V120.563C396.005 120.69 395.96 120.797 395.872 120.886C395.796 120.962 395.694 121 395.568 121H394.656ZM412.535 124.61C412.434 124.61 412.345 124.572 412.269 124.496C412.193 124.42 412.155 124.331 412.155 124.23C412.155 124.179 412.162 124.129 412.174 124.078C412.187 124.027 412.212 123.964 412.25 123.888L413.713 120.411L410.084 111.842C410.021 111.69 409.989 111.582 409.989 111.519C409.989 111.405 410.027 111.31 410.103 111.234C410.179 111.158 410.274 111.12 410.388 111.12H411.319C411.446 111.12 411.547 111.152 411.623 111.215C411.699 111.278 411.75 111.354 411.775 111.443L414.663 118.359L417.627 111.443C417.665 111.354 417.716 111.278 417.779 111.215C417.855 111.152 417.963 111.12 418.102 111.12H418.995C419.109 111.12 419.204 111.158 419.28 111.234C419.356 111.31 419.394 111.399 419.394 111.5C419.394 111.563 419.363 111.677 419.299 111.842L413.903 124.287C413.865 124.376 413.808 124.452 413.732 124.515C413.669 124.578 413.568 124.61 413.428 124.61H412.535ZM422.696 121C422.57 121 422.462 120.962 422.373 120.886C422.297 120.797 422.259 120.69 422.259 120.563V112.64H420.644C420.518 112.64 420.41 112.602 420.321 112.526C420.245 112.437 420.207 112.33 420.207 112.203V111.557C420.207 111.43 420.245 111.329 420.321 111.253C420.41 111.164 420.518 111.12 420.644 111.12H422.259V110.17C422.259 109.524 422.367 108.96 422.582 108.479C422.798 107.985 423.14 107.605 423.608 107.339C424.09 107.073 424.729 106.94 425.527 106.94H428.453C428.58 106.94 428.681 106.984 428.757 107.073C428.846 107.149 428.89 107.25 428.89 107.377V108.023C428.89 108.15 428.846 108.257 428.757 108.346C428.681 108.422 428.58 108.46 428.453 108.46H425.565C424.97 108.46 424.565 108.618 424.349 108.935C424.134 109.239 424.026 109.682 424.026 110.265V111.12H428.453C428.58 111.12 428.681 111.164 428.757 111.253C428.846 111.329 428.89 111.43 428.89 111.557V120.563C428.89 120.69 428.846 120.797 428.757 120.886C428.681 120.962 428.58 121 428.453 121H427.579C427.44 121 427.332 120.962 427.256 120.886C427.18 120.797 427.142 120.69 427.142 120.563V112.64H424.026V120.563C424.026 120.69 423.982 120.797 423.893 120.886C423.817 120.962 423.716 121 423.589 121H422.696ZM432.155 121C432.028 121 431.921 120.962 431.832 120.886C431.756 120.797 431.718 120.69 431.718 120.563V107.947C431.718 107.82 431.756 107.719 431.832 107.643C431.921 107.554 432.028 107.51 432.155 107.51H433.048C433.187 107.51 433.295 107.554 433.371 107.643C433.447 107.719 433.485 107.82 433.485 107.947V120.563C433.485 120.69 433.447 120.797 433.371 120.886C433.295 120.962 433.187 121 433.048 121H432.155ZM440.252 121.19C438.947 121.19 437.909 120.791 437.136 119.993C436.363 119.182 435.939 118.08 435.863 116.687C435.85 116.522 435.844 116.313 435.844 116.06C435.844 115.794 435.85 115.579 435.863 115.414C435.914 114.515 436.123 113.729 436.49 113.058C436.857 112.374 437.358 111.848 437.991 111.481C438.637 111.114 439.391 110.93 440.252 110.93C441.215 110.93 442.019 111.133 442.665 111.538C443.324 111.943 443.824 112.52 444.166 113.267C444.508 114.014 444.679 114.888 444.679 115.889V116.212C444.679 116.351 444.635 116.459 444.546 116.535C444.47 116.611 444.369 116.649 444.242 116.649H437.668C437.668 116.662 437.668 116.687 437.668 116.725C437.668 116.763 437.668 116.795 437.668 116.82C437.693 117.339 437.807 117.827 438.01 118.283C438.213 118.726 438.504 119.087 438.884 119.366C439.264 119.645 439.72 119.784 440.252 119.784C440.708 119.784 441.088 119.714 441.392 119.575C441.696 119.436 441.943 119.284 442.133 119.119C442.323 118.942 442.45 118.809 442.513 118.72C442.627 118.555 442.716 118.46 442.779 118.435C442.842 118.397 442.944 118.378 443.083 118.378H443.995C444.122 118.378 444.223 118.416 444.299 118.492C444.388 118.555 444.426 118.65 444.413 118.777C444.4 118.967 444.299 119.201 444.109 119.48C443.919 119.746 443.647 120.012 443.292 120.278C442.937 120.544 442.507 120.766 442 120.943C441.493 121.108 440.911 121.19 440.252 121.19ZM437.668 115.338H442.874V115.281C442.874 114.711 442.766 114.204 442.551 113.761C442.348 113.318 442.051 112.969 441.658 112.716C441.265 112.45 440.797 112.317 440.252 112.317C439.707 112.317 439.239 112.45 438.846 112.716C438.466 112.969 438.175 113.318 437.972 113.761C437.769 114.204 437.668 114.711 437.668 115.281V115.338Z" fill="white"/>
<g filter="url(#filter0_d_213_134)">
<path d="M4 12C4 5.37258 9.37258 0 16 0H787C793.627 0 799 5.37258 799 12V43H4V12Z" fill="#242526"/>
</g>
<ellipse cx="29.1279" cy="21.9141" rx="5.84369" ry="6.72025" fill="#E65100"/>
<ellipse cx="48.4121" cy="21.9141" rx="5.84369" ry="6.72025" fill="#FFD600"/>
<ellipse cx="67.6962" cy="21.9141" rx="5.84369" ry="6.72025" fill="#4EC433"/>
<defs>
<filter id="filter0_d_213_134" x="0" y="0" width="803" height="51" filterUnits="userSpaceOnUse" color-interpolation-filters="sRGB">
<feFlood flood-opacity="0" result="BackgroundImageFix"/>
<feColorMatrix in="SourceAlpha" type="matrix" values="0 0 0 0 0 0 0 0 0 0 0 0 0 0 0 0 0 0 127 0" result="hardAlpha"/>
<feOffset dy="4"/>
<feGaussianBlur stdDeviation="2"/>
<feComposite in2="hardAlpha" operator="out"/>
<feColorMatrix type="matrix" values="0 0 0 0 0 0 0 0 0 0 0 0 0 0 0 0 0 0 0.25 0"/>
<feBlend mode="normal" in2="BackgroundImageFix" result="effect1_dropShadow_213_134"/>
<feBlend mode="normal" in="SourceGraphic" in2="effect1_dropShadow_213_134" result="shape"/>
</filter>
</defs>
</svg>
