<svg width="803" height="178" viewBox="0 0 803 178" fill="none" xmlns="http://www.w3.org/2000/svg">
<rect x="4" width="586" height="144" rx="12" fill="#242526"/>
<rect x="4" width="795" height="178" rx="12" fill="#242526"/>
<path d="M21.676 89.525C21.6 89.525 21.5177 89.4997 21.429 89.449C21.353 89.3983 21.2833 89.3603 21.22 89.335L15.235 85.212C15.045 85.0853 14.9057 84.9587 14.817 84.832C14.7283 84.6927 14.684 84.5343 14.684 84.357V84.015C14.684 83.8377 14.7283 83.6857 14.817 83.559C14.9057 83.4323 15.045 83.2993 15.235 83.16L21.22 79.056C21.2833 79.018 21.353 78.9737 21.429 78.923C21.5177 78.8723 21.6 78.847 21.676 78.847C21.7773 78.847 21.866 78.885 21.942 78.961C22.018 79.0243 22.056 79.1193 22.056 79.246V80.082C22.056 80.2213 22.018 80.3417 21.942 80.443C21.866 80.5317 21.7583 80.6203 21.619 80.709L16.527 84.186L21.619 87.663C21.7583 87.7643 21.866 87.8593 21.942 87.948C22.018 88.0367 22.056 88.157 22.056 88.309V89.145C22.056 89.259 22.018 89.354 21.942 89.43C21.866 89.4933 21.7773 89.525 21.676 89.525ZM191.997 89.506C191.896 89.506 191.807 89.4743 191.731 89.411C191.655 89.3477 191.617 89.2527 191.617 89.126V88.29C191.617 88.138 191.649 88.0177 191.712 87.929C191.788 87.8403 191.902 87.7517 192.054 87.663L197.127 84.186L192.054 80.709C191.902 80.6077 191.788 80.5127 191.712 80.424C191.649 80.3353 191.617 80.215 191.617 80.063V79.227C191.617 79.1003 191.655 79.0053 191.731 78.942C191.807 78.8787 191.896 78.847 191.997 78.847C192.073 78.847 192.156 78.8723 192.244 78.923C192.333 78.961 192.403 78.999 192.453 79.037L198.419 83.141C198.622 83.2803 198.761 83.4133 198.837 83.54C198.926 83.6667 198.97 83.825 198.97 84.015V84.338C198.97 84.5153 198.926 84.6737 198.837 84.813C198.761 84.9397 198.622 85.0727 198.419 85.212L192.453 89.316C192.403 89.354 192.333 89.3983 192.244 89.449C192.156 89.487 192.073 89.506 191.997 89.506ZM387.797 89.525C387.721 89.525 387.639 89.4997 387.55 89.449C387.474 89.3983 387.404 89.3603 387.341 89.335L381.356 85.212C381.166 85.0853 381.027 84.9587 380.938 84.832C380.849 84.6927 380.805 84.5343 380.805 84.357V84.015C380.805 83.8377 380.849 83.6857 380.938 83.559C381.027 83.4323 381.166 83.2993 381.356 83.16L387.341 79.056C387.404 79.018 387.474 78.9737 387.55 78.923C387.639 78.8723 387.721 78.847 387.797 78.847C387.898 78.847 387.987 78.885 388.063 78.961C388.139 79.0243 388.177 79.1193 388.177 79.246V80.082C388.177 80.2213 388.139 80.3417 388.063 80.443C387.987 80.5317 387.879 80.6203 387.74 80.709L382.648 84.186L387.74 87.663C387.879 87.7643 387.987 87.8593 388.063 87.948C388.139 88.0367 388.177 88.157 388.177 88.309V89.145C388.177 89.259 388.139 89.354 388.063 89.43C387.987 89.4933 387.898 89.525 387.797 89.525ZM455.919 89.506C455.818 89.506 455.729 89.4743 455.653 89.411C455.577 89.3477 455.539 89.2527 455.539 89.126V88.29C455.539 88.138 455.571 88.0177 455.634 87.929C455.71 87.8403 455.824 87.7517 455.976 87.663L461.049 84.186L455.976 80.709C455.824 80.6077 455.71 80.5127 455.634 80.424C455.571 80.3353 455.539 80.215 455.539 80.063V79.227C455.539 79.1003 455.577 79.0053 455.653 78.942C455.729 78.8787 455.818 78.847 455.919 78.847C455.995 78.847 456.077 78.8723 456.166 78.923C456.255 78.961 456.324 78.999 456.375 79.037L462.341 83.141C462.544 83.2803 462.683 83.4133 462.759 83.54C462.848 83.6667 462.892 83.825 462.892 84.015V84.338C462.892 84.5153 462.848 84.6737 462.759 84.813C462.683 84.9397 462.544 85.0727 462.341 85.212L456.375 89.316C456.324 89.354 456.255 89.3983 456.166 89.449C456.077 89.487 455.995 89.506 455.919 89.506ZM21.676 120.525C21.6 120.525 21.5177 120.5 21.429 120.449C21.353 120.398 21.2833 120.36 21.22 120.335L15.235 116.212C15.045 116.085 14.9057 115.959 14.817 115.832C14.7283 115.693 14.684 115.534 14.684 115.357V115.015C14.684 114.838 14.7283 114.686 14.817 114.559C14.9057 114.432 15.045 114.299 15.235 114.16L21.22 110.056C21.2833 110.018 21.353 109.974 21.429 109.923C21.5177 109.872 21.6 109.847 21.676 109.847C21.7773 109.847 21.866 109.885 21.942 109.961C22.018 110.024 22.056 110.119 22.056 110.246V111.082C22.056 111.221 22.018 111.342 21.942 111.443C21.866 111.532 21.7583 111.62 21.619 111.709L16.527 115.186L21.619 118.663C21.7583 118.764 21.866 118.859 21.942 118.948C22.018 119.037 22.056 119.157 22.056 119.309V120.145C22.056 120.259 22.018 120.354 21.942 120.43C21.866 120.493 21.7773 120.525 21.676 120.525ZM474.548 120.506C474.447 120.506 474.358 120.474 474.282 120.411C474.206 120.348 474.168 120.253 474.168 120.126V119.29C474.168 119.138 474.2 119.018 474.263 118.929C474.339 118.84 474.453 118.752 474.605 118.663L479.678 115.186L474.605 111.709C474.453 111.608 474.339 111.513 474.263 111.424C474.2 111.335 474.168 111.215 474.168 111.063V110.227C474.168 110.1 474.206 110.005 474.282 109.942C474.358 109.879 474.447 109.847 474.548 109.847C474.624 109.847 474.706 109.872 474.795 109.923C474.884 109.961 474.953 109.999 475.004 110.037L480.97 114.141C481.173 114.28 481.312 114.413 481.388 114.54C481.477 114.667 481.521 114.825 481.521 115.015V115.338C481.521 115.515 481.477 115.674 481.388 115.813C481.312 115.94 481.173 116.073 480.97 116.212L475.004 120.316C474.953 120.354 474.884 120.398 474.795 120.449C474.706 120.487 474.624 120.506 474.548 120.506Z" fill="#647DFF"/>
<path d="M29.8708 90C29.7441 90 29.6365 89.962 29.5478 89.886C29.4718 89.7973 29.4338 89.6897 29.4338 89.563V76.947C29.4338 76.8203 29.4718 76.719 29.5478 76.643C29.6365 76.5543 29.7441 76.51 29.8708 76.51H30.7638C30.9031 76.51 31.0108 76.5543 31.0868 76.643C31.1628 76.719 31.2008 76.8203 31.2008 76.947V89.563C31.2008 89.6897 31.1628 89.7973 31.0868 89.886C31.0108 89.962 30.9031 90 30.7638 90H29.8708ZM36.7899 90.19C36.1566 90.19 35.5802 90.0633 35.0609 89.81C34.5416 89.5567 34.1236 89.2147 33.8069 88.784C33.4902 88.3533 33.3319 87.8657 33.3319 87.321C33.3319 86.447 33.6866 85.7503 34.3959 85.231C35.1052 84.7117 36.0299 84.3697 37.1699 84.205L40.0009 83.806V83.255C40.0009 82.647 39.8236 82.172 39.4689 81.83C39.1269 81.488 38.5632 81.317 37.7779 81.317C37.2079 81.317 36.7456 81.431 36.3909 81.659C36.0489 81.887 35.8082 82.1783 35.6689 82.533C35.5929 82.723 35.4599 82.818 35.2699 82.818H34.4149C34.2756 82.818 34.1679 82.78 34.0919 82.704C34.0286 82.6153 33.9969 82.514 33.9969 82.4C33.9969 82.21 34.0666 81.9757 34.2059 81.697C34.3579 81.4183 34.5859 81.146 34.8899 80.88C35.1939 80.614 35.5802 80.3923 36.0489 80.215C36.5302 80.025 37.1129 79.93 37.7969 79.93C38.5569 79.93 39.1966 80.0313 39.7159 80.234C40.2352 80.424 40.6406 80.6837 40.9319 81.013C41.2359 81.3423 41.4512 81.716 41.5779 82.134C41.7172 82.552 41.7869 82.9763 41.7869 83.407V89.563C41.7869 89.6897 41.7426 89.7973 41.6539 89.886C41.5779 89.962 41.4766 90 41.3499 90H40.4759C40.3366 90 40.2289 89.962 40.1529 89.886C40.0769 89.7973 40.0389 89.6897 40.0389 89.563V88.746C39.8742 88.974 39.6526 89.202 39.3739 89.43C39.0952 89.6453 38.7469 89.829 38.3289 89.981C37.9109 90.1203 37.3979 90.19 36.7899 90.19ZM37.1889 88.765C37.7082 88.765 38.1832 88.6573 38.6139 88.442C39.0446 88.214 39.3802 87.8657 39.6209 87.397C39.8742 86.9283 40.0009 86.3393 40.0009 85.63V85.098L37.7969 85.421C36.8976 85.5477 36.2199 85.763 35.7639 86.067C35.3079 86.3583 35.0799 86.732 35.0799 87.188C35.0799 87.5427 35.1812 87.8403 35.3839 88.081C35.5992 88.309 35.8652 88.48 36.1819 88.594C36.5112 88.708 36.8469 88.765 37.1889 88.765ZM49.4013 90.19C48.6413 90.19 48.008 90.057 47.5013 89.791C46.9946 89.5123 46.5893 89.1703 46.2853 88.765V89.563C46.2853 89.6897 46.241 89.7973 46.1523 89.886C46.0763 89.962 45.975 90 45.8483 90H44.9743C44.8476 90 44.74 89.962 44.6513 89.886C44.5753 89.7973 44.5373 89.6897 44.5373 89.563V76.947C44.5373 76.8203 44.5753 76.719 44.6513 76.643C44.74 76.5543 44.8476 76.51 44.9743 76.51H45.8863C46.0256 76.51 46.1333 76.5543 46.2093 76.643C46.2853 76.719 46.3233 76.8203 46.3233 76.947V81.317C46.64 80.9243 47.0453 80.595 47.5393 80.329C48.046 80.063 48.6666 79.93 49.4013 79.93C50.1106 79.93 50.7123 80.0567 51.2063 80.31C51.713 80.5507 52.1246 80.8863 52.4413 81.317C52.7706 81.7477 53.0176 82.2353 53.1823 82.78C53.347 83.3247 53.4356 83.8947 53.4483 84.49C53.461 84.6927 53.4673 84.8827 53.4673 85.06C53.4673 85.2373 53.461 85.4273 53.4483 85.63C53.4356 86.238 53.347 86.8143 53.1823 87.359C53.0176 87.9037 52.7706 88.3913 52.4413 88.822C52.1246 89.24 51.713 89.5757 51.2063 89.829C50.7123 90.0697 50.1106 90.19 49.4013 90.19ZM49.0023 88.651C49.661 88.651 50.174 88.5117 50.5413 88.233C50.9213 87.9417 51.1936 87.568 51.3583 87.112C51.523 86.6433 51.618 86.143 51.6433 85.611C51.656 85.2437 51.656 84.8763 51.6433 84.509C51.618 83.977 51.523 83.483 51.3583 83.027C51.1936 82.5583 50.9213 82.1847 50.5413 81.906C50.174 81.6147 49.661 81.469 49.0023 81.469C48.407 81.469 47.913 81.6083 47.5203 81.887C47.1276 82.1657 46.83 82.5203 46.6273 82.951C46.4373 83.3817 46.336 83.8187 46.3233 84.262C46.3106 84.4647 46.3043 84.7117 46.3043 85.003C46.3043 85.2817 46.3106 85.5223 46.3233 85.725C46.3486 86.1937 46.45 86.656 46.6273 87.112C46.8173 87.5553 47.1023 87.9227 47.4823 88.214C47.875 88.5053 48.3816 88.651 49.0023 88.651ZM59.7511 90.19C58.4464 90.19 57.4078 89.791 56.6351 88.993C55.8624 88.1823 55.4381 87.0803 55.3621 85.687C55.3494 85.5223 55.3431 85.3133 55.3431 85.06C55.3431 84.794 55.3494 84.5787 55.3621 84.414C55.4128 83.5147 55.6218 82.7293 55.9891 82.058C56.3564 81.374 56.8568 80.8483 57.4901 80.481C58.1361 80.1137 58.8898 79.93 59.7511 79.93C60.7138 79.93 61.5181 80.1327 62.1641 80.538C62.8228 80.9433 63.3231 81.5197 63.6651 82.267C64.0071 83.0143 64.1781 83.8883 64.1781 84.889V85.212C64.1781 85.3513 64.1338 85.459 64.0451 85.535C63.9691 85.611 63.8678 85.649 63.7411 85.649H57.1671C57.1671 85.6617 57.1671 85.687 57.1671 85.725C57.1671 85.763 57.1671 85.7947 57.1671 85.82C57.1924 86.3393 57.3064 86.827 57.5091 87.283C57.7118 87.7263 58.0031 88.0873 58.3831 88.366C58.7631 88.6447 59.2191 88.784 59.7511 88.784C60.2071 88.784 60.5871 88.7143 60.8911 88.575C61.1951 88.4357 61.4421 88.2837 61.6321 88.119C61.8221 87.9417 61.9488 87.8087 62.0121 87.72C62.1261 87.5553 62.2148 87.4603 62.2781 87.435C62.3414 87.397 62.4428 87.378 62.5821 87.378H63.4941C63.6208 87.378 63.7221 87.416 63.7981 87.492C63.8868 87.5553 63.9248 87.6503 63.9121 87.777C63.8994 87.967 63.7981 88.2013 63.6081 88.48C63.4181 88.746 63.1458 89.012 62.7911 89.278C62.4364 89.544 62.0058 89.7657 61.4991 89.943C60.9924 90.1077 60.4098 90.19 59.7511 90.19ZM57.1671 84.338H62.3731V84.281C62.3731 83.711 62.2654 83.2043 62.0501 82.761C61.8474 82.3177 61.5498 81.9693 61.1571 81.716C60.7644 81.45 60.2958 81.317 59.7511 81.317C59.2064 81.317 58.7378 81.45 58.3451 81.716C57.9651 81.9693 57.6738 82.3177 57.4711 82.761C57.2684 83.2043 57.1671 83.711 57.1671 84.281V84.338ZM66.9059 90C66.7793 90 66.6716 89.962 66.5829 89.886C66.5069 89.7973 66.4689 89.6897 66.4689 89.563V76.947C66.4689 76.8203 66.5069 76.719 66.5829 76.643C66.6716 76.5543 66.7793 76.51 66.9059 76.51H67.7989C67.9383 76.51 68.0459 76.5543 68.1219 76.643C68.1979 76.719 68.2359 76.8203 68.2359 76.947V89.563C68.2359 89.6897 68.1979 89.7973 68.1219 89.886C68.0459 89.962 67.9383 90 67.7989 90H66.9059ZM76.7998 90C76.6731 90 76.5654 89.962 76.4767 89.886C76.4008 89.7973 76.3628 89.6897 76.3628 89.563V81.64H74.7478C74.6211 81.64 74.5134 81.602 74.4248 81.526C74.3488 81.4373 74.3108 81.3297 74.3108 81.203V80.557C74.3108 80.4303 74.3488 80.329 74.4248 80.253C74.5134 80.1643 74.6211 80.12 74.7478 80.12H76.3628V79.17C76.3628 78.524 76.4704 77.9603 76.6858 77.479C76.9011 76.985 77.2431 76.605 77.7118 76.339C78.1931 76.073 78.8328 75.94 79.6308 75.94H80.7708C80.8974 75.94 80.9988 75.9843 81.0748 76.073C81.1508 76.149 81.1888 76.2503 81.1888 76.377V77.023C81.1888 77.1497 81.1508 77.2573 81.0748 77.346C80.9988 77.422 80.8974 77.46 80.7708 77.46H79.6688C79.0734 77.46 78.6681 77.6183 78.4528 77.935C78.2374 78.239 78.1298 78.6823 78.1298 79.265V80.12H80.5808C80.7074 80.12 80.8088 80.1643 80.8848 80.253C80.9608 80.329 80.9988 80.4303 80.9988 80.557V81.203C80.9988 81.3297 80.9608 81.4373 80.8848 81.526C80.8088 81.602 80.7074 81.64 80.5808 81.64H78.1298V89.563C78.1298 89.6897 78.0854 89.7973 77.9968 89.886C77.9208 89.962 77.8194 90 77.6928 90H76.7998ZM86.5468 90.19C85.5841 90.19 84.7798 90.0063 84.1338 89.639C83.4878 89.2717 82.9938 88.765 82.6518 88.119C82.3098 87.4603 82.1198 86.713 82.0818 85.877C82.0691 85.6617 82.0628 85.3893 82.0628 85.06C82.0628 84.718 82.0691 84.4457 82.0818 84.243C82.1198 83.3943 82.3098 82.647 82.6518 82.001C83.0064 81.355 83.5068 80.8483 84.1528 80.481C84.7988 80.1137 85.5968 79.93 86.5468 79.93C87.4968 79.93 88.2948 80.1137 88.9408 80.481C89.5868 80.8483 90.0808 81.355 90.4228 82.001C90.7774 82.647 90.9738 83.3943 91.0118 84.243C91.0244 84.4457 91.0308 84.718 91.0308 85.06C91.0308 85.3893 91.0244 85.6617 91.0118 85.877C90.9738 86.713 90.7838 87.4603 90.4418 88.119C90.0998 88.765 89.6058 89.2717 88.9598 89.639C88.3138 90.0063 87.5094 90.19 86.5468 90.19ZM86.5468 88.727C87.3321 88.727 87.9591 88.48 88.4278 87.986C88.8964 87.4793 89.1498 86.7447 89.1878 85.782C89.2004 85.592 89.2068 85.3513 89.2068 85.06C89.2068 84.7687 89.2004 84.528 89.1878 84.338C89.1498 83.3753 88.8964 82.647 88.4278 82.153C87.9591 81.6463 87.3321 81.393 86.5468 81.393C85.7614 81.393 85.1281 81.6463 84.6468 82.153C84.1781 82.647 83.9311 83.3753 83.9058 84.338C83.8931 84.528 83.8867 84.7687 83.8867 85.06C83.8867 85.3513 83.8931 85.592 83.9058 85.782C83.9311 86.7447 84.1781 87.4793 84.6468 87.986C85.1281 88.48 85.7614 88.727 86.5468 88.727ZM93.8469 90C93.7202 90 93.6126 89.962 93.5239 89.886C93.4479 89.7973 93.4099 89.6897 93.4099 89.563V80.576C93.4099 80.4493 93.4479 80.3417 93.5239 80.253C93.6126 80.1643 93.7202 80.12 93.8469 80.12H94.7209C94.8476 80.12 94.9552 80.1643 95.0439 80.253C95.1326 80.3417 95.1769 80.4493 95.1769 80.576V81.412C95.4302 80.9813 95.7786 80.6583 96.2219 80.443C96.6652 80.2277 97.1972 80.12 97.8179 80.12H98.5779C98.7046 80.12 98.8059 80.1643 98.8819 80.253C98.9579 80.329 98.9959 80.4303 98.9959 80.557V81.336C98.9959 81.4627 98.9579 81.564 98.8819 81.64C98.8059 81.716 98.7046 81.754 98.5779 81.754H97.4379C96.7539 81.754 96.2156 81.9567 95.8229 82.362C95.4302 82.7547 95.2339 83.293 95.2339 83.977V89.563C95.2339 89.6897 95.1896 89.7973 95.1009 89.886C95.0122 89.962 94.9046 90 94.7779 90H93.8469ZM105.22 82.666C105.093 82.666 104.992 82.628 104.916 82.552C104.84 82.476 104.802 82.3747 104.802 82.248V81.602C104.802 81.4753 104.84 81.374 104.916 81.298C104.992 81.222 105.093 81.184 105.22 81.184H112.459C112.585 81.184 112.687 81.222 112.763 81.298C112.851 81.374 112.896 81.4753 112.896 81.602V82.248C112.896 82.3747 112.851 82.476 112.763 82.552C112.687 82.628 112.585 82.666 112.459 82.666H105.22ZM105.22 87.416C105.093 87.416 104.992 87.378 104.916 87.302C104.84 87.226 104.802 87.1247 104.802 86.998V86.352C104.802 86.2253 104.84 86.124 104.916 86.048C104.992 85.972 105.093 85.934 105.22 85.934H112.459C112.585 85.934 112.687 85.972 112.763 86.048C112.851 86.124 112.896 86.2253 112.896 86.352V86.998C112.896 87.1247 112.851 87.226 112.763 87.302C112.687 87.378 112.585 87.416 112.459 87.416H105.22ZM123.24 80.177C123.151 80.177 123.075 80.1453 123.012 80.082C122.961 80.0187 122.936 79.9427 122.936 79.854C122.936 79.7527 122.955 79.6513 122.993 79.55L124 76.947C124.063 76.8203 124.126 76.719 124.19 76.643C124.266 76.5543 124.386 76.51 124.551 76.51H125.178C125.279 76.51 125.355 76.548 125.406 76.624C125.469 76.7 125.488 76.8013 125.463 76.928L125.045 79.626C125.032 79.778 124.981 79.911 124.893 80.025C124.804 80.1263 124.671 80.177 124.494 80.177H123.24ZM120.2 80.177C120.111 80.177 120.035 80.1453 119.972 80.082C119.921 80.0187 119.896 79.9427 119.896 79.854C119.896 79.7527 119.915 79.6513 119.953 79.55L120.96 76.947C121.023 76.8203 121.093 76.719 121.169 76.643C121.245 76.5543 121.359 76.51 121.511 76.51H122.138C122.239 76.51 122.315 76.548 122.366 76.624C122.429 76.7 122.448 76.8013 122.423 76.928L122.005 79.626C121.992 79.778 121.941 79.911 121.853 80.025C121.764 80.1263 121.637 80.177 121.473 80.177H120.2ZM187.386 80.177C187.272 80.177 187.19 80.139 187.139 80.063C187.088 79.987 187.069 79.892 187.082 79.778L187.5 77.061C187.525 76.909 187.576 76.7823 187.652 76.681C187.741 76.567 187.874 76.51 188.051 76.51H189.305C189.406 76.51 189.482 76.548 189.533 76.624C189.596 76.6873 189.628 76.757 189.628 76.833C189.628 76.9343 189.603 77.0357 189.552 77.137L188.564 79.74C188.513 79.8667 188.444 79.9743 188.355 80.063C188.279 80.139 188.159 80.177 187.994 80.177H187.386ZM184.346 80.177C184.245 80.177 184.162 80.139 184.099 80.063C184.048 79.987 184.029 79.892 184.042 79.778L184.479 77.061C184.504 76.909 184.555 76.7823 184.631 76.681C184.72 76.567 184.846 76.51 185.011 76.51H186.284C186.373 76.51 186.442 76.548 186.493 76.624C186.556 76.6873 186.588 76.757 186.588 76.833C186.588 76.9343 186.563 77.0357 186.512 77.137L185.524 79.74C185.473 79.8667 185.404 79.9743 185.315 80.063C185.239 80.139 185.119 80.177 184.954 80.177H184.346ZM395.004 91.596C394.903 91.596 394.814 91.558 394.738 91.482C394.662 91.406 394.624 91.3173 394.624 91.216C394.624 91.1527 394.643 91.0767 394.681 90.988L401.179 75.408C401.217 75.332 401.268 75.256 401.331 75.18C401.407 75.104 401.521 75.066 401.673 75.066H402.414C402.515 75.066 402.604 75.104 402.68 75.18C402.756 75.256 402.794 75.3447 402.794 75.446C402.794 75.4967 402.781 75.5727 402.756 75.674L396.239 91.254C396.214 91.3173 396.157 91.387 396.068 91.463C395.992 91.5517 395.884 91.596 395.745 91.596H395.004ZM409.797 90C409.67 90 409.562 89.962 409.474 89.886C409.398 89.7973 409.36 89.6897 409.36 89.563V76.947C409.36 76.8203 409.398 76.719 409.474 76.643C409.562 76.5543 409.67 76.51 409.797 76.51H410.69C410.829 76.51 410.937 76.5543 411.013 76.643C411.089 76.719 411.127 76.8203 411.127 76.947V89.563C411.127 89.6897 411.089 89.7973 411.013 89.886C410.937 89.962 410.829 90 410.69 90H409.797ZM416.716 90.19C416.082 90.19 415.506 90.0633 414.987 89.81C414.467 89.5567 414.049 89.2147 413.733 88.784C413.416 88.3533 413.258 87.8657 413.258 87.321C413.258 86.447 413.612 85.7503 414.322 85.231C415.031 84.7117 415.956 84.3697 417.096 84.205L419.927 83.806V83.255C419.927 82.647 419.749 82.172 419.395 81.83C419.053 81.488 418.489 81.317 417.704 81.317C417.134 81.317 416.671 81.431 416.317 81.659C415.975 81.887 415.734 82.1783 415.595 82.533C415.519 82.723 415.386 82.818 415.196 82.818H414.341C414.201 82.818 414.094 82.78 414.018 82.704C413.954 82.6153 413.923 82.514 413.923 82.4C413.923 82.21 413.992 81.9757 414.132 81.697C414.284 81.4183 414.512 81.146 414.816 80.88C415.12 80.614 415.506 80.3923 415.975 80.215C416.456 80.025 417.039 79.93 417.723 79.93C418.483 79.93 419.122 80.0313 419.642 80.234C420.161 80.424 420.566 80.6837 420.858 81.013C421.162 81.3423 421.377 81.716 421.504 82.134C421.643 82.552 421.713 82.9763 421.713 83.407V89.563C421.713 89.6897 421.668 89.7973 421.58 89.886C421.504 89.962 421.402 90 421.276 90H420.402C420.262 90 420.155 89.962 420.079 89.886C420.003 89.7973 419.965 89.6897 419.965 89.563V88.746C419.8 88.974 419.578 89.202 419.3 89.43C419.021 89.6453 418.673 89.829 418.255 89.981C417.837 90.1203 417.324 90.19 416.716 90.19ZM417.115 88.765C417.634 88.765 418.109 88.6573 418.54 88.442C418.97 88.214 419.306 87.8657 419.547 87.397C419.8 86.9283 419.927 86.3393 419.927 85.63V85.098L417.723 85.421C416.823 85.5477 416.146 85.763 415.69 86.067C415.234 86.3583 415.006 86.732 415.006 87.188C415.006 87.5427 415.107 87.8403 415.31 88.081C415.525 88.309 415.791 88.48 416.108 88.594C416.437 88.708 416.773 88.765 417.115 88.765ZM429.327 90.19C428.567 90.19 427.934 90.057 427.427 89.791C426.92 89.5123 426.515 89.1703 426.211 88.765V89.563C426.211 89.6897 426.167 89.7973 426.078 89.886C426.002 89.962 425.901 90 425.774 90H424.9C424.773 90 424.666 89.962 424.577 89.886C424.501 89.7973 424.463 89.6897 424.463 89.563V76.947C424.463 76.8203 424.501 76.719 424.577 76.643C424.666 76.5543 424.773 76.51 424.9 76.51H425.812C425.951 76.51 426.059 76.5543 426.135 76.643C426.211 76.719 426.249 76.8203 426.249 76.947V81.317C426.566 80.9243 426.971 80.595 427.465 80.329C427.972 80.063 428.592 79.93 429.327 79.93C430.036 79.93 430.638 80.0567 431.132 80.31C431.639 80.5507 432.05 80.8863 432.367 81.317C432.696 81.7477 432.943 82.2353 433.108 82.78C433.273 83.3247 433.361 83.8947 433.374 84.49C433.387 84.6927 433.393 84.8827 433.393 85.06C433.393 85.2373 433.387 85.4273 433.374 85.63C433.361 86.238 433.273 86.8143 433.108 87.359C432.943 87.9037 432.696 88.3913 432.367 88.822C432.05 89.24 431.639 89.5757 431.132 89.829C430.638 90.0697 430.036 90.19 429.327 90.19ZM428.928 88.651C429.587 88.651 430.1 88.5117 430.467 88.233C430.847 87.9417 431.119 87.568 431.284 87.112C431.449 86.6433 431.544 86.143 431.569 85.611C431.582 85.2437 431.582 84.8763 431.569 84.509C431.544 83.977 431.449 83.483 431.284 83.027C431.119 82.5583 430.847 82.1847 430.467 81.906C430.1 81.6147 429.587 81.469 428.928 81.469C428.333 81.469 427.839 81.6083 427.446 81.887C427.053 82.1657 426.756 82.5203 426.553 82.951C426.363 83.3817 426.262 83.8187 426.249 84.262C426.236 84.4647 426.23 84.7117 426.23 85.003C426.23 85.2817 426.236 85.5223 426.249 85.725C426.274 86.1937 426.376 86.656 426.553 87.112C426.743 87.5553 427.028 87.9227 427.408 88.214C427.801 88.5053 428.307 88.651 428.928 88.651ZM439.677 90.19C438.372 90.19 437.334 89.791 436.561 88.993C435.788 88.1823 435.364 87.0803 435.288 85.687C435.275 85.5223 435.269 85.3133 435.269 85.06C435.269 84.794 435.275 84.5787 435.288 84.414C435.339 83.5147 435.548 82.7293 435.915 82.058C436.282 81.374 436.783 80.8483 437.416 80.481C438.062 80.1137 438.816 79.93 439.677 79.93C440.64 79.93 441.444 80.1327 442.09 80.538C442.749 80.9433 443.249 81.5197 443.591 82.267C443.933 83.0143 444.104 83.8883 444.104 84.889V85.212C444.104 85.3513 444.06 85.459 443.971 85.535C443.895 85.611 443.794 85.649 443.667 85.649H437.093C437.093 85.6617 437.093 85.687 437.093 85.725C437.093 85.763 437.093 85.7947 437.093 85.82C437.118 86.3393 437.232 86.827 437.435 87.283C437.638 87.7263 437.929 88.0873 438.309 88.366C438.689 88.6447 439.145 88.784 439.677 88.784C440.133 88.784 440.513 88.7143 440.817 88.575C441.121 88.4357 441.368 88.2837 441.558 88.119C441.748 87.9417 441.875 87.8087 441.938 87.72C442.052 87.5553 442.141 87.4603 442.204 87.435C442.267 87.397 442.369 87.378 442.508 87.378H443.42C443.547 87.378 443.648 87.416 443.724 87.492C443.813 87.5553 443.851 87.6503 443.838 87.777C443.825 87.967 443.724 88.2013 443.534 88.48C443.344 88.746 443.072 89.012 442.717 89.278C442.362 89.544 441.932 89.7657 441.425 89.943C440.918 90.1077 440.336 90.19 439.677 90.19ZM437.093 84.338H442.299V84.281C442.299 83.711 442.191 83.2043 441.976 82.761C441.773 82.3177 441.476 81.9693 441.083 81.716C440.69 81.45 440.222 81.317 439.677 81.317C439.132 81.317 438.664 81.45 438.271 81.716C437.891 81.9693 437.6 82.3177 437.397 82.761C437.194 83.2043 437.093 83.711 437.093 84.281V84.338ZM446.832 90C446.705 90 446.597 89.962 446.509 89.886C446.433 89.7973 446.395 89.6897 446.395 89.563V76.947C446.395 76.8203 446.433 76.719 446.509 76.643C446.597 76.5543 446.705 76.51 446.832 76.51H447.725C447.864 76.51 447.972 76.5543 448.048 76.643C448.124 76.719 448.162 76.8203 448.162 76.947V89.563C448.162 89.6897 448.124 89.7973 448.048 89.886C447.972 89.962 447.864 90 447.725 90H446.832ZM29.8518 121C29.7251 121 29.6175 120.962 29.5288 120.886C29.4528 120.797 29.4148 120.69 29.4148 120.563V111.557C29.4148 111.43 29.4528 111.329 29.5288 111.253C29.6175 111.164 29.7251 111.12 29.8518 111.12H30.7638C30.8905 111.12 30.9918 111.164 31.0678 111.253C31.1438 111.329 31.1818 111.43 31.1818 111.557V120.563C31.1818 120.69 31.1438 120.797 31.0678 120.886C30.9918 120.962 30.8905 121 30.7638 121H29.8518ZM29.6998 109.277C29.5731 109.277 29.4655 109.239 29.3768 109.163C29.3008 109.074 29.2628 108.967 29.2628 108.84V107.814C29.2628 107.687 29.3008 107.586 29.3768 107.51C29.4655 107.421 29.5731 107.377 29.6998 107.377H30.8968C31.0235 107.377 31.1248 107.421 31.2008 107.51C31.2895 107.586 31.3338 107.687 31.3338 107.814V108.84C31.3338 108.967 31.2895 109.074 31.2008 109.163C31.1248 109.239 31.0235 109.277 30.8968 109.277H29.6998ZM34.6389 121C34.5122 121 34.4046 120.962 34.3159 120.886C34.2399 120.797 34.2019 120.69 34.2019 120.563V111.557C34.2019 111.43 34.2399 111.329 34.3159 111.253C34.4046 111.164 34.5122 111.12 34.6389 111.12H35.5319C35.6586 111.12 35.7599 111.164 35.8359 111.253C35.9246 111.329 35.9689 111.43 35.9689 111.557V112.393C36.2982 111.962 36.7099 111.614 37.2039 111.348C37.7106 111.069 38.3566 110.93 39.1419 110.93C39.9652 110.93 40.6619 111.114 41.2319 111.481C41.8146 111.836 42.2516 112.336 42.5429 112.982C42.8342 113.615 42.9799 114.356 42.9799 115.205V120.563C42.9799 120.69 42.9419 120.797 42.8659 120.886C42.7899 120.962 42.6886 121 42.5619 121H41.6119C41.4852 121 41.3776 120.962 41.2889 120.886C41.2129 120.797 41.1749 120.69 41.1749 120.563V115.3C41.1749 114.413 40.9596 113.723 40.5289 113.229C40.0982 112.722 39.4649 112.469 38.6289 112.469C37.8436 112.469 37.2102 112.722 36.7289 113.229C36.2602 113.723 36.0259 114.413 36.0259 115.3V120.563C36.0259 120.69 35.9816 120.797 35.8929 120.886C35.8169 120.962 35.7156 121 35.5889 121H34.6389ZM46.1804 124.61C46.0537 124.61 45.946 124.566 45.8574 124.477C45.7814 124.401 45.7434 124.3 45.7434 124.173V111.557C45.7434 111.43 45.7814 111.329 45.8574 111.253C45.946 111.164 46.0537 111.12 46.1804 111.12H47.0544C47.181 111.12 47.2824 111.164 47.3584 111.253C47.447 111.329 47.4914 111.43 47.4914 111.557V112.393C47.7954 111.975 48.2007 111.627 48.7074 111.348C49.214 111.069 49.8474 110.93 50.6074 110.93C51.3167 110.93 51.9184 111.05 52.4124 111.291C52.919 111.532 53.3307 111.861 53.6474 112.279C53.9767 112.697 54.2237 113.172 54.3884 113.704C54.553 114.236 54.6417 114.806 54.6544 115.414C54.667 115.617 54.6734 115.832 54.6734 116.06C54.6734 116.288 54.667 116.503 54.6544 116.706C54.6417 117.301 54.553 117.871 54.3884 118.416C54.2237 118.948 53.9767 119.423 53.6474 119.841C53.3307 120.246 52.919 120.576 52.4124 120.829C51.9184 121.07 51.3167 121.19 50.6074 121.19C49.8727 121.19 49.252 121.057 48.7454 120.791C48.2514 120.512 47.846 120.17 47.5294 119.765V124.173C47.5294 124.3 47.4914 124.401 47.4154 124.477C47.3394 124.566 47.2317 124.61 47.0924 124.61H46.1804ZM50.2084 119.651C50.867 119.651 51.38 119.512 51.7474 119.233C52.1274 118.942 52.3997 118.568 52.5644 118.112C52.729 117.643 52.824 117.143 52.8494 116.611C52.862 116.244 52.862 115.876 52.8494 115.509C52.824 114.977 52.729 114.483 52.5644 114.027C52.3997 113.558 52.1274 113.185 51.7474 112.906C51.38 112.615 50.867 112.469 50.2084 112.469C49.5877 112.469 49.081 112.615 48.6884 112.906C48.3084 113.197 48.0234 113.571 47.8334 114.027C47.656 114.47 47.5547 114.926 47.5294 115.395C47.5167 115.598 47.5104 115.838 47.5104 116.117C47.5104 116.396 47.5167 116.643 47.5294 116.858C47.542 117.301 47.6434 117.738 47.8334 118.169C48.036 118.6 48.3337 118.954 48.7264 119.233C49.119 119.512 49.613 119.651 50.2084 119.651ZM60.7287 121.19C59.9181 121.19 59.2277 121.013 58.6577 120.658C58.1004 120.291 57.6761 119.784 57.3847 119.138C57.0934 118.492 56.9477 117.751 56.9477 116.915V111.557C56.9477 111.43 56.9857 111.329 57.0617 111.253C57.1504 111.164 57.2581 111.12 57.3847 111.12H58.3347C58.4614 111.12 58.5627 111.164 58.6387 111.253C58.7274 111.329 58.7717 111.43 58.7717 111.557V116.82C58.7717 118.707 59.5951 119.651 61.2417 119.651C62.0271 119.651 62.6541 119.404 63.1227 118.91C63.6041 118.403 63.8447 117.707 63.8447 116.82V111.557C63.8447 111.43 63.8827 111.329 63.9587 111.253C64.0474 111.164 64.1551 111.12 64.2817 111.12H65.2127C65.3521 111.12 65.4597 111.164 65.5357 111.253C65.6117 111.329 65.6497 111.43 65.6497 111.557V120.563C65.6497 120.69 65.6117 120.797 65.5357 120.886C65.4597 120.962 65.3521 121 65.2127 121H64.3387C64.2121 121 64.1044 120.962 64.0157 120.886C63.9397 120.797 63.9017 120.69 63.9017 120.563V119.727C63.5597 120.17 63.1417 120.525 62.6477 120.791C62.1664 121.057 61.5267 121.19 60.7287 121.19ZM72.3294 121C71.6201 121 71.0437 120.867 70.6004 120.601C70.1571 120.322 69.8341 119.936 69.6314 119.442C69.4287 118.935 69.3274 118.34 69.3274 117.656V112.64H67.8454C67.7187 112.64 67.6111 112.602 67.5224 112.526C67.4464 112.437 67.4084 112.33 67.4084 112.203V111.557C67.4084 111.43 67.4464 111.329 67.5224 111.253C67.6111 111.164 67.7187 111.12 67.8454 111.12H69.3274V107.947C69.3274 107.82 69.3654 107.719 69.4414 107.643C69.5301 107.554 69.6377 107.51 69.7644 107.51H70.6574C70.7841 107.51 70.8854 107.554 70.9614 107.643C71.0501 107.719 71.0944 107.82 71.0944 107.947V111.12H73.4504C73.5771 111.12 73.6784 111.164 73.7544 111.253C73.8431 111.329 73.8874 111.43 73.8874 111.557V112.203C73.8874 112.33 73.8431 112.437 73.7544 112.526C73.6784 112.602 73.5771 112.64 73.4504 112.64H71.0944V117.523C71.0944 118.118 71.1957 118.587 71.3984 118.929C71.6011 119.271 71.9621 119.442 72.4814 119.442H73.6404C73.7671 119.442 73.8684 119.486 73.9444 119.575C74.0331 119.651 74.0774 119.752 74.0774 119.879V120.563C74.0774 120.69 74.0331 120.797 73.9444 120.886C73.8684 120.962 73.7671 121 73.6404 121H72.3294ZM84.0003 121C83.291 121 82.7146 120.867 82.2713 120.601C81.828 120.322 81.505 119.936 81.3023 119.442C81.0996 118.935 80.9983 118.34 80.9983 117.656V112.64H79.5163C79.3896 112.64 79.282 112.602 79.1933 112.526C79.1173 112.437 79.0793 112.33 79.0793 112.203V111.557C79.0793 111.43 79.1173 111.329 79.1933 111.253C79.282 111.164 79.3896 111.12 79.5163 111.12H80.9983V107.947C80.9983 107.82 81.0363 107.719 81.1123 107.643C81.201 107.554 81.3086 107.51 81.4353 107.51H82.3283C82.455 107.51 82.5563 107.554 82.6323 107.643C82.721 107.719 82.7653 107.82 82.7653 107.947V111.12H85.1213C85.248 111.12 85.3493 111.164 85.4253 111.253C85.514 111.329 85.5583 111.43 85.5583 111.557V112.203C85.5583 112.33 85.514 112.437 85.4253 112.526C85.3493 112.602 85.248 112.64 85.1213 112.64H82.7653V117.523C82.7653 118.118 82.8666 118.587 83.0693 118.929C83.272 119.271 83.633 119.442 84.1523 119.442H85.3113C85.438 119.442 85.5393 119.486 85.6153 119.575C85.704 119.651 85.7483 119.752 85.7483 119.879V120.563C85.7483 120.69 85.704 120.797 85.6153 120.886C85.5393 120.962 85.438 121 85.3113 121H84.0003ZM89.2942 124.61C89.1928 124.61 89.1042 124.572 89.0282 124.496C88.9522 124.42 88.9142 124.331 88.9142 124.23C88.9142 124.179 88.9205 124.129 88.9332 124.078C88.9458 124.027 88.9712 123.964 89.0092 123.888L90.4722 120.411L86.8432 111.842C86.7798 111.69 86.7482 111.582 86.7482 111.519C86.7482 111.405 86.7862 111.31 86.8622 111.234C86.9382 111.158 87.0332 111.12 87.1472 111.12H88.0782C88.2048 111.12 88.3062 111.152 88.3822 111.215C88.4582 111.278 88.5088 111.354 88.5342 111.443L91.4222 118.359L94.3862 111.443C94.4242 111.354 94.4748 111.278 94.5382 111.215C94.6142 111.152 94.7218 111.12 94.8612 111.12H95.7542C95.8682 111.12 95.9632 111.158 96.0392 111.234C96.1152 111.31 96.1532 111.399 96.1532 111.5C96.1532 111.563 96.1215 111.677 96.0582 111.842L90.6622 124.287C90.6242 124.376 90.5672 124.452 90.4912 124.515C90.4278 124.578 90.3265 124.61 90.1872 124.61H89.2942ZM98.486 124.61C98.3594 124.61 98.2517 124.566 98.163 124.477C98.087 124.401 98.049 124.3 98.049 124.173V111.557C98.049 111.43 98.087 111.329 98.163 111.253C98.2517 111.164 98.3594 111.12 98.486 111.12H99.36C99.4867 111.12 99.588 111.164 99.664 111.253C99.7527 111.329 99.797 111.43 99.797 111.557V112.393C100.101 111.975 100.506 111.627 101.013 111.348C101.52 111.069 102.153 110.93 102.913 110.93C103.622 110.93 104.224 111.05 104.718 111.291C105.225 111.532 105.636 111.861 105.953 112.279C106.282 112.697 106.529 113.172 106.694 113.704C106.859 114.236 106.947 114.806 106.96 115.414C106.973 115.617 106.979 115.832 106.979 116.06C106.979 116.288 106.973 116.503 106.96 116.706C106.947 117.301 106.859 117.871 106.694 118.416C106.529 118.948 106.282 119.423 105.953 119.841C105.636 120.246 105.225 120.576 104.718 120.829C104.224 121.07 103.622 121.19 102.913 121.19C102.178 121.19 101.558 121.057 101.051 120.791C100.557 120.512 100.152 120.17 99.835 119.765V124.173C99.835 124.3 99.797 124.401 99.721 124.477C99.645 124.566 99.5374 124.61 99.398 124.61H98.486ZM102.514 119.651C103.173 119.651 103.686 119.512 104.053 119.233C104.433 118.942 104.705 118.568 104.87 118.112C105.035 117.643 105.13 117.143 105.155 116.611C105.168 116.244 105.168 115.876 105.155 115.509C105.13 114.977 105.035 114.483 104.87 114.027C104.705 113.558 104.433 113.185 104.053 112.906C103.686 112.615 103.173 112.469 102.514 112.469C101.893 112.469 101.387 112.615 100.994 112.906C100.614 113.197 100.329 113.571 100.139 114.027C99.9617 114.47 99.8604 114.926 99.835 115.395C99.8224 115.598 99.816 115.838 99.816 116.117C99.816 116.396 99.8224 116.643 99.835 116.858C99.8477 117.301 99.949 117.738 100.139 118.169C100.342 118.6 100.639 118.954 101.032 119.233C101.425 119.512 101.919 119.651 102.514 119.651ZM113.281 121.19C111.977 121.19 110.938 120.791 110.165 119.993C109.393 119.182 108.968 118.08 108.892 116.687C108.88 116.522 108.873 116.313 108.873 116.06C108.873 115.794 108.88 115.579 108.892 115.414C108.943 114.515 109.152 113.729 109.519 113.058C109.887 112.374 110.387 111.848 111.02 111.481C111.666 111.114 112.42 110.93 113.281 110.93C114.244 110.93 115.048 111.133 115.694 111.538C116.353 111.943 116.853 112.52 117.195 113.267C117.537 114.014 117.708 114.888 117.708 115.889V116.212C117.708 116.351 117.664 116.459 117.575 116.535C117.499 116.611 117.398 116.649 117.271 116.649H110.697C110.697 116.662 110.697 116.687 110.697 116.725C110.697 116.763 110.697 116.795 110.697 116.82C110.723 117.339 110.837 117.827 111.039 118.283C111.242 118.726 111.533 119.087 111.913 119.366C112.293 119.645 112.749 119.784 113.281 119.784C113.737 119.784 114.117 119.714 114.421 119.575C114.725 119.436 114.972 119.284 115.162 119.119C115.352 118.942 115.479 118.809 115.542 118.72C115.656 118.555 115.745 118.46 115.808 118.435C115.872 118.397 115.973 118.378 116.112 118.378H117.024C117.151 118.378 117.252 118.416 117.328 118.492C117.417 118.555 117.455 118.65 117.442 118.777C117.43 118.967 117.328 119.201 117.138 119.48C116.948 119.746 116.676 120.012 116.321 120.278C115.967 120.544 115.536 120.766 115.029 120.943C114.523 121.108 113.94 121.19 113.281 121.19ZM110.697 115.338H115.903V115.281C115.903 114.711 115.796 114.204 115.58 113.761C115.378 113.318 115.08 112.969 114.687 112.716C114.295 112.45 113.826 112.317 113.281 112.317C112.737 112.317 112.268 112.45 111.875 112.716C111.495 112.969 111.204 113.318 111.001 113.761C110.799 114.204 110.697 114.711 110.697 115.281V115.338ZM125.017 113.666C124.891 113.666 124.789 113.628 124.713 113.552C124.637 113.476 124.599 113.375 124.599 113.248V112.602C124.599 112.475 124.637 112.374 124.713 112.298C124.789 112.222 124.891 112.184 125.017 112.184H132.256C132.383 112.184 132.484 112.222 132.56 112.298C132.649 112.374 132.693 112.475 132.693 112.602V113.248C132.693 113.375 132.649 113.476 132.56 113.552C132.484 113.628 132.383 113.666 132.256 113.666H125.017ZM125.017 118.416C124.891 118.416 124.789 118.378 124.713 118.302C124.637 118.226 124.599 118.125 124.599 117.998V117.352C124.599 117.225 124.637 117.124 124.713 117.048C124.789 116.972 124.891 116.934 125.017 116.934H132.256C132.383 116.934 132.484 116.972 132.56 117.048C132.649 117.124 132.693 117.225 132.693 117.352V117.998C132.693 118.125 132.649 118.226 132.56 118.302C132.484 118.378 132.383 118.416 132.256 118.416H125.017ZM143.038 111.177C142.949 111.177 142.873 111.145 142.81 111.082C142.759 111.019 142.734 110.943 142.734 110.854C142.734 110.753 142.753 110.651 142.791 110.55L143.798 107.947C143.861 107.82 143.924 107.719 143.988 107.643C144.064 107.554 144.184 107.51 144.349 107.51H144.976C145.077 107.51 145.153 107.548 145.204 107.624C145.267 107.7 145.286 107.801 145.261 107.928L144.843 110.626C144.83 110.778 144.779 110.911 144.691 111.025C144.602 111.126 144.469 111.177 144.292 111.177H143.038ZM139.998 111.177C139.909 111.177 139.833 111.145 139.77 111.082C139.719 111.019 139.694 110.943 139.694 110.854C139.694 110.753 139.713 110.651 139.751 110.55L140.758 107.947C140.821 107.82 140.891 107.719 140.967 107.643C141.043 107.554 141.157 107.51 141.309 107.51H141.936C142.037 107.51 142.113 107.548 142.164 107.624C142.227 107.7 142.246 107.801 142.221 107.928L141.803 110.626C141.79 110.778 141.739 110.911 141.651 111.025C141.562 111.126 141.435 111.177 141.271 111.177H139.998ZM207.184 111.177C207.07 111.177 206.988 111.139 206.937 111.063C206.886 110.987 206.867 110.892 206.88 110.778L207.298 108.061C207.323 107.909 207.374 107.782 207.45 107.681C207.539 107.567 207.672 107.51 207.849 107.51H209.103C209.204 107.51 209.28 107.548 209.331 107.624C209.394 107.687 209.426 107.757 209.426 107.833C209.426 107.934 209.401 108.036 209.35 108.137L208.362 110.74C208.311 110.867 208.242 110.974 208.153 111.063C208.077 111.139 207.957 111.177 207.792 111.177H207.184ZM204.144 111.177C204.043 111.177 203.96 111.139 203.897 111.063C203.846 110.987 203.827 110.892 203.84 110.778L204.277 108.061C204.302 107.909 204.353 107.782 204.429 107.681C204.518 107.567 204.644 107.51 204.809 107.51H206.082C206.171 107.51 206.24 107.548 206.291 107.624C206.354 107.687 206.386 107.757 206.386 107.833C206.386 107.934 206.361 108.036 206.31 108.137L205.322 110.74C205.271 110.867 205.202 110.974 205.113 111.063C205.037 111.139 204.917 111.177 204.752 111.177H204.144ZM216.623 121C216.497 121 216.389 120.962 216.3 120.886C216.224 120.797 216.186 120.69 216.186 120.563V111.557C216.186 111.43 216.224 111.329 216.3 111.253C216.389 111.164 216.497 111.12 216.623 111.12H217.535C217.662 111.12 217.763 111.164 217.839 111.253C217.915 111.329 217.953 111.43 217.953 111.557V120.563C217.953 120.69 217.915 120.797 217.839 120.886C217.763 120.962 217.662 121 217.535 121H216.623ZM216.471 109.277C216.345 109.277 216.237 109.239 216.148 109.163C216.072 109.074 216.034 108.967 216.034 108.84V107.814C216.034 107.687 216.072 107.586 216.148 107.51C216.237 107.421 216.345 107.377 216.471 107.377H217.668C217.795 107.377 217.896 107.421 217.972 107.51C218.061 107.586 218.105 107.687 218.105 107.814V108.84C218.105 108.967 218.061 109.074 217.972 109.163C217.896 109.239 217.795 109.277 217.668 109.277H216.471ZM224.398 121.19C223.701 121.19 223.1 121.07 222.593 120.829C222.086 120.576 221.668 120.24 221.339 119.822C221.022 119.391 220.782 118.904 220.617 118.359C220.465 117.814 220.376 117.238 220.351 116.63C220.338 116.427 220.332 116.237 220.332 116.06C220.332 115.883 220.338 115.693 220.351 115.49C220.376 114.895 220.465 114.325 220.617 113.78C220.782 113.235 221.022 112.748 221.339 112.317C221.668 111.886 222.086 111.551 222.593 111.31C223.1 111.057 223.701 110.93 224.398 110.93C225.145 110.93 225.766 111.063 226.26 111.329C226.754 111.595 227.159 111.924 227.476 112.317V107.947C227.476 107.82 227.514 107.719 227.59 107.643C227.679 107.554 227.786 107.51 227.913 107.51H228.825C228.952 107.51 229.053 107.554 229.129 107.643C229.218 107.719 229.262 107.82 229.262 107.947V120.563C229.262 120.69 229.218 120.797 229.129 120.886C229.053 120.962 228.952 121 228.825 121H227.97C227.831 121 227.723 120.962 227.647 120.886C227.571 120.797 227.533 120.69 227.533 120.563V119.765C227.216 120.17 226.805 120.512 226.298 120.791C225.791 121.057 225.158 121.19 224.398 121.19ZM224.797 119.651C225.43 119.651 225.937 119.505 226.317 119.214C226.697 118.923 226.982 118.555 227.172 118.112C227.362 117.656 227.463 117.194 227.476 116.725C227.489 116.522 227.495 116.282 227.495 116.003C227.495 115.712 227.489 115.465 227.476 115.262C227.463 114.819 227.356 114.382 227.153 113.951C226.963 113.52 226.672 113.166 226.279 112.887C225.899 112.608 225.405 112.469 224.797 112.469C224.151 112.469 223.638 112.615 223.258 112.906C222.878 113.185 222.606 113.558 222.441 114.027C222.276 114.483 222.181 114.977 222.156 115.509C222.143 115.876 222.143 116.244 222.156 116.611C222.181 117.143 222.276 117.643 222.441 118.112C222.606 118.568 222.878 118.942 223.258 119.233C223.638 119.512 224.151 119.651 224.797 119.651ZM237.125 113.666C236.998 113.666 236.897 113.628 236.821 113.552C236.745 113.476 236.707 113.375 236.707 113.248V112.602C236.707 112.475 236.745 112.374 236.821 112.298C236.897 112.222 236.998 112.184 237.125 112.184H244.364C244.491 112.184 244.592 112.222 244.668 112.298C244.757 112.374 244.801 112.475 244.801 112.602V113.248C244.801 113.375 244.757 113.476 244.668 113.552C244.592 113.628 244.491 113.666 244.364 113.666H237.125ZM237.125 118.416C236.998 118.416 236.897 118.378 236.821 118.302C236.745 118.226 236.707 118.125 236.707 117.998V117.352C236.707 117.225 236.745 117.124 236.821 117.048C236.897 116.972 236.998 116.934 237.125 116.934H244.364C244.491 116.934 244.592 116.972 244.668 117.048C244.757 117.124 244.801 117.225 244.801 117.352V117.998C244.801 118.125 244.757 118.226 244.668 118.302C244.592 118.378 244.491 118.416 244.364 118.416H237.125ZM255.145 111.177C255.056 111.177 254.98 111.145 254.917 111.082C254.866 111.019 254.841 110.943 254.841 110.854C254.841 110.753 254.86 110.651 254.898 110.55L255.905 107.947C255.968 107.82 256.032 107.719 256.095 107.643C256.171 107.554 256.291 107.51 256.456 107.51H257.083C257.184 107.51 257.26 107.548 257.311 107.624C257.374 107.7 257.393 107.801 257.368 107.928L256.95 110.626C256.937 110.778 256.887 110.911 256.798 111.025C256.709 111.126 256.576 111.177 256.399 111.177H255.145ZM252.105 111.177C252.016 111.177 251.94 111.145 251.877 111.082C251.826 111.019 251.801 110.943 251.801 110.854C251.801 110.753 251.82 110.651 251.858 110.55L252.865 107.947C252.928 107.82 252.998 107.719 253.074 107.643C253.15 107.554 253.264 107.51 253.416 107.51H254.043C254.144 107.51 254.22 107.548 254.271 107.624C254.334 107.7 254.353 107.801 254.328 107.928L253.91 110.626C253.897 110.778 253.847 110.911 253.758 111.025C253.669 111.126 253.543 111.177 253.378 111.177H252.105ZM319.177 111.177C319.089 111.177 319.013 111.145 318.949 111.082C318.899 111.019 318.873 110.943 318.873 110.854C318.873 110.753 318.892 110.651 318.93 110.55L319.937 107.947C320.001 107.82 320.064 107.719 320.127 107.643C320.203 107.554 320.324 107.51 320.488 107.51H321.115C321.217 107.51 321.293 107.548 321.343 107.624C321.407 107.7 321.426 107.801 321.4 107.928L320.982 110.626C320.97 110.778 320.919 110.911 320.83 111.025C320.742 111.126 320.609 111.177 320.431 111.177H319.177ZM316.137 111.177C316.049 111.177 315.973 111.145 315.909 111.082C315.859 111.019 315.833 110.943 315.833 110.854C315.833 110.753 315.852 110.651 315.89 110.55L316.897 107.947C316.961 107.82 317.03 107.719 317.106 107.643C317.182 107.554 317.296 107.51 317.448 107.51H318.075C318.177 107.51 318.253 107.548 318.303 107.624C318.367 107.7 318.386 107.801 318.36 107.928L317.942 110.626C317.93 110.778 317.879 110.911 317.79 111.025C317.702 111.126 317.575 111.177 317.41 111.177H316.137ZM328.861 121C328.734 121 328.626 120.962 328.538 120.886C328.462 120.797 328.424 120.69 328.424 120.563V111.557C328.424 111.43 328.462 111.329 328.538 111.253C328.626 111.164 328.734 111.12 328.861 111.12H329.754C329.88 111.12 329.982 111.164 330.058 111.253C330.146 111.329 330.191 111.43 330.191 111.557V112.393C330.52 111.962 330.932 111.614 331.426 111.348C331.932 111.069 332.578 110.93 333.364 110.93C334.187 110.93 334.884 111.114 335.454 111.481C336.036 111.836 336.473 112.336 336.765 112.982C337.056 113.615 337.202 114.356 337.202 115.205V120.563C337.202 120.69 337.164 120.797 337.088 120.886C337.012 120.962 336.91 121 336.784 121H335.834C335.707 121 335.599 120.962 335.511 120.886C335.435 120.797 335.397 120.69 335.397 120.563V115.3C335.397 114.413 335.181 113.723 334.751 113.229C334.32 112.722 333.687 112.469 332.851 112.469C332.065 112.469 331.432 112.722 330.951 113.229C330.482 113.723 330.248 114.413 330.248 115.3V120.563C330.248 120.69 330.203 120.797 330.115 120.886C330.039 120.962 329.937 121 329.811 121H328.861ZM342.701 121.19C342.068 121.19 341.491 121.063 340.972 120.81C340.453 120.557 340.035 120.215 339.718 119.784C339.401 119.353 339.243 118.866 339.243 118.321C339.243 117.447 339.598 116.75 340.307 116.231C341.016 115.712 341.941 115.37 343.081 115.205L345.912 114.806V114.255C345.912 113.647 345.735 113.172 345.38 112.83C345.038 112.488 344.474 112.317 343.689 112.317C343.119 112.317 342.657 112.431 342.302 112.659C341.96 112.887 341.719 113.178 341.58 113.533C341.504 113.723 341.371 113.818 341.181 113.818H340.326C340.187 113.818 340.079 113.78 340.003 113.704C339.94 113.615 339.908 113.514 339.908 113.4C339.908 113.21 339.978 112.976 340.117 112.697C340.269 112.418 340.497 112.146 340.801 111.88C341.105 111.614 341.491 111.392 341.96 111.215C342.441 111.025 343.024 110.93 343.708 110.93C344.468 110.93 345.108 111.031 345.627 111.234C346.146 111.424 346.552 111.684 346.843 112.013C347.147 112.342 347.362 112.716 347.489 113.134C347.628 113.552 347.698 113.976 347.698 114.407V120.563C347.698 120.69 347.654 120.797 347.565 120.886C347.489 120.962 347.388 121 347.261 121H346.387C346.248 121 346.14 120.962 346.064 120.886C345.988 120.797 345.95 120.69 345.95 120.563V119.746C345.785 119.974 345.564 120.202 345.285 120.43C345.006 120.645 344.658 120.829 344.24 120.981C343.822 121.12 343.309 121.19 342.701 121.19ZM343.1 119.765C343.619 119.765 344.094 119.657 344.525 119.442C344.956 119.214 345.291 118.866 345.532 118.397C345.785 117.928 345.912 117.339 345.912 116.63V116.098L343.708 116.421C342.809 116.548 342.131 116.763 341.675 117.067C341.219 117.358 340.991 117.732 340.991 118.188C340.991 118.543 341.092 118.84 341.295 119.081C341.51 119.309 341.776 119.48 342.093 119.594C342.422 119.708 342.758 119.765 343.1 119.765ZM350.866 121C350.74 121 350.632 120.962 350.543 120.886C350.467 120.797 350.429 120.69 350.429 120.563V111.557C350.429 111.43 350.467 111.329 350.543 111.253C350.632 111.164 350.74 111.12 350.866 111.12H351.721C351.848 111.12 351.949 111.164 352.025 111.253C352.114 111.329 352.158 111.43 352.158 111.557V112.222C352.45 111.829 352.817 111.519 353.26 111.291C353.704 111.05 354.236 110.93 354.856 110.93C356.288 110.917 357.301 111.5 357.896 112.678C358.188 112.146 358.612 111.722 359.169 111.405C359.727 111.088 360.36 110.93 361.069 110.93C361.728 110.93 362.323 111.082 362.855 111.386C363.4 111.69 363.824 112.152 364.128 112.773C364.445 113.381 364.603 114.147 364.603 115.072V120.563C364.603 120.69 364.559 120.797 364.47 120.886C364.394 120.962 364.293 121 364.166 121H363.273C363.147 121 363.039 120.962 362.95 120.886C362.874 120.797 362.836 120.69 362.836 120.563V115.243C362.836 114.534 362.735 113.976 362.532 113.571C362.33 113.166 362.057 112.881 361.715 112.716C361.373 112.551 361 112.469 360.594 112.469C360.265 112.469 359.929 112.551 359.587 112.716C359.245 112.881 358.96 113.166 358.732 113.571C358.517 113.976 358.409 114.534 358.409 115.243V120.563C358.409 120.69 358.365 120.797 358.276 120.886C358.2 120.962 358.099 121 357.972 121H357.079C356.953 121 356.845 120.962 356.756 120.886C356.68 120.797 356.642 120.69 356.642 120.563V115.243C356.642 114.534 356.535 113.976 356.319 113.571C356.104 113.166 355.825 112.881 355.483 112.716C355.141 112.551 354.78 112.469 354.4 112.469C354.071 112.469 353.735 112.551 353.393 112.716C353.051 112.881 352.766 113.166 352.538 113.571C352.323 113.976 352.215 114.527 352.215 115.224V120.563C352.215 120.69 352.171 120.797 352.082 120.886C352.006 120.962 351.905 121 351.778 121H350.866ZM371.247 121.19C369.943 121.19 368.904 120.791 368.131 119.993C367.359 119.182 366.934 118.08 366.858 116.687C366.846 116.522 366.839 116.313 366.839 116.06C366.839 115.794 366.846 115.579 366.858 115.414C366.909 114.515 367.118 113.729 367.485 113.058C367.853 112.374 368.353 111.848 368.986 111.481C369.632 111.114 370.386 110.93 371.247 110.93C372.21 110.93 373.014 111.133 373.66 111.538C374.319 111.943 374.819 112.52 375.161 113.267C375.503 114.014 375.674 114.888 375.674 115.889V116.212C375.674 116.351 375.63 116.459 375.541 116.535C375.465 116.611 375.364 116.649 375.237 116.649H368.663C368.663 116.662 368.663 116.687 368.663 116.725C368.663 116.763 368.663 116.795 368.663 116.82C368.689 117.339 368.803 117.827 369.005 118.283C369.208 118.726 369.499 119.087 369.879 119.366C370.259 119.645 370.715 119.784 371.247 119.784C371.703 119.784 372.083 119.714 372.387 119.575C372.691 119.436 372.938 119.284 373.128 119.119C373.318 118.942 373.445 118.809 373.508 118.72C373.622 118.555 373.711 118.46 373.774 118.435C373.838 118.397 373.939 118.378 374.078 118.378H374.99C375.117 118.378 375.218 118.416 375.294 118.492C375.383 118.555 375.421 118.65 375.408 118.777C375.396 118.967 375.294 119.201 375.104 119.48C374.914 119.746 374.642 120.012 374.287 120.278C373.933 120.544 373.502 120.766 372.995 120.943C372.489 121.108 371.906 121.19 371.247 121.19ZM368.663 115.338H373.869V115.281C373.869 114.711 373.762 114.204 373.546 113.761C373.344 113.318 373.046 112.969 372.653 112.716C372.261 112.45 371.792 112.317 371.247 112.317C370.703 112.317 370.234 112.45 369.841 112.716C369.461 112.969 369.17 113.318 368.967 113.761C368.765 114.204 368.663 114.711 368.663 115.281V115.338ZM382.983 113.666C382.857 113.666 382.755 113.628 382.679 113.552C382.603 113.476 382.565 113.375 382.565 113.248V112.602C382.565 112.475 382.603 112.374 382.679 112.298C382.755 112.222 382.857 112.184 382.983 112.184H390.222C390.349 112.184 390.45 112.222 390.526 112.298C390.615 112.374 390.659 112.475 390.659 112.602V113.248C390.659 113.375 390.615 113.476 390.526 113.552C390.45 113.628 390.349 113.666 390.222 113.666H382.983ZM382.983 118.416C382.857 118.416 382.755 118.378 382.679 118.302C382.603 118.226 382.565 118.125 382.565 117.998V117.352C382.565 117.225 382.603 117.124 382.679 117.048C382.755 116.972 382.857 116.934 382.983 116.934H390.222C390.349 116.934 390.45 116.972 390.526 117.048C390.615 117.124 390.659 117.225 390.659 117.352V117.998C390.659 118.125 390.615 118.226 390.526 118.302C390.45 118.378 390.349 118.416 390.222 118.416H382.983ZM401.003 111.177C400.915 111.177 400.839 111.145 400.775 111.082C400.725 111.019 400.699 110.943 400.699 110.854C400.699 110.753 400.718 110.651 400.756 110.55L401.763 107.947C401.827 107.82 401.89 107.719 401.953 107.643C402.029 107.554 402.15 107.51 402.314 107.51H402.941C403.043 107.51 403.119 107.548 403.169 107.624C403.233 107.7 403.252 107.801 403.226 107.928L402.808 110.626C402.796 110.778 402.745 110.911 402.656 111.025C402.568 111.126 402.435 111.177 402.257 111.177H401.003ZM397.963 111.177C397.875 111.177 397.799 111.145 397.735 111.082C397.685 111.019 397.659 110.943 397.659 110.854C397.659 110.753 397.678 110.651 397.716 110.55L398.723 107.947C398.787 107.82 398.856 107.719 398.932 107.643C399.008 107.554 399.122 107.51 399.274 107.51H399.901C400.003 107.51 400.079 107.548 400.129 107.624C400.193 107.7 400.212 107.801 400.186 107.928L399.768 110.626C399.756 110.778 399.705 110.911 399.616 111.025C399.528 111.126 399.401 111.177 399.236 111.177H397.963ZM465.036 111.177C464.947 111.177 464.871 111.145 464.808 111.082C464.757 111.019 464.732 110.943 464.732 110.854C464.732 110.753 464.751 110.651 464.789 110.55L465.796 107.947C465.859 107.82 465.922 107.719 465.986 107.643C466.062 107.554 466.182 107.51 466.347 107.51H466.974C467.075 107.51 467.151 107.548 467.202 107.624C467.265 107.7 467.284 107.801 467.259 107.928L466.841 110.626C466.828 110.778 466.777 110.911 466.689 111.025C466.6 111.126 466.467 111.177 466.29 111.177H465.036ZM461.996 111.177C461.907 111.177 461.831 111.145 461.768 111.082C461.717 111.019 461.692 110.943 461.692 110.854C461.692 110.753 461.711 110.651 461.749 110.55L462.756 107.947C462.819 107.82 462.889 107.719 462.965 107.643C463.041 107.554 463.155 107.51 463.307 107.51H463.934C464.035 107.51 464.111 107.548 464.162 107.624C464.225 107.7 464.244 107.801 464.219 107.928L463.801 110.626C463.788 110.778 463.737 110.911 463.649 111.025C463.56 111.126 463.433 111.177 463.269 111.177H461.996Z" fill="white" fill-opacity="0.75"/>
<path d="M136.419 90.19C135.114 90.19 134.076 89.791 133.303 88.993C132.53 88.1823 132.106 87.0803 132.03 85.687C132.017 85.5223 132.011 85.3133 132.011 85.06C132.011 84.794 132.017 84.5787 132.03 84.414C132.081 83.5147 132.29 82.7293 132.657 82.058C133.024 81.374 133.525 80.8483 134.158 80.481C134.804 80.1137 135.558 79.93 136.419 79.93C137.382 79.93 138.186 80.1327 138.832 80.538C139.491 80.9433 139.991 81.5197 140.333 82.267C140.675 83.0143 140.846 83.8883 140.846 84.889V85.212C140.846 85.3513 140.802 85.459 140.713 85.535C140.637 85.611 140.536 85.649 140.409 85.649H133.835C133.835 85.6617 133.835 85.687 133.835 85.725C133.835 85.763 133.835 85.7947 133.835 85.82C133.86 86.3393 133.974 86.827 134.177 87.283C134.38 87.7263 134.671 88.0873 135.051 88.366C135.431 88.6447 135.887 88.784 136.419 88.784C136.875 88.784 137.255 88.7143 137.559 88.575C137.863 88.4357 138.11 88.2837 138.3 88.119C138.49 87.9417 138.617 87.8087 138.68 87.72C138.794 87.5553 138.883 87.4603 138.946 87.435C139.009 87.397 139.111 87.378 139.25 87.378H140.162C140.289 87.378 140.39 87.416 140.466 87.492C140.555 87.5553 140.593 87.6503 140.58 87.777C140.567 87.967 140.466 88.2013 140.276 88.48C140.086 88.746 139.814 89.012 139.459 89.278C139.104 89.544 138.674 89.7657 138.167 89.943C137.66 90.1077 137.078 90.19 136.419 90.19ZM133.835 84.338H139.041V84.281C139.041 83.711 138.933 83.2043 138.718 82.761C138.515 82.3177 138.218 81.9693 137.825 81.716C137.432 81.45 136.964 81.317 136.419 81.317C135.874 81.317 135.406 81.45 135.013 81.716C134.633 81.9693 134.342 82.3177 134.139 82.761C133.936 83.2043 133.835 83.711 133.835 84.281V84.338ZM143.555 90C143.428 90 143.321 89.962 143.232 89.886C143.156 89.7973 143.118 89.6897 143.118 89.563V80.557C143.118 80.4303 143.156 80.329 143.232 80.253C143.321 80.1643 143.428 80.12 143.555 80.12H144.41C144.537 80.12 144.638 80.1643 144.714 80.253C144.803 80.329 144.847 80.4303 144.847 80.557V81.222C145.138 80.8293 145.506 80.519 145.949 80.291C146.392 80.0503 146.924 79.93 147.545 79.93C148.976 79.9173 149.99 80.5 150.585 81.678C150.876 81.146 151.301 80.7217 151.858 80.405C152.415 80.0883 153.049 79.93 153.758 79.93C154.417 79.93 155.012 80.082 155.544 80.386C156.089 80.69 156.513 81.1523 156.817 81.773C157.134 82.381 157.292 83.1473 157.292 84.072V89.563C157.292 89.6897 157.248 89.7973 157.159 89.886C157.083 89.962 156.982 90 156.855 90H155.962C155.835 90 155.728 89.962 155.639 89.886C155.563 89.7973 155.525 89.6897 155.525 89.563V84.243C155.525 83.5337 155.424 82.9763 155.221 82.571C155.018 82.1657 154.746 81.8807 154.404 81.716C154.062 81.5513 153.688 81.469 153.283 81.469C152.954 81.469 152.618 81.5513 152.276 81.716C151.934 81.8807 151.649 82.1657 151.421 82.571C151.206 82.9763 151.098 83.5337 151.098 84.243V89.563C151.098 89.6897 151.054 89.7973 150.965 89.886C150.889 89.962 150.788 90 150.661 90H149.768C149.641 90 149.534 89.962 149.445 89.886C149.369 89.7973 149.331 89.6897 149.331 89.563V84.243C149.331 83.5337 149.223 82.9763 149.008 82.571C148.793 82.1657 148.514 81.8807 148.172 81.716C147.83 81.5513 147.469 81.469 147.089 81.469C146.76 81.469 146.424 81.5513 146.082 81.716C145.74 81.8807 145.455 82.1657 145.227 82.571C145.012 82.9763 144.904 83.5273 144.904 84.224V89.563C144.904 89.6897 144.86 89.7973 144.771 89.886C144.695 89.962 144.594 90 144.467 90H143.555ZM162.758 90.19C162.124 90.19 161.548 90.0633 161.029 89.81C160.509 89.5567 160.091 89.2147 159.775 88.784C159.458 88.3533 159.3 87.8657 159.3 87.321C159.3 86.447 159.654 85.7503 160.364 85.231C161.073 84.7117 161.998 84.3697 163.138 84.205L165.969 83.806V83.255C165.969 82.647 165.791 82.172 165.437 81.83C165.095 81.488 164.531 81.317 163.746 81.317C163.176 81.317 162.713 81.431 162.359 81.659C162.017 81.887 161.776 82.1783 161.637 82.533C161.561 82.723 161.428 82.818 161.238 82.818H160.383C160.243 82.818 160.136 82.78 160.06 82.704C159.996 82.6153 159.965 82.514 159.965 82.4C159.965 82.21 160.034 81.9757 160.174 81.697C160.326 81.4183 160.554 81.146 160.858 80.88C161.162 80.614 161.548 80.3923 162.017 80.215C162.498 80.025 163.081 79.93 163.765 79.93C164.525 79.93 165.164 80.0313 165.684 80.234C166.203 80.424 166.608 80.6837 166.9 81.013C167.204 81.3423 167.419 81.716 167.546 82.134C167.685 82.552 167.755 82.9763 167.755 83.407V89.563C167.755 89.6897 167.71 89.7973 167.622 89.886C167.546 89.962 167.444 90 167.318 90H166.444C166.304 90 166.197 89.962 166.121 89.886C166.045 89.7973 166.007 89.6897 166.007 89.563V88.746C165.842 88.974 165.62 89.202 165.342 89.43C165.063 89.6453 164.715 89.829 164.297 89.981C163.879 90.1203 163.366 90.19 162.758 90.19ZM163.157 88.765C163.676 88.765 164.151 88.6573 164.582 88.442C165.012 88.214 165.348 87.8657 165.589 87.397C165.842 86.9283 165.969 86.3393 165.969 85.63V85.098L163.765 85.421C162.865 85.5477 162.188 85.763 161.732 86.067C161.276 86.3583 161.048 86.732 161.048 87.188C161.048 87.5427 161.149 87.8403 161.352 88.081C161.567 88.309 161.833 88.48 162.15 88.594C162.479 88.708 162.815 88.765 163.157 88.765ZM170.923 90C170.796 90 170.689 89.962 170.6 89.886C170.524 89.7973 170.486 89.6897 170.486 89.563V80.557C170.486 80.4303 170.524 80.329 170.6 80.253C170.689 80.1643 170.796 80.12 170.923 80.12H171.835C171.962 80.12 172.063 80.1643 172.139 80.253C172.215 80.329 172.253 80.4303 172.253 80.557V89.563C172.253 89.6897 172.215 89.7973 172.139 89.886C172.063 89.962 171.962 90 171.835 90H170.923ZM170.771 78.277C170.644 78.277 170.537 78.239 170.448 78.163C170.372 78.0743 170.334 77.9667 170.334 77.84V76.814C170.334 76.6873 170.372 76.586 170.448 76.51C170.537 76.4213 170.644 76.377 170.771 76.377H171.968C172.095 76.377 172.196 76.4213 172.272 76.51C172.361 76.586 172.405 76.6873 172.405 76.814V77.84C172.405 77.9667 172.361 78.0743 172.272 78.163C172.196 78.239 172.095 78.277 171.968 78.277H170.771ZM175.544 90C175.417 90 175.309 89.962 175.221 89.886C175.145 89.7973 175.107 89.6897 175.107 89.563V76.947C175.107 76.8203 175.145 76.719 175.221 76.643C175.309 76.5543 175.417 76.51 175.544 76.51H176.437C176.576 76.51 176.684 76.5543 176.76 76.643C176.836 76.719 176.874 76.8203 176.874 76.947V89.563C176.874 89.6897 176.836 89.7973 176.76 89.886C176.684 89.962 176.576 90 176.437 90H175.544ZM206.405 90C206.266 90 206.158 89.962 206.082 89.886C206.006 89.7973 205.968 89.6897 205.968 89.563V77.156C205.968 77.0167 206.006 76.909 206.082 76.833C206.158 76.7443 206.266 76.7 206.405 76.7H214.252C214.392 76.7 214.499 76.7443 214.575 76.833C214.651 76.909 214.689 77.0167 214.689 77.156V77.878C214.689 78.0173 214.651 78.125 214.575 78.201C214.499 78.277 214.392 78.315 214.252 78.315H207.792V82.476H213.834C213.974 82.476 214.081 82.5203 214.157 82.609C214.233 82.685 214.271 82.7927 214.271 82.932V83.635C214.271 83.7617 214.233 83.8693 214.157 83.958C214.081 84.034 213.974 84.072 213.834 84.072H207.792V88.385H214.404C214.544 88.385 214.651 88.423 214.727 88.499C214.803 88.575 214.841 88.6827 214.841 88.822V89.563C214.841 89.6897 214.803 89.7973 214.727 89.886C214.651 89.962 214.544 90 214.404 90H206.405ZM217.681 90C217.554 90 217.447 89.962 217.358 89.886C217.282 89.7973 217.244 89.6897 217.244 89.563V80.557C217.244 80.4303 217.282 80.329 217.358 80.253C217.447 80.1643 217.554 80.12 217.681 80.12H218.574C218.701 80.12 218.802 80.1643 218.878 80.253C218.967 80.329 219.011 80.4303 219.011 80.557V81.393C219.34 80.9623 219.752 80.614 220.246 80.348C220.753 80.0693 221.399 79.93 222.184 79.93C223.007 79.93 223.704 80.1137 224.274 80.481C224.857 80.8357 225.294 81.336 225.585 81.982C225.876 82.6153 226.022 83.3563 226.022 84.205V89.563C226.022 89.6897 225.984 89.7973 225.908 89.886C225.832 89.962 225.731 90 225.604 90H224.654C224.527 90 224.42 89.962 224.331 89.886C224.255 89.7973 224.217 89.6897 224.217 89.563V84.3C224.217 83.4133 224.002 82.723 223.571 82.229C223.14 81.7223 222.507 81.469 221.671 81.469C220.886 81.469 220.252 81.7223 219.771 82.229C219.302 82.723 219.068 83.4133 219.068 84.3V89.563C219.068 89.6897 219.024 89.7973 218.935 89.886C218.859 89.962 218.758 90 218.631 90H217.681ZM232.493 90C231.784 90 231.208 89.867 230.764 89.601C230.321 89.3223 229.998 88.936 229.795 88.442C229.593 87.9353 229.491 87.34 229.491 86.656V81.64H228.009C227.883 81.64 227.775 81.602 227.686 81.526C227.61 81.4373 227.572 81.3297 227.572 81.203V80.557C227.572 80.4303 227.61 80.329 227.686 80.253C227.775 80.1643 227.883 80.12 228.009 80.12H229.491V76.947C229.491 76.8203 229.529 76.719 229.605 76.643C229.694 76.5543 229.802 76.51 229.928 76.51H230.821C230.948 76.51 231.049 76.5543 231.125 76.643C231.214 76.719 231.258 76.8203 231.258 76.947V80.12H233.614C233.741 80.12 233.842 80.1643 233.918 80.253C234.007 80.329 234.051 80.4303 234.051 80.557V81.203C234.051 81.3297 234.007 81.4373 233.918 81.526C233.842 81.602 233.741 81.64 233.614 81.64H231.258V86.523C231.258 87.1183 231.36 87.587 231.562 87.929C231.765 88.271 232.126 88.442 232.645 88.442H233.804C233.931 88.442 234.032 88.4863 234.108 88.575C234.197 88.651 234.241 88.7523 234.241 88.879V89.563C234.241 89.6897 234.197 89.7973 234.108 89.886C234.032 89.962 233.931 90 233.804 90H232.493ZM239.991 90.19C238.687 90.19 237.648 89.791 236.875 88.993C236.103 88.1823 235.678 87.0803 235.602 85.687C235.59 85.5223 235.583 85.3133 235.583 85.06C235.583 84.794 235.59 84.5787 235.602 84.414C235.653 83.5147 235.862 82.7293 236.229 82.058C236.597 81.374 237.097 80.8483 237.73 80.481C238.376 80.1137 239.13 79.93 239.991 79.93C240.954 79.93 241.758 80.1327 242.404 80.538C243.063 80.9433 243.563 81.5197 243.905 82.267C244.247 83.0143 244.418 83.8883 244.418 84.889V85.212C244.418 85.3513 244.374 85.459 244.285 85.535C244.209 85.611 244.108 85.649 243.981 85.649H237.407C237.407 85.6617 237.407 85.687 237.407 85.725C237.407 85.763 237.407 85.7947 237.407 85.82C237.433 86.3393 237.547 86.827 237.749 87.283C237.952 87.7263 238.243 88.0873 238.623 88.366C239.003 88.6447 239.459 88.784 239.991 88.784C240.447 88.784 240.827 88.7143 241.131 88.575C241.435 88.4357 241.682 88.2837 241.872 88.119C242.062 87.9417 242.189 87.8087 242.252 87.72C242.366 87.5553 242.455 87.4603 242.518 87.435C242.582 87.397 242.683 87.378 242.822 87.378H243.734C243.861 87.378 243.962 87.416 244.038 87.492C244.127 87.5553 244.165 87.6503 244.152 87.777C244.14 87.967 244.038 88.2013 243.848 88.48C243.658 88.746 243.386 89.012 243.031 89.278C242.677 89.544 242.246 89.7657 241.739 89.943C241.233 90.1077 240.65 90.19 239.991 90.19ZM237.407 84.338H242.613V84.281C242.613 83.711 242.506 83.2043 242.29 82.761C242.088 82.3177 241.79 81.9693 241.397 81.716C241.005 81.45 240.536 81.317 239.991 81.317C239.447 81.317 238.978 81.45 238.585 81.716C238.205 81.9693 237.914 82.3177 237.711 82.761C237.509 83.2043 237.407 83.711 237.407 84.281V84.338ZM247.127 90C247.001 90 246.893 89.962 246.804 89.886C246.728 89.7973 246.69 89.6897 246.69 89.563V80.576C246.69 80.4493 246.728 80.3417 246.804 80.253C246.893 80.1643 247.001 80.12 247.127 80.12H248.001C248.128 80.12 248.236 80.1643 248.324 80.253C248.413 80.3417 248.457 80.4493 248.457 80.576V81.412C248.711 80.9813 249.059 80.6583 249.502 80.443C249.946 80.2277 250.478 80.12 251.098 80.12H251.858C251.985 80.12 252.086 80.1643 252.162 80.253C252.238 80.329 252.276 80.4303 252.276 80.557V81.336C252.276 81.4627 252.238 81.564 252.162 81.64C252.086 81.716 251.985 81.754 251.858 81.754H250.718C250.034 81.754 249.496 81.9567 249.103 82.362C248.711 82.7547 248.514 83.293 248.514 83.977V89.563C248.514 89.6897 248.47 89.7973 248.381 89.886C248.293 89.962 248.185 90 248.058 90H247.127ZM259.329 93.61C259.228 93.61 259.139 93.572 259.063 93.496C258.987 93.42 258.949 93.3313 258.949 93.23C258.949 93.1793 258.956 93.1287 258.968 93.078C258.981 93.0273 259.006 92.964 259.044 92.888L260.507 89.411L256.878 80.842C256.815 80.69 256.783 80.5823 256.783 80.519C256.783 80.405 256.821 80.31 256.897 80.234C256.973 80.158 257.068 80.12 257.182 80.12H258.113C258.24 80.12 258.341 80.1517 258.417 80.215C258.493 80.2783 258.544 80.3543 258.569 80.443L261.457 87.359L264.421 80.443C264.459 80.3543 264.51 80.2783 264.573 80.215C264.649 80.1517 264.757 80.12 264.896 80.12H265.789C265.903 80.12 265.998 80.158 266.074 80.234C266.15 80.31 266.188 80.3987 266.188 80.5C266.188 80.5633 266.157 80.6773 266.093 80.842L260.697 93.287C260.659 93.3757 260.602 93.4517 260.526 93.515C260.463 93.5783 260.362 93.61 260.222 93.61H259.329ZM271.778 90.19C270.816 90.19 270.011 90.0063 269.365 89.639C268.719 89.2717 268.225 88.765 267.883 88.119C267.541 87.4603 267.351 86.713 267.313 85.877C267.301 85.6617 267.294 85.3893 267.294 85.06C267.294 84.718 267.301 84.4457 267.313 84.243C267.351 83.3943 267.541 82.647 267.883 82.001C268.238 81.355 268.738 80.8483 269.384 80.481C270.03 80.1137 270.828 79.93 271.778 79.93C272.728 79.93 273.526 80.1137 274.172 80.481C274.818 80.8483 275.312 81.355 275.654 82.001C276.009 82.647 276.205 83.3943 276.243 84.243C276.256 84.4457 276.262 84.718 276.262 85.06C276.262 85.3893 276.256 85.6617 276.243 85.877C276.205 86.713 276.015 87.4603 275.673 88.119C275.331 88.765 274.837 89.2717 274.191 89.639C273.545 90.0063 272.741 90.19 271.778 90.19ZM271.778 88.727C272.564 88.727 273.191 88.48 273.659 87.986C274.128 87.4793 274.381 86.7447 274.419 85.782C274.432 85.592 274.438 85.3513 274.438 85.06C274.438 84.7687 274.432 84.528 274.419 84.338C274.381 83.3753 274.128 82.647 273.659 82.153C273.191 81.6463 272.564 81.393 271.778 81.393C270.993 81.393 270.36 81.6463 269.878 82.153C269.41 82.647 269.163 83.3753 269.137 84.338C269.125 84.528 269.118 84.7687 269.118 85.06C269.118 85.3513 269.125 85.592 269.137 85.782C269.163 86.7447 269.41 87.4793 269.878 87.986C270.36 88.48 270.993 88.727 271.778 88.727ZM282.327 90.19C281.517 90.19 280.826 90.0127 280.256 89.658C279.699 89.2907 279.275 88.784 278.983 88.138C278.692 87.492 278.546 86.751 278.546 85.915V80.557C278.546 80.4303 278.584 80.329 278.66 80.253C278.749 80.1643 278.857 80.12 278.983 80.12H279.933C280.06 80.12 280.161 80.1643 280.237 80.253C280.326 80.329 280.37 80.4303 280.37 80.557V85.82C280.37 87.7073 281.194 88.651 282.84 88.651C283.626 88.651 284.253 88.404 284.721 87.91C285.203 87.4033 285.443 86.7067 285.443 85.82V80.557C285.443 80.4303 285.481 80.329 285.557 80.253C285.646 80.1643 285.754 80.12 285.88 80.12H286.811C286.951 80.12 287.058 80.1643 287.134 80.253C287.21 80.329 287.248 80.4303 287.248 80.557V89.563C287.248 89.6897 287.21 89.7973 287.134 89.886C287.058 89.962 286.951 90 286.811 90H285.937C285.811 90 285.703 89.962 285.614 89.886C285.538 89.7973 285.5 89.6897 285.5 89.563V88.727C285.158 89.1703 284.74 89.525 284.246 89.791C283.765 90.057 283.125 90.19 282.327 90.19ZM290.508 90C290.381 90 290.274 89.962 290.185 89.886C290.109 89.7973 290.071 89.6897 290.071 89.563V80.576C290.071 80.4493 290.109 80.3417 290.185 80.253C290.274 80.1643 290.381 80.12 290.508 80.12H291.382C291.509 80.12 291.616 80.1643 291.705 80.253C291.794 80.3417 291.838 80.4493 291.838 80.576V81.412C292.091 80.9813 292.44 80.6583 292.883 80.443C293.326 80.2277 293.858 80.12 294.479 80.12H295.239C295.366 80.12 295.467 80.1643 295.543 80.253C295.619 80.329 295.657 80.4303 295.657 80.557V81.336C295.657 81.4627 295.619 81.564 295.543 81.64C295.467 81.716 295.366 81.754 295.239 81.754H294.099C293.415 81.754 292.877 81.9567 292.484 82.362C292.091 82.7547 291.895 83.293 291.895 83.977V89.563C291.895 89.6897 291.851 89.7973 291.762 89.886C291.673 89.962 291.566 90 291.439 90H290.508ZM305.434 90.19C304.129 90.19 303.09 89.791 302.318 88.993C301.545 88.1823 301.121 87.0803 301.045 85.687C301.032 85.5223 301.026 85.3133 301.026 85.06C301.026 84.794 301.032 84.5787 301.045 84.414C301.095 83.5147 301.304 82.7293 301.672 82.058C302.039 81.374 302.539 80.8483 303.173 80.481C303.819 80.1137 304.572 79.93 305.434 79.93C306.396 79.93 307.201 80.1327 307.847 80.538C308.505 80.9433 309.006 81.5197 309.348 82.267C309.69 83.0143 309.861 83.8883 309.861 84.889V85.212C309.861 85.3513 309.816 85.459 309.728 85.535C309.652 85.611 309.55 85.649 309.424 85.649H302.85C302.85 85.6617 302.85 85.687 302.85 85.725C302.85 85.763 302.85 85.7947 302.85 85.82C302.875 86.3393 302.989 86.827 303.192 87.283C303.394 87.7263 303.686 88.0873 304.066 88.366C304.446 88.6447 304.902 88.784 305.434 88.784C305.89 88.784 306.27 88.7143 306.574 88.575C306.878 88.4357 307.125 88.2837 307.315 88.119C307.505 87.9417 307.631 87.8087 307.695 87.72C307.809 87.5553 307.897 87.4603 307.961 87.435C308.024 87.397 308.125 87.378 308.265 87.378H309.177C309.303 87.378 309.405 87.416 309.481 87.492C309.569 87.5553 309.607 87.6503 309.595 87.777C309.582 87.967 309.481 88.2013 309.291 88.48C309.101 88.746 308.828 89.012 308.474 89.278C308.119 89.544 307.688 89.7657 307.182 89.943C306.675 90.1077 306.092 90.19 305.434 90.19ZM302.85 84.338H308.056V84.281C308.056 83.711 307.948 83.2043 307.733 82.761C307.53 82.3177 307.232 81.9693 306.84 81.716C306.447 81.45 305.978 81.317 305.434 81.317C304.889 81.317 304.42 81.45 304.028 81.716C303.648 81.9693 303.356 82.3177 303.154 82.761C302.951 83.2043 302.85 83.711 302.85 84.281V84.338ZM312.57 90C312.443 90 312.335 89.962 312.247 89.886C312.171 89.7973 312.133 89.6897 312.133 89.563V80.557C312.133 80.4303 312.171 80.329 312.247 80.253C312.335 80.1643 312.443 80.12 312.57 80.12H313.425C313.551 80.12 313.653 80.1643 313.729 80.253C313.817 80.329 313.862 80.4303 313.862 80.557V81.222C314.153 80.8293 314.52 80.519 314.964 80.291C315.407 80.0503 315.939 79.93 316.56 79.93C317.991 79.9173 319.004 80.5 319.6 81.678C319.891 81.146 320.315 80.7217 320.873 80.405C321.43 80.0883 322.063 79.93 322.773 79.93C323.431 79.93 324.027 80.082 324.559 80.386C325.103 80.69 325.528 81.1523 325.832 81.773C326.148 82.381 326.307 83.1473 326.307 84.072V89.563C326.307 89.6897 326.262 89.7973 326.174 89.886C326.098 89.962 325.996 90 325.87 90H324.977C324.85 90 324.742 89.962 324.654 89.886C324.578 89.7973 324.54 89.6897 324.54 89.563V84.243C324.54 83.5337 324.438 82.9763 324.236 82.571C324.033 82.1657 323.761 81.8807 323.419 81.716C323.077 81.5513 322.703 81.469 322.298 81.469C321.968 81.469 321.633 81.5513 321.291 81.716C320.949 81.8807 320.664 82.1657 320.436 82.571C320.22 82.9763 320.113 83.5337 320.113 84.243V89.563C320.113 89.6897 320.068 89.7973 319.98 89.886C319.904 89.962 319.802 90 319.676 90H318.783C318.656 90 318.548 89.962 318.46 89.886C318.384 89.7973 318.346 89.6897 318.346 89.563V84.243C318.346 83.5337 318.238 82.9763 318.023 82.571C317.807 82.1657 317.529 81.8807 317.187 81.716C316.845 81.5513 316.484 81.469 316.104 81.469C315.774 81.469 315.439 81.5513 315.097 81.716C314.755 81.8807 314.47 82.1657 314.242 82.571C314.026 82.9763 313.919 83.5273 313.919 84.224V89.563C313.919 89.6897 313.874 89.7973 313.786 89.886C313.71 89.962 313.608 90 313.482 90H312.57ZM331.772 90.19C331.139 90.19 330.563 90.0633 330.043 89.81C329.524 89.5567 329.106 89.2147 328.789 88.784C328.473 88.3533 328.314 87.8657 328.314 87.321C328.314 86.447 328.669 85.7503 329.378 85.231C330.088 84.7117 331.012 84.3697 332.152 84.205L334.983 83.806V83.255C334.983 82.647 334.806 82.172 334.451 81.83C334.109 81.488 333.546 81.317 332.76 81.317C332.19 81.317 331.728 81.431 331.373 81.659C331.031 81.887 330.791 82.1783 330.651 82.533C330.575 82.723 330.442 82.818 330.252 82.818H329.397C329.258 82.818 329.15 82.78 329.074 82.704C329.011 82.6153 328.979 82.514 328.979 82.4C328.979 82.21 329.049 81.9757 329.188 81.697C329.34 81.4183 329.568 81.146 329.872 80.88C330.176 80.614 330.563 80.3923 331.031 80.215C331.513 80.025 332.095 79.93 332.779 79.93C333.539 79.93 334.179 80.0313 334.698 80.234C335.218 80.424 335.623 80.6837 335.914 81.013C336.218 81.3423 336.434 81.716 336.56 82.134C336.7 82.552 336.769 82.9763 336.769 83.407V89.563C336.769 89.6897 336.725 89.7973 336.636 89.886C336.56 89.962 336.459 90 336.332 90H335.458C335.319 90 335.211 89.962 335.135 89.886C335.059 89.7973 335.021 89.6897 335.021 89.563V88.746C334.857 88.974 334.635 89.202 334.356 89.43C334.078 89.6453 333.729 89.829 333.311 89.981C332.893 90.1203 332.38 90.19 331.772 90.19ZM332.171 88.765C332.691 88.765 333.166 88.6573 333.596 88.442C334.027 88.214 334.363 87.8657 334.603 87.397C334.857 86.9283 334.983 86.3393 334.983 85.63V85.098L332.779 85.421C331.88 85.5477 331.202 85.763 330.746 86.067C330.29 86.3583 330.062 86.732 330.062 87.188C330.062 87.5427 330.164 87.8403 330.366 88.081C330.582 88.309 330.848 88.48 331.164 88.594C331.494 88.708 331.829 88.765 332.171 88.765ZM339.938 90C339.811 90 339.703 89.962 339.615 89.886C339.539 89.7973 339.501 89.6897 339.501 89.563V80.557C339.501 80.4303 339.539 80.329 339.615 80.253C339.703 80.1643 339.811 80.12 339.938 80.12H340.85C340.976 80.12 341.078 80.1643 341.154 80.253C341.23 80.329 341.268 80.4303 341.268 80.557V89.563C341.268 89.6897 341.23 89.7973 341.154 89.886C341.078 89.962 340.976 90 340.85 90H339.938ZM339.786 78.277C339.659 78.277 339.551 78.239 339.463 78.163C339.387 78.0743 339.349 77.9667 339.349 77.84V76.814C339.349 76.6873 339.387 76.586 339.463 76.51C339.551 76.4213 339.659 76.377 339.786 76.377H340.983C341.109 76.377 341.211 76.4213 341.287 76.51C341.375 76.586 341.42 76.6873 341.42 76.814V77.84C341.42 77.9667 341.375 78.0743 341.287 78.163C341.211 78.239 341.109 78.277 340.983 78.277H339.786ZM344.558 90C344.432 90 344.324 89.962 344.235 89.886C344.159 89.7973 344.121 89.6897 344.121 89.563V76.947C344.121 76.8203 344.159 76.719 344.235 76.643C344.324 76.5543 344.432 76.51 344.558 76.51H345.451C345.591 76.51 345.698 76.5543 345.774 76.643C345.85 76.719 345.888 76.8203 345.888 76.947V89.563C345.888 89.6897 345.85 89.7973 345.774 89.886C345.698 89.962 345.591 90 345.451 90H344.558ZM358.379 83.35C358.252 83.35 358.145 83.312 358.056 83.236C357.98 83.1473 357.942 83.0397 357.942 82.913V81.583C357.942 81.4563 357.98 81.355 358.056 81.279C358.145 81.1903 358.252 81.146 358.379 81.146H359.728C359.867 81.146 359.975 81.1903 360.051 81.279C360.14 81.355 360.184 81.4563 360.184 81.583V82.913C360.184 83.0397 360.14 83.1473 360.051 83.236C359.975 83.312 359.867 83.35 359.728 83.35H358.379ZM358.379 90C358.252 90 358.145 89.962 358.056 89.886C357.98 89.7973 357.942 89.6897 357.942 89.563V88.233C357.942 88.1063 357.98 88.005 358.056 87.929C358.145 87.8403 358.252 87.796 358.379 87.796H359.728C359.867 87.796 359.975 87.8403 360.051 87.929C360.14 88.005 360.184 88.1063 360.184 88.233V89.563C360.184 89.6897 360.14 89.7973 360.051 89.886C359.975 89.962 359.867 90 359.728 90H358.379ZM156.217 121.19C154.912 121.19 153.874 120.791 153.101 119.993C152.328 119.182 151.904 118.08 151.828 116.687C151.815 116.522 151.809 116.313 151.809 116.06C151.809 115.794 151.815 115.579 151.828 115.414C151.879 114.515 152.088 113.729 152.455 113.058C152.822 112.374 153.323 111.848 153.956 111.481C154.602 111.114 155.356 110.93 156.217 110.93C157.18 110.93 157.984 111.133 158.63 111.538C159.289 111.943 159.789 112.52 160.131 113.267C160.473 114.014 160.644 114.888 160.644 115.889V116.212C160.644 116.351 160.6 116.459 160.511 116.535C160.435 116.611 160.334 116.649 160.207 116.649H153.633C153.633 116.662 153.633 116.687 153.633 116.725C153.633 116.763 153.633 116.795 153.633 116.82C153.658 117.339 153.772 117.827 153.975 118.283C154.178 118.726 154.469 119.087 154.849 119.366C155.229 119.645 155.685 119.784 156.217 119.784C156.673 119.784 157.053 119.714 157.357 119.575C157.661 119.436 157.908 119.284 158.098 119.119C158.288 118.942 158.415 118.809 158.478 118.72C158.592 118.555 158.681 118.46 158.744 118.435C158.807 118.397 158.909 118.378 159.048 118.378H159.96C160.087 118.378 160.188 118.416 160.264 118.492C160.353 118.555 160.391 118.65 160.378 118.777C160.365 118.967 160.264 119.201 160.074 119.48C159.884 119.746 159.612 120.012 159.257 120.278C158.902 120.544 158.472 120.766 157.965 120.943C157.458 121.108 156.876 121.19 156.217 121.19ZM153.633 115.338H158.839V115.281C158.839 114.711 158.731 114.204 158.516 113.761C158.313 113.318 158.016 112.969 157.623 112.716C157.23 112.45 156.762 112.317 156.217 112.317C155.672 112.317 155.204 112.45 154.811 112.716C154.431 112.969 154.14 113.318 153.937 113.761C153.734 114.204 153.633 114.711 153.633 115.281V115.338ZM163.353 121C163.226 121 163.118 120.962 163.03 120.886C162.954 120.797 162.916 120.69 162.916 120.563V111.557C162.916 111.43 162.954 111.329 163.03 111.253C163.118 111.164 163.226 111.12 163.353 111.12H164.208C164.334 111.12 164.436 111.164 164.512 111.253C164.6 111.329 164.645 111.43 164.645 111.557V112.222C164.936 111.829 165.303 111.519 165.747 111.291C166.19 111.05 166.722 110.93 167.343 110.93C168.774 110.917 169.787 111.5 170.383 112.678C170.674 112.146 171.098 111.722 171.656 111.405C172.213 111.088 172.846 110.93 173.556 110.93C174.214 110.93 174.81 111.082 175.342 111.386C175.886 111.69 176.311 112.152 176.615 112.773C176.931 113.381 177.09 114.147 177.09 115.072V120.563C177.09 120.69 177.045 120.797 176.957 120.886C176.881 120.962 176.779 121 176.653 121H175.76C175.633 121 175.525 120.962 175.437 120.886C175.361 120.797 175.323 120.69 175.323 120.563V115.243C175.323 114.534 175.221 113.976 175.019 113.571C174.816 113.166 174.544 112.881 174.202 112.716C173.86 112.551 173.486 112.469 173.081 112.469C172.751 112.469 172.416 112.551 172.074 112.716C171.732 112.881 171.447 113.166 171.219 113.571C171.003 113.976 170.896 114.534 170.896 115.243V120.563C170.896 120.69 170.851 120.797 170.763 120.886C170.687 120.962 170.585 121 170.459 121H169.566C169.439 121 169.331 120.962 169.243 120.886C169.167 120.797 169.129 120.69 169.129 120.563V115.243C169.129 114.534 169.021 113.976 168.806 113.571C168.59 113.166 168.312 112.881 167.97 112.716C167.628 112.551 167.267 112.469 166.887 112.469C166.557 112.469 166.222 112.551 165.88 112.716C165.538 112.881 165.253 113.166 165.025 113.571C164.809 113.976 164.702 114.527 164.702 115.224V120.563C164.702 120.69 164.657 120.797 164.569 120.886C164.493 120.962 164.391 121 164.265 121H163.353ZM182.556 121.19C181.922 121.19 181.346 121.063 180.827 120.81C180.307 120.557 179.889 120.215 179.573 119.784C179.256 119.353 179.098 118.866 179.098 118.321C179.098 117.447 179.452 116.75 180.162 116.231C180.871 115.712 181.796 115.37 182.936 115.205L185.767 114.806V114.255C185.767 113.647 185.589 113.172 185.235 112.83C184.893 112.488 184.329 112.317 183.544 112.317C182.974 112.317 182.511 112.431 182.157 112.659C181.815 112.887 181.574 113.178 181.435 113.533C181.359 113.723 181.226 113.818 181.036 113.818H180.181C180.041 113.818 179.934 113.78 179.858 113.704C179.794 113.615 179.763 113.514 179.763 113.4C179.763 113.21 179.832 112.976 179.972 112.697C180.124 112.418 180.352 112.146 180.656 111.88C180.96 111.614 181.346 111.392 181.815 111.215C182.296 111.025 182.879 110.93 183.563 110.93C184.323 110.93 184.962 111.031 185.482 111.234C186.001 111.424 186.406 111.684 186.698 112.013C187.002 112.342 187.217 112.716 187.344 113.134C187.483 113.552 187.553 113.976 187.553 114.407V120.563C187.553 120.69 187.508 120.797 187.42 120.886C187.344 120.962 187.242 121 187.116 121H186.242C186.102 121 185.995 120.962 185.919 120.886C185.843 120.797 185.805 120.69 185.805 120.563V119.746C185.64 119.974 185.418 120.202 185.14 120.43C184.861 120.645 184.513 120.829 184.095 120.981C183.677 121.12 183.164 121.19 182.556 121.19ZM182.955 119.765C183.474 119.765 183.949 119.657 184.38 119.442C184.81 119.214 185.146 118.866 185.387 118.397C185.64 117.928 185.767 117.339 185.767 116.63V116.098L183.563 116.421C182.663 116.548 181.986 116.763 181.53 117.067C181.074 117.358 180.846 117.732 180.846 118.188C180.846 118.543 180.947 118.84 181.15 119.081C181.365 119.309 181.631 119.48 181.948 119.594C182.277 119.708 182.613 119.765 182.955 119.765ZM190.721 121C190.594 121 190.487 120.962 190.398 120.886C190.322 120.797 190.284 120.69 190.284 120.563V111.557C190.284 111.43 190.322 111.329 190.398 111.253C190.487 111.164 190.594 111.12 190.721 111.12H191.633C191.76 111.12 191.861 111.164 191.937 111.253C192.013 111.329 192.051 111.43 192.051 111.557V120.563C192.051 120.69 192.013 120.797 191.937 120.886C191.861 120.962 191.76 121 191.633 121H190.721ZM190.569 109.277C190.442 109.277 190.335 109.239 190.246 109.163C190.17 109.074 190.132 108.967 190.132 108.84V107.814C190.132 107.687 190.17 107.586 190.246 107.51C190.335 107.421 190.442 107.377 190.569 107.377H191.766C191.893 107.377 191.994 107.421 192.07 107.51C192.159 107.586 192.203 107.687 192.203 107.814V108.84C192.203 108.967 192.159 109.074 192.07 109.163C191.994 109.239 191.893 109.277 191.766 109.277H190.569ZM195.341 121C195.215 121 195.107 120.962 195.018 120.886C194.942 120.797 194.904 120.69 194.904 120.563V107.947C194.904 107.82 194.942 107.719 195.018 107.643C195.107 107.554 195.215 107.51 195.341 107.51H196.234C196.374 107.51 196.481 107.554 196.557 107.643C196.633 107.719 196.671 107.82 196.671 107.947V120.563C196.671 120.69 196.633 120.797 196.557 120.886C196.481 120.962 196.374 121 196.234 121H195.341ZM268.324 121.19C267.02 121.19 265.981 120.791 265.208 119.993C264.436 119.182 264.011 118.08 263.935 116.687C263.923 116.522 263.916 116.313 263.916 116.06C263.916 115.794 263.923 115.579 263.935 115.414C263.986 114.515 264.195 113.729 264.562 113.058C264.93 112.374 265.43 111.848 266.063 111.481C266.709 111.114 267.463 110.93 268.324 110.93C269.287 110.93 270.091 111.133 270.737 111.538C271.396 111.943 271.896 112.52 272.238 113.267C272.58 114.014 272.751 114.888 272.751 115.889V116.212C272.751 116.351 272.707 116.459 272.618 116.535C272.542 116.611 272.441 116.649 272.314 116.649H265.74C265.74 116.662 265.74 116.687 265.74 116.725C265.74 116.763 265.74 116.795 265.74 116.82C265.766 117.339 265.88 117.827 266.082 118.283C266.285 118.726 266.576 119.087 266.956 119.366C267.336 119.645 267.792 119.784 268.324 119.784C268.78 119.784 269.16 119.714 269.464 119.575C269.768 119.436 270.015 119.284 270.205 119.119C270.395 118.942 270.522 118.809 270.585 118.72C270.699 118.555 270.788 118.46 270.851 118.435C270.915 118.397 271.016 118.378 271.155 118.378H272.067C272.194 118.378 272.295 118.416 272.371 118.492C272.46 118.555 272.498 118.65 272.485 118.777C272.473 118.967 272.371 119.201 272.181 119.48C271.991 119.746 271.719 120.012 271.364 120.278C271.01 120.544 270.579 120.766 270.072 120.943C269.566 121.108 268.983 121.19 268.324 121.19ZM265.74 115.338H270.946V115.281C270.946 114.711 270.839 114.204 270.623 113.761C270.421 113.318 270.123 112.969 269.73 112.716C269.338 112.45 268.869 112.317 268.324 112.317C267.78 112.317 267.311 112.45 266.918 112.716C266.538 112.969 266.247 113.318 266.044 113.761C265.842 114.204 265.74 114.711 265.74 115.281V115.338ZM275.46 121C275.334 121 275.226 120.962 275.137 120.886C275.061 120.797 275.023 120.69 275.023 120.563V111.557C275.023 111.43 275.061 111.329 275.137 111.253C275.226 111.164 275.334 111.12 275.46 111.12H276.315C276.442 111.12 276.543 111.164 276.619 111.253C276.708 111.329 276.752 111.43 276.752 111.557V112.222C277.044 111.829 277.411 111.519 277.854 111.291C278.298 111.05 278.83 110.93 279.45 110.93C280.882 110.917 281.895 111.5 282.49 112.678C282.782 112.146 283.206 111.722 283.763 111.405C284.321 111.088 284.954 110.93 285.663 110.93C286.322 110.93 286.917 111.082 287.449 111.386C287.994 111.69 288.418 112.152 288.722 112.773C289.039 113.381 289.197 114.147 289.197 115.072V120.563C289.197 120.69 289.153 120.797 289.064 120.886C288.988 120.962 288.887 121 288.76 121H287.867C287.741 121 287.633 120.962 287.544 120.886C287.468 120.797 287.43 120.69 287.43 120.563V115.243C287.43 114.534 287.329 113.976 287.126 113.571C286.924 113.166 286.651 112.881 286.309 112.716C285.967 112.551 285.594 112.469 285.188 112.469C284.859 112.469 284.523 112.551 284.181 112.716C283.839 112.881 283.554 113.166 283.326 113.571C283.111 113.976 283.003 114.534 283.003 115.243V120.563C283.003 120.69 282.959 120.797 282.87 120.886C282.794 120.962 282.693 121 282.566 121H281.673C281.547 121 281.439 120.962 281.35 120.886C281.274 120.797 281.236 120.69 281.236 120.563V115.243C281.236 114.534 281.129 113.976 280.913 113.571C280.698 113.166 280.419 112.881 280.077 112.716C279.735 112.551 279.374 112.469 278.994 112.469C278.665 112.469 278.329 112.551 277.987 112.716C277.645 112.881 277.36 113.166 277.132 113.571C276.917 113.976 276.809 114.527 276.809 115.224V120.563C276.809 120.69 276.765 120.797 276.676 120.886C276.6 120.962 276.499 121 276.372 121H275.46ZM294.663 121.19C294.03 121.19 293.453 121.063 292.934 120.81C292.415 120.557 291.997 120.215 291.68 119.784C291.363 119.353 291.205 118.866 291.205 118.321C291.205 117.447 291.56 116.75 292.269 116.231C292.978 115.712 293.903 115.37 295.043 115.205L297.874 114.806V114.255C297.874 113.647 297.697 113.172 297.342 112.83C297 112.488 296.436 112.317 295.651 112.317C295.081 112.317 294.619 112.431 294.264 112.659C293.922 112.887 293.681 113.178 293.542 113.533C293.466 113.723 293.333 113.818 293.143 113.818H292.288C292.149 113.818 292.041 113.78 291.965 113.704C291.902 113.615 291.87 113.514 291.87 113.4C291.87 113.21 291.94 112.976 292.079 112.697C292.231 112.418 292.459 112.146 292.763 111.88C293.067 111.614 293.453 111.392 293.922 111.215C294.403 111.025 294.986 110.93 295.67 110.93C296.43 110.93 297.07 111.031 297.589 111.234C298.108 111.424 298.514 111.684 298.805 112.013C299.109 112.342 299.324 112.716 299.451 113.134C299.59 113.552 299.66 113.976 299.66 114.407V120.563C299.66 120.69 299.616 120.797 299.527 120.886C299.451 120.962 299.35 121 299.223 121H298.349C298.21 121 298.102 120.962 298.026 120.886C297.95 120.797 297.912 120.69 297.912 120.563V119.746C297.747 119.974 297.526 120.202 297.247 120.43C296.968 120.645 296.62 120.829 296.202 120.981C295.784 121.12 295.271 121.19 294.663 121.19ZM295.062 119.765C295.581 119.765 296.056 119.657 296.487 119.442C296.918 119.214 297.253 118.866 297.494 118.397C297.747 117.928 297.874 117.339 297.874 116.63V116.098L295.67 116.421C294.771 116.548 294.093 116.763 293.637 117.067C293.181 117.358 292.953 117.732 292.953 118.188C292.953 118.543 293.054 118.84 293.257 119.081C293.472 119.309 293.738 119.48 294.055 119.594C294.384 119.708 294.72 119.765 295.062 119.765ZM302.828 121C302.702 121 302.594 120.962 302.505 120.886C302.429 120.797 302.391 120.69 302.391 120.563V111.557C302.391 111.43 302.429 111.329 302.505 111.253C302.594 111.164 302.702 111.12 302.828 111.12H303.74C303.867 111.12 303.968 111.164 304.044 111.253C304.12 111.329 304.158 111.43 304.158 111.557V120.563C304.158 120.69 304.12 120.797 304.044 120.886C303.968 120.962 303.867 121 303.74 121H302.828ZM302.676 109.277C302.55 109.277 302.442 109.239 302.353 109.163C302.277 109.074 302.239 108.967 302.239 108.84V107.814C302.239 107.687 302.277 107.586 302.353 107.51C302.442 107.421 302.55 107.377 302.676 107.377H303.873C304 107.377 304.101 107.421 304.177 107.51C304.266 107.586 304.31 107.687 304.31 107.814V108.84C304.31 108.967 304.266 109.074 304.177 109.163C304.101 109.239 304 109.277 303.873 109.277H302.676ZM307.449 121C307.322 121 307.215 120.962 307.126 120.886C307.05 120.797 307.012 120.69 307.012 120.563V107.947C307.012 107.82 307.05 107.719 307.126 107.643C307.215 107.554 307.322 107.51 307.449 107.51H308.342C308.481 107.51 308.589 107.554 308.665 107.643C308.741 107.719 308.779 107.82 308.779 107.947V120.563C308.779 120.69 308.741 120.797 308.665 120.886C308.589 120.962 308.481 121 308.342 121H307.449ZM414.183 121.19C412.878 121.19 411.839 120.791 411.067 119.993C410.294 119.182 409.87 118.08 409.794 116.687C409.781 116.522 409.775 116.313 409.775 116.06C409.775 115.794 409.781 115.579 409.794 115.414C409.844 114.515 410.053 113.729 410.421 113.058C410.788 112.374 411.288 111.848 411.922 111.481C412.568 111.114 413.321 110.93 414.183 110.93C415.145 110.93 415.95 111.133 416.596 111.538C417.254 111.943 417.755 112.52 418.097 113.267C418.439 114.014 418.61 114.888 418.61 115.889V116.212C418.61 116.351 418.565 116.459 418.477 116.535C418.401 116.611 418.299 116.649 418.173 116.649H411.599C411.599 116.662 411.599 116.687 411.599 116.725C411.599 116.763 411.599 116.795 411.599 116.82C411.624 117.339 411.738 117.827 411.941 118.283C412.143 118.726 412.435 119.087 412.815 119.366C413.195 119.645 413.651 119.784 414.183 119.784C414.639 119.784 415.019 119.714 415.323 119.575C415.627 119.436 415.874 119.284 416.064 119.119C416.254 118.942 416.38 118.809 416.444 118.72C416.558 118.555 416.646 118.46 416.71 118.435C416.773 118.397 416.874 118.378 417.014 118.378H417.926C418.052 118.378 418.154 118.416 418.23 118.492C418.318 118.555 418.356 118.65 418.344 118.777C418.331 118.967 418.23 119.201 418.04 119.48C417.85 119.746 417.577 120.012 417.223 120.278C416.868 120.544 416.437 120.766 415.931 120.943C415.424 121.108 414.841 121.19 414.183 121.19ZM411.599 115.338H416.805V115.281C416.805 114.711 416.697 114.204 416.482 113.761C416.279 113.318 415.981 112.969 415.589 112.716C415.196 112.45 414.727 112.317 414.183 112.317C413.638 112.317 413.169 112.45 412.777 112.716C412.397 112.969 412.105 113.318 411.903 113.761C411.7 114.204 411.599 114.711 411.599 115.281V115.338ZM421.319 121C421.192 121 421.084 120.962 420.996 120.886C420.92 120.797 420.882 120.69 420.882 120.563V111.557C420.882 111.43 420.92 111.329 420.996 111.253C421.084 111.164 421.192 111.12 421.319 111.12H422.174C422.3 111.12 422.402 111.164 422.478 111.253C422.566 111.329 422.611 111.43 422.611 111.557V112.222C422.902 111.829 423.269 111.519 423.713 111.291C424.156 111.05 424.688 110.93 425.309 110.93C426.74 110.917 427.753 111.5 428.349 112.678C428.64 112.146 429.064 111.722 429.622 111.405C430.179 111.088 430.812 110.93 431.522 110.93C432.18 110.93 432.776 111.082 433.308 111.386C433.852 111.69 434.277 112.152 434.581 112.773C434.897 113.381 435.056 114.147 435.056 115.072V120.563C435.056 120.69 435.011 120.797 434.923 120.886C434.847 120.962 434.745 121 434.619 121H433.726C433.599 121 433.491 120.962 433.403 120.886C433.327 120.797 433.289 120.69 433.289 120.563V115.243C433.289 114.534 433.187 113.976 432.985 113.571C432.782 113.166 432.51 112.881 432.168 112.716C431.826 112.551 431.452 112.469 431.047 112.469C430.717 112.469 430.382 112.551 430.04 112.716C429.698 112.881 429.413 113.166 429.185 113.571C428.969 113.976 428.862 114.534 428.862 115.243V120.563C428.862 120.69 428.817 120.797 428.729 120.886C428.653 120.962 428.551 121 428.425 121H427.532C427.405 121 427.297 120.962 427.209 120.886C427.133 120.797 427.095 120.69 427.095 120.563V115.243C427.095 114.534 426.987 113.976 426.772 113.571C426.556 113.166 426.278 112.881 425.936 112.716C425.594 112.551 425.233 112.469 424.853 112.469C424.523 112.469 424.188 112.551 423.846 112.716C423.504 112.881 423.219 113.166 422.991 113.571C422.775 113.976 422.668 114.527 422.668 115.224V120.563C422.668 120.69 422.623 120.797 422.535 120.886C422.459 120.962 422.357 121 422.231 121H421.319ZM440.521 121.19C439.888 121.19 439.312 121.063 438.792 120.81C438.273 120.557 437.855 120.215 437.538 119.784C437.222 119.353 437.063 118.866 437.063 118.321C437.063 117.447 437.418 116.75 438.127 116.231C438.837 115.712 439.761 115.37 440.901 115.205L443.732 114.806V114.255C443.732 113.647 443.555 113.172 443.2 112.83C442.858 112.488 442.295 112.317 441.509 112.317C440.939 112.317 440.477 112.431 440.122 112.659C439.78 112.887 439.54 113.178 439.4 113.533C439.324 113.723 439.191 113.818 439.001 113.818H438.146C438.007 113.818 437.899 113.78 437.823 113.704C437.76 113.615 437.728 113.514 437.728 113.4C437.728 113.21 437.798 112.976 437.937 112.697C438.089 112.418 438.317 112.146 438.621 111.88C438.925 111.614 439.312 111.392 439.78 111.215C440.262 111.025 440.844 110.93 441.528 110.93C442.288 110.93 442.928 111.031 443.447 111.234C443.967 111.424 444.372 111.684 444.663 112.013C444.967 112.342 445.183 112.716 445.309 113.134C445.449 113.552 445.518 113.976 445.518 114.407V120.563C445.518 120.69 445.474 120.797 445.385 120.886C445.309 120.962 445.208 121 445.081 121H444.207C444.068 121 443.96 120.962 443.884 120.886C443.808 120.797 443.77 120.69 443.77 120.563V119.746C443.606 119.974 443.384 120.202 443.105 120.43C442.827 120.645 442.478 120.829 442.06 120.981C441.642 121.12 441.129 121.19 440.521 121.19ZM440.92 119.765C441.44 119.765 441.915 119.657 442.345 119.442C442.776 119.214 443.112 118.866 443.352 118.397C443.606 117.928 443.732 117.339 443.732 116.63V116.098L441.528 116.421C440.629 116.548 439.951 116.763 439.495 117.067C439.039 117.358 438.811 117.732 438.811 118.188C438.811 118.543 438.913 118.84 439.115 119.081C439.331 119.309 439.597 119.48 439.913 119.594C440.243 119.708 440.578 119.765 440.92 119.765ZM448.687 121C448.56 121 448.452 120.962 448.364 120.886C448.288 120.797 448.25 120.69 448.25 120.563V111.557C448.25 111.43 448.288 111.329 448.364 111.253C448.452 111.164 448.56 111.12 448.687 111.12H449.599C449.725 111.12 449.827 111.164 449.903 111.253C449.979 111.329 450.017 111.43 450.017 111.557V120.563C450.017 120.69 449.979 120.797 449.903 120.886C449.827 120.962 449.725 121 449.599 121H448.687ZM448.535 109.277C448.408 109.277 448.3 109.239 448.212 109.163C448.136 109.074 448.098 108.967 448.098 108.84V107.814C448.098 107.687 448.136 107.586 448.212 107.51C448.3 107.421 448.408 107.377 448.535 107.377H449.732C449.858 107.377 449.96 107.421 450.036 107.51C450.124 107.586 450.169 107.687 450.169 107.814V108.84C450.169 108.967 450.124 109.074 450.036 109.163C449.96 109.239 449.858 109.277 449.732 109.277H448.535ZM453.307 121C453.181 121 453.073 120.962 452.984 120.886C452.908 120.797 452.87 120.69 452.87 120.563V107.947C452.87 107.82 452.908 107.719 452.984 107.643C453.073 107.554 453.181 107.51 453.307 107.51H454.2C454.34 107.51 454.447 107.554 454.523 107.643C454.599 107.719 454.637 107.82 454.637 107.947V120.563C454.637 120.69 454.599 120.797 454.523 120.886C454.447 120.962 454.34 121 454.2 121H453.307Z" fill="white"/>
<g filter="url(#filter0_d_213_125)">
<path d="M4 12C4 5.37258 9.37258 0 16 0H787C793.627 0 799 5.37258 799 12V43H4V12Z" fill="#242526"/>
</g>
<ellipse cx="29.1279" cy="21.9141" rx="5.84369" ry="6.72025" fill="#E65100"/>
<ellipse cx="48.4121" cy="21.9141" rx="5.84369" ry="6.72025" fill="#FFD600"/>
<ellipse cx="67.6962" cy="21.9141" rx="5.84369" ry="6.72025" fill="#4EC433"/>
<defs>
<filter id="filter0_d_213_125" x="0" y="0" width="803" height="51" filterUnits="userSpaceOnUse" color-interpolation-filters="sRGB">
<feFlood flood-opacity="0" result="BackgroundImageFix"/>
<feColorMatrix in="SourceAlpha" type="matrix" values="0 0 0 0 0 0 0 0 0 0 0 0 0 0 0 0 0 0 127 0" result="hardAlpha"/>
<feOffset dy="4"/>
<feGaussianBlur stdDeviation="2"/>
<feComposite in2="hardAlpha" operator="out"/>
<feColorMatrix type="matrix" values="0 0 0 0 0 0 0 0 0 0 0 0 0 0 0 0 0 0 0.25 0"/>
<feBlend mode="normal" in2="BackgroundImageFix" result="effect1_dropShadow_213_125"/>
<feBlend mode="normal" in="SourceGraphic" in2="effect1_dropShadow_213_125" result="shape"/>
</filter>
</defs>
</svg>
