<svg width="803" height="178" viewBox="0 0 803 178" fill="none" xmlns="http://www.w3.org/2000/svg">
<rect x="4" width="586" height="144" rx="12" fill="#242526"/>
<rect x="4" width="795" height="178" rx="12" fill="#242526"/>
<path d="M21.676 89.525C21.6 89.525 21.5177 89.4997 21.429 89.449C21.353 89.3983 21.2833 89.3603 21.22 89.335L15.235 85.212C15.045 85.0853 14.9057 84.9587 14.817 84.832C14.7283 84.6927 14.684 84.5343 14.684 84.357V84.015C14.684 83.8377 14.7283 83.6857 14.817 83.559C14.9057 83.4323 15.045 83.2993 15.235 83.16L21.22 79.056C21.2833 79.018 21.353 78.9737 21.429 78.923C21.5177 78.8723 21.6 78.847 21.676 78.847C21.7773 78.847 21.866 78.885 21.942 78.961C22.018 79.0243 22.056 79.1193 22.056 79.246V80.082C22.056 80.2213 22.018 80.3417 21.942 80.443C21.866 80.5317 21.7583 80.6203 21.619 80.709L16.527 84.186L21.619 87.663C21.7583 87.7643 21.866 87.8593 21.942 87.948C22.018 88.0367 22.056 88.157 22.056 88.309V89.145C22.056 89.259 22.018 89.354 21.942 89.43C21.866 89.4933 21.7773 89.525 21.676 89.525ZM219.124 89.506C219.023 89.506 218.934 89.4743 218.858 89.411C218.782 89.3477 218.744 89.2527 218.744 89.126V88.29C218.744 88.138 218.776 88.0177 218.839 87.929C218.915 87.8403 219.029 87.7517 219.181 87.663L224.254 84.186L219.181 80.709C219.029 80.6077 218.915 80.5127 218.839 80.424C218.776 80.3353 218.744 80.215 218.744 80.063V79.227C218.744 79.1003 218.782 79.0053 218.858 78.942C218.934 78.8787 219.023 78.847 219.124 78.847C219.2 78.847 219.282 78.8723 219.371 78.923C219.46 78.961 219.529 78.999 219.58 79.037L225.546 83.141C225.749 83.2803 225.888 83.4133 225.964 83.54C226.053 83.6667 226.097 83.825 226.097 84.015V84.338C226.097 84.5153 226.053 84.6737 225.964 84.813C225.888 84.9397 225.749 85.0727 225.546 85.212L219.58 89.316C219.529 89.354 219.46 89.3983 219.371 89.449C219.282 89.487 219.2 89.506 219.124 89.506ZM342.542 89.525C342.466 89.525 342.384 89.4997 342.295 89.449C342.219 89.3983 342.15 89.3603 342.086 89.335L336.101 85.212C335.911 85.0853 335.772 84.9587 335.683 84.832C335.595 84.6927 335.55 84.5343 335.55 84.357V84.015C335.55 83.8377 335.595 83.6857 335.683 83.559C335.772 83.4323 335.911 83.2993 336.101 83.16L342.086 79.056C342.15 79.018 342.219 78.9737 342.295 78.923C342.384 78.8723 342.466 78.847 342.542 78.847C342.644 78.847 342.732 78.885 342.808 78.961C342.884 79.0243 342.922 79.1193 342.922 79.246V80.082C342.922 80.2213 342.884 80.3417 342.808 80.443C342.732 80.5317 342.625 80.6203 342.485 80.709L337.393 84.186L342.485 87.663C342.625 87.7643 342.732 87.8593 342.808 87.948C342.884 88.0367 342.922 88.157 342.922 88.309V89.145C342.922 89.259 342.884 89.354 342.808 89.43C342.732 89.4933 342.644 89.525 342.542 89.525ZM410.664 89.506C410.563 89.506 410.474 89.4743 410.398 89.411C410.322 89.3477 410.284 89.2527 410.284 89.126V88.29C410.284 88.138 410.316 88.0177 410.379 87.929C410.455 87.8403 410.569 87.7517 410.721 87.663L415.794 84.186L410.721 80.709C410.569 80.6077 410.455 80.5127 410.379 80.424C410.316 80.3353 410.284 80.215 410.284 80.063V79.227C410.284 79.1003 410.322 79.0053 410.398 78.942C410.474 78.8787 410.563 78.847 410.664 78.847C410.74 78.847 410.823 78.8723 410.911 78.923C411 78.961 411.07 78.999 411.12 79.037L417.086 83.141C417.289 83.2803 417.428 83.4133 417.504 83.54C417.593 83.6667 417.637 83.825 417.637 84.015V84.338C417.637 84.5153 417.593 84.6737 417.504 84.813C417.428 84.9397 417.289 85.0727 417.086 85.212L411.12 89.316C411.07 89.354 411 89.3983 410.911 89.449C410.823 89.487 410.74 89.506 410.664 89.506ZM21.676 120.525C21.6 120.525 21.5177 120.5 21.429 120.449C21.353 120.398 21.2833 120.36 21.22 120.335L15.235 116.212C15.045 116.085 14.9057 115.959 14.817 115.832C14.7283 115.693 14.684 115.534 14.684 115.357V115.015C14.684 114.838 14.7283 114.686 14.817 114.559C14.9057 114.432 15.045 114.299 15.235 114.16L21.22 110.056C21.2833 110.018 21.353 109.974 21.429 109.923C21.5177 109.872 21.6 109.847 21.676 109.847C21.7773 109.847 21.866 109.885 21.942 109.961C22.018 110.024 22.056 110.119 22.056 110.246V111.082C22.056 111.221 22.018 111.342 21.942 111.443C21.866 111.532 21.7583 111.62 21.619 111.709L16.527 115.186L21.619 118.663C21.7583 118.764 21.866 118.859 21.942 118.948C22.018 119.037 22.056 119.157 22.056 119.309V120.145C22.056 120.259 22.018 120.354 21.942 120.43C21.866 120.493 21.7773 120.525 21.676 120.525ZM521.324 120.506C521.223 120.506 521.134 120.474 521.058 120.411C520.982 120.348 520.944 120.253 520.944 120.126V119.29C520.944 119.138 520.976 119.018 521.039 118.929C521.115 118.84 521.229 118.752 521.381 118.663L526.454 115.186L521.381 111.709C521.229 111.608 521.115 111.513 521.039 111.424C520.976 111.335 520.944 111.215 520.944 111.063V110.227C520.944 110.1 520.982 110.005 521.058 109.942C521.134 109.879 521.223 109.847 521.324 109.847C521.4 109.847 521.483 109.872 521.571 109.923C521.66 109.961 521.73 109.999 521.78 110.037L527.746 114.141C527.949 114.28 528.088 114.413 528.164 114.54C528.253 114.667 528.297 114.825 528.297 115.015V115.338C528.297 115.515 528.253 115.674 528.164 115.813C528.088 115.94 527.949 116.073 527.746 116.212L521.78 120.316C521.73 120.354 521.66 120.398 521.571 120.449C521.483 120.487 521.4 120.506 521.324 120.506Z" fill="#647DFF"/>
<path d="M29.8708 90C29.7441 90 29.6365 89.962 29.5478 89.886C29.4718 89.7973 29.4338 89.6897 29.4338 89.563V76.947C29.4338 76.8203 29.4718 76.719 29.5478 76.643C29.6365 76.5543 29.7441 76.51 29.8708 76.51H30.7638C30.9031 76.51 31.0108 76.5543 31.0868 76.643C31.1628 76.719 31.2008 76.8203 31.2008 76.947V89.563C31.2008 89.6897 31.1628 89.7973 31.0868 89.886C31.0108 89.962 30.9031 90 30.7638 90H29.8708ZM36.7899 90.19C36.1566 90.19 35.5802 90.0633 35.0609 89.81C34.5416 89.5567 34.1236 89.2147 33.8069 88.784C33.4902 88.3533 33.3319 87.8657 33.3319 87.321C33.3319 86.447 33.6866 85.7503 34.3959 85.231C35.1052 84.7117 36.0299 84.3697 37.1699 84.205L40.0009 83.806V83.255C40.0009 82.647 39.8236 82.172 39.4689 81.83C39.1269 81.488 38.5632 81.317 37.7779 81.317C37.2079 81.317 36.7456 81.431 36.3909 81.659C36.0489 81.887 35.8082 82.1783 35.6689 82.533C35.5929 82.723 35.4599 82.818 35.2699 82.818H34.4149C34.2756 82.818 34.1679 82.78 34.0919 82.704C34.0286 82.6153 33.9969 82.514 33.9969 82.4C33.9969 82.21 34.0666 81.9757 34.2059 81.697C34.3579 81.4183 34.5859 81.146 34.8899 80.88C35.1939 80.614 35.5802 80.3923 36.0489 80.215C36.5302 80.025 37.1129 79.93 37.7969 79.93C38.5569 79.93 39.1966 80.0313 39.7159 80.234C40.2352 80.424 40.6406 80.6837 40.9319 81.013C41.2359 81.3423 41.4512 81.716 41.5779 82.134C41.7172 82.552 41.7869 82.9763 41.7869 83.407V89.563C41.7869 89.6897 41.7426 89.7973 41.6539 89.886C41.5779 89.962 41.4766 90 41.3499 90H40.4759C40.3366 90 40.2289 89.962 40.1529 89.886C40.0769 89.7973 40.0389 89.6897 40.0389 89.563V88.746C39.8742 88.974 39.6526 89.202 39.3739 89.43C39.0952 89.6453 38.7469 89.829 38.3289 89.981C37.9109 90.1203 37.3979 90.19 36.7899 90.19ZM37.1889 88.765C37.7082 88.765 38.1832 88.6573 38.6139 88.442C39.0446 88.214 39.3802 87.8657 39.6209 87.397C39.8742 86.9283 40.0009 86.3393 40.0009 85.63V85.098L37.7969 85.421C36.8976 85.5477 36.2199 85.763 35.7639 86.067C35.3079 86.3583 35.0799 86.732 35.0799 87.188C35.0799 87.5427 35.1812 87.8403 35.3839 88.081C35.5992 88.309 35.8652 88.48 36.1819 88.594C36.5112 88.708 36.8469 88.765 37.1889 88.765ZM49.4013 90.19C48.6413 90.19 48.008 90.057 47.5013 89.791C46.9946 89.5123 46.5893 89.1703 46.2853 88.765V89.563C46.2853 89.6897 46.241 89.7973 46.1523 89.886C46.0763 89.962 45.975 90 45.8483 90H44.9743C44.8476 90 44.74 89.962 44.6513 89.886C44.5753 89.7973 44.5373 89.6897 44.5373 89.563V76.947C44.5373 76.8203 44.5753 76.719 44.6513 76.643C44.74 76.5543 44.8476 76.51 44.9743 76.51H45.8863C46.0256 76.51 46.1333 76.5543 46.2093 76.643C46.2853 76.719 46.3233 76.8203 46.3233 76.947V81.317C46.64 80.9243 47.0453 80.595 47.5393 80.329C48.046 80.063 48.6666 79.93 49.4013 79.93C50.1106 79.93 50.7123 80.0567 51.2063 80.31C51.713 80.5507 52.1246 80.8863 52.4413 81.317C52.7706 81.7477 53.0176 82.2353 53.1823 82.78C53.347 83.3247 53.4356 83.8947 53.4483 84.49C53.461 84.6927 53.4673 84.8827 53.4673 85.06C53.4673 85.2373 53.461 85.4273 53.4483 85.63C53.4356 86.238 53.347 86.8143 53.1823 87.359C53.0176 87.9037 52.7706 88.3913 52.4413 88.822C52.1246 89.24 51.713 89.5757 51.2063 89.829C50.7123 90.0697 50.1106 90.19 49.4013 90.19ZM49.0023 88.651C49.661 88.651 50.174 88.5117 50.5413 88.233C50.9213 87.9417 51.1936 87.568 51.3583 87.112C51.523 86.6433 51.618 86.143 51.6433 85.611C51.656 85.2437 51.656 84.8763 51.6433 84.509C51.618 83.977 51.523 83.483 51.3583 83.027C51.1936 82.5583 50.9213 82.1847 50.5413 81.906C50.174 81.6147 49.661 81.469 49.0023 81.469C48.407 81.469 47.913 81.6083 47.5203 81.887C47.1276 82.1657 46.83 82.5203 46.6273 82.951C46.4373 83.3817 46.336 83.8187 46.3233 84.262C46.3106 84.4647 46.3043 84.7117 46.3043 85.003C46.3043 85.2817 46.3106 85.5223 46.3233 85.725C46.3486 86.1937 46.45 86.656 46.6273 87.112C46.8173 87.5553 47.1023 87.9227 47.4823 88.214C47.875 88.5053 48.3816 88.651 49.0023 88.651ZM59.7511 90.19C58.4464 90.19 57.4078 89.791 56.6351 88.993C55.8624 88.1823 55.4381 87.0803 55.3621 85.687C55.3494 85.5223 55.3431 85.3133 55.3431 85.06C55.3431 84.794 55.3494 84.5787 55.3621 84.414C55.4128 83.5147 55.6218 82.7293 55.9891 82.058C56.3564 81.374 56.8568 80.8483 57.4901 80.481C58.1361 80.1137 58.8898 79.93 59.7511 79.93C60.7138 79.93 61.5181 80.1327 62.1641 80.538C62.8228 80.9433 63.3231 81.5197 63.6651 82.267C64.0071 83.0143 64.1781 83.8883 64.1781 84.889V85.212C64.1781 85.3513 64.1338 85.459 64.0451 85.535C63.9691 85.611 63.8678 85.649 63.7411 85.649H57.1671C57.1671 85.6617 57.1671 85.687 57.1671 85.725C57.1671 85.763 57.1671 85.7947 57.1671 85.82C57.1924 86.3393 57.3064 86.827 57.5091 87.283C57.7118 87.7263 58.0031 88.0873 58.3831 88.366C58.7631 88.6447 59.2191 88.784 59.7511 88.784C60.2071 88.784 60.5871 88.7143 60.8911 88.575C61.1951 88.4357 61.4421 88.2837 61.6321 88.119C61.8221 87.9417 61.9488 87.8087 62.0121 87.72C62.1261 87.5553 62.2148 87.4603 62.2781 87.435C62.3414 87.397 62.4428 87.378 62.5821 87.378H63.4941C63.6208 87.378 63.7221 87.416 63.7981 87.492C63.8868 87.5553 63.9248 87.6503 63.9121 87.777C63.8994 87.967 63.7981 88.2013 63.6081 88.48C63.4181 88.746 63.1458 89.012 62.7911 89.278C62.4364 89.544 62.0058 89.7657 61.4991 89.943C60.9924 90.1077 60.4098 90.19 59.7511 90.19ZM57.1671 84.338H62.3731V84.281C62.3731 83.711 62.2654 83.2043 62.0501 82.761C61.8474 82.3177 61.5498 81.9693 61.1571 81.716C60.7644 81.45 60.2958 81.317 59.7511 81.317C59.2064 81.317 58.7378 81.45 58.3451 81.716C57.9651 81.9693 57.6738 82.3177 57.4711 82.761C57.2684 83.2043 57.1671 83.711 57.1671 84.281V84.338ZM66.9059 90C66.7793 90 66.6716 89.962 66.5829 89.886C66.5069 89.7973 66.4689 89.6897 66.4689 89.563V76.947C66.4689 76.8203 66.5069 76.719 66.5829 76.643C66.6716 76.5543 66.7793 76.51 66.9059 76.51H67.7989C67.9383 76.51 68.0459 76.5543 68.1219 76.643C68.1979 76.719 68.2359 76.8203 68.2359 76.947V89.563C68.2359 89.6897 68.1979 89.7973 68.1219 89.886C68.0459 89.962 67.9383 90 67.7989 90H66.9059ZM76.7998 90C76.6731 90 76.5654 89.962 76.4767 89.886C76.4008 89.7973 76.3628 89.6897 76.3628 89.563V81.64H74.7478C74.6211 81.64 74.5134 81.602 74.4248 81.526C74.3488 81.4373 74.3108 81.3297 74.3108 81.203V80.557C74.3108 80.4303 74.3488 80.329 74.4248 80.253C74.5134 80.1643 74.6211 80.12 74.7478 80.12H76.3628V79.17C76.3628 78.524 76.4704 77.9603 76.6858 77.479C76.9011 76.985 77.2431 76.605 77.7118 76.339C78.1931 76.073 78.8328 75.94 79.6308 75.94H80.7708C80.8974 75.94 80.9988 75.9843 81.0748 76.073C81.1508 76.149 81.1888 76.2503 81.1888 76.377V77.023C81.1888 77.1497 81.1508 77.2573 81.0748 77.346C80.9988 77.422 80.8974 77.46 80.7708 77.46H79.6688C79.0734 77.46 78.6681 77.6183 78.4528 77.935C78.2374 78.239 78.1298 78.6823 78.1298 79.265V80.12H80.5808C80.7074 80.12 80.8088 80.1643 80.8848 80.253C80.9608 80.329 80.9988 80.4303 80.9988 80.557V81.203C80.9988 81.3297 80.9608 81.4373 80.8848 81.526C80.8088 81.602 80.7074 81.64 80.5808 81.64H78.1298V89.563C78.1298 89.6897 78.0854 89.7973 77.9968 89.886C77.9208 89.962 77.8194 90 77.6928 90H76.7998ZM86.5468 90.19C85.5841 90.19 84.7798 90.0063 84.1338 89.639C83.4878 89.2717 82.9938 88.765 82.6518 88.119C82.3098 87.4603 82.1198 86.713 82.0818 85.877C82.0691 85.6617 82.0628 85.3893 82.0628 85.06C82.0628 84.718 82.0691 84.4457 82.0818 84.243C82.1198 83.3943 82.3098 82.647 82.6518 82.001C83.0064 81.355 83.5068 80.8483 84.1528 80.481C84.7988 80.1137 85.5968 79.93 86.5468 79.93C87.4968 79.93 88.2948 80.1137 88.9408 80.481C89.5868 80.8483 90.0808 81.355 90.4228 82.001C90.7774 82.647 90.9738 83.3943 91.0118 84.243C91.0244 84.4457 91.0308 84.718 91.0308 85.06C91.0308 85.3893 91.0244 85.6617 91.0118 85.877C90.9738 86.713 90.7838 87.4603 90.4418 88.119C90.0998 88.765 89.6058 89.2717 88.9598 89.639C88.3138 90.0063 87.5094 90.19 86.5468 90.19ZM86.5468 88.727C87.3321 88.727 87.9591 88.48 88.4278 87.986C88.8964 87.4793 89.1498 86.7447 89.1878 85.782C89.2004 85.592 89.2068 85.3513 89.2068 85.06C89.2068 84.7687 89.2004 84.528 89.1878 84.338C89.1498 83.3753 88.8964 82.647 88.4278 82.153C87.9591 81.6463 87.3321 81.393 86.5468 81.393C85.7614 81.393 85.1281 81.6463 84.6468 82.153C84.1781 82.647 83.9311 83.3753 83.9058 84.338C83.8931 84.528 83.8867 84.7687 83.8867 85.06C83.8867 85.3513 83.8931 85.592 83.9058 85.782C83.9311 86.7447 84.1781 87.4793 84.6468 87.986C85.1281 88.48 85.7614 88.727 86.5468 88.727ZM93.8469 90C93.7202 90 93.6126 89.962 93.5239 89.886C93.4479 89.7973 93.4099 89.6897 93.4099 89.563V80.576C93.4099 80.4493 93.4479 80.3417 93.5239 80.253C93.6126 80.1643 93.7202 80.12 93.8469 80.12H94.7209C94.8476 80.12 94.9552 80.1643 95.0439 80.253C95.1326 80.3417 95.1769 80.4493 95.1769 80.576V81.412C95.4302 80.9813 95.7786 80.6583 96.2219 80.443C96.6652 80.2277 97.1972 80.12 97.8179 80.12H98.5779C98.7046 80.12 98.8059 80.1643 98.8819 80.253C98.9579 80.329 98.9959 80.4303 98.9959 80.557V81.336C98.9959 81.4627 98.9579 81.564 98.8819 81.64C98.8059 81.716 98.7046 81.754 98.5779 81.754H97.4379C96.7539 81.754 96.2156 81.9567 95.8229 82.362C95.4302 82.7547 95.2339 83.293 95.2339 83.977V89.563C95.2339 89.6897 95.1896 89.7973 95.1009 89.886C95.0122 89.962 94.9046 90 94.7779 90H93.8469ZM105.22 82.666C105.093 82.666 104.992 82.628 104.916 82.552C104.84 82.476 104.802 82.3747 104.802 82.248V81.602C104.802 81.4753 104.84 81.374 104.916 81.298C104.992 81.222 105.093 81.184 105.22 81.184H112.459C112.585 81.184 112.687 81.222 112.763 81.298C112.851 81.374 112.896 81.4753 112.896 81.602V82.248C112.896 82.3747 112.851 82.476 112.763 82.552C112.687 82.628 112.585 82.666 112.459 82.666H105.22ZM105.22 87.416C105.093 87.416 104.992 87.378 104.916 87.302C104.84 87.226 104.802 87.1247 104.802 86.998V86.352C104.802 86.2253 104.84 86.124 104.916 86.048C104.992 85.972 105.093 85.934 105.22 85.934H112.459C112.585 85.934 112.687 85.972 112.763 86.048C112.851 86.124 112.896 86.2253 112.896 86.352V86.998C112.896 87.1247 112.851 87.226 112.763 87.302C112.687 87.378 112.585 87.416 112.459 87.416H105.22ZM123.24 80.177C123.151 80.177 123.075 80.1453 123.012 80.082C122.961 80.0187 122.936 79.9427 122.936 79.854C122.936 79.7527 122.955 79.6513 122.993 79.55L124 76.947C124.063 76.8203 124.126 76.719 124.19 76.643C124.266 76.5543 124.386 76.51 124.551 76.51H125.178C125.279 76.51 125.355 76.548 125.406 76.624C125.469 76.7 125.488 76.8013 125.463 76.928L125.045 79.626C125.032 79.778 124.981 79.911 124.893 80.025C124.804 80.1263 124.671 80.177 124.494 80.177H123.24ZM120.2 80.177C120.111 80.177 120.035 80.1453 119.972 80.082C119.921 80.0187 119.896 79.9427 119.896 79.854C119.896 79.7527 119.915 79.6513 119.953 79.55L120.96 76.947C121.023 76.8203 121.093 76.719 121.169 76.643C121.245 76.5543 121.359 76.51 121.511 76.51H122.138C122.239 76.51 122.315 76.548 122.366 76.624C122.429 76.7 122.448 76.8013 122.423 76.928L122.005 79.626C121.992 79.778 121.941 79.911 121.853 80.025C121.764 80.1263 121.637 80.177 121.473 80.177H120.2ZM214.513 80.177C214.399 80.177 214.317 80.139 214.266 80.063C214.215 79.987 214.196 79.892 214.209 79.778L214.627 77.061C214.652 76.909 214.703 76.7823 214.779 76.681C214.868 76.567 215.001 76.51 215.178 76.51H216.432C216.533 76.51 216.609 76.548 216.66 76.624C216.723 76.6873 216.755 76.757 216.755 76.833C216.755 76.9343 216.73 77.0357 216.679 77.137L215.691 79.74C215.64 79.8667 215.571 79.9743 215.482 80.063C215.406 80.139 215.286 80.177 215.121 80.177H214.513ZM211.473 80.177C211.372 80.177 211.289 80.139 211.226 80.063C211.175 79.987 211.156 79.892 211.169 79.778L211.606 77.061C211.631 76.909 211.682 76.7823 211.758 76.681C211.847 76.567 211.973 76.51 212.138 76.51H213.411C213.5 76.51 213.569 76.548 213.62 76.624C213.683 76.6873 213.715 76.757 213.715 76.833C213.715 76.9343 213.69 77.0357 213.639 77.137L212.651 79.74C212.6 79.8667 212.531 79.9743 212.442 80.063C212.366 80.139 212.246 80.177 212.081 80.177H211.473ZM349.749 91.596C349.648 91.596 349.559 91.558 349.483 91.482C349.407 91.406 349.369 91.3173 349.369 91.216C349.369 91.1527 349.388 91.0767 349.426 90.988L355.924 75.408C355.962 75.332 356.013 75.256 356.076 75.18C356.152 75.104 356.266 75.066 356.418 75.066H357.159C357.26 75.066 357.349 75.104 357.425 75.18C357.501 75.256 357.539 75.3447 357.539 75.446C357.539 75.4967 357.526 75.5727 357.501 75.674L350.984 91.254C350.959 91.3173 350.902 91.387 350.813 91.463C350.737 91.5517 350.629 91.596 350.49 91.596H349.749ZM364.542 90C364.415 90 364.307 89.962 364.219 89.886C364.143 89.7973 364.105 89.6897 364.105 89.563V76.947C364.105 76.8203 364.143 76.719 364.219 76.643C364.307 76.5543 364.415 76.51 364.542 76.51H365.435C365.574 76.51 365.682 76.5543 365.758 76.643C365.834 76.719 365.872 76.8203 365.872 76.947V89.563C365.872 89.6897 365.834 89.7973 365.758 89.886C365.682 89.962 365.574 90 365.435 90H364.542ZM371.461 90.19C370.827 90.19 370.251 90.0633 369.732 89.81C369.212 89.5567 368.794 89.2147 368.478 88.784C368.161 88.3533 368.003 87.8657 368.003 87.321C368.003 86.447 368.357 85.7503 369.067 85.231C369.776 84.7117 370.701 84.3697 371.841 84.205L374.672 83.806V83.255C374.672 82.647 374.494 82.172 374.14 81.83C373.798 81.488 373.234 81.317 372.449 81.317C371.879 81.317 371.416 81.431 371.062 81.659C370.72 81.887 370.479 82.1783 370.34 82.533C370.264 82.723 370.131 82.818 369.941 82.818H369.086C368.946 82.818 368.839 82.78 368.763 82.704C368.699 82.6153 368.668 82.514 368.668 82.4C368.668 82.21 368.737 81.9757 368.877 81.697C369.029 81.4183 369.257 81.146 369.561 80.88C369.865 80.614 370.251 80.3923 370.72 80.215C371.201 80.025 371.784 79.93 372.468 79.93C373.228 79.93 373.867 80.0313 374.387 80.234C374.906 80.424 375.311 80.6837 375.603 81.013C375.907 81.3423 376.122 81.716 376.249 82.134C376.388 82.552 376.458 82.9763 376.458 83.407V89.563C376.458 89.6897 376.413 89.7973 376.325 89.886C376.249 89.962 376.147 90 376.021 90H375.147C375.007 90 374.9 89.962 374.824 89.886C374.748 89.7973 374.71 89.6897 374.71 89.563V88.746C374.545 88.974 374.323 89.202 374.045 89.43C373.766 89.6453 373.418 89.829 373 89.981C372.582 90.1203 372.069 90.19 371.461 90.19ZM371.86 88.765C372.379 88.765 372.854 88.6573 373.285 88.442C373.715 88.214 374.051 87.8657 374.292 87.397C374.545 86.9283 374.672 86.3393 374.672 85.63V85.098L372.468 85.421C371.568 85.5477 370.891 85.763 370.435 86.067C369.979 86.3583 369.751 86.732 369.751 87.188C369.751 87.5427 369.852 87.8403 370.055 88.081C370.27 88.309 370.536 88.48 370.853 88.594C371.182 88.708 371.518 88.765 371.86 88.765ZM384.072 90.19C383.312 90.19 382.679 90.057 382.172 89.791C381.666 89.5123 381.26 89.1703 380.956 88.765V89.563C380.956 89.6897 380.912 89.7973 380.823 89.886C380.747 89.962 380.646 90 380.519 90H379.645C379.519 90 379.411 89.962 379.322 89.886C379.246 89.7973 379.208 89.6897 379.208 89.563V76.947C379.208 76.8203 379.246 76.719 379.322 76.643C379.411 76.5543 379.519 76.51 379.645 76.51H380.557C380.697 76.51 380.804 76.5543 380.88 76.643C380.956 76.719 380.994 76.8203 380.994 76.947V81.317C381.311 80.9243 381.716 80.595 382.21 80.329C382.717 80.063 383.338 79.93 384.072 79.93C384.782 79.93 385.383 80.0567 385.877 80.31C386.384 80.5507 386.796 80.8863 387.112 81.317C387.442 81.7477 387.689 82.2353 387.853 82.78C388.018 83.3247 388.107 83.8947 388.119 84.49C388.132 84.6927 388.138 84.8827 388.138 85.06C388.138 85.2373 388.132 85.4273 388.119 85.63C388.107 86.238 388.018 86.8143 387.853 87.359C387.689 87.9037 387.442 88.3913 387.112 88.822C386.796 89.24 386.384 89.5757 385.877 89.829C385.383 90.0697 384.782 90.19 384.072 90.19ZM383.673 88.651C384.332 88.651 384.845 88.5117 385.212 88.233C385.592 87.9417 385.865 87.568 386.029 87.112C386.194 86.6433 386.289 86.143 386.314 85.611C386.327 85.2437 386.327 84.8763 386.314 84.509C386.289 83.977 386.194 83.483 386.029 83.027C385.865 82.5583 385.592 82.1847 385.212 81.906C384.845 81.6147 384.332 81.469 383.673 81.469C383.078 81.469 382.584 81.6083 382.191 81.887C381.799 82.1657 381.501 82.5203 381.298 82.951C381.108 83.3817 381.007 83.8187 380.994 84.262C380.982 84.4647 380.975 84.7117 380.975 85.003C380.975 85.2817 380.982 85.5223 380.994 85.725C381.02 86.1937 381.121 86.656 381.298 87.112C381.488 87.5553 381.773 87.9227 382.153 88.214C382.546 88.5053 383.053 88.651 383.673 88.651ZM394.422 90.19C393.117 90.19 392.079 89.791 391.306 88.993C390.533 88.1823 390.109 87.0803 390.033 85.687C390.02 85.5223 390.014 85.3133 390.014 85.06C390.014 84.794 390.02 84.5787 390.033 84.414C390.084 83.5147 390.293 82.7293 390.66 82.058C391.027 81.374 391.528 80.8483 392.161 80.481C392.807 80.1137 393.561 79.93 394.422 79.93C395.385 79.93 396.189 80.1327 396.835 80.538C397.494 80.9433 397.994 81.5197 398.336 82.267C398.678 83.0143 398.849 83.8883 398.849 84.889V85.212C398.849 85.3513 398.805 85.459 398.716 85.535C398.64 85.611 398.539 85.649 398.412 85.649H391.838C391.838 85.6617 391.838 85.687 391.838 85.725C391.838 85.763 391.838 85.7947 391.838 85.82C391.863 86.3393 391.977 86.827 392.18 87.283C392.383 87.7263 392.674 88.0873 393.054 88.366C393.434 88.6447 393.89 88.784 394.422 88.784C394.878 88.784 395.258 88.7143 395.562 88.575C395.866 88.4357 396.113 88.2837 396.303 88.119C396.493 87.9417 396.62 87.8087 396.683 87.72C396.797 87.5553 396.886 87.4603 396.949 87.435C397.012 87.397 397.114 87.378 397.253 87.378H398.165C398.292 87.378 398.393 87.416 398.469 87.492C398.558 87.5553 398.596 87.6503 398.583 87.777C398.57 87.967 398.469 88.2013 398.279 88.48C398.089 88.746 397.817 89.012 397.462 89.278C397.107 89.544 396.677 89.7657 396.17 89.943C395.663 90.1077 395.081 90.19 394.422 90.19ZM391.838 84.338H397.044V84.281C397.044 83.711 396.936 83.2043 396.721 82.761C396.518 82.3177 396.221 81.9693 395.828 81.716C395.435 81.45 394.967 81.317 394.422 81.317C393.877 81.317 393.409 81.45 393.016 81.716C392.636 81.9693 392.345 82.3177 392.142 82.761C391.939 83.2043 391.838 83.711 391.838 84.281V84.338ZM401.577 90C401.45 90 401.343 89.962 401.254 89.886C401.178 89.7973 401.14 89.6897 401.14 89.563V76.947C401.14 76.8203 401.178 76.719 401.254 76.643C401.343 76.5543 401.45 76.51 401.577 76.51H402.47C402.609 76.51 402.717 76.5543 402.793 76.643C402.869 76.719 402.907 76.8203 402.907 76.947V89.563C402.907 89.6897 402.869 89.7973 402.793 89.886C402.717 89.962 402.609 90 402.47 90H401.577ZM29.8518 121C29.7251 121 29.6175 120.962 29.5288 120.886C29.4528 120.797 29.4148 120.69 29.4148 120.563V111.557C29.4148 111.43 29.4528 111.329 29.5288 111.253C29.6175 111.164 29.7251 111.12 29.8518 111.12H30.7638C30.8905 111.12 30.9918 111.164 31.0678 111.253C31.1438 111.329 31.1818 111.43 31.1818 111.557V120.563C31.1818 120.69 31.1438 120.797 31.0678 120.886C30.9918 120.962 30.8905 121 30.7638 121H29.8518ZM29.6998 109.277C29.5731 109.277 29.4655 109.239 29.3768 109.163C29.3008 109.074 29.2628 108.967 29.2628 108.84V107.814C29.2628 107.687 29.3008 107.586 29.3768 107.51C29.4655 107.421 29.5731 107.377 29.6998 107.377H30.8968C31.0235 107.377 31.1248 107.421 31.2008 107.51C31.2895 107.586 31.3338 107.687 31.3338 107.814V108.84C31.3338 108.967 31.2895 109.074 31.2008 109.163C31.1248 109.239 31.0235 109.277 30.8968 109.277H29.6998ZM34.6389 121C34.5122 121 34.4046 120.962 34.3159 120.886C34.2399 120.797 34.2019 120.69 34.2019 120.563V111.557C34.2019 111.43 34.2399 111.329 34.3159 111.253C34.4046 111.164 34.5122 111.12 34.6389 111.12H35.5319C35.6586 111.12 35.7599 111.164 35.8359 111.253C35.9246 111.329 35.9689 111.43 35.9689 111.557V112.393C36.2982 111.962 36.7099 111.614 37.2039 111.348C37.7106 111.069 38.3566 110.93 39.1419 110.93C39.9652 110.93 40.6619 111.114 41.2319 111.481C41.8146 111.836 42.2516 112.336 42.5429 112.982C42.8342 113.615 42.9799 114.356 42.9799 115.205V120.563C42.9799 120.69 42.9419 120.797 42.8659 120.886C42.7899 120.962 42.6886 121 42.5619 121H41.6119C41.4852 121 41.3776 120.962 41.2889 120.886C41.2129 120.797 41.1749 120.69 41.1749 120.563V115.3C41.1749 114.413 40.9596 113.723 40.5289 113.229C40.0982 112.722 39.4649 112.469 38.6289 112.469C37.8436 112.469 37.2102 112.722 36.7289 113.229C36.2602 113.723 36.0259 114.413 36.0259 115.3V120.563C36.0259 120.69 35.9816 120.797 35.8929 120.886C35.8169 120.962 35.7156 121 35.5889 121H34.6389ZM46.1804 124.61C46.0537 124.61 45.946 124.566 45.8574 124.477C45.7814 124.401 45.7434 124.3 45.7434 124.173V111.557C45.7434 111.43 45.7814 111.329 45.8574 111.253C45.946 111.164 46.0537 111.12 46.1804 111.12H47.0544C47.181 111.12 47.2824 111.164 47.3584 111.253C47.447 111.329 47.4914 111.43 47.4914 111.557V112.393C47.7954 111.975 48.2007 111.627 48.7074 111.348C49.214 111.069 49.8474 110.93 50.6074 110.93C51.3167 110.93 51.9184 111.05 52.4124 111.291C52.919 111.532 53.3307 111.861 53.6474 112.279C53.9767 112.697 54.2237 113.172 54.3884 113.704C54.553 114.236 54.6417 114.806 54.6544 115.414C54.667 115.617 54.6734 115.832 54.6734 116.06C54.6734 116.288 54.667 116.503 54.6544 116.706C54.6417 117.301 54.553 117.871 54.3884 118.416C54.2237 118.948 53.9767 119.423 53.6474 119.841C53.3307 120.246 52.919 120.576 52.4124 120.829C51.9184 121.07 51.3167 121.19 50.6074 121.19C49.8727 121.19 49.252 121.057 48.7454 120.791C48.2514 120.512 47.846 120.17 47.5294 119.765V124.173C47.5294 124.3 47.4914 124.401 47.4154 124.477C47.3394 124.566 47.2317 124.61 47.0924 124.61H46.1804ZM50.2084 119.651C50.867 119.651 51.38 119.512 51.7474 119.233C52.1274 118.942 52.3997 118.568 52.5644 118.112C52.729 117.643 52.824 117.143 52.8494 116.611C52.862 116.244 52.862 115.876 52.8494 115.509C52.824 114.977 52.729 114.483 52.5644 114.027C52.3997 113.558 52.1274 113.185 51.7474 112.906C51.38 112.615 50.867 112.469 50.2084 112.469C49.5877 112.469 49.081 112.615 48.6884 112.906C48.3084 113.197 48.0234 113.571 47.8334 114.027C47.656 114.47 47.5547 114.926 47.5294 115.395C47.5167 115.598 47.5104 115.838 47.5104 116.117C47.5104 116.396 47.5167 116.643 47.5294 116.858C47.542 117.301 47.6434 117.738 47.8334 118.169C48.036 118.6 48.3337 118.954 48.7264 119.233C49.119 119.512 49.613 119.651 50.2084 119.651ZM60.7287 121.19C59.9181 121.19 59.2277 121.013 58.6577 120.658C58.1004 120.291 57.6761 119.784 57.3847 119.138C57.0934 118.492 56.9477 117.751 56.9477 116.915V111.557C56.9477 111.43 56.9857 111.329 57.0617 111.253C57.1504 111.164 57.2581 111.12 57.3847 111.12H58.3347C58.4614 111.12 58.5627 111.164 58.6387 111.253C58.7274 111.329 58.7717 111.43 58.7717 111.557V116.82C58.7717 118.707 59.5951 119.651 61.2417 119.651C62.0271 119.651 62.6541 119.404 63.1227 118.91C63.6041 118.403 63.8447 117.707 63.8447 116.82V111.557C63.8447 111.43 63.8827 111.329 63.9587 111.253C64.0474 111.164 64.1551 111.12 64.2817 111.12H65.2127C65.3521 111.12 65.4597 111.164 65.5357 111.253C65.6117 111.329 65.6497 111.43 65.6497 111.557V120.563C65.6497 120.69 65.6117 120.797 65.5357 120.886C65.4597 120.962 65.3521 121 65.2127 121H64.3387C64.2121 121 64.1044 120.962 64.0157 120.886C63.9397 120.797 63.9017 120.69 63.9017 120.563V119.727C63.5597 120.17 63.1417 120.525 62.6477 120.791C62.1664 121.057 61.5267 121.19 60.7287 121.19ZM72.3294 121C71.6201 121 71.0437 120.867 70.6004 120.601C70.1571 120.322 69.8341 119.936 69.6314 119.442C69.4287 118.935 69.3274 118.34 69.3274 117.656V112.64H67.8454C67.7187 112.64 67.6111 112.602 67.5224 112.526C67.4464 112.437 67.4084 112.33 67.4084 112.203V111.557C67.4084 111.43 67.4464 111.329 67.5224 111.253C67.6111 111.164 67.7187 111.12 67.8454 111.12H69.3274V107.947C69.3274 107.82 69.3654 107.719 69.4414 107.643C69.5301 107.554 69.6377 107.51 69.7644 107.51H70.6574C70.7841 107.51 70.8854 107.554 70.9614 107.643C71.0501 107.719 71.0944 107.82 71.0944 107.947V111.12H73.4504C73.5771 111.12 73.6784 111.164 73.7544 111.253C73.8431 111.329 73.8874 111.43 73.8874 111.557V112.203C73.8874 112.33 73.8431 112.437 73.7544 112.526C73.6784 112.602 73.5771 112.64 73.4504 112.64H71.0944V117.523C71.0944 118.118 71.1957 118.587 71.3984 118.929C71.6011 119.271 71.9621 119.442 72.4814 119.442H73.6404C73.7671 119.442 73.8684 119.486 73.9444 119.575C74.0331 119.651 74.0774 119.752 74.0774 119.879V120.563C74.0774 120.69 74.0331 120.797 73.9444 120.886C73.8684 120.962 73.7671 121 73.6404 121H72.3294ZM84.0003 121C83.291 121 82.7146 120.867 82.2713 120.601C81.828 120.322 81.505 119.936 81.3023 119.442C81.0996 118.935 80.9983 118.34 80.9983 117.656V112.64H79.5163C79.3896 112.64 79.282 112.602 79.1933 112.526C79.1173 112.437 79.0793 112.33 79.0793 112.203V111.557C79.0793 111.43 79.1173 111.329 79.1933 111.253C79.282 111.164 79.3896 111.12 79.5163 111.12H80.9983V107.947C80.9983 107.82 81.0363 107.719 81.1123 107.643C81.201 107.554 81.3086 107.51 81.4353 107.51H82.3283C82.455 107.51 82.5563 107.554 82.6323 107.643C82.721 107.719 82.7653 107.82 82.7653 107.947V111.12H85.1213C85.248 111.12 85.3493 111.164 85.4253 111.253C85.514 111.329 85.5583 111.43 85.5583 111.557V112.203C85.5583 112.33 85.514 112.437 85.4253 112.526C85.3493 112.602 85.248 112.64 85.1213 112.64H82.7653V117.523C82.7653 118.118 82.8666 118.587 83.0693 118.929C83.272 119.271 83.633 119.442 84.1523 119.442H85.3113C85.438 119.442 85.5393 119.486 85.6153 119.575C85.704 119.651 85.7483 119.752 85.7483 119.879V120.563C85.7483 120.69 85.704 120.797 85.6153 120.886C85.5393 120.962 85.438 121 85.3113 121H84.0003ZM89.2942 124.61C89.1928 124.61 89.1042 124.572 89.0282 124.496C88.9522 124.42 88.9142 124.331 88.9142 124.23C88.9142 124.179 88.9205 124.129 88.9332 124.078C88.9458 124.027 88.9712 123.964 89.0092 123.888L90.4722 120.411L86.8432 111.842C86.7798 111.69 86.7482 111.582 86.7482 111.519C86.7482 111.405 86.7862 111.31 86.8622 111.234C86.9382 111.158 87.0332 111.12 87.1472 111.12H88.0782C88.2048 111.12 88.3062 111.152 88.3822 111.215C88.4582 111.278 88.5088 111.354 88.5342 111.443L91.4222 118.359L94.3862 111.443C94.4242 111.354 94.4748 111.278 94.5382 111.215C94.6142 111.152 94.7218 111.12 94.8612 111.12H95.7542C95.8682 111.12 95.9632 111.158 96.0392 111.234C96.1152 111.31 96.1532 111.399 96.1532 111.5C96.1532 111.563 96.1215 111.677 96.0582 111.842L90.6622 124.287C90.6242 124.376 90.5672 124.452 90.4912 124.515C90.4278 124.578 90.3265 124.61 90.1872 124.61H89.2942ZM98.486 124.61C98.3594 124.61 98.2517 124.566 98.163 124.477C98.087 124.401 98.049 124.3 98.049 124.173V111.557C98.049 111.43 98.087 111.329 98.163 111.253C98.2517 111.164 98.3594 111.12 98.486 111.12H99.36C99.4867 111.12 99.588 111.164 99.664 111.253C99.7527 111.329 99.797 111.43 99.797 111.557V112.393C100.101 111.975 100.506 111.627 101.013 111.348C101.52 111.069 102.153 110.93 102.913 110.93C103.622 110.93 104.224 111.05 104.718 111.291C105.225 111.532 105.636 111.861 105.953 112.279C106.282 112.697 106.529 113.172 106.694 113.704C106.859 114.236 106.947 114.806 106.96 115.414C106.973 115.617 106.979 115.832 106.979 116.06C106.979 116.288 106.973 116.503 106.96 116.706C106.947 117.301 106.859 117.871 106.694 118.416C106.529 118.948 106.282 119.423 105.953 119.841C105.636 120.246 105.225 120.576 104.718 120.829C104.224 121.07 103.622 121.19 102.913 121.19C102.178 121.19 101.558 121.057 101.051 120.791C100.557 120.512 100.152 120.17 99.835 119.765V124.173C99.835 124.3 99.797 124.401 99.721 124.477C99.645 124.566 99.5374 124.61 99.398 124.61H98.486ZM102.514 119.651C103.173 119.651 103.686 119.512 104.053 119.233C104.433 118.942 104.705 118.568 104.87 118.112C105.035 117.643 105.13 117.143 105.155 116.611C105.168 116.244 105.168 115.876 105.155 115.509C105.13 114.977 105.035 114.483 104.87 114.027C104.705 113.558 104.433 113.185 104.053 112.906C103.686 112.615 103.173 112.469 102.514 112.469C101.893 112.469 101.387 112.615 100.994 112.906C100.614 113.197 100.329 113.571 100.139 114.027C99.9617 114.47 99.8604 114.926 99.835 115.395C99.8224 115.598 99.816 115.838 99.816 116.117C99.816 116.396 99.8224 116.643 99.835 116.858C99.8477 117.301 99.949 117.738 100.139 118.169C100.342 118.6 100.639 118.954 101.032 119.233C101.425 119.512 101.919 119.651 102.514 119.651ZM113.281 121.19C111.977 121.19 110.938 120.791 110.165 119.993C109.393 119.182 108.968 118.08 108.892 116.687C108.88 116.522 108.873 116.313 108.873 116.06C108.873 115.794 108.88 115.579 108.892 115.414C108.943 114.515 109.152 113.729 109.519 113.058C109.887 112.374 110.387 111.848 111.02 111.481C111.666 111.114 112.42 110.93 113.281 110.93C114.244 110.93 115.048 111.133 115.694 111.538C116.353 111.943 116.853 112.52 117.195 113.267C117.537 114.014 117.708 114.888 117.708 115.889V116.212C117.708 116.351 117.664 116.459 117.575 116.535C117.499 116.611 117.398 116.649 117.271 116.649H110.697C110.697 116.662 110.697 116.687 110.697 116.725C110.697 116.763 110.697 116.795 110.697 116.82C110.723 117.339 110.837 117.827 111.039 118.283C111.242 118.726 111.533 119.087 111.913 119.366C112.293 119.645 112.749 119.784 113.281 119.784C113.737 119.784 114.117 119.714 114.421 119.575C114.725 119.436 114.972 119.284 115.162 119.119C115.352 118.942 115.479 118.809 115.542 118.72C115.656 118.555 115.745 118.46 115.808 118.435C115.872 118.397 115.973 118.378 116.112 118.378H117.024C117.151 118.378 117.252 118.416 117.328 118.492C117.417 118.555 117.455 118.65 117.442 118.777C117.43 118.967 117.328 119.201 117.138 119.48C116.948 119.746 116.676 120.012 116.321 120.278C115.967 120.544 115.536 120.766 115.029 120.943C114.523 121.108 113.94 121.19 113.281 121.19ZM110.697 115.338H115.903V115.281C115.903 114.711 115.796 114.204 115.58 113.761C115.378 113.318 115.08 112.969 114.687 112.716C114.295 112.45 113.826 112.317 113.281 112.317C112.737 112.317 112.268 112.45 111.875 112.716C111.495 112.969 111.204 113.318 111.001 113.761C110.799 114.204 110.697 114.711 110.697 115.281V115.338ZM125.017 113.666C124.891 113.666 124.789 113.628 124.713 113.552C124.637 113.476 124.599 113.375 124.599 113.248V112.602C124.599 112.475 124.637 112.374 124.713 112.298C124.789 112.222 124.891 112.184 125.017 112.184H132.256C132.383 112.184 132.484 112.222 132.56 112.298C132.649 112.374 132.693 112.475 132.693 112.602V113.248C132.693 113.375 132.649 113.476 132.56 113.552C132.484 113.628 132.383 113.666 132.256 113.666H125.017ZM125.017 118.416C124.891 118.416 124.789 118.378 124.713 118.302C124.637 118.226 124.599 118.125 124.599 117.998V117.352C124.599 117.225 124.637 117.124 124.713 117.048C124.789 116.972 124.891 116.934 125.017 116.934H132.256C132.383 116.934 132.484 116.972 132.56 117.048C132.649 117.124 132.693 117.225 132.693 117.352V117.998C132.693 118.125 132.649 118.226 132.56 118.302C132.484 118.378 132.383 118.416 132.256 118.416H125.017ZM143.038 111.177C142.949 111.177 142.873 111.145 142.81 111.082C142.759 111.019 142.734 110.943 142.734 110.854C142.734 110.753 142.753 110.651 142.791 110.55L143.798 107.947C143.861 107.82 143.924 107.719 143.988 107.643C144.064 107.554 144.184 107.51 144.349 107.51H144.976C145.077 107.51 145.153 107.548 145.204 107.624C145.267 107.7 145.286 107.801 145.261 107.928L144.843 110.626C144.83 110.778 144.779 110.911 144.691 111.025C144.602 111.126 144.469 111.177 144.292 111.177H143.038ZM139.998 111.177C139.909 111.177 139.833 111.145 139.77 111.082C139.719 111.019 139.694 110.943 139.694 110.854C139.694 110.753 139.713 110.651 139.751 110.55L140.758 107.947C140.821 107.82 140.891 107.719 140.967 107.643C141.043 107.554 141.157 107.51 141.309 107.51H141.936C142.037 107.51 142.113 107.548 142.164 107.624C142.227 107.7 142.246 107.801 142.221 107.928L141.803 110.626C141.79 110.778 141.739 110.911 141.651 111.025C141.562 111.126 141.435 111.177 141.271 111.177H139.998ZM199.706 111.177C199.592 111.177 199.51 111.139 199.459 111.063C199.409 110.987 199.39 110.892 199.402 110.778L199.82 108.061C199.846 107.909 199.896 107.782 199.972 107.681C200.061 107.567 200.194 107.51 200.371 107.51H201.625C201.727 107.51 201.803 107.548 201.853 107.624C201.917 107.687 201.948 107.757 201.948 107.833C201.948 107.934 201.923 108.036 201.872 108.137L200.884 110.74C200.834 110.867 200.764 110.974 200.675 111.063C200.599 111.139 200.479 111.177 200.314 111.177H199.706ZM196.666 111.177C196.565 111.177 196.483 111.139 196.419 111.063C196.369 110.987 196.35 110.892 196.362 110.778L196.799 108.061C196.825 107.909 196.875 107.782 196.951 107.681C197.04 107.567 197.167 107.51 197.331 107.51H198.604C198.693 107.51 198.763 107.548 198.813 107.624C198.877 107.687 198.908 107.757 198.908 107.833C198.908 107.934 198.883 108.036 198.832 108.137L197.844 110.74C197.794 110.867 197.724 110.974 197.635 111.063C197.559 111.139 197.439 111.177 197.274 111.177H196.666ZM209.146 121C209.019 121 208.911 120.962 208.823 120.886C208.747 120.797 208.709 120.69 208.709 120.563V111.557C208.709 111.43 208.747 111.329 208.823 111.253C208.911 111.164 209.019 111.12 209.146 111.12H210.058C210.184 111.12 210.286 111.164 210.362 111.253C210.438 111.329 210.476 111.43 210.476 111.557V120.563C210.476 120.69 210.438 120.797 210.362 120.886C210.286 120.962 210.184 121 210.058 121H209.146ZM208.994 109.277C208.867 109.277 208.759 109.239 208.671 109.163C208.595 109.074 208.557 108.967 208.557 108.84V107.814C208.557 107.687 208.595 107.586 208.671 107.51C208.759 107.421 208.867 107.377 208.994 107.377H210.191C210.317 107.377 210.419 107.421 210.495 107.51C210.583 107.586 210.628 107.687 210.628 107.814V108.84C210.628 108.967 210.583 109.074 210.495 109.163C210.419 109.239 210.317 109.277 210.191 109.277H208.994ZM216.92 121.19C216.224 121.19 215.622 121.07 215.115 120.829C214.609 120.576 214.191 120.24 213.861 119.822C213.545 119.391 213.304 118.904 213.139 118.359C212.987 117.814 212.899 117.238 212.873 116.63C212.861 116.427 212.854 116.237 212.854 116.06C212.854 115.883 212.861 115.693 212.873 115.49C212.899 114.895 212.987 114.325 213.139 113.78C213.304 113.235 213.545 112.748 213.861 112.317C214.191 111.886 214.609 111.551 215.115 111.31C215.622 111.057 216.224 110.93 216.92 110.93C217.668 110.93 218.288 111.063 218.782 111.329C219.276 111.595 219.682 111.924 219.998 112.317V107.947C219.998 107.82 220.036 107.719 220.112 107.643C220.201 107.554 220.309 107.51 220.435 107.51H221.347C221.474 107.51 221.575 107.554 221.651 107.643C221.74 107.719 221.784 107.82 221.784 107.947V120.563C221.784 120.69 221.74 120.797 221.651 120.886C221.575 120.962 221.474 121 221.347 121H220.492C220.353 121 220.245 120.962 220.169 120.886C220.093 120.797 220.055 120.69 220.055 120.563V119.765C219.739 120.17 219.327 120.512 218.82 120.791C218.314 121.057 217.68 121.19 216.92 121.19ZM217.319 119.651C217.953 119.651 218.459 119.505 218.839 119.214C219.219 118.923 219.504 118.555 219.694 118.112C219.884 117.656 219.986 117.194 219.998 116.725C220.011 116.522 220.017 116.282 220.017 116.003C220.017 115.712 220.011 115.465 219.998 115.262C219.986 114.819 219.878 114.382 219.675 113.951C219.485 113.52 219.194 113.166 218.801 112.887C218.421 112.608 217.927 112.469 217.319 112.469C216.673 112.469 216.16 112.615 215.78 112.906C215.4 113.185 215.128 113.558 214.963 114.027C214.799 114.483 214.704 114.977 214.678 115.509C214.666 115.876 214.666 116.244 214.678 116.611C214.704 117.143 214.799 117.643 214.963 118.112C215.128 118.568 215.4 118.942 215.78 119.233C216.16 119.512 216.673 119.651 217.319 119.651ZM229.647 113.666C229.521 113.666 229.419 113.628 229.343 113.552C229.267 113.476 229.229 113.375 229.229 113.248V112.602C229.229 112.475 229.267 112.374 229.343 112.298C229.419 112.222 229.521 112.184 229.647 112.184H236.886C237.013 112.184 237.114 112.222 237.19 112.298C237.279 112.374 237.323 112.475 237.323 112.602V113.248C237.323 113.375 237.279 113.476 237.19 113.552C237.114 113.628 237.013 113.666 236.886 113.666H229.647ZM229.647 118.416C229.521 118.416 229.419 118.378 229.343 118.302C229.267 118.226 229.229 118.125 229.229 117.998V117.352C229.229 117.225 229.267 117.124 229.343 117.048C229.419 116.972 229.521 116.934 229.647 116.934H236.886C237.013 116.934 237.114 116.972 237.19 117.048C237.279 117.124 237.323 117.225 237.323 117.352V117.998C237.323 118.125 237.279 118.226 237.19 118.302C237.114 118.378 237.013 118.416 236.886 118.416H229.647ZM247.667 111.177C247.579 111.177 247.503 111.145 247.439 111.082C247.389 111.019 247.363 110.943 247.363 110.854C247.363 110.753 247.382 110.651 247.42 110.55L248.427 107.947C248.491 107.82 248.554 107.719 248.617 107.643C248.693 107.554 248.814 107.51 248.978 107.51H249.605C249.707 107.51 249.783 107.548 249.833 107.624C249.897 107.7 249.916 107.801 249.89 107.928L249.472 110.626C249.46 110.778 249.409 110.911 249.32 111.025C249.232 111.126 249.099 111.177 248.921 111.177H247.667ZM244.627 111.177C244.539 111.177 244.463 111.145 244.399 111.082C244.349 111.019 244.323 110.943 244.323 110.854C244.323 110.753 244.342 110.651 244.38 110.55L245.387 107.947C245.451 107.82 245.52 107.719 245.596 107.643C245.672 107.554 245.786 107.51 245.938 107.51H246.565C246.667 107.51 246.743 107.548 246.793 107.624C246.857 107.7 246.876 107.801 246.85 107.928L246.432 110.626C246.42 110.778 246.369 110.911 246.28 111.025C246.192 111.126 246.065 111.177 245.9 111.177H244.627ZM338.827 111.177C338.738 111.177 338.662 111.145 338.599 111.082C338.548 111.019 338.523 110.943 338.523 110.854C338.523 110.753 338.542 110.651 338.58 110.55L339.587 107.947C339.65 107.82 339.713 107.719 339.777 107.643C339.853 107.554 339.973 107.51 340.138 107.51H340.765C340.866 107.51 340.942 107.548 340.993 107.624C341.056 107.7 341.075 107.801 341.05 107.928L340.632 110.626C340.619 110.778 340.568 110.911 340.48 111.025C340.391 111.126 340.258 111.177 340.081 111.177H338.827ZM335.787 111.177C335.698 111.177 335.622 111.145 335.559 111.082C335.508 111.019 335.483 110.943 335.483 110.854C335.483 110.753 335.502 110.651 335.54 110.55L336.547 107.947C336.61 107.82 336.68 107.719 336.756 107.643C336.832 107.554 336.946 107.51 337.098 107.51H337.725C337.826 107.51 337.902 107.548 337.953 107.624C338.016 107.7 338.035 107.801 338.01 107.928L337.592 110.626C337.579 110.778 337.528 110.911 337.44 111.025C337.351 111.126 337.224 111.177 337.06 111.177H335.787ZM348.51 121C348.383 121 348.276 120.962 348.187 120.886C348.111 120.797 348.073 120.69 348.073 120.563V111.557C348.073 111.43 348.111 111.329 348.187 111.253C348.276 111.164 348.383 111.12 348.51 111.12H349.403C349.53 111.12 349.631 111.164 349.707 111.253C349.796 111.329 349.84 111.43 349.84 111.557V112.393C350.169 111.962 350.581 111.614 351.075 111.348C351.582 111.069 352.228 110.93 353.013 110.93C353.836 110.93 354.533 111.114 355.103 111.481C355.686 111.836 356.123 112.336 356.414 112.982C356.705 113.615 356.851 114.356 356.851 115.205V120.563C356.851 120.69 356.813 120.797 356.737 120.886C356.661 120.962 356.56 121 356.433 121H355.483C355.356 121 355.249 120.962 355.16 120.886C355.084 120.797 355.046 120.69 355.046 120.563V115.3C355.046 114.413 354.831 113.723 354.4 113.229C353.969 112.722 353.336 112.469 352.5 112.469C351.715 112.469 351.081 112.722 350.6 113.229C350.131 113.723 349.897 114.413 349.897 115.3V120.563C349.897 120.69 349.853 120.797 349.764 120.886C349.688 120.962 349.587 121 349.46 121H348.51ZM362.35 121.19C361.717 121.19 361.141 121.063 360.621 120.81C360.102 120.557 359.684 120.215 359.367 119.784C359.051 119.353 358.892 118.866 358.892 118.321C358.892 117.447 359.247 116.75 359.956 116.231C360.666 115.712 361.59 115.37 362.73 115.205L365.561 114.806V114.255C365.561 113.647 365.384 113.172 365.029 112.83C364.687 112.488 364.124 112.317 363.338 112.317C362.768 112.317 362.306 112.431 361.951 112.659C361.609 112.887 361.369 113.178 361.229 113.533C361.153 113.723 361.02 113.818 360.83 113.818H359.975C359.836 113.818 359.728 113.78 359.652 113.704C359.589 113.615 359.557 113.514 359.557 113.4C359.557 113.21 359.627 112.976 359.766 112.697C359.918 112.418 360.146 112.146 360.45 111.88C360.754 111.614 361.141 111.392 361.609 111.215C362.091 111.025 362.673 110.93 363.357 110.93C364.117 110.93 364.757 111.031 365.276 111.234C365.796 111.424 366.201 111.684 366.492 112.013C366.796 112.342 367.012 112.716 367.138 113.134C367.278 113.552 367.347 113.976 367.347 114.407V120.563C367.347 120.69 367.303 120.797 367.214 120.886C367.138 120.962 367.037 121 366.91 121H366.036C365.897 121 365.789 120.962 365.713 120.886C365.637 120.797 365.599 120.69 365.599 120.563V119.746C365.435 119.974 365.213 120.202 364.934 120.43C364.656 120.645 364.307 120.829 363.889 120.981C363.471 121.12 362.958 121.19 362.35 121.19ZM362.749 119.765C363.269 119.765 363.744 119.657 364.174 119.442C364.605 119.214 364.941 118.866 365.181 118.397C365.435 117.928 365.561 117.339 365.561 116.63V116.098L363.357 116.421C362.458 116.548 361.78 116.763 361.324 117.067C360.868 117.358 360.64 117.732 360.64 118.188C360.64 118.543 360.742 118.84 360.944 119.081C361.16 119.309 361.426 119.48 361.742 119.594C362.072 119.708 362.407 119.765 362.749 119.765ZM370.516 121C370.389 121 370.282 120.962 370.193 120.886C370.117 120.797 370.079 120.69 370.079 120.563V111.557C370.079 111.43 370.117 111.329 370.193 111.253C370.282 111.164 370.389 111.12 370.516 111.12H371.371C371.498 111.12 371.599 111.164 371.675 111.253C371.764 111.329 371.808 111.43 371.808 111.557V112.222C372.099 111.829 372.467 111.519 372.91 111.291C373.353 111.05 373.885 110.93 374.506 110.93C375.937 110.917 376.951 111.5 377.546 112.678C377.837 112.146 378.262 111.722 378.819 111.405C379.376 111.088 380.01 110.93 380.719 110.93C381.378 110.93 381.973 111.082 382.505 111.386C383.05 111.69 383.474 112.152 383.778 112.773C384.095 113.381 384.253 114.147 384.253 115.072V120.563C384.253 120.69 384.209 120.797 384.12 120.886C384.044 120.962 383.943 121 383.816 121H382.923C382.796 121 382.689 120.962 382.6 120.886C382.524 120.797 382.486 120.69 382.486 120.563V115.243C382.486 114.534 382.385 113.976 382.182 113.571C381.979 113.166 381.707 112.881 381.365 112.716C381.023 112.551 380.649 112.469 380.244 112.469C379.915 112.469 379.579 112.551 379.237 112.716C378.895 112.881 378.61 113.166 378.382 113.571C378.167 113.976 378.059 114.534 378.059 115.243V120.563C378.059 120.69 378.015 120.797 377.926 120.886C377.85 120.962 377.749 121 377.622 121H376.729C376.602 121 376.495 120.962 376.406 120.886C376.33 120.797 376.292 120.69 376.292 120.563V115.243C376.292 114.534 376.184 113.976 375.969 113.571C375.754 113.166 375.475 112.881 375.133 112.716C374.791 112.551 374.43 112.469 374.05 112.469C373.721 112.469 373.385 112.551 373.043 112.716C372.701 112.881 372.416 113.166 372.188 113.571C371.973 113.976 371.865 114.527 371.865 115.224V120.563C371.865 120.69 371.821 120.797 371.732 120.886C371.656 120.962 371.555 121 371.428 121H370.516ZM390.897 121.19C389.592 121.19 388.553 120.791 387.781 119.993C387.008 119.182 386.584 118.08 386.508 116.687C386.495 116.522 386.489 116.313 386.489 116.06C386.489 115.794 386.495 115.579 386.508 115.414C386.558 114.515 386.767 113.729 387.135 113.058C387.502 112.374 388.002 111.848 388.636 111.481C389.282 111.114 390.035 110.93 390.897 110.93C391.859 110.93 392.664 111.133 393.31 111.538C393.968 111.943 394.469 112.52 394.811 113.267C395.153 114.014 395.324 114.888 395.324 115.889V116.212C395.324 116.351 395.279 116.459 395.191 116.535C395.115 116.611 395.013 116.649 394.887 116.649H388.313C388.313 116.662 388.313 116.687 388.313 116.725C388.313 116.763 388.313 116.795 388.313 116.82C388.338 117.339 388.452 117.827 388.655 118.283C388.857 118.726 389.149 119.087 389.529 119.366C389.909 119.645 390.365 119.784 390.897 119.784C391.353 119.784 391.733 119.714 392.037 119.575C392.341 119.436 392.588 119.284 392.778 119.119C392.968 118.942 393.094 118.809 393.158 118.72C393.272 118.555 393.36 118.46 393.424 118.435C393.487 118.397 393.588 118.378 393.728 118.378H394.64C394.766 118.378 394.868 118.416 394.944 118.492C395.032 118.555 395.07 118.65 395.058 118.777C395.045 118.967 394.944 119.201 394.754 119.48C394.564 119.746 394.291 120.012 393.937 120.278C393.582 120.544 393.151 120.766 392.645 120.943C392.138 121.108 391.555 121.19 390.897 121.19ZM388.313 115.338H393.519V115.281C393.519 114.711 393.411 114.204 393.196 113.761C392.993 113.318 392.695 112.969 392.303 112.716C391.91 112.45 391.441 112.317 390.897 112.317C390.352 112.317 389.883 112.45 389.491 112.716C389.111 112.969 388.819 113.318 388.617 113.761C388.414 114.204 388.313 114.711 388.313 115.281V115.338ZM402.633 113.666C402.506 113.666 402.405 113.628 402.329 113.552C402.253 113.476 402.215 113.375 402.215 113.248V112.602C402.215 112.475 402.253 112.374 402.329 112.298C402.405 112.222 402.506 112.184 402.633 112.184H409.872C409.998 112.184 410.1 112.222 410.176 112.298C410.264 112.374 410.309 112.475 410.309 112.602V113.248C410.309 113.375 410.264 113.476 410.176 113.552C410.1 113.628 409.998 113.666 409.872 113.666H402.633ZM402.633 118.416C402.506 118.416 402.405 118.378 402.329 118.302C402.253 118.226 402.215 118.125 402.215 117.998V117.352C402.215 117.225 402.253 117.124 402.329 117.048C402.405 116.972 402.506 116.934 402.633 116.934H409.872C409.998 116.934 410.1 116.972 410.176 117.048C410.264 117.124 410.309 117.225 410.309 117.352V117.998C410.309 118.125 410.264 118.226 410.176 118.302C410.1 118.378 409.998 118.416 409.872 118.416H402.633ZM420.653 111.177C420.564 111.177 420.488 111.145 420.425 111.082C420.374 111.019 420.349 110.943 420.349 110.854C420.349 110.753 420.368 110.651 420.406 110.55L421.413 107.947C421.476 107.82 421.54 107.719 421.603 107.643C421.679 107.554 421.799 107.51 421.964 107.51H422.591C422.692 107.51 422.768 107.548 422.819 107.624C422.882 107.7 422.901 107.801 422.876 107.928L422.458 110.626C422.445 110.778 422.395 110.911 422.306 111.025C422.217 111.126 422.084 111.177 421.907 111.177H420.653ZM417.613 111.177C417.524 111.177 417.448 111.145 417.385 111.082C417.334 111.019 417.309 110.943 417.309 110.854C417.309 110.753 417.328 110.651 417.366 110.55L418.373 107.947C418.436 107.82 418.506 107.719 418.582 107.643C418.658 107.554 418.772 107.51 418.924 107.51H419.551C419.652 107.51 419.728 107.548 419.779 107.624C419.842 107.7 419.861 107.801 419.836 107.928L419.418 110.626C419.405 110.778 419.355 110.911 419.266 111.025C419.177 111.126 419.051 111.177 418.886 111.177H417.613ZM511.812 111.177C511.723 111.177 511.647 111.145 511.584 111.082C511.533 111.019 511.508 110.943 511.508 110.854C511.508 110.753 511.527 110.651 511.565 110.55L512.572 107.947C512.635 107.82 512.699 107.719 512.762 107.643C512.838 107.554 512.958 107.51 513.123 107.51H513.75C513.851 107.51 513.927 107.548 513.978 107.624C514.041 107.7 514.06 107.801 514.035 107.928L513.617 110.626C513.604 110.778 513.554 110.911 513.465 111.025C513.376 111.126 513.243 111.177 513.066 111.177H511.812ZM508.772 111.177C508.683 111.177 508.607 111.145 508.544 111.082C508.493 111.019 508.468 110.943 508.468 110.854C508.468 110.753 508.487 110.651 508.525 110.55L509.532 107.947C509.595 107.82 509.665 107.719 509.741 107.643C509.817 107.554 509.931 107.51 510.083 107.51H510.71C510.811 107.51 510.887 107.548 510.938 107.624C511.001 107.7 511.02 107.801 510.995 107.928L510.577 110.626C510.564 110.778 510.514 110.911 510.425 111.025C510.336 111.126 510.21 111.177 510.045 111.177H508.772Z" fill="white" fill-opacity="0.75"/>
<path d="M137.369 90.19C136.609 90.19 135.976 90.057 135.469 89.791C134.962 89.5123 134.557 89.1703 134.253 88.765V89.563C134.253 89.6897 134.209 89.7973 134.12 89.886C134.044 89.962 133.943 90 133.816 90H132.942C132.815 90 132.708 89.962 132.619 89.886C132.543 89.7973 132.505 89.6897 132.505 89.563V76.947C132.505 76.8203 132.543 76.719 132.619 76.643C132.708 76.5543 132.815 76.51 132.942 76.51H133.854C133.993 76.51 134.101 76.5543 134.177 76.643C134.253 76.719 134.291 76.8203 134.291 76.947V81.317C134.608 80.9243 135.013 80.595 135.507 80.329C136.014 80.063 136.634 79.93 137.369 79.93C138.078 79.93 138.68 80.0567 139.174 80.31C139.681 80.5507 140.092 80.8863 140.409 81.317C140.738 81.7477 140.985 82.2353 141.15 82.78C141.315 83.3247 141.403 83.8947 141.416 84.49C141.429 84.6927 141.435 84.8827 141.435 85.06C141.435 85.2373 141.429 85.4273 141.416 85.63C141.403 86.238 141.315 86.8143 141.15 87.359C140.985 87.9037 140.738 88.3913 140.409 88.822C140.092 89.24 139.681 89.5757 139.174 89.829C138.68 90.0697 138.078 90.19 137.369 90.19ZM136.97 88.651C137.629 88.651 138.142 88.5117 138.509 88.233C138.889 87.9417 139.161 87.568 139.326 87.112C139.491 86.6433 139.586 86.143 139.611 85.611C139.624 85.2437 139.624 84.8763 139.611 84.509C139.586 83.977 139.491 83.483 139.326 83.027C139.161 82.5583 138.889 82.1847 138.509 81.906C138.142 81.6147 137.629 81.469 136.97 81.469C136.375 81.469 135.881 81.6083 135.488 81.887C135.095 82.1657 134.798 82.5203 134.595 82.951C134.405 83.3817 134.304 83.8187 134.291 84.262C134.278 84.4647 134.272 84.7117 134.272 85.003C134.272 85.2817 134.278 85.5223 134.291 85.725C134.316 86.1937 134.418 86.656 134.595 87.112C134.785 87.5553 135.07 87.9227 135.45 88.214C135.843 88.5053 136.349 88.651 136.97 88.651ZM144.223 90C144.096 90 143.989 89.962 143.9 89.886C143.824 89.7973 143.786 89.6897 143.786 89.563V80.557C143.786 80.4303 143.824 80.329 143.9 80.253C143.989 80.1643 144.096 80.12 144.223 80.12H145.135C145.262 80.12 145.363 80.1643 145.439 80.253C145.515 80.329 145.553 80.4303 145.553 80.557V89.563C145.553 89.6897 145.515 89.7973 145.439 89.886C145.363 89.962 145.262 90 145.135 90H144.223ZM144.071 78.277C143.944 78.277 143.837 78.239 143.748 78.163C143.672 78.0743 143.634 77.9667 143.634 77.84V76.814C143.634 76.6873 143.672 76.586 143.748 76.51C143.837 76.4213 143.944 76.377 144.071 76.377H145.268C145.395 76.377 145.496 76.4213 145.572 76.51C145.661 76.586 145.705 76.6873 145.705 76.814V77.84C145.705 77.9667 145.661 78.0743 145.572 78.163C145.496 78.239 145.395 78.277 145.268 78.277H144.071ZM149.01 90C148.883 90 148.776 89.962 148.687 89.886C148.611 89.7973 148.573 89.6897 148.573 89.563V80.576C148.573 80.4493 148.611 80.3417 148.687 80.253C148.776 80.1643 148.883 80.12 149.01 80.12H149.884C150.011 80.12 150.118 80.1643 150.207 80.253C150.296 80.3417 150.34 80.4493 150.34 80.576V81.412C150.593 80.9813 150.942 80.6583 151.385 80.443C151.828 80.2277 152.36 80.12 152.981 80.12H153.741C153.868 80.12 153.969 80.1643 154.045 80.253C154.121 80.329 154.159 80.4303 154.159 80.557V81.336C154.159 81.4627 154.121 81.564 154.045 81.64C153.969 81.716 153.868 81.754 153.741 81.754H152.601C151.917 81.754 151.379 81.9567 150.986 82.362C150.593 82.7547 150.397 83.293 150.397 83.977V89.563C150.397 89.6897 150.353 89.7973 150.264 89.886C150.175 89.962 150.068 90 149.941 90H149.01ZM159.648 90C158.938 90 158.362 89.867 157.919 89.601C157.475 89.3223 157.152 88.936 156.95 88.442C156.747 87.9353 156.646 87.34 156.646 86.656V81.64H155.164C155.037 81.64 154.929 81.602 154.841 81.526C154.765 81.4373 154.727 81.3297 154.727 81.203V80.557C154.727 80.4303 154.765 80.329 154.841 80.253C154.929 80.1643 155.037 80.12 155.164 80.12H156.646V76.947C156.646 76.8203 156.684 76.719 156.76 76.643C156.848 76.5543 156.956 76.51 157.083 76.51H157.976C158.102 76.51 158.204 76.5543 158.28 76.643C158.368 76.719 158.413 76.8203 158.413 76.947V80.12H160.769C160.895 80.12 160.997 80.1643 161.073 80.253C161.161 80.329 161.206 80.4303 161.206 80.557V81.203C161.206 81.3297 161.161 81.4373 161.073 81.526C160.997 81.602 160.895 81.64 160.769 81.64H158.413V86.523C158.413 87.1183 158.514 87.587 158.717 87.929C158.919 88.271 159.28 88.442 159.8 88.442H160.959C161.085 88.442 161.187 88.4863 161.263 88.575C161.351 88.651 161.396 88.7523 161.396 88.879V89.563C161.396 89.6897 161.351 89.7973 161.263 89.886C161.187 89.962 161.085 90 160.959 90H159.648ZM163.669 90C163.542 90 163.434 89.962 163.346 89.886C163.27 89.7973 163.232 89.6897 163.232 89.563V76.947C163.232 76.8203 163.27 76.719 163.346 76.643C163.434 76.5543 163.542 76.51 163.669 76.51H164.619C164.758 76.51 164.866 76.5543 164.942 76.643C165.018 76.719 165.056 76.8203 165.056 76.947V81.374C165.398 80.9433 165.816 80.595 166.31 80.329C166.804 80.063 167.431 79.93 168.191 79.93C169.014 79.93 169.711 80.1137 170.281 80.481C170.863 80.8357 171.3 81.336 171.592 81.982C171.896 82.6153 172.048 83.3563 172.048 84.205V89.563C172.048 89.6897 172.01 89.7973 171.934 89.886C171.858 89.962 171.75 90 171.611 90H170.661C170.534 90 170.426 89.962 170.338 89.886C170.262 89.7973 170.224 89.6897 170.224 89.563V84.3C170.224 83.4133 170.008 82.723 169.578 82.229C169.147 81.7223 168.514 81.469 167.678 81.469C166.892 81.469 166.259 81.7223 165.778 82.229C165.296 82.723 165.056 83.4133 165.056 84.3V89.563C165.056 89.6897 165.018 89.7973 164.942 89.886C164.866 89.962 164.758 90 164.619 90H163.669ZM178.401 90.19C177.704 90.19 177.102 90.0697 176.596 89.829C176.089 89.5757 175.671 89.24 175.342 88.822C175.025 88.3913 174.784 87.9037 174.62 87.359C174.468 86.8143 174.379 86.238 174.354 85.63C174.341 85.4273 174.335 85.2373 174.335 85.06C174.335 84.8827 174.341 84.6927 174.354 84.49C174.379 83.8947 174.468 83.3247 174.62 82.78C174.784 82.2353 175.025 81.7477 175.342 81.317C175.671 80.8863 176.089 80.5507 176.596 80.31C177.102 80.0567 177.704 79.93 178.401 79.93C179.148 79.93 179.769 80.063 180.263 80.329C180.757 80.595 181.162 80.9243 181.479 81.317V76.947C181.479 76.8203 181.517 76.719 181.593 76.643C181.681 76.5543 181.789 76.51 181.916 76.51H182.828C182.954 76.51 183.056 76.5543 183.132 76.643C183.22 76.719 183.265 76.8203 183.265 76.947V89.563C183.265 89.6897 183.22 89.7973 183.132 89.886C183.056 89.962 182.954 90 182.828 90H181.973C181.833 90 181.726 89.962 181.65 89.886C181.574 89.7973 181.536 89.6897 181.536 89.563V88.765C181.219 89.1703 180.807 89.5123 180.301 89.791C179.794 90.057 179.161 90.19 178.401 90.19ZM178.8 88.651C179.433 88.651 179.94 88.5053 180.32 88.214C180.7 87.9227 180.985 87.5553 181.175 87.112C181.365 86.656 181.466 86.1937 181.479 85.725C181.491 85.5223 181.498 85.2817 181.498 85.003C181.498 84.7117 181.491 84.4647 181.479 84.262C181.466 83.8187 181.358 83.3817 181.156 82.951C180.966 82.5203 180.674 82.1657 180.282 81.887C179.902 81.6083 179.408 81.469 178.8 81.469C178.154 81.469 177.641 81.6147 177.261 81.906C176.881 82.1847 176.608 82.5583 176.444 83.027C176.279 83.483 176.184 83.977 176.159 84.509C176.146 84.8763 176.146 85.2437 176.159 85.611C176.184 86.143 176.279 86.6433 176.444 87.112C176.608 87.568 176.881 87.9417 177.261 88.233C177.641 88.5117 178.154 88.651 178.8 88.651ZM188.846 90.19C188.212 90.19 187.636 90.0633 187.117 89.81C186.597 89.5567 186.179 89.2147 185.863 88.784C185.546 88.3533 185.388 87.8657 185.388 87.321C185.388 86.447 185.742 85.7503 186.452 85.231C187.161 84.7117 188.086 84.3697 189.226 84.205L192.057 83.806V83.255C192.057 82.647 191.879 82.172 191.525 81.83C191.183 81.488 190.619 81.317 189.834 81.317C189.264 81.317 188.801 81.431 188.447 81.659C188.105 81.887 187.864 82.1783 187.725 82.533C187.649 82.723 187.516 82.818 187.326 82.818H186.471C186.331 82.818 186.224 82.78 186.148 82.704C186.084 82.6153 186.053 82.514 186.053 82.4C186.053 82.21 186.122 81.9757 186.262 81.697C186.414 81.4183 186.642 81.146 186.946 80.88C187.25 80.614 187.636 80.3923 188.105 80.215C188.586 80.025 189.169 79.93 189.853 79.93C190.613 79.93 191.252 80.0313 191.772 80.234C192.291 80.424 192.696 80.6837 192.988 81.013C193.292 81.3423 193.507 81.716 193.634 82.134C193.773 82.552 193.843 82.9763 193.843 83.407V89.563C193.843 89.6897 193.798 89.7973 193.71 89.886C193.634 89.962 193.532 90 193.406 90H192.532C192.392 90 192.285 89.962 192.209 89.886C192.133 89.7973 192.095 89.6897 192.095 89.563V88.746C191.93 88.974 191.708 89.202 191.43 89.43C191.151 89.6453 190.803 89.829 190.385 89.981C189.967 90.1203 189.454 90.19 188.846 90.19ZM189.245 88.765C189.764 88.765 190.239 88.6573 190.67 88.442C191.1 88.214 191.436 87.8657 191.677 87.397C191.93 86.9283 192.057 86.3393 192.057 85.63V85.098L189.853 85.421C188.953 85.5477 188.276 85.763 187.82 86.067C187.364 86.3583 187.136 86.732 187.136 87.188C187.136 87.5427 187.237 87.8403 187.44 88.081C187.655 88.309 187.921 88.48 188.238 88.594C188.567 88.708 188.903 88.765 189.245 88.765ZM198.099 93.61C197.998 93.61 197.909 93.572 197.833 93.496C197.757 93.42 197.719 93.3313 197.719 93.23C197.719 93.1793 197.725 93.1287 197.738 93.078C197.751 93.0273 197.776 92.964 197.814 92.888L199.277 89.411L195.648 80.842C195.585 80.69 195.553 80.5823 195.553 80.519C195.553 80.405 195.591 80.31 195.667 80.234C195.743 80.158 195.838 80.12 195.952 80.12H196.883C197.01 80.12 197.111 80.1517 197.187 80.215C197.263 80.2783 197.314 80.3543 197.339 80.443L200.227 87.359L203.191 80.443C203.229 80.3543 203.28 80.2783 203.343 80.215C203.419 80.1517 203.527 80.12 203.666 80.12H204.559C204.673 80.12 204.768 80.158 204.844 80.234C204.92 80.31 204.958 80.3987 204.958 80.5C204.958 80.5633 204.926 80.6773 204.863 80.842L199.467 93.287C199.429 93.3757 199.372 93.4517 199.296 93.515C199.233 93.5783 199.131 93.61 198.992 93.61H198.099ZM233.532 90C233.393 90 233.285 89.962 233.209 89.886C233.133 89.7973 233.095 89.6897 233.095 89.563V77.156C233.095 77.0167 233.133 76.909 233.209 76.833C233.285 76.7443 233.393 76.7 233.532 76.7H238.738C239.688 76.7 240.461 76.8583 241.056 77.175C241.664 77.479 242.108 77.897 242.386 78.429C242.678 78.961 242.823 79.5563 242.823 80.215C242.823 80.7343 242.735 81.184 242.557 81.564C242.393 81.9313 242.184 82.2353 241.93 82.476C241.677 82.704 241.43 82.8813 241.189 83.008C241.683 83.2487 242.12 83.6413 242.5 84.186C242.893 84.7307 243.089 85.3893 243.089 86.162C243.089 86.8587 242.931 87.4983 242.614 88.081C242.298 88.6637 241.823 89.1323 241.189 89.487C240.569 89.829 239.796 90 238.871 90H233.532ZM234.957 88.461H238.624C239.448 88.461 240.081 88.2393 240.524 87.796C240.968 87.3527 241.189 86.808 241.189 86.162C241.189 85.4907 240.968 84.9397 240.524 84.509C240.081 84.0657 239.448 83.844 238.624 83.844H234.957V88.461ZM234.957 82.324H238.453C239.264 82.324 239.878 82.1403 240.296 81.773C240.714 81.393 240.923 80.88 240.923 80.234C240.923 79.588 240.714 79.094 240.296 78.752C239.878 78.41 239.264 78.239 238.453 78.239H234.957V82.324ZM246.014 90C245.887 90 245.78 89.962 245.691 89.886C245.615 89.7973 245.577 89.6897 245.577 89.563V80.557C245.577 80.4303 245.615 80.329 245.691 80.253C245.78 80.1643 245.887 80.12 246.014 80.12H246.926C247.053 80.12 247.154 80.1643 247.23 80.253C247.306 80.329 247.344 80.4303 247.344 80.557V89.563C247.344 89.6897 247.306 89.7973 247.23 89.886C247.154 89.962 247.053 90 246.926 90H246.014ZM245.862 78.277C245.735 78.277 245.628 78.239 245.539 78.163C245.463 78.0743 245.425 77.9667 245.425 77.84V76.814C245.425 76.6873 245.463 76.586 245.539 76.51C245.628 76.4213 245.735 76.377 245.862 76.377H247.059C247.186 76.377 247.287 76.4213 247.363 76.51C247.452 76.586 247.496 76.6873 247.496 76.814V77.84C247.496 77.9667 247.452 78.0743 247.363 78.163C247.287 78.239 247.186 78.277 247.059 78.277H245.862ZM250.801 90C250.674 90 250.567 89.962 250.478 89.886C250.402 89.7973 250.364 89.6897 250.364 89.563V80.576C250.364 80.4493 250.402 80.3417 250.478 80.253C250.567 80.1643 250.674 80.12 250.801 80.12H251.675C251.802 80.12 251.909 80.1643 251.998 80.253C252.087 80.3417 252.131 80.4493 252.131 80.576V81.412C252.384 80.9813 252.733 80.6583 253.176 80.443C253.619 80.2277 254.151 80.12 254.772 80.12H255.532C255.659 80.12 255.76 80.1643 255.836 80.253C255.912 80.329 255.95 80.4303 255.95 80.557V81.336C255.95 81.4627 255.912 81.564 255.836 81.64C255.76 81.716 255.659 81.754 255.532 81.754H254.392C253.708 81.754 253.17 81.9567 252.777 82.362C252.384 82.7547 252.188 83.293 252.188 83.977V89.563C252.188 89.6897 252.144 89.7973 252.055 89.886C251.966 89.962 251.859 90 251.732 90H250.801ZM261.439 90C260.729 90 260.153 89.867 259.71 89.601C259.266 89.3223 258.943 88.936 258.741 88.442C258.538 87.9353 258.437 87.34 258.437 86.656V81.64H256.955C256.828 81.64 256.72 81.602 256.632 81.526C256.556 81.4373 256.518 81.3297 256.518 81.203V80.557C256.518 80.4303 256.556 80.329 256.632 80.253C256.72 80.1643 256.828 80.12 256.955 80.12H258.437V76.947C258.437 76.8203 258.475 76.719 258.551 76.643C258.639 76.5543 258.747 76.51 258.874 76.51H259.767C259.893 76.51 259.995 76.5543 260.071 76.643C260.159 76.719 260.204 76.8203 260.204 76.947V80.12H262.56C262.686 80.12 262.788 80.1643 262.864 80.253C262.952 80.329 262.997 80.4303 262.997 80.557V81.203C262.997 81.3297 262.952 81.4373 262.864 81.526C262.788 81.602 262.686 81.64 262.56 81.64H260.204V86.523C260.204 87.1183 260.305 87.587 260.508 87.929C260.71 88.271 261.071 88.442 261.591 88.442H262.75C262.876 88.442 262.978 88.4863 263.054 88.575C263.142 88.651 263.187 88.7523 263.187 88.879V89.563C263.187 89.6897 263.142 89.7973 263.054 89.886C262.978 89.962 262.876 90 262.75 90H261.439ZM265.46 90C265.333 90 265.225 89.962 265.137 89.886C265.061 89.7973 265.023 89.6897 265.023 89.563V76.947C265.023 76.8203 265.061 76.719 265.137 76.643C265.225 76.5543 265.333 76.51 265.46 76.51H266.41C266.549 76.51 266.657 76.5543 266.733 76.643C266.809 76.719 266.847 76.8203 266.847 76.947V81.374C267.189 80.9433 267.607 80.595 268.101 80.329C268.595 80.063 269.222 79.93 269.982 79.93C270.805 79.93 271.502 80.1137 272.072 80.481C272.654 80.8357 273.091 81.336 273.383 81.982C273.687 82.6153 273.839 83.3563 273.839 84.205V89.563C273.839 89.6897 273.801 89.7973 273.725 89.886C273.649 89.962 273.541 90 273.402 90H272.452C272.325 90 272.217 89.962 272.129 89.886C272.053 89.7973 272.015 89.6897 272.015 89.563V84.3C272.015 83.4133 271.799 82.723 271.369 82.229C270.938 81.7223 270.305 81.469 269.469 81.469C268.683 81.469 268.05 81.7223 267.569 82.229C267.087 82.723 266.847 83.4133 266.847 84.3V89.563C266.847 89.6897 266.809 89.7973 266.733 89.886C266.657 89.962 266.549 90 266.41 90H265.46ZM280.192 90.19C279.495 90.19 278.893 90.0697 278.387 89.829C277.88 89.5757 277.462 89.24 277.133 88.822C276.816 88.3913 276.575 87.9037 276.411 87.359C276.259 86.8143 276.17 86.238 276.145 85.63C276.132 85.4273 276.126 85.2373 276.126 85.06C276.126 84.8827 276.132 84.6927 276.145 84.49C276.17 83.8947 276.259 83.3247 276.411 82.78C276.575 82.2353 276.816 81.7477 277.133 81.317C277.462 80.8863 277.88 80.5507 278.387 80.31C278.893 80.0567 279.495 79.93 280.192 79.93C280.939 79.93 281.56 80.063 282.054 80.329C282.548 80.595 282.953 80.9243 283.27 81.317V76.947C283.27 76.8203 283.308 76.719 283.384 76.643C283.472 76.5543 283.58 76.51 283.707 76.51H284.619C284.745 76.51 284.847 76.5543 284.923 76.643C285.011 76.719 285.056 76.8203 285.056 76.947V89.563C285.056 89.6897 285.011 89.7973 284.923 89.886C284.847 89.962 284.745 90 284.619 90H283.764C283.624 90 283.517 89.962 283.441 89.886C283.365 89.7973 283.327 89.6897 283.327 89.563V88.765C283.01 89.1703 282.598 89.5123 282.092 89.791C281.585 90.057 280.952 90.19 280.192 90.19ZM280.591 88.651C281.224 88.651 281.731 88.5053 282.111 88.214C282.491 87.9227 282.776 87.5553 282.966 87.112C283.156 86.656 283.257 86.1937 283.27 85.725C283.282 85.5223 283.289 85.2817 283.289 85.003C283.289 84.7117 283.282 84.4647 283.27 84.262C283.257 83.8187 283.149 83.3817 282.947 82.951C282.757 82.5203 282.465 82.1657 282.073 81.887C281.693 81.6083 281.199 81.469 280.591 81.469C279.945 81.469 279.432 81.6147 279.052 81.906C278.672 82.1847 278.399 82.5583 278.235 83.027C278.07 83.483 277.975 83.977 277.95 84.509C277.937 84.8763 277.937 85.2437 277.95 85.611C277.975 86.143 278.07 86.6433 278.235 87.112C278.399 87.568 278.672 87.9417 279.052 88.233C279.432 88.5117 279.945 88.651 280.591 88.651ZM290.637 90.19C290.003 90.19 289.427 90.0633 288.908 89.81C288.388 89.5567 287.97 89.2147 287.654 88.784C287.337 88.3533 287.179 87.8657 287.179 87.321C287.179 86.447 287.533 85.7503 288.243 85.231C288.952 84.7117 289.877 84.3697 291.017 84.205L293.848 83.806V83.255C293.848 82.647 293.67 82.172 293.316 81.83C292.974 81.488 292.41 81.317 291.625 81.317C291.055 81.317 290.592 81.431 290.238 81.659C289.896 81.887 289.655 82.1783 289.516 82.533C289.44 82.723 289.307 82.818 289.117 82.818H288.262C288.122 82.818 288.015 82.78 287.939 82.704C287.875 82.6153 287.844 82.514 287.844 82.4C287.844 82.21 287.913 81.9757 288.053 81.697C288.205 81.4183 288.433 81.146 288.737 80.88C289.041 80.614 289.427 80.3923 289.896 80.215C290.377 80.025 290.96 79.93 291.644 79.93C292.404 79.93 293.043 80.0313 293.563 80.234C294.082 80.424 294.487 80.6837 294.779 81.013C295.083 81.3423 295.298 81.716 295.425 82.134C295.564 82.552 295.634 82.9763 295.634 83.407V89.563C295.634 89.6897 295.589 89.7973 295.501 89.886C295.425 89.962 295.323 90 295.197 90H294.323C294.183 90 294.076 89.962 294 89.886C293.924 89.7973 293.886 89.6897 293.886 89.563V88.746C293.721 88.974 293.499 89.202 293.221 89.43C292.942 89.6453 292.594 89.829 292.176 89.981C291.758 90.1203 291.245 90.19 290.637 90.19ZM291.036 88.765C291.555 88.765 292.03 88.6573 292.461 88.442C292.891 88.214 293.227 87.8657 293.468 87.397C293.721 86.9283 293.848 86.3393 293.848 85.63V85.098L291.644 85.421C290.744 85.5477 290.067 85.763 289.611 86.067C289.155 86.3583 288.927 86.732 288.927 87.188C288.927 87.5427 289.028 87.8403 289.231 88.081C289.446 88.309 289.712 88.48 290.029 88.594C290.358 88.708 290.694 88.765 291.036 88.765ZM299.89 93.61C299.789 93.61 299.7 93.572 299.624 93.496C299.548 93.42 299.51 93.3313 299.51 93.23C299.51 93.1793 299.516 93.1287 299.529 93.078C299.542 93.0273 299.567 92.964 299.605 92.888L301.068 89.411L297.439 80.842C297.376 80.69 297.344 80.5823 297.344 80.519C297.344 80.405 297.382 80.31 297.458 80.234C297.534 80.158 297.629 80.12 297.743 80.12H298.674C298.801 80.12 298.902 80.1517 298.978 80.215C299.054 80.2783 299.105 80.3543 299.13 80.443L302.018 87.359L304.982 80.443C305.02 80.3543 305.071 80.2783 305.134 80.215C305.21 80.1517 305.318 80.12 305.457 80.12H306.35C306.464 80.12 306.559 80.158 306.635 80.234C306.711 80.31 306.749 80.3987 306.749 80.5C306.749 80.5633 306.717 80.6773 306.654 80.842L301.258 93.287C301.22 93.3757 301.163 93.4517 301.087 93.515C301.024 93.5783 300.922 93.61 300.783 93.61H299.89ZM313.124 83.35C312.997 83.35 312.89 83.312 312.801 83.236C312.725 83.1473 312.687 83.0397 312.687 82.913V81.583C312.687 81.4563 312.725 81.355 312.801 81.279C312.89 81.1903 312.997 81.146 313.124 81.146H314.473C314.612 81.146 314.72 81.1903 314.796 81.279C314.885 81.355 314.929 81.4563 314.929 81.583V82.913C314.929 83.0397 314.885 83.1473 314.796 83.236C314.72 83.312 314.612 83.35 314.473 83.35H313.124ZM313.124 90C312.997 90 312.89 89.962 312.801 89.886C312.725 89.7973 312.687 89.6897 312.687 89.563V88.233C312.687 88.1063 312.725 88.005 312.801 87.929C312.89 87.8403 312.997 87.796 313.124 87.796H314.473C314.612 87.796 314.72 87.8403 314.796 87.929C314.885 88.005 314.929 88.1063 314.929 88.233V89.563C314.929 89.6897 314.885 89.7973 314.796 89.886C314.72 89.962 314.612 90 314.473 90H313.124ZM155.894 121.19C155.197 121.19 154.596 121.07 154.089 120.829C153.582 120.576 153.164 120.24 152.835 119.822C152.518 119.391 152.278 118.904 152.113 118.359C151.961 117.814 151.872 117.238 151.847 116.63C151.834 116.427 151.828 116.237 151.828 116.06C151.828 115.883 151.834 115.693 151.847 115.49C151.872 114.895 151.961 114.325 152.113 113.78C152.278 113.235 152.518 112.748 152.835 112.317C153.164 111.886 153.582 111.551 154.089 111.31C154.596 111.057 155.197 110.93 155.894 110.93C156.641 110.93 157.262 111.063 157.756 111.329C158.25 111.595 158.655 111.924 158.972 112.317V107.947C158.972 107.82 159.01 107.719 159.086 107.643C159.175 107.554 159.282 107.51 159.409 107.51H160.321C160.448 107.51 160.549 107.554 160.625 107.643C160.714 107.719 160.758 107.82 160.758 107.947V120.563C160.758 120.69 160.714 120.797 160.625 120.886C160.549 120.962 160.448 121 160.321 121H159.466C159.327 121 159.219 120.962 159.143 120.886C159.067 120.797 159.029 120.69 159.029 120.563V119.765C158.712 120.17 158.301 120.512 157.794 120.791C157.287 121.057 156.654 121.19 155.894 121.19ZM156.293 119.651C156.926 119.651 157.433 119.505 157.813 119.214C158.193 118.923 158.478 118.555 158.668 118.112C158.858 117.656 158.959 117.194 158.972 116.725C158.985 116.522 158.991 116.282 158.991 116.003C158.991 115.712 158.985 115.465 158.972 115.262C158.959 114.819 158.852 114.382 158.649 113.951C158.459 113.52 158.168 113.166 157.775 112.887C157.395 112.608 156.901 112.469 156.293 112.469C155.647 112.469 155.134 112.615 154.754 112.906C154.374 113.185 154.102 113.558 153.937 114.027C153.772 114.483 153.677 114.977 153.652 115.509C153.639 115.876 153.639 116.244 153.652 116.611C153.677 117.143 153.772 117.643 153.937 118.112C154.102 118.568 154.374 118.942 154.754 119.233C155.134 119.512 155.647 119.651 156.293 119.651ZM166.339 121.19C165.705 121.19 165.129 121.063 164.61 120.81C164.09 120.557 163.672 120.215 163.356 119.784C163.039 119.353 162.881 118.866 162.881 118.321C162.881 117.447 163.235 116.75 163.945 116.231C164.654 115.712 165.579 115.37 166.719 115.205L169.55 114.806V114.255C169.55 113.647 169.372 113.172 169.018 112.83C168.676 112.488 168.112 112.317 167.327 112.317C166.757 112.317 166.294 112.431 165.94 112.659C165.598 112.887 165.357 113.178 165.218 113.533C165.142 113.723 165.009 113.818 164.819 113.818H163.964C163.824 113.818 163.717 113.78 163.641 113.704C163.577 113.615 163.546 113.514 163.546 113.4C163.546 113.21 163.615 112.976 163.755 112.697C163.907 112.418 164.135 112.146 164.439 111.88C164.743 111.614 165.129 111.392 165.598 111.215C166.079 111.025 166.662 110.93 167.346 110.93C168.106 110.93 168.745 111.031 169.265 111.234C169.784 111.424 170.189 111.684 170.481 112.013C170.785 112.342 171 112.716 171.127 113.134C171.266 113.552 171.336 113.976 171.336 114.407V120.563C171.336 120.69 171.291 120.797 171.203 120.886C171.127 120.962 171.025 121 170.899 121H170.025C169.885 121 169.778 120.962 169.702 120.886C169.626 120.797 169.588 120.69 169.588 120.563V119.746C169.423 119.974 169.201 120.202 168.923 120.43C168.644 120.645 168.296 120.829 167.878 120.981C167.46 121.12 166.947 121.19 166.339 121.19ZM166.738 119.765C167.257 119.765 167.732 119.657 168.163 119.442C168.593 119.214 168.929 118.866 169.17 118.397C169.423 117.928 169.55 117.339 169.55 116.63V116.098L167.346 116.421C166.446 116.548 165.769 116.763 165.313 117.067C164.857 117.358 164.629 117.732 164.629 118.188C164.629 118.543 164.73 118.84 164.933 119.081C165.148 119.309 165.414 119.48 165.731 119.594C166.06 119.708 166.396 119.765 166.738 119.765ZM177.831 121C177.122 121 176.546 120.867 176.102 120.601C175.659 120.322 175.336 119.936 175.133 119.442C174.931 118.935 174.829 118.34 174.829 117.656V112.64H173.347C173.221 112.64 173.113 112.602 173.024 112.526C172.948 112.437 172.91 112.33 172.91 112.203V111.557C172.91 111.43 172.948 111.329 173.024 111.253C173.113 111.164 173.221 111.12 173.347 111.12H174.829V107.947C174.829 107.82 174.867 107.719 174.943 107.643C175.032 107.554 175.14 107.51 175.266 107.51H176.159C176.286 107.51 176.387 107.554 176.463 107.643C176.552 107.719 176.596 107.82 176.596 107.947V111.12H178.952C179.079 111.12 179.18 111.164 179.256 111.253C179.345 111.329 179.389 111.43 179.389 111.557V112.203C179.389 112.33 179.345 112.437 179.256 112.526C179.18 112.602 179.079 112.64 178.952 112.64H176.596V117.523C176.596 118.118 176.698 118.587 176.9 118.929C177.103 119.271 177.464 119.442 177.983 119.442H179.142C179.269 119.442 179.37 119.486 179.446 119.575C179.535 119.651 179.579 119.752 179.579 119.879V120.563C179.579 120.69 179.535 120.797 179.446 120.886C179.37 120.962 179.269 121 179.142 121H177.831ZM185.329 121.19C184.025 121.19 182.986 120.791 182.213 119.993C181.441 119.182 181.016 118.08 180.94 116.687C180.928 116.522 180.921 116.313 180.921 116.06C180.921 115.794 180.928 115.579 180.94 115.414C180.991 114.515 181.2 113.729 181.567 113.058C181.935 112.374 182.435 111.848 183.068 111.481C183.714 111.114 184.468 110.93 185.329 110.93C186.292 110.93 187.096 111.133 187.742 111.538C188.401 111.943 188.901 112.52 189.243 113.267C189.585 114.014 189.756 114.888 189.756 115.889V116.212C189.756 116.351 189.712 116.459 189.623 116.535C189.547 116.611 189.446 116.649 189.319 116.649H182.745C182.745 116.662 182.745 116.687 182.745 116.725C182.745 116.763 182.745 116.795 182.745 116.82C182.771 117.339 182.885 117.827 183.087 118.283C183.29 118.726 183.581 119.087 183.961 119.366C184.341 119.645 184.797 119.784 185.329 119.784C185.785 119.784 186.165 119.714 186.469 119.575C186.773 119.436 187.02 119.284 187.21 119.119C187.4 118.942 187.527 118.809 187.59 118.72C187.704 118.555 187.793 118.46 187.856 118.435C187.92 118.397 188.021 118.378 188.16 118.378H189.072C189.199 118.378 189.3 118.416 189.376 118.492C189.465 118.555 189.503 118.65 189.49 118.777C189.478 118.967 189.376 119.201 189.186 119.48C188.996 119.746 188.724 120.012 188.369 120.278C188.015 120.544 187.584 120.766 187.077 120.943C186.571 121.108 185.988 121.19 185.329 121.19ZM182.745 115.338H187.951V115.281C187.951 114.711 187.844 114.204 187.628 113.761C187.426 113.318 187.128 112.969 186.735 112.716C186.343 112.45 185.874 112.317 185.329 112.317C184.785 112.317 184.316 112.45 183.923 112.716C183.543 112.969 183.252 113.318 183.049 113.761C182.847 114.204 182.745 114.711 182.745 115.281V115.338ZM261.797 121.19C261.037 121.19 260.403 121.057 259.897 120.791C259.39 120.512 258.985 120.17 258.681 119.765V120.563C258.681 120.69 258.636 120.797 258.548 120.886C258.472 120.962 258.37 121 258.244 121H257.37C257.243 121 257.135 120.962 257.047 120.886C256.971 120.797 256.933 120.69 256.933 120.563V107.947C256.933 107.82 256.971 107.719 257.047 107.643C257.135 107.554 257.243 107.51 257.37 107.51H258.282C258.421 107.51 258.529 107.554 258.605 107.643C258.681 107.719 258.719 107.82 258.719 107.947V112.317C259.035 111.924 259.441 111.595 259.935 111.329C260.441 111.063 261.062 110.93 261.797 110.93C262.506 110.93 263.108 111.057 263.602 111.31C264.108 111.551 264.52 111.886 264.837 112.317C265.166 112.748 265.413 113.235 265.578 113.78C265.742 114.325 265.831 114.895 265.844 115.49C265.856 115.693 265.863 115.883 265.863 116.06C265.863 116.237 265.856 116.427 265.844 116.63C265.831 117.238 265.742 117.814 265.578 118.359C265.413 118.904 265.166 119.391 264.837 119.822C264.52 120.24 264.108 120.576 263.602 120.829C263.108 121.07 262.506 121.19 261.797 121.19ZM261.398 119.651C262.056 119.651 262.569 119.512 262.937 119.233C263.317 118.942 263.589 118.568 263.754 118.112C263.918 117.643 264.013 117.143 264.039 116.611C264.051 116.244 264.051 115.876 264.039 115.509C264.013 114.977 263.918 114.483 263.754 114.027C263.589 113.558 263.317 113.185 262.937 112.906C262.569 112.615 262.056 112.469 261.398 112.469C260.802 112.469 260.308 112.608 259.916 112.887C259.523 113.166 259.225 113.52 259.023 113.951C258.833 114.382 258.731 114.819 258.719 115.262C258.706 115.465 258.7 115.712 258.7 116.003C258.7 116.282 258.706 116.522 258.719 116.725C258.744 117.194 258.845 117.656 259.023 118.112C259.213 118.555 259.498 118.923 259.878 119.214C260.27 119.505 260.777 119.651 261.398 119.651ZM268.651 121C268.524 121 268.416 120.962 268.328 120.886C268.252 120.797 268.214 120.69 268.214 120.563V111.557C268.214 111.43 268.252 111.329 268.328 111.253C268.416 111.164 268.524 111.12 268.651 111.12H269.563C269.689 111.12 269.791 111.164 269.867 111.253C269.943 111.329 269.981 111.43 269.981 111.557V120.563C269.981 120.69 269.943 120.797 269.867 120.886C269.791 120.962 269.689 121 269.563 121H268.651ZM268.499 109.277C268.372 109.277 268.264 109.239 268.176 109.163C268.1 109.074 268.062 108.967 268.062 108.84V107.814C268.062 107.687 268.1 107.586 268.176 107.51C268.264 107.421 268.372 107.377 268.499 107.377H269.696C269.822 107.377 269.924 107.421 270 107.51C270.088 107.586 270.133 107.687 270.133 107.814V108.84C270.133 108.967 270.088 109.074 270 109.163C269.924 109.239 269.822 109.277 269.696 109.277H268.499ZM273.438 121C273.311 121 273.203 120.962 273.115 120.886C273.039 120.797 273.001 120.69 273.001 120.563V111.576C273.001 111.449 273.039 111.342 273.115 111.253C273.203 111.164 273.311 111.12 273.438 111.12H274.312C274.438 111.12 274.546 111.164 274.635 111.253C274.723 111.342 274.768 111.449 274.768 111.576V112.412C275.021 111.981 275.369 111.658 275.813 111.443C276.256 111.228 276.788 111.12 277.409 111.12H278.169C278.295 111.12 278.397 111.164 278.473 111.253C278.549 111.329 278.587 111.43 278.587 111.557V112.336C278.587 112.463 278.549 112.564 278.473 112.64C278.397 112.716 278.295 112.754 278.169 112.754H277.029C276.345 112.754 275.806 112.957 275.414 113.362C275.021 113.755 274.825 114.293 274.825 114.977V120.563C274.825 120.69 274.78 120.797 274.692 120.886C274.603 120.962 274.495 121 274.369 121H273.438ZM284.076 121C283.366 121 282.79 120.867 282.347 120.601C281.903 120.322 281.58 119.936 281.378 119.442C281.175 118.935 281.074 118.34 281.074 117.656V112.64H279.592C279.465 112.64 279.357 112.602 279.269 112.526C279.193 112.437 279.155 112.33 279.155 112.203V111.557C279.155 111.43 279.193 111.329 279.269 111.253C279.357 111.164 279.465 111.12 279.592 111.12H281.074V107.947C281.074 107.82 281.112 107.719 281.188 107.643C281.276 107.554 281.384 107.51 281.511 107.51H282.404C282.53 107.51 282.632 107.554 282.708 107.643C282.796 107.719 282.841 107.82 282.841 107.947V111.12H285.197C285.323 111.12 285.425 111.164 285.501 111.253C285.589 111.329 285.634 111.43 285.634 111.557V112.203C285.634 112.33 285.589 112.437 285.501 112.526C285.425 112.602 285.323 112.64 285.197 112.64H282.841V117.523C282.841 118.118 282.942 118.587 283.145 118.929C283.347 119.271 283.708 119.442 284.228 119.442H285.387C285.513 119.442 285.615 119.486 285.691 119.575C285.779 119.651 285.824 119.752 285.824 119.879V120.563C285.824 120.69 285.779 120.797 285.691 120.886C285.615 120.962 285.513 121 285.387 121H284.076ZM288.096 121C287.97 121 287.862 120.962 287.773 120.886C287.697 120.797 287.659 120.69 287.659 120.563V107.947C287.659 107.82 287.697 107.719 287.773 107.643C287.862 107.554 287.97 107.51 288.096 107.51H289.046C289.186 107.51 289.293 107.554 289.369 107.643C289.445 107.719 289.483 107.82 289.483 107.947V112.374C289.825 111.943 290.243 111.595 290.737 111.329C291.231 111.063 291.858 110.93 292.618 110.93C293.442 110.93 294.138 111.114 294.708 111.481C295.291 111.836 295.728 112.336 296.019 112.982C296.323 113.615 296.475 114.356 296.475 115.205V120.563C296.475 120.69 296.437 120.797 296.361 120.886C296.285 120.962 296.178 121 296.038 121H295.088C294.962 121 294.854 120.962 294.765 120.886C294.689 120.797 294.651 120.69 294.651 120.563V115.3C294.651 114.413 294.436 113.723 294.005 113.229C293.575 112.722 292.941 112.469 292.105 112.469C291.32 112.469 290.687 112.722 290.205 113.229C289.724 113.723 289.483 114.413 289.483 115.3V120.563C289.483 120.69 289.445 120.797 289.369 120.886C289.293 120.962 289.186 121 289.046 121H288.096ZM302.828 121.19C302.132 121.19 301.53 121.07 301.024 120.829C300.517 120.576 300.099 120.24 299.77 119.822C299.453 119.391 299.212 118.904 299.048 118.359C298.896 117.814 298.807 117.238 298.782 116.63C298.769 116.427 298.763 116.237 298.763 116.06C298.763 115.883 298.769 115.693 298.782 115.49C298.807 114.895 298.896 114.325 299.048 113.78C299.212 113.235 299.453 112.748 299.77 112.317C300.099 111.886 300.517 111.551 301.024 111.31C301.53 111.057 302.132 110.93 302.828 110.93C303.576 110.93 304.197 111.063 304.691 111.329C305.185 111.595 305.59 111.924 305.907 112.317V107.947C305.907 107.82 305.945 107.719 306.021 107.643C306.109 107.554 306.217 107.51 306.344 107.51H307.256C307.382 107.51 307.484 107.554 307.56 107.643C307.648 107.719 307.693 107.82 307.693 107.947V120.563C307.693 120.69 307.648 120.797 307.56 120.886C307.484 120.962 307.382 121 307.256 121H306.401C306.261 121 306.154 120.962 306.078 120.886C306.002 120.797 305.964 120.69 305.964 120.563V119.765C305.647 120.17 305.235 120.512 304.729 120.791C304.222 121.057 303.589 121.19 302.828 121.19ZM303.228 119.651C303.861 119.651 304.368 119.505 304.748 119.214C305.128 118.923 305.413 118.555 305.603 118.112C305.793 117.656 305.894 117.194 305.907 116.725C305.919 116.522 305.926 116.282 305.926 116.003C305.926 115.712 305.919 115.465 305.907 115.262C305.894 114.819 305.786 114.382 305.584 113.951C305.394 113.52 305.102 113.166 304.71 112.887C304.33 112.608 303.836 112.469 303.228 112.469C302.582 112.469 302.069 112.615 301.689 112.906C301.309 113.185 301.036 113.558 300.872 114.027C300.707 114.483 300.612 114.977 300.587 115.509C300.574 115.876 300.574 116.244 300.587 116.611C300.612 117.143 300.707 117.643 300.872 118.112C301.036 118.568 301.309 118.942 301.689 119.233C302.069 119.512 302.582 119.651 303.228 119.651ZM313.273 121.19C312.64 121.19 312.064 121.063 311.544 120.81C311.025 120.557 310.607 120.215 310.29 119.784C309.974 119.353 309.815 118.866 309.815 118.321C309.815 117.447 310.17 116.75 310.879 116.231C311.589 115.712 312.513 115.37 313.653 115.205L316.484 114.806V114.255C316.484 113.647 316.307 113.172 315.952 112.83C315.61 112.488 315.047 112.317 314.261 112.317C313.691 112.317 313.229 112.431 312.874 112.659C312.532 112.887 312.292 113.178 312.152 113.533C312.076 113.723 311.943 113.818 311.753 113.818H310.898C310.759 113.818 310.651 113.78 310.575 113.704C310.512 113.615 310.48 113.514 310.48 113.4C310.48 113.21 310.55 112.976 310.689 112.697C310.841 112.418 311.069 112.146 311.373 111.88C311.677 111.614 312.064 111.392 312.532 111.215C313.014 111.025 313.596 110.93 314.28 110.93C315.04 110.93 315.68 111.031 316.199 111.234C316.719 111.424 317.124 111.684 317.415 112.013C317.719 112.342 317.935 112.716 318.061 113.134C318.201 113.552 318.27 113.976 318.27 114.407V120.563C318.27 120.69 318.226 120.797 318.137 120.886C318.061 120.962 317.96 121 317.833 121H316.959C316.82 121 316.712 120.962 316.636 120.886C316.56 120.797 316.522 120.69 316.522 120.563V119.746C316.358 119.974 316.136 120.202 315.857 120.43C315.579 120.645 315.23 120.829 314.812 120.981C314.394 121.12 313.881 121.19 313.273 121.19ZM313.672 119.765C314.192 119.765 314.667 119.657 315.097 119.442C315.528 119.214 315.864 118.866 316.104 118.397C316.358 117.928 316.484 117.339 316.484 116.63V116.098L314.28 116.421C313.381 116.548 312.703 116.763 312.247 117.067C311.791 117.358 311.563 117.732 311.563 118.188C311.563 118.543 311.665 118.84 311.867 119.081C312.083 119.309 312.349 119.48 312.665 119.594C312.995 119.708 313.33 119.765 313.672 119.765ZM322.527 124.61C322.425 124.61 322.337 124.572 322.261 124.496C322.185 124.42 322.147 124.331 322.147 124.23C322.147 124.179 322.153 124.129 322.166 124.078C322.178 124.027 322.204 123.964 322.242 123.888L323.705 120.411L320.076 111.842C320.012 111.69 319.981 111.582 319.981 111.519C319.981 111.405 320.019 111.31 320.095 111.234C320.171 111.158 320.266 111.12 320.38 111.12H321.311C321.437 111.12 321.539 111.152 321.615 111.215C321.691 111.278 321.741 111.354 321.767 111.443L324.655 118.359L327.619 111.443C327.657 111.354 327.707 111.278 327.771 111.215C327.847 111.152 327.954 111.12 328.094 111.12H328.987C329.101 111.12 329.196 111.158 329.272 111.234C329.348 111.31 329.386 111.399 329.386 111.5C329.386 111.563 329.354 111.677 329.291 111.842L323.895 124.287C323.857 124.376 323.8 124.452 323.724 124.515C323.66 124.578 323.559 124.61 323.42 124.61H322.527ZM434.782 121.19C434.022 121.19 433.389 121.057 432.882 120.791C432.375 120.512 431.97 120.17 431.666 119.765V120.563C431.666 120.69 431.622 120.797 431.533 120.886C431.457 120.962 431.356 121 431.229 121H430.355C430.228 121 430.121 120.962 430.032 120.886C429.956 120.797 429.918 120.69 429.918 120.563V107.947C429.918 107.82 429.956 107.719 430.032 107.643C430.121 107.554 430.228 107.51 430.355 107.51H431.267C431.406 107.51 431.514 107.554 431.59 107.643C431.666 107.719 431.704 107.82 431.704 107.947V112.317C432.021 111.924 432.426 111.595 432.92 111.329C433.427 111.063 434.047 110.93 434.782 110.93C435.491 110.93 436.093 111.057 436.587 111.31C437.094 111.551 437.505 111.886 437.822 112.317C438.151 112.748 438.398 113.235 438.563 113.78C438.728 114.325 438.816 114.895 438.829 115.49C438.842 115.693 438.848 115.883 438.848 116.06C438.848 116.237 438.842 116.427 438.829 116.63C438.816 117.238 438.728 117.814 438.563 118.359C438.398 118.904 438.151 119.391 437.822 119.822C437.505 120.24 437.094 120.576 436.587 120.829C436.093 121.07 435.491 121.19 434.782 121.19ZM434.383 119.651C435.042 119.651 435.555 119.512 435.922 119.233C436.302 118.942 436.574 118.568 436.739 118.112C436.904 117.643 436.999 117.143 437.024 116.611C437.037 116.244 437.037 115.876 437.024 115.509C436.999 114.977 436.904 114.483 436.739 114.027C436.574 113.558 436.302 113.185 435.922 112.906C435.555 112.615 435.042 112.469 434.383 112.469C433.788 112.469 433.294 112.608 432.901 112.887C432.508 113.166 432.211 113.52 432.008 113.951C431.818 114.382 431.717 114.819 431.704 115.262C431.691 115.465 431.685 115.712 431.685 116.003C431.685 116.282 431.691 116.522 431.704 116.725C431.729 117.194 431.831 117.656 432.008 118.112C432.198 118.555 432.483 118.923 432.863 119.214C433.256 119.505 433.762 119.651 434.383 119.651ZM441.636 121C441.509 121 441.402 120.962 441.313 120.886C441.237 120.797 441.199 120.69 441.199 120.563V111.557C441.199 111.43 441.237 111.329 441.313 111.253C441.402 111.164 441.509 111.12 441.636 111.12H442.548C442.675 111.12 442.776 111.164 442.852 111.253C442.928 111.329 442.966 111.43 442.966 111.557V120.563C442.966 120.69 442.928 120.797 442.852 120.886C442.776 120.962 442.675 121 442.548 121H441.636ZM441.484 109.277C441.357 109.277 441.25 109.239 441.161 109.163C441.085 109.074 441.047 108.967 441.047 108.84V107.814C441.047 107.687 441.085 107.586 441.161 107.51C441.25 107.421 441.357 107.377 441.484 107.377H442.681C442.808 107.377 442.909 107.421 442.985 107.51C443.074 107.586 443.118 107.687 443.118 107.814V108.84C443.118 108.967 443.074 109.074 442.985 109.163C442.909 109.239 442.808 109.277 442.681 109.277H441.484ZM446.423 121C446.296 121 446.189 120.962 446.1 120.886C446.024 120.797 445.986 120.69 445.986 120.563V111.576C445.986 111.449 446.024 111.342 446.1 111.253C446.189 111.164 446.296 111.12 446.423 111.12H447.297C447.424 111.12 447.531 111.164 447.62 111.253C447.709 111.342 447.753 111.449 447.753 111.576V112.412C448.006 111.981 448.355 111.658 448.798 111.443C449.241 111.228 449.773 111.12 450.394 111.12H451.154C451.281 111.12 451.382 111.164 451.458 111.253C451.534 111.329 451.572 111.43 451.572 111.557V112.336C451.572 112.463 451.534 112.564 451.458 112.64C451.382 112.716 451.281 112.754 451.154 112.754H450.014C449.33 112.754 448.792 112.957 448.399 113.362C448.006 113.755 447.81 114.293 447.81 114.977V120.563C447.81 120.69 447.766 120.797 447.677 120.886C447.588 120.962 447.481 121 447.354 121H446.423ZM457.061 121C456.352 121 455.775 120.867 455.332 120.601C454.889 120.322 454.566 119.936 454.363 119.442C454.16 118.935 454.059 118.34 454.059 117.656V112.64H452.577C452.45 112.64 452.343 112.602 452.254 112.526C452.178 112.437 452.14 112.33 452.14 112.203V111.557C452.14 111.43 452.178 111.329 452.254 111.253C452.343 111.164 452.45 111.12 452.577 111.12H454.059V107.947C454.059 107.82 454.097 107.719 454.173 107.643C454.262 107.554 454.369 107.51 454.496 107.51H455.389C455.516 107.51 455.617 107.554 455.693 107.643C455.782 107.719 455.826 107.82 455.826 107.947V111.12H458.182C458.309 111.12 458.41 111.164 458.486 111.253C458.575 111.329 458.619 111.43 458.619 111.557V112.203C458.619 112.33 458.575 112.437 458.486 112.526C458.41 112.602 458.309 112.64 458.182 112.64H455.826V117.523C455.826 118.118 455.927 118.587 456.13 118.929C456.333 119.271 456.694 119.442 457.213 119.442H458.372C458.499 119.442 458.6 119.486 458.676 119.575C458.765 119.651 458.809 119.752 458.809 119.879V120.563C458.809 120.69 458.765 120.797 458.676 120.886C458.6 120.962 458.499 121 458.372 121H457.061ZM461.082 121C460.955 121 460.847 120.962 460.759 120.886C460.683 120.797 460.645 120.69 460.645 120.563V107.947C460.645 107.82 460.683 107.719 460.759 107.643C460.847 107.554 460.955 107.51 461.082 107.51H462.032C462.171 107.51 462.279 107.554 462.355 107.643C462.431 107.719 462.469 107.82 462.469 107.947V112.374C462.811 111.943 463.229 111.595 463.723 111.329C464.217 111.063 464.844 110.93 465.604 110.93C466.427 110.93 467.124 111.114 467.694 111.481C468.276 111.836 468.713 112.336 469.005 112.982C469.309 113.615 469.461 114.356 469.461 115.205V120.563C469.461 120.69 469.423 120.797 469.347 120.886C469.271 120.962 469.163 121 469.024 121H468.074C467.947 121 467.839 120.962 467.751 120.886C467.675 120.797 467.637 120.69 467.637 120.563V115.3C467.637 114.413 467.421 113.723 466.991 113.229C466.56 112.722 465.927 112.469 465.091 112.469C464.305 112.469 463.672 112.722 463.191 113.229C462.709 113.723 462.469 114.413 462.469 115.3V120.563C462.469 120.69 462.431 120.797 462.355 120.886C462.279 120.962 462.171 121 462.032 121H461.082ZM475.814 121.19C475.117 121.19 474.516 121.07 474.009 120.829C473.502 120.576 473.084 120.24 472.755 119.822C472.438 119.391 472.198 118.904 472.033 118.359C471.881 117.814 471.792 117.238 471.767 116.63C471.754 116.427 471.748 116.237 471.748 116.06C471.748 115.883 471.754 115.693 471.767 115.49C471.792 114.895 471.881 114.325 472.033 113.78C472.198 113.235 472.438 112.748 472.755 112.317C473.084 111.886 473.502 111.551 474.009 111.31C474.516 111.057 475.117 110.93 475.814 110.93C476.561 110.93 477.182 111.063 477.676 111.329C478.17 111.595 478.575 111.924 478.892 112.317V107.947C478.892 107.82 478.93 107.719 479.006 107.643C479.095 107.554 479.202 107.51 479.329 107.51H480.241C480.368 107.51 480.469 107.554 480.545 107.643C480.634 107.719 480.678 107.82 480.678 107.947V120.563C480.678 120.69 480.634 120.797 480.545 120.886C480.469 120.962 480.368 121 480.241 121H479.386C479.247 121 479.139 120.962 479.063 120.886C478.987 120.797 478.949 120.69 478.949 120.563V119.765C478.632 120.17 478.221 120.512 477.714 120.791C477.207 121.057 476.574 121.19 475.814 121.19ZM476.213 119.651C476.846 119.651 477.353 119.505 477.733 119.214C478.113 118.923 478.398 118.555 478.588 118.112C478.778 117.656 478.879 117.194 478.892 116.725C478.905 116.522 478.911 116.282 478.911 116.003C478.911 115.712 478.905 115.465 478.892 115.262C478.879 114.819 478.772 114.382 478.569 113.951C478.379 113.52 478.088 113.166 477.695 112.887C477.315 112.608 476.821 112.469 476.213 112.469C475.567 112.469 475.054 112.615 474.674 112.906C474.294 113.185 474.022 113.558 473.857 114.027C473.692 114.483 473.597 114.977 473.572 115.509C473.559 115.876 473.559 116.244 473.572 116.611C473.597 117.143 473.692 117.643 473.857 118.112C474.022 118.568 474.294 118.942 474.674 119.233C475.054 119.512 475.567 119.651 476.213 119.651ZM486.259 121.19C485.625 121.19 485.049 121.063 484.53 120.81C484.01 120.557 483.592 120.215 483.276 119.784C482.959 119.353 482.801 118.866 482.801 118.321C482.801 117.447 483.155 116.75 483.865 116.231C484.574 115.712 485.499 115.37 486.639 115.205L489.47 114.806V114.255C489.47 113.647 489.292 113.172 488.938 112.83C488.596 112.488 488.032 112.317 487.247 112.317C486.677 112.317 486.214 112.431 485.86 112.659C485.518 112.887 485.277 113.178 485.138 113.533C485.062 113.723 484.929 113.818 484.739 113.818H483.884C483.744 113.818 483.637 113.78 483.561 113.704C483.497 113.615 483.466 113.514 483.466 113.4C483.466 113.21 483.535 112.976 483.675 112.697C483.827 112.418 484.055 112.146 484.359 111.88C484.663 111.614 485.049 111.392 485.518 111.215C485.999 111.025 486.582 110.93 487.266 110.93C488.026 110.93 488.665 111.031 489.185 111.234C489.704 111.424 490.109 111.684 490.401 112.013C490.705 112.342 490.92 112.716 491.047 113.134C491.186 113.552 491.256 113.976 491.256 114.407V120.563C491.256 120.69 491.211 120.797 491.123 120.886C491.047 120.962 490.945 121 490.819 121H489.945C489.805 121 489.698 120.962 489.622 120.886C489.546 120.797 489.508 120.69 489.508 120.563V119.746C489.343 119.974 489.121 120.202 488.843 120.43C488.564 120.645 488.216 120.829 487.798 120.981C487.38 121.12 486.867 121.19 486.259 121.19ZM486.658 119.765C487.177 119.765 487.652 119.657 488.083 119.442C488.513 119.214 488.849 118.866 489.09 118.397C489.343 117.928 489.47 117.339 489.47 116.63V116.098L487.266 116.421C486.366 116.548 485.689 116.763 485.233 117.067C484.777 117.358 484.549 117.732 484.549 118.188C484.549 118.543 484.65 118.84 484.853 119.081C485.068 119.309 485.334 119.48 485.651 119.594C485.98 119.708 486.316 119.765 486.658 119.765ZM495.512 124.61C495.411 124.61 495.322 124.572 495.246 124.496C495.17 124.42 495.132 124.331 495.132 124.23C495.132 124.179 495.138 124.129 495.151 124.078C495.164 124.027 495.189 123.964 495.227 123.888L496.69 120.411L493.061 111.842C492.998 111.69 492.966 111.582 492.966 111.519C492.966 111.405 493.004 111.31 493.08 111.234C493.156 111.158 493.251 111.12 493.365 111.12H494.296C494.423 111.12 494.524 111.152 494.6 111.215C494.676 111.278 494.727 111.354 494.752 111.443L497.64 118.359L500.604 111.443C500.642 111.354 500.693 111.278 500.756 111.215C500.832 111.152 500.94 111.12 501.079 111.12H501.972C502.086 111.12 502.181 111.158 502.257 111.234C502.333 111.31 502.371 111.399 502.371 111.5C502.371 111.563 502.339 111.677 502.276 111.842L496.88 124.287C496.842 124.376 496.785 124.452 496.709 124.515C496.646 124.578 496.544 124.61 496.405 124.61H495.512Z" fill="white"/>
<g filter="url(#filter0_d_213_116)">
<path d="M4 12C4 5.37258 9.37258 0 16 0H787C793.627 0 799 5.37258 799 12V43H4V12Z" fill="#242526"/>
</g>
<ellipse cx="29.1279" cy="21.9141" rx="5.84369" ry="6.72025" fill="#E65100"/>
<ellipse cx="48.4121" cy="21.9141" rx="5.84369" ry="6.72025" fill="#FFD600"/>
<ellipse cx="67.6962" cy="21.9141" rx="5.84369" ry="6.72025" fill="#4EC433"/>
<defs>
<filter id="filter0_d_213_116" x="0" y="0" width="803" height="51" filterUnits="userSpaceOnUse" color-interpolation-filters="sRGB">
<feFlood flood-opacity="0" result="BackgroundImageFix"/>
<feColorMatrix in="SourceAlpha" type="matrix" values="0 0 0 0 0 0 0 0 0 0 0 0 0 0 0 0 0 0 127 0" result="hardAlpha"/>
<feOffset dy="4"/>
<feGaussianBlur stdDeviation="2"/>
<feComposite in2="hardAlpha" operator="out"/>
<feColorMatrix type="matrix" values="0 0 0 0 0 0 0 0 0 0 0 0 0 0 0 0 0 0 0.25 0"/>
<feBlend mode="normal" in2="BackgroundImageFix" result="effect1_dropShadow_213_116"/>
<feBlend mode="normal" in="SourceGraphic" in2="effect1_dropShadow_213_116" result="shape"/>
</filter>
</defs>
</svg>
