<svg width="41" height="43" viewBox="0 0 41 43" fill="none" xmlns="http://www.w3.org/2000/svg">
<path d="M0.143555 42.7108V0.339355H40.1436V42.7108H0.143555Z" fill="#FFD600"/>
<path fill-rule="evenodd" clip-rule="evenodd" d="M23.2118 25.0804C23.9807 26.4034 24.8161 27.671 26.5861 27.671C28.0729 27.671 28.8525 26.8881 28.8525 25.8054C28.8525 24.5095 28.0461 24.0495 26.4105 23.2949L25.5139 22.8901C22.9262 21.7274 21.2053 20.2704 21.2053 17.1926C21.2053 14.3562 23.2552 12.1977 26.4584 12.1977C28.7395 12.1977 30.3783 13.0345 31.5602 15.2259L28.7672 17.1173C28.1526 15.9544 27.4883 15.4968 26.4584 15.4968C25.4071 15.4968 24.7417 16.1992 24.7417 17.1173C24.7417 18.2517 25.4083 18.711 26.9472 19.4136L27.8438 19.8185C30.8938 21.1942 32.6136 22.5995 32.6136 25.7583C32.6136 29.1621 30.0761 31.0274 26.6694 31.0274C23.3373 31.0274 21.4453 29.2563 20.392 27.0635L23.2118 25.0804ZM10.339 25.1769C10.9013 26.2433 11.7557 27.0635 12.9845 27.0635C14.16 27.0635 14.8366 26.5715 14.8366 24.6591V12.1965H18.5398V25.2617C18.5398 29.2242 16.3699 31.0274 13.2012 31.0274C10.3379 31.0274 8.27139 28.9725 7.4292 27.0635L10.339 25.1769Z" fill="#000001"/>
</svg>
