<svg width="29" height="41" viewBox="0 0 29 41" fill="none" xmlns="http://www.w3.org/2000/svg">
<path fill-rule="evenodd" clip-rule="evenodd" d="M13.5839 8.15259L3.18994 15.236C3.18994 15.236 -1.05658 18.6145 0.349963 23.5903C0.482051 24.0247 0.887691 25.5814 2.91563 27.0236C3.95223 27.7607 7.44281 29.0115 7.44281 29.0115L7.38979 29.0467L2.42675 32.3436C2.42675 32.3436 -0.857103 34.9699 1.35588 38.9681C2.62977 40.6113 5.00056 41.0582 6.88386 40.3334C8.76716 39.6085 16.2096 34.1689 16.2096 34.1689C16.2096 34.1689 18.6341 31.3565 18.2001 28.033C17.5337 23.9768 12.8417 22.169 12.8417 22.169L10.7116 21.2658L18.4113 15.7785L13.5839 8.15259Z" fill="#3D5CFF"/>
<mask id="mask0_20_420" style="mask-type:alpha" maskUnits="userSpaceOnUse" x="0" y="8" width="19" height="33">
<path fill-rule="evenodd" clip-rule="evenodd" d="M13.5839 8.15259L3.18994 15.236C3.18994 15.236 -1.05658 18.6145 0.349963 23.5903C0.482051 24.0247 0.887691 25.5814 2.91563 27.0236C3.95223 27.7607 7.44281 29.0115 7.44281 29.0115L7.38979 29.0467L2.42675 32.3436C2.42675 32.3436 -0.857103 34.9699 1.35588 38.9681C2.62977 40.6113 5.00056 41.0582 6.88386 40.3334C8.76716 39.6085 16.2096 34.1689 16.2096 34.1689C16.2096 34.1689 18.6341 31.3565 18.2001 28.033C17.5337 23.9768 12.8417 22.169 12.8417 22.169L10.7116 21.2658L18.4113 15.7785L13.5839 8.15259Z" fill="white"/>
</mask>
<g mask="url(#mask0_20_420)">
<path fill-rule="evenodd" clip-rule="evenodd" d="M5.2652 13.7988C5.2652 13.7988 3.13522 17.1162 6.19559 19.3672C9.51301 20.8652 10.6497 21.3037 10.6497 21.3037L15.3008 22.2273L18.4112 15.7785C18.4112 15.7785 13.787 8.47513 13.5839 8.15259C13.2646 8.38228 5.2652 13.7988 5.2652 13.7988Z" fill="#3D5CFF"/>
<path fill-rule="evenodd" clip-rule="evenodd" d="M5.2652 13.7988C5.2652 13.7988 3.13522 17.1162 6.19559 19.3672C9.51301 20.8652 10.6497 21.3037 10.6497 21.3037L15.3008 22.2273L18.4112 15.7785C18.4112 15.7785 13.787 8.47513 13.5839 8.15259C13.2646 8.38228 5.2652 13.7988 5.2652 13.7988Z" fill="white" fill-opacity="0.2"/>
<path fill-rule="evenodd" clip-rule="evenodd" d="M7.29284 29.0237L12.1157 31.1102C12.1157 31.1102 14.8837 33.2732 12.8005 36.3004C10.7174 39.3276 8.87179 40.0983 8.87179 40.0983L3.92456 41.7942L-0.207794 38.9557C-0.207794 38.9557 -1.04514 33.9414 -0.207794 33.6716C0.629546 33.4017 2.57209 30.6191 3.09714 30.3241C3.6222 30.0292 7.29284 29.0237 7.29284 29.0237Z" fill="#3D5CFF"/>
<path fill-rule="evenodd" clip-rule="evenodd" d="M7.29284 29.0237L12.1157 31.1102C12.1157 31.1102 14.8837 33.2732 12.8005 36.3004C10.7174 39.3276 8.87179 40.0983 8.87179 40.0983L3.92456 41.7942L-0.207794 38.9557C-0.207794 38.9557 -1.04514 33.9414 -0.207794 33.6716C0.629546 33.4017 2.57209 30.6191 3.09714 30.3241C3.6222 30.0292 7.29284 29.0237 7.29284 29.0237Z" fill="white" fill-opacity="0.2"/>
</g>
<path fill-rule="evenodd" clip-rule="evenodd" d="M21.3408 7.47525C22.6645 7.63474 23.4645 9.02038 22.9408 10.2465L19.6673 17.91C19.0199 19.4256 16.92 19.5516 16.096 18.1244L11.096 9.4641C10.2719 8.03681 11.431 6.28132 13.0673 6.47846L21.3408 7.47525Z" fill="#3D5CFF"/>
<path fill-rule="evenodd" clip-rule="evenodd" d="M21.3408 7.47525C22.6645 7.63474 23.4645 9.02038 22.9408 10.2465L19.6673 17.91C19.0199 19.4256 16.92 19.5516 16.096 18.1244L11.096 9.4641C10.2719 8.03681 11.431 6.28132 13.0673 6.47846L21.3408 7.47525Z" fill="white" fill-opacity="0.2"/>
</svg>
