<svg width="355" height="258" viewBox="0 0 355 258" fill="none" xmlns="http://www.w3.org/2000/svg">
<rect x="4" width="319" height="258" rx="12" fill="#242526"/>
<path d="M30.676 85.525C30.6 85.525 30.5177 85.4997 30.429 85.449C30.353 85.3983 30.2833 85.3603 30.22 85.335L24.235 81.212C24.045 81.0853 23.9057 80.9587 23.817 80.832C23.7283 80.6927 23.684 80.5343 23.684 80.357V80.015C23.684 79.8377 23.7283 79.6857 23.817 79.559C23.9057 79.4323 24.045 79.2993 24.235 79.16L30.22 75.056C30.2833 75.018 30.353 74.9737 30.429 74.923C30.5177 74.8723 30.6 74.847 30.676 74.847C30.7773 74.847 30.866 74.885 30.942 74.961C31.018 75.0243 31.056 75.1193 31.056 75.246V76.082C31.056 76.2213 31.018 76.3417 30.942 76.443C30.866 76.5317 30.7583 76.6203 30.619 76.709L25.527 80.186L30.619 83.663C30.7583 83.7643 30.866 83.8593 30.942 83.948C31.018 84.0367 31.056 84.157 31.056 84.309V85.145C31.056 85.259 31.018 85.354 30.942 85.43C30.866 85.4933 30.7773 85.525 30.676 85.525ZM58.8683 85.506C58.767 85.506 58.6783 85.4743 58.6023 85.411C58.5263 85.3477 58.4883 85.2527 58.4883 85.126V84.29C58.4883 84.138 58.52 84.0177 58.5833 83.929C58.6593 83.8403 58.7733 83.7517 58.9253 83.663L63.9983 80.186L58.9253 76.709C58.7733 76.6077 58.6593 76.5127 58.5833 76.424C58.52 76.3353 58.4883 76.215 58.4883 76.063V75.227C58.4883 75.1003 58.5263 75.0053 58.6023 74.942C58.6783 74.8787 58.767 74.847 58.8683 74.847C58.9443 74.847 59.0266 74.8723 59.1153 74.923C59.204 74.961 59.2736 74.999 59.3243 75.037L65.2903 79.141C65.493 79.2803 65.6323 79.4133 65.7083 79.54C65.797 79.6667 65.8413 79.825 65.8413 80.015V80.338C65.8413 80.5153 65.797 80.6737 65.7083 80.813C65.6323 80.9397 65.493 81.0727 65.2903 81.212L59.3243 85.316C59.2736 85.354 59.204 85.3983 59.1153 85.449C59.0266 85.487 58.9443 85.506 58.8683 85.506ZM30.676 116.525C30.6 116.525 30.5177 116.5 30.429 116.449C30.353 116.398 30.2833 116.36 30.22 116.335L24.235 112.212C24.045 112.085 23.9057 111.959 23.817 111.832C23.7283 111.693 23.684 111.534 23.684 111.357V111.015C23.684 110.838 23.7283 110.686 23.817 110.559C23.9057 110.432 24.045 110.299 24.235 110.16L30.22 106.056C30.2833 106.018 30.353 105.974 30.429 105.923C30.5177 105.872 30.6 105.847 30.676 105.847C30.7773 105.847 30.866 105.885 30.942 105.961C31.018 106.024 31.056 106.119 31.056 106.246V107.082C31.056 107.221 31.018 107.342 30.942 107.443C30.866 107.532 30.7583 107.62 30.619 107.709L25.527 111.186L30.619 114.663C30.7583 114.764 30.866 114.859 30.942 114.948C31.018 115.037 31.056 115.157 31.056 115.309V116.145C31.056 116.259 31.018 116.354 30.942 116.43C30.866 116.493 30.7773 116.525 30.676 116.525ZM57.4025 116.506C57.3011 116.506 57.2125 116.474 57.1365 116.411C57.0605 116.348 57.0225 116.253 57.0225 116.126V115.29C57.0225 115.138 57.0541 115.018 57.1175 114.929C57.1935 114.84 57.3075 114.752 57.4595 114.663L62.5325 111.186L57.4595 107.709C57.3075 107.608 57.1935 107.513 57.1175 107.424C57.0541 107.335 57.0225 107.215 57.0225 107.063V106.227C57.0225 106.1 57.0605 106.005 57.1365 105.942C57.2125 105.879 57.3011 105.847 57.4025 105.847C57.4785 105.847 57.5608 105.872 57.6495 105.923C57.7381 105.961 57.8078 105.999 57.8585 106.037L63.8245 110.141C64.0271 110.28 64.1665 110.413 64.2425 110.54C64.3311 110.667 64.3755 110.825 64.3755 111.015V111.338C64.3755 111.515 64.3311 111.674 64.2425 111.813C64.1665 111.94 64.0271 112.073 63.8245 112.212L57.8585 116.316C57.8078 116.354 57.7381 116.398 57.6495 116.449C57.5608 116.487 57.4785 116.506 57.4025 116.506ZM144.379 116.525C144.303 116.525 144.221 116.5 144.132 116.449C144.056 116.398 143.986 116.36 143.923 116.335L137.938 112.212C137.748 112.085 137.609 111.959 137.52 111.832C137.431 111.693 137.387 111.534 137.387 111.357V111.015C137.387 110.838 137.431 110.686 137.52 110.559C137.609 110.432 137.748 110.299 137.938 110.16L143.923 106.056C143.986 106.018 144.056 105.974 144.132 105.923C144.221 105.872 144.303 105.847 144.379 105.847C144.48 105.847 144.569 105.885 144.645 105.961C144.721 106.024 144.759 106.119 144.759 106.246V107.082C144.759 107.221 144.721 107.342 144.645 107.443C144.569 107.532 144.461 107.62 144.322 107.709L139.23 111.186L144.322 114.663C144.461 114.764 144.569 114.859 144.645 114.948C144.721 115.037 144.759 115.157 144.759 115.309V116.145C144.759 116.259 144.721 116.354 144.645 116.43C144.569 116.493 144.48 116.525 144.379 116.525ZM180.253 116.506C180.152 116.506 180.063 116.474 179.987 116.411C179.911 116.348 179.873 116.253 179.873 116.126V115.29C179.873 115.138 179.905 115.018 179.968 114.929C180.044 114.84 180.158 114.752 180.31 114.663L185.383 111.186L180.31 107.709C180.158 107.608 180.044 107.513 179.968 107.424C179.905 107.335 179.873 107.215 179.873 107.063V106.227C179.873 106.1 179.911 106.005 179.987 105.942C180.063 105.879 180.152 105.847 180.253 105.847C180.329 105.847 180.411 105.872 180.5 105.923C180.589 105.961 180.658 105.999 180.709 106.037L186.675 110.141C186.878 110.28 187.017 110.413 187.093 110.54C187.182 110.667 187.226 110.825 187.226 111.015V111.338C187.226 111.515 187.182 111.674 187.093 111.813C187.017 111.94 186.878 112.073 186.675 112.212L180.709 116.316C180.658 116.354 180.589 116.398 180.5 116.449C180.411 116.487 180.329 116.506 180.253 116.506ZM30.676 147.525C30.6 147.525 30.5177 147.5 30.429 147.449C30.353 147.398 30.2833 147.36 30.22 147.335L24.235 143.212C24.045 143.085 23.9057 142.959 23.817 142.832C23.7283 142.693 23.684 142.534 23.684 142.357V142.015C23.684 141.838 23.7283 141.686 23.817 141.559C23.9057 141.432 24.045 141.299 24.235 141.16L30.22 137.056C30.2833 137.018 30.353 136.974 30.429 136.923C30.5177 136.872 30.6 136.847 30.676 136.847C30.7773 136.847 30.866 136.885 30.942 136.961C31.018 137.024 31.056 137.119 31.056 137.246V138.082C31.056 138.221 31.018 138.342 30.942 138.443C30.866 138.532 30.7583 138.62 30.619 138.709L25.527 142.186L30.619 145.663C30.7583 145.764 30.866 145.859 30.942 145.948C31.018 146.037 31.056 146.157 31.056 146.309V147.145C31.056 147.259 31.018 147.354 30.942 147.43C30.866 147.493 30.7773 147.525 30.676 147.525ZM57.4025 147.506C57.3011 147.506 57.2125 147.474 57.1365 147.411C57.0605 147.348 57.0225 147.253 57.0225 147.126V146.29C57.0225 146.138 57.0541 146.018 57.1175 145.929C57.1935 145.84 57.3075 145.752 57.4595 145.663L62.5325 142.186L57.4595 138.709C57.3075 138.608 57.1935 138.513 57.1175 138.424C57.0541 138.335 57.0225 138.215 57.0225 138.063V137.227C57.0225 137.1 57.0605 137.005 57.1365 136.942C57.2125 136.879 57.3011 136.847 57.4025 136.847C57.4785 136.847 57.5608 136.872 57.6495 136.923C57.7381 136.961 57.8078 136.999 57.8585 137.037L63.8245 141.141C64.0271 141.28 64.1665 141.413 64.2425 141.54C64.3311 141.667 64.3755 141.825 64.3755 142.015V142.338C64.3755 142.515 64.3311 142.674 64.2425 142.813C64.1665 142.94 64.0271 143.073 63.8245 143.212L57.8585 147.316C57.8078 147.354 57.7381 147.398 57.6495 147.449C57.5608 147.487 57.4785 147.506 57.4025 147.506ZM116.529 147.525C116.453 147.525 116.37 147.5 116.282 147.449C116.206 147.398 116.136 147.36 116.073 147.335L110.088 143.212C109.898 143.085 109.758 142.959 109.67 142.832C109.581 142.693 109.537 142.534 109.537 142.357V142.015C109.537 141.838 109.581 141.686 109.67 141.559C109.758 141.432 109.898 141.299 110.088 141.16L116.073 137.056C116.136 137.018 116.206 136.974 116.282 136.923C116.37 136.872 116.453 136.847 116.529 136.847C116.63 136.847 116.719 136.885 116.795 136.961C116.871 137.024 116.909 137.119 116.909 137.246V138.082C116.909 138.221 116.871 138.342 116.795 138.443C116.719 138.532 116.611 138.62 116.472 138.709L111.38 142.186L116.472 145.663C116.611 145.764 116.719 145.859 116.795 145.948C116.871 146.037 116.909 146.157 116.909 146.309V147.145C116.909 147.259 116.871 147.354 116.795 147.43C116.719 147.493 116.63 147.525 116.529 147.525ZM152.402 147.506C152.301 147.506 152.212 147.474 152.136 147.411C152.06 147.348 152.022 147.253 152.022 147.126V146.29C152.022 146.138 152.054 146.018 152.117 145.929C152.193 145.84 152.307 145.752 152.459 145.663L157.532 142.186L152.459 138.709C152.307 138.608 152.193 138.513 152.117 138.424C152.054 138.335 152.022 138.215 152.022 138.063V137.227C152.022 137.1 152.06 137.005 152.136 136.942C152.212 136.879 152.301 136.847 152.402 136.847C152.478 136.847 152.561 136.872 152.649 136.923C152.738 136.961 152.808 136.999 152.858 137.037L158.824 141.141C159.027 141.28 159.166 141.413 159.242 141.54C159.331 141.667 159.375 141.825 159.375 142.015V142.338C159.375 142.515 159.331 142.674 159.242 142.813C159.166 142.94 159.027 143.073 158.824 143.212L152.858 147.316C152.808 147.354 152.738 147.398 152.649 147.449C152.561 147.487 152.478 147.506 152.402 147.506ZM30.676 178.525C30.6 178.525 30.5177 178.5 30.429 178.449C30.353 178.398 30.2833 178.36 30.22 178.335L24.235 174.212C24.045 174.085 23.9057 173.959 23.817 173.832C23.7283 173.693 23.684 173.534 23.684 173.357V173.015C23.684 172.838 23.7283 172.686 23.817 172.559C23.9057 172.432 24.045 172.299 24.235 172.16L30.22 168.056C30.2833 168.018 30.353 167.974 30.429 167.923C30.5177 167.872 30.6 167.847 30.676 167.847C30.7773 167.847 30.866 167.885 30.942 167.961C31.018 168.024 31.056 168.119 31.056 168.246V169.082C31.056 169.221 31.018 169.342 30.942 169.443C30.866 169.532 30.7583 169.62 30.619 169.709L25.527 173.186L30.619 176.663C30.7583 176.764 30.866 176.859 30.942 176.948C31.018 177.037 31.056 177.157 31.056 177.309V178.145C31.056 178.259 31.018 178.354 30.942 178.43C30.866 178.493 30.7773 178.525 30.676 178.525ZM57.4025 178.506C57.3011 178.506 57.2125 178.474 57.1365 178.411C57.0605 178.348 57.0225 178.253 57.0225 178.126V177.29C57.0225 177.138 57.0541 177.018 57.1175 176.929C57.1935 176.84 57.3075 176.752 57.4595 176.663L62.5325 173.186L57.4595 169.709C57.3075 169.608 57.1935 169.513 57.1175 169.424C57.0541 169.335 57.0225 169.215 57.0225 169.063V168.227C57.0225 168.1 57.0605 168.005 57.1365 167.942C57.2125 167.879 57.3011 167.847 57.4025 167.847C57.4785 167.847 57.5608 167.872 57.6495 167.923C57.7381 167.961 57.8078 167.999 57.8585 168.037L63.8245 172.141C64.0271 172.28 64.1665 172.413 64.2425 172.54C64.3311 172.667 64.3755 172.825 64.3755 173.015V173.338C64.3755 173.515 64.3311 173.674 64.2425 173.813C64.1665 173.94 64.0271 174.073 63.8245 174.212L57.8585 178.316C57.8078 178.354 57.7381 178.398 57.6495 178.449C57.5608 178.487 57.4785 178.506 57.4025 178.506ZM120.815 178.525C120.739 178.525 120.656 178.5 120.568 178.449C120.492 178.398 120.422 178.36 120.359 178.335L114.374 174.212C114.184 174.085 114.044 173.959 113.956 173.832C113.867 173.693 113.823 173.534 113.823 173.357V173.015C113.823 172.838 113.867 172.686 113.956 172.559C114.044 172.432 114.184 172.299 114.374 172.16L120.359 168.056C120.422 168.018 120.492 167.974 120.568 167.923C120.656 167.872 120.739 167.847 120.815 167.847C120.916 167.847 121.005 167.885 121.081 167.961C121.157 168.024 121.195 168.119 121.195 168.246V169.082C121.195 169.221 121.157 169.342 121.081 169.443C121.005 169.532 120.897 169.62 120.758 169.709L115.666 173.186L120.758 176.663C120.897 176.764 121.005 176.859 121.081 176.948C121.157 177.037 121.195 177.157 121.195 177.309V178.145C121.195 178.259 121.157 178.354 121.081 178.43C121.005 178.493 120.916 178.525 120.815 178.525ZM156.689 178.506C156.587 178.506 156.499 178.474 156.423 178.411C156.347 178.348 156.309 178.253 156.309 178.126V177.29C156.309 177.138 156.34 177.018 156.404 176.929C156.48 176.84 156.594 176.752 156.746 176.663L161.819 173.186L156.746 169.709C156.594 169.608 156.48 169.513 156.404 169.424C156.34 169.335 156.309 169.215 156.309 169.063V168.227C156.309 168.1 156.347 168.005 156.423 167.942C156.499 167.879 156.587 167.847 156.689 167.847C156.765 167.847 156.847 167.872 156.936 167.923C157.024 167.961 157.094 167.999 157.145 168.037L163.111 172.141C163.313 172.28 163.453 172.413 163.529 172.54C163.617 172.667 163.662 172.825 163.662 173.015V173.338C163.662 173.515 163.617 173.674 163.529 173.813C163.453 173.94 163.313 174.073 163.111 174.212L157.145 178.316C157.094 178.354 157.024 178.398 156.936 178.449C156.847 178.487 156.765 178.506 156.689 178.506ZM39.9905 209.525C39.9145 209.525 39.8321 209.5 39.7435 209.449C39.6675 209.398 39.5978 209.36 39.5345 209.335L33.5495 205.212C33.3595 205.085 33.2201 204.959 33.1315 204.832C33.0428 204.693 32.9985 204.534 32.9985 204.357V204.015C32.9985 203.838 33.0428 203.686 33.1315 203.559C33.2201 203.432 33.3595 203.299 33.5495 203.16L39.5345 199.056C39.5978 199.018 39.6675 198.974 39.7435 198.923C39.8321 198.872 39.9145 198.847 39.9905 198.847C40.0918 198.847 40.1805 198.885 40.2565 198.961C40.3325 199.024 40.3705 199.119 40.3705 199.246V200.082C40.3705 200.221 40.3325 200.342 40.2565 200.443C40.1805 200.532 40.0728 200.62 39.9335 200.709L34.8415 204.186L39.9335 207.663C40.0728 207.764 40.1805 207.859 40.2565 207.948C40.3325 208.037 40.3705 208.157 40.3705 208.309V209.145C40.3705 209.259 40.3325 209.354 40.2565 209.43C40.1805 209.493 40.0918 209.525 39.9905 209.525ZM81.9874 209.506C81.8861 209.506 81.7974 209.474 81.7214 209.411C81.6454 209.348 81.6074 209.253 81.6074 209.126V208.29C81.6074 208.138 81.6391 208.018 81.7024 207.929C81.7784 207.84 81.8924 207.752 82.0444 207.663L87.1174 204.186L82.0444 200.709C81.8924 200.608 81.7784 200.513 81.7024 200.424C81.6391 200.335 81.6074 200.215 81.6074 200.063V199.227C81.6074 199.1 81.6454 199.005 81.7214 198.942C81.7974 198.879 81.8861 198.847 81.9874 198.847C82.0634 198.847 82.1458 198.872 82.2344 198.923C82.3231 198.961 82.3928 198.999 82.4434 199.037L88.4094 203.141C88.6121 203.28 88.7514 203.413 88.8274 203.54C88.9161 203.667 88.9604 203.825 88.9604 204.015V204.338C88.9604 204.515 88.9161 204.674 88.8274 204.813C88.7514 204.94 88.6121 205.073 88.4094 205.212L82.4434 209.316C82.3928 209.354 82.3231 209.398 82.2344 209.449C82.1458 209.487 82.0634 209.506 81.9874 209.506Z" fill="#647DFF"/>
<path d="M42.4618 86.19C41.4991 86.19 40.6948 86.0063 40.0488 85.639C39.4028 85.2717 38.9088 84.765 38.5668 84.119C38.2248 83.4603 38.0348 82.713 37.9968 81.877C37.9841 81.6617 37.9778 81.3893 37.9778 81.06C37.9778 80.718 37.9841 80.4457 37.9968 80.243C38.0348 79.3943 38.2248 78.647 38.5668 78.001C38.9215 77.355 39.4218 76.8483 40.0678 76.481C40.7138 76.1137 41.5118 75.93 42.4618 75.93C43.4118 75.93 44.2098 76.1137 44.8558 76.481C45.5018 76.8483 45.9958 77.355 46.3378 78.001C46.6925 78.647 46.8888 79.3943 46.9268 80.243C46.9395 80.4457 46.9458 80.718 46.9458 81.06C46.9458 81.3893 46.9395 81.6617 46.9268 81.877C46.8888 82.713 46.6988 83.4603 46.3568 84.119C46.0148 84.765 45.5208 85.2717 44.8748 85.639C44.2288 86.0063 43.4245 86.19 42.4618 86.19ZM42.4618 84.727C43.2471 84.727 43.8741 84.48 44.3428 83.986C44.8115 83.4793 45.0648 82.7447 45.1028 81.782C45.1155 81.592 45.1218 81.3513 45.1218 81.06C45.1218 80.7687 45.1155 80.528 45.1028 80.338C45.0648 79.3753 44.8115 78.647 44.3428 78.153C43.8741 77.6463 43.2471 77.393 42.4618 77.393C41.6765 77.393 41.0431 77.6463 40.5618 78.153C40.0931 78.647 39.8461 79.3753 39.8208 80.338C39.8081 80.528 39.8018 80.7687 39.8018 81.06C39.8018 81.3513 39.8081 81.592 39.8208 81.782C39.8461 82.7447 40.0931 83.4793 40.5618 83.986C41.0431 84.48 41.6765 84.727 42.4618 84.727ZM49.7809 86C49.6543 86 49.5466 85.962 49.4579 85.886C49.3819 85.7973 49.3439 85.6897 49.3439 85.563V72.947C49.3439 72.8203 49.3819 72.719 49.4579 72.643C49.5466 72.5543 49.6543 72.51 49.7809 72.51H50.6739C50.8133 72.51 50.9209 72.5543 50.9969 72.643C51.0729 72.719 51.1109 72.8203 51.1109 72.947V85.563C51.1109 85.6897 51.0729 85.7973 50.9969 85.886C50.9209 85.962 50.8133 86 50.6739 86H49.7809ZM43.528 117C43.4013 117 43.2937 116.962 43.205 116.886C43.129 116.797 43.091 116.69 43.091 116.563V103.947C43.091 103.82 43.129 103.719 43.205 103.643C43.2937 103.554 43.4013 103.51 43.528 103.51H44.421C44.5603 103.51 44.668 103.554 44.744 103.643C44.82 103.719 44.858 103.82 44.858 103.947V116.563C44.858 116.69 44.82 116.797 44.744 116.886C44.668 116.962 44.5603 117 44.421 117H43.528ZM48.3147 117C48.188 117 48.0803 116.962 47.9917 116.886C47.9157 116.797 47.8777 116.69 47.8777 116.563V107.557C47.8777 107.43 47.9157 107.329 47.9917 107.253C48.0803 107.164 48.188 107.12 48.3147 107.12H49.2267C49.3533 107.12 49.4547 107.164 49.5307 107.253C49.6067 107.329 49.6447 107.43 49.6447 107.557V116.563C49.6447 116.69 49.6067 116.797 49.5307 116.886C49.4547 116.962 49.3533 117 49.2267 117H48.3147ZM48.1627 105.277C48.036 105.277 47.9283 105.239 47.8397 105.163C47.7637 105.074 47.7257 104.967 47.7257 104.84V103.814C47.7257 103.687 47.7637 103.586 47.8397 103.51C47.9283 103.421 48.036 103.377 48.1627 103.377H49.3597C49.4863 103.377 49.5877 103.421 49.6637 103.51C49.7523 103.586 49.7967 103.687 49.7967 103.814V104.84C49.7967 104.967 49.7523 105.074 49.6637 105.163C49.5877 105.239 49.4863 105.277 49.3597 105.277H48.1627ZM151.586 118.596C151.485 118.596 151.396 118.558 151.32 118.482C151.244 118.406 151.206 118.317 151.206 118.216C151.206 118.153 151.225 118.077 151.263 117.988L157.761 102.408C157.799 102.332 157.85 102.256 157.913 102.18C157.989 102.104 158.103 102.066 158.255 102.066H158.996C159.097 102.066 159.186 102.104 159.262 102.18C159.338 102.256 159.376 102.345 159.376 102.446C159.376 102.497 159.363 102.573 159.338 102.674L152.821 118.254C152.796 118.317 152.739 118.387 152.65 118.463C152.574 118.552 152.466 118.596 152.327 118.596H151.586ZM166.379 117C166.252 117 166.144 116.962 166.056 116.886C165.98 116.797 165.942 116.69 165.942 116.563V103.947C165.942 103.82 165.98 103.719 166.056 103.643C166.144 103.554 166.252 103.51 166.379 103.51H167.272C167.411 103.51 167.519 103.554 167.595 103.643C167.671 103.719 167.709 103.82 167.709 103.947V116.563C167.709 116.69 167.671 116.797 167.595 116.886C167.519 116.962 167.411 117 167.272 117H166.379ZM171.165 117C171.039 117 170.931 116.962 170.842 116.886C170.766 116.797 170.728 116.69 170.728 116.563V107.557C170.728 107.43 170.766 107.329 170.842 107.253C170.931 107.164 171.039 107.12 171.165 107.12H172.077C172.204 107.12 172.305 107.164 172.381 107.253C172.457 107.329 172.495 107.43 172.495 107.557V116.563C172.495 116.69 172.457 116.797 172.381 116.886C172.305 116.962 172.204 117 172.077 117H171.165ZM171.013 105.277C170.887 105.277 170.779 105.239 170.69 105.163C170.614 105.074 170.576 104.967 170.576 104.84V103.814C170.576 103.687 170.614 103.586 170.69 103.51C170.779 103.421 170.887 103.377 171.013 103.377H172.21C172.337 103.377 172.438 103.421 172.514 103.51C172.603 103.586 172.647 103.687 172.647 103.814V104.84C172.647 104.967 172.603 105.074 172.514 105.163C172.438 105.239 172.337 105.277 172.21 105.277H171.013ZM43.528 148C43.4013 148 43.2937 147.962 43.205 147.886C43.129 147.797 43.091 147.69 43.091 147.563V134.947C43.091 134.82 43.129 134.719 43.205 134.643C43.2937 134.554 43.4013 134.51 43.528 134.51H44.421C44.5603 134.51 44.668 134.554 44.744 134.643C44.82 134.719 44.858 134.82 44.858 134.947V147.563C44.858 147.69 44.82 147.797 44.744 147.886C44.668 147.962 44.5603 148 44.421 148H43.528ZM48.3147 148C48.188 148 48.0803 147.962 47.9917 147.886C47.9157 147.797 47.8777 147.69 47.8777 147.563V138.557C47.8777 138.43 47.9157 138.329 47.9917 138.253C48.0803 138.164 48.188 138.12 48.3147 138.12H49.2267C49.3533 138.12 49.4547 138.164 49.5307 138.253C49.6067 138.329 49.6447 138.43 49.6447 138.557V147.563C49.6447 147.69 49.6067 147.797 49.5307 147.886C49.4547 147.962 49.3533 148 49.2267 148H48.3147ZM48.1627 136.277C48.036 136.277 47.9283 136.239 47.8397 136.163C47.7637 136.074 47.7257 135.967 47.7257 135.84V134.814C47.7257 134.687 47.7637 134.586 47.8397 134.51C47.9283 134.421 48.036 134.377 48.1627 134.377H49.3597C49.4863 134.377 49.5877 134.421 49.6637 134.51C49.7523 134.586 49.7967 134.687 49.7967 134.814V135.84C49.7967 135.967 49.7523 136.074 49.6637 136.163C49.5877 136.239 49.4863 136.277 49.3597 136.277H48.1627ZM123.735 149.596C123.634 149.596 123.545 149.558 123.469 149.482C123.393 149.406 123.355 149.317 123.355 149.216C123.355 149.153 123.374 149.077 123.412 148.988L129.91 133.408C129.948 133.332 129.999 133.256 130.062 133.18C130.138 133.104 130.252 133.066 130.404 133.066H131.145C131.247 133.066 131.335 133.104 131.411 133.18C131.487 133.256 131.525 133.345 131.525 133.446C131.525 133.497 131.513 133.573 131.487 133.674L124.97 149.254C124.945 149.317 124.888 149.387 124.799 149.463C124.723 149.552 124.616 149.596 124.476 149.596H123.735ZM138.528 148C138.401 148 138.294 147.962 138.205 147.886C138.129 147.797 138.091 147.69 138.091 147.563V134.947C138.091 134.82 138.129 134.719 138.205 134.643C138.294 134.554 138.401 134.51 138.528 134.51H139.421C139.56 134.51 139.668 134.554 139.744 134.643C139.82 134.719 139.858 134.82 139.858 134.947V147.563C139.858 147.69 139.82 147.797 139.744 147.886C139.668 147.962 139.56 148 139.421 148H138.528ZM143.315 148C143.188 148 143.08 147.962 142.992 147.886C142.916 147.797 142.878 147.69 142.878 147.563V138.557C142.878 138.43 142.916 138.329 142.992 138.253C143.08 138.164 143.188 138.12 143.315 138.12H144.227C144.353 138.12 144.455 138.164 144.531 138.253C144.607 138.329 144.645 138.43 144.645 138.557V147.563C144.645 147.69 144.607 147.797 144.531 147.886C144.455 147.962 144.353 148 144.227 148H143.315ZM143.163 136.277C143.036 136.277 142.928 136.239 142.84 136.163C142.764 136.074 142.726 135.967 142.726 135.84V134.814C142.726 134.687 142.764 134.586 142.84 134.51C142.928 134.421 143.036 134.377 143.163 134.377H144.36C144.486 134.377 144.588 134.421 144.664 134.51C144.752 134.586 144.797 134.687 144.797 134.814V135.84C144.797 135.967 144.752 136.074 144.664 136.163C144.588 136.239 144.486 136.277 144.36 136.277H143.163ZM43.528 179C43.4013 179 43.2937 178.962 43.205 178.886C43.129 178.797 43.091 178.69 43.091 178.563V165.947C43.091 165.82 43.129 165.719 43.205 165.643C43.2937 165.554 43.4013 165.51 43.528 165.51H44.421C44.5603 165.51 44.668 165.554 44.744 165.643C44.82 165.719 44.858 165.82 44.858 165.947V178.563C44.858 178.69 44.82 178.797 44.744 178.886C44.668 178.962 44.5603 179 44.421 179H43.528ZM48.3147 179C48.188 179 48.0803 178.962 47.9917 178.886C47.9157 178.797 47.8777 178.69 47.8777 178.563V169.557C47.8777 169.43 47.9157 169.329 47.9917 169.253C48.0803 169.164 48.188 169.12 48.3147 169.12H49.2267C49.3533 169.12 49.4547 169.164 49.5307 169.253C49.6067 169.329 49.6447 169.43 49.6447 169.557V178.563C49.6447 178.69 49.6067 178.797 49.5307 178.886C49.4547 178.962 49.3533 179 49.2267 179H48.3147ZM48.1627 167.277C48.036 167.277 47.9283 167.239 47.8397 167.163C47.7637 167.074 47.7257 166.967 47.7257 166.84V165.814C47.7257 165.687 47.7637 165.586 47.8397 165.51C47.9283 165.421 48.036 165.377 48.1627 165.377H49.3597C49.4863 165.377 49.5877 165.421 49.6637 165.51C49.7523 165.586 49.7967 165.687 49.7967 165.814V166.84C49.7967 166.967 49.7523 167.074 49.6637 167.163C49.5877 167.239 49.4863 167.277 49.3597 167.277H48.1627ZM128.021 180.596C127.92 180.596 127.831 180.558 127.755 180.482C127.679 180.406 127.641 180.317 127.641 180.216C127.641 180.153 127.66 180.077 127.698 179.988L134.196 164.408C134.234 164.332 134.285 164.256 134.348 164.18C134.424 164.104 134.538 164.066 134.69 164.066H135.431C135.533 164.066 135.621 164.104 135.697 164.18C135.773 164.256 135.811 164.345 135.811 164.446C135.811 164.497 135.799 164.573 135.773 164.674L129.256 180.254C129.231 180.317 129.174 180.387 129.085 180.463C129.009 180.552 128.902 180.596 128.762 180.596H128.021ZM142.814 179C142.687 179 142.58 178.962 142.491 178.886C142.415 178.797 142.377 178.69 142.377 178.563V165.947C142.377 165.82 142.415 165.719 142.491 165.643C142.58 165.554 142.687 165.51 142.814 165.51H143.707C143.846 165.51 143.954 165.554 144.03 165.643C144.106 165.719 144.144 165.82 144.144 165.947V178.563C144.144 178.69 144.106 178.797 144.03 178.886C143.954 178.962 143.846 179 143.707 179H142.814ZM147.601 179C147.474 179 147.366 178.962 147.278 178.886C147.202 178.797 147.164 178.69 147.164 178.563V169.557C147.164 169.43 147.202 169.329 147.278 169.253C147.366 169.164 147.474 169.12 147.601 169.12H148.513C148.639 169.12 148.741 169.164 148.817 169.253C148.893 169.329 148.931 169.43 148.931 169.557V178.563C148.931 178.69 148.893 178.797 148.817 178.886C148.741 178.962 148.639 179 148.513 179H147.601ZM147.449 167.277C147.322 167.277 147.214 167.239 147.126 167.163C147.05 167.074 147.012 166.967 147.012 166.84V165.814C147.012 165.687 147.05 165.586 147.126 165.51C147.214 165.421 147.322 165.377 147.449 165.377H148.646C148.772 165.377 148.874 165.421 148.95 165.51C149.038 165.586 149.083 165.687 149.083 165.814V166.84C149.083 166.967 149.038 167.074 148.95 167.163C148.874 167.239 148.772 167.277 148.646 167.277H147.449ZM47.1972 211.596C47.0959 211.596 47.0072 211.558 46.9312 211.482C46.8552 211.406 46.8172 211.317 46.8172 211.216C46.8172 211.153 46.8362 211.077 46.8742 210.988L53.3722 195.408C53.4102 195.332 53.4609 195.256 53.5242 195.18C53.6002 195.104 53.7142 195.066 53.8662 195.066H54.6072C54.7086 195.066 54.7972 195.104 54.8732 195.18C54.9492 195.256 54.9872 195.345 54.9872 195.446C54.9872 195.497 54.9746 195.573 54.9492 195.674L48.4322 211.254C48.4069 211.317 48.3499 211.387 48.2612 211.463C48.1852 211.552 48.0776 211.596 47.9382 211.596H47.1972ZM65.5809 210.19C64.6183 210.19 63.8139 210.006 63.1679 209.639C62.5219 209.272 62.0279 208.765 61.6859 208.119C61.3439 207.46 61.1539 206.713 61.1159 205.877C61.1033 205.662 61.0969 205.389 61.0969 205.06C61.0969 204.718 61.1033 204.446 61.1159 204.243C61.1539 203.394 61.3439 202.647 61.6859 202.001C62.0406 201.355 62.5409 200.848 63.1869 200.481C63.8329 200.114 64.6309 199.93 65.5809 199.93C66.5309 199.93 67.3289 200.114 67.9749 200.481C68.6209 200.848 69.1149 201.355 69.4569 202.001C69.8116 202.647 70.0079 203.394 70.0459 204.243C70.0586 204.446 70.0649 204.718 70.0649 205.06C70.0649 205.389 70.0586 205.662 70.0459 205.877C70.0079 206.713 69.8179 207.46 69.4759 208.119C69.1339 208.765 68.6399 209.272 67.9939 209.639C67.3479 210.006 66.5436 210.19 65.5809 210.19ZM65.5809 208.727C66.3663 208.727 66.9933 208.48 67.4619 207.986C67.9306 207.479 68.1839 206.745 68.2219 205.782C68.2346 205.592 68.2409 205.351 68.2409 205.06C68.2409 204.769 68.2346 204.528 68.2219 204.338C68.1839 203.375 67.9306 202.647 67.4619 202.153C66.9933 201.646 66.3663 201.393 65.5809 201.393C64.7956 201.393 64.1623 201.646 63.6809 202.153C63.2123 202.647 62.9653 203.375 62.9399 204.338C62.9273 204.528 62.9209 204.769 62.9209 205.06C62.9209 205.351 62.9273 205.592 62.9399 205.782C62.9653 206.745 63.2123 207.479 63.6809 207.986C64.1623 208.48 64.7956 208.727 65.5809 208.727ZM72.9001 210C72.7734 210 72.6658 209.962 72.5771 209.886C72.5011 209.797 72.4631 209.69 72.4631 209.563V196.947C72.4631 196.82 72.5011 196.719 72.5771 196.643C72.6658 196.554 72.7734 196.51 72.9001 196.51H73.7931C73.9324 196.51 74.0401 196.554 74.1161 196.643C74.1921 196.719 74.2301 196.82 74.2301 196.947V209.563C74.2301 209.69 74.1921 209.797 74.1161 209.886C74.0401 209.962 73.9324 210 73.7931 210H72.9001Z" fill="white" fill-opacity="0.75"/>
<path d="M80.8189 117.19C79.6536 117.19 78.6846 116.975 77.9119 116.544C77.1519 116.113 76.5756 115.512 76.1829 114.739C75.7903 113.966 75.5749 113.067 75.5369 112.041C75.5243 111.522 75.5179 110.964 75.5179 110.369C75.5179 109.774 75.5243 109.204 75.5369 108.659C75.5749 107.633 75.7903 106.734 76.1829 105.961C76.5756 105.188 77.1519 104.587 77.9119 104.156C78.6846 103.725 79.6536 103.51 80.8189 103.51C81.6929 103.51 82.4593 103.63 83.1179 103.871C83.7766 104.112 84.3213 104.435 84.7519 104.84C85.1953 105.245 85.5309 105.701 85.7589 106.208C85.9869 106.702 86.1136 107.215 86.1389 107.747C86.1516 107.861 86.1136 107.956 86.0249 108.032C85.9489 108.108 85.8539 108.146 85.7399 108.146H84.6949C84.5809 108.146 84.4796 108.114 84.3909 108.051C84.3149 107.988 84.2579 107.874 84.2199 107.709C84.0046 106.721 83.5993 106.043 83.0039 105.676C82.4213 105.309 81.6866 105.125 80.7999 105.125C79.7866 105.125 78.9823 105.416 78.3869 105.999C77.7916 106.569 77.4686 107.487 77.4179 108.754C77.3799 109.793 77.3799 110.857 77.4179 111.946C77.4686 113.213 77.7916 114.137 78.3869 114.72C78.9823 115.29 79.7866 115.575 80.7999 115.575C81.6866 115.575 82.4213 115.391 83.0039 115.024C83.5993 114.657 84.0046 113.979 84.2199 112.991C84.2579 112.826 84.3149 112.712 84.3909 112.649C84.4796 112.586 84.5809 112.554 84.6949 112.554H85.7399C85.8539 112.554 85.9489 112.592 86.0249 112.668C86.1136 112.744 86.1516 112.839 86.1389 112.953C86.1136 113.485 85.9869 114.004 85.7589 114.511C85.5309 115.005 85.1953 115.455 84.7519 115.86C84.3213 116.265 83.7766 116.588 83.1179 116.829C82.4593 117.07 81.6929 117.19 80.8189 117.19ZM92.4852 117.19C91.5226 117.19 90.7182 117.006 90.0722 116.639C89.4262 116.272 88.9322 115.765 88.5902 115.119C88.2482 114.46 88.0582 113.713 88.0202 112.877C88.0076 112.662 88.0012 112.389 88.0012 112.06C88.0012 111.718 88.0076 111.446 88.0202 111.243C88.0582 110.394 88.2482 109.647 88.5902 109.001C88.9449 108.355 89.4452 107.848 90.0912 107.481C90.7372 107.114 91.5352 106.93 92.4852 106.93C93.4352 106.93 94.2332 107.114 94.8792 107.481C95.5252 107.848 96.0192 108.355 96.3612 109.001C96.7159 109.647 96.9122 110.394 96.9502 111.243C96.9629 111.446 96.9692 111.718 96.9692 112.06C96.9692 112.389 96.9629 112.662 96.9502 112.877C96.9122 113.713 96.7222 114.46 96.3802 115.119C96.0382 115.765 95.5442 116.272 94.8982 116.639C94.2522 117.006 93.4479 117.19 92.4852 117.19ZM92.4852 115.727C93.2706 115.727 93.8976 115.48 94.3662 114.986C94.8349 114.479 95.0882 113.745 95.1262 112.782C95.1389 112.592 95.1452 112.351 95.1452 112.06C95.1452 111.769 95.1389 111.528 95.1262 111.338C95.0882 110.375 94.8349 109.647 94.3662 109.153C93.8976 108.646 93.2706 108.393 92.4852 108.393C91.6999 108.393 91.0666 108.646 90.5852 109.153C90.1166 109.647 89.8696 110.375 89.8442 111.338C89.8316 111.528 89.8252 111.769 89.8252 112.06C89.8252 112.351 89.8316 112.592 89.8442 112.782C89.8696 113.745 90.1166 114.479 90.5852 114.986C91.0666 115.48 91.6999 115.727 92.4852 115.727ZM100.662 117C100.535 117 100.428 116.962 100.339 116.886C100.263 116.797 100.225 116.69 100.225 116.563V108.64H98.6101C98.4834 108.64 98.3757 108.602 98.2871 108.526C98.2111 108.437 98.1731 108.33 98.1731 108.203V107.557C98.1731 107.43 98.2111 107.329 98.2871 107.253C98.3757 107.164 98.4834 107.12 98.6101 107.12H100.225V106.17C100.225 105.524 100.333 104.96 100.548 104.479C100.763 103.985 101.105 103.605 101.574 103.339C102.055 103.073 102.695 102.94 103.493 102.94H104.633C104.76 102.94 104.861 102.984 104.937 103.073C105.013 103.149 105.051 103.25 105.051 103.377V104.023C105.051 104.15 105.013 104.257 104.937 104.346C104.861 104.422 104.76 104.46 104.633 104.46H103.531C102.936 104.46 102.53 104.618 102.315 104.935C102.1 105.239 101.992 105.682 101.992 106.265V107.12H106.058V106.17C106.058 105.524 106.159 104.96 106.362 104.479C106.577 103.985 106.919 103.605 107.388 103.339C107.869 103.073 108.509 102.94 109.307 102.94H110.447C110.574 102.94 110.675 102.984 110.751 103.073C110.84 103.149 110.884 103.25 110.884 103.377V104.023C110.884 104.15 110.84 104.257 110.751 104.346C110.675 104.422 110.574 104.46 110.447 104.46H109.345C108.75 104.46 108.344 104.618 108.129 104.935C107.914 105.239 107.806 105.682 107.806 106.265V107.12H110.257C110.384 107.12 110.485 107.164 110.561 107.253C110.65 107.329 110.694 107.43 110.694 107.557V108.203C110.694 108.33 110.65 108.437 110.561 108.526C110.485 108.602 110.384 108.64 110.257 108.64H107.806V116.563C107.806 116.69 107.768 116.797 107.692 116.886C107.616 116.962 107.508 117 107.369 117H106.495C106.368 117 106.261 116.962 106.172 116.886C106.096 116.797 106.058 116.69 106.058 116.563V108.64H101.992V116.563C101.992 116.69 101.948 116.797 101.859 116.886C101.783 116.962 101.682 117 101.555 117H100.662ZM116.121 117.19C114.817 117.19 113.778 116.791 113.005 115.993C112.233 115.182 111.808 114.08 111.732 112.687C111.72 112.522 111.713 112.313 111.713 112.06C111.713 111.794 111.72 111.579 111.732 111.414C111.783 110.515 111.992 109.729 112.359 109.058C112.727 108.374 113.227 107.848 113.86 107.481C114.506 107.114 115.26 106.93 116.121 106.93C117.084 106.93 117.888 107.133 118.534 107.538C119.193 107.943 119.693 108.52 120.035 109.267C120.377 110.014 120.548 110.888 120.548 111.889V112.212C120.548 112.351 120.504 112.459 120.415 112.535C120.339 112.611 120.238 112.649 120.111 112.649H113.537C113.537 112.662 113.537 112.687 113.537 112.725C113.537 112.763 113.537 112.795 113.537 112.82C113.563 113.339 113.677 113.827 113.879 114.283C114.082 114.726 114.373 115.087 114.753 115.366C115.133 115.645 115.589 115.784 116.121 115.784C116.577 115.784 116.957 115.714 117.261 115.575C117.565 115.436 117.812 115.284 118.002 115.119C118.192 114.942 118.319 114.809 118.382 114.72C118.496 114.555 118.585 114.46 118.648 114.435C118.712 114.397 118.813 114.378 118.952 114.378H119.864C119.991 114.378 120.092 114.416 120.168 114.492C120.257 114.555 120.295 114.65 120.282 114.777C120.27 114.967 120.168 115.201 119.978 115.48C119.788 115.746 119.516 116.012 119.161 116.278C118.807 116.544 118.376 116.766 117.869 116.943C117.363 117.108 116.78 117.19 116.121 117.19ZM113.537 111.338H118.743V111.281C118.743 110.711 118.636 110.204 118.42 109.761C118.218 109.318 117.92 108.969 117.527 108.716C117.135 108.45 116.666 108.317 116.121 108.317C115.577 108.317 115.108 108.45 114.715 108.716C114.335 108.969 114.044 109.318 113.841 109.761C113.639 110.204 113.537 110.711 113.537 111.281V111.338ZM126.753 117.19C125.448 117.19 124.41 116.791 123.637 115.993C122.864 115.182 122.44 114.08 122.364 112.687C122.351 112.522 122.345 112.313 122.345 112.06C122.345 111.794 122.351 111.579 122.364 111.414C122.415 110.515 122.624 109.729 122.991 109.058C123.358 108.374 123.859 107.848 124.492 107.481C125.138 107.114 125.892 106.93 126.753 106.93C127.716 106.93 128.52 107.133 129.166 107.538C129.825 107.943 130.325 108.52 130.667 109.267C131.009 110.014 131.18 110.888 131.18 111.889V112.212C131.18 112.351 131.136 112.459 131.047 112.535C130.971 112.611 130.87 112.649 130.743 112.649H124.169C124.169 112.662 124.169 112.687 124.169 112.725C124.169 112.763 124.169 112.795 124.169 112.82C124.194 113.339 124.308 113.827 124.511 114.283C124.714 114.726 125.005 115.087 125.385 115.366C125.765 115.645 126.221 115.784 126.753 115.784C127.209 115.784 127.589 115.714 127.893 115.575C128.197 115.436 128.444 115.284 128.634 115.119C128.824 114.942 128.951 114.809 129.014 114.72C129.128 114.555 129.217 114.46 129.28 114.435C129.343 114.397 129.445 114.378 129.584 114.378H130.496C130.623 114.378 130.724 114.416 130.8 114.492C130.889 114.555 130.927 114.65 130.914 114.777C130.901 114.967 130.8 115.201 130.61 115.48C130.42 115.746 130.148 116.012 129.793 116.278C129.438 116.544 129.008 116.766 128.501 116.943C127.994 117.108 127.412 117.19 126.753 117.19ZM124.169 111.338H129.375V111.281C129.375 110.711 129.267 110.204 129.052 109.761C128.849 109.318 128.552 108.969 128.159 108.716C127.766 108.45 127.298 108.317 126.753 108.317C126.208 108.317 125.74 108.45 125.347 108.716C124.967 108.969 124.676 109.318 124.473 109.761C124.27 110.204 124.169 110.711 124.169 111.281V111.338ZM78.8925 148C78.7658 148 78.6582 147.962 78.5695 147.886C78.4935 147.797 78.4555 147.69 78.4555 147.563V136.391H74.8075C74.6808 136.391 74.5732 136.353 74.4845 136.277C74.4085 136.188 74.3705 136.081 74.3705 135.954V135.156C74.3705 135.017 74.4085 134.909 74.4845 134.833C74.5732 134.744 74.6808 134.7 74.8075 134.7H83.9655C84.1048 134.7 84.2125 134.744 84.2885 134.833C84.3772 134.909 84.4215 135.017 84.4215 135.156V135.954C84.4215 136.081 84.3772 136.188 84.2885 136.277C84.2125 136.353 84.1048 136.391 83.9655 136.391H80.3365V147.563C80.3365 147.69 80.2922 147.797 80.2035 147.886C80.1275 147.962 80.0198 148 79.8805 148H78.8925ZM88.4191 148.19C87.1144 148.19 86.0757 147.791 85.3031 146.993C84.5304 146.182 84.1061 145.08 84.0301 143.687C84.0174 143.522 84.0111 143.313 84.0111 143.06C84.0111 142.794 84.0174 142.579 84.0301 142.414C84.0807 141.515 84.2897 140.729 84.6571 140.058C85.0244 139.374 85.5247 138.848 86.1581 138.481C86.8041 138.114 87.5577 137.93 88.4191 137.93C89.3817 137.93 90.1861 138.133 90.8321 138.538C91.4907 138.943 91.9911 139.52 92.3331 140.267C92.6751 141.014 92.8461 141.888 92.8461 142.889V143.212C92.8461 143.351 92.8017 143.459 92.7131 143.535C92.6371 143.611 92.5357 143.649 92.4091 143.649H85.8351C85.8351 143.662 85.8351 143.687 85.8351 143.725C85.8351 143.763 85.8351 143.795 85.8351 143.82C85.8604 144.339 85.9744 144.827 86.1771 145.283C86.3797 145.726 86.6711 146.087 87.0511 146.366C87.4311 146.645 87.8871 146.784 88.4191 146.784C88.8751 146.784 89.2551 146.714 89.5591 146.575C89.8631 146.436 90.1101 146.284 90.3001 146.119C90.4901 145.942 90.6167 145.809 90.6801 145.72C90.7941 145.555 90.8827 145.46 90.9461 145.435C91.0094 145.397 91.1107 145.378 91.2501 145.378H92.1621C92.2887 145.378 92.3901 145.416 92.4661 145.492C92.5547 145.555 92.5927 145.65 92.5801 145.777C92.5674 145.967 92.4661 146.201 92.2761 146.48C92.0861 146.746 91.8137 147.012 91.4591 147.278C91.1044 147.544 90.6737 147.766 90.1671 147.943C89.6604 148.108 89.0777 148.19 88.4191 148.19ZM85.8351 142.338H91.0411V142.281C91.0411 141.711 90.9334 141.204 90.7181 140.761C90.5154 140.318 90.2177 139.969 89.8251 139.716C89.4324 139.45 88.9637 139.317 88.4191 139.317C87.8744 139.317 87.4057 139.45 87.0131 139.716C86.6331 139.969 86.3417 140.318 86.1391 140.761C85.9364 141.204 85.8351 141.711 85.8351 142.281V142.338ZM97.8729 148.19C97.2396 148.19 96.6632 148.063 96.1439 147.81C95.6246 147.557 95.2066 147.215 94.8899 146.784C94.5732 146.353 94.4149 145.866 94.4149 145.321C94.4149 144.447 94.7696 143.75 95.4789 143.231C96.1882 142.712 97.1129 142.37 98.2529 142.205L101.084 141.806V141.255C101.084 140.647 100.907 140.172 100.552 139.83C100.21 139.488 99.6462 139.317 98.8609 139.317C98.2909 139.317 97.8286 139.431 97.4739 139.659C97.1319 139.887 96.8912 140.178 96.7519 140.533C96.6759 140.723 96.5429 140.818 96.3529 140.818H95.4979C95.3586 140.818 95.2509 140.78 95.1749 140.704C95.1116 140.615 95.0799 140.514 95.0799 140.4C95.0799 140.21 95.1496 139.976 95.2889 139.697C95.4409 139.418 95.6689 139.146 95.9729 138.88C96.2769 138.614 96.6632 138.392 97.1319 138.215C97.6132 138.025 98.1959 137.93 98.8799 137.93C99.6399 137.93 100.28 138.031 100.799 138.234C101.318 138.424 101.724 138.684 102.015 139.013C102.319 139.342 102.534 139.716 102.661 140.134C102.8 140.552 102.87 140.976 102.87 141.407V147.563C102.87 147.69 102.826 147.797 102.737 147.886C102.661 147.962 102.56 148 102.433 148H101.559C101.42 148 101.312 147.962 101.236 147.886C101.16 147.797 101.122 147.69 101.122 147.563V146.746C100.957 146.974 100.736 147.202 100.457 147.43C100.178 147.645 99.8299 147.829 99.4119 147.981C98.9939 148.12 98.4809 148.19 97.8729 148.19ZM98.2719 146.765C98.7912 146.765 99.2662 146.657 99.6969 146.442C100.128 146.214 100.463 145.866 100.704 145.397C100.957 144.928 101.084 144.339 101.084 143.63V143.098L98.8799 143.421C97.9806 143.548 97.3029 143.763 96.8469 144.067C96.3909 144.358 96.1629 144.732 96.1629 145.188C96.1629 145.543 96.2642 145.84 96.4669 146.081C96.6822 146.309 96.9482 146.48 97.2649 146.594C97.5942 146.708 97.9299 146.765 98.2719 146.765ZM76.4679 179C76.3413 179 76.2336 178.962 76.1449 178.886C76.0689 178.797 76.0309 178.69 76.0309 178.563V166.156C76.0309 166.017 76.0689 165.909 76.1449 165.833C76.2336 165.744 76.3413 165.7 76.4679 165.7H77.4179C77.5699 165.7 77.6839 165.738 77.7599 165.814C77.8359 165.89 77.8803 165.953 77.8929 166.004L81.9209 173.68L85.9679 166.004C85.9933 165.953 86.0376 165.89 86.1009 165.814C86.1769 165.738 86.2909 165.7 86.4429 165.7H87.3739C87.5133 165.7 87.6209 165.744 87.6969 165.833C87.7856 165.909 87.8299 166.017 87.8299 166.156V178.563C87.8299 178.69 87.7856 178.797 87.6969 178.886C87.6209 178.962 87.5133 179 87.3739 179H86.4429C86.3163 179 86.2086 178.962 86.1199 178.886C86.0439 178.797 86.0059 178.69 86.0059 178.563V169.215L82.8329 175.409C82.7823 175.536 82.7063 175.637 82.6049 175.713C82.5036 175.776 82.3769 175.808 82.2249 175.808H81.6359C81.4713 175.808 81.3383 175.776 81.2369 175.713C81.1483 175.637 81.0723 175.536 81.0089 175.409L77.8359 169.215V178.563C77.8359 178.69 77.7916 178.797 77.7029 178.886C77.6269 178.962 77.5256 179 77.3989 179H76.4679ZM91.3059 179C91.1792 179 91.0716 178.962 90.9829 178.886C90.9069 178.797 90.8689 178.69 90.8689 178.563V169.557C90.8689 169.43 90.9069 169.329 90.9829 169.253C91.0716 169.164 91.1792 169.12 91.3059 169.12H92.2179C92.3446 169.12 92.4459 169.164 92.5219 169.253C92.5979 169.329 92.6359 169.43 92.6359 169.557V178.563C92.6359 178.69 92.5979 178.797 92.5219 178.886C92.4459 178.962 92.3446 179 92.2179 179H91.3059ZM91.1539 167.277C91.0272 167.277 90.9196 167.239 90.8309 167.163C90.7549 167.074 90.7169 166.967 90.7169 166.84V165.814C90.7169 165.687 90.7549 165.586 90.8309 165.51C90.9196 165.421 91.0272 165.377 91.1539 165.377H92.3509C92.4776 165.377 92.5789 165.421 92.6549 165.51C92.7436 165.586 92.7879 165.687 92.7879 165.814V166.84C92.7879 166.967 92.7436 167.074 92.6549 167.163C92.5789 167.239 92.4776 167.277 92.3509 167.277H91.1539ZM95.9265 179C95.7998 179 95.6921 178.962 95.6035 178.886C95.5275 178.797 95.4895 178.69 95.4895 178.563V165.947C95.4895 165.82 95.5275 165.719 95.6035 165.643C95.6921 165.554 95.7998 165.51 95.9265 165.51H96.8195C96.9588 165.51 97.0665 165.554 97.1425 165.643C97.2185 165.719 97.2565 165.82 97.2565 165.947V178.563C97.2565 178.69 97.2185 178.797 97.1425 178.886C97.0665 178.962 96.9588 179 96.8195 179H95.9265ZM100.547 179C100.42 179 100.312 178.962 100.224 178.886C100.148 178.797 100.11 178.69 100.11 178.563V165.947C100.11 165.82 100.148 165.719 100.224 165.643C100.312 165.554 100.42 165.51 100.547 165.51H101.44C101.566 165.51 101.668 165.554 101.744 165.643C101.832 165.719 101.877 165.82 101.877 165.947V172.559L105.62 169.443C105.772 169.316 105.886 169.234 105.962 169.196C106.05 169.145 106.19 169.12 106.38 169.12H107.387C107.501 169.12 107.596 169.158 107.672 169.234C107.748 169.31 107.786 169.405 107.786 169.519C107.786 169.57 107.767 169.627 107.729 169.69C107.703 169.753 107.646 169.817 107.558 169.88L103.169 173.528L108.033 178.259C108.185 178.386 108.261 178.5 108.261 178.601C108.261 178.715 108.223 178.81 108.147 178.886C108.071 178.962 107.976 179 107.862 179H106.874C106.684 179 106.544 178.981 106.456 178.943C106.367 178.892 106.253 178.804 106.114 178.677L101.877 174.63V178.563C101.877 178.69 101.832 178.797 101.744 178.886C101.668 178.962 101.566 179 101.44 179H100.547Z" fill="white"/>
<g filter="url(#filter0_d_195_24)">
<path d="M4 12C4 5.37258 9.37258 0 16 0H311C317.627 0 323 5.37258 323 12V43H4V12Z" fill="#242526"/>
</g>
<ellipse cx="29.1279" cy="21.9139" rx="5.84369" ry="6.72025" fill="#E65100"/>
<ellipse cx="48.4121" cy="21.9139" rx="5.84369" ry="6.72025" fill="#FFD600"/>
<ellipse cx="67.6962" cy="21.9139" rx="5.84369" ry="6.72025" fill="#4EC433"/>
<defs>
<filter id="filter0_d_195_24" x="0" y="0" width="327" height="51" filterUnits="userSpaceOnUse" color-interpolation-filters="sRGB">
<feFlood flood-opacity="0" result="BackgroundImageFix"/>
<feColorMatrix in="SourceAlpha" type="matrix" values="0 0 0 0 0 0 0 0 0 0 0 0 0 0 0 0 0 0 127 0" result="hardAlpha"/>
<feOffset dy="4"/>
<feGaussianBlur stdDeviation="2"/>
<feComposite in2="hardAlpha" operator="out"/>
<feColorMatrix type="matrix" values="0 0 0 0 0 0 0 0 0 0 0 0 0 0 0 0 0 0 0.25 0"/>
<feBlend mode="normal" in2="BackgroundImageFix" result="effect1_dropShadow_195_24"/>
<feBlend mode="normal" in="SourceGraphic" in2="effect1_dropShadow_195_24" result="shape"/>
</filter>
</defs>
</svg>
