<svg width="594" height="160" viewBox="0 0 594 160" fill="none" xmlns="http://www.w3.org/2000/svg">
<rect x="4" width="586" height="160" rx="12" fill="#242526"/>
<path d="M30.676 85.525C30.6 85.525 30.5177 85.4997 30.429 85.449C30.353 85.3983 30.2833 85.3603 30.22 85.335L24.235 81.212C24.045 81.0853 23.9057 80.9587 23.817 80.832C23.7283 80.6927 23.684 80.5343 23.684 80.357V80.015C23.684 79.8377 23.7283 79.6857 23.817 79.559C23.9057 79.4323 24.045 79.2993 24.235 79.16L30.22 75.056C30.2833 75.018 30.353 74.9737 30.429 74.923C30.5177 74.8723 30.6 74.847 30.676 74.847C30.7773 74.847 30.866 74.885 30.942 74.961C31.018 75.0243 31.056 75.1193 31.056 75.246V76.082C31.056 76.2213 31.018 76.3417 30.942 76.443C30.866 76.5317 30.7583 76.6203 30.619 76.709L25.527 80.186L30.619 83.663C30.7583 83.7643 30.866 83.8593 30.942 83.948C31.018 84.0367 31.056 84.157 31.056 84.309V85.145C31.056 85.259 31.018 85.354 30.942 85.43C30.866 85.4933 30.7773 85.525 30.676 85.525ZM89.632 85.506C89.5306 85.506 89.442 85.4743 89.366 85.411C89.29 85.3477 89.252 85.2527 89.252 85.126V84.29C89.252 84.138 89.2836 84.0177 89.347 83.929C89.423 83.8403 89.537 83.7517 89.689 83.663L94.762 80.186L89.689 76.709C89.537 76.6077 89.423 76.5127 89.347 76.424C89.2836 76.3353 89.252 76.215 89.252 76.063V75.227C89.252 75.1003 89.29 75.0053 89.366 74.942C89.442 74.8787 89.5306 74.847 89.632 74.847C89.708 74.847 89.7903 74.8723 89.879 74.923C89.9676 74.961 90.0373 74.999 90.088 75.037L96.054 79.141C96.2566 79.2803 96.396 79.4133 96.472 79.54C96.5606 79.6667 96.605 79.825 96.605 80.015V80.338C96.605 80.5153 96.5606 80.6737 96.472 80.813C96.396 80.9397 96.2566 81.0727 96.054 81.212L90.088 85.316C90.0373 85.354 89.9676 85.3983 89.879 85.449C89.7903 85.487 89.708 85.506 89.632 85.506ZM330.817 85.525C330.741 85.525 330.658 85.4997 330.57 85.449C330.494 85.3983 330.424 85.3603 330.361 85.335L324.376 81.212C324.186 81.0853 324.046 80.9587 323.958 80.832C323.869 80.6927 323.825 80.5343 323.825 80.357V80.015C323.825 79.8377 323.869 79.6857 323.958 79.559C324.046 79.4323 324.186 79.2993 324.376 79.16L330.361 75.056C330.424 75.018 330.494 74.9737 330.57 74.923C330.658 74.8723 330.741 74.847 330.817 74.847C330.918 74.847 331.007 74.885 331.083 74.961C331.159 75.0243 331.197 75.1193 331.197 75.246V76.082C331.197 76.2213 331.159 76.3417 331.083 76.443C331.007 76.5317 330.899 76.6203 330.76 76.709L325.668 80.186L330.76 83.663C330.899 83.7643 331.007 83.8593 331.083 83.948C331.159 84.0367 331.197 84.157 331.197 84.309V85.145C331.197 85.259 331.159 85.354 331.083 85.43C331.007 85.4933 330.918 85.525 330.817 85.525ZM403.577 85.506C403.476 85.506 403.387 85.4743 403.311 85.411C403.235 85.3477 403.197 85.2527 403.197 85.126V84.29C403.197 84.138 403.229 84.0177 403.292 83.929C403.368 83.8403 403.482 83.7517 403.634 83.663L408.707 80.186L403.634 76.709C403.482 76.6077 403.368 76.5127 403.292 76.424C403.229 76.3353 403.197 76.215 403.197 76.063V75.227C403.197 75.1003 403.235 75.0053 403.311 74.942C403.387 74.8787 403.476 74.847 403.577 74.847C403.653 74.847 403.736 74.8723 403.824 74.923C403.913 74.961 403.983 74.999 404.033 75.037L409.999 79.141C410.202 79.2803 410.341 79.4133 410.417 79.54C410.506 79.6667 410.55 79.825 410.55 80.015V80.338C410.55 80.5153 410.506 80.6737 410.417 80.813C410.341 80.9397 410.202 81.0727 409.999 81.212L404.033 85.316C403.983 85.354 403.913 85.3983 403.824 85.449C403.736 85.487 403.653 85.506 403.577 85.506Z" fill="#647DFF"/>
<path d="M41.8348 86.19C41.1255 86.19 40.5175 86.1013 40.0108 85.924C39.5041 85.7467 39.0925 85.5313 38.7758 85.278C38.4591 85.0247 38.2185 84.7713 38.0538 84.518C37.9018 84.2647 37.8195 84.062 37.8068 83.91C37.7941 83.7707 37.8385 83.663 37.9398 83.587C38.0411 83.511 38.1425 83.473 38.2438 83.473H39.0798C39.1558 83.473 39.2128 83.4857 39.2508 83.511C39.3015 83.5237 39.3648 83.5743 39.4408 83.663C39.6055 83.8403 39.7891 84.0177 39.9918 84.195C40.1945 84.3723 40.4415 84.518 40.7328 84.632C41.0368 84.746 41.4105 84.803 41.8538 84.803C42.4998 84.803 43.0318 84.6827 43.4498 84.442C43.8678 84.1887 44.0768 83.8213 44.0768 83.34C44.0768 83.0233 43.9881 82.77 43.8108 82.58C43.6461 82.39 43.3421 82.219 42.8988 82.067C42.4681 81.915 41.8728 81.7567 41.1128 81.592C40.3528 81.4147 39.7511 81.1993 39.3078 80.946C38.8645 80.68 38.5478 80.3697 38.3578 80.015C38.1678 79.6477 38.0728 79.236 38.0728 78.78C38.0728 78.3113 38.2121 77.8617 38.4908 77.431C38.7695 76.9877 39.1748 76.6267 39.7068 76.348C40.2515 76.0693 40.9291 75.93 41.7398 75.93C42.3985 75.93 42.9621 76.0123 43.4308 76.177C43.8995 76.3417 44.2858 76.5507 44.5898 76.804C44.8938 77.0447 45.1218 77.2853 45.2738 77.526C45.4258 77.7667 45.5081 77.9693 45.5208 78.134C45.5335 78.2607 45.4955 78.3683 45.4068 78.457C45.3181 78.533 45.2168 78.571 45.1028 78.571H44.3048C44.2161 78.571 44.1401 78.552 44.0768 78.514C44.0261 78.476 43.9755 78.4317 43.9248 78.381C43.7981 78.2163 43.6461 78.0517 43.4688 77.887C43.3041 77.7223 43.0825 77.5893 42.8038 77.488C42.5378 77.374 42.1831 77.317 41.7398 77.317C41.1065 77.317 40.6315 77.45 40.3148 77.716C39.9981 77.982 39.8398 78.3177 39.8398 78.723C39.8398 78.9637 39.9095 79.179 40.0488 79.369C40.1881 79.559 40.4541 79.73 40.8468 79.882C41.2395 80.034 41.8221 80.1987 42.5948 80.376C43.4308 80.5407 44.0895 80.7623 44.5708 81.041C45.0521 81.3197 45.3941 81.6427 45.5968 82.01C45.7995 82.3773 45.9008 82.8017 45.9008 83.283C45.9008 83.815 45.7425 84.3027 45.4258 84.746C45.1218 85.1893 44.6658 85.544 44.0578 85.81C43.4625 86.0633 42.7215 86.19 41.8348 86.19ZM48.5373 86C48.4107 86 48.303 85.962 48.2143 85.886C48.1383 85.7973 48.1003 85.6897 48.1003 85.563V76.557C48.1003 76.4303 48.1383 76.329 48.2143 76.253C48.303 76.1643 48.4107 76.12 48.5373 76.12H49.3923C49.519 76.12 49.6203 76.1643 49.6963 76.253C49.785 76.329 49.8293 76.4303 49.8293 76.557V77.222C50.1207 76.8293 50.488 76.519 50.9313 76.291C51.3747 76.0503 51.9067 75.93 52.5273 75.93C53.9587 75.9173 54.972 76.5 55.5673 77.678C55.8587 77.146 56.283 76.7217 56.8403 76.405C57.3977 76.0883 58.031 75.93 58.7403 75.93C59.399 75.93 59.9943 76.082 60.5263 76.386C61.071 76.69 61.4953 77.1523 61.7993 77.773C62.116 78.381 62.2743 79.1473 62.2743 80.072V85.563C62.2743 85.6897 62.23 85.7973 62.1413 85.886C62.0653 85.962 61.964 86 61.8373 86H60.9443C60.8177 86 60.71 85.962 60.6213 85.886C60.5453 85.7973 60.5073 85.6897 60.5073 85.563V80.243C60.5073 79.5337 60.406 78.9763 60.2033 78.571C60.0007 78.1657 59.7283 77.8807 59.3863 77.716C59.0443 77.5513 58.6707 77.469 58.2653 77.469C57.936 77.469 57.6003 77.5513 57.2583 77.716C56.9163 77.8807 56.6313 78.1657 56.4033 78.571C56.188 78.9763 56.0803 79.5337 56.0803 80.243V85.563C56.0803 85.6897 56.036 85.7973 55.9473 85.886C55.8713 85.962 55.77 86 55.6433 86H54.7503C54.6237 86 54.516 85.962 54.4273 85.886C54.3513 85.7973 54.3133 85.6897 54.3133 85.563V80.243C54.3133 79.5337 54.2057 78.9763 53.9903 78.571C53.775 78.1657 53.4963 77.8807 53.1543 77.716C52.8123 77.5513 52.4513 77.469 52.0713 77.469C51.742 77.469 51.4063 77.5513 51.0643 77.716C50.7223 77.8807 50.4373 78.1657 50.2093 78.571C49.994 78.9763 49.8863 79.5273 49.8863 80.224V85.563C49.8863 85.6897 49.842 85.7973 49.7533 85.886C49.6773 85.962 49.576 86 49.4493 86H48.5373ZM67.7401 86.19C67.1068 86.19 66.5304 86.0633 66.0111 85.81C65.4918 85.5567 65.0738 85.2147 64.7571 84.784C64.4404 84.3533 64.2821 83.8657 64.2821 83.321C64.2821 82.447 64.6368 81.7503 65.3461 81.231C66.0554 80.7117 66.9801 80.3697 68.1201 80.205L70.9511 79.806V79.255C70.9511 78.647 70.7738 78.172 70.4191 77.83C70.0771 77.488 69.5134 77.317 68.7281 77.317C68.1581 77.317 67.6958 77.431 67.3411 77.659C66.9991 77.887 66.7584 78.1783 66.6191 78.533C66.5431 78.723 66.4101 78.818 66.2201 78.818H65.3651C65.2258 78.818 65.1181 78.78 65.0421 78.704C64.9788 78.6153 64.9471 78.514 64.9471 78.4C64.9471 78.21 65.0168 77.9757 65.1561 77.697C65.3081 77.4183 65.5361 77.146 65.8401 76.88C66.1441 76.614 66.5304 76.3923 66.9991 76.215C67.4804 76.025 68.0631 75.93 68.7471 75.93C69.5071 75.93 70.1468 76.0313 70.6661 76.234C71.1854 76.424 71.5908 76.6837 71.8821 77.013C72.1861 77.3423 72.4014 77.716 72.5281 78.134C72.6674 78.552 72.7371 78.9763 72.7371 79.407V85.563C72.7371 85.6897 72.6928 85.7973 72.6041 85.886C72.5281 85.962 72.4268 86 72.3001 86H71.4261C71.2868 86 71.1791 85.962 71.1031 85.886C71.0271 85.7973 70.9891 85.6897 70.9891 85.563V84.746C70.8244 84.974 70.6028 85.202 70.3241 85.43C70.0454 85.6453 69.6971 85.829 69.2791 85.981C68.8611 86.1203 68.3481 86.19 67.7401 86.19ZM68.1391 84.765C68.6584 84.765 69.1334 84.6573 69.5641 84.442C69.9948 84.214 70.3304 83.8657 70.5711 83.397C70.8244 82.9283 70.9511 82.3393 70.9511 81.63V81.098L68.7471 81.421C67.8478 81.5477 67.1701 81.763 66.7141 82.067C66.2581 82.3583 66.0301 82.732 66.0301 83.188C66.0301 83.5427 66.1314 83.8403 66.3341 84.081C66.5494 84.309 66.8154 84.48 67.1321 84.594C67.4614 84.708 67.7971 84.765 68.1391 84.765ZM75.9245 86C75.7978 86 75.6902 85.962 75.6015 85.886C75.5255 85.7973 75.4875 85.6897 75.4875 85.563V72.947C75.4875 72.8203 75.5255 72.719 75.6015 72.643C75.6902 72.5543 75.7978 72.51 75.9245 72.51H76.8175C76.9568 72.51 77.0645 72.5543 77.1405 72.643C77.2165 72.719 77.2545 72.8203 77.2545 72.947V85.563C77.2545 85.6897 77.2165 85.7973 77.1405 85.886C77.0645 85.962 76.9568 86 76.8175 86H75.9245ZM80.5446 86C80.418 86 80.3103 85.962 80.2216 85.886C80.1456 85.7973 80.1076 85.6897 80.1076 85.563V72.947C80.1076 72.8203 80.1456 72.719 80.2216 72.643C80.3103 72.5543 80.418 72.51 80.5446 72.51H81.4376C81.577 72.51 81.6846 72.5543 81.7606 72.643C81.8366 72.719 81.8746 72.8203 81.8746 72.947V85.563C81.8746 85.6897 81.8366 85.7973 81.7606 85.886C81.6846 85.962 81.577 86 81.4376 86H80.5446ZM338.023 87.596C337.922 87.596 337.833 87.558 337.757 87.482C337.681 87.406 337.643 87.3173 337.643 87.216C337.643 87.1527 337.662 87.0767 337.7 86.988L344.198 71.408C344.236 71.332 344.287 71.256 344.35 71.18C344.426 71.104 344.54 71.066 344.692 71.066H345.433C345.535 71.066 345.623 71.104 345.699 71.18C345.775 71.256 345.813 71.3447 345.813 71.446C345.813 71.4967 345.801 71.5727 345.775 71.674L339.258 87.254C339.233 87.3173 339.176 87.387 339.087 87.463C339.011 87.5517 338.904 87.596 338.764 87.596H338.023ZM355.78 86.19C355.071 86.19 354.463 86.1013 353.956 85.924C353.449 85.7467 353.038 85.5313 352.721 85.278C352.404 85.0247 352.164 84.7713 351.999 84.518C351.847 84.2647 351.765 84.062 351.752 83.91C351.739 83.7707 351.784 83.663 351.885 83.587C351.986 83.511 352.088 83.473 352.189 83.473H353.025C353.101 83.473 353.158 83.4857 353.196 83.511C353.247 83.5237 353.31 83.5743 353.386 83.663C353.551 83.8403 353.734 84.0177 353.937 84.195C354.14 84.3723 354.387 84.518 354.678 84.632C354.982 84.746 355.356 84.803 355.799 84.803C356.445 84.803 356.977 84.6827 357.395 84.442C357.813 84.1887 358.022 83.8213 358.022 83.34C358.022 83.0233 357.933 82.77 357.756 82.58C357.591 82.39 357.287 82.219 356.844 82.067C356.413 81.915 355.818 81.7567 355.058 81.592C354.298 81.4147 353.696 81.1993 353.253 80.946C352.81 80.68 352.493 80.3697 352.303 80.015C352.113 79.6477 352.018 79.236 352.018 78.78C352.018 78.3113 352.157 77.8617 352.436 77.431C352.715 76.9877 353.12 76.6267 353.652 76.348C354.197 76.0693 354.874 75.93 355.685 75.93C356.344 75.93 356.907 76.0123 357.376 76.177C357.845 76.3417 358.231 76.5507 358.535 76.804C358.839 77.0447 359.067 77.2853 359.219 77.526C359.371 77.7667 359.453 77.9693 359.466 78.134C359.479 78.2607 359.441 78.3683 359.352 78.457C359.263 78.533 359.162 78.571 359.048 78.571H358.25C358.161 78.571 358.085 78.552 358.022 78.514C357.971 78.476 357.921 78.4317 357.87 78.381C357.743 78.2163 357.591 78.0517 357.414 77.887C357.249 77.7223 357.028 77.5893 356.749 77.488C356.483 77.374 356.128 77.317 355.685 77.317C355.052 77.317 354.577 77.45 354.26 77.716C353.943 77.982 353.785 78.3177 353.785 78.723C353.785 78.9637 353.855 79.179 353.994 79.369C354.133 79.559 354.399 79.73 354.792 79.882C355.185 80.034 355.767 80.1987 356.54 80.376C357.376 80.5407 358.035 80.7623 358.516 81.041C358.997 81.3197 359.339 81.6427 359.542 82.01C359.745 82.3773 359.846 82.8017 359.846 83.283C359.846 83.815 359.688 84.3027 359.371 84.746C359.067 85.1893 358.611 85.544 358.003 85.81C357.408 86.0633 356.667 86.19 355.78 86.19ZM362.483 86C362.356 86 362.248 85.962 362.16 85.886C362.084 85.7973 362.046 85.6897 362.046 85.563V76.557C362.046 76.4303 362.084 76.329 362.16 76.253C362.248 76.1643 362.356 76.12 362.483 76.12H363.338C363.464 76.12 363.566 76.1643 363.642 76.253C363.73 76.329 363.775 76.4303 363.775 76.557V77.222C364.066 76.8293 364.433 76.519 364.877 76.291C365.32 76.0503 365.852 75.93 366.473 75.93C367.904 75.9173 368.917 76.5 369.513 77.678C369.804 77.146 370.228 76.7217 370.786 76.405C371.343 76.0883 371.976 75.93 372.686 75.93C373.344 75.93 373.94 76.082 374.472 76.386C375.016 76.69 375.441 77.1523 375.745 77.773C376.061 78.381 376.22 79.1473 376.22 80.072V85.563C376.22 85.6897 376.175 85.7973 376.087 85.886C376.011 85.962 375.909 86 375.783 86H374.89C374.763 86 374.655 85.962 374.567 85.886C374.491 85.7973 374.453 85.6897 374.453 85.563V80.243C374.453 79.5337 374.351 78.9763 374.149 78.571C373.946 78.1657 373.674 77.8807 373.332 77.716C372.99 77.5513 372.616 77.469 372.211 77.469C371.881 77.469 371.546 77.5513 371.204 77.716C370.862 77.8807 370.577 78.1657 370.349 78.571C370.133 78.9763 370.026 79.5337 370.026 80.243V85.563C370.026 85.6897 369.981 85.7973 369.893 85.886C369.817 85.962 369.715 86 369.589 86H368.696C368.569 86 368.461 85.962 368.373 85.886C368.297 85.7973 368.259 85.6897 368.259 85.563V80.243C368.259 79.5337 368.151 78.9763 367.936 78.571C367.72 78.1657 367.442 77.8807 367.1 77.716C366.758 77.5513 366.397 77.469 366.017 77.469C365.687 77.469 365.352 77.5513 365.01 77.716C364.668 77.8807 364.383 78.1657 364.155 78.571C363.939 78.9763 363.832 79.5273 363.832 80.224V85.563C363.832 85.6897 363.787 85.7973 363.699 85.886C363.623 85.962 363.521 86 363.395 86H362.483ZM381.685 86.19C381.052 86.19 380.476 86.0633 379.956 85.81C379.437 85.5567 379.019 85.2147 378.702 84.784C378.386 84.3533 378.227 83.8657 378.227 83.321C378.227 82.447 378.582 81.7503 379.291 81.231C380.001 80.7117 380.925 80.3697 382.065 80.205L384.896 79.806V79.255C384.896 78.647 384.719 78.172 384.364 77.83C384.022 77.488 383.459 77.317 382.673 77.317C382.103 77.317 381.641 77.431 381.286 77.659C380.944 77.887 380.704 78.1783 380.564 78.533C380.488 78.723 380.355 78.818 380.165 78.818H379.31C379.171 78.818 379.063 78.78 378.987 78.704C378.924 78.6153 378.892 78.514 378.892 78.4C378.892 78.21 378.962 77.9757 379.101 77.697C379.253 77.4183 379.481 77.146 379.785 76.88C380.089 76.614 380.476 76.3923 380.944 76.215C381.426 76.025 382.008 75.93 382.692 75.93C383.452 75.93 384.092 76.0313 384.611 76.234C385.131 76.424 385.536 76.6837 385.827 77.013C386.131 77.3423 386.347 77.716 386.473 78.134C386.613 78.552 386.682 78.9763 386.682 79.407V85.563C386.682 85.6897 386.638 85.7973 386.549 85.886C386.473 85.962 386.372 86 386.245 86H385.371C385.232 86 385.124 85.962 385.048 85.886C384.972 85.7973 384.934 85.6897 384.934 85.563V84.746C384.77 84.974 384.548 85.202 384.269 85.43C383.991 85.6453 383.642 85.829 383.224 85.981C382.806 86.1203 382.293 86.19 381.685 86.19ZM382.084 84.765C382.604 84.765 383.079 84.6573 383.509 84.442C383.94 84.214 384.276 83.8657 384.516 83.397C384.77 82.9283 384.896 82.3393 384.896 81.63V81.098L382.692 81.421C381.793 81.5477 381.115 81.763 380.659 82.067C380.203 82.3583 379.975 82.732 379.975 83.188C379.975 83.5427 380.077 83.8403 380.279 84.081C380.495 84.309 380.761 84.48 381.077 84.594C381.407 84.708 381.742 84.765 382.084 84.765ZM389.87 86C389.743 86 389.635 85.962 389.547 85.886C389.471 85.7973 389.433 85.6897 389.433 85.563V72.947C389.433 72.8203 389.471 72.719 389.547 72.643C389.635 72.5543 389.743 72.51 389.87 72.51H390.763C390.902 72.51 391.01 72.5543 391.086 72.643C391.162 72.719 391.2 72.8203 391.2 72.947V85.563C391.2 85.6897 391.162 85.7973 391.086 85.886C391.01 85.962 390.902 86 390.763 86H389.87ZM394.49 86C394.363 86 394.256 85.962 394.167 85.886C394.091 85.7973 394.053 85.6897 394.053 85.563V72.947C394.053 72.8203 394.091 72.719 394.167 72.643C394.256 72.5543 394.363 72.51 394.49 72.51H395.383C395.522 72.51 395.63 72.5543 395.706 72.643C395.782 72.719 395.82 72.8203 395.82 72.947V85.563C395.82 85.6897 395.782 85.7973 395.706 85.886C395.63 85.962 395.522 86 395.383 86H394.49Z" fill="white" fill-opacity="0.75"/>
<path d="M106.947 86C106.821 86 106.713 85.962 106.624 85.886C106.548 85.7973 106.51 85.6897 106.51 85.563V74.391H102.862C102.736 74.391 102.628 74.353 102.539 74.277C102.463 74.1883 102.425 74.0807 102.425 73.954V73.156C102.425 73.0167 102.463 72.909 102.539 72.833C102.628 72.7443 102.736 72.7 102.862 72.7H112.02C112.16 72.7 112.267 72.7443 112.343 72.833C112.432 72.909 112.476 73.0167 112.476 73.156V73.954C112.476 74.0807 112.432 74.1883 112.343 74.277C112.267 74.353 112.16 74.391 112.02 74.391H108.391V85.563C108.391 85.6897 108.347 85.7973 108.258 85.886C108.182 85.962 108.075 86 107.935 86H106.947ZM114.425 86C114.299 86 114.191 85.962 114.102 85.886C114.026 85.7973 113.988 85.6897 113.988 85.563V72.947C113.988 72.8203 114.026 72.719 114.102 72.643C114.191 72.5543 114.299 72.51 114.425 72.51H115.375C115.515 72.51 115.622 72.5543 115.698 72.643C115.774 72.719 115.812 72.8203 115.812 72.947V77.374C116.154 76.9433 116.572 76.595 117.066 76.329C117.56 76.063 118.187 75.93 118.947 75.93C119.771 75.93 120.467 76.1137 121.037 76.481C121.62 76.8357 122.057 77.336 122.348 77.982C122.652 78.6153 122.804 79.3563 122.804 80.205V85.563C122.804 85.6897 122.766 85.7973 122.69 85.886C122.614 85.962 122.507 86 122.367 86H121.417C121.291 86 121.183 85.962 121.094 85.886C121.018 85.7973 120.98 85.6897 120.98 85.563V80.3C120.98 79.4133 120.765 78.723 120.334 78.229C119.904 77.7223 119.27 77.469 118.434 77.469C117.649 77.469 117.016 77.7223 116.534 78.229C116.053 78.723 115.812 79.4133 115.812 80.3V85.563C115.812 85.6897 115.774 85.7973 115.698 85.886C115.622 85.962 115.515 86 115.375 86H114.425ZM125.985 86C125.858 86 125.75 85.962 125.662 85.886C125.586 85.7973 125.548 85.6897 125.548 85.563V76.557C125.548 76.4303 125.586 76.329 125.662 76.253C125.75 76.1643 125.858 76.12 125.985 76.12H126.897C127.023 76.12 127.125 76.1643 127.201 76.253C127.277 76.329 127.315 76.4303 127.315 76.557V85.563C127.315 85.6897 127.277 85.7973 127.201 85.886C127.125 85.962 127.023 86 126.897 86H125.985ZM125.833 74.277C125.706 74.277 125.598 74.239 125.51 74.163C125.434 74.0743 125.396 73.9667 125.396 73.84V72.814C125.396 72.6873 125.434 72.586 125.51 72.51C125.598 72.4213 125.706 72.377 125.833 72.377H127.03C127.156 72.377 127.258 72.4213 127.334 72.51C127.422 72.586 127.467 72.6873 127.467 72.814V73.84C127.467 73.9667 127.422 74.0743 127.334 74.163C127.258 74.239 127.156 74.277 127.03 74.277H125.833ZM133.68 86.19C132.971 86.19 132.363 86.1013 131.856 85.924C131.35 85.7467 130.938 85.5313 130.621 85.278C130.305 85.0247 130.064 84.7713 129.899 84.518C129.747 84.2647 129.665 84.062 129.652 83.91C129.64 83.7707 129.684 83.663 129.785 83.587C129.887 83.511 129.988 83.473 130.089 83.473H130.925C131.001 83.473 131.058 83.4857 131.096 83.511C131.147 83.5237 131.21 83.5743 131.286 83.663C131.451 83.8403 131.635 84.0177 131.837 84.195C132.04 84.3723 132.287 84.518 132.578 84.632C132.882 84.746 133.256 84.803 133.699 84.803C134.345 84.803 134.877 84.6827 135.295 84.442C135.713 84.1887 135.922 83.8213 135.922 83.34C135.922 83.0233 135.834 82.77 135.656 82.58C135.492 82.39 135.188 82.219 134.744 82.067C134.314 81.915 133.718 81.7567 132.958 81.592C132.198 81.4147 131.597 81.1993 131.153 80.946C130.71 80.68 130.393 80.3697 130.203 80.015C130.013 79.6477 129.918 79.236 129.918 78.78C129.918 78.3113 130.058 77.8617 130.336 77.431C130.615 76.9877 131.02 76.6267 131.552 76.348C132.097 76.0693 132.775 75.93 133.585 75.93C134.244 75.93 134.808 76.0123 135.276 76.177C135.745 76.3417 136.131 76.5507 136.435 76.804C136.739 77.0447 136.967 77.2853 137.119 77.526C137.271 77.7667 137.354 77.9693 137.366 78.134C137.379 78.2607 137.341 78.3683 137.252 78.457C137.164 78.533 137.062 78.571 136.948 78.571H136.15C136.062 78.571 135.986 78.552 135.922 78.514C135.872 78.476 135.821 78.4317 135.77 78.381C135.644 78.2163 135.492 78.0517 135.314 77.887C135.15 77.7223 134.928 77.5893 134.649 77.488C134.383 77.374 134.029 77.317 133.585 77.317C132.952 77.317 132.477 77.45 132.16 77.716C131.844 77.982 131.685 78.3177 131.685 78.723C131.685 78.9637 131.755 79.179 131.894 79.369C132.034 79.559 132.3 79.73 132.692 79.882C133.085 80.034 133.668 80.1987 134.44 80.376C135.276 80.5407 135.935 80.7623 136.416 81.041C136.898 81.3197 137.24 81.6427 137.442 82.01C137.645 82.3773 137.746 82.8017 137.746 83.283C137.746 83.815 137.588 84.3027 137.271 84.746C136.967 85.1893 136.511 85.544 135.903 85.81C135.308 86.0633 134.567 86.19 133.68 86.19ZM145.04 86C144.914 86 144.806 85.962 144.717 85.886C144.641 85.7973 144.603 85.6897 144.603 85.563V76.557C144.603 76.4303 144.641 76.329 144.717 76.253C144.806 76.1643 144.914 76.12 145.04 76.12H145.952C146.079 76.12 146.18 76.1643 146.256 76.253C146.332 76.329 146.37 76.4303 146.37 76.557V85.563C146.37 85.6897 146.332 85.7973 146.256 85.886C146.18 85.962 146.079 86 145.952 86H145.04ZM144.888 74.277C144.762 74.277 144.654 74.239 144.565 74.163C144.489 74.0743 144.451 73.9667 144.451 73.84V72.814C144.451 72.6873 144.489 72.586 144.565 72.51C144.654 72.4213 144.762 72.377 144.888 72.377H146.085C146.212 72.377 146.313 72.4213 146.389 72.51C146.478 72.586 146.522 72.6873 146.522 72.814V73.84C146.522 73.9667 146.478 74.0743 146.389 74.163C146.313 74.239 146.212 74.277 146.085 74.277H144.888ZM152.736 86.19C152.027 86.19 151.419 86.1013 150.912 85.924C150.405 85.7467 149.994 85.5313 149.677 85.278C149.36 85.0247 149.12 84.7713 148.955 84.518C148.803 84.2647 148.721 84.062 148.708 83.91C148.695 83.7707 148.74 83.663 148.841 83.587C148.942 83.511 149.044 83.473 149.145 83.473H149.981C150.057 83.473 150.114 83.4857 150.152 83.511C150.203 83.5237 150.266 83.5743 150.342 83.663C150.507 83.8403 150.69 84.0177 150.893 84.195C151.096 84.3723 151.343 84.518 151.634 84.632C151.938 84.746 152.312 84.803 152.755 84.803C153.401 84.803 153.933 84.6827 154.351 84.442C154.769 84.1887 154.978 83.8213 154.978 83.34C154.978 83.0233 154.889 82.77 154.712 82.58C154.547 82.39 154.243 82.219 153.8 82.067C153.369 81.915 152.774 81.7567 152.014 81.592C151.254 81.4147 150.652 81.1993 150.209 80.946C149.766 80.68 149.449 80.3697 149.259 80.015C149.069 79.6477 148.974 79.236 148.974 78.78C148.974 78.3113 149.113 77.8617 149.392 77.431C149.671 76.9877 150.076 76.6267 150.608 76.348C151.153 76.0693 151.83 75.93 152.641 75.93C153.3 75.93 153.863 76.0123 154.332 76.177C154.801 76.3417 155.187 76.5507 155.491 76.804C155.795 77.0447 156.023 77.2853 156.175 77.526C156.327 77.7667 156.409 77.9693 156.422 78.134C156.435 78.2607 156.397 78.3683 156.308 78.457C156.219 78.533 156.118 78.571 156.004 78.571H155.206C155.117 78.571 155.041 78.552 154.978 78.514C154.927 78.476 154.877 78.4317 154.826 78.381C154.699 78.2163 154.547 78.0517 154.37 77.887C154.205 77.7223 153.984 77.5893 153.705 77.488C153.439 77.374 153.084 77.317 152.641 77.317C152.008 77.317 151.533 77.45 151.216 77.716C150.899 77.982 150.741 78.3177 150.741 78.723C150.741 78.9637 150.811 79.179 150.95 79.369C151.089 79.559 151.355 79.73 151.748 79.882C152.141 80.034 152.723 80.1987 153.496 80.376C154.332 80.5407 154.991 80.7623 155.472 81.041C155.953 81.3197 156.295 81.6427 156.498 82.01C156.701 82.3773 156.802 82.8017 156.802 83.283C156.802 83.815 156.644 84.3027 156.327 84.746C156.023 85.1893 155.567 85.544 154.959 85.81C154.364 86.0633 153.623 86.19 152.736 86.19ZM167.079 86.19C166.37 86.19 165.762 86.1013 165.255 85.924C164.748 85.7467 164.337 85.5313 164.02 85.278C163.703 85.0247 163.463 84.7713 163.298 84.518C163.146 84.2647 163.064 84.062 163.051 83.91C163.038 83.7707 163.083 83.663 163.184 83.587C163.285 83.511 163.387 83.473 163.488 83.473H164.324C164.4 83.473 164.457 83.4857 164.495 83.511C164.546 83.5237 164.609 83.5743 164.685 83.663C164.85 83.8403 165.033 84.0177 165.236 84.195C165.439 84.3723 165.686 84.518 165.977 84.632C166.281 84.746 166.655 84.803 167.098 84.803C167.744 84.803 168.276 84.6827 168.694 84.442C169.112 84.1887 169.321 83.8213 169.321 83.34C169.321 83.0233 169.232 82.77 169.055 82.58C168.89 82.39 168.586 82.219 168.143 82.067C167.712 81.915 167.117 81.7567 166.357 81.592C165.597 81.4147 164.995 81.1993 164.552 80.946C164.109 80.68 163.792 80.3697 163.602 80.015C163.412 79.6477 163.317 79.236 163.317 78.78C163.317 78.3113 163.456 77.8617 163.735 77.431C164.014 76.9877 164.419 76.6267 164.951 76.348C165.496 76.0693 166.173 75.93 166.984 75.93C167.643 75.93 168.206 76.0123 168.675 76.177C169.144 76.3417 169.53 76.5507 169.834 76.804C170.138 77.0447 170.366 77.2853 170.518 77.526C170.67 77.7667 170.752 77.9693 170.765 78.134C170.778 78.2607 170.74 78.3683 170.651 78.457C170.562 78.533 170.461 78.571 170.347 78.571H169.549C169.46 78.571 169.384 78.552 169.321 78.514C169.27 78.476 169.22 78.4317 169.169 78.381C169.042 78.2163 168.89 78.0517 168.713 77.887C168.548 77.7223 168.327 77.5893 168.048 77.488C167.782 77.374 167.427 77.317 166.984 77.317C166.351 77.317 165.876 77.45 165.559 77.716C165.242 77.982 165.084 78.3177 165.084 78.723C165.084 78.9637 165.154 79.179 165.293 79.369C165.432 79.559 165.698 79.73 166.091 79.882C166.484 80.034 167.066 80.1987 167.839 80.376C168.675 80.5407 169.334 80.7623 169.815 81.041C170.296 81.3197 170.638 81.6427 170.841 82.01C171.044 82.3773 171.145 82.8017 171.145 83.283C171.145 83.815 170.987 84.3027 170.67 84.746C170.366 85.1893 169.91 85.544 169.302 85.81C168.707 86.0633 167.966 86.19 167.079 86.19ZM177.391 86.19C176.429 86.19 175.624 86.0063 174.978 85.639C174.332 85.2717 173.838 84.765 173.496 84.119C173.154 83.4603 172.964 82.713 172.926 81.877C172.914 81.6617 172.907 81.3893 172.907 81.06C172.907 80.718 172.914 80.4457 172.926 80.243C172.964 79.3943 173.154 78.647 173.496 78.001C173.851 77.355 174.351 76.8483 174.997 76.481C175.643 76.1137 176.441 75.93 177.391 75.93C178.341 75.93 179.139 76.1137 179.785 76.481C180.431 76.8483 180.925 77.355 181.267 78.001C181.622 78.647 181.818 79.3943 181.856 80.243C181.869 80.4457 181.875 80.718 181.875 81.06C181.875 81.3893 181.869 81.6617 181.856 81.877C181.818 82.713 181.628 83.4603 181.286 84.119C180.944 84.765 180.45 85.2717 179.804 85.639C179.158 86.0063 178.354 86.19 177.391 86.19ZM177.391 84.727C178.177 84.727 178.804 84.48 179.272 83.986C179.741 83.4793 179.994 82.7447 180.032 81.782C180.045 81.592 180.051 81.3513 180.051 81.06C180.051 80.7687 180.045 80.528 180.032 80.338C179.994 79.3753 179.741 78.647 179.272 78.153C178.804 77.6463 178.177 77.393 177.391 77.393C176.606 77.393 175.973 77.6463 175.491 78.153C175.023 78.647 174.776 79.3753 174.75 80.338C174.738 80.528 174.731 80.7687 174.731 81.06C174.731 81.3513 174.738 81.592 174.75 81.782C174.776 82.7447 175.023 83.4793 175.491 83.986C175.973 84.48 176.606 84.727 177.391 84.727ZM184.692 86C184.565 86 184.457 85.962 184.369 85.886C184.293 85.7973 184.255 85.6897 184.255 85.563V76.557C184.255 76.4303 184.293 76.329 184.369 76.253C184.457 76.1643 184.565 76.12 184.692 76.12H185.547C185.673 76.12 185.775 76.1643 185.851 76.253C185.939 76.329 185.984 76.4303 185.984 76.557V77.222C186.275 76.8293 186.642 76.519 187.086 76.291C187.529 76.0503 188.061 75.93 188.682 75.93C190.113 75.9173 191.126 76.5 191.722 77.678C192.013 77.146 192.437 76.7217 192.995 76.405C193.552 76.0883 194.185 75.93 194.895 75.93C195.553 75.93 196.149 76.082 196.681 76.386C197.225 76.69 197.65 77.1523 197.954 77.773C198.27 78.381 198.429 79.1473 198.429 80.072V85.563C198.429 85.6897 198.384 85.7973 198.296 85.886C198.22 85.962 198.118 86 197.992 86H197.099C196.972 86 196.864 85.962 196.776 85.886C196.7 85.7973 196.662 85.6897 196.662 85.563V80.243C196.662 79.5337 196.56 78.9763 196.358 78.571C196.155 78.1657 195.883 77.8807 195.541 77.716C195.199 77.5513 194.825 77.469 194.42 77.469C194.09 77.469 193.755 77.5513 193.413 77.716C193.071 77.8807 192.786 78.1657 192.558 78.571C192.342 78.9763 192.235 79.5337 192.235 80.243V85.563C192.235 85.6897 192.19 85.7973 192.102 85.886C192.026 85.962 191.924 86 191.798 86H190.905C190.778 86 190.67 85.962 190.582 85.886C190.506 85.7973 190.468 85.6897 190.468 85.563V80.243C190.468 79.5337 190.36 78.9763 190.145 78.571C189.929 78.1657 189.651 77.8807 189.309 77.716C188.967 77.5513 188.606 77.469 188.226 77.469C187.896 77.469 187.561 77.5513 187.219 77.716C186.877 77.8807 186.592 78.1657 186.364 78.571C186.148 78.9763 186.041 79.5273 186.041 80.224V85.563C186.041 85.6897 185.996 85.7973 185.908 85.886C185.832 85.962 185.73 86 185.604 86H184.692ZM205.072 86.19C203.768 86.19 202.729 85.791 201.956 84.993C201.184 84.1823 200.759 83.0803 200.683 81.687C200.671 81.5223 200.664 81.3133 200.664 81.06C200.664 80.794 200.671 80.5787 200.683 80.414C200.734 79.5147 200.943 78.7293 201.31 78.058C201.678 77.374 202.178 76.8483 202.811 76.481C203.457 76.1137 204.211 75.93 205.072 75.93C206.035 75.93 206.839 76.1327 207.485 76.538C208.144 76.9433 208.644 77.5197 208.986 78.267C209.328 79.0143 209.499 79.8883 209.499 80.889V81.212C209.499 81.3513 209.455 81.459 209.366 81.535C209.29 81.611 209.189 81.649 209.062 81.649H202.488C202.488 81.6617 202.488 81.687 202.488 81.725C202.488 81.763 202.488 81.7947 202.488 81.82C202.514 82.3393 202.628 82.827 202.83 83.283C203.033 83.7263 203.324 84.0873 203.704 84.366C204.084 84.6447 204.54 84.784 205.072 84.784C205.528 84.784 205.908 84.7143 206.212 84.575C206.516 84.4357 206.763 84.2837 206.953 84.119C207.143 83.9417 207.27 83.8087 207.333 83.72C207.447 83.5553 207.536 83.4603 207.599 83.435C207.663 83.397 207.764 83.378 207.903 83.378H208.815C208.942 83.378 209.043 83.416 209.119 83.492C209.208 83.5553 209.246 83.6503 209.233 83.777C209.221 83.967 209.119 84.2013 208.929 84.48C208.739 84.746 208.467 85.012 208.112 85.278C207.758 85.544 207.327 85.7657 206.82 85.943C206.314 86.1077 205.731 86.19 205.072 86.19ZM202.488 80.338H207.694V80.281C207.694 79.711 207.587 79.2043 207.371 78.761C207.169 78.3177 206.871 77.9693 206.478 77.716C206.086 77.45 205.617 77.317 205.072 77.317C204.528 77.317 204.059 77.45 203.666 77.716C203.286 77.9693 202.995 78.3177 202.792 78.761C202.59 79.2043 202.488 79.711 202.488 80.281V80.338ZM219.848 86.19C219.139 86.19 218.531 86.1013 218.024 85.924C217.518 85.7467 217.106 85.5313 216.789 85.278C216.473 85.0247 216.232 84.7713 216.067 84.518C215.915 84.2647 215.833 84.062 215.82 83.91C215.808 83.7707 215.852 83.663 215.953 83.587C216.055 83.511 216.156 83.473 216.257 83.473H217.093C217.169 83.473 217.226 83.4857 217.264 83.511C217.315 83.5237 217.378 83.5743 217.454 83.663C217.619 83.8403 217.803 84.0177 218.005 84.195C218.208 84.3723 218.455 84.518 218.746 84.632C219.05 84.746 219.424 84.803 219.867 84.803C220.513 84.803 221.045 84.6827 221.463 84.442C221.881 84.1887 222.09 83.8213 222.09 83.34C222.09 83.0233 222.002 82.77 221.824 82.58C221.66 82.39 221.356 82.219 220.912 82.067C220.482 81.915 219.886 81.7567 219.126 81.592C218.366 81.4147 217.765 81.1993 217.321 80.946C216.878 80.68 216.561 80.3697 216.371 80.015C216.181 79.6477 216.086 79.236 216.086 78.78C216.086 78.3113 216.226 77.8617 216.504 77.431C216.783 76.9877 217.188 76.6267 217.72 76.348C218.265 76.0693 218.943 75.93 219.753 75.93C220.412 75.93 220.976 76.0123 221.444 76.177C221.913 76.3417 222.299 76.5507 222.603 76.804C222.907 77.0447 223.135 77.2853 223.287 77.526C223.439 77.7667 223.522 77.9693 223.534 78.134C223.547 78.2607 223.509 78.3683 223.42 78.457C223.332 78.533 223.23 78.571 223.116 78.571H222.318C222.23 78.571 222.154 78.552 222.09 78.514C222.04 78.476 221.989 78.4317 221.938 78.381C221.812 78.2163 221.66 78.0517 221.482 77.887C221.318 77.7223 221.096 77.5893 220.817 77.488C220.551 77.374 220.197 77.317 219.753 77.317C219.12 77.317 218.645 77.45 218.328 77.716C218.012 77.982 217.853 78.3177 217.853 78.723C217.853 78.9637 217.923 79.179 218.062 79.369C218.202 79.559 218.468 79.73 218.86 79.882C219.253 80.034 219.836 80.1987 220.608 80.376C221.444 80.5407 222.103 80.7623 222.584 81.041C223.066 81.3197 223.408 81.6427 223.61 82.01C223.813 82.3773 223.914 82.8017 223.914 83.283C223.914 83.815 223.756 84.3027 223.439 84.746C223.135 85.1893 222.679 85.544 222.071 85.81C221.476 86.0633 220.735 86.19 219.848 86.19ZM226.551 86C226.424 86 226.317 85.962 226.228 85.886C226.152 85.7973 226.114 85.6897 226.114 85.563V76.557C226.114 76.4303 226.152 76.329 226.228 76.253C226.317 76.1643 226.424 76.12 226.551 76.12H227.406C227.533 76.12 227.634 76.1643 227.71 76.253C227.799 76.329 227.843 76.4303 227.843 76.557V77.222C228.134 76.8293 228.502 76.519 228.945 76.291C229.388 76.0503 229.92 75.93 230.541 75.93C231.972 75.9173 232.986 76.5 233.581 77.678C233.872 77.146 234.297 76.7217 234.854 76.405C235.411 76.0883 236.045 75.93 236.754 75.93C237.413 75.93 238.008 76.082 238.54 76.386C239.085 76.69 239.509 77.1523 239.813 77.773C240.13 78.381 240.288 79.1473 240.288 80.072V85.563C240.288 85.6897 240.244 85.7973 240.155 85.886C240.079 85.962 239.978 86 239.851 86H238.958C238.831 86 238.724 85.962 238.635 85.886C238.559 85.7973 238.521 85.6897 238.521 85.563V80.243C238.521 79.5337 238.42 78.9763 238.217 78.571C238.014 78.1657 237.742 77.8807 237.4 77.716C237.058 77.5513 236.684 77.469 236.279 77.469C235.95 77.469 235.614 77.5513 235.272 77.716C234.93 77.8807 234.645 78.1657 234.417 78.571C234.202 78.9763 234.094 79.5337 234.094 80.243V85.563C234.094 85.6897 234.05 85.7973 233.961 85.886C233.885 85.962 233.784 86 233.657 86H232.764C232.637 86 232.53 85.962 232.441 85.886C232.365 85.7973 232.327 85.6897 232.327 85.563V80.243C232.327 79.5337 232.219 78.9763 232.004 78.571C231.789 78.1657 231.51 77.8807 231.168 77.716C230.826 77.5513 230.465 77.469 230.085 77.469C229.756 77.469 229.42 77.5513 229.078 77.716C228.736 77.8807 228.451 78.1657 228.223 78.571C228.008 78.9763 227.9 79.5273 227.9 80.224V85.563C227.9 85.6897 227.856 85.7973 227.767 85.886C227.691 85.962 227.59 86 227.463 86H226.551ZM245.754 86.19C245.12 86.19 244.544 86.0633 244.025 85.81C243.505 85.5567 243.087 85.2147 242.771 84.784C242.454 84.3533 242.296 83.8657 242.296 83.321C242.296 82.447 242.65 81.7503 243.36 81.231C244.069 80.7117 244.994 80.3697 246.134 80.205L248.965 79.806V79.255C248.965 78.647 248.787 78.172 248.433 77.83C248.091 77.488 247.527 77.317 246.742 77.317C246.172 77.317 245.709 77.431 245.355 77.659C245.013 77.887 244.772 78.1783 244.633 78.533C244.557 78.723 244.424 78.818 244.234 78.818H243.379C243.239 78.818 243.132 78.78 243.056 78.704C242.992 78.6153 242.961 78.514 242.961 78.4C242.961 78.21 243.03 77.9757 243.17 77.697C243.322 77.4183 243.55 77.146 243.854 76.88C244.158 76.614 244.544 76.3923 245.013 76.215C245.494 76.025 246.077 75.93 246.761 75.93C247.521 75.93 248.16 76.0313 248.68 76.234C249.199 76.424 249.604 76.6837 249.896 77.013C250.2 77.3423 250.415 77.716 250.542 78.134C250.681 78.552 250.751 78.9763 250.751 79.407V85.563C250.751 85.6897 250.706 85.7973 250.618 85.886C250.542 85.962 250.44 86 250.314 86H249.44C249.3 86 249.193 85.962 249.117 85.886C249.041 85.7973 249.003 85.6897 249.003 85.563V84.746C248.838 84.974 248.616 85.202 248.338 85.43C248.059 85.6453 247.711 85.829 247.293 85.981C246.875 86.1203 246.362 86.19 245.754 86.19ZM246.153 84.765C246.672 84.765 247.147 84.6573 247.578 84.442C248.008 84.214 248.344 83.8657 248.585 83.397C248.838 82.9283 248.965 82.3393 248.965 81.63V81.098L246.761 81.421C245.861 81.5477 245.184 81.763 244.728 82.067C244.272 82.3583 244.044 82.732 244.044 83.188C244.044 83.5427 244.145 83.8403 244.348 84.081C244.563 84.309 244.829 84.48 245.146 84.594C245.475 84.708 245.811 84.765 246.153 84.765ZM253.938 86C253.812 86 253.704 85.962 253.615 85.886C253.539 85.7973 253.501 85.6897 253.501 85.563V72.947C253.501 72.8203 253.539 72.719 253.615 72.643C253.704 72.5543 253.812 72.51 253.938 72.51H254.831C254.971 72.51 255.078 72.5543 255.154 72.643C255.23 72.719 255.268 72.8203 255.268 72.947V85.563C255.268 85.6897 255.23 85.7973 255.154 85.886C255.078 85.962 254.971 86 254.831 86H253.938ZM258.558 86C258.432 86 258.324 85.962 258.235 85.886C258.159 85.7973 258.121 85.6897 258.121 85.563V72.947C258.121 72.8203 258.159 72.719 258.235 72.643C258.324 72.5543 258.432 72.51 258.558 72.51H259.451C259.591 72.51 259.698 72.5543 259.774 72.643C259.85 72.719 259.888 72.8203 259.888 72.947V85.563C259.888 85.6897 259.85 85.7973 259.774 85.886C259.698 85.962 259.591 86 259.451 86H258.558ZM266.655 86.19C265.351 86.19 264.312 85.791 263.539 84.993C262.767 84.1823 262.342 83.0803 262.266 81.687C262.254 81.5223 262.247 81.3133 262.247 81.06C262.247 80.794 262.254 80.5787 262.266 80.414C262.317 79.5147 262.526 78.7293 262.893 78.058C263.261 77.374 263.761 76.8483 264.394 76.481C265.04 76.1137 265.794 75.93 266.655 75.93C267.618 75.93 268.422 76.1327 269.068 76.538C269.727 76.9433 270.227 77.5197 270.569 78.267C270.911 79.0143 271.082 79.8883 271.082 80.889V81.212C271.082 81.3513 271.038 81.459 270.949 81.535C270.873 81.611 270.772 81.649 270.645 81.649H264.071C264.071 81.6617 264.071 81.687 264.071 81.725C264.071 81.763 264.071 81.7947 264.071 81.82C264.097 82.3393 264.211 82.827 264.413 83.283C264.616 83.7263 264.907 84.0873 265.287 84.366C265.667 84.6447 266.123 84.784 266.655 84.784C267.111 84.784 267.491 84.7143 267.795 84.575C268.099 84.4357 268.346 84.2837 268.536 84.119C268.726 83.9417 268.853 83.8087 268.916 83.72C269.03 83.5553 269.119 83.4603 269.182 83.435C269.246 83.397 269.347 83.378 269.486 83.378H270.398C270.525 83.378 270.626 83.416 270.702 83.492C270.791 83.5553 270.829 83.6503 270.816 83.777C270.804 83.967 270.702 84.2013 270.512 84.48C270.322 84.746 270.05 85.012 269.695 85.278C269.341 85.544 268.91 85.7657 268.403 85.943C267.897 86.1077 267.314 86.19 266.655 86.19ZM264.071 80.338H269.277V80.281C269.277 79.711 269.17 79.2043 268.954 78.761C268.752 78.3177 268.454 77.9693 268.061 77.716C267.669 77.45 267.2 77.317 266.655 77.317C266.111 77.317 265.642 77.45 265.249 77.716C264.869 77.9693 264.578 78.3177 264.375 78.761C264.173 79.2043 264.071 79.711 264.071 80.281V80.338ZM273.791 86C273.665 86 273.557 85.962 273.468 85.886C273.392 85.7973 273.354 85.6897 273.354 85.563V76.576C273.354 76.4493 273.392 76.3417 273.468 76.253C273.557 76.1643 273.665 76.12 273.791 76.12H274.665C274.792 76.12 274.9 76.1643 274.988 76.253C275.077 76.3417 275.121 76.4493 275.121 76.576V77.412C275.375 76.9813 275.723 76.6583 276.166 76.443C276.61 76.2277 277.142 76.12 277.762 76.12H278.522C278.649 76.12 278.75 76.1643 278.826 76.253C278.902 76.329 278.94 76.4303 278.94 76.557V77.336C278.94 77.4627 278.902 77.564 278.826 77.64C278.75 77.716 278.649 77.754 278.522 77.754H277.382C276.698 77.754 276.16 77.9567 275.767 78.362C275.375 78.7547 275.178 79.293 275.178 79.977V85.563C275.178 85.6897 275.134 85.7973 275.045 85.886C274.957 85.962 274.849 86 274.722 86H273.791ZM288.233 86C287.523 86 286.947 85.867 286.504 85.601C286.06 85.3223 285.737 84.936 285.535 84.442C285.332 83.9353 285.231 83.34 285.231 82.656V77.64H283.749C283.622 77.64 283.514 77.602 283.426 77.526C283.35 77.4373 283.312 77.3297 283.312 77.203V76.557C283.312 76.4303 283.35 76.329 283.426 76.253C283.514 76.1643 283.622 76.12 283.749 76.12H285.231V72.947C285.231 72.8203 285.269 72.719 285.345 72.643C285.433 72.5543 285.541 72.51 285.668 72.51H286.561C286.687 72.51 286.789 72.5543 286.865 72.643C286.953 72.719 286.998 72.8203 286.998 72.947V76.12H289.354C289.48 76.12 289.582 76.1643 289.658 76.253C289.746 76.329 289.791 76.4303 289.791 76.557V77.203C289.791 77.3297 289.746 77.4373 289.658 77.526C289.582 77.602 289.48 77.64 289.354 77.64H286.998V82.523C286.998 83.1183 287.099 83.587 287.302 83.929C287.504 84.271 287.865 84.442 288.385 84.442H289.544C289.67 84.442 289.772 84.4863 289.848 84.575C289.936 84.651 289.981 84.7523 289.981 84.879V85.563C289.981 85.6897 289.936 85.7973 289.848 85.886C289.772 85.962 289.67 86 289.544 86H288.233ZM295.731 86.19C294.426 86.19 293.387 85.791 292.615 84.993C291.842 84.1823 291.418 83.0803 291.342 81.687C291.329 81.5223 291.323 81.3133 291.323 81.06C291.323 80.794 291.329 80.5787 291.342 80.414C291.392 79.5147 291.601 78.7293 291.969 78.058C292.336 77.374 292.836 76.8483 293.47 76.481C294.116 76.1137 294.869 75.93 295.731 75.93C296.693 75.93 297.498 76.1327 298.144 76.538C298.802 76.9433 299.303 77.5197 299.645 78.267C299.987 79.0143 300.158 79.8883 300.158 80.889V81.212C300.158 81.3513 300.113 81.459 300.025 81.535C299.949 81.611 299.847 81.649 299.721 81.649H293.147C293.147 81.6617 293.147 81.687 293.147 81.725C293.147 81.763 293.147 81.7947 293.147 81.82C293.172 82.3393 293.286 82.827 293.489 83.283C293.691 83.7263 293.983 84.0873 294.363 84.366C294.743 84.6447 295.199 84.784 295.731 84.784C296.187 84.784 296.567 84.7143 296.871 84.575C297.175 84.4357 297.422 84.2837 297.612 84.119C297.802 83.9417 297.928 83.8087 297.992 83.72C298.106 83.5553 298.194 83.4603 298.258 83.435C298.321 83.397 298.422 83.378 298.562 83.378H299.474C299.6 83.378 299.702 83.416 299.778 83.492C299.866 83.5553 299.904 83.6503 299.892 83.777C299.879 83.967 299.778 84.2013 299.588 84.48C299.398 84.746 299.125 85.012 298.771 85.278C298.416 85.544 297.985 85.7657 297.479 85.943C296.972 86.1077 296.389 86.19 295.731 86.19ZM293.147 80.338H298.353V80.281C298.353 79.711 298.245 79.2043 298.03 78.761C297.827 78.3177 297.529 77.9693 297.137 77.716C296.744 77.45 296.275 77.317 295.731 77.317C295.186 77.317 294.717 77.45 294.325 77.716C293.945 77.9693 293.653 78.3177 293.451 78.761C293.248 79.2043 293.147 79.711 293.147 80.281V80.338ZM301.769 86C301.668 86 301.573 85.962 301.484 85.886C301.408 85.81 301.37 85.715 301.37 85.601C301.37 85.563 301.377 85.5187 301.389 85.468C301.415 85.4047 301.453 85.335 301.503 85.259L304.809 80.946L301.712 76.861C301.662 76.785 301.624 76.7217 301.598 76.671C301.586 76.6203 301.579 76.5697 301.579 76.519C301.579 76.405 301.617 76.31 301.693 76.234C301.769 76.158 301.864 76.12 301.978 76.12H302.947C303.087 76.12 303.188 76.158 303.251 76.234C303.327 76.2973 303.391 76.3607 303.441 76.424L305.968 79.711L308.495 76.443C308.546 76.3797 308.603 76.31 308.666 76.234C308.742 76.158 308.85 76.12 308.989 76.12H309.92C310.034 76.12 310.129 76.158 310.205 76.234C310.281 76.31 310.319 76.405 310.319 76.519C310.319 76.5697 310.307 76.6203 310.281 76.671C310.269 76.7217 310.237 76.785 310.186 76.861L307.051 80.984L310.357 85.259C310.408 85.335 310.44 85.3983 310.452 85.449C310.478 85.4997 310.49 85.5503 310.49 85.601C310.49 85.715 310.452 85.81 310.376 85.886C310.3 85.962 310.205 86 310.091 86H309.084C308.958 86 308.856 85.9683 308.78 85.905C308.704 85.8417 308.641 85.7783 308.59 85.715L305.911 82.238L303.232 85.715C303.182 85.7657 303.118 85.829 303.042 85.905C302.979 85.9683 302.878 86 302.738 86H301.769ZM316.325 86C315.615 86 315.039 85.867 314.596 85.601C314.152 85.3223 313.829 84.936 313.627 84.442C313.424 83.9353 313.323 83.34 313.323 82.656V77.64H311.841C311.714 77.64 311.606 77.602 311.518 77.526C311.442 77.4373 311.404 77.3297 311.404 77.203V76.557C311.404 76.4303 311.442 76.329 311.518 76.253C311.606 76.1643 311.714 76.12 311.841 76.12H313.323V72.947C313.323 72.8203 313.361 72.719 313.437 72.643C313.525 72.5543 313.633 72.51 313.76 72.51H314.653C314.779 72.51 314.881 72.5543 314.957 72.643C315.045 72.719 315.09 72.8203 315.09 72.947V76.12H317.446C317.572 76.12 317.674 76.1643 317.75 76.253C317.838 76.329 317.883 76.4303 317.883 76.557V77.203C317.883 77.3297 317.838 77.4373 317.75 77.526C317.674 77.602 317.572 77.64 317.446 77.64H315.09V82.523C315.09 83.1183 315.191 83.587 315.394 83.929C315.596 84.271 315.957 84.442 316.477 84.442H317.636C317.762 84.442 317.864 84.4863 317.94 84.575C318.028 84.651 318.073 84.7523 318.073 84.879V85.563C318.073 85.6897 318.028 85.7973 317.94 85.886C317.864 85.962 317.762 86 317.636 86H316.325Z" fill="white"/>
<path d="M29.676 126.525C29.6 126.525 29.5177 126.5 29.429 126.449C29.353 126.398 29.2833 126.36 29.22 126.335L23.235 122.212C23.045 122.085 22.9057 121.959 22.817 121.832C22.7283 121.693 22.684 121.534 22.684 121.357V121.015C22.684 120.838 22.7283 120.686 22.817 120.559C22.9057 120.432 23.045 120.299 23.235 120.16L29.22 116.056C29.2833 116.018 29.353 115.974 29.429 115.923C29.5177 115.872 29.6 115.847 29.676 115.847C29.7773 115.847 29.866 115.885 29.942 115.961C30.018 116.024 30.056 116.119 30.056 116.246V117.082C30.056 117.221 30.018 117.342 29.942 117.443C29.866 117.532 29.7583 117.62 29.619 117.709L24.527 121.186L29.619 124.663C29.7583 124.764 29.866 124.859 29.942 124.948C30.018 125.037 30.056 125.157 30.056 125.309V126.145C30.056 126.259 30.018 126.354 29.942 126.43C29.866 126.493 29.7773 126.525 29.676 126.525ZM53.6564 126.506C53.555 126.506 53.4664 126.474 53.3904 126.411C53.3144 126.348 53.2764 126.253 53.2764 126.126V125.29C53.2764 125.138 53.308 125.018 53.3714 124.929C53.4474 124.84 53.5614 124.752 53.7134 124.663L58.7864 121.186L53.7134 117.709C53.5614 117.608 53.4474 117.513 53.3714 117.424C53.308 117.335 53.2764 117.215 53.2764 117.063V116.227C53.2764 116.1 53.3144 116.005 53.3904 115.942C53.4664 115.879 53.555 115.847 53.6564 115.847C53.7324 115.847 53.8147 115.872 53.9034 115.923C53.992 115.961 54.0617 115.999 54.1124 116.037L60.0784 120.141C60.281 120.28 60.4204 120.413 60.4964 120.54C60.585 120.667 60.6294 120.825 60.6294 121.015V121.338C60.6294 121.515 60.585 121.674 60.4964 121.813C60.4204 121.94 60.281 122.073 60.0784 122.212L54.1124 126.316C54.0617 126.354 53.992 126.398 53.9034 126.449C53.8147 126.487 53.7324 126.506 53.6564 126.506ZM230.827 126.525C230.751 126.525 230.669 126.5 230.58 126.449C230.504 126.398 230.435 126.36 230.371 126.335L224.386 122.212C224.196 122.085 224.057 121.959 223.968 121.832C223.88 121.693 223.835 121.534 223.835 121.357V121.015C223.835 120.838 223.88 120.686 223.968 120.559C224.057 120.432 224.196 120.299 224.386 120.16L230.371 116.056C230.435 116.018 230.504 115.974 230.58 115.923C230.669 115.872 230.751 115.847 230.827 115.847C230.929 115.847 231.017 115.885 231.093 115.961C231.169 116.024 231.207 116.119 231.207 116.246V117.082C231.207 117.221 231.169 117.342 231.093 117.443C231.017 117.532 230.91 117.62 230.77 117.709L225.678 121.186L230.77 124.663C230.91 124.764 231.017 124.859 231.093 124.948C231.169 125.037 231.207 125.157 231.207 125.309V126.145C231.207 126.259 231.169 126.354 231.093 126.43C231.017 126.493 230.929 126.525 230.827 126.525ZM287.872 126.506C287.771 126.506 287.682 126.474 287.606 126.411C287.53 126.348 287.492 126.253 287.492 126.126V125.29C287.492 125.138 287.524 125.018 287.587 124.929C287.663 124.84 287.777 124.752 287.929 124.663L293.002 121.186L287.929 117.709C287.777 117.608 287.663 117.513 287.587 117.424C287.524 117.335 287.492 117.215 287.492 117.063V116.227C287.492 116.1 287.53 116.005 287.606 115.942C287.682 115.879 287.771 115.847 287.872 115.847C287.948 115.847 288.031 115.872 288.119 115.923C288.208 115.961 288.278 115.999 288.328 116.037L294.294 120.141C294.497 120.28 294.636 120.413 294.712 120.54C294.801 120.667 294.845 120.825 294.845 121.015V121.338C294.845 121.515 294.801 121.674 294.712 121.813C294.636 121.94 294.497 122.073 294.294 122.212L288.328 126.316C288.278 126.354 288.208 126.398 288.119 126.449C288.031 126.487 287.948 126.506 287.872 126.506ZM353.993 126.525C353.917 126.525 353.835 126.5 353.746 126.449C353.67 126.398 353.601 126.36 353.537 126.335L347.552 122.212C347.362 122.085 347.223 121.959 347.134 121.832C347.046 121.693 347.001 121.534 347.001 121.357V121.015C347.001 120.838 347.046 120.686 347.134 120.559C347.223 120.432 347.362 120.299 347.552 120.16L353.537 116.056C353.601 116.018 353.67 115.974 353.746 115.923C353.835 115.872 353.917 115.847 353.993 115.847C354.095 115.847 354.183 115.885 354.259 115.961C354.335 116.024 354.373 116.119 354.373 116.246V117.082C354.373 117.221 354.335 117.342 354.259 117.443C354.183 117.532 354.076 117.62 353.936 117.709L348.844 121.186L353.936 124.663C354.076 124.764 354.183 124.859 354.259 124.948C354.335 125.037 354.373 125.157 354.373 125.309V126.145C354.373 126.259 354.335 126.354 354.259 126.43C354.183 126.493 354.095 126.525 353.993 126.525ZM424.657 126.506C424.556 126.506 424.467 126.474 424.391 126.411C424.315 126.348 424.277 126.253 424.277 126.126V125.29C424.277 125.138 424.309 125.018 424.372 124.929C424.448 124.84 424.562 124.752 424.714 124.663L429.787 121.186L424.714 117.709C424.562 117.608 424.448 117.513 424.372 117.424C424.309 117.335 424.277 117.215 424.277 117.063V116.227C424.277 116.1 424.315 116.005 424.391 115.942C424.467 115.879 424.556 115.847 424.657 115.847C424.733 115.847 424.816 115.872 424.904 115.923C424.993 115.961 425.063 115.999 425.113 116.037L431.079 120.141C431.282 120.28 431.421 120.413 431.497 120.54C431.586 120.667 431.63 120.825 431.63 121.015V121.338C431.63 121.515 431.586 121.674 431.497 121.813C431.421 121.94 431.282 122.073 431.079 122.212L425.113 126.316C425.063 126.354 424.993 126.398 424.904 126.449C424.816 126.487 424.733 126.506 424.657 126.506ZM444.652 126.525C444.576 126.525 444.493 126.5 444.405 126.449C444.329 126.398 444.259 126.36 444.196 126.335L438.211 122.212C438.021 122.085 437.881 121.959 437.793 121.832C437.704 121.693 437.66 121.534 437.66 121.357V121.015C437.66 120.838 437.704 120.686 437.793 120.559C437.881 120.432 438.021 120.299 438.211 120.16L444.196 116.056C444.259 116.018 444.329 115.974 444.405 115.923C444.493 115.872 444.576 115.847 444.652 115.847C444.753 115.847 444.842 115.885 444.918 115.961C444.994 116.024 445.032 116.119 445.032 116.246V117.082C445.032 117.221 444.994 117.342 444.918 117.443C444.842 117.532 444.734 117.62 444.595 117.709L439.503 121.186L444.595 124.663C444.734 124.764 444.842 124.859 444.918 124.948C444.994 125.037 445.032 125.157 445.032 125.309V126.145C445.032 126.259 444.994 126.354 444.918 126.43C444.842 126.493 444.753 126.525 444.652 126.525ZM482.437 126.506C482.335 126.506 482.247 126.474 482.171 126.411C482.095 126.348 482.057 126.253 482.057 126.126V125.29C482.057 125.138 482.088 125.018 482.152 124.929C482.228 124.84 482.342 124.752 482.494 124.663L487.567 121.186L482.494 117.709C482.342 117.608 482.228 117.513 482.152 117.424C482.088 117.335 482.057 117.215 482.057 117.063V116.227C482.057 116.1 482.095 116.005 482.171 115.942C482.247 115.879 482.335 115.847 482.437 115.847C482.513 115.847 482.595 115.872 482.684 115.923C482.772 115.961 482.842 115.999 482.893 116.037L488.859 120.141C489.061 120.28 489.201 120.413 489.277 120.54C489.365 120.667 489.41 120.825 489.41 121.015V121.338C489.41 121.515 489.365 121.674 489.277 121.813C489.201 121.94 489.061 122.073 488.859 122.212L482.893 126.316C482.842 126.354 482.772 126.398 482.684 126.449C482.595 126.487 482.513 126.506 482.437 126.506Z" fill="#647DFF"/>
<path d="M37.8708 130.61C37.7441 130.61 37.6365 130.566 37.5478 130.477C37.4718 130.401 37.4338 130.3 37.4338 130.173V117.557C37.4338 117.43 37.4718 117.329 37.5478 117.253C37.6365 117.164 37.7441 117.12 37.8708 117.12H38.7448C38.8715 117.12 38.9728 117.164 39.0488 117.253C39.1375 117.329 39.1818 117.43 39.1818 117.557V118.393C39.4858 117.975 39.8911 117.627 40.3978 117.348C40.9045 117.069 41.5378 116.93 42.2978 116.93C43.0071 116.93 43.6088 117.05 44.1028 117.291C44.6095 117.532 45.0211 117.861 45.3378 118.279C45.6671 118.697 45.9141 119.172 46.0788 119.704C46.2435 120.236 46.3321 120.806 46.3448 121.414C46.3575 121.617 46.3638 121.832 46.3638 122.06C46.3638 122.288 46.3575 122.503 46.3448 122.706C46.3321 123.301 46.2435 123.871 46.0788 124.416C45.9141 124.948 45.6671 125.423 45.3378 125.841C45.0211 126.246 44.6095 126.576 44.1028 126.829C43.6088 127.07 43.0071 127.19 42.2978 127.19C41.5631 127.19 40.9425 127.057 40.4358 126.791C39.9418 126.512 39.5365 126.17 39.2198 125.765V130.173C39.2198 130.3 39.1818 130.401 39.1058 130.477C39.0298 130.566 38.9221 130.61 38.7828 130.61H37.8708ZM41.8988 125.651C42.5575 125.651 43.0705 125.512 43.4378 125.233C43.8178 124.942 44.0901 124.568 44.2548 124.112C44.4195 123.643 44.5145 123.143 44.5398 122.611C44.5525 122.244 44.5525 121.876 44.5398 121.509C44.5145 120.977 44.4195 120.483 44.2548 120.027C44.0901 119.558 43.8178 119.185 43.4378 118.906C43.0705 118.615 42.5575 118.469 41.8988 118.469C41.2781 118.469 40.7715 118.615 40.3788 118.906C39.9988 119.197 39.7138 119.571 39.5238 120.027C39.3465 120.47 39.2451 120.926 39.2198 121.395C39.2071 121.598 39.2008 121.838 39.2008 122.117C39.2008 122.396 39.2071 122.643 39.2198 122.858C39.2325 123.301 39.3338 123.738 39.5238 124.169C39.7265 124.6 40.0241 124.954 40.4168 125.233C40.8095 125.512 41.3035 125.651 41.8988 125.651ZM451.858 128.596C451.757 128.596 451.668 128.558 451.592 128.482C451.516 128.406 451.478 128.317 451.478 128.216C451.478 128.153 451.497 128.077 451.535 127.988L458.033 112.408C458.071 112.332 458.122 112.256 458.185 112.18C458.261 112.104 458.375 112.066 458.527 112.066H459.268C459.37 112.066 459.458 112.104 459.534 112.18C459.61 112.256 459.648 112.345 459.648 112.446C459.648 112.497 459.636 112.573 459.61 112.674L453.093 128.254C453.068 128.317 453.011 128.387 452.922 128.463C452.846 128.552 452.739 128.596 452.599 128.596H451.858ZM466.651 130.61C466.524 130.61 466.417 130.566 466.328 130.477C466.252 130.401 466.214 130.3 466.214 130.173V117.557C466.214 117.43 466.252 117.329 466.328 117.253C466.417 117.164 466.524 117.12 466.651 117.12H467.525C467.652 117.12 467.753 117.164 467.829 117.253C467.918 117.329 467.962 117.43 467.962 117.557V118.393C468.266 117.975 468.671 117.627 469.178 117.348C469.685 117.069 470.318 116.93 471.078 116.93C471.787 116.93 472.389 117.05 472.883 117.291C473.39 117.532 473.801 117.861 474.118 118.279C474.447 118.697 474.694 119.172 474.859 119.704C475.024 120.236 475.112 120.806 475.125 121.414C475.138 121.617 475.144 121.832 475.144 122.06C475.144 122.288 475.138 122.503 475.125 122.706C475.112 123.301 475.024 123.871 474.859 124.416C474.694 124.948 474.447 125.423 474.118 125.841C473.801 126.246 473.39 126.576 472.883 126.829C472.389 127.07 471.787 127.19 471.078 127.19C470.343 127.19 469.723 127.057 469.216 126.791C468.722 126.512 468.317 126.17 468 125.765V130.173C468 130.3 467.962 130.401 467.886 130.477C467.81 130.566 467.702 130.61 467.563 130.61H466.651ZM470.679 125.651C471.338 125.651 471.851 125.512 472.218 125.233C472.598 124.942 472.87 124.568 473.035 124.112C473.2 123.643 473.295 123.143 473.32 122.611C473.333 122.244 473.333 121.876 473.32 121.509C473.295 120.977 473.2 120.483 473.035 120.027C472.87 119.558 472.598 119.185 472.218 118.906C471.851 118.615 471.338 118.469 470.679 118.469C470.058 118.469 469.552 118.615 469.159 118.906C468.779 119.197 468.494 119.571 468.304 120.027C468.127 120.47 468.025 120.926 468 121.395C467.987 121.598 467.981 121.838 467.981 122.117C467.981 122.396 467.987 122.643 468 122.858C468.013 123.301 468.114 123.738 468.304 124.169C468.507 124.6 468.804 124.954 469.197 125.233C469.59 125.512 470.084 125.651 470.679 125.651Z" fill="#C8C8C9"/>
<path d="M72.7218 127C72.5825 127 72.4748 126.962 72.3988 126.886C72.3228 126.797 72.2848 126.69 72.2848 126.563V114.156C72.2848 114.017 72.3228 113.909 72.3988 113.833C72.4748 113.744 72.5825 113.7 72.7218 113.7H77.9278C78.8778 113.7 79.6505 113.858 80.2458 114.175C80.8538 114.479 81.2972 114.897 81.5758 115.429C81.8672 115.961 82.0128 116.556 82.0128 117.215C82.0128 117.734 81.9242 118.184 81.7468 118.564C81.5822 118.931 81.3732 119.235 81.1198 119.476C80.8665 119.704 80.6195 119.881 80.3788 120.008C80.8728 120.249 81.3098 120.641 81.6898 121.186C82.0825 121.731 82.2788 122.389 82.2788 123.162C82.2788 123.859 82.1205 124.498 81.8038 125.081C81.4872 125.664 81.0122 126.132 80.3788 126.487C79.7582 126.829 78.9855 127 78.0608 127H72.7218ZM74.1468 125.461H77.8138C78.6372 125.461 79.2705 125.239 79.7138 124.796C80.1572 124.353 80.3788 123.808 80.3788 123.162C80.3788 122.491 80.1572 121.94 79.7138 121.509C79.2705 121.066 78.6372 120.844 77.8138 120.844H74.1468V125.461ZM74.1468 119.324H77.6428C78.4535 119.324 79.0678 119.14 79.4858 118.773C79.9038 118.393 80.1128 117.88 80.1128 117.234C80.1128 116.588 79.9038 116.094 79.4858 115.752C79.0678 115.41 78.4535 115.239 77.6428 115.239H74.1468V119.324ZM85.1662 127C85.0396 127 84.9319 126.962 84.8432 126.886C84.7672 126.797 84.7292 126.69 84.7292 126.563V117.576C84.7292 117.449 84.7672 117.342 84.8432 117.253C84.9319 117.164 85.0396 117.12 85.1662 117.12H86.0402C86.1669 117.12 86.2746 117.164 86.3632 117.253C86.4519 117.342 86.4962 117.449 86.4962 117.576V118.412C86.7496 117.981 87.0979 117.658 87.5412 117.443C87.9846 117.228 88.5166 117.12 89.1372 117.12H89.8972C90.0239 117.12 90.1252 117.164 90.2012 117.253C90.2772 117.329 90.3152 117.43 90.3152 117.557V118.336C90.3152 118.463 90.2772 118.564 90.2012 118.64C90.1252 118.716 90.0239 118.754 89.8972 118.754H88.7572C88.0732 118.754 87.5349 118.957 87.1422 119.362C86.7496 119.755 86.5532 120.293 86.5532 120.977V126.563C86.5532 126.69 86.5089 126.797 86.4202 126.886C86.3316 126.962 86.2239 127 86.0972 127H85.1662ZM95.633 127.19C94.8223 127.19 94.132 127.013 93.562 126.658C93.0047 126.291 92.5803 125.784 92.289 125.138C91.9977 124.492 91.852 123.751 91.852 122.915V117.557C91.852 117.43 91.89 117.329 91.966 117.253C92.0547 117.164 92.1623 117.12 92.289 117.12H93.239C93.3657 117.12 93.467 117.164 93.543 117.253C93.6317 117.329 93.676 117.43 93.676 117.557V122.82C93.676 124.707 94.4993 125.651 96.146 125.651C96.9313 125.651 97.5583 125.404 98.027 124.91C98.5083 124.403 98.749 123.707 98.749 122.82V117.557C98.749 117.43 98.787 117.329 98.863 117.253C98.9517 117.164 99.0593 117.12 99.186 117.12H100.117C100.256 117.12 100.364 117.164 100.44 117.253C100.516 117.329 100.554 117.43 100.554 117.557V126.563C100.554 126.69 100.516 126.797 100.44 126.886C100.364 126.962 100.256 127 100.117 127H99.243C99.1163 127 99.0087 126.962 98.92 126.886C98.844 126.797 98.806 126.69 98.806 126.563V125.727C98.464 126.17 98.046 126.525 97.552 126.791C97.0707 127.057 96.431 127.19 95.633 127.19ZM106.797 127.19C106.087 127.19 105.479 127.101 104.973 126.924C104.466 126.747 104.054 126.531 103.738 126.278C103.421 126.025 103.18 125.771 103.016 125.518C102.864 125.265 102.781 125.062 102.769 124.91C102.756 124.771 102.8 124.663 102.902 124.587C103.003 124.511 103.104 124.473 103.206 124.473H104.042C104.118 124.473 104.175 124.486 104.213 124.511C104.263 124.524 104.327 124.574 104.403 124.663C104.567 124.84 104.751 125.018 104.954 125.195C105.156 125.372 105.403 125.518 105.695 125.632C105.999 125.746 106.372 125.803 106.816 125.803C107.462 125.803 107.994 125.683 108.412 125.442C108.83 125.189 109.039 124.821 109.039 124.34C109.039 124.023 108.95 123.77 108.773 123.58C108.608 123.39 108.304 123.219 107.861 123.067C107.43 122.915 106.835 122.757 106.075 122.592C105.315 122.415 104.713 122.199 104.27 121.946C103.826 121.68 103.51 121.37 103.32 121.015C103.13 120.648 103.035 120.236 103.035 119.78C103.035 119.311 103.174 118.862 103.453 118.431C103.731 117.988 104.137 117.627 104.669 117.348C105.213 117.069 105.891 116.93 106.702 116.93C107.36 116.93 107.924 117.012 108.393 117.177C108.861 117.342 109.248 117.551 109.552 117.804C109.856 118.045 110.084 118.285 110.236 118.526C110.388 118.767 110.47 118.969 110.483 119.134C110.495 119.261 110.457 119.368 110.369 119.457C110.28 119.533 110.179 119.571 110.065 119.571H109.267C109.178 119.571 109.102 119.552 109.039 119.514C108.988 119.476 108.937 119.432 108.887 119.381C108.76 119.216 108.608 119.052 108.431 118.887C108.266 118.722 108.044 118.589 107.766 118.488C107.5 118.374 107.145 118.317 106.702 118.317C106.068 118.317 105.593 118.45 105.277 118.716C104.96 118.982 104.802 119.318 104.802 119.723C104.802 119.964 104.871 120.179 105.011 120.369C105.15 120.559 105.416 120.73 105.809 120.882C106.201 121.034 106.784 121.199 107.557 121.376C108.393 121.541 109.051 121.762 109.533 122.041C110.014 122.32 110.356 122.643 110.559 123.01C110.761 123.377 110.863 123.802 110.863 124.283C110.863 124.815 110.704 125.303 110.388 125.746C110.084 126.189 109.628 126.544 109.02 126.81C108.424 127.063 107.683 127.19 106.797 127.19ZM113.518 127C113.392 127 113.284 126.962 113.195 126.886C113.119 126.797 113.081 126.69 113.081 126.563V113.947C113.081 113.82 113.119 113.719 113.195 113.643C113.284 113.554 113.392 113.51 113.518 113.51H114.468C114.608 113.51 114.715 113.554 114.791 113.643C114.867 113.719 114.905 113.82 114.905 113.947V118.374C115.247 117.943 115.665 117.595 116.159 117.329C116.653 117.063 117.28 116.93 118.04 116.93C118.864 116.93 119.56 117.114 120.13 117.481C120.713 117.836 121.15 118.336 121.441 118.982C121.745 119.615 121.897 120.356 121.897 121.205V126.563C121.897 126.69 121.859 126.797 121.783 126.886C121.707 126.962 121.6 127 121.46 127H120.51C120.384 127 120.276 126.962 120.187 126.886C120.111 126.797 120.073 126.69 120.073 126.563V121.3C120.073 120.413 119.858 119.723 119.427 119.229C118.997 118.722 118.363 118.469 117.527 118.469C116.742 118.469 116.109 118.722 115.627 119.229C115.146 119.723 114.905 120.413 114.905 121.3V126.563C114.905 126.69 114.867 126.797 114.791 126.886C114.715 126.962 114.608 127 114.468 127H113.518ZM130.507 130.61C130.406 130.61 130.317 130.572 130.241 130.496C130.165 130.42 130.127 130.331 130.127 130.23C130.127 130.179 130.133 130.129 130.146 130.078C130.159 130.027 130.184 129.964 130.222 129.888L131.685 126.411L128.056 117.842C127.993 117.69 127.961 117.582 127.961 117.519C127.961 117.405 127.999 117.31 128.075 117.234C128.151 117.158 128.246 117.12 128.36 117.12H129.291C129.418 117.12 129.519 117.152 129.595 117.215C129.671 117.278 129.722 117.354 129.747 117.443L132.635 124.359L135.599 117.443C135.637 117.354 135.688 117.278 135.751 117.215C135.827 117.152 135.935 117.12 136.074 117.12H136.967C137.081 117.12 137.176 117.158 137.252 117.234C137.328 117.31 137.366 117.399 137.366 117.5C137.366 117.563 137.334 117.677 137.271 117.842L131.875 130.287C131.837 130.376 131.78 130.452 131.704 130.515C131.641 130.578 131.539 130.61 131.4 130.61H130.507ZM142.956 127.19C141.993 127.19 141.189 127.006 140.543 126.639C139.897 126.272 139.403 125.765 139.061 125.119C138.719 124.46 138.529 123.713 138.491 122.877C138.478 122.662 138.472 122.389 138.472 122.06C138.472 121.718 138.478 121.446 138.491 121.243C138.529 120.394 138.719 119.647 139.061 119.001C139.416 118.355 139.916 117.848 140.562 117.481C141.208 117.114 142.006 116.93 142.956 116.93C143.906 116.93 144.704 117.114 145.35 117.481C145.996 117.848 146.49 118.355 146.832 119.001C147.187 119.647 147.383 120.394 147.421 121.243C147.434 121.446 147.44 121.718 147.44 122.06C147.44 122.389 147.434 122.662 147.421 122.877C147.383 123.713 147.193 124.46 146.851 125.119C146.509 125.765 146.015 126.272 145.369 126.639C144.723 127.006 143.919 127.19 142.956 127.19ZM142.956 125.727C143.741 125.727 144.368 125.48 144.837 124.986C145.306 124.479 145.559 123.745 145.597 122.782C145.61 122.592 145.616 122.351 145.616 122.06C145.616 121.769 145.61 121.528 145.597 121.338C145.559 120.375 145.306 119.647 144.837 119.153C144.368 118.646 143.741 118.393 142.956 118.393C142.171 118.393 141.537 118.646 141.056 119.153C140.587 119.647 140.34 120.375 140.315 121.338C140.302 121.528 140.296 121.769 140.296 122.06C140.296 122.351 140.302 122.592 140.315 122.782C140.34 123.745 140.587 124.479 141.056 124.986C141.537 125.48 142.171 125.727 142.956 125.727ZM153.505 127.19C152.694 127.19 152.004 127.013 151.434 126.658C150.877 126.291 150.452 125.784 150.161 125.138C149.87 124.492 149.724 123.751 149.724 122.915V117.557C149.724 117.43 149.762 117.329 149.838 117.253C149.927 117.164 150.034 117.12 150.161 117.12H151.111C151.238 117.12 151.339 117.164 151.415 117.253C151.504 117.329 151.548 117.43 151.548 117.557V122.82C151.548 124.707 152.371 125.651 154.018 125.651C154.803 125.651 155.43 125.404 155.899 124.91C156.38 124.403 156.621 123.707 156.621 122.82V117.557C156.621 117.43 156.659 117.329 156.735 117.253C156.824 117.164 156.931 117.12 157.058 117.12H157.989C158.128 117.12 158.236 117.164 158.312 117.253C158.388 117.329 158.426 117.43 158.426 117.557V126.563C158.426 126.69 158.388 126.797 158.312 126.886C158.236 126.962 158.128 127 157.989 127H157.115C156.988 127 156.881 126.962 156.792 126.886C156.716 126.797 156.678 126.69 156.678 126.563V125.727C156.336 126.17 155.918 126.525 155.424 126.791C154.943 127.057 154.303 127.19 153.505 127.19ZM161.686 127C161.559 127 161.451 126.962 161.363 126.886C161.287 126.797 161.249 126.69 161.249 126.563V117.576C161.249 117.449 161.287 117.342 161.363 117.253C161.451 117.164 161.559 117.12 161.686 117.12H162.56C162.686 117.12 162.794 117.164 162.883 117.253C162.971 117.342 163.016 117.449 163.016 117.576V118.412C163.269 117.981 163.617 117.658 164.061 117.443C164.504 117.228 165.036 117.12 165.657 117.12H166.417C166.543 117.12 166.645 117.164 166.721 117.253C166.797 117.329 166.835 117.43 166.835 117.557V118.336C166.835 118.463 166.797 118.564 166.721 118.64C166.645 118.716 166.543 118.754 166.417 118.754H165.277C164.593 118.754 164.054 118.957 163.662 119.362C163.269 119.755 163.073 120.293 163.073 120.977V126.563C163.073 126.69 163.028 126.797 162.94 126.886C162.851 126.962 162.743 127 162.617 127H161.686ZM176.127 127C175.418 127 174.842 126.867 174.398 126.601C173.955 126.322 173.632 125.936 173.429 125.442C173.227 124.935 173.125 124.34 173.125 123.656V118.64H171.643C171.517 118.64 171.409 118.602 171.32 118.526C171.244 118.437 171.206 118.33 171.206 118.203V117.557C171.206 117.43 171.244 117.329 171.32 117.253C171.409 117.164 171.517 117.12 171.643 117.12H173.125V113.947C173.125 113.82 173.163 113.719 173.239 113.643C173.328 113.554 173.436 113.51 173.562 113.51H174.455C174.582 113.51 174.683 113.554 174.759 113.643C174.848 113.719 174.892 113.82 174.892 113.947V117.12H177.248C177.375 117.12 177.476 117.164 177.552 117.253C177.641 117.329 177.685 117.43 177.685 117.557V118.203C177.685 118.33 177.641 118.437 177.552 118.526C177.476 118.602 177.375 118.64 177.248 118.64H174.892V123.523C174.892 124.118 174.994 124.587 175.196 124.929C175.399 125.271 175.76 125.442 176.279 125.442H177.438C177.565 125.442 177.666 125.486 177.742 125.575C177.831 125.651 177.875 125.752 177.875 125.879V126.563C177.875 126.69 177.831 126.797 177.742 126.886C177.666 126.962 177.565 127 177.438 127H176.127ZM183.625 127.19C182.32 127.19 181.282 126.791 180.509 125.993C179.736 125.182 179.312 124.08 179.236 122.687C179.223 122.522 179.217 122.313 179.217 122.06C179.217 121.794 179.223 121.579 179.236 121.414C179.287 120.515 179.496 119.729 179.863 119.058C180.23 118.374 180.731 117.848 181.364 117.481C182.01 117.114 182.764 116.93 183.625 116.93C184.588 116.93 185.392 117.133 186.038 117.538C186.697 117.943 187.197 118.52 187.539 119.267C187.881 120.014 188.052 120.888 188.052 121.889V122.212C188.052 122.351 188.008 122.459 187.919 122.535C187.843 122.611 187.742 122.649 187.615 122.649H181.041C181.041 122.662 181.041 122.687 181.041 122.725C181.041 122.763 181.041 122.795 181.041 122.82C181.066 123.339 181.18 123.827 181.383 124.283C181.586 124.726 181.877 125.087 182.257 125.366C182.637 125.645 183.093 125.784 183.625 125.784C184.081 125.784 184.461 125.714 184.765 125.575C185.069 125.436 185.316 125.284 185.506 125.119C185.696 124.942 185.823 124.809 185.886 124.72C186 124.555 186.089 124.46 186.152 124.435C186.215 124.397 186.317 124.378 186.456 124.378H187.368C187.495 124.378 187.596 124.416 187.672 124.492C187.761 124.555 187.799 124.65 187.786 124.777C187.773 124.967 187.672 125.201 187.482 125.48C187.292 125.746 187.02 126.012 186.665 126.278C186.31 126.544 185.88 126.766 185.373 126.943C184.866 127.108 184.284 127.19 183.625 127.19ZM181.041 121.338H186.247V121.281C186.247 120.711 186.139 120.204 185.924 119.761C185.721 119.318 185.424 118.969 185.031 118.716C184.638 118.45 184.17 118.317 183.625 118.317C183.08 118.317 182.612 118.45 182.219 118.716C181.839 118.969 181.548 119.318 181.345 119.761C181.142 120.204 181.041 120.711 181.041 121.281V121.338ZM194.257 127.19C192.952 127.19 191.914 126.791 191.141 125.993C190.368 125.182 189.944 124.08 189.868 122.687C189.855 122.522 189.849 122.313 189.849 122.06C189.849 121.794 189.855 121.579 189.868 121.414C189.919 120.515 190.128 119.729 190.495 119.058C190.862 118.374 191.363 117.848 191.996 117.481C192.642 117.114 193.396 116.93 194.257 116.93C195.22 116.93 196.024 117.133 196.67 117.538C197.329 117.943 197.829 118.52 198.171 119.267C198.513 120.014 198.684 120.888 198.684 121.889V122.212C198.684 122.351 198.64 122.459 198.551 122.535C198.475 122.611 198.374 122.649 198.247 122.649H191.673C191.673 122.662 191.673 122.687 191.673 122.725C191.673 122.763 191.673 122.795 191.673 122.82C191.698 123.339 191.812 123.827 192.015 124.283C192.218 124.726 192.509 125.087 192.889 125.366C193.269 125.645 193.725 125.784 194.257 125.784C194.713 125.784 195.093 125.714 195.397 125.575C195.701 125.436 195.948 125.284 196.138 125.119C196.328 124.942 196.455 124.809 196.518 124.72C196.632 124.555 196.721 124.46 196.784 124.435C196.847 124.397 196.949 124.378 197.088 124.378H198C198.127 124.378 198.228 124.416 198.304 124.492C198.393 124.555 198.431 124.65 198.418 124.777C198.405 124.967 198.304 125.201 198.114 125.48C197.924 125.746 197.652 126.012 197.297 126.278C196.942 126.544 196.512 126.766 196.005 126.943C195.498 127.108 194.916 127.19 194.257 127.19ZM191.673 121.338H196.879V121.281C196.879 120.711 196.771 120.204 196.556 119.761C196.353 119.318 196.056 118.969 195.663 118.716C195.27 118.45 194.802 118.317 194.257 118.317C193.712 118.317 193.244 118.45 192.851 118.716C192.471 118.969 192.18 119.318 191.977 119.761C191.774 120.204 191.673 120.711 191.673 121.281V121.338ZM204.757 127C204.048 127 203.471 126.867 203.028 126.601C202.585 126.322 202.262 125.936 202.059 125.442C201.856 124.935 201.755 124.34 201.755 123.656V118.64H200.273C200.146 118.64 200.039 118.602 199.95 118.526C199.874 118.437 199.836 118.33 199.836 118.203V117.557C199.836 117.43 199.874 117.329 199.95 117.253C200.039 117.164 200.146 117.12 200.273 117.12H201.755V113.947C201.755 113.82 201.793 113.719 201.869 113.643C201.958 113.554 202.065 113.51 202.192 113.51H203.085C203.212 113.51 203.313 113.554 203.389 113.643C203.478 113.719 203.522 113.82 203.522 113.947V117.12H205.878C206.005 117.12 206.106 117.164 206.182 117.253C206.271 117.329 206.315 117.43 206.315 117.557V118.203C206.315 118.33 206.271 118.437 206.182 118.526C206.106 118.602 206.005 118.64 205.878 118.64H203.522V123.523C203.522 124.118 203.623 124.587 203.826 124.929C204.029 125.271 204.39 125.442 204.909 125.442H206.068C206.195 125.442 206.296 125.486 206.372 125.575C206.461 125.651 206.505 125.752 206.505 125.879V126.563C206.505 126.69 206.461 126.797 206.372 126.886C206.296 126.962 206.195 127 206.068 127H204.757ZM208.778 127C208.651 127 208.544 126.962 208.455 126.886C208.379 126.797 208.341 126.69 208.341 126.563V113.947C208.341 113.82 208.379 113.719 208.455 113.643C208.544 113.554 208.651 113.51 208.778 113.51H209.728C209.867 113.51 209.975 113.554 210.051 113.643C210.127 113.719 210.165 113.82 210.165 113.947V118.374C210.507 117.943 210.925 117.595 211.419 117.329C211.913 117.063 212.54 116.93 213.3 116.93C214.123 116.93 214.82 117.114 215.39 117.481C215.973 117.836 216.41 118.336 216.701 118.982C217.005 119.615 217.157 120.356 217.157 121.205V126.563C217.157 126.69 217.119 126.797 217.043 126.886C216.967 126.962 216.859 127 216.72 127H215.77C215.643 127 215.536 126.962 215.447 126.886C215.371 126.797 215.333 126.69 215.333 126.563V121.3C215.333 120.413 215.118 119.723 214.687 119.229C214.256 118.722 213.623 118.469 212.787 118.469C212.002 118.469 211.368 118.722 210.887 119.229C210.406 119.723 210.165 120.413 210.165 121.3V126.563C210.165 126.69 210.127 126.797 210.051 126.886C209.975 126.962 209.867 127 209.728 127H208.778ZM305.206 127.19C304.51 127.19 303.908 127.07 303.401 126.829C302.895 126.576 302.477 126.24 302.147 125.822C301.831 125.391 301.59 124.904 301.425 124.359C301.273 123.814 301.185 123.238 301.159 122.63C301.147 122.427 301.14 122.237 301.14 122.06C301.14 121.883 301.147 121.693 301.159 121.49C301.185 120.895 301.273 120.325 301.425 119.78C301.59 119.235 301.831 118.748 302.147 118.317C302.477 117.886 302.895 117.551 303.401 117.31C303.908 117.057 304.51 116.93 305.206 116.93C305.954 116.93 306.574 117.063 307.068 117.329C307.562 117.595 307.968 117.924 308.284 118.317V113.947C308.284 113.82 308.322 113.719 308.398 113.643C308.487 113.554 308.595 113.51 308.721 113.51H309.633C309.76 113.51 309.861 113.554 309.937 113.643C310.026 113.719 310.07 113.82 310.07 113.947V126.563C310.07 126.69 310.026 126.797 309.937 126.886C309.861 126.962 309.76 127 309.633 127H308.778C308.639 127 308.531 126.962 308.455 126.886C308.379 126.797 308.341 126.69 308.341 126.563V125.765C308.025 126.17 307.613 126.512 307.106 126.791C306.6 127.057 305.966 127.19 305.206 127.19ZM305.605 125.651C306.239 125.651 306.745 125.505 307.125 125.214C307.505 124.923 307.79 124.555 307.98 124.112C308.17 123.656 308.272 123.194 308.284 122.725C308.297 122.522 308.303 122.282 308.303 122.003C308.303 121.712 308.297 121.465 308.284 121.262C308.272 120.819 308.164 120.382 307.961 119.951C307.771 119.52 307.48 119.166 307.087 118.887C306.707 118.608 306.213 118.469 305.605 118.469C304.959 118.469 304.446 118.615 304.066 118.906C303.686 119.185 303.414 119.558 303.249 120.027C303.085 120.483 302.99 120.977 302.964 121.509C302.952 121.876 302.952 122.244 302.964 122.611C302.99 123.143 303.085 123.643 303.249 124.112C303.414 124.568 303.686 124.942 304.066 125.233C304.446 125.512 304.959 125.651 305.605 125.651ZM315.651 127.19C315.018 127.19 314.442 127.063 313.922 126.81C313.403 126.557 312.985 126.215 312.668 125.784C312.352 125.353 312.193 124.866 312.193 124.321C312.193 123.447 312.548 122.75 313.257 122.231C313.967 121.712 314.891 121.37 316.031 121.205L318.862 120.806V120.255C318.862 119.647 318.685 119.172 318.33 118.83C317.988 118.488 317.425 118.317 316.639 118.317C316.069 118.317 315.607 118.431 315.252 118.659C314.91 118.887 314.67 119.178 314.53 119.533C314.454 119.723 314.321 119.818 314.131 119.818H313.276C313.137 119.818 313.029 119.78 312.953 119.704C312.89 119.615 312.858 119.514 312.858 119.4C312.858 119.21 312.928 118.976 313.067 118.697C313.219 118.418 313.447 118.146 313.751 117.88C314.055 117.614 314.442 117.392 314.91 117.215C315.392 117.025 315.974 116.93 316.658 116.93C317.418 116.93 318.058 117.031 318.577 117.234C319.097 117.424 319.502 117.684 319.793 118.013C320.097 118.342 320.313 118.716 320.439 119.134C320.579 119.552 320.648 119.976 320.648 120.407V126.563C320.648 126.69 320.604 126.797 320.515 126.886C320.439 126.962 320.338 127 320.211 127H319.337C319.198 127 319.09 126.962 319.014 126.886C318.938 126.797 318.9 126.69 318.9 126.563V125.746C318.736 125.974 318.514 126.202 318.235 126.43C317.957 126.645 317.608 126.829 317.19 126.981C316.772 127.12 316.259 127.19 315.651 127.19ZM316.05 125.765C316.57 125.765 317.045 125.657 317.475 125.442C317.906 125.214 318.242 124.866 318.482 124.397C318.736 123.928 318.862 123.339 318.862 122.63V122.098L316.658 122.421C315.759 122.548 315.081 122.763 314.625 123.067C314.169 123.358 313.941 123.732 313.941 124.188C313.941 124.543 314.043 124.84 314.245 125.081C314.461 125.309 314.727 125.48 315.043 125.594C315.373 125.708 315.708 125.765 316.05 125.765ZM323.817 127C323.69 127 323.582 126.962 323.494 126.886C323.418 126.797 323.38 126.69 323.38 126.563V117.557C323.38 117.43 323.418 117.329 323.494 117.253C323.582 117.164 323.69 117.12 323.817 117.12H324.729C324.855 117.12 324.957 117.164 325.033 117.253C325.109 117.329 325.147 117.43 325.147 117.557V126.563C325.147 126.69 325.109 126.797 325.033 126.886C324.957 126.962 324.855 127 324.729 127H323.817ZM323.665 115.277C323.538 115.277 323.43 115.239 323.342 115.163C323.266 115.074 323.228 114.967 323.228 114.84V113.814C323.228 113.687 323.266 113.586 323.342 113.51C323.43 113.421 323.538 113.377 323.665 113.377H324.862C324.988 113.377 325.09 113.421 325.166 113.51C325.254 113.586 325.299 113.687 325.299 113.814V114.84C325.299 114.967 325.254 115.074 325.166 115.163C325.09 115.239 324.988 115.277 324.862 115.277H323.665ZM328.437 127C328.311 127 328.203 126.962 328.114 126.886C328.038 126.797 328 126.69 328 126.563V113.947C328 113.82 328.038 113.719 328.114 113.643C328.203 113.554 328.311 113.51 328.437 113.51H329.33C329.47 113.51 329.577 113.554 329.653 113.643C329.729 113.719 329.767 113.82 329.767 113.947V126.563C329.767 126.69 329.729 126.797 329.653 126.886C329.577 126.962 329.47 127 329.33 127H328.437ZM334.33 130.61C334.229 130.61 334.14 130.572 334.064 130.496C333.988 130.42 333.95 130.331 333.95 130.23C333.95 130.179 333.957 130.129 333.969 130.078C333.982 130.027 334.007 129.964 334.045 129.888L335.508 126.411L331.879 117.842C331.816 117.69 331.784 117.582 331.784 117.519C331.784 117.405 331.822 117.31 331.898 117.234C331.974 117.158 332.069 117.12 332.183 117.12H333.114C333.241 117.12 333.342 117.152 333.418 117.215C333.494 117.278 333.545 117.354 333.57 117.443L336.458 124.359L339.422 117.443C339.46 117.354 339.511 117.278 339.574 117.215C339.65 117.152 339.758 117.12 339.897 117.12H340.79C340.904 117.12 340.999 117.158 341.075 117.234C341.151 117.31 341.189 117.399 341.189 117.5C341.189 117.563 341.158 117.677 341.094 117.842L335.698 130.287C335.66 130.376 335.603 130.452 335.527 130.515C335.464 130.578 335.363 130.61 335.223 130.61H334.33Z" fill="white"/>
<path d="M239.003 127C238.876 127 238.769 126.962 238.68 126.886C238.604 126.797 238.566 126.69 238.566 126.563V117.557C238.566 117.43 238.604 117.329 238.68 117.253C238.769 117.164 238.876 117.12 239.003 117.12H239.858C239.985 117.12 240.086 117.164 240.162 117.253C240.251 117.329 240.295 117.43 240.295 117.557V118.222C240.586 117.829 240.954 117.519 241.397 117.291C241.84 117.05 242.372 116.93 242.993 116.93C244.424 116.917 245.438 117.5 246.033 118.678C246.324 118.146 246.749 117.722 247.306 117.405C247.863 117.088 248.497 116.93 249.206 116.93C249.865 116.93 250.46 117.082 250.992 117.386C251.537 117.69 251.961 118.152 252.265 118.773C252.582 119.381 252.74 120.147 252.74 121.072V126.563C252.74 126.69 252.696 126.797 252.607 126.886C252.531 126.962 252.43 127 252.303 127H251.41C251.283 127 251.176 126.962 251.087 126.886C251.011 126.797 250.973 126.69 250.973 126.563V121.243C250.973 120.534 250.872 119.976 250.669 119.571C250.466 119.166 250.194 118.881 249.852 118.716C249.51 118.551 249.136 118.469 248.731 118.469C248.402 118.469 248.066 118.551 247.724 118.716C247.382 118.881 247.097 119.166 246.869 119.571C246.654 119.976 246.546 120.534 246.546 121.243V126.563C246.546 126.69 246.502 126.797 246.413 126.886C246.337 126.962 246.236 127 246.109 127H245.216C245.089 127 244.982 126.962 244.893 126.886C244.817 126.797 244.779 126.69 244.779 126.563V121.243C244.779 120.534 244.671 119.976 244.456 119.571C244.241 119.166 243.962 118.881 243.62 118.716C243.278 118.551 242.917 118.469 242.537 118.469C242.208 118.469 241.872 118.551 241.53 118.716C241.188 118.881 240.903 119.166 240.675 119.571C240.46 119.976 240.352 120.527 240.352 121.224V126.563C240.352 126.69 240.308 126.797 240.219 126.886C240.143 126.962 240.042 127 239.915 127H239.003ZM258.206 127.19C257.573 127.19 256.996 127.063 256.477 126.81C255.958 126.557 255.54 126.215 255.223 125.784C254.906 125.353 254.748 124.866 254.748 124.321C254.748 123.447 255.103 122.75 255.812 122.231C256.521 121.712 257.446 121.37 258.586 121.205L261.417 120.806V120.255C261.417 119.647 261.24 119.172 260.885 118.83C260.543 118.488 259.979 118.317 259.194 118.317C258.624 118.317 258.162 118.431 257.807 118.659C257.465 118.887 257.224 119.178 257.085 119.533C257.009 119.723 256.876 119.818 256.686 119.818H255.831C255.692 119.818 255.584 119.78 255.508 119.704C255.445 119.615 255.413 119.514 255.413 119.4C255.413 119.21 255.483 118.976 255.622 118.697C255.774 118.418 256.002 118.146 256.306 117.88C256.61 117.614 256.996 117.392 257.465 117.215C257.946 117.025 258.529 116.93 259.213 116.93C259.973 116.93 260.613 117.031 261.132 117.234C261.651 117.424 262.057 117.684 262.348 118.013C262.652 118.342 262.867 118.716 262.994 119.134C263.133 119.552 263.203 119.976 263.203 120.407V126.563C263.203 126.69 263.159 126.797 263.07 126.886C262.994 126.962 262.893 127 262.766 127H261.892C261.753 127 261.645 126.962 261.569 126.886C261.493 126.797 261.455 126.69 261.455 126.563V125.746C261.29 125.974 261.069 126.202 260.79 126.43C260.511 126.645 260.163 126.829 259.745 126.981C259.327 127.12 258.814 127.19 258.206 127.19ZM258.605 125.765C259.124 125.765 259.599 125.657 260.03 125.442C260.461 125.214 260.796 124.866 261.037 124.397C261.29 123.928 261.417 123.339 261.417 122.63V122.098L259.213 122.421C258.314 122.548 257.636 122.763 257.18 123.067C256.724 123.358 256.496 123.732 256.496 124.188C256.496 124.543 256.597 124.84 256.8 125.081C257.015 125.309 257.281 125.48 257.598 125.594C257.927 125.708 258.263 125.765 258.605 125.765ZM266.371 127C266.245 127 266.137 126.962 266.048 126.886C265.972 126.797 265.934 126.69 265.934 126.563V117.576C265.934 117.449 265.972 117.342 266.048 117.253C266.137 117.164 266.245 117.12 266.371 117.12H267.245C267.372 117.12 267.48 117.164 267.568 117.253C267.657 117.342 267.701 117.449 267.701 117.576V118.412C267.955 117.981 268.303 117.658 268.746 117.443C269.19 117.228 269.722 117.12 270.342 117.12H271.102C271.229 117.12 271.33 117.164 271.406 117.253C271.482 117.329 271.52 117.43 271.52 117.557V118.336C271.52 118.463 271.482 118.564 271.406 118.64C271.33 118.716 271.229 118.754 271.102 118.754H269.962C269.278 118.754 268.74 118.957 268.347 119.362C267.955 119.755 267.758 120.293 267.758 120.977V126.563C267.758 126.69 267.714 126.797 267.625 126.886C267.537 126.962 267.429 127 267.302 127H266.371ZM273.608 127C273.481 127 273.374 126.962 273.285 126.886C273.209 126.797 273.171 126.69 273.171 126.563V113.947C273.171 113.82 273.209 113.719 273.285 113.643C273.374 113.554 273.481 113.51 273.608 113.51H274.501C274.628 113.51 274.729 113.554 274.805 113.643C274.894 113.719 274.938 113.82 274.938 113.947V120.559L278.681 117.443C278.833 117.316 278.947 117.234 279.023 117.196C279.112 117.145 279.251 117.12 279.441 117.12H280.448C280.562 117.12 280.657 117.158 280.733 117.234C280.809 117.31 280.847 117.405 280.847 117.519C280.847 117.57 280.828 117.627 280.79 117.69C280.765 117.753 280.708 117.817 280.619 117.88L276.23 121.528L281.094 126.259C281.246 126.386 281.322 126.5 281.322 126.601C281.322 126.715 281.284 126.81 281.208 126.886C281.132 126.962 281.037 127 280.923 127H279.935C279.745 127 279.606 126.981 279.517 126.943C279.428 126.892 279.314 126.804 279.175 126.677L274.938 122.63V126.563C274.938 126.69 274.894 126.797 274.805 126.886C274.729 126.962 274.628 127 274.501 127H273.608ZM361.2 128.596C361.099 128.596 361.01 128.558 360.934 128.482C360.858 128.406 360.82 128.317 360.82 128.216C360.82 128.153 360.839 128.077 360.877 127.988L367.375 112.408C367.413 112.332 367.464 112.256 367.527 112.18C367.603 112.104 367.717 112.066 367.869 112.066H368.61C368.712 112.066 368.8 112.104 368.876 112.18C368.952 112.256 368.99 112.345 368.99 112.446C368.99 112.497 368.978 112.573 368.952 112.674L362.435 128.254C362.41 128.317 362.353 128.387 362.264 128.463C362.188 128.552 362.081 128.596 361.941 128.596H361.2ZM375.974 127C375.847 127 375.74 126.962 375.651 126.886C375.575 126.797 375.537 126.69 375.537 126.563V117.557C375.537 117.43 375.575 117.329 375.651 117.253C375.74 117.164 375.847 117.12 375.974 117.12H376.829C376.956 117.12 377.057 117.164 377.133 117.253C377.222 117.329 377.266 117.43 377.266 117.557V118.222C377.557 117.829 377.925 117.519 378.368 117.291C378.811 117.05 379.343 116.93 379.964 116.93C381.395 116.917 382.409 117.5 383.004 118.678C383.295 118.146 383.72 117.722 384.277 117.405C384.834 117.088 385.468 116.93 386.177 116.93C386.836 116.93 387.431 117.082 387.963 117.386C388.508 117.69 388.932 118.152 389.236 118.773C389.553 119.381 389.711 120.147 389.711 121.072V126.563C389.711 126.69 389.667 126.797 389.578 126.886C389.502 126.962 389.401 127 389.274 127H388.381C388.254 127 388.147 126.962 388.058 126.886C387.982 126.797 387.944 126.69 387.944 126.563V121.243C387.944 120.534 387.843 119.976 387.64 119.571C387.437 119.166 387.165 118.881 386.823 118.716C386.481 118.551 386.107 118.469 385.702 118.469C385.373 118.469 385.037 118.551 384.695 118.716C384.353 118.881 384.068 119.166 383.84 119.571C383.625 119.976 383.517 120.534 383.517 121.243V126.563C383.517 126.69 383.473 126.797 383.384 126.886C383.308 126.962 383.207 127 383.08 127H382.187C382.06 127 381.953 126.962 381.864 126.886C381.788 126.797 381.75 126.69 381.75 126.563V121.243C381.75 120.534 381.642 119.976 381.427 119.571C381.212 119.166 380.933 118.881 380.591 118.716C380.249 118.551 379.888 118.469 379.508 118.469C379.179 118.469 378.843 118.551 378.501 118.716C378.159 118.881 377.874 119.166 377.646 119.571C377.431 119.976 377.323 120.527 377.323 121.224V126.563C377.323 126.69 377.279 126.797 377.19 126.886C377.114 126.962 377.013 127 376.886 127H375.974ZM395.177 127.19C394.543 127.19 393.967 127.063 393.448 126.81C392.928 126.557 392.51 126.215 392.194 125.784C391.877 125.353 391.719 124.866 391.719 124.321C391.719 123.447 392.073 122.75 392.783 122.231C393.492 121.712 394.417 121.37 395.557 121.205L398.388 120.806V120.255C398.388 119.647 398.21 119.172 397.856 118.83C397.514 118.488 396.95 118.317 396.165 118.317C395.595 118.317 395.132 118.431 394.778 118.659C394.436 118.887 394.195 119.178 394.056 119.533C393.98 119.723 393.847 119.818 393.657 119.818H392.802C392.662 119.818 392.555 119.78 392.479 119.704C392.415 119.615 392.384 119.514 392.384 119.4C392.384 119.21 392.453 118.976 392.593 118.697C392.745 118.418 392.973 118.146 393.277 117.88C393.581 117.614 393.967 117.392 394.436 117.215C394.917 117.025 395.5 116.93 396.184 116.93C396.944 116.93 397.583 117.031 398.103 117.234C398.622 117.424 399.027 117.684 399.319 118.013C399.623 118.342 399.838 118.716 399.965 119.134C400.104 119.552 400.174 119.976 400.174 120.407V126.563C400.174 126.69 400.129 126.797 400.041 126.886C399.965 126.962 399.863 127 399.737 127H398.863C398.723 127 398.616 126.962 398.54 126.886C398.464 126.797 398.426 126.69 398.426 126.563V125.746C398.261 125.974 398.039 126.202 397.761 126.43C397.482 126.645 397.134 126.829 396.716 126.981C396.298 127.12 395.785 127.19 395.177 127.19ZM395.576 125.765C396.095 125.765 396.57 125.657 397.001 125.442C397.431 125.214 397.767 124.866 398.008 124.397C398.261 123.928 398.388 123.339 398.388 122.63V122.098L396.184 122.421C395.284 122.548 394.607 122.763 394.151 123.067C393.695 123.358 393.467 123.732 393.467 124.188C393.467 124.543 393.568 124.84 393.771 125.081C393.986 125.309 394.252 125.48 394.569 125.594C394.898 125.708 395.234 125.765 395.576 125.765ZM403.342 127C403.215 127 403.108 126.962 403.019 126.886C402.943 126.797 402.905 126.69 402.905 126.563V117.576C402.905 117.449 402.943 117.342 403.019 117.253C403.108 117.164 403.215 117.12 403.342 117.12H404.216C404.343 117.12 404.45 117.164 404.539 117.253C404.628 117.342 404.672 117.449 404.672 117.576V118.412C404.925 117.981 405.274 117.658 405.717 117.443C406.16 117.228 406.692 117.12 407.313 117.12H408.073C408.2 117.12 408.301 117.164 408.377 117.253C408.453 117.329 408.491 117.43 408.491 117.557V118.336C408.491 118.463 408.453 118.564 408.377 118.64C408.301 118.716 408.2 118.754 408.073 118.754H406.933C406.249 118.754 405.711 118.957 405.318 119.362C404.925 119.755 404.729 120.293 404.729 120.977V126.563C404.729 126.69 404.685 126.797 404.596 126.886C404.507 126.962 404.4 127 404.273 127H403.342ZM410.579 127C410.452 127 410.344 126.962 410.256 126.886C410.18 126.797 410.142 126.69 410.142 126.563V113.947C410.142 113.82 410.18 113.719 410.256 113.643C410.344 113.554 410.452 113.51 410.579 113.51H411.472C411.598 113.51 411.7 113.554 411.776 113.643C411.864 113.719 411.909 113.82 411.909 113.947V120.559L415.652 117.443C415.804 117.316 415.918 117.234 415.994 117.196C416.082 117.145 416.222 117.12 416.412 117.12H417.419C417.533 117.12 417.628 117.158 417.704 117.234C417.78 117.31 417.818 117.405 417.818 117.519C417.818 117.57 417.799 117.627 417.761 117.69C417.735 117.753 417.678 117.817 417.59 117.88L413.201 121.528L418.065 126.259C418.217 126.386 418.293 126.5 418.293 126.601C418.293 126.715 418.255 126.81 418.179 126.886C418.103 126.962 418.008 127 417.894 127H416.906C416.716 127 416.576 126.981 416.488 126.943C416.399 126.892 416.285 126.804 416.146 126.677L411.909 122.63V126.563C411.909 126.69 411.864 126.797 411.776 126.886C411.7 126.962 411.598 127 411.472 127H410.579Z" fill="white" fill-opacity="0.75"/>
<g filter="url(#filter0_d_176_37)">
<path d="M4 12C4 5.37258 9.37258 0 16 0H578C584.627 0 590 5.37258 590 12V43H4V12Z" fill="#242526"/>
</g>
<ellipse cx="29.1279" cy="21.9139" rx="5.84369" ry="6.72025" fill="#E65100"/>
<ellipse cx="48.4121" cy="21.9139" rx="5.84369" ry="6.72025" fill="#FFD600"/>
<ellipse cx="67.6962" cy="21.9139" rx="5.84369" ry="6.72025" fill="#4EC433"/>
<defs>
<filter id="filter0_d_176_37" x="0" y="0" width="594" height="51" filterUnits="userSpaceOnUse" color-interpolation-filters="sRGB">
<feFlood flood-opacity="0" result="BackgroundImageFix"/>
<feColorMatrix in="SourceAlpha" type="matrix" values="0 0 0 0 0 0 0 0 0 0 0 0 0 0 0 0 0 0 127 0" result="hardAlpha"/>
<feOffset dy="4"/>
<feGaussianBlur stdDeviation="2"/>
<feComposite in2="hardAlpha" operator="out"/>
<feColorMatrix type="matrix" values="0 0 0 0 0 0 0 0 0 0 0 0 0 0 0 0 0 0 0.25 0"/>
<feBlend mode="normal" in2="BackgroundImageFix" result="effect1_dropShadow_176_37"/>
<feBlend mode="normal" in="SourceGraphic" in2="effect1_dropShadow_176_37" result="shape"/>
</filter>
</defs>
</svg>
