<svg width="530" height="353" viewBox="0 0 530 353" fill="none" xmlns="http://www.w3.org/2000/svg">
<path fill-rule="evenodd" clip-rule="evenodd" d="M420.923 318.257C420.813 318.037 420.879 317.772 421.1 317.662L423.415 316.405C423.635 316.295 423.9 316.361 424.01 316.582C424.12 316.802 424.054 317.067 423.834 317.177L421.519 318.433C421.453 318.478 421.386 318.478 421.32 318.478C421.166 318.478 421.012 318.389 420.923 318.257ZM425.575 315.722C425.465 315.501 425.531 315.237 425.752 315.126L428.067 313.87C428.287 313.76 428.552 313.826 428.662 314.046C428.772 314.267 428.706 314.531 428.486 314.641L426.171 315.898C426.104 315.942 426.038 315.942 425.972 315.942C425.818 315.942 425.664 315.854 425.575 315.722Z" fill="#EAEAFF"/>
<path fill-rule="evenodd" clip-rule="evenodd" d="M363.469 308.204C363.469 307.961 363.645 307.763 363.888 307.741C364.726 307.719 365.608 307.653 366.489 307.542C366.732 307.52 366.952 307.697 366.974 307.939C366.996 308.182 366.82 308.402 366.578 308.424C365.674 308.512 364.792 308.579 363.91 308.623C363.932 308.623 363.91 308.623 363.91 308.623C363.667 308.623 363.469 308.446 363.469 308.204ZM361.242 308.601C360.316 308.557 359.412 308.446 358.597 308.292H358.575C358.332 308.248 358.178 308.027 358.222 307.785C358.266 307.542 358.486 307.388 358.729 307.432H358.773C359.545 307.586 360.404 307.675 361.308 307.719C361.551 307.741 361.727 307.939 361.727 308.182C361.705 308.402 361.507 308.601 361.264 308.601H361.242ZM368.738 307.675C368.694 307.432 368.87 307.212 369.091 307.168C369.929 307.035 370.789 306.859 371.67 306.683C371.913 306.638 372.133 306.793 372.2 307.013C372.244 307.256 372.089 307.476 371.869 307.542C370.987 307.741 370.105 307.895 369.245 308.027C369.223 308.049 369.201 308.049 369.179 308.049C368.959 308.049 368.782 307.895 368.738 307.675ZM355.951 307.697C355.069 307.476 354.209 307.212 353.393 306.925C353.173 306.837 353.041 306.594 353.129 306.374C353.217 306.153 353.46 306.021 353.68 306.109C354.496 306.396 355.334 306.638 356.171 306.859C356.414 306.925 356.546 307.168 356.48 307.388C356.436 307.586 356.26 307.719 356.061 307.719C356.017 307.719 355.995 307.719 355.951 307.697ZM373.941 306.638C373.875 306.396 374.029 306.153 374.272 306.109C375.088 305.911 375.948 305.668 376.807 305.426C377.05 305.36 377.292 305.492 377.359 305.734C377.425 305.977 377.292 306.22 377.05 306.286C376.19 306.528 375.308 306.771 374.47 306.969C374.426 306.969 374.404 306.969 374.36 306.969C374.162 306.969 373.985 306.837 373.941 306.638ZM350.902 305.933C350.086 305.558 349.271 305.161 348.499 304.72C348.279 304.61 348.212 304.323 348.323 304.125C348.433 303.905 348.72 303.838 348.918 303.949C349.668 304.368 350.439 304.764 351.233 305.117C351.453 305.227 351.564 305.47 351.453 305.69C351.409 305.867 351.233 305.977 351.079 305.977C351.012 305.977 350.946 305.955 350.902 305.933ZM379.034 305.205C378.968 304.963 379.078 304.72 379.321 304.654C380.136 304.39 380.974 304.125 381.834 303.816C382.055 303.728 382.319 303.86 382.385 304.081C382.451 304.301 382.341 304.566 382.121 304.632C381.283 304.919 380.423 305.205 379.585 305.47C379.541 305.492 379.497 305.514 379.453 305.514C379.277 305.514 379.1 305.404 379.034 305.205ZM384.039 303.486C383.951 303.265 384.061 303.001 384.303 302.912C385.119 302.604 385.935 302.295 386.773 301.964C386.993 301.876 387.258 301.986 387.346 302.207C387.434 302.427 387.324 302.692 387.103 302.78C386.266 303.111 385.428 303.42 384.612 303.728C384.568 303.772 384.502 303.772 384.458 303.772C384.281 303.772 384.105 303.662 384.039 303.486ZM346.228 303.287C345.501 302.758 344.795 302.207 344.112 301.612C343.935 301.457 343.913 301.171 344.068 300.994C344.222 300.818 344.509 300.796 344.685 300.95C345.324 301.523 346.008 302.053 346.713 302.56C346.912 302.692 346.956 302.979 346.823 303.177C346.757 303.309 346.625 303.375 346.493 303.375C346.405 303.375 346.316 303.353 346.228 303.287ZM488.387 303.001C488.145 302.957 487.99 302.736 488.035 302.494C488.079 302.251 488.299 302.097 488.542 302.141C489.357 302.273 490.195 302.295 491.055 302.185C491.298 302.163 491.518 302.317 491.54 302.56C491.562 302.802 491.408 303.023 491.165 303.045C490.746 303.089 490.327 303.133 489.931 303.133C489.424 303.133 488.894 303.089 488.387 303.001ZM493.238 302.097C493.15 301.876 493.26 301.612 493.48 301.523C494.23 301.237 495.001 300.84 495.773 300.355C495.972 300.223 496.258 300.289 496.39 300.487C496.523 300.686 496.457 300.972 496.258 301.105C495.442 301.612 494.627 302.031 493.833 302.339C493.745 302.361 493.701 302.383 493.657 302.383C493.48 302.383 493.304 302.273 493.238 302.097ZM485.764 302.119C484.992 301.722 484.22 301.237 483.471 300.62C483.272 300.465 483.25 300.179 483.405 300.002C483.559 299.804 483.846 299.782 484.022 299.936C484.705 300.509 485.433 300.972 486.139 301.325C486.359 301.435 486.447 301.7 486.337 301.92C486.271 302.075 486.117 302.163 485.962 302.163C485.896 302.163 485.83 302.141 485.764 302.119ZM388.977 301.568C388.889 301.347 388.999 301.083 389.22 300.994C390.036 300.664 390.851 300.311 391.645 299.958C391.866 299.87 392.13 299.958 392.218 300.179C392.306 300.399 392.218 300.664 391.998 300.752C391.182 301.105 390.366 301.457 389.551 301.788C389.506 301.832 389.44 301.832 389.374 301.832C389.198 301.832 389.043 301.722 388.977 301.568ZM342.194 299.716C341.598 299.054 341.025 298.349 340.496 297.621C340.342 297.423 340.386 297.158 340.584 297.004C340.783 296.85 341.047 296.894 341.201 297.092C341.709 297.798 342.26 298.459 342.833 299.098C342.987 299.275 342.987 299.561 342.811 299.716C342.745 299.826 342.635 299.87 342.524 299.87C342.414 299.87 342.282 299.826 342.194 299.716ZM393.828 299.451C393.717 299.231 393.828 298.966 394.048 298.856C394.842 298.481 395.658 298.106 396.429 297.731C396.65 297.621 396.914 297.709 397.024 297.93C397.135 298.15 397.047 298.415 396.826 298.525C396.032 298.9 395.217 299.297 394.423 299.649C394.357 299.694 394.291 299.716 394.225 299.716C394.048 299.716 393.894 299.627 393.828 299.451ZM497.823 299.495C497.669 299.297 497.691 299.032 497.89 298.878C498.529 298.349 499.19 297.776 499.83 297.136C500.006 296.96 500.271 296.96 500.447 297.136C500.623 297.313 500.623 297.577 500.447 297.753C499.786 298.415 499.124 299.01 498.463 299.561C498.353 299.605 498.242 299.649 498.154 299.649C498.022 299.649 497.89 299.583 497.823 299.495ZM481.531 298.724C481.09 298.216 480.649 297.665 480.23 297.092C480.12 296.938 479.987 296.761 479.877 296.607C479.745 296.409 479.789 296.144 479.987 295.99C480.186 295.857 480.472 295.902 480.605 296.1C480.715 296.254 480.825 296.409 480.957 296.585C481.354 297.158 481.773 297.687 482.214 298.15C482.368 298.327 482.346 298.613 482.17 298.768C482.082 298.834 481.972 298.878 481.861 298.878C481.729 298.878 481.619 298.834 481.531 298.724ZM398.612 297.18C398.502 296.96 398.59 296.695 398.81 296.585C399.582 296.188 400.376 295.791 401.169 295.394C401.39 295.284 401.654 295.372 401.765 295.593C401.875 295.813 401.787 296.078 401.566 296.188C400.773 296.585 399.979 297.004 399.207 297.401C399.141 297.401 399.075 297.423 399.009 297.423C398.854 297.423 398.7 297.335 398.612 297.18ZM501.638 295.813C501.461 295.659 501.439 295.372 501.593 295.196C502.145 294.535 502.696 293.851 503.225 293.146C503.379 292.947 503.644 292.903 503.842 293.057C504.041 293.212 504.085 293.476 503.93 293.675C503.401 294.402 502.828 295.108 502.255 295.769C502.167 295.857 502.034 295.924 501.924 295.924C501.814 295.924 501.726 295.879 501.638 295.813ZM339.041 295.394C338.6 294.623 338.181 293.829 337.828 292.991C337.74 292.771 337.828 292.506 338.049 292.418C338.269 292.33 338.534 292.418 338.622 292.639C338.975 293.432 339.372 294.204 339.79 294.953C339.901 295.174 339.835 295.439 339.636 295.549C339.57 295.593 339.482 295.615 339.416 295.615C339.261 295.615 339.107 295.527 339.041 295.394ZM403.33 294.733C403.22 294.513 403.286 294.248 403.506 294.138C404.278 293.719 405.05 293.3 405.821 292.881C406.042 292.771 406.306 292.837 406.417 293.057C406.527 293.278 406.461 293.542 406.24 293.653C405.469 294.072 404.697 294.513 403.925 294.909C403.859 294.976 403.793 294.976 403.727 294.976C403.572 294.976 403.418 294.887 403.33 294.733ZM478.4 294.402C477.893 293.609 477.408 292.837 477.011 292.109C476.901 291.889 476.967 291.624 477.187 291.514C477.408 291.404 477.672 291.47 477.783 291.691C478.18 292.396 478.621 293.146 479.128 293.939C479.26 294.138 479.194 294.424 478.995 294.557C478.929 294.579 478.841 294.601 478.775 294.601C478.62 294.601 478.488 294.535 478.4 294.402ZM407.96 292.198C407.85 291.977 407.916 291.713 408.114 291.602C408.864 291.161 409.635 290.72 410.407 290.28C410.627 290.147 410.892 290.235 411.002 290.434C411.135 290.654 411.046 290.919 410.848 291.029C410.076 291.492 409.305 291.933 408.555 292.374C408.489 292.396 408.423 292.418 408.335 292.418C408.18 292.418 408.026 292.33 407.96 292.198ZM336.858 290.478C336.572 289.64 336.329 288.78 336.131 287.898C336.087 287.656 336.219 287.413 336.461 287.369C336.704 287.325 336.946 287.458 336.991 287.7C337.189 288.56 337.431 289.398 337.696 290.213C337.762 290.434 337.652 290.698 337.409 290.765C337.365 290.787 337.321 290.787 337.277 290.787C337.101 290.787 336.924 290.676 336.858 290.478ZM475.821 289.706C475.424 288.78 475.159 287.943 474.961 287.127C474.917 286.884 475.049 286.664 475.291 286.598C475.534 286.554 475.754 286.686 475.821 286.928C475.997 287.7 476.261 288.494 476.636 289.354C476.724 289.574 476.636 289.839 476.394 289.927C476.35 289.949 476.283 289.971 476.217 289.971C476.041 289.971 475.887 289.861 475.821 289.706ZM412.524 289.508C412.391 289.309 412.457 289.023 412.678 288.891C413.427 288.428 414.177 287.965 414.927 287.502C415.125 287.369 415.412 287.435 415.544 287.634C415.676 287.832 415.61 288.119 415.412 288.251C414.662 288.714 413.912 289.199 413.163 289.64C413.053 289.706 412.987 289.728 412.898 289.728C412.744 289.728 412.612 289.662 412.524 289.508ZM417.021 286.708C416.889 286.509 416.955 286.223 417.153 286.091C417.903 285.606 418.631 285.121 419.358 284.635C419.557 284.503 419.843 284.547 419.975 284.746C420.108 284.944 420.064 285.231 419.865 285.363C419.138 285.848 418.388 286.333 417.661 286.818C417.55 286.884 417.462 286.906 417.396 286.906C417.242 286.906 417.109 286.84 417.021 286.708ZM335.646 285.253C335.513 284.393 335.425 283.489 335.381 282.585C335.359 282.343 335.557 282.122 335.8 282.122C336.042 282.1 336.263 282.299 336.263 282.541C336.307 283.423 336.395 284.283 336.528 285.143C336.572 285.385 336.395 285.606 336.153 285.65C336.131 285.628 336.109 285.628 336.087 285.628C335.866 285.628 335.69 285.473 335.646 285.253ZM475.115 284.834C474.872 284.812 474.674 284.613 474.696 284.371C474.74 283.467 474.917 282.585 475.247 281.659C475.335 281.439 475.578 281.306 475.821 281.395C476.041 281.483 476.173 281.725 476.085 281.968C475.776 282.806 475.622 283.599 475.578 284.415C475.556 284.658 475.38 284.834 475.137 284.834H475.115ZM421.431 283.754C421.298 283.555 421.342 283.269 421.541 283.136C422.268 282.629 422.996 282.122 423.701 281.615C423.9 281.483 424.164 281.527 424.319 281.725C424.451 281.924 424.407 282.188 424.208 282.343C423.503 282.85 422.775 283.379 422.048 283.864C421.96 283.93 421.871 283.952 421.783 283.952C421.651 283.952 421.497 283.886 421.431 283.754ZM425.73 280.689C425.575 280.491 425.619 280.226 425.818 280.072C426.523 279.543 427.229 279.013 427.912 278.484C428.111 278.33 428.375 278.374 428.53 278.573C428.684 278.771 428.64 279.036 428.441 279.19C427.758 279.719 427.031 280.27 426.325 280.799C426.259 280.821 426.171 280.865 426.082 280.865C425.95 280.865 425.818 280.799 425.73 280.689ZM335.315 279.917C335.337 279.036 335.359 278.154 335.447 277.25C335.469 277.007 335.668 276.831 335.932 276.853C336.175 276.875 336.351 277.095 336.329 277.338C336.263 278.22 336.219 279.102 336.197 279.939C336.197 280.16 335.998 280.358 335.756 280.358C335.513 280.358 335.315 280.16 335.315 279.917ZM476.592 279.807C476.372 279.675 476.306 279.41 476.438 279.212C476.813 278.573 477.276 277.845 477.893 276.963C478.025 276.765 478.312 276.721 478.51 276.853C478.709 276.985 478.753 277.272 478.62 277.47C478.025 278.352 477.562 279.036 477.209 279.653C477.121 279.807 476.967 279.873 476.813 279.873C476.747 279.873 476.658 279.851 476.592 279.807ZM429.919 277.448C429.764 277.25 429.786 276.985 429.985 276.831C430.668 276.28 431.374 275.706 432.035 275.155C432.234 275.001 432.498 275.023 432.652 275.221C432.807 275.398 432.785 275.684 432.586 275.839C431.925 276.39 431.219 276.963 430.536 277.514C430.47 277.58 430.382 277.625 430.271 277.625C430.139 277.625 430.007 277.558 429.919 277.448ZM479.502 275.42C479.304 275.288 479.26 275.001 479.392 274.803C479.855 274.141 480.362 273.414 480.891 272.642C481.024 272.443 481.31 272.399 481.509 272.532C481.707 272.664 481.751 272.951 481.619 273.149C481.09 273.943 480.561 274.67 480.098 275.332C480.054 275.442 479.921 275.508 479.767 275.508C479.679 275.508 479.591 275.486 479.502 275.42ZM336.131 275.089C335.888 275.045 335.734 274.825 335.756 274.582C335.888 273.722 336.042 272.84 336.219 271.958C336.263 271.716 336.505 271.562 336.748 271.606C336.991 271.65 337.145 271.892 337.101 272.135C336.924 272.995 336.77 273.855 336.638 274.714C336.594 274.935 336.395 275.089 336.197 275.089C336.175 275.089 336.153 275.089 336.131 275.089ZM434.019 274.075C433.865 273.899 433.887 273.612 434.063 273.458C434.725 272.884 435.386 272.289 436.026 271.694C436.202 271.54 436.489 271.54 436.643 271.716C436.797 271.892 436.797 272.179 436.621 272.333C435.982 272.929 435.32 273.524 434.637 274.097C434.549 274.185 434.438 274.229 434.35 274.229C434.218 274.229 434.108 274.185 434.019 274.075ZM482.501 271.055C482.302 270.922 482.236 270.658 482.368 270.437C482.854 269.688 483.294 268.938 483.713 268.188C483.824 267.968 484.11 267.902 484.309 268.034C484.529 268.144 484.595 268.431 484.463 268.629C484.022 269.401 483.581 270.151 483.096 270.9C483.03 271.055 482.898 271.121 482.743 271.121C482.655 271.121 482.589 271.099 482.501 271.055ZM437.944 270.525C437.767 270.349 437.789 270.062 437.966 269.908C438.605 269.291 439.245 268.673 439.84 268.056C440.016 267.88 440.281 267.88 440.457 268.056C440.633 268.233 440.633 268.497 440.457 268.673C439.862 269.291 439.223 269.93 438.561 270.547C438.473 270.614 438.363 270.658 438.252 270.658C438.142 270.658 438.032 270.614 437.944 270.525ZM337.145 269.886C336.902 269.82 336.77 269.577 336.836 269.357C337.057 268.519 337.321 267.659 337.586 266.799C337.652 266.557 337.916 266.447 338.137 266.513C338.379 266.579 338.49 266.844 338.424 267.064C338.159 267.902 337.894 268.74 337.674 269.577C337.63 269.776 337.453 269.908 337.255 269.908C337.211 269.908 337.189 269.908 337.145 269.886ZM441.648 266.755C441.471 266.601 441.449 266.314 441.626 266.138C442.221 265.477 442.816 264.815 443.367 264.176C443.522 263.999 443.808 263.977 443.985 264.132C444.161 264.286 444.183 264.573 444.029 264.749C443.478 265.41 442.882 266.072 442.265 266.755C442.199 266.822 442.067 266.866 441.956 266.866C441.846 266.866 441.736 266.822 441.648 266.755ZM485.168 266.491C484.948 266.381 484.86 266.116 484.97 265.896C485.08 265.675 485.19 265.455 485.323 265.212C485.587 264.683 485.852 264.11 486.094 263.537C486.183 263.316 486.447 263.206 486.668 263.294C486.888 263.382 486.998 263.647 486.91 263.867C486.668 264.462 486.403 265.058 486.117 265.609C486.006 265.851 485.874 266.072 485.764 266.292C485.676 266.447 485.521 266.535 485.367 266.535C485.301 266.535 485.235 266.513 485.168 266.491ZM338.732 264.859C338.512 264.771 338.379 264.529 338.468 264.286C338.776 263.47 339.107 262.633 339.46 261.817C339.548 261.596 339.813 261.486 340.033 261.596C340.253 261.685 340.364 261.949 340.253 262.17C339.901 262.985 339.57 263.801 339.261 264.595C339.217 264.771 339.063 264.881 338.887 264.881C338.842 264.881 338.776 264.881 338.732 264.859ZM445.109 262.743C444.911 262.588 444.889 262.324 445.021 262.125C445.572 261.42 446.101 260.692 446.564 260.009C446.696 259.811 446.983 259.766 447.181 259.899C447.38 260.031 447.424 260.318 447.292 260.516C446.807 261.222 446.278 261.949 445.704 262.677C445.638 262.765 445.506 262.831 445.374 262.831C445.285 262.831 445.175 262.809 445.109 262.743ZM487.285 261.64C487.042 261.574 486.932 261.31 486.998 261.089C487.263 260.274 487.505 259.436 487.704 258.576C487.77 258.333 487.99 258.201 488.233 258.245C488.475 258.311 488.608 258.532 488.564 258.774C488.343 259.656 488.101 260.516 487.836 261.354C487.77 261.552 487.594 261.662 487.417 261.662C487.373 261.662 487.329 261.663 487.285 261.64ZM340.783 259.987C340.562 259.877 340.474 259.612 340.584 259.392C340.783 258.973 341.003 258.554 341.201 258.157C341.4 257.782 341.598 257.407 341.819 257.011C341.929 256.79 342.216 256.724 342.414 256.856C342.635 256.966 342.701 257.253 342.568 257.452C342.348 257.826 342.149 258.201 341.973 258.554C341.775 258.951 341.554 259.37 341.356 259.766C341.29 259.921 341.135 260.031 340.981 260.031C340.915 260.031 340.849 260.009 340.783 259.987ZM448.152 258.4C447.953 258.267 447.865 258.003 447.997 257.804C448.46 257.033 448.879 256.261 449.232 255.511C449.342 255.291 449.607 255.203 449.827 255.313C450.048 255.423 450.136 255.688 450.026 255.908C449.651 256.68 449.232 257.474 448.747 258.267C448.659 258.377 448.526 258.466 448.372 258.466C448.306 258.466 448.218 258.444 448.152 258.4ZM488.608 256.526C488.365 256.481 488.211 256.261 488.255 256.018C488.409 255.159 488.52 254.299 488.608 253.417C488.63 253.174 488.85 252.998 489.093 253.02C489.335 253.042 489.512 253.263 489.49 253.505C489.402 254.387 489.291 255.291 489.137 256.151C489.071 256.371 488.872 256.526 488.674 256.526C488.652 256.526 488.63 256.526 488.608 256.526ZM343.362 255.379C343.164 255.247 343.098 254.96 343.252 254.762C343.737 254.056 344.266 253.329 344.817 252.601C344.971 252.403 345.236 252.381 345.434 252.513C345.633 252.667 345.655 252.932 345.523 253.13C344.972 253.836 344.464 254.563 343.979 255.247C343.891 255.379 343.737 255.445 343.605 255.445C343.516 255.445 343.428 255.423 343.362 255.379ZM450.511 253.681C450.29 253.593 450.158 253.351 450.246 253.108C450.489 252.425 450.687 251.741 450.841 251.08C450.885 250.926 450.907 250.771 450.952 250.617C451.018 250.374 451.238 250.242 451.481 250.286C451.723 250.352 451.855 250.573 451.811 250.815C451.767 250.97 451.745 251.124 451.701 251.278C451.547 251.962 451.326 252.689 451.062 253.417C451.018 253.593 450.841 253.704 450.665 253.704C450.621 253.704 450.555 253.704 450.511 253.681ZM488.74 250.815C488.74 250.573 488.74 250.33 488.74 250.088C488.74 249.448 488.718 248.831 488.696 248.214C488.674 247.971 488.872 247.773 489.115 247.751C489.357 247.729 489.556 247.927 489.578 248.17C489.622 248.809 489.644 249.448 489.644 250.088C489.644 250.33 489.644 250.595 489.644 250.837C489.622 251.08 489.424 251.256 489.181 251.256C488.938 251.256 488.74 251.058 488.74 250.815ZM346.537 251.124C346.36 250.97 346.338 250.683 346.493 250.507C347.044 249.845 347.639 249.184 348.257 248.5C348.411 248.324 348.697 248.302 348.874 248.478C349.05 248.633 349.072 248.919 348.896 249.096C348.279 249.757 347.705 250.419 347.154 251.058C347.066 251.19 346.956 251.234 346.823 251.234C346.713 251.234 346.625 251.19 346.537 251.124ZM451.922 248.589C451.679 248.522 451.547 248.28 451.613 248.037C451.855 247.156 452.12 246.296 452.385 245.48C452.451 245.26 452.715 245.127 452.936 245.193C453.156 245.26 453.288 245.524 453.222 245.745C452.958 246.538 452.693 247.398 452.451 248.258C452.407 248.478 452.23 248.611 452.032 248.611C451.988 248.611 451.944 248.611 451.922 248.589ZM350.086 247.2C349.91 247.023 349.91 246.759 350.086 246.582C350.682 245.965 351.321 245.348 351.96 244.708C352.137 244.532 352.423 244.532 352.578 244.708C352.754 244.885 352.754 245.171 352.578 245.326C351.938 245.965 351.299 246.582 350.704 247.2C350.616 247.288 350.505 247.332 350.395 247.332C350.285 247.332 350.175 247.288 350.086 247.2ZM488.409 245.612C488.277 244.73 488.101 243.893 487.902 243.077C487.836 242.834 487.99 242.592 488.211 242.548C488.453 242.482 488.696 242.636 488.74 242.856C488.961 243.694 489.137 244.598 489.269 245.502C489.313 245.745 489.137 245.965 488.894 246.009C488.894 245.987 488.872 245.987 488.85 245.987C488.63 245.987 488.453 245.833 488.409 245.612ZM353.856 243.496C353.68 243.319 353.702 243.033 353.879 242.878C354.496 242.305 355.157 241.688 355.841 241.071C356.017 240.916 356.304 240.916 356.458 241.093C356.612 241.269 356.612 241.556 356.436 241.71C355.775 242.327 355.113 242.923 354.496 243.496C354.386 243.584 354.275 243.628 354.187 243.628C354.077 243.628 353.945 243.584 353.856 243.496ZM453.553 243.562C453.333 243.474 453.222 243.209 453.311 242.989C453.641 242.129 454.016 241.313 454.369 240.541C454.479 240.321 454.744 240.233 454.964 240.343C455.185 240.453 455.273 240.718 455.162 240.938C454.81 241.688 454.457 242.504 454.126 243.341C454.06 243.474 453.884 243.584 453.707 243.584C453.663 243.584 453.597 243.584 453.553 243.562ZM487.109 240.586C486.8 239.77 486.425 238.976 486.006 238.249C485.896 238.028 485.962 237.764 486.183 237.653C486.403 237.543 486.668 237.609 486.778 237.83C487.197 238.601 487.594 239.417 487.924 240.277C488.013 240.497 487.902 240.762 487.682 240.85C487.638 240.872 487.594 240.872 487.527 240.872C487.351 240.872 487.175 240.762 487.109 240.586ZM357.759 239.902C357.604 239.726 357.604 239.439 357.803 239.285C358.464 238.712 359.126 238.116 359.809 237.543C359.986 237.389 360.272 237.411 360.426 237.587C360.581 237.764 360.559 238.05 360.382 238.204C359.721 238.778 359.038 239.373 358.398 239.946C358.31 240.012 358.2 240.056 358.09 240.056C357.957 240.056 357.847 240.012 357.759 239.902ZM455.78 238.756C455.559 238.623 455.493 238.359 455.625 238.16C456.088 237.367 456.596 236.617 457.103 235.912C457.257 235.713 457.521 235.669 457.72 235.823C457.918 235.978 457.962 236.242 457.808 236.441C457.323 237.102 456.838 237.83 456.375 238.601C456.309 238.734 456.155 238.822 456 238.822C455.934 238.822 455.846 238.8 455.78 238.756ZM361.771 236.441C361.617 236.264 361.639 235.978 361.815 235.823C362.477 235.25 363.16 234.677 363.844 234.104C364.02 233.949 364.307 233.971 364.461 234.148C364.615 234.324 364.593 234.611 364.417 234.765C363.734 235.338 363.072 235.912 362.389 236.485C362.3 236.551 362.212 236.595 362.102 236.595C361.97 236.595 361.86 236.551 361.771 236.441ZM484.617 236.11C484.088 235.427 483.515 234.787 482.876 234.214C482.699 234.06 482.677 233.773 482.854 233.597C483.008 233.42 483.294 233.398 483.471 233.575C484.132 234.192 484.75 234.853 485.301 235.581C485.455 235.779 485.411 236.044 485.213 236.198C485.146 236.242 485.058 236.286 484.97 236.286C484.838 236.286 484.705 236.22 484.617 236.11ZM458.866 234.456C458.69 234.28 458.69 234.016 458.866 233.839C459.506 233.178 460.189 232.582 460.895 232.053C461.093 231.899 461.358 231.943 461.512 232.142C461.666 232.34 461.622 232.605 461.424 232.759C460.762 233.266 460.101 233.839 459.506 234.456C459.396 234.545 459.285 234.589 459.175 234.589C459.065 234.589 458.955 234.545 458.866 234.456ZM365.828 233.023C365.674 232.847 365.696 232.56 365.894 232.406C366.578 231.833 367.261 231.282 367.922 230.708C368.099 230.554 368.385 230.576 368.54 230.775C368.694 230.951 368.672 231.238 368.474 231.392C367.79 231.965 367.107 232.516 366.445 233.09C366.357 233.134 366.247 233.178 366.159 233.178C366.026 233.178 365.916 233.134 365.828 233.023ZM480.847 232.649C480.142 232.186 479.37 231.789 478.576 231.436C478.356 231.348 478.246 231.083 478.356 230.863C478.444 230.642 478.709 230.532 478.929 230.642C479.767 231.017 480.561 231.436 481.31 231.921C481.509 232.053 481.575 232.318 481.443 232.538C481.376 232.649 481.222 232.715 481.09 232.715C481.002 232.715 480.935 232.693 480.847 232.649ZM462.989 231.194C462.879 230.973 462.967 230.709 463.188 230.598C463.981 230.179 464.841 229.849 465.701 229.584C465.943 229.518 466.186 229.65 466.252 229.871C466.318 230.113 466.186 230.356 465.965 230.422C465.15 230.664 464.356 230.995 463.584 231.37C463.518 231.436 463.452 231.436 463.386 231.436C463.232 231.436 463.077 231.348 462.989 231.194ZM476.151 230.576C475.512 230.4 474.85 230.246 474.189 230.135C473.991 230.091 473.814 230.069 473.638 230.047C473.395 230.003 473.241 229.783 473.263 229.54C473.307 229.297 473.528 229.143 473.77 229.165C473.969 229.187 474.167 229.231 474.343 229.253C475.049 229.386 475.732 229.54 476.394 229.716C476.636 229.783 476.769 230.025 476.702 230.268C476.636 230.466 476.46 230.598 476.261 230.598C476.217 230.598 476.173 230.598 476.151 230.576ZM467.972 229.518C467.95 229.275 468.104 229.055 468.347 229.033C469.206 228.923 470.11 228.879 471.058 228.901C471.301 228.901 471.499 229.099 471.477 229.364C471.477 229.606 471.257 229.805 471.014 229.783C470.132 229.76 469.273 229.805 468.435 229.893C468.457 229.915 468.435 229.915 468.413 229.915C468.192 229.915 467.994 229.76 467.972 229.518ZM369.885 229.628C369.73 229.452 369.752 229.165 369.951 229.011C370.634 228.438 371.296 227.886 371.979 227.313C372.156 227.159 372.442 227.181 372.596 227.357C372.751 227.534 372.729 227.82 372.552 227.975C371.869 228.548 371.207 229.099 370.524 229.672C370.414 229.738 370.326 229.783 370.215 229.783C370.083 229.783 369.973 229.738 369.885 229.628ZM373.941 226.233C373.787 226.057 373.809 225.77 373.985 225.616C374.669 225.042 375.33 224.469 375.992 223.896C376.168 223.742 376.455 223.764 376.609 223.94C376.763 224.116 376.741 224.403 376.565 224.557C375.903 225.131 375.22 225.704 374.537 226.277C374.47 226.343 374.382 226.387 374.272 226.387C374.14 226.387 374.029 226.343 373.941 226.233ZM377.954 222.772C377.8 222.595 377.822 222.309 377.998 222.154C378.703 221.537 379.343 220.964 379.982 220.39C380.159 220.236 380.445 220.236 380.599 220.435C380.754 220.611 380.754 220.898 380.555 221.052C379.938 221.625 379.277 222.198 378.571 222.816C378.505 222.882 378.395 222.926 378.285 222.926C378.152 222.926 378.042 222.882 377.954 222.772ZM381.9 219.244C381.724 219.068 381.746 218.781 381.922 218.627C382.584 218.009 383.223 217.392 383.84 216.819C384.017 216.643 384.303 216.665 384.458 216.819C384.634 216.995 384.612 217.282 384.458 217.436C383.84 218.031 383.201 218.649 382.518 219.266C382.451 219.354 382.341 219.376 382.231 219.376C382.121 219.376 381.988 219.332 381.9 219.244ZM385.714 215.562C385.538 215.386 385.538 215.121 385.714 214.945C386.354 214.306 386.971 213.644 387.522 213.027C387.677 212.85 387.963 212.828 388.14 213.005C388.316 213.159 388.338 213.446 388.162 213.622C387.588 214.239 386.971 214.901 386.332 215.562C386.266 215.65 386.155 215.694 386.023 215.694C385.913 215.694 385.803 215.65 385.714 215.562ZM389.33 211.682C389.154 211.528 389.11 211.241 389.286 211.065C389.881 210.359 390.432 209.676 390.917 209.014C391.072 208.816 391.336 208.772 391.535 208.926C391.733 209.08 391.777 209.345 391.623 209.543C391.116 210.227 390.543 210.932 389.947 211.638C389.859 211.748 389.727 211.792 389.617 211.792C389.507 211.792 389.418 211.748 389.33 211.682ZM392.549 207.493C392.351 207.361 392.284 207.096 392.417 206.876C392.902 206.104 393.343 205.354 393.717 204.627C393.828 204.406 394.092 204.318 394.313 204.428C394.533 204.539 394.621 204.803 394.511 205.024C394.114 205.773 393.673 206.567 393.166 207.339C393.078 207.493 392.924 207.559 392.791 207.559C392.703 207.559 392.637 207.537 392.549 207.493ZM395.018 202.841C394.798 202.753 394.665 202.51 394.754 202.268C395.062 201.43 395.261 200.592 395.393 199.799C395.437 199.556 395.658 199.402 395.9 199.424C396.143 199.468 396.297 199.688 396.275 199.931C396.143 200.791 395.922 201.673 395.591 202.554C395.525 202.753 395.349 202.863 395.173 202.863C395.128 202.863 395.084 202.863 395.018 202.841ZM347.022 198.63C347.022 198.388 347.22 198.189 347.463 198.189C348.279 198.167 349.138 198.101 350.042 197.969C350.285 197.925 350.505 198.101 350.549 198.343C350.593 198.586 350.417 198.806 350.175 198.851C349.205 198.983 348.301 199.049 347.463 199.071C347.22 199.071 347.022 198.873 347.022 198.63ZM344.751 198.895C343.825 198.74 342.921 198.498 342.105 198.167C341.885 198.079 341.775 197.814 341.863 197.594C341.951 197.373 342.216 197.263 342.436 197.351C343.186 197.66 344.023 197.88 344.883 198.035C345.126 198.079 345.28 198.299 345.258 198.542C345.214 198.74 345.038 198.895 344.817 198.895C344.795 198.895 344.773 198.895 344.751 198.895ZM352.269 197.991C352.203 197.748 352.357 197.506 352.6 197.462C353.393 197.263 354.253 197.043 355.113 196.756C355.356 196.69 355.598 196.822 355.664 197.043C355.73 197.285 355.598 197.528 355.378 197.594C354.474 197.88 353.614 198.101 352.798 198.299C352.754 198.321 352.71 198.321 352.688 198.321C352.49 198.321 352.313 198.189 352.269 197.991ZM395.481 197.285C395.415 196.447 395.217 195.61 394.93 194.816C394.842 194.595 394.974 194.331 395.195 194.243C395.415 194.155 395.68 194.287 395.768 194.507C396.076 195.367 396.275 196.271 396.363 197.197C396.385 197.44 396.209 197.66 395.966 197.682C395.944 197.682 395.944 197.682 395.922 197.682C395.702 197.682 395.503 197.506 395.481 197.285ZM339.724 196.8C339.173 196.381 338.666 195.918 338.181 195.389C338.027 195.235 337.894 195.081 337.762 194.904C337.608 194.728 337.63 194.441 337.806 194.287C337.983 194.133 338.269 194.155 338.424 194.331C338.556 194.485 338.688 194.64 338.82 194.794C339.261 195.279 339.746 195.72 340.253 196.117C340.452 196.271 340.474 196.536 340.342 196.734C340.253 196.822 340.121 196.888 339.989 196.888C339.901 196.888 339.813 196.866 339.724 196.8ZM357.318 196.514C357.23 196.293 357.362 196.029 357.582 195.94C358.354 195.654 359.17 195.367 360.052 195.014C360.272 194.926 360.537 195.036 360.625 195.257C360.713 195.477 360.603 195.742 360.382 195.83C359.5 196.183 358.685 196.492 357.891 196.756C357.847 196.778 357.803 196.8 357.737 196.8C357.56 196.8 357.384 196.69 357.318 196.514ZM362.256 194.618C362.168 194.397 362.278 194.133 362.499 194.044C363.315 193.714 364.13 193.361 364.946 193.03C365.167 192.942 365.431 193.052 365.519 193.273C365.608 193.493 365.497 193.758 365.277 193.846C364.461 194.199 363.645 194.529 362.83 194.86C362.786 194.86 362.741 194.882 362.675 194.882C362.499 194.882 362.345 194.772 362.256 194.618ZM336.109 192.766C335.602 191.994 335.139 191.222 334.742 190.429C334.631 190.208 334.72 189.944 334.94 189.833C335.161 189.723 335.425 189.811 335.535 190.032C335.91 190.781 336.351 191.531 336.836 192.259C336.968 192.457 336.924 192.744 336.726 192.876C336.638 192.942 336.572 192.964 336.483 192.964C336.351 192.964 336.197 192.898 336.109 192.766ZM367.173 192.567C367.085 192.347 367.195 192.082 367.415 191.994C368.231 191.641 369.047 191.31 369.863 190.98C370.083 190.892 370.348 191.002 370.436 191.222C370.524 191.443 370.414 191.707 370.193 191.796C369.378 192.126 368.562 192.457 367.746 192.81C367.68 192.81 367.614 192.832 367.57 192.832C367.393 192.832 367.239 192.721 367.173 192.567ZM393.784 192.567C393.299 191.818 392.747 191.156 392.174 190.605C391.998 190.429 391.998 190.164 392.174 189.988C392.351 189.811 392.615 189.811 392.791 189.988C393.409 190.605 394.004 191.31 394.533 192.104C394.665 192.303 394.599 192.589 394.401 192.721C394.313 192.744 394.247 192.766 394.158 192.766C394.004 192.766 393.872 192.699 393.784 192.567ZM372.045 190.561C371.957 190.34 372.067 190.076 372.288 189.988C373.192 189.635 374.007 189.348 374.779 189.062C375 188.974 375.264 189.106 375.33 189.326C375.418 189.547 375.286 189.811 375.066 189.877C374.294 190.142 373.478 190.451 372.596 190.781C372.574 190.825 372.53 190.848 372.464 190.848C372.288 190.848 372.111 190.737 372.045 190.561ZM390.146 189.106C389.418 188.709 388.625 188.4 387.787 188.202C387.544 188.136 387.412 187.915 387.456 187.673C387.522 187.43 387.743 187.298 387.985 187.342C388.911 187.562 389.771 187.893 390.565 188.334C390.785 188.444 390.851 188.709 390.741 188.929C390.675 189.062 390.521 189.15 390.366 189.15C390.3 189.15 390.212 189.128 390.146 189.106ZM377.05 188.797C376.984 188.555 377.116 188.312 377.359 188.246C378.263 187.981 379.144 187.761 379.96 187.562C380.203 187.518 380.423 187.651 380.489 187.893C380.533 188.136 380.401 188.356 380.159 188.422C379.365 188.599 378.505 188.819 377.623 189.084C377.557 189.106 377.513 189.106 377.469 189.106C377.27 189.106 377.094 188.974 377.05 188.797ZM333.728 187.915C333.463 187.055 333.265 186.151 333.132 185.27C333.088 185.027 333.265 184.807 333.507 184.763C333.75 184.718 333.97 184.895 334.014 185.137C334.124 185.975 334.323 186.813 334.587 187.651C334.654 187.893 334.521 188.136 334.301 188.202C334.235 188.224 334.191 188.224 334.146 188.224C333.948 188.224 333.794 188.114 333.728 187.915ZM382.209 187.607C382.187 187.364 382.363 187.144 382.606 187.122C383.554 187.011 384.458 186.967 385.318 186.989C385.56 186.989 385.758 187.21 385.736 187.452C385.736 187.695 385.516 187.893 385.273 187.871C384.458 187.849 383.598 187.893 382.694 188.003C382.672 188.003 382.65 188.003 382.65 188.003C382.429 188.003 382.231 187.849 382.209 187.607ZM333.441 183.021C333.176 183.021 333 182.8 333 182.558C333.022 181.676 333.132 180.772 333.287 179.868C333.331 179.626 333.551 179.471 333.794 179.515C334.036 179.559 334.191 179.78 334.146 180.022C333.992 180.882 333.882 181.742 333.86 182.58C333.86 182.822 333.661 183.021 333.441 183.021C333.419 183.021 333.441 183.021 333.441 183.021ZM334.257 177.796C334.036 177.73 333.904 177.465 333.97 177.244C334.257 176.407 334.587 175.569 334.984 174.731C335.094 174.511 335.359 174.422 335.579 174.511C335.8 174.621 335.888 174.885 335.8 175.106C335.425 175.9 335.094 176.715 334.83 177.509C334.742 177.707 334.565 177.818 334.389 177.818C334.345 177.818 334.301 177.818 334.257 177.796ZM336.395 172.967C336.197 172.835 336.109 172.571 336.241 172.372C336.704 171.623 337.189 170.873 337.74 170.145C337.894 169.947 338.159 169.903 338.357 170.057C338.556 170.211 338.6 170.476 338.446 170.674C337.916 171.38 337.431 172.108 336.991 172.835C336.924 172.967 336.77 173.034 336.616 173.034C336.528 173.034 336.461 173.011 336.395 172.967ZM339.46 168.668C339.283 168.514 339.261 168.227 339.416 168.051C340.496 166.816 341.268 166.133 341.29 166.111C341.466 165.956 341.753 165.956 341.907 166.155C342.061 166.331 342.061 166.618 341.863 166.772C341.863 166.772 341.091 167.456 340.055 168.646C339.989 168.712 339.879 168.778 339.746 168.778C339.636 168.778 339.548 168.734 339.46 168.668Z" fill="#5DB571"/>
<path d="M496.082 331.11C498.287 341.252 498.948 343.677 498.948 343.677H471.61L456.838 304.213L488.145 306.197C488.145 306.197 493.877 320.969 496.082 331.11Z" fill="#F9D2DD"/>
<path d="M456.838 304.213L460.366 313.473L491.893 316.559C490.218 311.687 488.145 306.197 488.145 306.197L456.838 304.213Z" fill="#F9ACC0"/>
<path d="M376.808 305.757L370.855 343.678H473.373L465.877 312.15L490.57 309.946C490.57 309.946 479.988 274.67 458.822 263.206C437.657 251.741 407.232 252.403 388.272 261.663C376.587 267.373 357.627 287.899 354.099 305.757H376.808Z" fill="#3D5CFF"/>
<path d="M376.808 305.756L370.855 343.677H473.373L465.877 312.15L490.57 309.945C490.57 309.945 484.838 278.198 458.822 263.206C437.966 251.19 407.519 252.976 388.272 261.662C374.603 267.835 359.611 283.268 354.099 305.756H376.808Z" fill="#3D5CFF"/>
<path fill-rule="evenodd" clip-rule="evenodd" d="M346.756 240.409C344.265 241.379 343.008 244.179 343.978 246.67L348.498 258.421C349.468 260.913 352.268 262.169 354.759 261.199L364.46 257.451C364.526 257.429 364.614 257.429 364.681 257.451L376.454 262.258C376.828 262.412 377.203 262.346 377.512 262.169C377.534 262.169 377.534 262.147 377.556 262.147H377.578C378.328 261.861 378.702 261.023 378.416 260.273L375.77 253.439C375.704 253.284 375.792 253.108 375.947 253.042L381.723 250.815C384.214 249.845 385.471 247.045 384.501 244.554L379.981 232.803C379.033 230.311 376.211 229.055 373.72 230.025L346.756 240.409ZM365.496 251.388C365.452 251.41 365.43 251.41 365.386 251.41L360.425 251.587C360.073 251.609 359.742 251.388 359.632 251.058L356.567 243.099C356.391 242.68 356.611 242.195 357.03 242.04C357.118 241.996 357.207 241.996 357.295 241.974L361.682 241.798C362.013 241.798 362.322 241.996 362.454 242.305L365.717 250.881C365.783 251.08 365.695 251.3 365.496 251.388ZM367.282 250.661C367.128 250.793 366.885 250.771 366.753 250.617C366.731 250.595 366.709 250.551 366.687 250.506L363.38 241.93C363.27 241.622 363.358 241.269 363.6 241.048L366.951 238.226C367.304 237.94 367.811 237.984 368.098 238.337C368.142 238.403 368.208 238.469 368.23 238.557L371.295 246.538C371.471 246.869 371.383 247.244 371.096 247.464L367.282 250.661Z" fill="white"/>
<path d="M494.804 225.109C495.509 225.109 496.193 224.69 496.457 224.006C496.744 223.323 496.568 222.573 496.105 222.066L495.046 224.602C494.98 224.778 494.892 224.932 494.804 225.109Z" fill="white"/>
<path d="M491.585 220.853L491.519 219.354C491.475 218.825 491.144 218.671 490.769 219.045L489.667 220.015L488.256 219.641C487.771 219.53 487.528 219.817 487.727 220.28L488.278 221.691L487.462 223.014C487.197 223.455 487.374 223.763 487.881 223.697L489.358 223.521L490.262 224.734C490.571 225.13 490.901 225.042 491.034 224.535L491.386 223.036L492.775 222.441C493.238 222.22 493.282 221.845 492.842 221.581L491.585 220.853Z" fill="white"/>
<path d="M484.507 220.897C484.551 220.699 484.617 220.501 484.706 220.302L485.786 217.701C485.014 217.612 484.265 218.031 483.956 218.781C483.647 219.553 483.89 220.412 484.507 220.897Z" fill="white"/>
<path fill-rule="evenodd" clip-rule="evenodd" d="M477.563 206.876C475.027 205.906 472.183 207.162 471.191 209.698L466.032 223.08C465.062 225.616 466.319 228.46 468.854 229.452L475.733 232.098L472.624 240.145C472.382 240.784 472.69 241.49 473.33 241.732L473.682 241.864C474.013 242.085 474.454 242.151 474.851 241.975L487.748 236.705L498.706 240.938C501.241 241.909 504.107 240.652 505.077 238.116L510.236 224.734C511.228 222.221 509.972 219.377 507.436 218.384L477.563 206.876ZM493.569 226.828C492.158 228.195 490.085 228.746 488.123 228.173L487.109 230.62L488.939 231.392C489.314 231.546 489.49 231.965 489.336 232.34C489.181 232.715 488.763 232.891 488.388 232.737L483.383 230.665C483.008 230.51 482.832 230.091 482.986 229.717C483.141 229.342 483.559 229.165 483.934 229.32L485.764 230.091L486.8 227.622C485.125 226.608 484.133 224.822 484.089 222.926C482.479 222.221 481.708 220.347 482.391 218.693C483.008 217.216 484.618 216.422 486.139 216.775L486.58 215.695C486.8 215.166 487.418 214.923 487.947 215.143L496.369 218.649C496.898 218.869 497.14 219.487 496.92 220.016L496.457 221.14C497.648 221.956 498.155 223.565 497.559 224.976C496.898 226.542 495.156 227.335 493.569 226.828Z" fill="white"/>
<path d="M376.257 309.24L377.183 309.483L383.444 286.355L370.48 305.757H376.808L376.257 309.24Z" fill="#224BF4"/>
<path d="M389.595 203.899C390.036 195.521 396.65 191.994 399.296 191.773C401.941 191.553 403.705 192.655 403.705 192.655C403.705 192.655 404.807 178.545 413.847 176.561C422.886 174.577 427.295 178.104 429.72 181.632C432.146 185.159 431.925 187.143 431.925 187.143C431.925 187.143 435.453 184.277 441.626 186.702C447.799 189.128 446.035 195.962 446.035 195.962C446.035 195.962 450.886 194.639 453.311 202.576C455.736 210.513 447.579 223.741 444.492 225.726C441.405 227.71 396.65 219.773 396.65 219.773C396.65 219.773 389.154 212.277 389.595 203.899Z" fill="#5E5E72"/>
<path d="M394.665 216.466C390.256 218.45 389.815 224.403 393.122 228.151C396.429 231.899 404.807 231.017 404.807 231.017L402.558 217.436C402.558 217.436 399.075 214.482 394.665 216.466Z" fill="#F9ACC0"/>
<path d="M447.38 216.466C451.79 218.45 452.231 224.403 448.924 228.151C445.617 231.899 437.239 231.017 437.239 231.017L439.488 217.436C439.488 217.436 442.971 214.482 447.38 216.466Z" fill="#F9ACC0"/>
<path d="M403.264 228.261C403.264 228.239 403.22 226.762 401.566 224.249C399.89 221.735 396.716 220.875 396.694 220.853C396.517 220.809 396.407 220.633 396.451 220.457C396.495 220.28 396.672 220.17 396.848 220.214C396.98 220.258 400.287 221.162 402.117 223.874C403.925 226.564 403.947 228.173 403.947 228.239C403.925 228.438 403.771 228.592 403.594 228.592C403.418 228.592 403.264 228.438 403.264 228.261Z" fill="#5E5E72"/>
<path d="M439.818 227.886C439.663 227.798 439.597 227.599 439.663 227.445C439.707 227.335 441.03 224.733 443.036 222.727C445.065 220.699 446.454 220.434 446.52 220.434C446.696 220.412 446.873 220.522 446.895 220.699C446.917 220.875 446.806 221.052 446.63 221.074C446.63 221.074 445.373 221.316 443.499 223.19C441.581 225.108 440.258 227.71 440.258 227.732C440.214 227.864 440.082 227.93 439.972 227.93C439.928 227.93 439.862 227.908 439.818 227.886Z" fill="#5E5E72"/>
<path d="M403.925 231.017C406.129 238.734 413.185 243.143 413.185 243.143C413.185 243.143 413.405 248.655 412.523 252.623C411.641 256.592 410.759 258.135 410.759 258.135C410.759 258.135 412.303 261.442 420.46 261.442C429.279 261.442 431.704 258.135 431.704 258.135C431.704 258.135 430.602 254.828 430.161 251.741C429.72 248.655 429.94 243.363 429.94 243.363C429.94 243.363 436.775 242.482 439.42 232.781C442.066 223.08 440.743 214.482 440.743 214.482C440.743 214.482 427.736 216.466 423.326 211.175C418.917 205.884 414.507 200.592 408.114 203.238C401.72 205.884 402.161 212.498 402.161 212.498C402.161 212.498 401.72 223.301 403.925 231.017Z" fill="#F9D2DD"/>
<path fill-rule="evenodd" clip-rule="evenodd" d="M412.444 212.393C411.305 213.05 410.056 213.019 409.654 212.323C409.252 211.627 409.85 210.53 410.989 209.872C412.128 209.215 413.377 209.246 413.778 209.942C414.18 210.638 413.583 211.735 412.444 212.393Z" fill="#5E5E72"/>
<path fill-rule="evenodd" clip-rule="evenodd" d="M414.729 223.962C413.633 223.962 412.745 222.925 412.745 221.647C412.745 220.368 413.633 219.332 414.729 219.332C415.825 219.332 416.713 220.368 416.713 221.647C416.713 222.925 415.825 223.962 414.729 223.962Z" fill="#5E5E72"/>
<path fill-rule="evenodd" clip-rule="evenodd" d="M429.279 223.962C428.183 223.962 427.295 222.925 427.295 221.647C427.295 220.368 428.183 219.332 429.279 219.332C430.375 219.332 431.263 220.368 431.263 221.647C431.263 222.925 430.375 223.962 429.279 223.962Z" fill="#5E5E72"/>
<path d="M422.224 229.253C424.208 229.033 425.311 227.49 425.311 227.49C425.311 227.49 425.972 230.135 423.326 231.017C420.681 231.899 418.476 229.253 419.138 227.49C419.138 227.49 420.24 229.474 422.224 229.253Z" fill="#F95368"/>
<path d="M420.461 224.844C421.122 226.167 422.886 225.505 422.886 225.505C422.886 225.505 421.122 225.064 421.122 223.741C421.122 222.419 422.004 219.993 422.004 219.993C422.004 219.993 419.799 223.521 420.461 224.844Z" fill="#5E5E72"/>
<path fill-rule="evenodd" clip-rule="evenodd" d="M402.602 222.97C402.602 218.296 406.416 214.482 411.09 214.482C415.764 214.482 419.578 218.296 419.578 222.97C419.578 227.644 415.764 231.458 411.09 231.458C406.416 231.458 402.602 227.644 402.602 222.97ZM403.263 222.97C403.263 227.291 406.769 230.797 411.09 230.797C415.411 230.797 418.917 227.291 418.917 222.97C418.917 218.649 415.411 215.144 411.09 215.144C406.769 215.144 403.263 218.649 403.263 222.97Z" fill="#5E5E72"/>
<path fill-rule="evenodd" clip-rule="evenodd" d="M423.768 222.97C423.768 218.296 427.582 214.482 432.256 214.482C436.93 214.482 440.744 218.296 440.744 222.97C440.744 227.644 436.93 231.458 432.256 231.458C427.582 231.458 423.768 227.644 423.768 222.97ZM424.429 222.97C424.429 227.291 427.934 230.797 432.256 230.797C436.577 230.797 440.082 227.291 440.082 222.97C440.082 218.649 436.577 215.144 432.256 215.144C427.934 215.144 424.429 218.649 424.429 222.97Z" fill="#5E5E72"/>
<path d="M419.181 220.457C419.225 220.435 420.438 220.148 421.959 220.148C423.502 220.148 424.208 220.457 424.252 220.479L423.987 221.074C423.987 221.074 423.348 220.81 421.981 220.81C420.526 220.788 419.335 221.074 419.335 221.096L419.181 220.457Z" fill="#5E5E72"/>
<path d="M412.523 252.623C412.369 253.284 412.237 253.88 412.083 254.431C412.215 254.387 412.347 254.365 412.479 254.321C422.004 251.807 427.141 248.544 429.874 246.031C429.874 244.488 429.919 243.363 429.919 243.363C429.919 243.363 427.273 244.907 420.879 244.686C417.925 244.576 414.728 244.025 413.185 243.143C413.207 244.51 413.251 249.316 412.523 252.623Z" fill="#F9ACC0"/>
<path fill-rule="evenodd" clip-rule="evenodd" d="M432.917 229.694C430.543 229.694 428.618 228.51 428.618 227.049C428.618 225.588 430.543 224.403 432.917 224.403C435.292 224.403 437.216 225.588 437.216 227.049C437.216 228.51 435.292 229.694 432.917 229.694Z" fill="#F9ACC0"/>
<path fill-rule="evenodd" clip-rule="evenodd" d="M410.209 229.695C407.834 229.695 405.91 228.51 405.91 227.049C405.91 225.588 407.834 224.404 410.209 224.404C412.583 224.404 414.508 225.588 414.508 227.049C414.508 228.51 412.583 229.695 410.209 229.695Z" fill="#F9ACC0"/>
<path d="M465.878 312.15L473.241 311.533L456.838 283.489L465.878 312.15Z" fill="#224BF4"/>
<path d="M413.119 243.76C412.964 243.671 412.898 243.473 413.008 243.297C413.097 243.142 413.295 243.076 413.471 243.186C413.493 243.208 416.095 244.686 419.909 244.686C420.085 244.686 420.24 244.84 420.24 245.016C420.24 245.193 420.085 245.347 419.909 245.347C415.897 245.347 413.229 243.826 413.119 243.76Z" fill="#5E5E72"/>
<path d="M405.91 309.99C407.144 308.932 406.968 306.639 406.439 305.228C406.13 304.434 405.337 303.288 404.697 302.45C404.014 301.568 403.881 300.377 404.477 299.562C405.27 298.481 407.607 298.305 409.437 298.812C410.65 299.143 411.907 299.716 412.766 300.686C414.883 303.155 415.412 305.316 415.412 305.316C415.412 305.316 419.16 303.111 422.688 305.316C424.429 306.396 424.231 308.623 424.231 308.623C424.231 308.623 426.171 308.579 427.758 310.166C429.346 311.754 428.199 314.135 428.199 314.135C428.199 314.135 430.47 316.295 428.949 319.029C427.979 320.749 424.363 324.96 417.264 328.642C406.637 334.153 384.436 347.382 369.113 348.969C359.214 349.983 345.523 346.544 349.491 328.245C353.46 309.946 355.003 305.757 355.003 305.757H378.153L374.603 319.647C374.603 319.647 404.675 311.048 405.91 309.99Z" fill="#F9D2DD"/>
<path d="M361.396 324.056C361.33 323.88 361.44 323.703 361.594 323.637L374.492 319.338C374.668 319.272 374.845 319.382 374.911 319.536C374.977 319.713 374.867 319.889 374.712 319.955L361.815 324.254C361.771 324.276 361.749 324.276 361.705 324.276C361.572 324.276 361.44 324.188 361.396 324.056Z" fill="#5E5E72"/>
<path d="M417.639 312.657C417.551 312.503 417.595 312.304 417.749 312.194L424.033 308.336C424.187 308.248 424.386 308.292 424.496 308.446C424.584 308.6 424.54 308.799 424.386 308.909L418.102 312.767C418.036 312.789 417.992 312.811 417.926 312.811C417.816 312.811 417.705 312.745 417.639 312.657Z" fill="#5E5E72"/>
<path d="M421.386 318.389C421.298 318.235 421.342 318.036 421.496 317.926L427.78 314.068C427.934 313.98 428.133 314.024 428.243 314.178C428.331 314.332 428.287 314.531 428.133 314.641L421.849 318.499C421.783 318.521 421.739 318.543 421.673 318.543C421.563 318.543 421.452 318.477 421.386 318.389Z" fill="#5E5E72"/>
<path d="M415.412 305.294C415.434 308.314 413.406 310.827 413.406 310.827C416.977 310.563 419.182 307.146 420.395 304.434C417.881 303.993 415.699 305.139 415.412 305.294Z" fill="#F9ACC0"/>
<path d="M378.131 305.757H354.982C354.982 305.757 354.365 307.41 352.932 313.208L377.514 308.204L378.131 305.757Z" fill="#F9ACC0"/>
<path d="M421.585 299.539C421.364 299.429 421.276 299.164 421.408 298.944L423.834 294.314C423.944 294.093 424.208 294.005 424.429 294.138C424.649 294.248 424.737 294.512 424.605 294.733L422.18 299.363C422.092 299.495 421.937 299.583 421.783 299.583C421.717 299.583 421.651 299.561 421.585 299.539Z" fill="#EAEAFF"/>
<path d="M397.333 276.765L395.349 269.49C395.282 269.247 395.415 269.005 395.657 268.939C395.9 268.872 396.142 269.005 396.208 269.247L398.193 276.523C398.259 276.765 398.126 277.008 397.884 277.074C397.818 277.096 397.796 277.096 397.752 277.096C397.553 277.096 397.377 276.964 397.333 276.765Z" fill="#EAEAFF"/>
<path d="M406.856 288.759C406.636 288.67 406.526 288.406 406.614 288.185L409.26 281.351C409.348 281.13 409.612 281.02 409.833 281.108C410.053 281.197 410.163 281.461 410.075 281.682L407.43 288.516C407.364 288.67 407.187 288.781 407.011 288.781C406.967 288.781 406.901 288.781 406.856 288.759Z" fill="#EAEAFF"/>
<path d="M390.08 304.632L386.993 298.68C386.883 298.459 386.971 298.195 387.192 298.084C387.412 297.974 387.677 298.062 387.787 298.283L390.874 304.235C390.984 304.456 390.896 304.72 390.675 304.831C390.609 304.853 390.543 304.875 390.477 304.875C390.322 304.875 390.168 304.787 390.08 304.632Z" fill="#EAEAFF"/>
<path d="M439.112 316.208C438.936 316.031 438.936 315.767 439.112 315.59L442.419 312.283C442.596 312.107 442.86 312.107 443.037 312.283C443.213 312.46 443.213 312.724 443.037 312.9L439.73 316.208C439.641 316.296 439.531 316.34 439.421 316.34C439.311 316.34 439.2 316.296 439.112 316.208Z" fill="#EAEAFF"/>
<path d="M440.832 334.683L437.304 330.273C437.15 330.075 437.172 329.81 437.371 329.656C437.569 329.502 437.834 329.524 437.988 329.722L441.515 334.132C441.67 334.33 441.648 334.595 441.449 334.749C441.383 334.837 441.273 334.859 441.185 334.859C441.052 334.859 440.92 334.793 440.832 334.683Z" fill="#EAEAFF"/>
<path d="M414.463 340.282C414.265 340.15 414.221 339.863 414.353 339.665L417.66 335.035C417.792 334.836 418.079 334.792 418.277 334.924C418.476 335.057 418.52 335.343 418.388 335.542L415.081 340.172C414.992 340.304 414.86 340.37 414.728 340.37C414.64 340.37 414.551 340.348 414.463 340.282Z" fill="#EAEAFF"/>
<path d="M457.566 330.427C457.346 330.339 457.213 330.097 457.302 329.854L459.506 323.681C459.594 323.461 459.837 323.328 460.079 323.417C460.3 323.505 460.432 323.747 460.344 323.99L458.139 330.163C458.073 330.339 457.897 330.45 457.72 330.45C457.676 330.45 457.61 330.45 457.566 330.427Z" fill="#EAEAFF"/>
<path d="M441.626 289.883V282.167C441.626 281.924 441.824 281.726 442.067 281.726C442.309 281.726 442.508 281.924 442.508 282.167V289.883C442.508 290.125 442.309 290.324 442.067 290.324C441.824 290.324 441.626 290.125 441.626 289.883Z" fill="#EAEAFF"/>
<path d="M426.656 272.135L425.554 267.946C425.487 267.703 425.642 267.461 425.862 267.417C426.105 267.351 426.347 267.505 426.391 267.725L427.494 271.914C427.56 272.157 427.405 272.399 427.185 272.444C427.141 272.466 427.119 272.466 427.075 272.466C426.876 272.466 426.7 272.333 426.656 272.135Z" fill="#EAEAFF"/>
<path d="M455.14 272.444C454.92 272.356 454.788 272.113 454.876 271.871L456.419 267.682C456.507 267.461 456.75 267.329 456.992 267.417C457.213 267.505 457.345 267.748 457.257 267.99L455.714 272.179C455.647 272.356 455.471 272.466 455.295 272.466C455.251 272.466 455.184 272.466 455.14 272.444Z" fill="#EAEAFF"/>
<path d="M365.343 288.362L365.123 283.511C365.123 283.269 365.299 283.07 365.541 283.048C365.784 283.048 365.982 283.225 366.004 283.467L366.225 288.318C366.225 288.56 366.049 288.759 365.784 288.781C365.806 288.781 365.784 288.781 365.784 288.781C365.541 288.781 365.365 288.604 365.343 288.362Z" fill="#EAEAFF"/>
<path d="M480.715 287.921L474.388 286.797C474.145 286.752 473.991 286.532 474.035 286.289C474.079 286.047 474.299 285.893 474.542 285.937L480.869 287.061C481.112 287.105 481.266 287.326 481.222 287.568C481.2 287.767 481.002 287.921 480.803 287.921C480.781 287.921 480.759 287.921 480.715 287.921Z" fill="#EAEAFF"/>
<path d="M464.179 308.248C464.157 308.005 464.333 307.785 464.576 307.763L489.18 305.58C489.423 305.558 489.643 305.735 489.665 305.977C489.687 306.22 489.511 306.44 489.269 306.462L464.664 308.623C464.664 308.623 464.642 308.645 464.62 308.645C464.4 308.645 464.201 308.468 464.179 308.248Z" fill="#EAEAFF"/>
<path d="M354.496 302.273C354.496 302.031 354.672 301.832 354.914 301.81L379.012 301.016C379.254 301.016 379.453 301.193 379.475 301.435C379.475 301.678 379.298 301.876 379.056 301.898L354.937 302.692C354.694 302.692 354.496 302.494 354.496 302.273Z" fill="#EAEAFF"/>
<path d="M378.086 305.624C377.91 305.58 377.799 305.404 377.866 305.228L383.818 283.842C383.862 283.666 384.061 283.555 384.215 283.621C384.392 283.666 384.502 283.842 384.436 284.018L378.483 305.404C378.461 305.536 378.329 305.646 378.174 305.646C378.152 305.646 378.108 305.646 378.086 305.624Z" fill="#5E5E72"/>
<path d="M465.238 312.128L456.419 283.467C456.375 283.29 456.464 283.114 456.64 283.048C456.816 283.004 456.993 283.092 457.059 283.268L465.878 311.929C465.922 312.106 465.833 312.282 465.657 312.348C465.613 312.37 465.569 312.37 465.547 312.37C465.415 312.37 465.282 312.282 465.238 312.128Z" fill="#5E5E72"/>
<path d="M90.984 318.653C90.984 318.653 73.6567 315.228 68.8218 303.131C63.987 291.035 81.6687 281.961 90.984 288.457C100.954 295.404 90.984 318.653 90.984 318.653Z" fill="#21B573"/>
<path d="M101.291 350.435C101.14 350.435 101.002 350.321 100.978 350.165C99.3205 338.928 92.6238 322.763 87.3085 311.184C81.5367 298.625 76.0952 288.601 76.0412 288.499C75.9571 288.349 76.0172 288.157 76.1673 288.073C76.3175 287.989 76.5097 288.049 76.5938 288.199C76.6478 288.301 82.1013 298.342 87.8851 310.919C93.2244 322.541 99.9391 338.765 101.609 350.075C101.633 350.249 101.519 350.405 101.345 350.429C101.321 350.429 101.309 350.435 101.291 350.435Z" fill="#39393B"/>
<path d="M90.336 317.481C90.2219 317.481 90.1138 317.421 90.0598 317.319C82.5222 303.275 70.282 293.084 70.1618 292.982C70.0297 292.874 70.0117 292.675 70.1198 292.543C70.2279 292.411 70.4261 292.393 70.5582 292.501C70.6843 292.603 83.0147 302.867 90.6123 317.024C90.6964 317.175 90.6363 317.367 90.4862 317.451C90.4381 317.469 90.3841 317.481 90.336 317.481Z" fill="#39393B"/>
<path d="M90.678 318.491C90.5879 318.491 90.5038 318.454 90.4378 318.382C84.9422 311.911 79.3086 307.884 75.5548 305.649C71.4827 303.227 68.6779 302.32 68.6539 302.314C68.4918 302.26 68.3956 302.086 68.4497 301.917C68.5037 301.755 68.6779 301.659 68.8461 301.713C68.9602 301.749 71.735 302.639 75.8611 305.096C79.6629 307.356 85.3627 311.43 90.9182 317.974C91.0323 318.106 91.0143 318.304 90.8822 318.418C90.8221 318.466 90.75 318.491 90.678 318.491Z" fill="#39393B"/>
<path d="M89.1522 314.807C89.0201 314.807 88.9 314.723 88.8579 314.597C84.6297 302.188 86.1853 287.111 86.2033 286.961C86.2213 286.787 86.3774 286.666 86.5456 286.684C86.7198 286.702 86.8399 286.859 86.8219 287.027C86.8039 287.177 85.2663 302.122 89.4465 314.392C89.5006 314.555 89.4165 314.735 89.2483 314.789C89.2183 314.801 89.1883 314.807 89.1522 314.807Z" fill="#39393B"/>
<path d="M90.2152 317.265C90.0651 317.265 89.9329 317.156 89.9089 317C88.6176 309.146 89.6086 302.741 90.6716 298.751C91.8248 294.418 93.2663 291.972 93.3263 291.876C93.4164 291.726 93.6086 291.678 93.7587 291.768C93.9089 291.858 93.9569 292.051 93.8668 292.201C93.8548 292.225 92.4014 294.682 91.2722 298.943C90.2332 302.867 89.2602 309.176 90.5275 316.904C90.5575 317.072 90.4374 317.235 90.2692 317.265C90.2512 317.259 90.2332 317.265 90.2152 317.265Z" fill="#39393B"/>
<path d="M109.267 321.814C109.267 321.814 126.768 319.416 132.312 307.632C137.855 295.842 120.738 285.741 111.056 291.672C100.69 298.018 109.267 321.814 109.267 321.814Z" fill="#21B573"/>
<path d="M102.63 349.407C102.63 349.407 102.624 349.407 102.63 349.407C102.456 349.407 102.312 349.263 102.318 349.089C102.384 343.302 103.645 336.71 106.065 329.499C107.999 323.737 110.666 317.565 114.005 311.159C119.681 300.253 125.399 292.327 125.459 292.249C125.561 292.111 125.759 292.075 125.897 292.177C126.035 292.279 126.071 292.477 125.969 292.615C125.915 292.694 120.222 300.589 114.564 311.454C109.351 321.471 103.104 336.127 102.954 349.095C102.942 349.269 102.798 349.407 102.63 349.407Z" fill="#39393B"/>
<path d="M110.005 320.684C109.951 320.684 109.891 320.672 109.843 320.636C109.693 320.546 109.651 320.353 109.741 320.203C118.161 306.52 131.08 297.002 131.212 296.906C131.351 296.804 131.549 296.834 131.651 296.972C131.753 297.11 131.723 297.308 131.585 297.411C131.459 297.507 118.636 306.953 110.281 320.528C110.209 320.63 110.107 320.684 110.005 320.684Z" fill="#39393B"/>
<path d="M109.603 321.669C109.525 321.669 109.447 321.639 109.387 321.585C109.26 321.465 109.254 321.267 109.375 321.141C115.314 314.933 121.242 311.208 125.17 309.177C129.435 306.971 132.251 306.244 132.372 306.214C132.54 306.172 132.708 306.274 132.75 306.442C132.792 306.611 132.69 306.779 132.522 306.821C132.492 306.827 129.639 307.566 125.435 309.741C121.555 311.748 115.699 315.438 109.825 321.573C109.765 321.633 109.687 321.669 109.603 321.669Z" fill="#39393B"/>
<path d="M111.345 318.082C111.303 318.082 111.266 318.076 111.224 318.058C111.062 317.992 110.99 317.812 111.05 317.649C115.951 305.643 115.297 290.638 115.291 290.488C115.285 290.314 115.417 290.17 115.591 290.158C115.759 290.146 115.909 290.284 115.921 290.458C115.927 290.608 116.588 305.751 111.639 317.89C111.585 318.01 111.465 318.082 111.345 318.082Z" fill="#39393B"/>
<path d="M110.137 320.474C110.113 320.474 110.089 320.474 110.065 320.468C109.897 320.432 109.789 320.263 109.831 320.095C111.56 312.452 110.96 306.1 110.155 302.122C109.278 297.807 107.981 295.265 107.969 295.235C107.891 295.079 107.951 294.893 108.101 294.815C108.257 294.737 108.443 294.797 108.521 294.947C108.575 295.055 109.867 297.573 110.762 301.972C111.584 306.022 112.197 312.476 110.443 320.233C110.407 320.371 110.281 320.474 110.137 320.474Z" fill="#39393B"/>
<path d="M102.528 299.003C102.528 299.003 87.6992 289.401 87.6812 276.373C87.6631 263.345 107.447 261.47 113.699 270.953C120.396 281.102 102.528 299.003 102.528 299.003Z" fill="#21B573"/>
<path d="M100.456 332.36C100.432 332.36 100.408 332.36 100.384 332.354C100.215 332.312 100.113 332.143 100.149 331.975C102.768 320.924 102.534 303.426 101.879 290.699C101.17 276.896 99.819 265.562 99.807 265.454C99.7889 265.28 99.9091 265.124 100.083 265.106C100.251 265.088 100.414 265.208 100.432 265.382C100.444 265.496 101.795 276.848 102.51 290.668C103.17 303.438 103.399 320.996 100.768 332.119C100.726 332.263 100.6 332.36 100.456 332.36Z" fill="#39393B"/>
<path d="M102.473 297.699C102.317 297.699 102.179 297.579 102.161 297.423C100.359 281.583 92.7616 267.582 92.6835 267.443C92.5994 267.293 92.6535 267.101 92.8096 267.017C92.9598 266.933 93.152 266.987 93.2361 267.143C93.3141 267.281 100.972 281.391 102.786 297.357C102.804 297.531 102.684 297.687 102.509 297.705C102.497 297.693 102.485 297.699 102.473 297.699Z" fill="#39393B"/>
<path d="M102.42 298.757C102.288 298.757 102.168 298.673 102.125 298.541C99.4168 290.488 95.675 284.666 93.0144 281.198C90.1315 277.437 87.8612 275.562 87.8372 275.544C87.7051 275.436 87.681 275.237 87.7951 275.105C87.9032 274.973 88.1014 274.949 88.2336 275.063C88.3297 275.141 90.5699 276.992 93.4948 280.802C96.1915 284.311 99.9754 290.2 102.714 298.342C102.768 298.504 102.684 298.685 102.516 298.739C102.486 298.751 102.45 298.757 102.42 298.757Z" fill="#39393B"/>
<path d="M102.366 294.773C102.36 294.773 102.354 294.773 102.348 294.773C102.174 294.767 102.041 294.616 102.053 294.442C102.72 281.354 109.747 267.924 109.813 267.786C109.897 267.63 110.084 267.575 110.24 267.654C110.396 267.732 110.45 267.924 110.372 268.08C110.3 268.212 103.339 281.523 102.684 294.472C102.672 294.64 102.534 294.773 102.366 294.773Z" fill="#39393B"/>
<path d="M102.444 297.447C102.42 297.447 102.402 297.447 102.378 297.441C102.21 297.405 102.102 297.237 102.138 297.068C103.843 289.293 107.147 283.668 109.621 280.315C112.306 276.673 114.552 274.901 114.648 274.829C114.786 274.72 114.985 274.745 115.087 274.883C115.195 275.021 115.171 275.219 115.033 275.321C115.009 275.339 112.744 277.13 110.108 280.706C107.675 284.005 104.426 289.545 102.75 297.201C102.72 297.351 102.588 297.447 102.444 297.447Z" fill="#39393B"/>
<path d="M120.647 330.677L120.131 332.047L119.807 332.918L118.87 335.406L118.539 336.277L117.578 338.837L117.254 339.703L113.122 350.675H90.5512L86.4191 339.703L86.0947 338.837L85.1338 336.277L84.8035 335.406L83.8665 332.918L83.5422 332.047L83.0257 330.677C82.6713 329.733 83.368 328.73 84.371 328.73H119.308C120.305 328.73 120.996 329.733 120.647 330.677Z" fill="#0875F7"/>
<path d="M120.125 332.047L119.801 332.918H83.8609L83.5366 332.047H120.125Z" fill="#084FC7"/>
<path d="M118.864 335.406L118.534 336.278H85.1282L84.7979 335.406H118.864Z" fill="#084FC7"/>
<path d="M117.573 338.837L117.249 339.703H86.4202L86.0898 338.837H117.573Z" fill="#084FC7"/>
<path d="M17.7349 327.4C17.7349 327.4 4.36478 324.757 0.634124 315.423C-3.09653 306.089 10.547 299.088 17.7349 304.1C25.4279 309.46 17.7349 327.4 17.7349 327.4Z" fill="#21B573"/>
<path d="M25.6876 351.923C25.5718 351.923 25.4652 351.835 25.4466 351.715C24.1676 343.044 19.0003 330.571 14.8989 321.636C10.4452 311.946 6.24652 304.211 6.20481 304.133C6.13993 304.017 6.18628 303.868 6.30214 303.803C6.418 303.739 6.56631 303.785 6.63119 303.901C6.6729 303.98 10.8809 311.728 15.3438 321.432C19.4637 330.4 24.6449 342.919 25.9332 351.645C25.9518 351.78 25.8637 351.9 25.7293 351.919C25.7108 351.919 25.7015 351.923 25.6876 351.923Z" fill="#39393B"/>
<path d="M17.2346 326.496C17.1466 326.496 17.0632 326.449 17.0215 326.37C11.2054 315.534 1.76056 307.67 1.66788 307.592C1.56592 307.508 1.55201 307.355 1.63543 307.253C1.71885 307.151 1.87178 307.137 1.97373 307.221C2.07105 307.299 11.5854 315.219 17.4478 326.143C17.5127 326.259 17.4664 326.407 17.3505 326.472C17.3134 326.486 17.2717 326.496 17.2346 326.496Z" fill="#39393B"/>
<path d="M17.4989 327.274C17.4293 327.274 17.3645 327.246 17.3135 327.191C13.0731 322.197 8.72604 319.09 5.82957 317.366C2.68747 315.497 0.523238 314.797 0.5047 314.792C0.379573 314.751 0.305411 314.616 0.34712 314.486C0.388829 314.361 0.523241 314.287 0.653003 314.329C0.741055 314.356 2.88212 315.043 6.06592 316.939C8.99947 318.682 13.3975 321.826 17.6842 326.876C17.7723 326.978 17.7584 327.131 17.6564 327.219C17.6101 327.256 17.5545 327.274 17.4989 327.274Z" fill="#39393B"/>
<path d="M16.3208 324.432C16.2188 324.432 16.1261 324.367 16.0937 324.27C12.8311 314.695 14.0314 303.062 14.0453 302.946C14.0592 302.811 14.1797 302.718 14.3094 302.732C14.4438 302.746 14.5365 302.867 14.5226 302.997C14.5087 303.113 13.3223 314.644 16.5478 324.112C16.5895 324.237 16.5247 324.377 16.3949 324.418C16.3717 324.428 16.3486 324.432 16.3208 324.432Z" fill="#39393B"/>
<path d="M17.1416 326.329C17.0257 326.329 16.9238 326.245 16.9052 326.125C15.9089 320.064 16.6735 315.122 17.4938 312.043C18.3836 308.7 19.4958 306.813 19.5422 306.738C19.6117 306.622 19.76 306.585 19.8759 306.655C19.9917 306.724 20.0288 306.873 19.9593 306.989C19.95 307.007 18.8285 308.904 17.9572 312.191C17.1555 315.219 16.4047 320.088 17.3826 326.05C17.4057 326.18 17.3131 326.305 17.1833 326.329C17.1694 326.324 17.1555 326.329 17.1416 326.329Z" fill="#39393B"/>
<path d="M31.8416 329.838C31.8416 329.838 45.3461 327.988 49.6236 318.896C53.9012 309.798 40.6932 302.004 33.2227 306.581C25.2238 311.477 31.8416 329.838 31.8416 329.838Z" fill="#21B573"/>
<path d="M26.7206 351.13C26.7206 351.13 26.716 351.13 26.7206 351.13C26.5862 351.13 26.475 351.019 26.4796 350.884C26.5306 346.419 27.5038 341.333 29.3715 335.769C30.8637 331.322 32.9214 326.56 35.4981 321.617C39.8776 313.202 44.2895 307.086 44.3358 307.026C44.4146 306.919 44.5675 306.891 44.6741 306.97C44.7807 307.049 44.8085 307.202 44.7297 307.309C44.688 307.369 40.2946 313.461 35.9291 321.845C31.9065 329.574 27.0867 340.883 26.9709 350.889C26.9616 351.024 26.8504 351.13 26.7206 351.13Z" fill="#39393B"/>
<path d="M32.4116 328.967C32.3699 328.967 32.3236 328.957 32.2865 328.93C32.1706 328.86 32.1382 328.712 32.2077 328.596C38.7051 318.038 48.6736 310.693 48.7755 310.619C48.8821 310.54 49.035 310.563 49.1138 310.67C49.1926 310.777 49.1695 310.93 49.0629 311.009C48.9655 311.083 39.0712 318.372 32.6248 328.846C32.5692 328.925 32.4904 328.967 32.4116 328.967Z" fill="#39393B"/>
<path d="M32.1007 329.727C32.0405 329.727 31.9802 329.704 31.9339 329.662C31.8366 329.569 31.8319 329.416 31.9246 329.319C36.508 324.529 41.0821 321.655 44.113 320.087C47.4033 318.386 49.5769 317.825 49.6696 317.801C49.7993 317.769 49.9291 317.848 49.9615 317.978C49.994 318.108 49.9152 318.237 49.7854 318.27C49.7623 318.274 47.5609 318.845 44.3169 320.523C41.3231 322.072 36.8046 324.919 32.2722 329.653C32.2259 329.699 32.1656 329.727 32.1007 329.727Z" fill="#39393B"/>
<path d="M33.4459 326.959C33.4135 326.959 33.3857 326.954 33.3532 326.941C33.2281 326.889 33.1725 326.75 33.2188 326.625C37.0005 317.361 36.4953 305.783 36.4907 305.667C36.4861 305.533 36.588 305.421 36.7224 305.412C36.8522 305.403 36.968 305.51 36.9773 305.644C36.9819 305.76 37.4917 317.444 33.673 326.811C33.6313 326.903 33.5386 326.959 33.4459 326.959Z" fill="#39393B"/>
<path d="M32.5134 328.804C32.4949 328.804 32.4763 328.804 32.4578 328.8C32.328 328.772 32.2446 328.642 32.2771 328.512C33.6117 322.614 33.1483 317.713 32.5273 314.644C31.8507 311.315 30.8497 309.353 30.8404 309.33C30.7802 309.209 30.8265 309.066 30.9424 309.005C31.0628 308.945 31.2065 308.992 31.2668 309.107C31.3085 309.191 32.3049 311.134 32.9954 314.528C33.6303 317.653 34.103 322.633 32.7498 328.619C32.722 328.725 32.6246 328.804 32.5134 328.804Z" fill="#39393B"/>
<path d="M26.6422 312.237C26.6422 312.237 15.1999 304.828 15.186 294.776C15.1721 284.723 30.4377 283.276 35.2621 290.593C40.4294 298.425 26.6422 312.237 26.6422 312.237Z" fill="#21B573"/>
<path d="M25.0434 337.976C25.0249 337.976 25.0063 337.976 24.9878 337.971C24.858 337.939 24.7792 337.809 24.807 337.679C26.8276 329.152 26.6469 315.65 26.1417 305.83C25.5949 295.179 24.5522 286.434 24.5429 286.351C24.529 286.216 24.6217 286.096 24.7561 286.082C24.8858 286.068 25.0109 286.161 25.0248 286.295C25.0341 286.383 26.0769 295.142 26.6283 305.806C27.1381 315.659 27.3142 329.208 25.2844 337.79C25.252 337.902 25.1546 337.976 25.0434 337.976Z" fill="#39393B"/>
<path d="M26.6006 311.231C26.4801 311.231 26.3735 311.138 26.3596 311.018C24.9693 298.796 19.1068 287.992 19.0466 287.885C18.9817 287.769 19.0234 287.621 19.1439 287.556C19.2598 287.491 19.408 287.533 19.4729 287.653C19.5332 287.76 25.442 298.647 26.8415 310.967C26.8555 311.101 26.7628 311.222 26.6284 311.236C26.6191 311.227 26.6098 311.231 26.6006 311.231Z" fill="#39393B"/>
<path d="M26.5583 312.047C26.4563 312.047 26.3636 311.983 26.3311 311.881C24.2411 305.667 21.3539 301.174 19.3008 298.499C17.0764 295.596 15.3246 294.15 15.306 294.136C15.2041 294.052 15.1855 293.899 15.2736 293.797C15.357 293.695 15.5099 293.677 15.6119 293.765C15.686 293.825 17.4147 295.253 19.6716 298.193C21.7524 300.901 24.6721 305.445 26.7853 311.728C26.827 311.853 26.7622 311.992 26.6324 312.034C26.6092 312.043 26.5814 312.047 26.5583 312.047Z" fill="#39393B"/>
<path d="M26.517 308.973C26.5123 308.973 26.5077 308.973 26.5031 308.973C26.3687 308.969 26.2667 308.853 26.276 308.718C26.7904 298.619 32.2126 288.256 32.2636 288.15C32.3285 288.029 32.4721 287.987 32.5926 288.048C32.7131 288.108 32.7548 288.256 32.6946 288.377C32.639 288.479 27.2677 298.749 26.7626 308.741C26.7533 308.871 26.6467 308.973 26.517 308.973Z" fill="#39393B"/>
<path d="M26.5781 311.036C26.5596 311.036 26.5457 311.036 26.5272 311.032C26.3974 311.004 26.314 310.874 26.3418 310.744C27.6579 304.744 30.2068 300.404 32.1162 297.817C34.1877 295.007 35.921 293.639 35.9951 293.584C36.1017 293.5 36.2547 293.519 36.3334 293.625C36.4169 293.732 36.3983 293.885 36.2917 293.964C36.2732 293.978 34.526 295.36 32.4916 298.118C30.6147 300.664 28.1075 304.939 26.8145 310.846C26.7913 310.962 26.6894 311.036 26.5781 311.036Z" fill="#39393B"/>
<path d="M40.6237 336.678L40.2252 337.735L39.9749 338.407L39.252 340.327L38.9971 340.999L38.2556 342.974L38.0053 343.642L34.8169 352.109H17.401L14.2126 343.642L13.9623 342.974L13.2208 340.999L12.9659 340.327L12.243 338.407L11.9927 337.735L11.5941 336.678C11.3207 335.95 11.8583 335.175 12.6322 335.175H39.5903C40.3596 335.175 40.8925 335.95 40.6237 336.678Z" fill="#0875F7"/>
<path d="M40.2212 337.735L39.971 338.407H12.239L11.9888 337.735H40.2212Z" fill="#084FC7"/>
<path d="M39.2475 340.327L38.9926 340.999H13.2163L12.9614 340.327H39.2475Z" fill="#084FC7"/>
<path d="M38.2518 342.974L38.0015 343.642H14.2134L13.9585 342.974H38.2518Z" fill="#084FC7"/>
<mask id="mask0_250_3" style="mask-type:alpha" maskUnits="userSpaceOnUse" x="172" y="24" width="161" height="183">
<rect x="172" y="24" width="161" height="182.054" fill="white"/>
</mask>
<g mask="url(#mask0_250_3)">
<path d="M205.113 97.8299C195.415 79.6508 197.314 62.6054 197.314 62.6054C197.314 62.6054 194.85 45.4587 188.203 45.0944C181.556 44.73 180.222 46.8151 177.374 55.9451C174.525 65.0751 178.707 95.9269 185.172 111.737C191.637 127.548 206.992 140.261 206.992 140.261L226.973 115.543C226.973 115.543 211.073 108.984 205.113 97.8299Z" fill="#DA5742"/>
<path d="M178.041 83.0921C179.375 79.8126 182.425 72.3223 184.607 67.9699C187.456 62.2611 187.638 61.1072 187.638 61.1072L176.566 68.4557C176.768 72.8689 177.274 77.9097 178.041 83.0921Z" fill="#C43D28"/>
<path d="M195.435 128.357C201.314 135.564 206.971 140.261 206.971 140.261L226.972 115.543C226.972 115.543 222.79 113.681 217.861 110.361L195.435 128.357Z" fill="#C43D28"/>
<path d="M221.66 111.738C221.66 111.738 238.772 118.924 248.268 118.56C257.763 118.195 268.976 119.916 279.623 123.924C290.27 127.933 298.432 141.435 301.483 147.731C304.514 154.007 306.999 166.396 306.999 166.396H277.522L283.219 197.633H209.296L220.125 150.404L202.083 136.496L221.66 111.738Z" fill="#3D5CFF"/>
<path d="M248.268 67.3829C240.873 68.3344 239.136 77.8491 239.136 77.8491C239.136 77.8491 228.448 76.6952 223.943 82.0396C218.811 88.133 226.994 92.5057 226.994 92.5057C226.994 92.5057 218.751 90.3801 218.064 95.7447C217.296 101.656 222.246 104.126 243.338 108.681C264.43 113.235 290.654 120.665 294.836 114.572C299.948 107.122 284.573 103.903 284.573 103.903C284.573 103.903 292.371 104.672 292.371 97.9918C292.371 91.3315 276.593 83.902 276.593 83.902C276.593 83.902 276.593 70.1968 266.127 68.6785C258.753 67.6259 257.763 70.2373 257.763 70.2373C257.763 70.2373 255.662 66.4315 248.268 67.3829Z" fill="#F99A3D"/>
<path d="M277.664 166.396H284.533L273.825 146.962L277.664 166.396Z" fill="#224BF4"/>
<path d="M212.063 123.884L210.628 125.685L209.719 142.366L220.144 150.403L209.295 197.612H210.729L215.194 192.855L241.984 191.154L258.833 197.612H266.531L237.034 149.128L212.063 123.884Z" fill="#224BF4"/>
<path d="M242.55 101.271C243.681 106.231 249.197 108.701 249.197 108.701L247.479 120.321C247.479 120.321 250.146 125.078 255.641 124.694C261.157 124.309 263.622 121.455 263.622 121.455L265.339 104.51C265.339 104.51 272.188 104.328 274.269 98.8015C275.724 94.9552 273.501 91.5744 270.087 91.372C266.672 91.1898 265.137 94.2264 265.137 94.2264C265.137 94.2264 261.521 93.0927 260.955 88.5176C260.389 83.9425 260.571 80.3391 258.106 79.5698C255.641 78.8005 253.924 80.7034 253.924 80.7034C253.924 80.7034 253.742 78.2337 251.257 78.6183C248.793 79.0029 248.025 82.991 247.075 84.5296C246.126 86.0681 243.701 88.133 242.55 88.5176C242.55 88.5176 241.418 96.3318 242.55 101.271Z" fill="#DA5742"/>
<path opacity="0.55" fill-rule="evenodd" clip-rule="evenodd" d="M233.034 197.673C227.377 195.243 223.741 189.757 223.054 182.652C222.326 175.182 225.034 167.975 229.781 164.695C233.034 162.448 236.63 160.788 240.126 159.169C246.005 156.436 251.621 153.824 254.268 148.905C252.268 148.5 250.025 147.468 247.884 145.666C245.197 143.378 243.904 140.605 244.449 138.277C245.318 134.511 248.409 133.317 250.914 133.803C254.328 134.471 257.5 138.236 256.409 144.897C256.207 146.152 255.864 147.265 255.419 148.318C256.692 148.46 257.844 148.338 258.713 147.974C260.612 147.204 261.682 145.423 261.945 142.71C262.43 137.427 260.975 133.256 257.723 130.625C253.702 127.365 246.894 126.596 240.388 128.641C237.681 129.491 235.156 129.633 233.075 129.046C231.135 128.499 229.741 127.365 229.155 125.847C228.226 123.398 229.458 119.45 236.085 116.434L236.408 117.122C230.287 119.916 229.054 123.418 229.882 125.564C230.832 128.033 234.671 129.633 240.166 127.892C246.914 125.766 253.985 126.596 258.207 130.017C261.662 132.811 263.218 137.224 262.713 142.771C262.369 146.536 260.511 148.055 259.016 148.682C258.005 149.087 256.632 149.249 255.096 149.047C252.389 154.31 246.57 157.023 240.469 159.857C237.014 161.456 233.438 163.116 230.246 165.323C225.781 168.38 223.155 175.485 223.842 182.571C224.508 189.393 227.983 194.636 233.378 196.964C235.216 197.754 237.297 198.219 239.56 198.341L239.479 199.11C237.135 198.988 234.974 198.523 233.034 197.673ZM245.197 138.459C244.732 140.504 245.924 142.994 248.389 145.099C250.429 146.84 252.652 147.832 254.631 148.217C255.116 147.184 255.46 146.05 255.662 144.795C256.672 138.641 253.823 135.179 250.773 134.572C250.409 134.491 250.086 134.471 249.762 134.471C247.277 134.471 245.681 136.435 245.197 138.459Z" fill="#EAEAFF"/>
<path opacity="0.55" fill-rule="evenodd" clip-rule="evenodd" d="M245.056 192.591C242.935 191.579 241.904 189.049 242.147 185.445C242.47 180.627 244.935 174.534 248.713 169.149C253.036 163.015 258.491 158.663 264.108 156.841C267.461 155.768 270.35 155.565 272.714 155.788C278.492 152.67 285.099 148.46 289.341 139.35C290.392 137.123 290.493 134.431 289.645 131.576L290.372 131.354C291.261 134.37 291.16 137.245 290.028 139.654C285.907 148.52 279.644 152.812 274.007 155.93C275.219 156.132 276.27 156.436 277.119 156.76C280.533 158.035 283.119 160.343 284.169 163.096C285.382 166.254 284.614 170.566 278.836 173.198C272.108 176.255 265.946 174.777 262.835 171.963C260.754 170.08 260.027 167.651 260.814 165.282C262.128 161.355 266.088 159.27 270.694 156.861C270.936 156.739 271.179 156.618 271.421 156.476C269.401 156.436 267.017 156.719 264.35 157.569C252.127 161.517 243.5 176.74 242.914 185.486C242.753 187.794 243.076 190.77 245.399 191.883C251.117 194.616 257.865 193.867 264.37 193.158L265.502 193.037L265.582 193.786L264.451 193.907C261.421 194.292 258.35 194.616 255.36 194.616C251.763 194.616 248.268 194.13 245.056 192.591ZM271.037 157.549C266.411 159.978 262.734 161.902 261.542 165.546C260.855 167.61 261.501 169.756 263.36 171.416C266.29 174.068 272.128 175.425 278.533 172.53C282.977 170.505 284.877 167.023 283.483 163.4C282.493 160.849 280.088 158.703 276.876 157.509C275.785 157.104 274.452 156.739 272.856 156.577C272.229 156.901 271.623 157.225 271.037 157.549Z" fill="#EAEAFF"/>
<path opacity="0.55" d="M281.522 137.002C278.209 135.321 275.481 132.649 274.067 129.633C272.653 126.637 272.794 123.823 274.411 122.467L274.896 123.054C273.542 124.167 273.481 126.617 274.754 129.309C276.774 133.601 283.462 140.22 295.705 137.852L295.846 138.601C294.109 138.925 292.412 139.087 290.775 139.087C287.401 139.087 284.27 138.378 281.522 137.002Z" fill="#EAEAFF"/>
<path fill-rule="evenodd" clip-rule="evenodd" d="M306.231 160.869V161.639H276.391V160.869H306.231Z" fill="#EAEAFF"/>
<path d="M255.662 87.3636C255.662 87.3636 255.844 86.4121 256.996 86.4121C258.127 86.4121 258.329 87.3636 258.329 87.3636" fill="white"/>
<path d="M246.166 86.9789C246.166 86.9789 246.732 85.8452 247.681 86.0274C248.631 86.2096 248.813 87.161 248.813 87.161" fill="white"/>
<path d="M251.217 89.6307C251.015 90.1773 250.793 90.7441 250.631 91.3109C250.55 91.5741 250.49 91.8778 250.51 92.1207C250.55 92.3434 250.732 92.5458 250.974 92.6875C251.459 92.9912 252.045 93.1531 252.611 93.2948C252.308 93.2948 252.005 93.2746 251.702 93.2139C251.399 93.1531 251.096 93.0722 250.813 92.9304C250.752 92.89 250.671 92.8495 250.611 92.809C250.55 92.7685 250.469 92.7078 250.409 92.647C250.288 92.5256 250.187 92.3636 250.146 92.1814C250.086 91.817 250.187 91.5134 250.247 91.2097C250.409 90.6226 250.651 90.0558 250.934 89.5092C251.217 88.9626 251.52 88.4363 251.863 87.9504C251.661 88.5173 251.439 89.0639 251.217 89.6307Z" fill="#5E5E72"/>
<path d="M250.914 96.1293C250.914 96.1293 252.429 97.263 253.945 96.8986C255.46 96.514 255.662 95.5625 255.662 95.5625" fill="white"/>
<path fill-rule="evenodd" clip-rule="evenodd" d="M246.934 91.7567C246.309 91.7567 245.802 91.1132 245.802 90.3194C245.802 89.5256 246.309 88.8821 246.934 88.8821C247.558 88.8821 248.065 89.5256 248.065 90.3194C248.065 91.1132 247.558 91.7567 246.934 91.7567Z" fill="#5E5E72"/>
<path fill-rule="evenodd" clip-rule="evenodd" d="M256.995 91.7567C256.37 91.7567 255.864 91.1132 255.864 90.3194C255.864 89.5256 256.37 88.8821 256.995 88.8821C257.62 88.8821 258.127 89.5256 258.127 90.3194C258.127 91.1132 257.62 91.7567 256.995 91.7567Z" fill="#5E5E72"/>
<path fill-rule="evenodd" clip-rule="evenodd" d="M264.729 95.9279C264.61 97.3204 262.694 98.2942 260.448 98.1029C258.202 97.9116 256.477 96.6277 256.596 95.2353C256.715 93.8428 258.631 92.869 260.877 93.0602C263.123 93.2515 264.847 94.5354 264.729 95.9279Z" fill="#C43D28"/>
<path d="M172.689 67.1014C171.78 66.1904 171.78 64.7328 172.689 63.8219L211.742 24.6903C212.651 23.7793 214.105 23.7793 215.015 24.6903L218.187 27.8686C219.096 28.7796 219.096 30.2372 218.187 31.1481L179.134 70.2797C178.224 71.1907 176.77 71.1907 175.861 70.2797L172.689 67.1014Z" fill="#EAEAFF"/>
<path d="M209.093 27.3201L207.619 28.7979L211.68 32.8872C212.084 33.292 212.75 33.292 213.154 32.8872C213.558 32.4823 213.558 31.8142 213.154 31.4093L209.093 27.3201Z" fill="#FFFFFE"/>
<path d="M203.982 32.4419L208.043 36.5312C208.447 36.9361 209.114 36.9361 209.518 36.5312C209.922 36.1263 209.922 35.4583 209.518 35.0534L205.457 30.9641L203.982 32.4419Z" fill="#FFFFFE"/>
<path d="M200.75 35.6809L204.81 39.7702C205.214 40.1751 205.881 40.1751 206.285 39.7702C206.689 39.3653 206.689 38.6973 206.285 38.2924L202.224 34.2031L200.75 35.6809Z" fill="#FFFFFE"/>
<path d="M196.911 39.5269L200.972 43.6162C201.376 44.021 202.043 44.021 202.447 43.6162C202.851 43.2113 202.851 42.5432 202.447 42.1384L198.386 38.0491L196.911 39.5269Z" fill="#FFFFFE"/>
<path d="M193.274 43.1712L197.335 47.2604C197.739 47.6653 198.406 47.6653 198.81 47.2604C199.214 46.8556 199.214 46.1875 198.81 45.7826L194.749 41.6934L193.274 43.1712Z" fill="#FFFFFE"/>
<path d="M190.042 46.4102L194.102 50.4995C194.506 50.9043 195.173 50.9043 195.577 50.4995C195.981 50.0946 195.981 49.4265 195.577 49.0217L191.516 44.9324L190.042 46.4102Z" fill="#FFFFFE"/>
<path d="M185.698 50.7625L189.759 54.8518C190.163 55.2566 190.829 55.2566 191.233 54.8518C191.638 54.4469 191.638 53.7788 191.233 53.374L187.173 49.2847L185.698 50.7625Z" fill="#FFFFFE"/>
<path d="M182.062 54.4063L186.122 58.4955C186.526 58.9004 187.193 58.9004 187.597 58.4955C188.001 58.0907 188.001 57.4226 187.597 57.0177L183.536 52.9285L182.062 54.4063Z" fill="#FFFFFE"/>
<path d="M178.829 57.6458L182.889 61.7351C183.294 62.1399 183.96 62.1399 184.364 61.7351C184.768 61.3302 184.768 60.6621 184.364 60.2572L180.303 56.168L178.829 57.6458Z" fill="#FFFFFE"/>
<path d="M187.617 62.8077C187.617 62.8077 188.001 58.7994 189.698 56.1474C191.395 53.4954 193.113 52.9084 193.113 52.9084C193.113 52.9084 187.799 49.2847 187.617 45.8635C187.436 42.4422 189.9 42.2398 191.032 43.0091C192.163 43.7783 195.598 47.7664 197.497 48.9203C199.396 50.0742 201.679 50.2564 202.447 54.4469C203.214 58.6374 196.184 65.5001 196.184 65.5001" fill="#DA5742"/>
<path d="M174.344 53.4752C173.212 56.3296 176.808 60.5201 178.526 61.2894C180.243 62.0586 181.758 61.4715 182.708 60.7225C183.657 59.9735 183.657 58.435 183.657 58.435C183.657 58.435 185.556 58.6172 186.89 57.4835C188.223 56.3498 187.839 54.4469 187.839 54.4469C187.839 54.4469 189.557 54.6291 190.506 53.3132C191.456 51.9771 190.688 48.3535 187.92 46.1064C186.162 44.6691 183.859 43.9403 182.506 45.0942C180 47.24 175.071 51.6127 174.344 53.4752Z" fill="#DA5742"/>
<path d="M187.879 54.5478L182.566 48.839C182.485 48.7581 182.505 48.6366 182.566 48.5759C182.647 48.4949 182.768 48.5151 182.829 48.5759L188.162 54.3049C188.243 54.3859 188.223 54.5074 188.162 54.5681C188.122 54.6086 188.061 54.6086 188.021 54.6086C187.96 54.6086 187.92 54.5883 187.879 54.5478Z" fill="#5E5E72"/>
<path d="M183.515 58.5562L178.566 53.0296C178.505 52.9486 178.505 52.8272 178.586 52.7664C178.667 52.7057 178.788 52.7057 178.849 52.7867L183.798 58.3133C183.859 58.3943 183.859 58.5157 183.778 58.5764C183.738 58.5967 183.697 58.6169 183.657 58.6169C183.596 58.6169 183.556 58.5967 183.515 58.5562Z" fill="#5E5E72"/>
<path d="M188.021 62.9897C187.9 62.9695 187.819 62.8885 187.84 62.7873C187.86 62.6253 188.244 58.7183 189.961 56.0461C191.254 54.0217 192.547 53.1917 193.153 52.888C193.092 52.8475 193.032 52.807 192.971 52.7868C191.496 51.8758 188.062 49.7097 187.84 45.8836C187.84 45.7824 187.92 45.6812 188.021 45.6812C188.122 45.6812 188.223 45.7621 188.223 45.8633C188.425 49.487 191.638 51.4912 193.173 52.4629C193.355 52.5843 193.517 52.6856 193.658 52.7665L193.981 52.9892L193.618 53.1107C193.597 53.1107 191.941 53.6978 190.304 56.2687C188.648 58.86 188.244 62.8075 188.244 62.848C188.203 62.929 188.122 62.9897 188.021 62.9897C188.001 62.9897 188.021 62.9897 188.021 62.9897Z" fill="#5E5E72"/>
<path fill-rule="evenodd" clip-rule="evenodd" d="M227.65 113.86L228.268 114.317L205.622 144.922L205.004 144.465L227.65 113.86Z" fill="#EAEAFF"/>
<path d="M252.631 109.267C251.035 108.943 249.984 108.883 249.216 108.7L248.287 114.956C249.762 114.834 251.641 114.49 253.378 113.66C256.995 111.939 258.53 109.085 258.53 109.085C258.53 109.085 256.449 110.037 252.631 109.267Z" fill="#C43D28"/>
<path d="M253.964 109.652C251.115 109.47 249.196 108.883 249.176 108.883C249.075 108.863 249.014 108.741 249.055 108.64C249.075 108.539 249.196 108.478 249.297 108.519C249.317 108.519 251.216 109.085 254.004 109.268C256.772 109.45 258.288 108.903 258.288 108.903C258.389 108.863 258.49 108.923 258.53 109.025C258.57 109.126 258.51 109.227 258.409 109.268C258.348 109.268 257.217 109.693 255.116 109.693C254.752 109.693 254.368 109.672 253.964 109.652Z" fill="#5E5E72"/>
<path d="M267.824 100.117C268.208 97.6474 269.723 95.542 269.723 95.542C269.723 95.542 267.562 95.542 266.168 99.5503C265.299 102.04 265.279 103.64 265.38 104.51C265.541 104.49 266.551 104.449 267.865 104.085C267.723 103.214 267.582 101.696 267.824 100.117Z" fill="#C43D28"/>
<path d="M265.562 102.607C265.441 102.587 265.36 102.506 265.38 102.405C265.38 102.324 265.582 100.259 266.532 98.1538C267.501 96.0282 269.926 94.6921 270.027 94.6314C270.128 94.5909 270.229 94.6111 270.289 94.7123C270.35 94.8136 270.31 94.9148 270.209 94.9755C270.188 94.9958 267.784 96.3116 266.875 98.3158C265.946 100.36 265.744 102.425 265.744 102.446C265.724 102.527 265.643 102.607 265.562 102.607C265.542 102.607 265.542 102.607 265.562 102.607Z" fill="#5E5E72"/>
<path fill-rule="evenodd" clip-rule="evenodd" d="M207.557 196.904L262.631 188.725L195.354 114.389L207.557 196.904ZM243.56 180.567L214.426 184.899L207.961 141.253L243.56 180.567Z" fill="#EAEAFF"/>
<path d="M208.083 168.704L203.618 169.372L203.921 171.437L208.386 170.769C208.972 170.709 209.376 170.162 209.275 169.595C209.194 169.028 208.649 168.623 208.083 168.704Z" fill="#FFFFFE"/>
<path d="M206.608 158.663L202.123 159.331L202.426 161.396L206.911 160.728C207.476 160.647 207.88 160.12 207.8 159.554C207.719 158.987 207.173 158.582 206.608 158.663Z" fill="#FFFFFE"/>
<path d="M207.356 163.683L202.891 164.351L203.194 166.416L207.659 165.748C208.225 165.667 208.629 165.141 208.548 164.574C208.467 164.007 207.922 163.602 207.356 163.683Z" fill="#FFFFFE"/>
<path d="M209.578 178.745L205.133 179.413L205.436 181.478L209.881 180.81C210.466 180.749 210.85 180.202 210.77 179.636C210.689 179.069 210.143 178.664 209.578 178.745Z" fill="#FFFFFE"/>
<path d="M205.861 153.642L201.375 154.31L201.679 156.375L206.164 155.707C206.75 155.626 207.133 155.1 207.053 154.533C206.972 153.966 206.426 153.561 205.861 153.642Z" fill="#FFFFFE"/>
<path d="M208.831 173.724L204.366 174.392L204.669 176.457L209.113 175.789C209.72 175.729 210.103 175.182 210.023 174.615C209.942 174.048 209.396 173.643 208.831 173.724Z" fill="#FFFFFE"/>
<path d="M203.638 138.561L199.133 139.229L199.436 141.294L203.941 140.626C204.507 140.565 204.911 140.018 204.83 139.452C204.749 138.885 204.204 138.48 203.638 138.561Z" fill="#FFFFFE"/>
<path d="M210.326 183.765L205.881 184.433L206.184 186.498L210.629 185.83C211.194 185.77 211.598 185.223 211.518 184.656C211.437 184.089 210.891 183.684 210.326 183.765Z" fill="#FFFFFE"/>
<path d="M204.366 143.581L199.86 144.249L200.163 146.314L204.669 145.646C205.255 145.585 205.659 145.059 205.558 144.472C205.477 143.905 204.931 143.5 204.366 143.581Z" fill="#FFFFFE"/>
<path d="M205.113 148.622L200.627 149.29L200.93 151.355L205.416 150.687C206.002 150.606 206.385 150.08 206.305 149.513C206.224 148.946 205.678 148.541 205.113 148.622Z" fill="#FFFFFE"/>
<path d="M305.827 185.445C304.877 196.114 301.827 205.062 288.533 206.013C275.239 206.965 256.41 196.296 247.116 186.397C237.823 176.498 226.59 165.444 226.59 165.444C226.59 165.444 222.791 165.444 219.559 166.578C216.326 167.712 213.659 167.53 212.912 166.76C212.144 165.991 212.346 165.424 212.346 165.424C212.346 165.424 210.063 165.242 209.498 163.703C208.932 162.185 209.498 161.416 209.498 161.416C209.498 161.416 206.831 161.234 206.467 158.379C206.083 155.525 212.73 152.104 215.397 150.95C218.064 149.816 222.044 149.229 222.044 149.229C222.044 149.229 217.862 148.278 215.195 149.229C212.528 150.181 211.013 149.047 211.013 147.326C211.013 145.605 214.427 142.751 219.943 142.751C225.458 142.751 234.388 146.557 239.136 150.747C243.884 154.938 278.29 170.931 278.29 170.931L277.522 166.355H305.645V166.396C305.645 166.396 306.776 174.777 305.827 185.445Z" fill="#DA5742"/>
<path d="M209.356 161.558C209.295 161.477 209.316 161.355 209.396 161.295C209.437 161.274 212.669 158.784 215.68 156.902C218.71 154.999 220.791 154.614 220.872 154.594C220.973 154.574 221.074 154.634 221.094 154.756C221.114 154.857 221.054 154.958 220.933 154.979C220.912 154.979 218.831 155.383 215.862 157.246C212.871 159.129 209.639 161.598 209.598 161.619C209.578 161.619 209.538 161.639 209.497 161.639C209.437 161.639 209.376 161.619 209.356 161.558Z" fill="#5E5E72"/>
<path d="M212.185 165.546C212.124 165.465 212.144 165.343 212.225 165.283C212.265 165.262 215.882 162.59 219.114 161.254C222.347 159.918 223.337 159.898 223.377 159.898C223.478 159.898 223.559 159.979 223.559 160.08C223.559 160.181 223.478 160.262 223.377 160.262C223.377 160.262 222.387 160.282 219.276 161.578C216.104 162.894 212.508 165.526 212.468 165.546C212.427 165.627 212.387 165.627 212.346 165.627C212.286 165.627 212.225 165.606 212.185 165.546Z" fill="#5E5E72"/>
<path d="M277.522 166.396L278.29 170.971L305.887 168.562C305.746 167.165 305.645 166.396 305.645 166.396H277.522Z" fill="#C43D28"/>
<path fill-rule="evenodd" clip-rule="evenodd" d="M284.169 173.441L273.825 169.008L284.169 173.441Z" fill="#5E5E72"/>
<path d="M284.088 173.603L273.744 169.169C273.643 169.129 273.603 169.008 273.643 168.927C273.684 168.825 273.805 168.785 273.886 168.825L284.23 173.259C284.331 173.299 284.371 173.421 284.331 173.502C284.311 173.583 284.25 173.623 284.169 173.623C284.149 173.623 284.129 173.623 284.088 173.603Z" fill="#5E5E72"/>
<path fill-rule="evenodd" clip-rule="evenodd" d="M273.542 145.444L278.29 170.951L273.542 145.444Z" fill="#5E5E72"/>
<path d="M278.108 170.991L273.36 145.484C273.34 145.383 273.401 145.281 273.522 145.261C273.623 145.241 273.724 145.302 273.744 145.423L278.492 170.93C278.512 171.032 278.452 171.133 278.33 171.153C278.31 171.153 278.29 171.153 278.29 171.153C278.209 171.153 278.128 171.092 278.108 170.991Z" fill="#5E5E72"/>
<path d="M244.732 92.4449C243.762 92.3639 242.873 92.4854 242.145 92.789C242.065 94.0441 242.024 95.441 242.065 96.858C242.691 97.1819 243.459 97.4046 244.307 97.4856C246.57 97.6678 248.489 96.6961 248.59 95.2993C248.712 93.9024 246.974 92.6271 244.732 92.4449Z" fill="#C43D28"/>
<circle opacity="0.52" cx="302.949" cy="47.5638" r="4.04963" fill="#FF5757"/>
</g>
<path d="M451.07 165.799H482.93C485.177 165.799 487 163.976 487 161.729V144.07C487 141.823 485.177 140 482.93 140H451.07C448.823 140 447 141.823 447 144.07V161.729C447.007 163.983 448.823 165.799 451.07 165.799Z" fill="#4DA1FF"/>
<path d="M456.587 154.866V153.088L462.424 150.225V152.598L459.478 153.977L462.424 155.388V157.721L456.587 154.866Z" fill="white"/>
<path d="M468.11 148.496H470.046L465.164 161H463.228L468.11 148.496Z" fill="white"/>
<path d="M471.165 157.713V155.355L474.11 153.977L471.165 152.566V150.217L477.001 153.08V154.858L471.165 157.713Z" fill="white"/>
<path d="M313.375 96.999L314.625 95.437L310.601 92.218L314.625 88.999L313.375 87.437L308.375 91.437C308.258 91.5307 308.164 91.6495 308.099 91.7847C308.034 91.9199 308 92.068 308 92.218C308 92.368 308.034 92.5161 308.099 92.6513C308.164 92.7865 308.258 92.9053 308.375 92.999L313.375 96.999ZM322.625 87.437L321.375 88.999L325.399 92.218L321.375 95.437L322.625 96.999L327.625 92.999C327.743 92.9053 327.837 92.7865 327.902 92.6513C327.967 92.5161 328.001 92.368 328.001 92.218C328.001 92.068 327.967 91.9199 327.902 91.7847C327.837 91.6495 327.743 91.5307 327.625 91.437L322.625 87.437ZM320.976 83.434L316.976 101.434L315.023 101L319.023 83L320.976 83.434Z" fill="#F99A3D"/>
<path d="M302.014 313H303.014V311H302.025C301.717 310.994 299.014 310.827 299.014 307C299.014 305.007 298.349 303.754 297.512 303C298.349 302.246 299.014 300.993 299.014 299C299.014 295.173 301.717 295.006 302.014 295H303.014V293H302.012C300.283 293.004 297.014 294.264 297.014 299C297.014 301.8 295.336 301.99 295 302L295.014 304C295.096 304 297.014 304.034 297.014 307C297.014 311.736 300.283 312.996 302.014 313ZM315.014 302C314.932 302 313.014 301.966 313.014 299C313.014 294.264 309.745 293.004 308.014 293H307.014V295H308.003C308.311 295.006 311.014 295.173 311.014 299C311.014 300.993 311.679 302.246 312.516 303C311.679 303.754 311.014 305.007 311.014 307C311.014 310.827 308.311 310.994 308.014 311H307.014V313H308.016C309.745 312.996 313.014 311.736 313.014 307C313.014 304.2 314.692 304.01 315.028 304L315.014 302Z" fill="#DA5742"/>
<path d="M507.68 59.59C507.68 50.59 500.39 43.3 491.39 43.3C487.82 43.3 484.52 44.47 481.83 46.42C481.83 46.26 481.84 46.1 481.84 45.94C481.84 29.41 468.44 16 451.9 16C436.82 16 424.35 27.16 422.27 41.66C418.73 38.35 414 36.31 408.78 36.31C397.86 36.31 389 45.17 389 56.09C389 66.75 397.44 75.42 408 75.83V75.87H491.96V75.84C500.7 75.54 507.68 68.38 507.68 59.59Z" fill="white"/>
</svg>
